<svg width="400" height="300" viewBox="0 0 400 300" version="1.1" xmlns="http://www.w3.org/2000/svg" xmlns:xlink="http://www.w3.org/1999/xlink">
<title>general-robot-errorcode-404</title>
<desc>Created using Figma</desc>
<g id="Canvas" transform="translate(-30218 -103)">
<clipPath id="clip-0" clip-rule="evenodd">
<path d="M 30218 103L 30618 103L 30618 403L 30218 403L 30218 103Z" fill="#FFFFFF"/>
</clipPath>
<g id="general-robot-errorcode-404" clip-path="url(#clip-0)">
<path d="M 30218 103L 30618 103L 30618 403L 30218 403L 30218 103Z" fill="#FFFFFF"/>
<g id="Vector">
<use xlink:href="#path0_fill" transform="translate(30438.8 104)" fill="#B4A2FC"/>
</g>
<g id="Group">
<g id="Vector">
<use xlink:href="#path1_fill" transform="translate(30458.5 149.431)" fill="#FFFFFF"/>
</g>
</g>
<g id="Vector">
<use xlink:href="#path2_fill" transform="translate(30367.5 391.836)" fill="#C8C8C8"/>
</g>
<g id="Vector">
<use xlink:href="#path3_fill" transform="translate(30337.9 215.669)" fill="#6132E0"/>
</g>
<g id="Vector">
<use xlink:href="#path4_fill" transform="translate(30341.5 235.148)" fill="#232323"/>
</g>
<g id="Vector">
<use xlink:href="#path5_fill" transform="matrix(0.983795 -0.179299 0.180023 0.983662 30336.8 246.325)" fill="#6132E0"/>
</g>
<g id="Vector">
<use xlink:href="#path6_fill" transform="translate(30381.3 329.04)" fill="#6132E0"/>
</g>
<g id="Vector">
<use xlink:href="#path7_fill" transform="translate(30381.3 329.04)" fill="#232323"/>
</g>
<g id="Vector">
<use xlink:href="#path8_fill" transform="translate(30385.1 383.198)" fill="#6132E0"/>
</g>
<g id="Vector">
<use xlink:href="#path9_fill" transform="translate(30385.3 390.641)" fill="#232323"/>
</g>
<g id="Vector">
<use xlink:href="#path10_fill" transform="translate(30351.9 191.527)" fill="#6132E0"/>
</g>
<g id="Vector">
<use xlink:href="#path11_fill" transform="translate(30351.9 196.898)" fill="#232323"/>
</g>
<g id="Vector">
<use xlink:href="#path12_fill" transform="translate(30326 199.677)" fill="#6132E0"/>
</g>
<g id="Vector">
<use xlink:href="#path13_fill" transform="translate(30366.8 177.961)" fill="#6132E0"/>
</g>
<g id="Vector">
<use xlink:href="#path14_fill" transform="translate(30468.8 262.918)" fill="#232323"/>
</g>
<g id="Vector">
<use xlink:href="#path15_fill" transform="matrix(0.200623 -0.979668 0.979832 0.199823 30422.4 272.416)" fill="#6132E0"/>
</g>
<g id="Vector">
<use xlink:href="#path16_fill" transform="translate(30489.4 234.905)" fill="#6132E0"/>
</g>
<g id="Vector">
<use xlink:href="#path17_fill" transform="translate(30491 245.952)" fill="#232323"/>
</g>
<g id="Vector">
<use xlink:href="#path18_fill" transform="translate(30487.7 256.362)" fill="#6132E0"/>
</g>
<g id="Vector">
<use xlink:href="#path19_fill" transform="translate(30478.9 216.378)" fill="#6132E0"/>
</g>
<g id="Vector">
<use xlink:href="#path20_fill" transform="translate(30379.6 207.249)" fill="#6132E0"/>
</g>
<g id="Vector">
<use xlink:href="#path21_fill" transform="translate(30394.2 226.703)" fill="#FFFFFF"/>
</g>
<g id="Vector">
<use xlink:href="#path22_fill" transform="translate(30377.5 285.54)" fill="#6132E0"/>
</g>
<g id="Vector">
<use xlink:href="#path23_fill" transform="translate(30379.9 279.804)" fill="#232323"/>
</g>
<g id="Vector">
<use xlink:href="#path24_fill" transform="translate(30365.5 309.439)" fill="#4833C8"/>
<use xlink:href="#path24_fill" transform="translate(30365.5 309.439)" fill="#FFFFFF" fill-opacity="0.5"/>
</g>
<g id="Vector">
<use xlink:href="#path25_fill" transform="translate(30389.6 204.486)" fill="#232323"/>
</g>
<g id="Vector">
<use xlink:href="#path26_fill" transform="translate(30358.7 232.013)" fill="#4833C8"/>
<use xlink:href="#path26_fill" transform="translate(30358.7 232.013)" fill="#FFFFFF" fill-opacity="0.5"/>
</g>
<g id="Vector">
<use xlink:href="#path27_fill" transform="translate(30381.1 247.768)" fill="#232323"/>
</g>
<g id="Vector">
<use xlink:href="#path28_fill" transform="translate(30389.9 252.017)" fill="#FFFFFF"/>
</g>
</g>
</g>
<defs>
<path id="path0_fill" d="M 73.0029 145.702C 113.321 145.702 146.006 113.086 146.006 72.8511C 146.006 32.6166 113.321 0 73.0029 0C 32.6845 0 0 32.6166 0 72.8511C 0 113.086 32.6845 145.702 73.0029 145.702Z"/>
<path id="path1_fill" d="M 27.1699 0.731972L 27.1699 27.5738L 32.2887 27.5738L 32.2887 34.5812L 27.1699 34.5812L 27.1699 43.3116L 18.5981 43.3116L 18.5981 34.5812L -1.98364e-06 34.5812L -1.98364e-06 27.2474C 1.64666 25.4069 3.35291 23.3927 5.11874 21.2049C 6.88457 19.017 8.59081 16.765 10.2375 14.4488C 11.8841 12.1326 13.417 9.80154 14.8362 7.4556C 16.1623 5.28088 17.3686 3.03567 18.4498 0.729946L 27.1699 0.731972ZM 8.42155 27.5738L 18.5981 27.5738L 18.5981 12.6975C 17.9034 13.984 17.1498 15.2853 16.3373 16.6015C 15.5248 17.9177 14.6717 19.2143 13.7779 20.4914C 12.8855 21.7684 11.983 23.0056 11.0703 24.2028C 10.1576 25.4001 9.27467 26.5238 8.42155 27.5738ZM 51.1792 44.0535C 41.023 44.0535 35.9449 36.9373 35.9449 22.7049C 35.9449 15.3211 37.3187 9.6941 40.0663 5.82385C 41.4024 3.92636 43.1992 2.39836 45.2885 1.383C 47.3779 0.367628 49.6913 -0.101876 52.0121 0.0184619C 61.9299 0.0184619 66.8889 7.25357 66.8889 21.7238C 66.8889 28.9292 65.5347 34.4521 62.8264 38.2927C 61.5356 40.1615 59.7888 41.6712 57.7509 42.6792C 55.713 43.6872 53.4512 44.1601 51.1792 44.0535ZM 51.5956 7.17587C 47.5332 7.17587 45.5019 12.2732 45.5019 22.4677C 45.5019 32.0623 47.4952 36.8596 51.4819 36.8596C 55.3697 36.8596 57.3136 31.9109 57.3136 22.0137C 57.3136 12.1164 55.4076 7.17046 51.5956 7.17587ZM 97.2682 0.731972L 97.2682 27.5738L 102.387 27.5738L 102.387 34.5812L 97.2682 34.5812L 97.2682 43.3116L 88.6984 43.3116L 88.6984 34.5812L 70.1023 34.5812L 70.1023 27.2474C 71.749 25.4069 73.4552 23.3927 75.221 21.2049C 76.9869 19.017 78.6931 16.765 80.3398 14.4488C 81.9865 12.1326 83.5194 9.80154 84.9385 7.4556C 86.2646 5.28088 87.4709 3.03567 88.5521 0.729946L 97.2682 0.731972ZM 78.5218 27.5738L 88.6984 27.5738L 88.6984 12.6975C 88.0037 13.984 87.2501 15.2853 86.4376 16.6015C 85.6251 17.9177 84.772 19.2143 83.8782 20.4914C 82.9858 21.7684 82.0833 23.0056 81.1706 24.2028C 80.2579 25.4001 79.3749 26.5238 78.5218 27.5738Z"/>
<path id="path2_fill" d="M 6.0936 12.163L 100.66 12.163C 102.22 12.1895 103.735 11.6395 104.914 10.6187C 106.092 9.59798 106.851 8.17854 107.044 6.63329C 107.132 5.79335 107.041 4.9444 106.778 4.1418C 106.515 3.33919 106.085 2.60096 105.517 1.97519C 104.949 1.34942 104.255 0.850156 103.48 0.509978C 102.706 0.1698 101.868 -0.00366832 101.022 0.000871893L 6.41453 0.000871893C 4.85118 -0.0250488 3.33361 0.527782 2.15465 1.55269C 0.975692 2.57759 0.21891 4.00194 0.0303327 5.55087C -0.0546487 6.39264 0.039418 7.24283 0.30638 8.04583C 0.573342 8.84882 1.00718 9.58652 1.57952 10.2107C 2.15186 10.8348 2.8498 11.3313 3.62768 11.6678C 4.40556 12.0042 5.24586 12.173 6.0936 12.163Z"/>
<path id="path3_fill" d="M 14.1984 29.0472L 5.32186 30.6688L 3.33189e-07 1.62162L 8.87654 3.09299e-07L 14.1984 29.0472Z"/>
<path id="path4_fill" d="M 10.6234 9.56753L 1.74687 11.1892L -1.70469e-07 1.62162L 8.87654 -6.18598e-06L 10.6234 9.56753Z"/>
<path id="path5_fill" d="M 40.6222 0L 5.42306 0C 2.42799 0 0 2.42326 0 5.41251L 0 21.6095C 0 24.5987 2.42799 27.022 5.42306 27.022L 40.6222 27.022C 43.6172 27.022 46.0452 24.5987 46.0452 21.6095L 46.0452 5.41251C 46.0452 2.42326 43.6172 0 40.6222 0Z"/>
<path id="path6_fill" d="M -4.02926e-07 1.86486L 8.8156 -6.80457e-06L 20.8406 56.716L 12.025 58.5809L -4.02926e-07 1.86486Z"/>
<path id="path7_fill" d="M -4.02926e-07 1.86486L 8.8156 -6.80457e-06L 11.0703 10.5608L 2.23437 12.4256L -4.02926e-07 1.86486Z"/>
<path id="path8_fill" d="M 28.8166 7.44274C 27.8808 4.94433 26.1005 2.85024 23.7828 1.52174C 21.4651 0.19324 18.7555 -0.286339 16.1214 0.165744L 8.76827 1.72653C 3.04016 2.94274 -0.83952 8.71976 0.15579 13.4833L 28.7557 7.40219L 28.8166 7.44274Z"/>
<path id="path9_fill" d="M 1.61171e-06 6.04052L 28.5999 7.42317e-06L 29.7984 5.63512L 1.19844 11.6756L 1.61171e-06 6.04052Z"/>
<path id="path10_fill" d="M 4.34686 18.304L -4.80412e-07 10.3986L 18.9718 6.18598e-07L 23.3187 7.88511L 4.34686 18.304Z"/>
<path id="path11_fill" d="M 4.34686 12.9324L -4.80412e-07 5.02701L 9.16092 3.71159e-06L 13.5078 7.88511L 4.34686 12.9324Z"/>
<path id="path12_fill" d="M 18.5366 0.566156C 19.8914 -0.0619973 21.4303 -0.171606 22.8608 0.258148C 24.2913 0.687903 25.5138 1.62708 26.2959 2.89723L 30.3584 10.1337C 30.9819 11.4742 31.0949 12.9955 30.6762 14.4131C 30.2575 15.8307 29.3358 17.0476 28.0834 17.8364L 12.4428 26.512C 11.0873 27.1419 9.54704 27.2524 8.11515 26.8226C 6.68326 26.3928 5.45972 25.4526 4.67739 24.181L 0.614897 16.9445C -0.0390003 15.6043 -0.176826 14.071 0.227601 12.636C 0.632028 11.2011 1.55053 9.96433 2.80864 9.16073L 18.5366 0.566156Z"/>
<path id="path13_fill" d="M 20.1402 15.8761C 19.4927 17.5567 18.219 18.9222 16.5855 19.6869C 15.0358 20.4096 13.2761 20.5469 11.6326 20.0736C 9.98915 19.6002 8.57345 18.5482 7.64801 17.1126C 6.72997 15.5307 6.44588 13.6607 6.85283 11.8783C 7.25978 10.096 8.32761 8.53337 9.84175 7.50449C 10.6384 6.92879 11.5877 6.60053 12.5705 6.56087C 13.5534 6.52121 14.5261 6.7719 15.3667 7.28153L 17.398 0.592354C 14.8002 -0.204563 12.0214 -0.197227 9.4278 0.613386C 6.83425 1.424 4.54771 2.99984 2.86958 5.1332C 1.19144 7.26656 0.200487 9.8573 0.0273284 12.5639C -0.14583 15.2705 0.506937 17.966 1.89959 20.295C 3.54809 23.3163 6.33161 25.5604 9.63799 26.5339C 12.9444 27.5075 16.5028 27.1306 19.5308 25.4862L 19.7542 25.3625C 21.3922 24.6385 22.8654 23.5895 24.0841 22.2792C 25.3028 20.9689 26.2416 19.4248 26.8433 17.741L 20.1402 15.8153L 20.1402 15.8761ZM 103.61 84.957L 102.026 93.815L 131.154 99.0245L 132.738 90.1664L 103.61 84.957Z"/>
<path id="path14_fill" d="M 1.58438 3.09299e-06L 7.19069e-06 8.85807L 9.58747 10.5811L 11.1719 1.72297L 1.58438 3.09299e-06Z"/>
<path id="path15_fill" d="M 21.6098 -4.33884e-06L 5.4126 -4.33884e-06C 2.4233 -4.33884e-06 2.41273e-06 2.42795 2.41273e-06 5.42298L 2.41273e-06 40.6215C 2.41273e-06 43.6165 2.4233 46.0445 5.4126 46.0445L 21.6098 46.0445C 24.5991 46.0445 27.0224 43.6165 27.0224 40.6215L 27.0224 5.42298C 27.0224 2.42795 24.5991 -4.33884e-06 21.6098 -4.33884e-06Z"/>
<path id="path16_fill" d="M 3.12811 22.6824L 12.0453 21.3851L 8.93747 3.71159e-06L 5.95091e-06 1.2973L 3.12811 22.6824Z"/>
<path id="path17_fill" d="M 1.52343 11.6351L 10.4406 10.3378L 8.93747 -2.47439e-06L -7.68659e-06 1.29729L 1.52343 11.6351Z"/>
<path id="path18_fill" d="M 19.6202 4.81344C 19.3077 3.35035 18.4658 2.05354 17.2554 1.17099C 16.045 0.288453 14.5511 -0.117886 13.0593 0.0296669L 4.93432 1.2256C 3.46458 1.50985 2.15111 2.32407 1.24449 3.51294C 0.337868 4.70181 -0.0984766 6.18213 0.0186967 7.67153L 2.59839 25.3066C 2.91215 26.736 3.73186 28.0045 4.90714 28.8795C 6.08241 29.7544 7.53444 30.1772 8.99681 30.0701L 17.1218 28.8742C 18.5915 28.5899 19.905 27.7757 20.8116 26.5868C 21.7182 25.398 22.1546 23.9176 22.0374 22.4283L 19.4577 4.79316L 19.6202 4.81344Z"/>
<path id="path19_fill" d="M 7.84072 7.01349C 6.88363 8.54094 6.55606 10.3788 6.92665 12.1419C 7.2807 13.8111 8.22906 15.2957 9.596 16.3207C 10.9629 17.3456 12.6558 17.8414 14.361 17.7162C 16.1866 17.4927 17.8589 16.5854 19.0393 15.1779C 20.2197 13.7703 20.8201 11.9677 20.7188 10.1351C 20.7022 9.15527 20.3966 8.20205 19.8403 7.39451C 19.2839 6.58698 18.5015 5.96093 17.5907 5.59458L 21.6532 -2.78369e-06C 23.8587 1.58793 25.5298 3.8059 26.4461 6.36118C 27.3623 8.91645 27.4807 11.6889 26.7854 14.3127C 26.0901 16.9364 24.614 19.2881 22.5518 21.0574C 20.4896 22.8267 17.9382 23.9304 15.2344 24.2229C 11.8276 24.7513 8.34991 23.9076 5.56645 21.8773C 2.78298 19.8469 0.921734 16.7963 0.392144 13.3966L 0.34542 13.0743C -0.061634 11.3335 -0.109468 9.52829 0.204814 7.76848C 0.519097 6.00868 1.18893 4.33109 2.17354 2.83783L 7.84072 7.01349Z"/>
<path id="path20_fill" d="M 32.6218 0.12866C 24.7099 -0.605934 16.8296 1.82599 10.7145 6.88945C 4.59942 11.9529 0.750412 19.2331 0.0142179 27.1286L -7.1287e-07 27.2907L 60.0233 32.561C 60.7227 24.6623 58.2492 16.8099 53.1471 10.7311C 48.0449 4.65235 40.7319 0.845094 32.8168 0.146901L 32.6015 0.12866L 32.6218 0.12866Z"/>
<path id="path21_fill" d="M 0.00780146 3.80298C 0.057562 3.00268 0.344028 2.23507 0.830965 1.59725C 1.3179 0.959417 1.98344 0.480016 2.74342 0.21966C 3.50339 -0.0406962 4.32366 -0.0703064 5.1005 0.134572C 5.87734 0.33945 6.57585 0.76961 7.1077 1.37066C 7.63954 1.97171 7.98084 2.71665 8.08841 3.51127C 8.19599 4.30589 8.06502 5.11451 7.71206 5.83485C 7.35911 6.55519 6.80002 7.15489 6.10551 7.55814C 5.411 7.96138 4.61226 8.15004 3.8103 8.10026C 2.73504 8.03352 1.73038 7.5433 1.01729 6.73742C 0.304206 5.93154 -0.0589165 4.87601 0.00780146 3.80298ZM 26.6577 5.78946C 26.7073 4.98979 26.9931 4.2227 27.4792 3.58505C 27.9653 2.94739 28.6298 2.46776 29.3889 2.20672C 30.1479 1.94568 30.9675 1.91494 31.744 2.11838C 32.5206 2.32181 33.2193 2.75031 33.752 3.34975C 34.2847 3.94919 34.6274 4.6927 34.737 5.4864C 34.8465 6.2801 34.718 7.0884 34.3675 7.80923C 34.017 8.53005 33.4604 9.13109 32.7679 9.53644C 32.0753 9.9418 31.278 10.1333 30.4765 10.0867C 29.9432 10.055 29.4214 9.91855 28.941 9.68528C 28.4606 9.45201 28.0311 9.12647 27.6769 8.7273C 27.3228 8.32814 27.051 7.86319 26.8772 7.35907C 26.7033 6.85496 26.6308 6.32157 26.6638 5.78946L 26.6577 5.78946Z"/>
<path id="path22_fill" d="M 2.41718 -4.94878e-06L 53.0967 4.4189L 50.6796 32.0269L 3.71932e-07 27.6283L 2.41718 -4.94878e-06Z"/>
<path id="path23_fill" d="M 0.4875 6.80457e-06L 51.1874 4.41891L 50.6796 10.1554L 1.45673e-06 5.73646L 0.4875 6.80457e-06Z"/>
<path id="path24_fill" d="M 5.24091 20.087C 3.77672 19.8805 2.43775 19.1497 1.47356 18.0309C 0.509364 16.9121 -0.0142576 15.4816 0.000295556 14.006L 0.772167 5.16817C 0.822948 4.44053 1.01686 3.72999 1.34283 3.07713C 1.66881 2.42427 2.12045 1.84188 2.67198 1.36321C 3.2235 0.884545 3.86411 0.518984 4.55722 0.287392C 5.25033 0.0558008 5.98237 -0.037283 6.71153 0.0134618C 6.80361 0.0134618 6.8957 0.0222465 6.98778 0.0398141L 66.7064 5.18845C 68.1803 5.2675 69.5624 5.9276 70.5486 7.02353C 71.5349 8.11947 72.0444 9.56148 71.9653 11.0323C 71.9653 11.1107 71.9592 11.1898 71.947 11.2695L 71.1751 20.1073C 70.9432 21.5711 70.1836 22.9001 69.0391 23.8444C 67.8945 24.7887 66.4438 25.2835 64.9595 25.2357L 5.24091 20.0465L 5.24091 20.087Z"/>
<path id="path25_fill" d="M 12.0332 12.683L 2.66917 15.6627C 2.41443 15.7452 2.14589 15.7769 1.87889 15.7558C 1.61189 15.7348 1.35167 15.6615 1.11306 15.5401C 0.874461 15.4186 0.662155 15.2515 0.488272 15.0482C 0.314389 14.845 0.182333 14.6095 0.0996419 14.3553C 0.0169504 14.1011 -0.0147555 13.8331 0.00633347 13.5666C 0.0274225 13.3002 0.100891 13.0405 0.22255 12.8024C 0.344209 12.5643 0.511676 12.3524 0.715383 12.1789C 0.91909 12.0054 1.15505 11.8736 1.40979 11.7911L 10.7738 8.83165C 11.2883 8.66768 11.847 8.71438 12.327 8.96147C 12.8069 9.20856 13.1689 9.63581 13.3332 10.1492C 13.4975 10.6626 13.4507 11.2201 13.2031 11.6991C 12.9555 12.1781 12.5274 12.5393 12.0129 12.7033L 12.0332 12.683ZM 49.0425 7.08841L 41.7503 0.520868C 41.5516 0.342519 41.3196 0.20497 41.0676 0.116089C 40.8156 0.0272073 40.5485 -0.0112701 40.2817 0.00284684C 39.7426 0.0313573 39.237 0.272377 38.8761 0.672889C 38.5152 1.0734 38.3284 1.60059 38.357 2.13849C 38.3856 2.67639 38.6271 3.18093 39.0284 3.54112L 46.3206 10.1087C 46.722 10.4689 47.2503 10.6552 47.7893 10.6267C 48.3283 10.5982 48.8339 10.3572 49.1948 9.95665C 49.5558 9.55613 49.7425 9.02894 49.7139 8.49104C 49.6853 7.95314 49.4438 7.4486 49.0425 7.08841Z"/>
<path id="path26_fill" d="M 92.6323 7.33136C 93.5659 7.41375 94.4284 7.86278 95.0302 8.57969C 95.6321 9.2966 95.924 10.2227 95.8417 11.1543L 92.3683 51.1069C 92.3128 52.0396 91.8887 52.9122 91.1891 53.5332C 90.4895 54.1542 89.5716 54.4728 88.6369 54.4191L 88.5353 54.4191L 3.22303 47.0002C 2.28948 46.9178 1.42694 46.4688 0.825098 45.7518C 0.223253 45.0349 -0.0686225 44.1088 0.0136588 43.1772L 3.5074 3.20435C 3.54726 2.74483 3.67756 2.29767 3.89086 1.88847C 4.10415 1.47928 4.39625 1.11609 4.75041 0.819722C 5.10457 0.523351 5.51384 0.299615 5.95478 0.161326C 6.39572 0.0230356 6.85966 -0.0270894 7.32005 0.0138209L 92.6323 7.33136Z"/>
<path id="path27_fill" d="M 52.397 13.4482C 52.3356 14.6846 52.0307 15.8967 51.4998 17.0155C 50.9689 18.1343 50.2224 19.1377 49.3028 19.9685C 48.3833 20.7994 47.3088 21.4413 46.1406 21.8578C 44.9725 22.2742 43.7336 22.4569 42.4947 22.3955C 42.2401 22.3833 41.9862 22.3603 41.7329 22.3266L 9.02991 19.4887C 6.52729 19.3788 4.17093 18.2813 2.47921 16.4376C 0.787487 14.5939 -0.101019 12.1551 0.00914869 9.65768C 0.019982 9.40633 0.0409718 9.15633 0.0721176 8.90768C 0.339748 6.33286 1.60413 3.96403 3.59599 2.30571C 5.58784 0.64739 8.14977 -0.169382 10.7361 0.0293343L 43.4392 2.86715C 46.0191 3.11948 48.3985 4.36626 50.0714 6.34231C 51.7443 8.31835 52.5786 10.8677 52.397 13.4482Z"/>
<path id="path28_fill" d="M 0.978421 11.6517C 0.696237 11.6259 0.435616 11.4902 0.253091 11.2739C 0.0705665 11.0576 -0.0191456 10.7782 0.00342028 10.4963L 0.83623 0.867965C 0.887221 0.607978 1.03268 0.375971 1.24465 0.216489C 1.45663 0.0570067 1.72018 -0.0187011 1.98468 0.00392336C 2.24918 0.0265478 2.49599 0.145909 2.67768 0.339064C 2.85937 0.532219 2.96313 0.785551 2.96904 1.0504L 2.13623 10.6788C 2.1104 10.9604 1.97435 11.2204 1.7576 11.4026C 1.54085 11.5847 1.26088 11.6742 0.978421 11.6517ZM 7.39106 12.1179C 7.10887 12.0922 6.84825 11.9564 6.66573 11.7401C 6.4832 11.5238 6.39349 11.2444 6.41606 10.9625L 7.22856 1.41527C 7.22519 1.26448 7.25368 1.11466 7.31217 0.975586C 7.37067 0.836508 7.45786 0.711274 7.56806 0.608046C 7.67826 0.504818 7.809 0.425908 7.95179 0.376443C 8.09457 0.326977 8.2462 0.308074 8.39679 0.320955C 8.54738 0.333836 8.69357 0.378208 8.82584 0.4512C 8.9581 0.524193 9.07349 0.624164 9.16448 0.744601C 9.25547 0.865039 9.32003 1.00325 9.35395 1.15023C 9.38787 1.29721 9.3904 1.44967 9.36136 1.59769L 8.52855 11.226C 8.48381 11.4891 8.34256 11.7262 8.13229 11.8911C 7.92202 12.0559 7.65779 12.1368 7.39106 12.1179ZM 13.8301 12.7666C 13.5479 12.7408 13.2873 12.605 13.1048 12.3887C 12.9222 12.1724 12.8325 11.8931 12.8551 11.6112L 13.6879 1.98283C 13.7389 1.72285 13.8844 1.49082 14.0963 1.33134C 14.3083 1.17186 14.5719 1.09617 14.8364 1.11879C 15.1009 1.14142 15.3477 1.26076 15.5294 1.45392C 15.711 1.64707 15.8148 1.9004 15.8207 2.16526L 14.9879 11.7936C 14.9621 12.0741 14.8269 12.3332 14.6115 12.5152C 14.3961 12.6971 14.1177 12.7874 13.8362 12.7666L 13.8301 12.7666ZM 20.2488 13.3139C 19.9667 13.2881 19.706 13.1523 19.5235 12.936C 19.341 12.7197 19.2513 12.4403 19.2738 12.1585L 20.1067 2.53012C 20.1033 2.37933 20.1318 2.22953 20.1903 2.09045C 20.2488 1.95138 20.3359 1.82614 20.4461 1.72291C 20.5563 1.61969 20.6871 1.54078 20.8299 1.49131C 20.9727 1.44184 21.1243 1.42293 21.2749 1.43581C 21.4255 1.44869 21.5717 1.49308 21.7039 1.56607C 21.8362 1.63906 21.9516 1.73903 22.0426 1.85947C 22.1336 1.97991 22.1981 2.11812 22.232 2.2651C 22.266 2.41208 22.2685 2.56454 22.2395 2.71256L 21.4473 12.3409C 21.435 12.4815 21.3951 12.6182 21.3299 12.7434C 21.2646 12.8685 21.1753 12.9797 21.0671 13.0704C 20.9588 13.1611 20.8337 13.2297 20.6989 13.2721C 20.5641 13.3146 20.4222 13.3302 20.2813 13.3179L 20.2488 13.3139ZM 26.6879 13.8814C 26.4057 13.8557 26.1451 13.7199 25.9625 13.5036C 25.78 13.2873 25.6903 13.0079 25.7129 12.726L 26.5457 3.0977C 26.5423 2.94691 26.5708 2.79709 26.6293 2.65802C 26.6878 2.51894 26.775 2.3937 26.8852 2.29048C 26.9954 2.18725 27.1261 2.10834 27.2689 2.05887C 27.4117 2.00941 27.5633 1.9905 27.7139 2.00339C 27.8645 2.01627 28.0107 2.06064 28.143 2.13363C 28.2752 2.20662 28.3906 2.30659 28.4816 2.42703C 28.5726 2.54747 28.6372 2.68568 28.6711 2.83266C 28.705 2.97964 28.7075 3.1321 28.6785 3.28012L 27.8457 12.9085C 27.8199 13.1901 27.6838 13.4501 27.4671 13.6323C 27.2503 13.8144 26.9703 13.904 26.6879 13.8814ZM 33.1066 14.449C 32.8244 14.4232 32.5638 14.2875 32.3813 14.0712C 32.1988 13.8549 32.109 13.5755 32.1316 13.2936L 32.9644 3.66526C 32.9611 3.51447 32.9896 3.36466 33.048 3.22558C 33.1065 3.0865 33.1937 2.96127 33.3039 2.85804C 33.4141 2.75481 33.5449 2.6759 33.6877 2.62644C 33.8304 2.57697 33.9821 2.55807 34.1327 2.57095C 34.2833 2.58383 34.4294 2.6282 34.5617 2.70119C 34.694 2.77419 34.8094 2.87416 34.9003 2.9946C 34.9913 3.11503 35.0559 3.25324 35.0898 3.40023C 35.1237 3.54721 35.1263 3.69967 35.0972 3.84769L 34.2644 13.476C 34.2386 13.7565 34.1034 14.0156 33.888 14.1976C 33.6726 14.3796 33.3942 14.4699 33.1127 14.449L 33.1066 14.449Z"/>
</defs>
</svg>
