<svg xmlns="http://www.w3.org/2000/svg" viewBox="0 0 119.08481 62.998"><title>Box04_Cassandra</title><path d="M100.55019,57.25741c.87594,10.20376-15.18233,19.91536-35.86635,21.6899S26.522,73.8869,25.6472,63.6837c-.87594-10.20542,15.18233-19.91646,35.86635-21.691,20.684-1.774,38.16181,5.0593,39.03664,15.26472" transform="translate(-5.41519 -36.09715)" style="fill:#aaa"/><rect x="31.61275" y="7.08857" width="48.82356" height="34.38268" style="fill:none"/><path d="M62.12067,43.18943c-7.89005-.12829-17.12277,3.00439-23.99256,5.938a19.84689,19.84689,0,0,0-1.0999,6.52362c0,12.10383,10.92929,21.91718,24.41172,21.91718S85.85167,67.75487,85.85167,55.651a20.08869,20.08869,0,0,0-3.021-10.56265,155.328,155.328,0,0,0-20.71-1.899" transform="translate(-5.41519 -36.09715)" style="fill:#fff"/><path d="M61.43967,43.187c-4.36806-.26654-11.897,2.01233-18.17511,4.28567a18.65708,18.65708,0,0,0-1.48367,7.3c0,10.60523,9.61538,19.20255,19.78707,19.20255,10.10478,0,19.045-8.61115,19.78707-19.20255a16.59349,16.59349,0,0,0-2.59463-9.50091A169.667,169.667,0,0,0,61.43967,43.187" transform="translate(-5.41519 -36.09715)" style="fill:#fff"/><path d="M50.23,53.38027a12.93258,12.93258,0,0,1,2.134-2.76273,6.16357,6.16357,0,0,1-.27871-1.273,2.15662,2.15662,0,0,1,2.95628-2.00625,15.74133,15.74133,0,0,1,13.01129-2.85508c.43188.09733.85548.21511,1.27132.34451A18.52923,18.52923,0,0,0,55.797,48.728,5.316,5.316,0,0,1,56.21,50.02142c0,1.1928-.772,1.48312-1.96477,1.48312a2.155,2.155,0,0,1-.76921-.14322A21.87928,21.87928,0,0,0,51.1889,55.814,16.878,16.878,0,0,0,57.295,59.1015c-.00608-.11115.08018-.214.08018-.32737a6.73634,6.73634,0,0,1,6.76251-6.51864,6.50761,6.50761,0,0,1,6.41247,5.41819,15.50969,15.50969,0,0,0,4.34816-3.32347,3.82349,3.82349,0,0,1-.57456-1.76238,1.94331,1.94331,0,0,1,2.40384-1.9045,17.15008,17.15008,0,0,0,1.346-3.89858c-5.6239-4.16346-16.50508-3.59554-16.50508-3.59554s-8.65871-.45179-14.5204,2.405A17.25925,17.25925,0,0,0,50.23,53.38027" transform="translate(-5.41519 -36.09715)" style="fill:#373535"/><path d="M77.11024,51.758a3.62268,3.62268,0,0,1,.78525.97934c.52589.94561-.52921,1.811-1.61141,1.811a1.93565,1.93565,0,0,1-.32184-.03263,20.63317,20.63317,0,0,1-5.25229,5.57911,16.51357,16.51357,0,0,1,7.83586,3.44236A23.25778,23.25778,0,0,0,81.355,53.08188a7.45013,7.45013,0,0,0-2.94633-6.03864A21.428,21.428,0,0,1,77.11024,51.758" transform="translate(-5.41519 -36.09715)" style="fill:#373535"/><path d="M53.494,69.7993c.96939-2.677,3.35388-4.75128,5.60953-6.57615a12.56447,12.56447,0,0,1-1.03133-2.10025A15.7853,15.7853,0,0,1,50.9989,56.647c-.01382.06028-.031.11889-.04535.17917a14.30732,14.30732,0,0,0-.24387,4.74686,2.83689,2.83689,0,0,1,2.31426,2.78817,4.34365,4.34365,0,0,1-1.28183,2.536A13.33573,13.33573,0,0,0,53.494,69.7993" transform="translate(-5.41519 -36.09715)" style="fill:#373535"/><path d="M53.32333,72.0466c-1.1563-1.14966-1.95592-3.44291-2.70633-4.8829a2.8367,2.8367,0,0,1-.43133.0365c-1.56828,0-3.21121-1.31611-2.8396-2.839A2.81627,2.81627,0,0,1,49.0808,62.507a19.95362,19.95362,0,0,1,.13106-6.07016,11.69,11.69,0,0,1,.52534-1.25695,16.64469,16.64469,0,0,1-2.84845-9.15308c0-.12055.00608-.23944.00885-.35889-2.92421,1.46653-5.11681,3.77692-5.11681,7.41393,0,8.04489,4.6335,15.9366,11.52762,19.03.005-.02157.0094-.04369.01493-.06525" transform="translate(-5.41519 -36.09715)" style="fill:#373535"/><path d="M70.27561,60.925a6.499,6.499,0,0,1-10.15676,2.9596,19.11713,19.11713,0,0,0-5.40492,7.608,15.04888,15.04888,0,0,0,1.331,1.37694c1.59648.41585,3.79517,0,5.52326,0,6.95108,0,13.10751-3.09232,16.63724-8.51493-2.34689-1.62524-5.11515-3.17195-7.92987-3.42964" transform="translate(-5.41519 -36.09715)" style="fill:#373535"/><path d="M50.05185,54.3205a15.73323,15.73323,0,0,1,1.99353-3.27978,2.15652,2.15652,0,0,1,2.818-2.76218A15.74133,15.74133,0,0,1,67.8747,45.42345c.43188.09733.85548.21511,1.27132.34451A17.3259,17.3259,0,0,0,56.05787,49.4459a2.15768,2.15768,0,0,1-2.76,2.85564,14.54022,14.54022,0,0,0-1.957,3.58337,16.08929,16.08929,0,0,0,6.12436,4.15682c-.00553-.11115-.01714-.2212-.01714-.33456A6.5079,6.5079,0,0,1,70.372,58.61391a16.87777,16.87777,0,0,0,4.22152-3.85323,1.93523,1.93523,0,0,1-.44792-1.23261,1.94332,1.94332,0,0,1,2.40385-1.9045,17.15008,17.15008,0,0,0,1.346-3.89857c-5.6239-4.16346-16.50508-3.59554-16.50508-3.59554s-8.65871-.45179-14.5204,2.405a17.25925,17.25925,0,0,0,3.1819,7.78609" transform="translate(-5.41519 -36.09715)" style="fill:#666667"/><path d="M77.41377,52.07884a1.94281,1.94281,0,0,1-1.62966,3.37711,15.86451,15.86451,0,0,1-4.733,4.76013,15.84961,15.84961,0,0,1,7.62738,3.42909A19.68383,19.68383,0,0,0,81.17686,54.022a7.45013,7.45013,0,0,0-2.94633-6.03864,15.77005,15.77005,0,0,1-.81677,4.09544" transform="translate(-5.41519 -36.09715)" style="fill:#666667"/><path d="M53.79315,70.44251A15.79742,15.79742,0,0,1,58.70259,63.539a6.50044,6.50044,0,0,1-.80847-1.47593,15.78231,15.78231,0,0,1-7.07329-4.4759c-.01382.06028-.03152.11889-.04535.17917a14.278,14.278,0,0,0-.24387,4.74686,2.835,2.835,0,0,1,1.40072,4.87128,17.04018,17.04018,0,0,0,1.86081,3.058" transform="translate(-5.41519 -36.09715)" style="fill:#666667"/><path d="M53.31575,72.014a15.82857,15.82857,0,0,1-2.87665-3.90963,2.83588,2.83588,0,0,1-1.66892-5.3557,15.74342,15.74342,0,0,1,.26378-5.37174c.11613-.5187.25769-1.02524.42083-1.52017a15.70132,15.70132,0,0,1-2.74393-8.88986c0-.12055.00553-.23944.0083-.35834-2.92421,1.466-5.11681,3.77692-5.11681,7.41337A19.78641,19.78641,0,0,0,53.30083,72.07925c.005-.02156.0094-.04368.01493-.06525" transform="translate(-5.41519 -36.09715)" style="fill:#666667"/><path d="M70.09744,61.8652a6.499,6.499,0,0,1-10.15676,2.9596,16.12291,16.12291,0,0,0-5.05654,6.909,17.60929,17.60929,0,0,0,1.50579,1.43722,19.80186,19.80186,0,0,0,21.592-8.37226,16.59244,16.59244,0,0,0-7.88452-2.93361" transform="translate(-5.41519 -36.09715)" style="fill:#666667"/><rect x="45.54488" y="11.26474" width="25.38167" height="25.35954" style="fill:none"/><path d="M70.32588,60.18625l6.016-1.435-6.03865-.308,4.91442-3.7559-5.57635,1.99906,3.78964-5.25174-5.234,3.47886,1.82984-6.14758-3.59443,5.067-.08184-6.40306L63.9853,53.13343l-1.972-5.77155.10673,6.799L58.712,48.06639l1.84422,6.47108L55.028,50.51723l4.33046,5.44142-6.86315-2.52384,5.41653,4.00751-6.94555.21345,7.10149,1.83261-7.10757,1.53676,7.01578.50875-5.91644,3.78853,6.09229-2.20864-4.22705,5.35349,5.34133-4.30779-1.9233,7.18388,4.12364-5.8462-.57787,6.90463,2.3408-6.25929,1.99242,6.57891.48442-6.59882,2.95739,5.63L66.91614,65.313l5.41543,4.195-3.496-5.34851,5.94132,2.31481L70.23408,62.01l6.09173.47889Z" transform="translate(-5.41519 -36.09715)" style="fill:#fff"/><rect x="0.86405" y="1.416" width="117.45592" height="34.18469" style="fill:none"/><path d="M6.27924,71.69778C24.93711,53.04047,39.83852,47.28053,53.36243,44.65107c1.78947-.34783,2.1279-4.258,2.1279-4.258s.25051,2.88,1.503,3.25545c1.252.376,2.87942-4.508,2.87942-4.508s-1.50247,4.383,0,4.6335c1.503.2505,4.25747-4.25747,4.25747-4.25747S63.0038,43.398,63.75531,43.6485c.75041.2505,4.50687-5.63441,4.50687-5.63441s-2.254,3.88143-.125,4.25747c2.12956.37548,5.23515-2.64937,5.23515-2.64937s-2.442,2.76771-1.35372,3.14983c4.6335,1.62855,8.38277-4.3935,8.38277-4.3935A20.29188,20.29188,0,0,1,77.27867,43.899c4.8829,1.252,8.51-6.10445,8.51-6.10445L82.16157,45.151c1.87851,1.00257,9.39253-7.63789,9.39253-7.63789s-3.882,6.762-6.136,8.1389c1.252,1.002,5.75994-3.00494,5.75994-3.00494s-3.63148,4.50742-2.254,4.75792c2.00348,1.628,9.39087-8.3894,9.39087-8.3894A50.78894,50.78894,0,0,1,91.17806,49.534C94.73655,51.314,103.575,39.892,103.575,39.892s-.25051,3.63148-6.637,9.39142c4.75847-.626,10.89445-9.64192,10.89445-9.64192a29.86949,29.86949,0,0,1-7.639,11.51987c4.67221-.48608,12.14586-12.02088,12.14586-12.02088s-2.87942,8.01392-8.76433,12.64742c6.51145,1.44,15.90287-8.26443,15.90287-8.26443s-3.694,6.88748-8.51549,9.70441c5.385,2.066,12.773-6.449,12.773-6.449S116.34739,58.17442,104.577,57.67341c-3.86208-.16424-15.544-11.71674-40.57173-10.76892C30.94755,48.157,23.93564,62.18138,6.27924,71.69778" transform="translate(-5.41519 -36.09715)" style="fill:#7f8080"/><path d="M7.04391,70.28074C25.70178,51.62343,40.60264,45.864,54.12655,43.234c1.79-.34783,2.12846-4.25747,2.12846-4.25747s.25,2.88052,1.503,3.25545c1.252.37548,2.87942-4.50742,2.87942-4.50742s-1.50247,4.383,0,4.63294c1.503.25,4.25747-4.25747,4.25747-4.25747s-1.12644,3.88143-.376,4.13194c.75151.2505,4.508-5.635,4.508-5.635s-2.254,3.882-.125,4.25747c2.12846.376,5.23515-2.64882,5.23515-2.64882s-2.442,2.76771-1.35372,3.14983c4.6335,1.628,8.38166-4.3935,8.38166-4.3935a20.30442,20.30442,0,0,1-3.12163,5.52049c4.8829,1.25252,8.51-6.105,8.51-6.105L82.92624,43.735c1.87851,1.00146,9.39142-7.63789,9.39142-7.63789S88.43678,42.858,86.1828,44.23549c1.252,1.002,5.75994-3.00494,5.75994-3.00494s-3.63148,4.508-2.254,4.75792c2.00348,1.62855,9.39087-8.3894,9.39087-8.3894a50.82469,50.82469,0,0,1-7.13689,10.51841c3.55849,1.78063,12.39692-9.64192,12.39692-9.64192s-.25051,3.632-6.637,9.392c4.75847-.62654,10.89445-9.64248,10.89445-9.64248a29.87356,29.87356,0,0,1-7.639,11.52043c4.67221-.48608,12.14586-12.02088,12.14586-12.02088s-2.87942,8.01392-8.76433,12.64687c6.51145,1.44,15.90287-8.26387,15.90287-8.26387s-3.694,6.88638-8.51549,9.70386c5.385,2.066,12.773-6.449,12.773-6.449s-7.38794,11.39545-19.15943,10.89444c-3.861-.16479-15.54287-11.71729-40.57118-10.76892C31.71222,46.74,24.69976,60.76435,7.04391,70.28074" transform="translate(-5.41519 -36.09715)" style="fill:#373535"/><rect x="0.37531" y="22.17744" width="110.25533" height="40.82056" style="fill:none"/><path d="M5.79051,73.73827c9.86091,4.94649,18.8774-.751,30.24079,2.4514,8.63935,2.43536,19.15832,5.43754,33.43264,3.371,14.27487-2.06541,26.48433-8.26387,32.30786-19.34633,1.81547-4.94538,9.20285,1.12754,9.20285,1.12754s-5.3839-2.254-5.25838-1.18948c.125,1.064,8.07641,4.75792,8.07641,4.75792s-7.20047-2.254-6.762-.5635,9.01484,8.45244,9.01484,8.45244-9.70386-7.38794-10.51731-6.38647c-.81456,1.002,4.13194,5.072,4.13194,5.072s-8.20194-5.072-11.08246-3.57618c-2.0715,1.07446,8.51549,8.02166,8.51549,8.02166s-6.88749-5.26-8.51549-3.88254c-1.62744,1.378,7.764,12.64742,7.764,12.64742S95.69719,73.17478,94.6338,73.73827c-1.06506.5635,2.94191,6.07348,2.94191,6.07348s-5.25893-5.76049-6.69837-4.75847c-1.44,1.002,7.51291,15.96535,7.51291,15.96535S88.68585,75.67982,84.67888,78.24569c6.29247,13.80593,3.94447,15.77844,3.94447,15.77844s-.80294-14.08464-8.64046-13.71192c-3.94448.188,1.878,10.51841,1.878,10.51841s-5.359-9.4351-8.928-9.24709C79.51064,94.03188,77.166,99.095,77.166,99.095s1.08773-10.63177-7.83365-16.54821C72.71273,85.55123,67.211,99.095,67.211,99.095s4.83976-19.95794-3.56955-16.15282c-1.32883.6-.094,9.95491-.094,9.95491s-1.69049-10.707-4.22539-10.14293c-1.47814.32792-9.392,14.83836-9.392,14.83836s6.48049-15.68388,4.50852-15.02638c-1.43667.47944-4.13249,6.95-4.13249,6.95s1.31446-6.38647,0-6.762c-1.31446-.376-8.64046,6.762-8.64046,6.762s5.4475-6.38647,4.508-7.70148c-1.42339-1.99242-3.09177-2.08588-5.07147-1.31446-2.88052,1.12257-6.7614,6.38592-6.7614,6.38592S38.20951,81.557,37.5332,79.5607c-1.08552-3.20734-12.20835,6.19846-12.20835,6.19846s6.57394-6.19846,5.07147-7.51347c-1.50247-1.31446-9.66128-.908-12.2089-.9152-7.5129-.02323-10.11638-1.78561-12.39691-3.59222" transform="translate(-5.41519 -36.09715)" style="fill:#7f8080"/><path d="M5.41519,72.6112c9.86091,4.94649,18.87685-.751,30.24023,2.452,8.63935,2.43426,19.15888,5.437,33.43375,3.37047,14.27487-2.066,26.48323-8.26443,32.30675-19.34578,1.81547-4.94594,9.20285,1.12644,9.20285,1.12644s-5.38391-2.25343-5.25838-1.18893c.125,1.064,8.07641,4.75792,8.07641,4.75792s-7.20047-2.25343-6.762-.56294c.43852,1.68994,9.01594,8.45189,9.01594,8.45189s-9.705-7.38849-10.51841-6.38592c-.81344,1.00146,4.13249,5.07091,4.13249,5.07091s-8.2025-5.07091-11.08246-3.57618c-2.072,1.075,8.51493,8.02166,8.51493,8.02166s-6.88749-5.25948-8.51493-3.882c-1.628,1.378,7.76453,12.64742,7.76453,12.64742S95.3219,72.0477,94.25795,72.6112c-1.06395.564,2.943,6.07293,2.943,6.07293s-5.26-5.75994-6.69947-4.75792c-1.44,1.00146,7.51291,15.96535,7.51291,15.96535S88.31,74.55219,84.303,77.11917C90.5955,90.92455,88.2475,92.89706,88.2475,92.89706S87.44456,78.81242,79.607,79.18569c-3.94448.188,1.878,10.51786,1.878,10.51786s-5.359-9.43566-8.92746-9.24764C79.13589,92.9048,76.79011,97.968,76.79011,97.968s1.08773-10.63233-7.83365-16.54876C72.33689,84.42416,66.8352,97.968,66.8352,97.968S71.67607,78.01,63.26675,81.81515c-1.32883.60055-.094,9.95491-.094,9.95491S61.48115,81.06364,58.9468,81.62714c-1.4787.32792-9.39253,14.83836-9.39253,14.83836s6.48049-15.68388,4.50852-15.02583c-1.43667.47834-4.13249,6.94886-4.13249,6.94886s1.315-6.38592,0-6.7614c-1.31446-.37548-8.63991,6.7614-8.63991,6.7614s5.4475-6.38592,4.50742-7.70093c-1.42339-1.99242-3.09177-2.08532-5.07091-1.3139-2.88107,1.122-6.762,6.38537-6.762,6.38537s3.86871-5.32971,3.193-7.32545c-1.08607-3.20678-12.20835,6.19846-12.20835,6.19846s6.57394-6.19846,5.07092-7.51291c-1.50248-1.315-9.66129-.908-12.20891-.91575-7.51292-.02378-10.11584-1.7856-12.39637-3.59222" transform="translate(-5.41519 -36.09715)" style="fill:#373535"/></svg>