<svg id="73ae7c8d-75a4-40fc-9b59-c512534f1d30" data-name="Layer 1" xmlns="http://www.w3.org/2000/svg" width="71.87084" height="38.02099" viewBox="0 0 71.87084 38.02099"><title>Cassandra_100px</title><g id="e92ec275-5002-4071-b582-b13ab172738a" data-name="g2830"><g id="2c0236b7-ede5-4dd4-a3a6-0c55bcd546a9" data-name="g2836"><path id="db17df16-ad09-4907-aaeb-9218934496ee" data-name="path2838" d="M72.20437,44.574c.52865,6.15824-9.16294,12.01945-21.64629,13.09044s-23.03166-3.05409-23.55965-9.212c-.52865-6.15924,9.16294-12.02012,21.64629-13.0911,12.48336-1.07065,23.03166,3.05342,23.55965,9.21267" transform="translate(-14.78788 -31.80325)" style="fill:#bbe5fa"/></g></g><g id="7b2b37c3-9483-4257-97d4-a6be9d95257c" data-name="g2840"><g id="c6f5e0a8-a356-40fe-ba58-668c4af872bf" data-name="g2842"><g id="bcfdedce-4169-414c-9b1c-d0dd3d04fd7d" data-name="g2848"><rect x="19.07913" y="4.27814" width="29.46631" height="20.75087" style="fill:none"/><g id="e3e43e22-492f-4e9e-b655-85ff93936fc9" data-name="g2858" style="opacity:0.35000604391098"><g id="d0bc0be1-b4b1-492f-8b08-b3ec8f80ed0f" data-name="g2860"><path id="18c1a1af-10fe-4665-bd9c-9ce9ed842b5f" data-name="path2862" d="M49.01114,36.08363c-4.76186-.07743-10.334,1.81323-14.48014,3.58374a11.97814,11.97814,0,0,0-.66382,3.93718c0,7.305,6.59611,13.22761,14.73312,13.22761s14.73312-5.92262,14.73312-13.22761a12.12407,12.12407,0,0,0-1.82324-6.37484,93.74452,93.74452,0,0,0-12.499-1.14608" transform="translate(-14.78788 -31.80325)" style="fill:#fff"/></g></g></g></g></g><g id="faff61be-4722-4b2b-8e2b-1447fdfee913" data-name="g2866"><g id="fecc4ace-40c3-4b74-b3ad-7d26aa5a61fd" data-name="g2872"><path id="c19a8857-8a2b-4765-a3e4-8b7e7d5fb20a" data-name="path2874" d="M48.60014,36.08217C45.96389,35.9213,41.42,37.29666,37.631,38.66868a11.26006,11.26006,0,0,0-.89543,4.40575c0,6.40054,5.80314,11.58926,11.942,11.58926,6.0985,0,11.49414-5.19706,11.942-11.58926a10.01462,10.01462,0,0,0-1.56593-5.73405,102.39851,102.39851,0,0,0-10.45353-1.25821" transform="translate(-14.78788 -31.80325)" style="fill:#fff"/></g></g><g id="9da0a5b1-0797-466b-a2e9-7aa714e6f078" data-name="g2878"><g id="3af48f50-8d76-4fca-ba0a-45d443ad1243" data-name="g2884"><path id="ffcea00c-3599-43b9-9304-4cc4d04463b9" data-name="path2886" d="M41.83481,42.23408a7.80516,7.80516,0,0,1,1.28792-1.66738,3.71988,3.71988,0,0,1-.16821-.76828,1.30158,1.30158,0,0,1,1.78419-1.21082,9.5003,9.5003,0,0,1,7.85266-1.72312c.26065.05874.5163.12983.76728.20792a11.18288,11.18288,0,0,0-8.164,2.3539,3.20832,3.20832,0,0,1,.24931.78063c0,.71989-.46591.8951-1.18579.8951a1.30057,1.30057,0,0,1-.46424-.08644,13.20474,13.20474,0,0,0-1.38036,2.68731,10.18629,10.18629,0,0,0,3.6852,1.98411c-.00367-.06708.04839-.12916.04839-.19758a4.06556,4.06556,0,0,1,4.08135-3.93417,3.92752,3.92752,0,0,1,3.87009,3.27,9.36051,9.36051,0,0,0,2.62423-2.0058,2.30758,2.30758,0,0,1-.34676-1.06364,1.17284,1.17284,0,0,1,1.45078-1.14941,10.35054,10.35054,0,0,0,.81233-2.35289c-3.39417-2.51276-9.96125-2.17-9.96125-2.17s-5.22576-.27267-8.76345,1.45145a10.41642,10.41642,0,0,0,1.92036,4.69911" transform="translate(-14.78788 -31.80325)" style="fill:#373535"/></g><g id="5d1a1b66-cb3b-4f0f-99b6-22f4c7888d7b" data-name="g2888"><path id="138a47e0-17bc-4980-8de1-fbbcae72bcfd" data-name="path2890" d="M58.05774,41.255a2.18638,2.18638,0,0,1,.47392.59106c.31739.5707-.31939,1.093-.97253,1.093a1.16821,1.16821,0,0,1-.19424-.01969,12.45267,12.45267,0,0,1-3.1699,3.36714,9.96637,9.96637,0,0,1,4.72915,2.07756,14.0367,14.0367,0,0,0,1.69542-6.3101,4.49636,4.49636,0,0,0-1.77819-3.64448,12.93239,12.93239,0,0,1-.78363,2.8455" transform="translate(-14.78788 -31.80325)" style="fill:#373535"/></g><g id="e258d835-da1a-4c51-8e33-8bde66ecb139" data-name="g2892"><path id="a3762bfe-70f1-4a2e-ab0e-2f24faa6f902" data-name="path2894" d="M43.8047,52.14341a9.98419,9.98419,0,0,1,3.3855-3.96888,7.583,7.583,0,0,1-.62243-1.26756,9.52684,9.52684,0,0,1-4.26892-2.70132c-.00834.03638-.01869.07175-.02737.10813a8.63486,8.63486,0,0,0-.14718,2.86486A1.71214,1.71214,0,0,1,43.521,48.86137a2.62151,2.62151,0,0,1-.77362,1.53055,8.04847,8.04847,0,0,0,1.0573,1.75149" transform="translate(-14.78788 -31.80325)" style="fill:#373535"/></g><g id="64953f72-c3d7-4872-9d26-b3b551132c72" data-name="g2896"><path id="1cd66c2a-0132-4fb3-9b1d-c1e929634f12" data-name="path2898" d="M43.70171,53.49971a12.7029,12.7029,0,0,1-1.63334-2.947,1.712,1.712,0,0,1-.26032.022c-.9465,0-1.93805-.79431-1.71377-1.71344a1.69969,1.69969,0,0,1,1.047-1.119,12.04255,12.04255,0,0,1,.0791-3.66351,7.05526,7.05526,0,0,1,.31706-.7586,10.04552,10.04552,0,0,1-1.71911-5.52413c0-.07276.00367-.14451.00534-.2166A4.89691,4.89691,0,0,0,36.73547,42.054c0,4.85531,2.79644,9.61817,6.95722,11.48513l.009-.03938" transform="translate(-14.78788 -31.80325)" style="fill:#373535"/></g><g id="082a3295-4123-4151-aa35-401dd0f33ae3" data-name="g2900"><path id="cce965c1-f2a1-48c9-8b9c-19a59e104161" data-name="path2902" d="M53.93286,46.78754a3.92232,3.92232,0,0,1-6.12987,1.7862,11.5377,11.5377,0,0,0-3.262,4.59165,9.0824,9.0824,0,0,0,.80332.831,14.80048,14.80048,0,0,0,3.33343,0,11.7216,11.7216,0,0,0,10.041-5.139,10.584,10.584,0,0,0-4.78589-2.06988" transform="translate(-14.78788 -31.80325)" style="fill:#373535"/></g></g><g id="9374d7d6-6033-4d96-afd4-ee52f7522072" data-name="g2906"><g id="73103955-b9f3-4362-8d20-b35af8287a55" data-name="g2912"><path id="55dc2f5f-1d11-4b40-89d0-a1e0c98257f6" data-name="path2914" d="M41.72728,42.80153a9.49543,9.49543,0,0,1,1.20315-1.97944A1.30152,1.30152,0,0,1,44.63119,39.155a9.5003,9.5003,0,0,1,7.85266-1.72312c.26065.05874.5163.12983.76728.20792a10.45663,10.45663,0,0,0-7.899,2.21973A1.30221,1.30221,0,0,1,43.68636,41.583a8.77541,8.77541,0,0,0-1.18112,2.16266,9.71031,9.71031,0,0,0,3.69621,2.50875c-.00334-.06708-.01035-.1335-.01035-.20192a3.92769,3.92769,0,0,1,7.79993-.65981,10.18618,10.18618,0,0,0,2.5478-2.32553,1.168,1.168,0,0,1-.27033-.74392,1.17284,1.17284,0,0,1,1.45078-1.14941,10.35054,10.35054,0,0,0,.81233-2.35289c-3.39417-2.51276-9.96125-2.17-9.96125-2.17s-5.22576-.27267-8.76345,1.45145a10.41642,10.41642,0,0,0,1.92036,4.69911" transform="translate(-14.78788 -31.80325)" style="fill:#1486b0"/></g><g id="e8dd436d-f05d-4d82-9073-d0e6d1cacb79" data-name="g2916"><path id="95d02f1e-ba16-4aab-8e29-3202cde77b20" data-name="path2918" d="M58.24093,41.44863a1.17254,1.17254,0,0,1-.98354,2.03817,9.57466,9.57466,0,0,1-2.85651,2.87287,9.56566,9.56566,0,0,1,4.60333,2.06955,11.87972,11.87972,0,0,0,1.50785-5.80781,4.49636,4.49636,0,0,0-1.77819-3.64448,9.51766,9.51766,0,0,1-.49294,2.47171" transform="translate(-14.78788 -31.80325)" style="fill:#1486b0"/></g><g id="b1e172f2-23fc-41eb-a07b-6b99baee65c9" data-name="g2920"><path id="2b11f646-81ec-4b58-ae06-d3f57571419b" data-name="path2922" d="M43.98526,52.5316a9.53417,9.53417,0,0,1,2.963-4.16646,3.92319,3.92319,0,0,1-.48793-.89076,9.525,9.525,0,0,1-4.26892-2.70132c-.00834.03638-.019.07175-.02737.10813a8.61715,8.61715,0,0,0-.14718,2.86486,1.711,1.711,0,0,1,.84537,2.94,10.28421,10.28421,0,0,0,1.123,1.8456" transform="translate(-14.78788 -31.80325)" style="fill:#1486b0"/></g><g id="1d7ff32a-f455-4604-8adc-0f588751c6e3" data-name="g2924"><path id="3e833fd7-c505-4d78-9749-59eb4e773f5f" data-name="path2926" d="M43.69714,53.48A9.553,9.553,0,0,1,41.961,51.12047a1.71153,1.71153,0,0,1-1.00724-3.23231,9.50158,9.50158,0,0,1,.1592-3.242c.07009-.31305.15552-.61876.254-.91746a9.47617,9.47617,0,0,1-1.656-5.36527c0-.07276.00334-.14451.005-.21627a4.89645,4.89645,0,0,0-3.08813,4.47417,11.94163,11.94163,0,0,0,7.06035,10.89807l.009-.03938" transform="translate(-14.78788 -31.80325)" style="fill:#1486b0"/></g><g id="e3f070c1-8170-4ad9-8c39-308e68cabc29" data-name="g2928"><path id="d3cfa3c1-466b-46f8-a3d6-448c4fcdd599" data-name="path2930" d="M53.82533,47.355a3.92232,3.92232,0,0,1-6.12987,1.7862A9.73061,9.73061,0,0,0,44.6437,53.311a10.62767,10.62767,0,0,0,.90878.8674,11.95094,11.95094,0,0,0,13.03136-5.05288A10.014,10.014,0,0,0,53.82533,47.355" transform="translate(-14.78788 -31.80325)" style="fill:#1486b0"/></g></g><g id="12e0b530-6823-4e98-91c7-31b628d8e838" data-name="g2932"><g id="ffbd0750-9260-4a5f-85cb-29a95d362535" data-name="g2934"><g id="e9ff5a3c-0618-4a0a-b555-9d0a79eabed0" data-name="g2940"><rect x="27.48754" y="6.79857" width="15.31851" height="15.30517" style="fill:none"/><g id="a8223b89-25ce-41bf-bc96-9433cd2a0790" data-name="g2950"><g id="c20c50d0-94ad-4266-b566-42800d0370d9" data-name="g2952"><path id="9515c4da-a39b-44c0-b325-40187c0818a8" data-name="path2954" d="M53.9632,46.34168l3.6308-.86607-3.64448-.1859,2.966-2.26679L53.55,44.22941l2.28715-3.16957-3.15889,2.09958,1.10436-3.71023-2.16934,3.0581-.04939-3.86442L50.13649,42.0851l-1.19013-3.48329.06441,4.10338L46.95391,39.027l1.113,3.90547-3.33644-2.42632,2.61355,3.284L43.202,42.267l3.269,2.41864-4.19182.12883,4.28594,1.106-4.28961.92747,4.23421.307L42.939,49.44149l3.67686-1.333-2.55114,3.231,3.22363-2.59987-1.16076,4.33567L48.61629,49.547l-.34876,4.16713,1.41274-3.77765L50.88274,53.907l.29236-3.98257L52.96,53.32226l-1.05463-3.88645,3.26835,2.53178-2.10993-3.228,3.58574,1.39705L53.9078,47.44236l3.67652.289Z" transform="translate(-14.78788 -31.80325)" style="fill:#fff"/></g></g></g></g></g><g id="9a608b9c-cac7-477c-967e-85a7407e2817" data-name="g2956"><g id="5f780994-220d-4504-980c-a9d1bf29ff0f" data-name="g2958"><g id="fec2f6ed-05e4-4551-b12e-4aa8895cbc87" data-name="g2964"><rect x="0.52148" y="0.8546" width="70.88776" height="20.63138" style="fill:none"/><g id="4bfd4ecd-3dd3-4aeb-b7af-2cbd6af8bbdf" data-name="g2974" style="opacity:0.35000604391098"><g id="788d6f98-0480-4504-a0be-ecd9f5aaca82" data-name="g2976"><path id="b27ebd49-4e6d-4b6b-b15d-fe9569e103ad" data-name="path2978" d="M15.30935,53.28919C26.56987,42.029,35.56327,38.55272,43.7253,36.96577c1.08-.20993,1.28425-2.56983,1.28425-2.56983s.15119,1.73814.90712,1.96475c.7556.22695,1.7378-2.72068,1.7378-2.72068s-.90678,2.64525,0,2.79644c.90712.15119,2.56949-2.56949,2.56949-2.56949s-.67984,2.34255-.22628,2.49373c.45289.15119,2.72-3.40052,2.72-3.40052s-1.36034,2.34255-.07543,2.56949c1.28525.22661,3.15955-1.599,3.15955-1.599s-1.47381,1.67039-.817,1.901c2.79644.98288,5.05922-2.6516,5.05922-2.6516a12.2467,12.2467,0,0,1-1.88465,3.33176c2.947.7556,5.136-3.6842,5.136-3.6842l-2.189,4.4398c1.13373.60508,5.66864-4.60967,5.66864-4.60967s-2.34288,4.081-3.70322,4.912c.75559.60474,3.47628-1.81356,3.47628-1.81356s-2.1917,2.72035-1.36034,2.87153c1.20915.98254,5.66764-5.06323,5.66764-5.06323a30.65249,30.65249,0,0,1-4.3073,6.34814c2.14764,1.07432,7.48187-5.81916,7.48187-5.81916s-.15119,2.1917-4.00559,5.668c2.87186-.3778,6.57509-5.81916,6.57509-5.81916a18.027,18.027,0,0,1-4.61034,6.95255c2.8198-.29336,7.33035-7.25493,7.33035-7.25493a19.349,19.349,0,0,1-5.28951,7.63306c3.92983.86907,9.5978-4.9878,9.5978-4.9878S81.39831,40.442,78.4884,42.14214C81.7384,43.389,86.19722,38.25,86.19722,38.25s-4.45882,6.87746-11.56256,6.57509c-2.33086-.09912-9.3812-7.07137-24.48612-6.49933-19.95121.75593-24.18308,9.22-34.83919,14.96341" transform="translate(-14.78788 -31.80325)" style="fill:#373535"/></g></g></g><g id="cdf66c49-8815-4c1a-a3a1-9c8679994e6a" data-name="g2980"><path id="67d3c17a-783b-4043-9b1d-34faf64ed8ce" data-name="path2982" d="M15.77085,52.434C27.03137,41.17378,36.02443,37.69784,44.18647,36.11055c1.08033-.20993,1.28458-2.56949,1.28458-2.56949s.15085,1.73847.90712,1.96475c.7556.22661,1.7378-2.72035,1.7378-2.72035s-.90678,2.64525,0,2.79611c.90712.15085,2.56949-2.56949,2.56949-2.56949s-.67984,2.34255-.22695,2.49373c.45356.15119,2.72068-3.40085,2.72068-3.40085s-1.36034,2.34288-.07543,2.56949c1.28458.22695,3.15955-1.59863,3.15955-1.59863s-1.47381,1.67039-.817,1.901c2.79644.98254,5.05855-2.6516,5.05855-2.6516a12.25426,12.25426,0,0,1-1.884,3.33176c2.947.75593,5.136-3.68453,5.136-3.68453l-2.189,4.44046c1.13373.60441,5.668-4.60967,5.668-4.60967s-2.34222,4.08035-3.70255,4.91171c.75559.60474,3.47628-1.81356,3.47628-1.81356s-2.1917,2.72068-1.36034,2.87153c1.20915.98288,5.66764-5.06323,5.66764-5.06323a30.67407,30.67407,0,0,1-4.3073,6.34814c2.14764,1.07466,7.48187-5.81916,7.48187-5.81916s-.15119,2.192-4.00559,5.66831c2.87186-.37813,6.57509-5.81949,6.57509-5.81949a18.0295,18.0295,0,0,1-4.61034,6.95289c2.8198-.29336,7.33035-7.25493,7.33035-7.25493a19.3466,19.3466,0,0,1-5.28951,7.63272c3.92983.86907,9.5978-4.98747,9.5978-4.98747s-2.22941,4.15611-5.13932,5.85654c3.25,1.24687,7.70882-3.89212,7.70882-3.89212s-4.45882,6.87746-11.56322,6.57509c-2.3302-.09946-9.38054-7.0717-24.48578-6.49933-19.95088.7556-24.18308,9.21968-34.83886,14.96308" transform="translate(-14.78788 -31.80325)" style="fill:#373535"/></g></g></g><g id="25baebc2-d72d-4f7e-9f51-3144c162cf08" data-name="g2984"><g id="76543a8e-78f1-4cf5-9801-a94339b1166a" data-name="g2986"><g id="a7eae5ad-db6b-4bec-a551-0c3083698b77" data-name="g2992"><rect x="0.22651" y="13.38468" width="66.54201" height="24.63631" style="fill:none"/><g id="2076ea01-8f92-4a97-ab0b-bd6200c95f88" data-name="g3002" style="opacity:0.35000604391098"><g id="b164ed25-f934-4741-8afe-1272635a6530" data-name="g3004"><path id="58909624-3ceb-452b-b62c-bfacad905cfe" data-name="path3006" d="M15.01439,54.52068c5.95132,2.98534,11.393-.45322,18.25112,1.47949,5.21408,1.46981,11.56256,3.2817,20.17748,2.0345,8.61526-1.24653,15.984-4.98747,19.49865-11.676,1.09568-2.98467,5.55416.6805,5.55416.6805s-3.24933-1.36034-3.17357-.71788c.07543.64212,4.87433,2.87153,4.87433,2.87153s-4.34568-1.36034-4.081-.34009S81.55624,53.954,81.55624,53.954s-5.85654-4.45882-6.34747-3.85441c-.49161.60474,2.49373,3.0611,2.49373,3.0611s-4.95009-3.0611-6.68856-2.15832c-1.25021.64846,5.13932,4.84129,5.13932,4.84129s-4.15678-3.17457-5.13932-2.34322c-.98221.83169,4.68576,7.63306,4.68576,7.63306s-6.42424-6.95289-7.066-6.6128c-.64279.34009,1.77552,3.66551,1.77552,3.66551s-3.1739-3.47661-4.04264-2.87187c-.86907.60474,4.53424,9.63552,4.53424,9.63552s-5.85687-9.25739-8.27518-7.70882c3.79767,8.33225,2.38059,9.52272,2.38059,9.52272s-.48459-8.50046-5.21475-8.27551c-2.3806.11347,1.13339,6.34814,1.13339,6.34814s-3.23431-5.69434-5.3883-5.58087c3.96988,7.51291,2.55481,10.56867,2.55481,10.56867s.65647-6.41656-4.72782-9.98729c2.04018,1.81323-1.28024,9.98729-1.28024,9.98729S55.00424,57.779,49.929,60.07552c-.802.36211-.05674,6.00806-.05674,6.00806S48.852,59.62163,47.32212,59.962c-.8921.19791-5.66831,8.95535-5.66831,8.95535s3.91114-9.46564,2.721-9.06882c-.86707.28936-2.49407,4.19449-2.49407,4.19449s.79331-3.85441,0-4.081c-.79331-.22695-5.21475,4.081-5.21475,4.081s3.28771-3.85441,2.72068-4.64805a2.2794,2.2794,0,0,0-3.06076-.79331c-1.73847.6775-4.08069,3.85407-4.08069,3.85407s2.33487-3.21629,1.9267-4.42111c-.65514-1.93571-7.36806,3.74094-7.36806,3.74094s3.96755-3.74094,3.06077-4.53458c-.90678-.79331-5.83084-.548-7.3684-.55235-4.53424-.014-6.1055-1.07766-7.48186-2.168" transform="translate(-14.78788 -31.80325)" style="fill:#373535"/></g></g></g><g id="4c7acbbe-ef92-4f92-bab5-87265c4edd27" data-name="g3008"><path id="8030dc1f-b6df-4194-ae28-fe48cf43cafc" data-name="path3010" d="M14.78788,53.84046c5.95132,2.98534,11.39268-.45322,18.25078,1.47982,5.21408,1.46914,11.56289,3.28137,20.17815,2.03417,8.61526-1.24687,15.98333-4.9878,19.498-11.6757,1.09568-2.985,5.55416.67984,5.55416.67984s-3.24933-1.36-3.17357-.71755c.07543.64212,4.87433,2.87153,4.87433,2.87153s-4.34568-1.36-4.081-.33975c.26466,1.01992,5.44136,5.10094,5.44136,5.10094s-5.85721-4.45915-6.34814-3.85407c-.49093.60441,2.49407,3.06043,2.49407,3.06043s-4.95043-3.06043-6.68856-2.15832c-1.25054.6488,5.139,4.84129,5.139,4.84129s-4.15678-3.17424-5.139-2.34288c-.98254.83169,4.6861,7.63306,4.6861,7.63306s-6.42457-6.95289-7.06669-6.6128c-.64212.34042,1.77619,3.66518,1.77619,3.66518s-3.17457-3.47628-4.04331-2.87153c-.86907.60441,4.53424,9.63552,4.53424,9.63552s-5.85687-9.25772-8.27518-7.70848c3.79767,8.33192,2.38059,9.52238,2.38059,9.52238s-.48459-8.50046-5.21475-8.27518c-2.3806.11347,1.13339,6.34781,1.13339,6.34781s-3.23431-5.69467-5.388-5.5812c3.97022,7.51324,2.55448,10.569,2.55448,10.569s.65647-6.41689-4.72782-9.98762C55.1769,60.9699,51.85648,69.144,51.85648,69.144s2.92159-12.04515-2.15365-9.74866c-.802.36245-.05674,6.00806-.05674,6.00806s-1.02092-6.46162-2.55047-6.12153c-.89243.19791-5.66864,8.95535-5.66864,8.95535s3.91114-9.46564,2.721-9.06849c-.86707.28869-2.49407,4.19383-2.49407,4.19383s.79364-3.85407,0-4.08069c-.79331-.22661-5.21441,4.08069-5.21441,4.08069s3.28771-3.85407,2.72035-4.64772a2.279,2.279,0,0,0-3.06043-.793c-1.73881.67717-4.081,3.85374-4.081,3.85374s2.33487-3.21662,1.927-4.42111c-.65547-1.93538-7.36806,3.74094-7.36806,3.74094s3.96755-3.74094,3.06043-4.53425c-.90679-.79364-5.83084-.548-7.3684-.55268-4.53424-.01435-6.10518-1.07766-7.48154-2.168" transform="translate(-14.78788 -31.80325)" style="fill:#373535"/></g></g></g></svg>