<svg xmlns="http://www.w3.org/2000/svg" width="100" height="32" viewBox="0 0 100 32"><title>MongoDB-Leaf_NoSpace</title><path d="M24.69482,30.14258q-3.55811,0-5.17285-1.30469-1.61572-1.30664-1.61523-4.65039v-3.916q0-3.00293-2.48047-3.002V14.26611q2.48,0,2.48047-3.11621V7.51123q0-3.36182,1.59863-4.72363,1.59961-1.3623,5.18945-1.36328V4.47607q-2.61182,0-2.61133,2.83887v3.47559q0,3.917-2.5127,4.94434v.06543q2.51221,1.01221,2.5127,5.01025V24.1543a3.3348,3.3348,0,0,0,.6123,2.26758,2.5938,2.5938,0,0,0,1.999.66992Z" style="fill:#53aa48"/><path d="M35.8042,22.85742H27.60693V9.09424h3.10059V20.34375H35.8042Z" style="fill:#fff"/><path d="M45.91162,22.85742H37.65674V9.09424h7.9375v2.52344H40.75732v3.0625h4.501v2.51514h-4.501v3.14844h5.1543Z" style="fill:#fff"/><path d="M60.501,22.85742H57.12207l-.97852-3.06055H51.248l-.97021,3.06055H46.91846L51.92969,9.09424h3.67578ZM55.43262,17.416l-1.47754-4.62646a6.00592,6.00592,0,0,1-.23047-1.23828h-.07715a5.2644,5.2644,0,0,1-.23926,1.19922l-1.498,4.66553Z" style="fill:#fff"/><path d="M70.17676,11.61768H65.32031v3.37891H69.7832v2.51514H65.32031v5.3457H62.21973V9.09424h7.957Z" style="fill:#fff"/><path d="M81.49023,17.26953q-2.49756,0-2.49707,3.05078v3.76953q0,3.44238-1.59082,4.748-1.59082,1.30371-5.16406,1.30469V27.0918a2.62488,2.62488,0,0,0,1.99023-.66016,3.251,3.251,0,0,0,.62012-2.24414V20.71094q0-3.89941,2.49609-4.87842v-.06445q-2.49609-1.02832-2.49609-5.10742V7.31494q0-2.83887-2.61035-2.83887V1.42432q3.55664,0,5.15625,1.36328,1.59814,1.3623,1.59863,4.6582v3.73633q0,3.085,2.49707,3.084Z" style="fill:#429946"/></svg>