<svg xmlns="http://www.w3.org/2000/svg" viewBox="0 0 66.06348 28.71826"><title>Box02_MongoDB-LEAF</title><path d="M39.43848,76.39258q-3.55811,0-5.17285-1.30469-1.61572-1.30664-1.61523-4.65039v-3.916q0-3.0022-2.48047-3.00244V60.51611q2.48,0,2.48047-3.11621V53.76123q0-3.36182,1.59863-4.72363,1.59961-1.3623,5.18945-1.36328v3.05176q-2.61182,0-2.61133,2.83887v3.47559q0,3.917-2.5127,4.94434v.06543q2.51221,1.01221,2.5127,5.01025V70.4043a3.3348,3.3348,0,0,0,.6123,2.26758,2.5938,2.5938,0,0,0,1.999.66992Z" transform="translate(-30.16992 -47.67432)" style="fill:#fff"/><path d="M50.54785,69.10742H42.35059V55.34424h3.10059V66.59375h5.09668Z" transform="translate(-30.16992 -47.67432)" style="fill:#fff"/><path d="M60.65527,69.10742H52.40039V55.34424h7.9375v2.52344H55.501v3.0625h4.501v2.51465H55.501v3.14893h5.1543Z" transform="translate(-30.16992 -47.67432)" style="fill:#fff"/><path d="M75.24414,69.10742H71.86523l-.97852-3.06055H65.99121l-.96973,3.06055H61.66211l5.01074-13.76318h3.67578Zm-5.06836-5.44189-1.47754-4.626a6.00592,6.00592,0,0,1-.23047-1.23828h-.07715a5.2644,5.2644,0,0,1-.23926,1.19922l-1.498,4.665Z" transform="translate(-30.16992 -47.67432)" style="fill:#fff"/><path d="M84.91992,57.86768H80.06348v3.37891h4.46289v2.51465H80.06348v5.34619H76.96289V55.34424h7.957Z" transform="translate(-30.16992 -47.67432)" style="fill:#fff"/><path d="M96.2334,63.519q-2.49756,0-2.49707,3.05127v3.76953q0,3.44238-1.59082,4.748-1.59082,1.30371-5.16406,1.30469V73.3418a2.62488,2.62488,0,0,0,1.99023-.66016,3.251,3.251,0,0,0,.62012-2.24414V66.96094q0-3.89868,2.49609-4.87842v-.06445q-2.49609-1.02832-2.49609-5.10742v-3.3457q0-2.83887-2.61035-2.83887V47.67432q3.55664,0,5.15625,1.36328,1.59814,1.3623,1.59863,4.6582v3.73633q0,3.085,2.49707,3.084Z" transform="translate(-30.16992 -47.67432)" style="fill:#fff"/></svg>