<svg id="7b3d6de3-f38d-4e62-9fed-b616cd48fa79" data-name="52bb5a9a-6e40-4053-9b47-f0f80bc55dd0" xmlns="http://www.w3.org/2000/svg" width="93.97109" height="86.36885" viewBox="0 0 93.97109 86.36885"><title>Cosmos_SQL-100px</title><path d="M16.24669,33.33447a.951.951,0,0,1-.95388-.948h0A10.842,10.842,0,0,0,4.4391,21.57972a.948.948,0,1,1,0-1.89309A10.839,10.839,0,0,0,15.29281,8.87988a.95682.95682,0,1,1,1.91363,0A10.842,10.842,0,0,0,28.066,19.68663a.948.948,0,1,1,.0012,1.896H28.066A10.842,10.842,0,0,0,17.20644,32.3894a.951.951,0,0,1-.95676.9451Z" transform="translate(-3.43833 -7.92307)" style="fill:#f2f2f2"/><path d="M83.171,94.29191a.56939.56939,0,0,1-.56939-.56646,6.48346,6.48346,0,0,0-6.48933-6.457.56646.56646,0,1,1-.00149-1.13292h.00149a6.48346,6.48346,0,0,0,6.48933-6.457.56939.56939,0,0,1,1.13879,0,6.48346,6.48346,0,0,0,6.48933,6.457.56646.56646,0,1,1,.00149,1.13292h-.00149a6.48346,6.48346,0,0,0-6.48933,6.457.56646.56646,0,0,1-.56645.56647Z" transform="translate(-3.43833 -7.92307)" style="fill:#f2f2f2"/><path d="M37.23208,81.56273A30.9175,30.9175,0,0,0,81.953,54.07333,141.95237,141.95237,0,0,1,60.76508,69.75514,142.225,142.225,0,0,1,37.23208,81.56273Z" transform="translate(-3.43833 -7.92307)" style="fill:#f2f2f2"/><path d="M55.6376,61.36685A124.78849,124.78849,0,0,0,78.23725,44.05023c.56059-.55765,1.05954-1.06835,1.53208-1.5585a30.67094,30.67094,0,0,0-5.7409-9.2864,30.97048,30.97048,0,0,0-46.341,41.09909c.71321-.20838,1.41468-.408,2.19246-.66038A125.50145,125.50145,0,0,0,55.6376,61.36685Z" transform="translate(-3.43833 -7.92307)" style="fill:#f2f2f2"/><path d="M96.17316,26.07323c-2.9497-4.84865-10.39878-5.9669-21.50783-3.24907a88.476,88.476,0,0,0-10.18746,3.2432,31.2845,31.2845,0,0,1,6.01386,3.839c1.89015-.62222,3.74509-1.174,5.512-1.61133a38.798,38.798,0,0,1,9.04867-1.2826c3.63649,0,5.644.89812,6.31323,1.99288,1.0977,1.79623.08805,6.53923-6.369,14-1.1476,1.32663-2.44194,2.67087-3.79792,4.02391A129.30257,129.30257,0,0,1,57.82712,64.95051a128.61277,128.61277,0,0,1-26.65,12.68809c-11.23819,3.66-18.91327,3.5866-20.63026.77778s1.717-9.68556,10.10821-18.01809a30.70029,30.70029,0,0,1-.68973-7.22015C6.611,65.247,2.28773,75.71029,5.73931,81.35434c1.808,2.95557,5.75558,4.6344,11.5229,4.6344a58.66512,58.66512,0,0,0,19.95814-4.40253A142.18406,142.18406,0,0,0,60.77682,69.76982,141.95511,141.95511,0,0,0,81.9706,54.08214,87.51648,87.51648,0,0,0,89.27,46.70643C96.74549,38.04812,99.13754,30.916,96.17316,26.07323Z" transform="translate(-3.43833 -7.92307)" style="fill:#f2f2f2"/></svg>