<svg xmlns="http://www.w3.org/2000/svg" viewBox="0 0 60.25146 47.21357"><title>Box05_Table</title><path d="M31.5752,71.34961V67.16016a6.467,6.467,0,0,0,1.3418.92383,10.32007,10.32007,0,0,0,1.65039.69141,12.9384,12.9384,0,0,0,1.74365.4375,9.39218,9.39218,0,0,0,1.60742.15234,6.85769,6.85769,0,0,0,3.82129-.85352,2.81446,2.81446,0,0,0,1.25635-2.48047,2.70187,2.70187,0,0,0-.41895-1.51221,4.39361,4.39361,0,0,0-1.1709-1.17187,12.37073,12.37073,0,0,0-1.76953-1.0166q-1.01733-.48779-2.18018-1.01758-1.248-.6665-2.3252-1.35059a9.96538,9.96538,0,0,1-1.87207-1.51367,6.31815,6.31815,0,0,1-1.248-1.87207,6.09124,6.09124,0,0,1-.45312-2.44434,5.64139,5.64139,0,0,1,.77783-3.001,6.58616,6.58616,0,0,1,2.05176-2.10352,9.39723,9.39723,0,0,1,2.89795-1.23047,13.77714,13.77714,0,0,1,3.31689-.40234,13.39118,13.39118,0,0,1,5.60791.87207v4.01855a8.95793,8.95793,0,0,0-5.36865-1.50488,9.68015,9.68015,0,0,0-1.80371.1709,5.37959,5.37959,0,0,0-1.60693.56445,3.48716,3.48716,0,0,0-1.1543,1.00879,2.47171,2.47171,0,0,0-.44434,1.4873,2.81114,2.81114,0,0,0,.3418,1.41895,3.66719,3.66719,0,0,0,1,1.09473,10.25709,10.25709,0,0,0,1.60742.96582q.94922.47021,2.19678,1.01758,1.28247.6665,2.41943,1.40137a11.41941,11.41941,0,0,1,2.00049,1.625,7.14186,7.14186,0,0,1,1.36768,1.97461,5.79258,5.79258,0,0,1,.50439,2.47021,5.79693,5.79693,0,0,1-2.77832,5.23242A9.05618,9.05618,0,0,1,41.56006,72.375a16.47711,16.47711,0,0,1-3.50488.35938,14.96128,14.96128,0,0,1-1.51318-.09375q-.89795-.09375-1.83789-.27344a17.0046,17.0046,0,0,1-1.77832-.4375A5.576,5.576,0,0,1,31.5752,71.34961Z" transform="translate(-31.55811 -36.0016)" style="fill:#fff"/><path d="M61.87207,72.73438a12.28431,12.28431,0,0,1-4.8042-.90625,10.54257,10.54257,0,0,1-3.67627-2.53906,11.46135,11.46135,0,0,1-2.35937-3.90625,14.44651,14.44651,0,0,1-.83789-5.02783,15.9133,15.9133,0,0,1,.84668-5.334,11.65192,11.65192,0,0,1,2.41064-4.08594,10.596,10.596,0,0,1,3.8042-2.61621,13.03774,13.03774,0,0,1,5.00977-.92383,11.80914,11.80914,0,0,1,4.68457.90625,10.46071,10.46071,0,0,1,3.625,2.53906,11.52972,11.52972,0,0,1,2.334,3.90723,14.5259,14.5259,0,0,1,.8291,5.00977,15.51345,15.51345,0,0,1-1.21387,6.35205,10.915,10.915,0,0,1-3.41992,4.38477L76.2168,75.623H70.02832l-4.377-3.40234a15.03726,15.03726,0,0,1-1.813.377A13.84957,13.84957,0,0,1,61.87207,72.73438Zm.188-21.76514a7.083,7.083,0,0,0-3.06885.6582,6.99143,6.99143,0,0,0-2.40234,1.86328,8.70674,8.70674,0,0,0-1.56445,2.88086,11.79018,11.79018,0,0,0-.55566,3.72754,12.08287,12.08287,0,0,0,.53857,3.71,8.64406,8.64406,0,0,0,1.51318,2.86475,6.76448,6.76448,0,0,0,5.36865,2.50391,7.79893,7.79893,0,0,0,3.16357-.61523A6.54515,6.54515,0,0,0,67.4375,66.793a8.055,8.055,0,0,0,1.51367-2.82959,12.65885,12.65885,0,0,0,.5293-3.81348,13.57185,13.57185,0,0,0-.5127-3.89746,8.23061,8.23061,0,0,0-1.4707-2.88184,6.29345,6.29345,0,0,0-2.333-1.78613A7.53172,7.53172,0,0,0,62.06006,50.96924Z" transform="translate(-31.55811 -36.0016)" style="fill:#fff"/><path d="M91.80957,72.32422H78.23438V47.80615h4.06934V68.88672h9.50586Z" transform="translate(-31.55811 -36.0016)" style="fill:#fff"/><polygon points="44.366 0 17.107 0 3.478 23.607 17.107 47.214 44.366 47.214 57.995 23.607 44.366 0" style="fill:#aaa"/><rect x="20.91527" y="12.33289" width="6.61022" height="6.61022" style="fill:#666667"/><rect x="28.89769" y="12.33289" width="6.61022" height="6.61022" style="fill:#666667"/><rect x="36.88065" y="12.33289" width="6.61022" height="6.61022" style="fill:#666667"/><rect x="20.91527" y="20.30168" width="6.61022" height="6.61022" style="fill:#666667"/><rect x="28.89769" y="20.30168" width="6.61022" height="6.61022" style="fill:#666667"/><rect x="36.88065" y="20.30168" width="6.61022" height="6.61022" style="fill:#666667"/><rect x="20.91527" y="28.26992" width="6.61022" height="6.61022" style="fill:#666667"/><rect x="28.89769" y="28.26992" width="6.61022" height="6.61022" style="fill:#666667"/><rect x="36.88065" y="28.26992" width="6.61022" height="6.61022" style="fill:#666667"/><polygon points="19.317 36.471 19.368 12.314 18.032 12.314 17.982 37.807 43.452 37.807 43.452 36.471 19.317 36.471" style="fill:#33393e"/></svg>