<svg xmlns="http://www.w3.org/2000/svg" width="100" height="100" viewBox="0 0 100 100"><title>Table_100px</title><polygon points="69.104 15.148 30.349 15.148 10.971 48.711 30.349 82.274 69.104 82.274 88.481 48.711 69.104 15.148" style="fill:#fff;opacity:0.800000011920929;isolation:isolate"/><rect x="35.76288" y="32.68268" width="9.39807" height="9.39806" style="fill:#1d73b9"/><rect x="47.11187" y="32.68268" width="9.39807" height="9.39806" style="fill:#1d73b9"/><rect x="58.46164" y="32.68268" width="9.39807" height="9.39806" style="fill:#1d73b9"/><rect x="35.76288" y="44.01229" width="9.39807" height="9.39806" style="fill:#1d73b9"/><rect x="47.11187" y="44.01229" width="9.39807" height="9.39806" style="fill:#1d73b9"/><rect x="58.46164" y="44.01229" width="9.39807" height="9.39806" style="fill:#1d73b9"/><rect x="35.76288" y="55.34112" width="9.39807" height="9.39806" style="fill:#1d73b9"/><rect x="47.11187" y="55.34112" width="9.39807" height="9.39806" style="fill:#1d73b9"/><rect x="58.46164" y="55.34112" width="9.39807" height="9.39806" style="fill:#1d73b9"/><polygon points="33.491 67.001 33.562 32.656 31.664 32.656 31.593 68.9 67.804 68.9 67.804 67.001 33.491 67.001" style="fill:#1b3460"/></svg>