<svg width="102" height="96" viewBox="0 0 102 96" fill="none" xmlns="http://www.w3.org/2000/svg">
<path d="M75.6436 74.6445H50.9597V77.1708H75.6436V74.6445Z" fill="#50E6FF"/>
<path d="M74.7271 70.8867L79.9636 75.872L74.7271 80.8741V70.8867Z" fill="#50E6FF"/>
<path d="M52.2819 72.9252H49.6372V24.2852H75.6434V26.8115H52.2819V72.9252Z" fill="#50E6FF"/>
<path d="M92.0048 25.7695H89.3601V79.6643H92.0048V25.7695Z" fill="#50E6FF"/>
<path d="M76.3483 49.3984H55.0144V51.9248H76.3483V49.3984Z" fill="#50E6FF"/>
<path d="M35.4441 49.3984H13.0522V51.9248H35.4441V49.3984Z" fill="#50E6FF"/>
<path d="M90.6651 35.3697C84.8468 35.3697 80.1216 30.856 80.1216 25.2981C80.1216 19.7402 84.8468 15.2266 90.6651 15.2266C96.4835 15.2266 101.209 19.7402 101.209 25.2981C101.209 30.856 96.4835 35.3697 90.6651 35.3697Z" fill="#0078D4"/>
<path d="M101.209 40.5898H80.1216V60.733H101.209V40.5898Z" fill="#0078D4"/>
<path d="M90.6651 85.776C84.8468 85.776 80.1216 81.2623 80.1216 75.7044C80.1216 70.1465 84.8468 65.6328 90.6651 65.6328C96.4835 65.6328 101.209 70.1465 101.209 75.7044C101.209 81.2623 96.4835 85.776 90.6651 85.776Z" fill="#0078D4"/>
<path d="M11.2008 60.733C5.38243 60.733 0.657227 56.2193 0.657227 50.6614C0.657227 45.1035 5.38243 40.5898 11.2008 40.5898C17.0191 40.5898 21.7443 45.1035 21.7443 50.6614C21.7443 56.2193 17.0191 60.733 11.2008 60.733Z" fill="#0078D4"/>
<path d="M50.8717 60.733C45.0533 60.733 40.3281 56.2193 40.3281 50.6614C40.3281 45.1035 45.0533 40.5898 50.8717 40.5898C56.69 40.5898 61.4152 45.1035 61.4152 50.6614C61.4152 56.2193 56.69 60.733 50.8717 60.733Z" fill="#0078D4"/>
<path d="M61.4152 15.1758H40.3281V35.3189H61.4152V15.1758Z" fill="#0078D4"/>
<path d="M61.4152 65.6836H40.3281V85.8268H61.4152V65.6836Z" fill="#0078D4"/>
<path d="M74.9734 45.793L80.1923 50.7782L74.9734 55.7803V45.793Z" fill="#50E6FF"/>
<path d="M74.7271 20.5312L79.9636 25.5165L74.7271 30.5186V20.5312Z" fill="#50E6FF"/>
<path d="M33.9453 45.793L39.1642 50.7782L33.9453 55.7803V45.793Z" fill="#50E6FF"/>
</svg>
