<svg width="97" height="97" viewBox="0 0 97 97" fill="none" xmlns="http://www.w3.org/2000/svg">
<path d="M0.699219 86.213H96.6992V12.293H0.699219V86.213Z" fill="#0078D4"/>
<path d="M0.699219 20.2776H96.6655V10.2734H0.699219V20.2776Z" fill="#50E6FF"/>
<path d="M15.655 17.9194C17.0037 17.9194 18.0971 16.826 18.0971 15.4773C18.0971 14.1285 17.0037 13.0352 15.655 13.0352C14.3063 13.0352 13.2129 14.1285 13.2129 15.4773C13.2129 16.826 14.3063 17.9194 15.655 17.9194Z" fill="white"/>
<path d="M8.07589 17.9194C9.42463 17.9194 10.518 16.826 10.518 15.4773C10.518 14.1285 9.42463 13.0352 8.07589 13.0352C6.72716 13.0352 5.63379 14.1285 5.63379 15.4773C5.63379 16.826 6.72716 17.9194 8.07589 17.9194Z" fill="white"/>
<path d="M23.4021 17.9194C24.7508 17.9194 25.8442 16.826 25.8442 15.4773C25.8442 14.1285 24.7508 13.0352 23.4021 13.0352C22.0533 13.0352 20.96 14.1285 20.96 15.4773C20.96 16.826 22.0533 17.9194 23.4021 17.9194Z" fill="white"/>
<path d="M71.1999 35.418L67.5957 39.0222L79.2673 50.6938L67.4609 62.5001L71.0651 66.1043L86.4757 50.6938L71.1999 35.418Z" fill="#50E6FF"/>
<path d="M25.8783 66.1043L29.4994 62.5001L17.8278 50.8285L29.6341 39.0222L26.0299 35.418L10.6025 50.8285L25.8783 66.1043Z" fill="#50E6FF"/>
<path d="M63.807 55.8992C66.6161 55.8992 68.8933 53.622 68.8933 50.8129C68.8933 48.0038 66.6161 45.7266 63.807 45.7266C60.9979 45.7266 58.7207 48.0038 58.7207 50.8129C58.7207 53.622 60.9979 55.8992 63.807 55.8992Z" fill="white"/>
<path d="M48.4799 55.8992C51.289 55.8992 53.5662 53.622 53.5662 50.8129C53.5662 48.0038 51.289 45.7266 48.4799 45.7266C45.6708 45.7266 43.3936 48.0038 43.3936 50.8129C43.3936 53.622 45.6708 55.8992 48.4799 55.8992Z" fill="white"/>
<path d="M33.4906 55.8992C36.2997 55.8992 38.5769 53.622 38.5769 50.8129C38.5769 48.0038 36.2997 45.7266 33.4906 45.7266C30.6815 45.7266 28.4043 48.0038 28.4043 50.8129C28.4043 53.622 30.6815 55.8992 33.4906 55.8992Z" fill="white"/>
</svg>
