<svg width="96" height="97" viewBox="0 0 96 97" fill="none" xmlns="http://www.w3.org/2000/svg">
<path d="M93.9863 60.6511L93.9863 4.8125L28.0611 4.8125L28.0611 60.6511L93.9863 60.6511Z" fill="#0078D4"/>
<path d="M83.2656 75.9792L83.2656 20.1406L12.558 20.1406L12.558 75.9792L83.2656 75.9792Z" fill="#50E6FF"/>
<path d="M73.2305 90.5652L73.2305 34.7266L2.52287 34.7266L2.52287 90.5652L73.2305 90.5652Z" fill="#0078D4"/>
<path d="M37.7031 80.1582C47.3688 80.1582 55.2159 72.3112 55.2159 62.6455C55.2159 52.9799 47.3688 45.1328 37.7031 45.1328C28.0375 45.1328 20.1904 52.9799 20.1904 62.6455C20.1904 72.3112 28.0375 80.1582 37.7031 80.1582Z" fill="#50E6FF"/>
<path d="M48.7658 63.001L32.8359 72.111V53.7227L48.7658 63.001Z" fill="#0078D4"/>
</svg>
