<svg width="96" height="96" viewBox="0 0 96 96" fill="none" xmlns="http://www.w3.org/2000/svg">
<path d="M55.6689 48.2362C55.6689 52.4834 52.2307 55.9216 47.9835 55.9216C43.7363 55.9216 40.2981 52.4834 40.2981 48.2362C40.2981 43.989 43.7363 40.5508 47.9835 40.5508C52.2307 40.5508 55.6689 43.989 55.6689 48.2362Z" fill="#0078D4"/>
<path d="M60.7753 14.4429C60.3539 12.0834 58.2809 10.2969 55.8202 10.2969C54.1685 10.2969 52.7022 11.089 51.7921 12.3025C50.5618 12.1845 49.3146 12.1171 48.0674 12.1171C28.1798 12.1171 12.0505 28.2295 12.0505 48.134C12.0505 68.0216 28.1629 84.1508 48.0674 84.1508C67.955 84.1508 84.0842 68.0216 84.0842 48.134C84.0674 32.7295 74.3932 19.5834 60.7753 14.4429ZM71.7303 71.8137C68.646 74.898 65.073 77.3081 61.0786 78.9935C56.9494 80.7463 52.5674 81.6227 48.0505 81.6227C43.5337 81.6227 39.1517 80.7295 35.0224 78.9935C31.0281 77.3081 27.455 74.898 24.3708 71.8137C21.3033 68.7463 18.8764 65.1564 17.191 61.162C15.4382 57.0328 14.5618 52.6508 14.5618 48.134C14.5618 43.6171 15.4382 39.2351 17.191 35.1059C18.8764 31.1115 21.2865 27.5385 24.3708 24.4542C27.4382 21.3868 31.0281 18.9598 35.0224 17.2744C39.1517 15.5216 43.5337 14.6452 48.0505 14.6452C48.9775 14.6452 49.8876 14.6789 50.7977 14.7632C50.7809 14.9486 50.764 15.1508 50.764 15.3531C50.764 18.134 53.0224 20.3924 55.8033 20.3924C57.9775 20.3924 59.8483 19.0104 60.5393 17.0722C60.7078 17.1396 60.8932 17.207 61.0618 17.2913C65.0562 18.9767 68.6292 21.3868 71.7135 24.471C74.7977 27.5385 77.2078 31.1283 78.8932 35.1227C80.646 39.2519 81.5225 43.634 81.5225 48.1508C81.5225 52.6677 80.6292 57.0497 78.8932 61.1789C77.2247 65.1564 74.7977 68.7295 71.7303 71.8137Z" fill="#0078D4"/>
<path d="M95.8822 48.1362C95.8822 39.2878 93.472 30.9957 89.2923 23.8833C90.2529 22.9564 90.8597 21.6755 90.8597 20.226C90.8597 17.4451 88.6013 15.1867 85.8204 15.1867C84.9271 15.1867 84.0676 15.4227 83.3428 15.844C74.5956 6.28783 62.0226 0.304688 48.0507 0.304688C21.6406 0.304688 0.219238 21.7092 0.219238 48.1362C0.219238 56.9508 2.59564 65.1923 6.75856 72.2878C5.74733 73.2148 5.10688 74.5463 5.10688 76.0294C5.10688 78.8103 7.36531 81.0687 10.1462 81.0687C11.09 81.0687 11.9664 80.8159 12.708 80.3609C21.4552 89.9508 34.0451 95.9676 48.0507 95.9676C56.2249 95.9676 63.9271 93.9114 70.6687 90.2878C71.4777 90.844 72.4552 91.1642 73.517 91.1642C76.2979 91.1642 78.5563 88.9058 78.5563 86.1249C78.5563 85.7541 78.5226 85.4002 78.4383 85.0631C89.09 76.2991 95.8822 63.0182 95.8822 48.1362ZM77.2586 82.771C76.3316 81.7429 75.0001 81.1024 73.5001 81.1024C70.7192 81.1024 68.4608 83.3609 68.4608 86.1418C68.4608 86.9339 68.6462 87.6755 68.9664 88.3328C67.8878 88.889 66.8091 89.4114 65.6799 89.8833C60.1013 92.2429 54.1687 93.4395 48.0507 93.4395C41.9327 93.4395 36.0001 92.2429 30.4215 89.8833C25.0282 87.6081 20.1743 84.3384 16.0114 80.1755C15.4889 79.653 14.9833 79.1137 14.4945 78.5744C14.9327 77.8328 15.1855 76.9564 15.1855 76.0294C15.1855 73.2485 12.9271 70.9901 10.1462 70.9901C9.75856 70.9901 9.37092 71.0406 9.00014 71.1249C7.9889 69.4058 7.09564 67.6361 6.30351 65.7822C3.94396 60.2036 2.74733 54.271 2.74733 48.153C2.74733 42.035 3.94396 36.1024 6.30351 30.5238C8.57879 25.1305 11.8485 20.2766 16.0114 16.1137C20.1743 11.9508 25.0114 8.68109 30.4215 6.40581C36.0001 4.04626 41.9327 2.84963 48.0507 2.84963C54.1687 2.84963 60.1013 4.04626 65.6799 6.40581C71.0732 8.68109 75.9271 11.9508 80.09 16.1137C80.5788 16.6024 81.0507 17.1081 81.5226 17.6137C81.0507 18.389 80.781 19.2822 80.781 20.2597C80.781 23.0406 83.0395 25.2991 85.8204 25.2991C86.2586 25.2991 86.6799 25.2485 87.0844 25.1305C88.0956 26.8496 89.0058 28.653 89.7979 30.5069C92.1574 36.0856 93.3541 42.0182 93.3541 48.1362C93.3541 54.2541 92.1574 60.1867 89.7979 65.7654C87.5226 71.1586 84.253 76.0126 80.09 80.1755C79.1799 81.0856 78.2361 81.9451 77.2586 82.771Z" fill="#50E6FF"/>
<path d="M69.2865 59.1052C70.9888 55.8186 71.9495 52.0939 71.9495 48.1333C71.9495 34.9366 61.2472 24.2344 48.0506 24.2344C36.5225 24.2344 26.9158 32.3917 24.6573 43.2288C22.2641 43.6164 20.4438 45.7063 20.4438 48.2007C20.4438 50.7119 22.2809 52.8018 24.691 53.1894C27.0169 63.9591 36.5899 72.0321 48.0506 72.0321C53.6629 72.0321 58.8203 70.0939 62.8989 66.858C63.7079 67.4142 64.7023 67.7512 65.7641 67.7512C68.545 67.7512 70.8034 65.4928 70.8034 62.7119C70.8034 61.2962 70.2304 60.0153 69.2865 59.1052ZM32.9326 63.2512C30.0506 60.3692 28.0955 56.813 27.2191 52.9535C29.1405 52.2456 30.5225 50.3917 30.5225 48.2175C30.5225 46.0265 29.1236 44.1726 27.1854 43.4647C28.0618 39.5377 30.0169 35.931 32.9326 33.0153C36.9776 28.9703 42.3371 26.7625 48.0506 26.7625C53.7641 26.7625 59.1236 28.9872 63.1686 33.0153C67.2135 37.0602 69.4214 42.4198 69.4214 48.1333C69.4214 51.5715 68.6124 54.8748 67.0955 57.8411C66.6742 57.7231 66.2191 57.6557 65.7472 57.6557C62.9663 57.6557 60.7079 59.9142 60.7079 62.6951C60.7079 63.504 60.8933 64.2625 61.2304 64.9366C57.4888 67.8861 52.8877 69.4872 48.0337 69.4872C42.3371 69.504 36.9776 67.2793 32.9326 63.2512Z" fill="#0078D4"/>
</svg>
