<svg width="97" height="97" viewBox="0 0 97 97" fill="none" xmlns="http://www.w3.org/2000/svg">
<path d="M85.911 12.987C85.911 19.8798 80.3168 25.474 73.424 25.474C66.5312 25.474 60.937 19.8798 60.937 12.987C60.937 6.09417 66.5312 0.5 73.424 0.5C80.3168 0.5 85.911 6.09417 85.911 12.987Z" fill="#50E6FF"/>
<path d="M73.3239 30.168C85.9108 30.168 96.2001 40.3574 96.2001 53.0441V55.9411H50.4478V53.0441C50.4478 40.3574 60.737 30.168 73.3239 30.168Z" fill="#50E6FF"/>
<path d="M35.6637 53.5456C35.6637 60.4384 30.0696 66.0326 23.1767 66.0326C16.2839 66.0326 10.5898 60.4384 10.5898 53.5456C10.5898 46.6528 16.184 41.0586 23.1767 41.0586C30.1695 41.0586 35.6637 46.6528 35.6637 53.5456Z" fill="#0078D4"/>
<path d="M23.0769 70.7266C35.6638 70.7266 45.953 80.9159 45.953 93.6027V96.3998H0.200684V93.5028C0.200684 80.9159 10.3901 70.7266 23.0769 70.7266Z" fill="#0078D4"/>
</svg>
