<svg xmlns="http://www.w3.org/2000/svg" xmlns:xlink="http://www.w3.org/1999/xlink" viewBox="0 0 636 300"><defs><style>.a{fill:none;}.b{clip-path:url(#a);}.c{fill:#b3d6f2;}.d{fill:#69afe5;}.e{fill:#99bcd7;}.f{clip-path:url(#b);}.g{fill:#00a09e;}.h{fill:#00002b;}.i{fill:#72594b;}.j{fill:#bb9167;}.k{fill:#414042;}.l{fill:#f9d4bb;}.m{fill:#8e562e;}.n{fill:#ab8460;}.o{fill:#fff;}.p{fill:#9d9fa2;}.q{fill:#000d42;}.r{fill:#eaebeb;}.s{fill:#c48074;}.t{fill:#704322;}.u{fill:#f6cba7;}.v{fill:#8b0304;}.w{fill:#ddb594;}.x{fill:#e6a1c0;}.y{fill:#f7e0cc;}.z{fill:#d1d3d4;}.aa{fill:#2a3282;}.ab{fill:#3777bc;}.ac{fill:#f6d8c5;}.ad{fill:#ffc20e;}.ae{fill:#e3c6b5;}.af{fill:#fee7d9;}.ag{fill:#cd007a;}.ah{fill:#b6b8ba;}.ai{fill:#004c7a;}.aj{clip-path:url(#c);}.ak{fill:#ffc316;}.al{fill:#675042;}.am{fill:#dc9d96;}.an{fill:#8f7a70;}.ao{fill:#4f3f34;}.ap{fill:#f26522;}.aq{fill:#17244e;}.ar{fill:#a71e22;}.as{fill:#aa4611;}.at{fill:#c09f81;}.au{fill:#cc8d85;}.av{fill:#ce9c5e;}.aw{fill:#5c2d91;}.ax{fill:#ba8d57;}.ay{fill:#3a2821;}.az{fill:#d9b07f;}</style><clipPath id="a"><rect class="a" x="72.636" y="13.52" width="490.728" height="272.959" transform="translate(636 300) rotate(-180)"/></clipPath><clipPath id="b"><rect class="a" x="321" y="120.426" width="132.578" height="134.175"/></clipPath><clipPath id="c"><rect class="a" x="199.302" y="96.859" width="132.578" height="134.175"/></clipPath></defs><title>swimlane-enterprise-customer-stories</title><g class="b"><rect class="c" x="91.191" y="89.827" width="100.182" height="205.001"/><rect class="c" x="322.036" y="53.999" width="100.182" height="232.481"/><polygon class="c" points="222.156 19.329 206.085 35.399 206.085 289.262 306.267 289.262 306.267 19.329 222.156 19.329"/><rect class="c" x="373.982" y="31.243" width="100.182" height="256.164"/><polygon class="d" points="550.227 292.045 550.227 90.754 531.675 90.754 531.675 72.202 513.123 72.202 513.123 53.65 412.942 53.65 412.942 292.045 550.227 292.045"/><polygon class="d" points="157.777 127.854 157.777 149.187 126.239 149.187 126.239 293.9 245.696 293.9 245.696 127.854 157.777 127.854"/><rect class="e" x="147.646" y="161.253" width="11.131" height="11.131"/><rect class="e" x="175.474" y="161.253" width="11.131" height="11.131"/><rect class="e" x="203.302" y="161.253" width="11.131" height="11.131"/><rect class="e" x="147.646" y="189.081" width="11.131" height="11.131"/><rect class="e" x="175.474" y="189.081" width="11.131" height="11.131"/><rect class="e" x="203.302" y="189.081" width="11.131" height="11.131"/><rect class="e" x="147.646" y="216.909" width="11.131" height="11.131"/><rect class="e" x="175.474" y="216.909" width="11.131" height="11.131"/><rect class="e" x="203.302" y="216.909" width="11.131" height="11.131"/><rect class="e" x="147.646" y="244.737" width="11.131" height="11.131"/><rect class="e" x="175.474" y="244.737" width="11.131" height="11.131"/><rect class="e" x="203.302" y="244.737" width="11.131" height="11.131"/><rect class="e" x="516.834" y="111.162" width="12.059" height="177.173"/><rect class="e" x="489.005" y="111.162" width="12.059" height="177.173"/><rect class="e" x="459.322" y="111.162" width="12.059" height="177.173"/><rect class="e" x="431.494" y="111.162" width="12.059" height="177.173"/><polygon class="d" points="356.443 76.406 259.886 76.406 259.886 288.335 399.186 288.335 399.186 114.148 356.443 76.406"/><rect class="e" x="280.294" y="103.741" width="11.131" height="11.131"/><rect class="e" x="308.122" y="103.741" width="11.131" height="11.131"/><rect class="e" x="335.95" y="103.741" width="11.131" height="11.131"/><rect class="e" x="280.294" y="131.569" width="11.131" height="11.131"/><rect class="e" x="308.122" y="131.569" width="11.131" height="11.131"/><rect class="e" x="335.95" y="131.569" width="11.131" height="11.131"/><rect class="e" x="280.294" y="159.397" width="11.131" height="11.131"/><rect class="e" x="308.122" y="159.397" width="11.131" height="11.131"/><rect class="e" x="335.95" y="159.397" width="11.131" height="11.131"/><rect class="e" x="280.294" y="187.226" width="11.131" height="11.131"/><rect class="e" x="308.122" y="187.226" width="11.131" height="11.131"/><rect class="e" x="335.95" y="187.226" width="11.131" height="11.131"/></g><g class="f"><path class="g" d="M453.76,187.8a55.251,55.251,0,0,1-.924,11.134v.939c-.189.564-.189,1.143-.371,1.707h0a.689.689,0,0,1-.189.564v.188a8.129,8.129,0,0,1-.189.94.7.7,0,0,1-.182.563c0,.376-.2.768-.2,1.144l-.189.188v.188a15.452,15.452,0,0,1-.371,1.5.662.662,0,0,1-.182.376,2.881,2.881,0,0,1-.371,1.143v.376c-.189.564-.371.939-.56,1.5-.182.375-.371.939-.553,1.315a2.73,2.73,0,0,1-.371,1.143c-.189.376-.189.564-.371.94,0,.188,0,.188-.189.188,0,.375-.189.564-.189.939-.182,0-.182.188-.182.376-.2,0-.2.188-.2.391-.189.375-.371.752-.56,1.128s-.371.752-.553,1.127c-.189.188-.189.564-.371.752-.371.768-.931,1.707-1.3,2.458-.189.188-.371.564-.56.752,0,.188,0,.188-.2.375a1.409,1.409,0,0,1-.371.752l-.182.2a6.736,6.736,0,0,1-.931,1.5.183.183,0,0,1-.182.188,4.154,4.154,0,0,1-.931,1.5.18.18,0,0,1-.182.188,9.46,9.46,0,0,1-1.132,1.519v.188c-.371.376-.742.94-1.3,1.5a2.945,2.945,0,0,1-.553.768c-.371.376-.56.752-.931,1.128s-.761.939-1.314,1.5c-.742.752-1.484,1.519-2.226,2.271a40.8,40.8,0,0,1-5.05,4.713c-.742.564-1.484,1.128-2.226,1.707-.189,0-.371.188-.56.376-.755.564-1.5,1.128-2.239,1.691-.189,0-.189,0-.371.188h0c-.189,0-.189,0-.371.188-1.5.955-2.987,1.895-4.477,2.646a18.581,18.581,0,0,1-1.868.94,5.571,5.571,0,0,1-1.49.752.638.638,0,0,1-.384.188c-.371.2-.742.392-1.113.579-.189,0-.189,0-.371.188-.742.188-1.49.564-2.044.752a8.518,8.518,0,0,0-1.314.564h-.189l-.553.188a.184.184,0,0,0-.189.188,3.42,3.42,0,0,0-1.3.376c-.2,0-.2,0-.384.188-.371,0-.56.188-.931.188h-.182c-.189.188-.371.188-.742.376a3.453,3.453,0,0,0-1.3.391h-.189c-.572.188-.943.188-1.5.376a1.382,1.382,0,0,0-.742.188,1.1,1.1,0,0,0-.742.188c-.377,0-.748.188-1.32.188-.371,0-.742.188-1.113.188-.742.188-1.3.188-2.056.376a75.051,75.051,0,0,1-9.313.564c-36.736,0-66.383-30-66.383-66.992,0-37.179,29.647-67.18,66.383-67.18C424.117,120.617,453.76,150.617,453.76,187.8Z"/><polygon class="h" points="404.541 202.14 411.238 199.682 412.559 202.892 404.541 202.14"/><polygon class="i" points="415.728 198.178 415.357 198.178 413.854 198.742 415.357 200.434 416.288 199.118 415.728 198.178"/><path class="i" d="M435.675,198.742,434,198.178a8.712,8.712,0,0,1,0,2.255Z"/><path class="h" d="M452.836,198.93v.939c-.189.564-.189,1.143-.371,1.707h0a.689.689,0,0,1-.189.564v.188a8.129,8.129,0,0,1-.189.94.7.7,0,0,1-.182.563c0,.376-.2.768-.2,1.144l-.189.188v.188a15.452,15.452,0,0,1-.371,1.5.662.662,0,0,1-.182.376,2.881,2.881,0,0,1-.371,1.143v.376c-.189.564-.371.939-.56,1.5-.182.375-.371.939-.553,1.315a2.73,2.73,0,0,1-.371,1.143c-.189.376-.189.564-.371.94,0,.188,0,.188-.189.188,0,.375-.189.564-.189.939-.182,0-.182.188-.182.376l-.2-.188-2.044-.563-5.414-2.255L434,209.688h0l-8.219-3.21-1.855-.752h-.182l.371-.94.553-1.518v-.376l.189-.376.371-.939h0l.182-.375.56-1.519.572-1.315.371-1.128.742-2.271,1.673-4.149.182-.751h.39l.182.185h0l1.3.375.56.378,2.987,1.127h0l1.113.376.371.188Z"/><path class="j" d="M452.465,201.577h0a.689.689,0,0,1-.189.564v.188a8.129,8.129,0,0,1-.189.94.7.7,0,0,1-.182.563c0,.376-.2.768-.2,1.144l-.189.188v.188a15.452,15.452,0,0,1-.371,1.5.662.662,0,0,1-.182.376,2.881,2.881,0,0,1-.371,1.143v.376c-.189.564-.371.939-.56,1.5-.182.375-.371.939-.553,1.315a2.73,2.73,0,0,1-.371,1.143c-.189.376-.189.564-.371.94,0,.188,0,.188-.189.188,0,.375-.189.564-.189.939-.182,0-.182.188-.182.376-.2,0-.2.188-.2.391v-.58a1.125,1.125,0,0,1-.189-.752c-.371-1.691-.553-3.4-.924-4.9a8.506,8.506,0,0,1,.742-4.338A6.426,6.426,0,0,1,452.465,201.577Z"/><path class="h" d="M450.591,208.749c-.189.564-.371.939-.56,1.5-.182.375-.371.939-.553,1.315a2.73,2.73,0,0,1-.371,1.143c-.189.376-.189.564-.371.94,0,.188,0,.188-.189.188,0,.375-.189.564-.189.939-.182,0-.182.188-.182.376-.2,0-.2.188-.2.391-.189.375-.371.752-.56,1.128s-.371.752-.553,1.127c-.189.188-.189.564-.371.752-.189-1.5-.371-3.006-.56-4.149a41.4,41.4,0,0,0-.553-4.526h0v-.188h0l1.484-.375Z"/><path class="h" d="M452.836,199.87c-.189.564-.189,1.143-.371,1.707a24.093,24.093,0,0,1-.95,3.586,20.283,20.283,0,0,1-.924,3.586c-.742,2.067-1.484,3.962-2.232,6.029-.182-.188-.384-.375-.572-.564a7.785,7.785,0,0,1-2.408-4.338h0v-.188h0a7.794,7.794,0,0,1,.182-3.586c.189-.564.189-.939.371-1.315A8.23,8.23,0,0,1,452.836,199.87Z"/><path class="h" d="M423.374,244.218a74.369,74.369,0,0,1-9.332,5.105c-.189,0-.189,0-.371.188-.742.188-1.49.564-2.044.752a63.2,63.2,0,0,1-14.746,3.962v-9.63l-.189-11.51-.182-1.128-.189-7.36-.182-.564v-1.143l-.189-2.819v-.955l-.182-3.195v-2.834l-.189-1.331v-1.128l-.182-2.443v-2.458h0v-.564h1.3l4.861-.376,5.031-.391,4.842-.375h0l2.987-.188,1.5-.188,3.911-.188,1.113-.188h1.874l.56-.188h.371V244.03C423.557,244.03,423.557,244.03,423.374,244.218Z"/><polygon class="h" points="396.693 215.733 390.738 200.057 417.772 189.693 423.557 205.35 396.693 215.733"/><path class="h" d="M451.515,205.163v.188a15.452,15.452,0,0,1-.371,1.5.662.662,0,0,1-.182.376,2.881,2.881,0,0,1-.371,1.143v.376c-.189.564-.371.939-.56,1.5-.182.375-.371.939-.553,1.315a2.73,2.73,0,0,1-.371,1.143c-.189.376-.189.564-.371.94,0,.188,0,.188-.189.188,0,.375-.189.564-.189.939-.182,0-.182.188-.182.376-.2,0-.2.188-.2.391-.189.375-.371.752-.56,1.128s-.371.752-.553,1.127c-.189.188-.189.564-.371.752-.371.768-.931,1.707-1.3,2.458-.189.188-.371.564-.56.752,0,.188,0,.188-.2.375a1.409,1.409,0,0,1-.371.752l-.182.2a6.736,6.736,0,0,1-.931,1.5.183.183,0,0,1-.182.188,4.154,4.154,0,0,1-.931,1.5.18.18,0,0,1-.182.188,9.46,9.46,0,0,1-1.132,1.519v.188c-.371.376-.742.94-1.3,1.5a2.945,2.945,0,0,1-.553.768c-.371.376-.56.752-.931,1.128s-.761.939-1.314,1.5c-.742.752-1.484,1.519-2.226,2.271a40.8,40.8,0,0,1-5.05,4.713c-.742.564-1.484,1.128-2.226,1.707-.189,0-.371.188-.56.376-.755.564-1.5,1.128-2.239,1.691-.189,0-.189,0-.371.188-.189,0-.189,0-.371.188V203.08h.371l.924.188h1.685l2.415.188,2.987.188,2.987.376h.189l5.024.375,5.974.391,1.673.188Z"/><path class="k" d="M396.511,251.766l-16.588-.376c.185-14.345,2.8-28.5,4.659-38.867.371-2.271.742-4.15.924-6.045l16.419,2.835c-.371,1.691-.742,3.962-1.113,6.029C399.127,225.348,396.693,238.753,396.511,251.766Z"/><path class="h" d="M396.322,252.533l-16.4-1.895c.557-5.669,4.841-38.883,5.583-44.16l16.419,2.835C401.183,213.838,397.083,246.113,396.322,252.533Z"/><path class="h" d="M401.743,205.727a8.312,8.312,0,1,1-16.048,4.338,8.64,8.64,0,0,1,5.974-10.382A8.319,8.319,0,0,1,401.743,205.727Z"/><path class="l" d="M411.81,197.99s8.948,8.3,22,.188l-20.142-2.646Z"/><path class="m" d="M418.143,193.261l-7.087,2.835a5.1,5.1,0,0,0,.943,3.4,1.158,1.158,0,0,1,.182.752l10.445,9.442,13.048-13.4Z"/><polygon class="n" points="397.083 252.33 382.151 250.639 383.466 254.413 397.083 253.661 397.083 252.33"/><path class="o" d="M436.045,192.886s-3.918,37.567-7.276,45.3H417.583c-3.358-7.736-7.458-45.3-7.458-45.3l6.716,8.691h12.118Z"/><path d="M423.186,204.207h0a.9.9,0,0,1,.931.955h0a.883.883,0,0,1-.931.939h0a1.059,1.059,0,0,1-1.132-.939h0A1.071,1.071,0,0,1,423.186,204.207Z"/><path d="M423.186,210.252h0a.883.883,0,0,1,.931.939h0a.9.9,0,0,1-.931.955h0a1.071,1.071,0,0,1-1.132-.955h0A1.059,1.059,0,0,1,423.186,210.252Z"/><path d="M423.186,216.109h0a1.048,1.048,0,0,1,.931,1.127h0a.883.883,0,0,1-.931.94h0a1.059,1.059,0,0,1-1.132-.94h0A1.22,1.22,0,0,1,423.186,216.109Z"/><path d="M423.186,222.138h0a.887.887,0,0,1,.931.955h0a1.049,1.049,0,0,1-.931,1.128h0a1.22,1.22,0,0,1-1.132-1.128h0A1.06,1.06,0,0,1,423.186,222.138Z"/><path d="M423.186,228.182h0a.883.883,0,0,1,.931.94h0a.883.883,0,0,1-.931.939h0a1.059,1.059,0,0,1-1.132-.939h0A1.059,1.059,0,0,1,423.186,228.182Z"/><path d="M423.186,234.227h0a.883.883,0,0,1,.931.94h0a.883.883,0,0,1-.931.939h0a1.059,1.059,0,0,1-1.132-.939h0A1.059,1.059,0,0,1,423.186,234.227Z"/><polygon class="p" points="412.181 209.501 423.557 201.389 422.997 201.013 417.03 200.825 411.999 206.666 412.181 209.501"/><polygon class="p" points="434.191 209.688 422.815 201.577 423.557 201.201 429.33 201.013 434.373 206.854 434.191 209.688"/><path class="q" d="M440.9,218.364l-6.71,16.991a40.8,40.8,0,0,1-5.05,4.713l-.371-.375a117.706,117.706,0,0,0,2.616-12.638c0-.188,0-.188.189-.188.742-4.541,1.666-10.006,2.427-17.179h.189a8.121,8.121,0,0,1,.182-2.083v-.375h0a20.741,20.741,0,0,0,.371-3.21c.189-1.315.371-2.819.56-4.15v-.939a.183.183,0,0,1,.182-.188c.189-1.895.371-3.774.56-5.856v-.376h0l.371.188,2.8.955.742,10.743.56,7.752Z"/><path class="q" d="M407.509,193.653l-2.226,24.9,6.9,17.367v5.089h3.735l1.666-1.315s-3.911-12.449-7.458-47.183Z"/><polygon class="m" points="431.386 190.628 434.932 191.946 432.87 195.532 429.33 197.239 431.386 191.57 431.386 190.628"/><polygon class="m" points="411.628 191.946 414.785 196.66 415.917 192.133 414.596 190.628 411.628 191.946"/><path class="r" d="M411.628,191.946s7.068,8.488,11.929,8.879v.752s-7.64,3.21-11.376,7.172a154.225,154.225,0,0,1-1.868-16.239Z"/><path class="r" d="M434.932,191.946s-7.276,8.488-12.118,8.879v.752a1.987,1.987,0,0,0,.742.376c1.855.939,7.458,3.586,10.634,6.8a157.478,157.478,0,0,0,1.855-16.239Z"/><path d="M446.491,163.632a22.842,22.842,0,1,1-22.934-23.2A23.029,23.029,0,0,1,446.491,163.632Z"/><path class="m" d="M423.928,198.742c-5.785,0-10.445-3.774-10.445-10v-7.923h18.645v7.923C432.128,194.968,429.512,198.742,423.928,198.742Z"/><path class="m" d="M435.675,163.072v21.517a3.329,3.329,0,0,1-.931.751,19.124,19.124,0,0,1-6.345,2.832,25.078,25.078,0,0,1-5.4.566,23.5,23.5,0,0,1-5.226-.566,21.679,21.679,0,0,1-7.276-3.583h0V163.072c0-6.593,5.232-6.988,11.558-6.988h2.063C430.455,156.084,435.675,156.478,435.675,163.072Z"/><path class="s" d="M423,184.4a8.146,8.146,0,0,1-2.056-.191l-.742-.185c-.371,0-.553-.375-.371-.751,0-.375.371-.566.742-.566l.56.191a6.3,6.3,0,0,0,3.729,0l.742-.191c.371,0,.755.191.755.566a.56.56,0,0,1-.384.751l-.742.185A8.807,8.807,0,0,1,423,184.4Z"/><path class="t" d="M425.412,175.908c0,.375-1.113.751-2.415.751s-2.427-.375-2.427-.751,1.113-.751,2.427-.751S425.412,175.533,425.412,175.908Z"/><path class="m" d="M435.3,166.846a1.608,1.608,0,0,1,1.868-.942s1.673.191.931,3.4l-.371,1.5-.56,1.33-.572,1.693-.371.942a5.857,5.857,0,0,0-.553,1.706,1.375,1.375,0,0,1-1.113,1.5H433.43a86.267,86.267,0,0,0,.384-10.367Z"/><path class="m" d="M411.056,166.846a1.811,1.811,0,0,0-1.855-.942s-1.874.191-1.119,3.4l.371,1.5.56,1.33.56,1.693.553.942a7.986,7.986,0,0,1,.371,1.706,1.642,1.642,0,0,0,1.132,1.5h1.113s-.182-2.628-.182-10.367Z"/><path d="M416.841,171.2a.934.934,0,0,1,0-1.33.883.883,0,0,1,1.3,0,1.685,1.685,0,0,1,0,1.33A.893.893,0,0,1,416.841,171.2Z"/><path d="M427.1,171c-.377-.191-.377-.751,0-1.126s.924-.382,1.113,0c.371.375.371.936,0,1.126C428.028,171.383,427.475,171.383,427.1,171Z"/><path class="t" d="M416.288,188.738a34.348,34.348,0,0,1-2.8-2.444v1.5c0,.942,1.113,1.9,2.8,2.647v-1.706Z"/><path class="t" d="M429.9,188.738a4.321,4.321,0,0,1,.182,1.515c1.3-.764,2.044-1.515,2.044-2.081v-1.5A22.771,22.771,0,0,1,429.9,188.738Z"/><path d="M423,181.566c4.106,0,4.106,2.457,4.106,4.729v.56a2.655,2.655,0,0,1-1.692-.185,5.271,5.271,0,0,0-2.226-.77,9.8,9.8,0,0,0-2.245.579,2.68,2.68,0,0,1-2.044.375v-.56C418.9,184.022,419.086,181.566,423,181.566Zm6.7,4.334a10.536,10.536,0,0,0-2.226-5.085,5.375,5.375,0,0,0-8.779,0,11,11,0,0,0-2.226,4.709,5.5,5.5,0,0,0-.182,1.706v3.023h0v.375a7.657,7.657,0,0,0,2.037.378,20.324,20.324,0,0,0,4.861.564,34.388,34.388,0,0,0,6.144-.751.682.682,0,0,1,.572-.191v-3.4A3.11,3.11,0,0,0,429.7,185.9Z"/><path d="M413.854,168.176s5.792-.955,6.9,0Z"/><path d="M431.575,168.176s-5.792-.955-6.9,0Z"/><polygon points="377.122 209.124 354.933 200.621 359.776 187.796 381.965 196.284 377.122 209.124"/><path class="u" d="M374.321,204.207c1.873,11.525,4.1,22.847,4.487,34.545.185,6.985,11,6.985,10.8,0-.371-12.653-2.779-25.1-4.842-37.552C383.652,194.4,373.207,197.239,374.321,204.207Z"/><path d="M375.451,221.574c-.758-6.029-2.43-16.411-2.615-17.743l13.431-2.255c.182,1.315,2.044,12.074,2.786,18.306Z"/><polygon points="332.744 208.937 327.901 195.908 350.09 187.421 354.933 200.434 332.744 208.937"/><path class="v" d="M364.635,148.536l-.186,2.457a22.434,22.434,0,0,0-8.587-1.311c-7.272,0-15.288.751-17.531,9.05-.186,9.444-1.114,31.522.387,32.839-.944,0,22.932,11.134,31.69-1.5,2.615-3.774,0-8.693.928-13.785C374.135,163.632,372.093,149.682,364.635,148.536Z"/><path class="u" d="M362.206,177.035l.557,11.328,7.087,3.4c-1.857,1.128-10.816,4.338-15.473,4.338-4.472,0-13.617-3.022-15.659-4.15l7.071-3.4.758-11.513Z"/><path class="u" d="M365.749,174.2c2.8,0,4.843-2.253,4.472-6.027-.372-3.589-2.8-7.172-5.4-7.172Z"/><path class="u" d="M343.189,174.2c-2.986,0-5.044-2.253-4.657-6.027.371-3.589,2.785-7.172,5.586-7.172Z"/><path class="u" d="M354.376,185.9c2.8,0,3.543-.751,3.729-1.311,8.015-3.023,9.315-12.83,10.259-19.627l-1.5-8.687c-.928-4.525-8.015-8.49-12.487-8.49-4.286,0-11.373,3.965-12.317,8.49l-1.485,8.687c.928,6.8,2.244,16.6,10.259,19.627C351.018,185.149,351.761,185.9,354.376,185.9Z"/><path d="M360.72,166.655a1.2,1.2,0,0,1-1.129-1.126,1.049,1.049,0,0,1,1.129-.942,1,1,0,0,1,.929.942A1.046,1.046,0,0,1,360.72,166.655Z"/><path d="M348.217,166.655a.936.936,0,0,0,.929-1.126.883.883,0,0,0-.929-.942,1.037,1.037,0,1,0,0,2.068Z"/><path class="v" d="M372.465,163.835c-.186-6.606-2.058-12.085-5.416-14.345a3.61,3.61,0,0,0-2.6-1.139s-1.315-3.774-10.073-3.774c-7.83,0-16.232,3.583-16.232,17.177-.185,3.023,4.858,7.732,4.673-.375.928-8.878,1.485-12.467,11.559-11.322,1.114.185,2.228-.375,3.543-.375h.557c9.7,1.126,5.973,16.222,11.745,19.054.185,0,1.315.375,1.872-2.081C372.278,165.713,372.465,163.835,372.465,163.835Z"/><path class="w" d="M362.391,181.75h0a16.417,16.417,0,0,1-2.8,2.081l-.186.191c-.185,0-.372.185-.557.185h0c-.185.191-.557.191-.743.382a.645.645,0,0,0-.185.375c-.186.185-.372.185-.557.375h-.186a.181.181,0,0,1-.186.185H356.6a.642.642,0,0,1-.371.191h-1.114c-.185.185-.372.185-.743.185a.685.685,0,0,1-.557-.185H352.5l-.185-.191h-.371c-.186,0-.186-.185-.372-.185h-.185c-.186-.191-.186-.191-.372-.375a.591.591,0,0,1-.185-.375c-.186-.191-.372-.191-.557-.382H349.9l-.186-.185h0c-.186,0-.186,0-.387-.191a13.734,13.734,0,0,1-2.785-1.89v-.191a.181.181,0,0,1-.185-.185l-.186.955a15.476,15.476,0,0,0,4.658,3c.185.375.928,1.33,3.543,1.33,2.8,0,3.543-.955,3.729-1.33a14.949,14.949,0,0,0,4.286-2.819Z"/><path class="x" d="M354.376,179.873a19.1,19.1,0,0,1-4.286-.566.672.672,0,0,1,.186-1.33,15.512,15.512,0,0,0,8.387,0,.6.6,0,0,1,.557.566c.185.2,0,.579-.372.764A19.43,19.43,0,0,1,354.376,179.873Z"/><path class="y" d="M354.376,165.337v7.923H351.39a1.453,1.453,0,0,1,.371-.751,3.68,3.68,0,0,0,1.114-2.266l.185-3.589C353.061,165.713,354.191,165.337,354.376,165.337Z"/><path class="w" d="M357.548,173.452a1.056,1.056,0,0,1-1.129.942c-.186,0-.372.185-.743.579a2.13,2.13,0,0,1-1.3.56,4.179,4.179,0,0,1-1.316-.56c-.185-.395-.371-.579-.557-.579a1.05,1.05,0,0,1-1.114-.942v-.191h6.158Z"/><path class="o" d="M341.316,174.973v-2.087c0-.185-.557-.185-.557,0v2.087A.279.279,0,1,0,341.316,174.973Z"/><path d="M340.017,175.724a.881.881,0,0,0,.929.936,1.043,1.043,0,0,0,1.114-.936,1.221,1.221,0,0,0-1.114-1.146A1.065,1.065,0,0,0,340.017,175.724Z"/><path class="o" d="M367.992,174.973V172.7c0-.191-.387-.191-.387,0v2.272C367.606,175.157,367.992,175.157,367.992,174.973Z"/><path d="M366.863,175.533a.936.936,0,1,0,1.872,0,.936.936,0,1,0-1.872,0Z"/><path class="v" d="M342.446,161.563s13.973-6.981,15.474-11.882l-5.23-1.9-8.572,2.832-1.671,7.739Z"/><path class="v" d="M367.235,160.252S355.3,154.206,354,149.866l4.658-1.515,7.272,2.266,1.3,6.988Z"/><path d="M372.836,201.013a7.153,7.153,0,0,0,5.029,8.488,6.822,6.822,0,0,0,8.214-4.9,6.743,6.743,0,0,0-4.856-8.5A6.94,6.94,0,0,0,372.836,201.013Z"/><path d="M354.933,246.3a.183.183,0,0,0-.186-.188c-1.872-1.143-3.729-2.271-5.6-3.586h0a5.646,5.646,0,0,0-1.3-.94c-.186-.2-.372-.391-.372-.391a2.576,2.576,0,0,1-.743-.564c-.944-.752-1.687-1.5-2.615-2.255a63.356,63.356,0,0,1-11.373-13.029l-.185-3.21v-.752L332,209.124l-.186-2.458-.185-3.962v-2.458l3.156-.188.944-.188h1.114l6.9-.564,2.244-.188,6.143-.376,2.058-.188h.743V246.3Z"/><path d="M361.091,249.323c.185.188.557.188.928.376.186,0,.372.188.743.376a64.985,64.985,0,0,0,13.8,3.774l.372-21.329h0V224.6l.185-.375v-2.835h0v-2.067l.186-2.458.186-1.9V212.9l.186-1.707v-.752h0v-.564h0v-.563h0v-1.9h0l.185-.188h0v-1.692h0l.185-2.458v-2.834l-2.971-.188-1.129-.188h-1.485l-6.159-.564-2.986-.188-6.9-.376-.743-.188h-.929v47.558a.183.183,0,0,1,.186.188c1.3.563,2.615,1.315,3.914,1.879.186.188.372.188.557.376.557.188.928.391,1.5.579Z"/><path class="u" d="M335.545,203.268v.563a11.409,11.409,0,0,0-.372,2.459c-.185.375-.185.752-.387,1.127v.768c0,.188-.185.564-.185.752-.743,4.15-1.3,8.3-1.857,12.45a.7.7,0,0,0-.185.564c-.186.939-.186,1.895-.372,2.835-.743-1.315-1.5-2.459-2.244-3.775a70.374,70.374,0,0,1-5.957-13.968c0-.564.186-.94.186-1.315.186-1.519.557-2.835.743-4.15v-.564a4.688,4.688,0,0,1,3.358-3.978,6.378,6.378,0,0,1,6.514,3.022c.2.188.2.376.387.564,0,.2,0,.2.186.391a8.246,8.246,0,0,0,.186.94Z"/><path d="M337.03,203.644v.188c-.185.564-.185,1.144-.371,1.707a6.757,6.757,0,0,1-.372,1.879c-.185,1.519-.372,3.022-.557,4.729-.557,3.4-3.258,13.054-1.811,14.943a51.488,51.488,0,0,1-3.976-6.08,70.374,70.374,0,0,1-5.957-13.968c-.387-1.128-.572-2.255-.944-3.4a8.362,8.362,0,0,0,.371-1.879h0v-.375l1.5.188,5.4.939h0l1.316.188,3.915.564Z"/><path d="M336.845,200.621a6.862,6.862,0,1,1-13.245,3.586,7.019,7.019,0,0,1,4.859-8.488A6.909,6.909,0,0,1,336.845,200.621Z"/><path class="z" d="M366.492,192.886v.767l-.186,5.653-.371,5.669-.186,6.4-.371,8.5h0v.375l-.185,4.15v2.835l-.186,2.067v1.331l-4.286,13.953-1.315,3.962c-.185-.188-.372-.188-.557-.376-1.3-.563-2.615-1.315-3.914-1.879a.183.183,0,0,0-.186-.188c-1.872-1.143-3.729-2.271-5.6-3.586h0a5.646,5.646,0,0,0-1.3-.94l-.186-1.895-.372-2.083-4.657-30.568.371-2.067.743-5.669.372-2.271.371-2.819v-.188l.186-.955a6.147,6.147,0,0,0,1.315.391c.372.188.743.188,1.114.376h.186c1.114.188,2.244.375,3.729.563.185,0,.185,0,.372.188h1.3a17.877,17.877,0,0,0,4.487,0h0a22.936,22.936,0,0,0,6.143-.752A19.969,19.969,0,0,0,366.492,192.886Z"/><path d="M361.091,249.323c.371-.767.928-1.519,1.3-2.271l.928-1.879a.638.638,0,0,0,.186-.391l1.129-3.4,4.286-13.577,2.615-8.112,2.414-7.736.186-.2h0l.185-.752h0v-.188l.557-1.5.2-.564v-.376h0l.185-.188v-.391a1.619,1.619,0,0,0-.572-1.128l-.186-.188-.929-.376-.371-.188-2.615-1.128,2.058-1.518.928-.752.743-.563h.186l-.186-.188h0l-.371-1.895-.186-.752-1.485-4.714-.371-1.518v-.564h-.186l-2.429-1.128-.371-.188h0l-3.358-1.314-2.8-1.33c.186,0,.186.185.186.56a29.233,29.233,0,0,1,.371,4.918v5.277a18.716,18.716,0,0,1,0,3.586v1.127L362.948,211a3.777,3.777,0,0,0-.186,1.519h0c-.185,1.128-.185,2.443-.371,3.774h0c0,1.315-.185,2.631-.185,4.15-.186,1.127-.186,2.255-.372,3.4-.185,2.255-.372,4.714-.557,6.8v.188c-.371,4.338-.557,8.3-.743,10.179v.955a33.433,33.433,0,0,1-1.687,6.216c.186.188.372.188.557.376.557.188.928.391,1.5.579Z"/><polygon class="u" points="351.39 194.593 354.376 211.959 357.177 194.593 356.805 193.073 351.39 194.593"/><path d="M349.146,241.775s-.372-3.586-.743-8.5a5.245,5.245,0,0,0-.186-1.691c-.557-8.112-1.485-18.87-1.671-23.02l.186,2.067-.557-6.984v-1.128l-.186-2.646V189.114l-.2-.566-6.886,3.211h0l-.572.188-2.228,6.8-.372,1.128-.185.564h0l-.186.579-.186.752.372.188,1.485,1.127L338.9,204.6l-2.243.939-.372.188-1.114.564h0a1.3,1.3,0,0,0-.758,1.691v.2l.186.752,1.129,3.21,8.387,26.23c.928.752,1.671,1.5,2.615,2.255a2.576,2.576,0,0,0,.743.564s.186.188.372.391a5.646,5.646,0,0,1,1.3.94Z"/><path d="M366.12,168.551a1.742,1.742,0,0,1-.743,1.126,4.04,4.04,0,0,1-.929.566,8.72,8.72,0,0,1-3.172.375,5.609,5.609,0,0,1-2.986-.566,6.069,6.069,0,0,1-1.485-2.647c-.2-.751-.572-1.693,0-2.444a4.164,4.164,0,0,1,2.6-1.126c.928-.2,2.058-.2,2.986-.388a12.55,12.55,0,0,1,2.615.185h.557C367.606,164.211,366.677,167.221,366.12,168.551Zm-13.8-1.146a6.064,6.064,0,0,1-1.485,2.647,5.635,5.635,0,0,1-2.986.566,8.68,8.68,0,0,1-3.172-.375,1.7,1.7,0,0,1-1.114-.757c-.185-.375-.372-.56-.557-.936-.371-.942-.944-2.647-.557-3.774h0v-.191a1.986,1.986,0,0,1,1.114-.955h.372a14.211,14.211,0,0,1,2.8-.185c.929.185,2.042.185,2.986.388a4.165,4.165,0,0,1,2.6,1.126C352.875,165.713,352.5,166.655,352.318,167.406Zm15.86-3.958c0-.191,0-.191-.186-.375h-1.129v-.191h-3.729a26.987,26.987,0,0,0-3.915.191,28.57,28.57,0,0,1-3.915.56h-1.485a28.207,28.207,0,0,1-3.915-.56,27,27,0,0,0-3.915-.191H342.26a1.427,1.427,0,0,1-.944.191c-.186,0-.371,0-.371.375a3.931,3.931,0,0,0,0,2.081c0,.185.185.185.185.375h.186a1.405,1.405,0,0,0,.372.751c.186.566.186,1.146.371,1.706a5,5,0,0,0,1.316,1.884c.185.185.371.185.557.375a12.859,12.859,0,0,0,3.729.579,6.883,6.883,0,0,0,3.357-.579,5.81,5.81,0,0,0,1.857-2.819l.185-.191c0-.388.2-.579.2-.955.185-.185.185-.375.185-.751h0c-.185-.751.743-.751,1.114-.751s1.3,0,1.114.751c0,.375,0,.566.185.751a2.851,2.851,0,0,0,.372,1.146,5.838,5.838,0,0,0,1.872,2.819,6.854,6.854,0,0,0,3.357.579,12.948,12.948,0,0,0,3.73-.579l.185-.191a3.132,3.132,0,0,0,1.671-2.068c.186-.56.186-1.139.372-1.706a1.441,1.441,0,0,0,.387-.751h0c.186-.191.372-.191.372-.375a8.45,8.45,0,0,0,.185-.942h0C368.364,164.026,368.364,163.632,368.178,163.447Z"/><polygon class="aa" points="413.672 231.205 387.38 221.198 393.153 205.727 419.457 215.921 413.672 231.205"/><path class="j" d="M426.355,242.151c-.755.564-1.685,1.315-2.61,1.879-.189,0-.189,0-.371.188a74.369,74.369,0,0,1-9.332,5.105c-.189-.955-.189-1.9-.371-2.834-.189-1.895-.56-3.774-.742-5.481a35.433,35.433,0,0,1-.748-4.338c0-.376-.182-.94-.182-1.315-.371-1.707-.572-3.21-.943-4.714v-.391c0-.375-.189-.564-.189-.752-.182-1.691-.553-3.4-.742-4.9a5.931,5.931,0,0,1,.742-4.338A6.146,6.146,0,0,1,413.3,217.8h0a5.226,5.226,0,0,1,2.239-.752,5.1,5.1,0,0,1,3.358.188,6.8,6.8,0,0,1,4.1,4.9c.189.188.189.188.189.376,0,.579.189.955.189,1.518v.188c.182.564.182,1.127.371,1.691,0,.376.182.768.182,1.331,0,.375.189.752.189,1.127.553,3.022,1.113,6.421,1.666,9.819C425.972,239.5,426.154,240.82,426.355,242.151Z"/><path class="aa" d="M426.915,241.775c-.189,0-.371.188-.56.376-.755.564-1.685,1.315-2.61,1.879-.189,0-.189,0-.371.188a74.369,74.369,0,0,1-9.332,5.105c-.189,0-.189,0-.371.188-.742.188-1.49.564-2.044.752-.943-7.172-1.874-15.472-2.427-20.765,0-.564-.189-1.128-.189-1.5-.182-1.315-.371-2.271-.371-2.835v-.188l1.484-.376,4.1-.564h0l.56-.188,1.874-.188,5.584-1.143h.943l.189-.188h.371l.924-.188v.188h0c.371,2.271,1.113,8.128,1.874,15.864A21.406,21.406,0,0,1,426.915,241.775Z"/><path class="aa" d="M408.83,221.386a8.125,8.125,0,1,0,15.658,4.338,8.444,8.444,0,0,0-5.792-10.179A8.109,8.109,0,0,0,408.83,221.386Z"/><path class="aa" d="M361.091,249.323c.185.188.557.188.928.376.186,0,.372.188.743.376a64.985,64.985,0,0,0,13.8,3.774,31.384,31.384,0,0,0,4.1.752h.743a55.76,55.76,0,0,0,5.6.188h.371V218.552h-.931l-1.868.188h-.745l-.371.188h-.743l-2.986.188h0l-1.5.2H376.75l-1.485.188h-.185l-3.543.188-5.973.563h-.186l-3.172.188-2.615.188v2.835l.372,4.9h0V231.2l.572,9.8.185,3.586v2.27l.186,2.271Z"/><polygon class="aa" points="360.906 230.829 355.119 215.545 381.408 205.35 387.198 220.822 360.906 230.829"/><path class="aa" d="M414.967,220.635l-.182,3.21-.189,2.067v.188l-.182,3.022v2.458l-.56,9.427-.182,5.481v3.022c-.742.188-1.49.564-2.044.752a63.2,63.2,0,0,1-14.746,3.962,27.5,27.5,0,0,1-4.1.376h-.56a40.071,40.071,0,0,1-4.653.188h-.56V218.552h1.3l.371.188H390l.931.188h1.3l2.987.188h.742l2.434.2h0l1.855.188h.384l5.219.376,3.358.375h1.666l2.8.188h.182Z"/><path class="aa" d="M361.091,249.323c.185.188.557.188.928.376a12.842,12.842,0,0,1,.372-2.646c.743-6.045,1.671-11.7,2.615-16.412,0-.579.186-.955.186-1.331a39.731,39.731,0,0,0,.743-4.15V224.6h.186l-.928-.188-3.358-.564-2.244-.375-1.671-.188-2.986-.579h-.186l-4.843-.939v.563c-.372,1.707-.573,3.4-.944,5.481a34.532,34.532,0,0,1-.743,3.774c-.185,1.879-.557,3.962-.928,6.029-.186.955-.371,2.083-.557,3.022a2.576,2.576,0,0,0,.743.564s.186.188.372.391a5.646,5.646,0,0,1,1.3.94h0c1.872,1.315,3.729,2.443,5.6,3.586a.183.183,0,0,1,.186.188c1.3.563,2.615,1.315,3.914,1.879.186.188.372.188.557.376.557.188.928.391,1.5.579Z"/><path class="aa" d="M361.091,249.323c.185.188.557.188.928.376.186,0,.372.188.743.376.186-1.707.372-3.211.557-4.9.743-6.045,1.5-11.9,2.058-16.051.186-1.692.371-3.022.557-3.962V224.6h.186l-.928-.188-3.358-.564-2.244-.375-1.671-.188-2.986-.579h-.186l-4.843-.939v.563c-.372,2.083-.944,6.045-1.5,10.946-.186,2.083-.557,4.15-.743,6.421a4.175,4.175,0,0,0-.186,1.5s.186.188.372.391a5.646,5.646,0,0,1,1.3.94h0c1.872,1.315,3.729,2.443,5.6,3.586a.183.183,0,0,1,.186.188c1.3.563,2.615,1.315,3.914,1.879.186.188.372.188.557.376.557.188.928.391,1.5.579Z"/><path class="aa" d="M365.935,221.01a8.375,8.375,0,0,1-5.787,10.195,8.243,8.243,0,0,1-10.058-5.857,8.455,8.455,0,0,1,5.771-10.194A8.347,8.347,0,0,1,365.935,221.01Z"/><polygon class="aa" points="365.749 211.38 372.65 208.749 374.135 211.959 365.749 211.38"/><path class="l" d="M375.636,213.651s8.757,8.112,21.629,0l-19.772-2.459Z"/><path class="u" d="M381.965,208.937l-7.087,2.819a7.981,7.981,0,0,0,.944,3.4.728.728,0,0,1,.185.579l10.26,9.427,11-11.51Z"/><path class="ab" d="M399.5,208.373v.564c-.189.752-.371,2.819-.742,5.466v.563c-.189,1.331-.189,2.835-.371,4.354,0,.188-.189.188-.189.376h0c-.182,1.691-.371,3.586-.56,5.465-.371,2.458-.553,5.293-.943,7.924-.924,6.984-2.037,13.969-3.157,18.682v.564a11.226,11.226,0,0,1-.572,1.519c0,.376-.182.564-.182.752h-.56a40.071,40.071,0,0,1-4.653.188h-.56a55.76,55.76,0,0,1-5.6-.188h-.743a26.764,26.764,0,0,0-.743-3.21v-.564c-1.114-4.714-2.058-11.51-2.986-18.306h0c-.372-2.458-.743-5.089-.929-7.36a26.217,26.217,0,0,1-.371-3.586c-.186-.752-.186-1.315-.372-1.879h0v-.188c-.387-3.774-.758-6.8-.944-8.691,0-.752-.185-1.5-.185-1.879h0v-.376l.743.752.387.563.929,1.315.743.955.557.752,2.429,3.211.557.564.185.375h11.745l.553-.564.189-.188.384-.564,1.861-2.271.182-.188.189-.188,3.358-4.338.371-.188Z"/><path class="aa" d="M392.222,254.6a40.071,40.071,0,0,1-4.653.188h-.56a55.76,55.76,0,0,1-5.6-.188v-5.277c0-1.9,0-3.962.185-5.857.186-6.609.944-12.826.944-12.826.186-2.082,2.415-5.1,2.415-5.1a7.73,7.73,0,0,1-1.673-2.255c-.186-.391-.186-.579-.371-.955v-.188c-.185,0-.185-.188-.185-.375a2.723,2.723,0,0,1-.387-1.128.182.182,0,0,1-.186-.188c0-.376-.185-.564-.185-.752v-.188a5.836,5.836,0,0,1,.758-.579c.185-.188.556-.376.743-.564.185,0,.371-.188.556-.188a10.522,10.522,0,0,1,1.484-.94c.189,0,.371,0,.371-.188h.2c.189,0,.189,0,.371-.188h.377l.182-.188h.371a1.987,1.987,0,0,0,.742-.376c0,.188-.371.188-.742.376h0c-.182,0-.182,0-.182.188h.182a.184.184,0,0,0,.189.188c.182,0,.182,0,.371.188a1.423,1.423,0,0,1,.742.376h0a8.9,8.9,0,0,1,2.245,1.315,2.62,2.62,0,0,1,.742.579h0v.188c-.189.188-.189.563-.371.939s-.371,1.128-.56,1.691a8.546,8.546,0,0,1-2.056,3.211s2.245,3.022,2.245,5.1c0,0,1.484,10.946,1.113,18.682l.182,2.443V254.6Z"/><polygon class="ac" points="377.864 207.23 377.493 206.854 375.451 207.605 377.679 209.876 378.05 208.185 377.864 207.23"/><path class="ac" d="M398.385,207.605l-2.245-.752a25.613,25.613,0,0,1-.189,3.4Z"/><path class="ac" d="M386.638,216.861c-5.23,0-9.144-3.21-9.144-8.488v-6.8h18.829v6.8C396.322,213.651,391.851,216.861,386.638,216.861Z"/><path class="ac" d="M404.151,190.253c0,1.317-.924,2.633-1.855,2.633h-31.7c-.928,0-1.857-1.315-1.857-2.633v-5.48c0-1.5.929-2.647,1.857-2.647h31.7c.931,0,1.855,1.146,1.855,2.647Z"/><path class="ac" d="M372.278,174.769V198.93c0,.375.186.563.186.939a4.556,4.556,0,0,0,.371,1.519,3.938,3.938,0,0,0,.743,1.127c.186.376.372.564.557.94.185,0,.185,0,.372.188a9.046,9.046,0,0,0,1.315.955c.557.188,1.114.564,1.671.752a.571.571,0,0,1,.371.188h.185c.186.188.186.188.372.188.387.188.758.188,1.129.375s.743.188,1.114.376c.371,0,.928.188,1.3.188a14.5,14.5,0,0,0,2.8.376c.189,0,.371.188.742.188H387.2a8.21,8.21,0,0,0,2.037-.188,22.855,22.855,0,0,0,3.547-.564h.182l.189-.188c.384,0,.572-.188.943-.188a.634.634,0,0,0,.371-.188.683.683,0,0,0,.56-.188h.371a1.39,1.39,0,0,1,.924-.376c0-.188.189-.188.371-.188.39-.188.761-.376,1.132-.564a6.671,6.671,0,0,0,2.415-2.083,5.811,5.811,0,0,0,1.132-3.586V174.769Z"/><path class="ad" d="M401.372,173.076V189.3l-2.245-1.126-.56-9.241c-7.64,1.317-16.787.191-23.3-3.4l-.944,12.639h-2.042v-15.1c0-7.548,5.958-11.7,13.416-11.7h2.427C395.4,161.379,401.372,165.528,401.372,173.076Z"/><path d="M381.78,184.4a1.245,1.245,0,0,1-1.3,1.126,1.2,1.2,0,0,1-1.114-1.126,1.254,1.254,0,0,1,1.114-1.317A1.279,1.279,0,0,1,381.78,184.4Z"/><path d="M391.851,184.4a1.247,1.247,0,0,0,1.3,1.126,1.207,1.207,0,0,0,1.132-1.126,1.256,1.256,0,0,0-1.132-1.317A1.281,1.281,0,0,0,391.851,184.4Z"/><path class="ae" d="M377.493,207.23h0a15.486,15.486,0,0,0,2.8.752,24.233,24.233,0,0,0,6.533.955,26.891,26.891,0,0,0,6.71-.955c.931-.188,1.861-.564,2.786-.752V205.35s-1.855.564-2.786.94a27.317,27.317,0,0,1-6.71.752,24.842,24.842,0,0,1-6.533-.752,24.47,24.47,0,0,1-2.8-.94Z"/><path class="ae" d="M386.827,192.886v2.082c.371,0,.925,0,1.113-.375a3.841,3.841,0,0,1,2.056-.752,1.042,1.042,0,0,0,1.113-.955Z"/><path class="ae" d="M386.827,192.886v2.082a1.8,1.8,0,0,1-1.321-.375,2.813,2.813,0,0,0-1.854-.752,1.045,1.045,0,0,1-1.114-.955Z"/><path class="af" d="M386.827,184.589v8.3h-4.289a1.044,1.044,0,0,1,1.114-.94h0c.93-.939,1.483-3.965,1.483-5.842A1.577,1.577,0,0,1,386.827,184.589Z"/><path class="ag" d="M386.827,200.057a19.522,19.522,0,0,1-4.49-.564c-.371-.188-.557-.375-.557-.752a.992.992,0,0,1,.758-.564,15.876,15.876,0,0,0,8.389,0c.371,0,.742.188.742.564.182.376,0,.564-.371.752A20.868,20.868,0,0,1,386.827,200.057Z"/><rect class="ad" x="385.135" y="201.201" width="3.358" height="5.841"/><path d="M401.372,182.33h0c-.189,0-.377-.2-.748-.2a5.876,5.876,0,0,0-1.868-.185,18.14,18.14,0,0,0-3.358-.375,46.421,46.421,0,0,0-5.031.56c-1.132.2-1.874.395-1.874.395h-3.169s-.742-.191-1.858-.395a46.847,46.847,0,0,0-5.044-.56,20.384,20.384,0,0,0-3.543.375h0c-.743,0-1.3.185-1.671.185a1.79,1.79,0,0,0-.743.2h-.186a.671.671,0,0,0-.185.375v1.126c0,.191.185.191.185.375a.67.67,0,0,1,.557.191,20.773,20.773,0,0,1,.743,3.208.7.7,0,0,1,.186.566,2.278,2.278,0,0,0,.929.942h0a5.8,5.8,0,0,0,3.729,1.139c2.986,0,4.3-.56,5.6-2.272a4.354,4.354,0,0,0,1.113-1.686h0a5.935,5.935,0,0,1,1.132-1.706c.182,0,.371-.191.742-.191,1.113,0,1.484,1.9,2.8,3.583,1.3,1.712,2.6,2.272,5.59,2.272a5.742,5.742,0,0,0,3.729-1.139h0a2.612,2.612,0,0,0,.742-.566c.182-.185.182-.566.371-.942a20.5,20.5,0,0,1,.755-3.208c0-.191.189-.191.377-.191.182-.185.371-.185.371-.375v-1.126A.365.365,0,0,0,401.372,182.33Z"/><path class="ah" d="M373.021,183.456c-.185,0-.371-.185-.557-.185a.669.669,0,0,1,.557-.191c.372,0,.557,0,.743.191C373.578,183.271,373.393,183.456,373.021,183.456Z"/><path class="ah" d="M400.812,183.456c-.39,0-.572-.185-.761-.185.189-.191.371-.191.761-.191a.682.682,0,0,1,.56.191C401.183,183.271,400.994,183.456,400.812,183.456Z"/><polygon class="ai" points="376.194 224.785 387.38 216.861 386.638 216.485 380.851 216.297 375.822 221.95 376.194 224.785"/><polygon class="ai" points="397.636 224.972 386.449 217.048 387.198 216.673 392.964 216.485 397.825 222.138 397.636 224.972"/><path class="ab" d="M375.451,207.605s6.885,8.315,11.747,8.691v.752s-7.46,3.21-11.19,7.172a148.6,148.6,0,0,1-1.872-16.036Z"/><path class="ab" d="M398.385,207.605s-7.276,8.315-11.935,8.691v.752a2.071,2.071,0,0,0,.748.376c1.855.752,7.458,3.586,10.439,6.8a157.856,157.856,0,0,0,1.861-16.036Z"/></g><g class="aj"><path class="ak" d="M332.061,164.23c0,36.988-29.643,66.992-66.191,66.992-36.736,0-66.383-30-66.383-66.992,0-37.179,29.647-67.18,66.383-67.18C302.418,97.05,332.061,127.051,332.061,164.23Z"/><polygon class="z" points="263.625 181.596 240.693 172.717 245.722 159.514 268.668 168.192 263.625 181.596"/><path class="z" d="M261.768,194.234c-.557-6.045-2.43-16.975-2.615-18.118l13.987-2.443c.189,1.315,2.044,12.449,2.8,19.058Z"/><polygon class="o" points="217.761 181.22 212.717 167.815 235.664 159.139 240.693 172.529 217.761 181.22"/><path d="M250.766,118.943l-.186,2.444a29.225,29.225,0,0,0-8.959-1.317c-7.458,0-15.659.751-18.088,9.444-.185,9.616-1.114,32.444.372,33.965-.928-.191,23.69,11.509,32.633-1.706,2.8-3.774,0-8.865,1.129-14.345C260.452,134.6,258.41,120.069,250.766,118.943Z"/><path class="i" d="M248.151,148.383l.743,11.7,9.516,4.149c-2.058,1.126-12.688,3.774-17.531,3.774-4.657,0-15.1-3.208-17.16-4.34l7.644-3.4.573-11.882Z"/><path class="i" d="M251.88,145.545c2.986,0,5.029-2.457,4.658-6.415-.372-3.774-2.971-7.363-5.586-7.363Z"/><path class="i" d="M228.577,145.545c-2.986,0-5.23-2.457-4.673-6.415.387-3.774,2.8-7.363,5.6-7.363Z"/><path class="i" d="M240.136,157.433c2.8,0,3.729-.751,3.915-1.317,8.2-3.023,9.516-13.212,10.445-20.2l-1.5-9.05c-.929-4.716-8.2-8.674-12.858-8.674-4.472,0-11.744,3.958-12.688,8.674l-1.671,9.05c.929,6.988,2.43,17.177,10.63,20.2C236.592,156.682,237.335,157.433,240.136,157.433Z"/><path d="M246.108,137.621a1.082,1.082,0,0,1-1.129-1.139,1.2,1.2,0,0,1,1.129-1.126,1.181,1.181,0,0,1,.928,1.126A1.05,1.05,0,0,1,246.108,137.621Z"/><path d="M234.349,137.621a1.133,1.133,0,0,0,0-2.266c-.557.185-1.114.56-1.114,1.126A1.2,1.2,0,0,0,234.349,137.621Z"/><path d="M258.781,134.789c-.186-6.8-2.058-12.639-5.6-14.911a3.646,3.646,0,0,0-2.6-1.126s-1.5-3.958-10.444-3.958c-8.015,0-16.789,3.774-16.789,17.724-.186,3.214,4.487,14.536,4.286,6.237.944-9.056,2.058-19.436,12.5-18.119,1.114,0,2.429-.566,3.729-.566h.372c10.073,1.126,6.344,16.8,12.3,19.621,0,0,1.315.579,1.872-2.068C258.6,136.482,258.781,134.789,258.781,134.789Z"/><path class="al" d="M248.522,153.284h-.186a17.22,17.22,0,0,1-2.8,2.081.569.569,0,0,1-.372.191c-.186.185-.186.185-.371.185h-.186c-.186.191-.371.191-.557.375-.185.566-1.114,1.317-3.915,1.317s-3.543-.751-3.729-1.317c-.186,0-.372-.185-.557-.185a.67.67,0,0,0-.557-.191,13.89,13.89,0,0,1-3.172-2.457h0c-.186,0-.186-.191-.372-.191v.942a15.355,15.355,0,0,0,4.658,3.023c.185.566.928,1.317,3.729,1.317s3.729-.751,3.915-1.317a15.139,15.139,0,0,0,4.472-3.023Z"/><path class="am" d="M240.136,151.2a20.743,20.743,0,0,1-4.472-.566c-.372-.185-.557-.375-.372-.751,0-.375.372-.566.743-.566a15.764,15.764,0,0,0,8.387,0c.372,0,.743.191.743.566.185.375,0,.566-.371.751A20.989,20.989,0,0,1,240.136,151.2Z"/><path d="M230.434,134.223c-.185,0-.372,0-.372-.185s0-.375.186-.375c.557-.191,5.787-1.146,6.9,0a.351.351,0,0,1,0,.56.253.253,0,0,1-.372,0c-.743-.751-4.286-.375-6.344,0Z"/><path d="M249.837,134.223h0c-2.058-.375-5.6-.751-6.344,0,0,.191-.372,0-.372,0a.351.351,0,0,1,0-.56c1.114-1.146,6.329-.191,6.9,0,.186,0,.186.185.186.375S250.023,134.223,249.837,134.223Z"/><path class="an" d="M240.136,136.291v8.318h-3.172c.186-.375.186-.566.557-.77a4.888,4.888,0,0,0,1.114-2.628l.2-3.589C238.836,136.686,239.95,136.291,240.136,136.291Z"/><path class="ao" d="M243.308,144.609c0,.56-.371.936-1.129.936-.185,0-.185.375-.557.566a2.1,2.1,0,0,1-1.485.566,2,2,0,0,1-1.3-.566,1.388,1.388,0,0,1-.572-.566c-.743,0-1.3-.375-1.3-.936h6.344Z"/><path class="o" d="M226.519,146.3v-2.259c0-.2-.371-.2-.371,0V146.3C226.148,146.678,226.519,146.678,226.519,146.3Z"/><path class="ap" d="M225.22,146.862a1.22,1.22,0,0,0,1.114,1.146,1.065,1.065,0,0,0,.929-1.146.886.886,0,0,0-.929-.942A1.048,1.048,0,0,0,225.22,146.862Z"/><path class="o" d="M254.309,146.111v-2.068a.279.279,0,1,0-.557,0v2.068A.278.278,0,1,0,254.309,146.111Z"/><path class="ap" d="M252.994,146.862a.905.905,0,0,0,.944.955c.743,0,1.114-.388,1.114-.955a.99.99,0,0,0-1.114-1.126C253.381,145.736,252.994,146.111,252.994,146.862Z"/><path d="M226.333,132.517s14.359-7.357,16.046-12.448l-5.6-1.877-8.758,2.819-1.687,8.127Z"/><path d="M253.566,131.016s-12.316-6.23-13.8-10.755l4.658-1.508,7.644,2.444,1.5,6.988Z"/><path class="z" d="M259.338,173.093a7.042,7.042,0,1,0,13.619,3.586A7.175,7.175,0,0,0,267.926,168,7.077,7.077,0,0,0,259.338,173.093Z"/><path class="o" d="M240.693,170.65v55.67a.182.182,0,0,1-.185-.188,27.4,27.4,0,0,1-4.1-1.895,11.433,11.433,0,0,1-2.615-1.315.182.182,0,0,1-.185-.188,70.012,70.012,0,0,1-15.659-12.074v-.188l-.372-15.488v-.939l-.557-12.637-.186-2.459-.2-4.149v-2.458l5.23-.376,11.93-.939,3.915-.188,2.244-.188h.743Z"/><path class="o" d="M264.568,172.342v2.834l-.189,1.128v3.586l-.2,1.519h0v.375L264,184.039v2.083h0l-.189,3.774v.376l-.182,3.4v.376h0v.939l-.189,3.211v9.63l-.182,2.067v.58h0l-.189,11.51v.375l-.182,8.863c-.93,0-2.044-.188-2.988-.188a58.65,58.65,0,0,1-13.044-2.647,13.373,13.373,0,0,1-2.615-.752,27.059,27.059,0,0,1-3.543-1.315.182.182,0,0,1-.185-.188V170.65h2.058l7.272.564,6.886.564h.944l.928.188h1.3l2.8.188Z"/><path class="o" d="M219.433,194.234l-13.988-1.5c.572-5.481,2.058-14.72,2.8-19.262l13.988,2.271C221.49,179.889,219.99,189.332,219.433,194.234Z"/><path class="o" d="M222.047,172.717a7.2,7.2,0,0,1-5.029,8.691,6.841,6.841,0,0,1-8.587-4.918,7.066,7.066,0,1,1,13.616-3.774Z"/><path class="o" d="M258.224,164.605l-.186.942-.186.955-.185.56v.191l-.557,3.209-.387,1.315-1.114,6.8-2.042,10.006-.185,1.315-.387,1.692-.372,2.458-.186.752-1.114,5.857-.928,4.9-5.787,18.682h-8.2a11.433,11.433,0,0,1-2.615-1.315.182.182,0,0,1-.185-.188l-6.344-41.514,3.172-4.917,3.357-5.277,2.244-3.586h1.114c.372,0,.928.188,1.687.188h3.915c.186,0,.186,0,.372-.188a41.623,41.623,0,0,0,6.514-.563h0a1.447,1.447,0,0,1,.758-.191h.557c1.671-.375,3.357-.764,5.214-1.33.372-.185.743-.185.944-.375.372,0,.557-.185.743-.185A.645.645,0,0,1,258.224,164.605Z"/><polygon class="i" points="236.964 167.628 240.136 183.476 243.122 167.44 241.064 164.605 236.964 167.628"/><path class="aq" d="M299.614,174.988v46.807a.181.181,0,0,1-.182.188,61.527,61.527,0,0,1-8.389,4.337c-.56.188-1.113.376-1.874.564a58.991,58.991,0,0,1-13.985,3.774l-.371-29.065-.189-.375v-2.271l-.182-4.714v-.188l-.189-.939h0v-.188l-.182-4.338v-1.707l-.189-1.5v-1.519L273.7,181.6l-.189-4.15h0v-.579h1.874l1.484-.188,2.245-.188h.931l1.113-.188,6.9-.376,5.785-.563,5.031-.376h.742Z"/><path class="aq" d="M325.534,176.867v.391h0v.376h0l-.371,7.548-.56,9.991v1.518c0-.375-.182-.563-.182-.939a17.553,17.553,0,0,0-1.119,1.879,67.422,67.422,0,0,1-22,23.4c-.572.188-1.126.579-1.685.767a.181.181,0,0,1-.182.188v-47h.742l3.729.376,14.174.939,1.314.188,2.786.188Z"/><path class="u" d="M331.508,175.552l-.371.188a48.455,48.455,0,0,1-2.063,8.676c-.182.768-.553,1.707-.742,2.458a.18.18,0,0,0-.182.188,50.975,50.975,0,0,1-3.547,8.112v1.518c0-.375-.182-.563-.182-.939q-1.679-6.248-3.358-11.338h0a1.689,1.689,0,0,1-.189-.939c-.553-1.5-.924-3.022-1.3-4.338a4.382,4.382,0,0,1-.182-2.647v-.375a6.34,6.34,0,0,1,4.289-4.9,8.987,8.987,0,0,1,3.169,0,6.272,6.272,0,0,1,4.471,3.962A.581.581,0,0,0,331.508,175.552Z"/><path class="aq" d="M331.319,175.176a.581.581,0,0,0,.189.376l-.371.188a48.455,48.455,0,0,1-2.063,8.676,10.093,10.093,0,0,1-1.484.579h0a5.1,5.1,0,0,1-1.685.188h-.742a9.314,9.314,0,0,1-2.232-.376,8.037,8.037,0,0,1-2.056-1.331,7.063,7.063,0,0,1-2.616-3.962c-.182-.564-.182-1.127-.371-1.691a4.207,4.207,0,0,1,.189-1.519v-.376a7.993,7.993,0,0,1,7.269-6.232,4.823,4.823,0,0,1,1.692.2,7.569,7.569,0,0,1,4.653,2.819A9.907,9.907,0,0,0,331.319,175.176Z"/><path class="u" d="M261.953,222.546a2.333,2.333,0,0,1-1.114-.188A6.049,6.049,0,0,1,255.98,215c2.429-12.653,6.714-25.29,9.89-34.357.742-1.879,1.3-3.774,1.855-5.277a6.118,6.118,0,0,1,7.842-3.962,6.206,6.206,0,0,1,3.918,7.924c-.56,1.707-1.132,3.586-1.874,5.481-3.169,8.863-7.269,20.75-9.5,32.635A6.237,6.237,0,0,1,261.953,222.546Z"/><polygon class="aq" points="274.995 184.994 272.026 169.695 298.129 164.414 301.116 179.702 274.995 184.994"/><polygon class="aq" points="324.05 184.994 298.129 179.702 301.116 164.414 327.037 169.695 324.05 184.994"/><path class="ar" d="M328.332,186.873a.18.18,0,0,0-.182.188l-.56-2.067-1.685-6.232c.371,1.5,1.132,3.586,1.685,6.232A18.134,18.134,0,0,1,328.332,186.873Z"/><path class="aq" d="M331.137,175.739a48.455,48.455,0,0,1-2.063,8.676c-.182.768-.553,1.707-.742,2.458a.18.18,0,0,0-.182.188,50.975,50.975,0,0,1-3.547,8.112v1.518c0-.375-.182-.563-.182-.939a17.553,17.553,0,0,0-1.119,1.879c-1.314-4.714-2.8-9.819-3.729-13.4l-.182-.188c-.572-2.067-.943-3.586-1.314-4.526h.182l1.314-.375,5.961-1.879h0Z"/><path class="ar" d="M273.511,177.446c-1.484,4.338-8.2,25.087-9.7,30.568Z"/><path class="aq" d="M271.083,210.269l-14.546-4.338c1.5-5.653,8.213-26.606,9.886-31.131l14.363,5.089C279.3,184.227,272.769,204.8,271.083,210.269Z"/><path class="u" d="M271.838,231.034c-2.056.188-3.911.188-5.968.188h-2.987c-.93,0-2.044-.188-2.988-.188-.928-2.647-1.671-5.089-2.413-7.172a21.845,21.845,0,0,0-.573-2.458c-.186-.752-.371-1.5-.557-2.067-.371-.939-.557-1.519-.557-1.519a6.209,6.209,0,0,1,.371-4.149h0a6.59,6.59,0,0,1,4.1-3.586,4.1,4.1,0,0,1,2.988,0h.182a6.21,6.21,0,0,1,4.49,4.353V215a14.97,14.97,0,0,1,.371,1.5h0c.182.564.182,1.128.371,1.9a19.628,19.628,0,0,1,.56,2.255C269.782,223.486,270.712,227.26,271.838,231.034Z"/><path class="aq" d="M281.157,176.679a7.618,7.618,0,0,1-6.9,8.315,7.486,7.486,0,0,1-8.382-6.8,7.823,7.823,0,0,1,6.9-8.5A7.63,7.63,0,0,1,281.157,176.679Z"/><polygon class="w" points="257.853 206.308 269.782 209.705 269.228 212.352 257.481 207.451 257.853 206.308"/><path class="u" d="M298.689,174.612c-4.848,0-8.961-4.337-8.961-9.44v-6.612h18.085v6.612A9.367,9.367,0,0,1,298.689,174.612Z"/><path class="u" d="M315.272,147.053c0,1.33-.742,2.457-1.666,2.457H283.213c-.943,0-1.685-1.126-1.685-2.457v-5.282c0-1.311.742-2.457,1.685-2.457h30.392c.924,0,1.666,1.146,1.666,2.457Z"/><path class="u" d="M284.886,132.912v23.2a5.827,5.827,0,0,0,3.358,5.282,3.732,3.732,0,0,0,1.484.751.729.729,0,0,0,.572.185l.182.2a5.618,5.618,0,0,0,1.49.375c.371.191.553.191.924.375a28.729,28.729,0,0,0,5.792.751,30.693,30.693,0,0,0,5.968-.751c.189-.185.189-.185.371-.185s.377-.191.748-.191c.182-.185.553-.185.742-.375a2.692,2.692,0,0,0,1.3-.388,3.73,3.73,0,0,0,1.5-.751,5.827,5.827,0,0,0,3.358-5.282v-23.2Z"/><path class="ap" d="M312.674,131.2v15.662l-2.245-1.126-.371-8.865c-7.458,1.126-16.218.191-22.374-3.208l-.931,12.073h-1.868V131.2c0-7.166,5.785-11.131,12.872-11.131h2.226C306.889,120.069,312.674,124.034,312.674,131.2Z"/><path d="M293.841,142.146a1.222,1.222,0,0,1-1.126,1.133,1.205,1.205,0,0,1-1.113-1.133,1.245,1.245,0,0,1,1.113-1.311A1.259,1.259,0,0,1,293.841,142.146Z"/><path d="M303.531,142.146a1.251,1.251,0,0,0,1.314,1.133,1.205,1.205,0,0,0,1.113-1.133,1.245,1.245,0,0,0-1.113-1.311A1.275,1.275,0,0,0,303.531,142.146Z"/><path class="as" d="M289.169,140.065c-.182,0-.182,0-.182-.185s0-.191.182-.191l6.9-.185h0c.182,0,.182,0,.182.185s0,.191-.182.191l-6.9.185Z"/><path class="as" d="M308.2,140.065h0l-6.716-.185c-.189,0-.371,0-.371-.191s.182-.185.371-.185h0l6.716.185c.182,0,.371,0,.371.191S308.386,140.065,308.2,140.065Z"/><polygon class="u" points="298.871 183.851 309.316 166.126 288.615 166.311 298.871 183.851"/><path class="w" d="M289.728,163.854a.186.186,0,0,0,.2.185c.742.191,1.673.566,2.415.757a24.538,24.538,0,0,0,6.345.751,25.034,25.034,0,0,0,6.527-.751,14.514,14.514,0,0,0,2.6-.942v-1.706s-1.855.764-2.6.955a25.034,25.034,0,0,1-6.527.751,24.538,24.538,0,0,1-6.345-.751,14.308,14.308,0,0,1-2.616-.955Z"/><polygon class="u" points="307.443 166.126 308.757 166.311 309.316 166.126 307.26 165.732 307.443 166.126"/><polygon class="u" points="290.112 166.126 288.615 166.311 289.929 166.877 290.483 166.502 290.112 166.126"/><path class="at" d="M298.689,150.261v2.081a3.338,3.338,0,0,0,1.3-.375,1.986,1.986,0,0,1,1.874-.764.883.883,0,0,0,.931-.942Z"/><path class="at" d="M298.689,150.261v2.081a2.625,2.625,0,0,1-1.119-.375,2.179,2.179,0,0,0-1.868-.764,1.041,1.041,0,0,1-1.113-.942Z"/><path class="w" d="M298.689,142.9v7.357h-4.1a1.041,1.041,0,0,1,1.113-.942h0a9.526,9.526,0,0,0,1.5-4.9A1.524,1.524,0,0,1,298.689,142.9Z"/><path class="au" d="M301.676,158.184a10.376,10.376,0,0,1-3.176.375,10.259,10.259,0,0,1-3.169-.375c-.189,0-.371-.185-.189-.56,0-.191.189-.375.371-.191a15.982,15.982,0,0,0,5.974,0c.189-.185.371,0,.56.191C302.047,158,301.858,158.184,301.676,158.184Z"/><path class="ap" d="M298.5,155.365c2.987,0,3.729,1.5,3.918,3.195v1.9c-1.3.375-2.616-.942-3.918-.942s-2.616,1.317-3.911.942v-1.9C294.771,156.867,295.514,155.365,298.5,155.365Zm6.156,3.195c-.755-3-3.169-6.027-6.156-6.027-2.8,0-5.414,3.023-6.156,6.027a9.679,9.679,0,0,0-.371,2.272v2.081h0c0,.566,0,.942.182.942a16.152,16.152,0,0,0,4.289.942h0a5.275,5.275,0,0,1,1.685.185h.371c.931,0,1.673-.185,2.616-.185a7.775,7.775,0,0,1,.931-.191c.924-.191,1.855-.375,2.981-.566V163.1h0v-2.272A9.679,9.679,0,0,0,304.657,158.559Z"/><path class="av" d="M252.065,193.106a5.6,5.6,0,0,1-.743,7.548,5.053,5.053,0,0,1-7.272-.752,5.389,5.389,0,0,1,.743-7.548A5.043,5.043,0,0,1,252.065,193.106Z"/><path class="av" d="M252.994,199.527c-.557,1.5-1.114,3.195-1.857,5.089-2.058,6.232-4.843,14.532-6.9,23.02a27.059,27.059,0,0,1-3.543-1.315.182.182,0,0,1-.185-.188,27.4,27.4,0,0,1-4.1-1.895,11.433,11.433,0,0,1-2.615-1.315c2.058-8.112,4.658-15.66,6.716-21.7v-.376c.185-.188.185-.188.185-.376.557-1.707,1.114-3.022,1.485-4.526a8.041,8.041,0,0,1,1.316-2.082h0a5.51,5.51,0,0,1,5.771-1.5,6.033,6.033,0,0,1,3.172,2.443,10.784,10.784,0,0,1,.743,2.271h0A11.058,11.058,0,0,1,252.994,199.527Z"/><path class="av" d="M301.3,221.028c-.572.188-1.126.579-1.685.767a.181.181,0,0,1-.182.188,61.527,61.527,0,0,1-8.389,4.337c-2.245-8.5-4.842-16.615-7.087-23.02-.553-1.707-1.113-3.4-1.685-4.917a5.661,5.661,0,0,1,3.54-7.172A5.407,5.407,0,0,1,292.9,194.8a48.936,48.936,0,0,1,1.692,4.917c1.484,4.15,3.169,9.239,4.842,14.72a8.375,8.375,0,0,0,.182.94C300.173,217.253,300.727,219.148,301.3,221.028Z"/><path class="aw" d="M289.54,213.855l-.182,6.609-.189,6.42a58.991,58.991,0,0,1-13.985,3.774c-1.113.188-2.226.188-3.345.376-2.056.188-3.911.188-5.968.188h-2.987c-.93,0-2.044-.188-2.988-.188a58.65,58.65,0,0,1-13.044-2.647l-.371-9.051V218.4l-.186-4.541c2.042-5.841,1.671-17.915,1.486-21.689v-1.143l5.6-1.128.928-.188,5.586,5.089.944.955,2.6,2.443.189.188L265.5,199.9l1.113-.768v-.188l7.64-5.841.371-.376.371-.188.943-.768,1.3-1.128,2.245-1.691,8.571,1.691v.188C287.873,192.918,287.313,207.451,289.54,213.855Z"/><path class="av" d="M277.428,190.836a4.483,4.483,0,0,1-2.616-2.255c-.931-.188-2.044-.391-3.157-.579-.572,0-.39,2.083-.943,1.895-.371,0-.371.376-.742.376-.189,0-.371-.752-.56-.752-.742,0-.371.375-1.113.564-.572,1.127-3.547,0-4.861.375-3.355.564-6.9.939-10.257,1.707,2.986,6.029,8.4,11.51,15.118,10.946,6.515-.391,12.489-5.669,14.727-11.525C281.157,191.4,279.3,191.211,277.428,190.836Z"/><polygon class="av" points="261.21 189.332 271.838 191.399 274.07 187.813 283.584 189.896 283.025 191.587 279.484 194.046 262.883 194.046 253.18 192.167 252.437 190.084 261.025 188.189 261.21 189.332"/><path class="av" d="M275.183,176.3l.572,10.57,6.515,3.211c-1.673.939-9.873,4.149-14.161,4.149-4.113,0-12.5-2.835-14.356-3.962l6.514-3.211.572-10.758Z"/><path class="ax" d="M261.953,182.536c2.427,2.083,5.4,3.4,7.275,3.211,3.169,0,9.885-4.714,10.816-9.067v.579c.182,4.526-7.458,9.991-10.816,9.991-1.874.188-4.66-1.128-7.275-3.211Z"/><path d="M259.338,171.214h1.5a2.477,2.477,0,0,1,2.415,2.458V186.31a2.369,2.369,0,0,1-2.415,2.459h-1.5a2.281,2.281,0,0,1-2.429-2.459V173.672A2.372,2.372,0,0,1,259.338,171.214Z"/><path d="M274.995,147.817c6.163,2.635,13.432,18.87,13.621,35.283,0,7.36-14.916,3.774-14.916,3.774V152.157Z"/><path class="av" d="M268.857,186.31c3.169,0,10.256-5.089,10.256-9.442V163.1c0-13.785-20.518-13.785-20.518,0v13.764C258.6,181.22,265.682,186.31,268.857,186.31Z"/><path class="ay" d="M271.838,152.908s-7.087,10.755-13.614,13.594l-2.429-9.069,2.8-4.716,9.331-.936Z"/><path d="M274.07,167.628a.689.689,0,0,1-.371-.941,1.008,1.008,0,0,1,.924-.56.682.682,0,0,1,.371.936C274.995,167.44,274.441,167.628,274.07,167.628Z"/><path d="M263.066,167.44a.69.69,0,0,1-.371-.938.668.668,0,0,1,.931-.375.687.687,0,0,1,.371.936A.678.678,0,0,1,263.066,167.44Z"/><path d="M274.995,147.817c-5.4-2.647-13.6-3.978-19.014,5.091-5.4,9.05-9.129,31.319-6.53,33.965,2.615,2.647,12.317,1.9,12.317,1.9l-4.1-21.516L264,157.809l7.087-4.34c.943.191,8.772,2.647,8.772,8.49h2.8Z"/><path d="M272.4,151.966s-7.647,11.513-14.73,14.536l-2.8-9.82,2.986-5.091,10.256.566Z"/><path class="av" d="M258.781,165.356a1.483,1.483,0,0,0-1.671-.942s-1.5.191-.944,2.838l.372,1.314.371,1.331.387,1.315.372.939a5.523,5.523,0,0,1,.372,1.519,1.187,1.187,0,0,0,.928,1.315s.743,0,.928-.188a77.665,77.665,0,0,1,.186-8.877Z"/><path class="av" d="M279.113,165.172a1.477,1.477,0,0,1,1.673-.942s1.484.185.924,2.832l-.371,1.317-.371,1.315-.371,1.331-.371.939a5.528,5.528,0,0,0-.371,1.5,1.2,1.2,0,0,1-.931,1.331s-.755,0-.943-.188a76.984,76.984,0,0,0-.182-8.88Z"/><path class="o" d="M258.6,174.612a.83.83,0,0,1-.743.564.6.6,0,0,1-.557-.564c0-.375.186-.752.557-.752A.8.8,0,0,1,258.6,174.612Z"/><path class="ag" d="M268.857,180.265a33.543,33.543,0,0,1-3.918-.375.971.971,0,0,1-.371-.752c0-.188.371-.376.56-.376a16.652,16.652,0,0,0,7.458,0,.964.964,0,0,1,.742.376c0,.375-.189.564-.56.752A30.782,30.782,0,0,1,268.857,180.265Z"/><path d="M259.152,165.172a.4.4,0,0,1-.371-.375c0-.191,0-.382.186-.382.743-.185,6.161-1.126,7.457.191v.375a.339.339,0,0,1-.553,0c-.742-.566-4.474-.185-6.718.191Z"/><path d="M277.8,164.981h0c-1.861-.185-5.213-.566-5.773,0-.189.191-.371.191-.371,0-.2-.185-.2-.375,0-.375,1.113-1.126,5.773-.191,6.326-.191a.669.669,0,0,1,.189.382C278.17,164.981,277.982,164.981,277.8,164.981Z"/><path class="az" d="M268.857,166.5v7.734H265.87c.182-.376.182-.564.553-.768a5.144,5.144,0,0,0,.931-2.255l.182-3.4A1.393,1.393,0,0,1,268.857,166.5Z"/><path class="ax" d="M271.838,174.236a1.062,1.062,0,0,1-1.126.939c-.189,0-.189.188-.56.376a1.673,1.673,0,0,1-1.3.564,1.363,1.363,0,0,1-1.132-.564c-.371-.188-.56-.376-.742-.376a1.2,1.2,0,0,1-1.113-.939h5.968Z"/></g><path class="i" d="M205.46,192.794l12.143,1.259.334,16.788s-5.527-6.112-7.552-9.416S205.46,192.794,205.46,192.794Z"/></svg>