<svg width="12" height="12" viewBox="0 0 12 12" version="1.1" xmlns="http://www.w3.org/2000/svg" xmlns:xlink="http://www.w3.org/1999/xlink">
<title>ms-Icon--Info</title>
<desc>Created using Figma</desc>
<g id="Canvas" transform="translate(-3543 -806)">
<g id="ms-Icon--Info">
<use xlink:href="#path0_fill" transform="translate(3543 806)"/>
</g>
</g>
<defs>
<path id="path0_fill" d="M 6 12C 5.44583 12 4.91354 11.9292 4.40312 11.7875C 3.89271 11.6458 3.41458 11.4448 2.96875 11.1844C 2.52292 10.924 2.11771 10.6115 1.75313 10.2469C 1.38854 9.88229 1.07604 9.47708 0.815625 9.03125C 0.555209 8.58542 0.354167 8.10729 0.2125 7.59688C 0.0708335 7.08646 0 6.55417 0 6C 0 5.44583 0.0708335 4.91354 0.2125 4.40312C 0.354167 3.89271 0.555209 3.41458 0.815625 2.96875C 1.07604 2.52292 1.38854 2.11771 1.75313 1.75312C 2.11771 1.38854 2.52292 1.07604 2.96875 0.815625C 3.41458 0.555209 3.89271 0.354167 4.40312 0.2125C 4.91354 0.0708334 5.44583 0 6 0C 6.55417 0 7.08646 0.0708334 7.59688 0.2125C 8.10729 0.354167 8.58542 0.555209 9.03125 0.815625C 9.47708 1.07604 9.88229 1.38854 10.2469 1.75312C 10.6115 2.11771 10.924 2.52292 11.1844 2.96875C 11.4448 3.41458 11.6458 3.89271 11.7875 4.40312C 11.9292 4.91354 12 5.44583 12 6C 12 6.55417 11.9292 7.08646 11.7875 7.59688C 11.6458 8.10729 11.4448 8.58542 11.1844 9.03125C 10.924 9.47708 10.6115 9.88229 10.2469 10.2469C 9.88229 10.6115 9.47708 10.924 9.03125 11.1844C 8.58542 11.4448 8.10729 11.6458 7.59688 11.7875C 7.08646 11.9292 6.55417 12 6 12ZM 6 0.8C 5.52083 0.8 5.06042 0.8625 4.61875 0.9875C 4.17708 1.1125 3.76354 1.2875 3.37812 1.5125C 2.99271 1.7375 2.64167 2.00833 2.325 2.325C 2.00833 2.64167 1.7375 2.99271 1.5125 3.37812C 1.2875 3.76354 1.1125 4.17812 0.9875 4.62187C 0.8625 5.06562 0.8 5.525 0.8 6C 0.8 6.475 0.8625 6.93438 0.9875 7.37813C 1.1125 7.82188 1.2875 8.23646 1.5125 8.62187C 1.7375 9.00729 2.00833 9.35833 2.325 9.675C 2.64167 9.99167 2.99271 10.2625 3.37812 10.4875C 3.76354 10.7125 4.17708 10.8875 4.61875 11.0125C 5.06042 11.1375 5.52083 11.2 6 11.2C 6.475 11.2 6.93438 11.1375 7.37813 11.0125C 7.82188 10.8875 8.23646 10.7125 8.62187 10.4875C 9.00729 10.2625 9.35833 9.99167 9.675 9.675C 9.99167 9.35833 10.2625 9.00729 10.4875 8.62187C 10.7125 8.23646 10.8875 7.82292 11.0125 7.38125C 11.1375 6.93958 11.2 6.47917 11.2 6C 11.2 5.525 11.1375 5.06562 11.0125 4.62187C 10.8875 4.17812 10.7125 3.76354 10.4875 3.37812C 10.2625 2.99271 9.99167 2.64167 9.675 2.325C 9.35833 2.00833 9.00729 1.7375 8.62187 1.5125C 8.23646 1.2875 7.82188 1.1125 7.37813 0.9875C 6.93438 0.8625 6.475 0.8 6 0.8ZM 5.6 4.8L 6.4 4.8L 6.4 8.8L 5.6 8.8L 5.6 4.8ZM 5.6 3.2L 6.4 3.2L 6.4 4L 5.6 4L 5.6 3.2Z"/>
</defs>
</svg>
