<svg xmlns="http://www.w3.org/2000/svg" viewBox="0 0 636 300"><title>swimlane-welcome-to-the-community</title><path d="M582.53,288.782H26.579a4.092,4.092,0,0,1-3.98-4,4,4,0,0,1,3.98-4H582.53a3.919,3.919,0,0,1,3.98,3.857c0,.047,0,.095,0,.143A4,4,0,0,1,582.53,288.782Z" fill="#b2b2b2"/><path d="M84.46,80.05l-5.529-7.783s-15.39-35.022-16.6-39.835S51.59,22.294,55.994,38.064,68.589,77.8,70.433,81.17a89.827,89.827,0,0,0,5.633,8.388Z" fill="#bb9167"/><path d="M64.569,265.788l-5.738,11.678s-11.452,1.226-8.064-1.661,6.585-15.115,6.585-15.115Z" fill="#bb9167"/><path d="M104.418,263.306c-.551,9.259-.284,6.187-1.826,13.971s7.11,2.921,8.725-3.556,3.865-16.129,3.865-16.129S104.972,254.043,104.418,263.306Z" fill="#bb9167"/><path d="M58.788,277.655l-1.319,5.115a3.14,3.14,0,0,1-2.781,1.695l-12.469.755a64.406,64.406,0,0,1-8.031-.566c-2.441-.755-.83-2.455-.241-2.455,2.238-.189,7.936-2.472,12.42-3.982C50.07,276.9,58.788,277.655,58.788,277.655Z" fill="#505050"/><path d="M59.621,273.3c-.442,1.715-.391,3.227-.783,4.174-.391,1.51-15.258,3.037-15.258,3.037-.435,0-2.326-.583-1.408-.771,3.712-1.322,11.642-4.91,11.989-6.815Z" fill="#bb9167"/><path d="M102.437,277.277l-1.483,5.116c-.187,1.322.6,1.888,1.957,2.077l12.634,1.323a76.1,76.1,0,0,0,8.857.189c2.964-.566,2.152-2.267,1.581-2.456-2.255-.378-6.93-2.832-10.65-4.736C111.977,277.277,102.437,277.277,102.437,277.277Z" fill="#505050"/><path d="M104.14,273.106c-.444,1.715-1.352,3.416-1.548,4.174-.391,1.511,14.284,3.982,14.284,3.982.311,0,2.608-.378,1.916-.755-3.2-1.527-8.711-3.864-7.054-8.484Z" fill="#bb9167"/><path d="M85.485,169.55c-8.053,29.7-32.36,99.331-32.36,99.331H67.872S86.2,235.42,93.888,213.789c3.677-10.357,10.239-31.335,10.239-31.335l2.4.09s1.493,26.33.674,36.776-6.816,49.564-6.816,49.564h13.74s10.751-52.635,11.335-56.729,4.043-28.681,4.68-44.033S93.538,139.853,85.485,169.55Z" fill="#b2b2b2"/><path d="M129.688,174.938c.125-1.25.261-2.36.444-6.822.634-15.352-35.413-33.148-43.465-3.449-.72,2.661-1.485,6.571-1.854,7.4C98.563,172.75,115.375,173.625,129.688,174.938Z" fill="#939393"/><polygon points="96.992 97.599 130.012 93.772 126.789 53.811 93.77 57.637 96.992 97.599" fill="#080001"/><path d="M69.762,19.725a48.714,48.714,0,0,0-4.137,2.893s-1.128-9.8-1.35-13.386c-.152-2.478-1.852-2.067-2.072.07-.293,2.842-.382,7.855-.382,7.855s-.687-5.869-.783-8.94c-.074-2.347-2.107-1.738-2.283.757-.3,4.288-.162,9.383-.162,9.383S57.42,11.89,57.387,9.721s-2.178-1.565-2.413.84c-.014,1.977.077,5.086.16,7.986a38.015,38.015,0,0,1-.947-5.042c-.261-2.3-2.207-1.482-2.232.881a94.917,94.917,0,0,0,1.7,14.651,8.746,8.746,0,0,0,.872,2.88c3,6.636,7.031,1.919,7.031,1.919a18.6,18.6,0,0,0,4.709-6.587c1.056-2.347,6.006-6.968,6.006-6.968S71.659,18.894,69.762,19.725Z" fill="#bb9167"/><path d="M175.351,127.766a120.491,120.491,0,0,1-24.573,1.727l-7.094-21.748-13.209,5.447L141.7,137.624c1.035,2.146,2.474,4.844,7.526,4.414,9.809-.83,23.967-5.555,23.967-5.555S182.962,126.287,175.351,127.766Z" fill="#bb9167"/><polygon points="147.281 119.317 135.933 124.918 137.706 128.829 148.583 122.708 147.281 119.317" fill="#aa7f5b"/><path d="M150.833,118.917c-3.083-7.584-5.833-15-7.385-18.594s-2.865-5.406-5.448-6.406c-3.8-1.472-21.447-8.027-21.447-8.027l-10.3.376-5.73,2.035c-6,2.132-17.316-10.81-17.316-10.81L70.5,86.5S87.177,109,86.844,123.1h0L83.2,170s17.734-.312,23.609-.312,24.812.5,24.812.5l2.875-48.021,1.917,4.166S145.25,122.083,150.833,118.917Z" fill="#ffb900"/><path d="M125.667,65.739c2.376-4.259.908-13.529.908-13.529-.681-8.441-8.09-14.654-17.253-13.592-9.36,1.085-16.354,8.968-15.673,17.408,0,0,.441,9.93,6.635,14.656h0Z" fill="#080001"/><path d="M123.765,57.979a2.45,2.45,0,0,1,2.056-1.507s1.994-.047,1.554,3.442l-.4,1.689-.227,1.657-.6,1.7-.27,1.117a4.032,4.032,0,0,0-.211,1.851,2.142,2.142,0,0,1-1.117,1.937s-1.087-.058-1.265-.037c0,0-.04-2.723-1.078-10.944Z" fill="#bb9167"/><path d="M100.08,65.988c-.59-2.842-1.928-10.3.587-10.6s.521-7.133.521-7.133l-4.357,6.676.744,9.175C97.7,65.719,100.08,65.988,100.08,65.988Z" fill="#080001"/><path d="M123.287,65.468c.124-2.907-1.729-19.209-1.729-19.209l2.679-.488.5,6.108.885,10.966C125.759,64.643,123.287,65.468,123.287,65.468Z" fill="#080001"/><path d="M122.645,53.029,110.757,63.207,97.989,55.883C97.231,62.32,99.41,73.5,99.41,73.5a6.726,6.726,0,0,0,3.541,4.971c3.023,2.412,7.433,4.911,9.732,4.644,3.78-.438,11.76-7.8,11.34-13.013C124.022,70.1,124.416,59.173,122.645,53.029Z" fill="#bb9167"/><path d="M97.791,57.913a11.969,11.969,0,0,0,13.024,10.809c.183-.017.366-.039.549-.064a12.909,12.909,0,0,0,11.619-13.664c-.537-6.65-6.551-11.393-13.574-10.58C102.579,45.205,97.254,51.265,97.791,57.913Z" fill="#bb9167"/><path d="M124.3,57.739s-4.423-12.007-9.2-12.536l-5.407-4.1,14.389,5.049,1.816,6.678Z" fill="#080001"/><path d="M116.244,61.566a.824.824,0,0,0,.981.8.889.889,0,0,0,.826-.947c0-.022,0-.045-.007-.067a.816.816,0,0,0-.824-.809.751.751,0,0,0-.142.014.887.887,0,0,0-.84.934C116.239,61.519,116.241,61.543,116.244,61.566Z"/><path d="M104.012,62.983a.821.821,0,0,0,.967.807.893.893,0,0,0,.842-.941c0-.025,0-.05-.008-.076a.819.819,0,0,0-.832-.808.736.736,0,0,0-.148.015.885.885,0,0,0-.827.94Q104.008,62.952,104.012,62.983Z"/><path d="M119.477,45.239s-3.494,6.206-9.894,8.035c0,0-6.565,1.846-7.989,6.736,0,0-1.317,3.965-3.581,5.134l-1.13-14.013L108.5,42.155Z" fill="#080001"/><path d="M115.813,47.109s7.517,5.478,7.99,13.58l.647-10.04-4.73-6.891-5.075.226Z" fill="#080001"/><path d="M107.648,58.416l.178-.022-.015-.182a7.065,7.065,0,0,0-6.008-.205c-.179.021-.179.021-.165.2l.178-.022s3.365-1.117,5.834.231Z" fill="#080001"/><path d="M114.478,57.624h0a8.646,8.646,0,0,1,5.686-1.567l.193-.022c-.013-.176-.013-.176-.207-.154a7.2,7.2,0,0,0-5.864,1.58l.014.183Z" fill="#080001"/><path d="M110.766,62.071l.57,6.228c2.731-.058,2.709-.314,2.709-.314-.895-1.728-1.657-2.163-1.824-3.985C112.148,63.218,111.494,61.986,110.766,62.071Z" fill="#d2b69b"/><path d="M113.686,68.027l-2.351.272-2.514.292a.889.889,0,0,0-.827.949c0,.024,0,.047.007.071a.639.639,0,0,0,.221.514,1.429,1.429,0,0,1,.869-.462,1.614,1.614,0,0,1,1.338.752,1.041,1.041,0,0,0,1.117.41,1.273,1.273,0,0,0,1.043-.66,1.76,1.76,0,0,1,1.191-1.045,2.147,2.147,0,0,1,.923.254c-.014-.176.149-.378.135-.555a.968.968,0,0,0-1.109-.8Z" fill="#a37957"/><path d="M120.554,86.1s-.236-1.823-.527-7.809c-2.434,2.6-5.427,4.6-7.344,4.825-2.033.236-5.709-1.691-8.629-3.808l.61,7.552s-1.726.579-3.6,1.2c0,0,1.776,5.436,11.062,6.521,7.917.926,12.375-5.771,12.375-5.771S121.184,87.255,120.554,86.1Z" fill="#bb9167"/><path d="M112.682,83.115c-2.033.236-5.71-1.691-8.629-3.808l.241,2.979c1.692,1.439,4.88,3.675,8.223,3.509,2.893-.144,5.728-2.452,7.675-4.425-.079-.8-.077-1.652-.165-3.082C117.592,80.889,114.6,82.9,112.682,83.115Z" fill="#a37957"/><path d="M105.818,73.484a22.612,22.612,0,0,0,11.983-.695s-1.955,5.76-5.679,5.833C108.2,78.7,106.5,75.153,105.818,73.484Z" fill="#e81123"/><path d="M105.818,73.484a22.612,22.612,0,0,0,11.983-.695s-1.974,4.11-5.7,4.185C108.176,77.052,106.5,75.153,105.818,73.484Z" fill="#fff"/><path d="M518.5,284.782h48.14a7.317,7.317,0,0,0,7.106-6.43l3.483-33.14a5.682,5.682,0,0,0-4.883-6.382,5.767,5.767,0,0,0-.871-.048h-48.14a7.317,7.317,0,0,0-7.106,6.43l-3.483,33.14a5.682,5.682,0,0,0,4.883,6.382A5.767,5.767,0,0,0,518.5,284.782Z" fill="#939393"/><path d="M521.5,284.782h48.14a7.317,7.317,0,0,0,7.106-6.43l3.483-33.14a5.682,5.682,0,0,0-4.883-6.382,5.767,5.767,0,0,0-.871-.048h-48.14a7.317,7.317,0,0,0-7.106,6.43l-3.483,33.14a5.682,5.682,0,0,0,4.883,6.382A5.767,5.767,0,0,0,521.5,284.782Z" fill="#737373"/><path d="M559.454,238.782c.017.332.036.663.036,1,0,7.72-4.486,14-10,14s-10-6.28-10-14c0-.337.019-.668.036-1h-2c-.016.333-.038.663-.038,1,0,8.822,5.383,16,12,16s12-7.178,12-16c0-.337-.023-.667-.038-1Z" fill="#939393"/><path d="M228.538,158.928c-2.546.573-5.6,1.087-8.3,1.5l-3.4,20.237,16.129-.336Z" fill="#f6cba7"/><path d="M229.151,161.888l-.613-2.96c-2.546.573-5.6,1.087-8.3,1.5l-.766,4.561Z" fill="#ddb694"/><polygon points="445.817 215.782 524.806 216.255 534.009 284.782 530.847 284.782 522.118 219.782 490.098 219.436 498.873 284.782 495.522 284.782 486.793 219.782 448.329 219.366 435.736 284.782 432.532 284.782 445.817 215.782" fill="#939393"/><path d="M499.189,130.5c8.144-.313,21.886,0,27.56,0s8.444.475,8.319,5.7c-.321,13.3-2.528,59.806-3.219,70.485-.367,5.673-4.238,9.968-13.154,10.1H439.1a10.608,10.608,0,0,1,10.084-9h26.1c0,.559,12.63-57.344,14.339-65.417C491.426,133.821,493.843,130.7,499.189,130.5Z" fill="#b2b2b2"/><path d="M519.688,129.945c-18.668,5.764-31.2-19.045-31.2-19.045V94.863l24.038-.752.256,1.754C512.784,114.91,512.784,123.43,519.688,129.945Z" fill="#8e562e"/><path d="M437.49,285.782v-11H425.648a15.666,15.666,0,0,0-14.742,11Z"/><path d="M425.78,273.782c-6.774,0-11.283,3.2-14.46,8h18.43a8.891,8.891,0,0,0,8.735-8Z" fill="#d0b28d"/><path d="M460.49,193.782v-1H443.953c-10.476,1.066-18.908,11.681-19.462,21.79h0v1.011c.3,49.975.411,57.84.43,58.813a.118.118,0,0,0,.116.12h.006c3.745-.021,11.555,0,12.551,0a.117.117,0,0,0,.115-.117c4.058-50.073,4.2-61.659,4.2-62.931a.123.123,0,0,1,.121-.125h0c11.146,0,29.269.25,29.269.25,10.94,0,19.592-7.07,19.666-17.86,0-.075-.062-.139-.136.048Z" fill="#666"/><path d="M479.49,194.782v-1H464.969c-10.476.959-18.908,11.7-19.479,21.939h0V274.7c6.1.045,13.49.045,13.49.045,3.284-41.777,3.857-56.511,3.941-61.214a2,2,0,0,1,2.022-1.974c6.6.058,27.151.238,27.365.238,10.987,0,19.675-6.3,19.675-17.01Z" fill="#666"/><path d="M459.49,285.782v-11H447.784a15.792,15.792,0,0,0-14.877,11Z"/><path d="M446.629,273.782a17.414,17.414,0,0,0-14.824,8h18.941a9.1,9.1,0,0,0,9.059-8Z" fill="#d0b28d"/><path d="M502.49,124.744V109.782h-14.5l-.25,14.75a1.88,1.88,0,0,1-1.75,1.25h-4.5v32h29v-32h-6.963A1.041,1.041,0,0,1,502.49,124.744Z" fill="#d0b28d"/><path d="M502.49,118.335v-9.553H488.006l-.256,15.126C500.312,123.908,502.49,118.335,502.49,118.335Z" fill="#b89e7c"/><path d="M485.355,125.782H482.49v23.79c-.208.253.265.5.028,1.21h.236c0,.053.236.053.735-.2v-.506C482.755,141.989,485.25,126.75,485.355,125.782Z" fill="#b89e7c"/><path d="M468.056,193.782s18.386,21.744,44.434,21.744V193.782Z" fill="#ff8c00"/><path d="M510.275,125.782h-6.692c-5.4,9.346-11.84,18.39-20.333,24.453-1.544-7.578-.772-16.117.772-24.453h-1.287c-9.523,0-17.245,8.286-17.245,17.38v11.62h3v40h44v-40h14v-12.63C526.233,133.563,519.026,125.782,510.275,125.782Z" fill="#ff8c00"/><path d="M469.49,155.075v39.707H488.4Z" fill="#f0ae00"/><path d="M526.49,153.782h-14v8.454a1.667,1.667,0,0,1-1.3,1.53c-5.409,1.833-27.974,8.386-27.974,8.386-18.926,0-19.73,10.485-19.73,10.485,9.481-.152,20.936-3.092,20.936-3.092,13.608-.84,35.324-3.793,35.324-3.793a7.809,7.809,0,0,0,6.741-7.905Z" fill="#d0b28d"/><polygon points="526.49 157.563 526.49 153.782 513.254 153.782 526.49 157.563" fill="#b89e7c"/><ellipse cx="481.258" cy="101.674" rx="5.2" ry="4.727" fill="#d0b28d"/><circle cx="477.476" cy="104.983" r="1.418" fill="#e81123"/><path d="M508.157,96.553c2.872,0,5.717,2.51,5.717,5.121a5.224,5.224,0,0,1-10.4,0A4.863,4.863,0,0,1,508.157,96.553Z" fill="#d9c1a4"/><circle cx="512.456" cy="104.983" r="1.418" fill="#e81123"/><path d="M510.092,88.813a18.746,18.746,0,0,0-14.778-6.743c-13.249,0-21.147,14.235-15.8,25.972a21.705,21.705,0,0,0,6.37,9.24,11.486,11.486,0,0,0,3.567,2.5c4.331,1.748,8.153.5,11.72-1.5a55.782,55.782,0,0,0,4.586-3.5,9.161,9.161,0,0,0,3.567-7.242Z" fill="#d0b28d"/><path d="M481.925,93.362a30.1,30.1,0,0,1,4.491-10.609c-5.672,3.031-8.509,9.346-8.509,16.671,0,6.567,1.418,11.114,6.381,16.418C480.979,109.528,480.507,99.929,481.925,93.362Z" fill="#d9c1a4"/><path d="M495.348,76.148c-9.937,0-18.09,8.751-18.345,19.888,2.293,1.061,3.312,1.591,5.86,1.591,8.153,0,15.033-5.834,17.58-14.054,1.628,4.838,3.571,10.044,8.742,12.932.494.276,1.314.585,1.87.816a1.31,1.31,0,0,0,1.725-1.456C512.271,84.994,505.54,76.148,495.348,76.148Z" fill="#8e562e"/><path d="M491.49,107.782v-7.563c-.709,0-1.182.709-1.418,1.418l-.473,6.145Z" fill="#d9c1a4"/><path d="M489.294,107.782a3.19,3.19,0,0,0,2.836,1.891,2.956,2.956,0,0,0,2.836-1.891Z" fill="#b89e7c"/><path d="M493.116,110.183a1.079,1.079,0,0,0-.987,1.018c-.247-.509-.74-1.018-.987-1.018a11.163,11.163,0,0,0-4.686,1.018c.74,3.309,2.959,5.6,5.672,5.6s4.933-2.291,5.672-5.6A11.166,11.166,0,0,0,493.116,110.183Z" fill="#ee4d5a"/><path d="M486.457,111.782a6.145,6.145,0,0,0,11.345,0Z" fill="#b89e7c"/><path d="M486.457,111.782c.74,1.654,2.959,2.836,5.672,2.836s4.933-1.182,5.672-2.836Z" fill="#fff"/><circle cx="485.039" cy="100.256" r="1.418"/><circle cx="499.22" cy="100.256" r="1.418"/><path d="M484.374,138.782H434.089a1.2,1.2,0,0,0-1.289,1.548l6.189,38.452H492.11l-6.189-38.968A1.415,1.415,0,0,0,484.374,138.782Z" fill="#939393"/><path d="M491.49,180.782h15.584a.481.481,0,0,0,.416-.473v-1.418a.481.481,0,0,0-.416-.473l-15.584-.626Z" fill="#666"/><path d="M491.958,180.782H439.787a1.208,1.208,0,0,1-1.295-1.11,1.3,1.3,0,0,1,0-.14v-1.75h53.468Z" fill="#464646"/><polygon points="352.49 275.719 352.49 266.958 338.645 269.662 335.4 279.613 352.49 275.719" fill="#6597bf"/><path d="M189.71,132.81c-7.843-.3-21.079,0-26.544,0s-8.133.457-8.012,5.486c.309,12.811,2.471,61.079,3.659,71.454.352,5.464,3.523,6.032,12.11,6.032H247.59s-1.124-8-9.712-8h-25.14s-12.164-55.768-13.81-63.543C197.186,136.01,194.858,133.008,189.71,132.81Z" fill="#b2b2b2"/><path d="M216.047,161.033a128.859,128.859,0,0,0,14.908-2.717c-1.821-9.59-4.97-25.269-5.423-27.167-2.551-10.68-13.721-3.921-12.434,2.869C213.847,137.973,215.074,150.7,216.047,161.033Z" fill="#a996f0"/><polygon points="253.38 215.782 163.786 216.248 153.348 283.782 156.984 283.782 166.876 219.782 203 220 193.216 283.782 197.014 283.782 206.906 219.782 250 220 264.764 283.782 268.447 283.782 253.38 215.782" fill="#939393"/><polygon points="238.523 272.489 239.411 263.927 252.667 267.972 254.83 278.026 238.523 272.489" fill="#bcbec0"/><path d="M238.282,271.716a69.917,69.917,0,0,0,8.442,2.051c2.537.263,3.7-5.687,8.078-2.688s3.9,4.526,14.144,9.907c3.546,1.864-1.106,4.48-1.106,4.48l-30.761-3.189Z" fill="#414042"/><polygon points="222.49 275.043 222.49 266.435 236.093 269.092 239.281 278.869 222.49 275.043" fill="#bcbec0"/><path d="M240.622,194.782h9.565c4.889,0,14.914,1.664,13.923,13.947-1.456,18.034-9.005,60.933-9.005,60.933l-16.757-2.576s5.357-50.836,3.656-52.324-13.284-2.976-13.284-2.976l2.019-17Z" fill="#6d6e71"/><path d="M158.947,206.947c.921-10.537,5.835-56.421,7.594-69.545.69-5.152,3.912-5.62,10.355-5.62h9.594s-.643,56.61-.643,64.97c0,7.227,3.366,10.287,8.433,10.984a9.765,9.765,0,0,0,1.911.046s43.87.142,53.974.142,10.1,8.858,10.1,8.858H167.421C160.331,216.782,158.458,212.545,158.947,206.947Z" fill="#b2b2b2"/><path d="M196.906,119.682c-7.637-.533-11.544-8.7-11.544-8.7a40.641,40.641,0,0,1-3.2-15.273L183.231,84.7l14.031-6.926L212.18,88.6l.178,7.1a39.947,39.947,0,0,1-3.2,15.273s-4.262,9.057-12.255,8.7Z" fill="#f6cba7"/><path d="M168.393,124.893c4.887-.975,24.332-4.973,24.332-4.973l9.01.225c2.311.558,4.271.954,19.529,5.206a7.009,7.009,0,0,1,4.494,6.468c.178,3.907-7.293,61.962-7.293,61.962l-48.975-.675-.082-38.734L168.364,132.1S163.506,125.868,168.393,124.893Z" fill="#8867c8"/><path d="M196.99,127.324c-4.7,0-8.5-2.43-8.5-6.379v-6.362l17,1.2v5.164c0,3.949-3.8,6.379-8.5,6.379Z" fill="#f6cba7"/><path d="M212.375,87.987V98.542h-1.208V91.623c-6.657,3.729-16.747-8.026-24.206-3.408.581,4.618-2.753,8.41-2.753,8.41l-.541.292-1.459-1.459.282-7.47v-.359c.172-7.718,6.178-11.846,13.385-11.846h2.4C207.842,75.783,212.375,83,212.375,87.987Z" fill="#737373"/><path d="M203.292,105.782c0,.533-.355.888-1.066.888-.178,0-.178.355-.533.533a1.918,1.918,0,0,1-1.243.533,1.614,1.614,0,0,1-1.243-.533c-.355-.178-.533-.533-.71-.533a.838.838,0,0,1-.888-.787.851.851,0,0,1,0-.1Z" fill="#c09f81"/><path d="M200.49,98.371v7.411h-2.882a.7.7,0,0,1,.355-.307,14.833,14.833,0,0,0,1.527-2.486V99.614c.052-.947.6-1.243.96-1.243Z" fill="#ddb694"/><path d="M205.49,118.079l-.181.181c-2.351,1.989-5.606,2.713-9.585,2.351-3.074-.181-7.234-2.986-7.234-2.986v-2.292a15.311,15.311,0,0,0,7.234,3.469c4.16.362,7.415-.723,9.766-2.894Z" fill="#ddb694"/><path d="M206.666,110.625a27.8,27.8,0,0,1-12.7,0s2.868,3.019,6.349,3.019S206.666,110.625,206.666,110.625Z" fill="#fff"/><path d="M174.015,171.017l16.921,1.438,8.071-4.155s6.89.774,8.773,1.449a69.857,69.857,0,0,1,7.1,3.834s1.106,3.15-5.533,2c-1.688-.292-2.075,1.255-3.671,1.727s-2.989,1.508-7.628,2.307a32.786,32.786,0,0,1-10.351-.4l-15.289-1.05Z" fill="#f6cba7"/><path d="M169.49,192.457v6.148c0,3.18-1.06,10.177,10.813,10.177h34.558l7.208,60h17.385l-4.028-74.841Z" fill="#6d6e71"/><path d="M222.6,274.154a69.875,69.875,0,0,0,8.608,1.169c2.551,0,4.424-5.848,7.758-3.507s4.35,4.1,15.091,8.4c3.72,1.488-.638,4.57-.638,4.57H222.49Z" fill="#414042"/><path d="M407.49,192.159v6.261c0,3.238,1.079,10.362-11.01,10.362H361.292l-7.792,64H335.8l4.554-79.112Z" fill="#235a89"/><path d="M128,184V285h4.159s8.317-72.989,9.565-79.643S145.883,196,155.24,196H531.08c9.366,0,12.28,2.706,13.529,9.366S554.453,285,554.453,285H558l-.27-101Z" fill="#464646"/><rect x="108.49" y="179.782" width="468" height="6" fill="#737373"/><path d="M334.954,179.782l-48.975-.094c-1.189,0-4.289-2.1-4.289-2.1l-5.89-41.65a1.828,1.828,0,0,1,1.473-2.124,1.775,1.775,0,0,1,.378-.029h52.012a2.562,2.562,0,0,1,2.456,2.153L338.061,178C338.228,179.193,336.143,179.782,334.954,179.782Z"/><path d="M334.129,175.782H285.072a1.46,1.46,0,0,1-1.4-1.217L278.393,137a1.043,1.043,0,0,1,1.058-1.217H328.5a1.474,1.474,0,0,1,1.414,1.229l5.278,37.554a1.041,1.041,0,0,1-.85,1.2A1.018,1.018,0,0,1,334.129,175.782Z" fill="#c8c8c8"/><polygon points="332.669 172.782 285.783 172.782 280.864 137.782 327.751 137.782 332.669 172.782" fill="#eaeaea"/><polygon points="329.167 146.782 282.125 146.782 280.873 137.782 327.872 137.782 329.167 146.782" fill="#939393"/><path d="M369.89,107.421l1.365,12.492L355.9,125.9l-1.863-17.048C356.989,105.191,368.5,103.176,369.89,107.421Z" fill="#8c562f"/><path d="M363.146,73.34c-7.842-.742-17.113,2.021-18.67,5.06s-1.285,22.531,2.992,30.1,16.229,4.1,21.392,3.321c6.939-1.042,8.787-7.665,9.711-13.365s.623-14.005-1.783-17.651S370.1,74,363.146,73.34Z" fill="#8e562e"/><path d="M378.571,98.454c.924-5.7.623-14-1.783-17.651S370.1,74,363.146,73.34c-7.842-.742-17.113,2.021-18.67,5.06-.454.886-.752,3.179-.84,6.161a11.037,11.037,0,0,1,4.069.752c2.735,1.208,2.988,3.22,4.552,5.664s3.428,2.253,3.428,2.253l-.354-2.773s6.082-.984,6.813,3.607c.588,3.692-3.445,4.818-3.445,4.818s.5,2.759,1.042,7.567c.3,2.607,4.358,5.379,8.644,5.45.158-.026.329-.057.476-.079C375.8,110.778,377.647,104.154,378.571,98.454Z"/><polygon points="321.49 275.719 321.49 266.958 307.645 269.662 304.4 279.613 321.49 275.719" fill="#6597bf"/><path d="M321.384,275.126a70.056,70.056,0,0,1-8.631,1.172c-2.557,0-4.262-3.516-4.262-3.516h-3.516s-4.362,4.11-15.131,8.418c-3.73,1.492.639,4.582.639,4.582H321.49Z" fill="#414042"/><path d="M334.42,195.782h-9.714c-4.965,0-10.81,1.146-12.3,13.272-2.051,16.642-7.524,63.728-7.524,63.728h17.7s8.711-55.723,10.438-57.2,32.015-2.949,32.015-2.949l-2.051-16.853Z" fill="#235a89"/><path d="M348.49,178.329a1.5,1.5,0,0,1-1.5,1.5H283.66c-1.077,0-1.741-.96-1.967-2.07l-.089-.93H348.49Z" fill="#394453"/><path d="M353.384,275.126a70.056,70.056,0,0,1-8.631,1.172c-2.557,0-4.262-3.516-4.262-3.516h-3.516s-4.362,4.11-15.131,8.418c-3.73,1.492.639,4.582.639,4.582H353.49Z" fill="#414042"/><path d="M374.369,118.088c-7.745-1.369-22.976,1.479-22.976,1.479s3.366-5.125,11.571-5.813S372.279,115.542,374.369,118.088Z" fill="#99bcd7"/><path d="M334.313,130.744a7.952,7.952,0,0,1,4.574-6.983c6.945-2.912,17.361-5.5,19.714-6.273a41.217,41.217,0,0,1,12.377-.5s17.741,3.875,20.061,4.759a7.124,7.124,0,0,1,4.585,4.2s9.249,27.822,10.876,33.1l-45.435,46.708-17.473-4.928S334.132,134.736,334.313,130.744Z" fill="#45779e"/><polygon points="327.291 215.782 406.281 216.255 415.484 285.782 412.646 285.782 404.187 219.782 371.602 219.782 380.455 284.782 377.08 284.782 368.64 219.782 330.131 219.782 316.887 284.782 314.007 284.782 327.291 215.782" fill="#939393"/><path d="M367.865,129.943c8.1-.313,21.886,0,27.56,0s8.511.475,9.119,5.7c1.549,13.3,5.877,59.806,6.687,70.485.431,5.673-2.837,9.968-11.754,10.658h-79.6c0-.69,0-9,8.916-9h26.1s4.492-57.9,5.066-65.973C360.57,133.265,362.549,130.148,367.865,129.943Z" fill="#b2b2b2"/><path d="M257.7,177.782l6.208-44.176a1.548,1.548,0,0,0-1.246-1.8,1.578,1.578,0,0,0-.322-.024H236.77a2.171,2.171,0,0,0-2.08,1.824l-6.209,44.176Z" fill="#666"/><path d="M236.789,134.61a2.175,2.175,0,0,1,2.085-1.828h24.918s-.033-1-1.538-1h-25.63a2.171,2.171,0,0,0-2.08,1.824l-6.209,44.176h2.387Z" fill="#999"/><path d="M195.49,176.782h62v1.434a1.566,1.566,0,0,1-1.566,1.566H197.515a2.025,2.025,0,0,1-2.025-2.025v-.975Z" fill="#231f20"/><path d="M189.649,95.782s6.394-1.243,7.637,0Z" fill="#505050"/><path d="M209.185,95.782s-6.394-1.243-7.637,0Z" fill="#505050"/><path d="M193.556,98.9a.858.858,0,0,1-.03-1.213l.03-.03a1.074,1.074,0,0,1,1.421,0,.858.858,0,0,1,.03,1.213l-.03.03C194.444,99.433,193.911,99.433,193.556,98.9Z" fill="#505050"/><path d="M204.568,99.081a1.081,1.081,0,0,1,0-1.421.858.858,0,0,1,1.213-.03l.03.03a.83.83,0,0,1,.279,1.141.821.821,0,0,1-.279.28.858.858,0,0,1-1.213.03Z" fill="#505050"/><polygon points="323.578 171.782 330.345 171.782 327.043 148.782 320.176 148.782 323.578 171.782" fill="#c8c8c8"/><polygon points="321.43 171.782 318.192 148.782 294.288 148.782 297.691 171.782 321.43 171.782" fill="#c8c8c8"/><polygon points="292.315 148.782 284.701 148.782 288.003 171.782 295.552 171.782 292.315 148.782" fill="#c8c8c8"/><path d="M319.235,171.241l-6.662.877-7.7-3.629a67.069,67.069,0,0,0-8.173,1.644,65.55,65.55,0,0,0-6.528,3.826s-.933,2.987,5.249,1.692c1.572-.329,1.986,1.108,3.5,1.5a32.318,32.318,0,0,0,7.22,1.912,37.693,37.693,0,0,0,10.158-.537l4.84-.674Z" fill="#8e562e"/><path d="M347.175,140.786c.448-11.425-11.442-21.658-13.164-10.392-.457,2.988-5.845,34.486-5.845,34.486l-16.375,6.592,1.545,9.115c-.48.134,16.148-1.979,21.292-4.056,3.138-1.267,6.573-5.224,6.962-8.566C341.831,165.891,346.9,147.928,347.175,140.786Z" fill="#6597bf"/><path d="M162.533,129.691h.014a7.174,7.174,0,0,1,6.2-4.8c3.907-.355,7.329,7.493,5.946,15.872-1.527,4.432-7.043,20.336-8.464,25.131-3.931-2.414-15.548-5.9-15.548-5.9C152.281,154.673,161.112,133.954,162.533,129.691Z" fill="#a996f0"/><path d="M162.845,169.91l1.7-4.9a112.725,112.725,0,0,0-12.18-4.486c-.8,1.987-2.185,5.471-3.229,8.209-1.549,4.066-.6,10.689,7.566,11.158,9.165.527,30.991-.674,30.991-.674l3.238-6.762Z" fill="#f6cba7"/><path d="M163.6,167.754l.955-2.745a112.725,112.725,0,0,0-12.18-4.486c-.228.569-.508,1.269-.811,2.031Z" fill="#ddb694"/><path d="M247,167.75a1.584,1.584,0,0,1,1.406-1.75H251v7h-2.471A1.68,1.68,0,0,1,247,171.25Zm-2,1.047v2.479A3.562,3.562,0,0,0,248.319,175H251v3.31a.629.629,0,0,0,.565.687.594.594,0,0,0,.073,0H252v1h13v-1h.3a.722.722,0,0,0,.7-.824V161.8a.782.782,0,0,0-.657-.8H251.638a.736.736,0,0,0-.638.722V164h-2.959A2.84,2.84,0,0,0,245,167.19Z" fill="#ff8c00"/><path d="M542.49,178.144a1.753,1.753,0,0,0-.855.638h-8.709c-.2-.323-.41-.425-.436-.638v-.52c.026-.2.231-.418.436.158h8.709c.214-.576.419-.363.855-.158Z" fill="#c9ad74"/><path d="M545.381,174H528.513a.513.513,0,0,1-.513-.513h0v-6.856a.633.633,0,0,1,.631-.631h16.745a.626.626,0,0,1,.624.624v6.754A.624.624,0,0,1,545.381,174Z" fill="#939393"/><path d="M545.994,172.831c0,3.019-3.94,5.526-8.812,5.526s-8.709-2.508-8.709-5.526c0-3.13,3.829-5.629,8.709-5.629S545.994,169.7,545.994,172.831Z" fill="#939393"/><path d="M544.123,175.227l-.513-1.458c1.863-.734,3.94-1.569,4.248-1.774.2-.1.316-.1.521-.2.829-.316,1.966-.836,1.453-3.027a1.139,1.139,0,0,0-.624-.938c-1.034-.52-3.008.315-3.53.733l-.829-1.458c.316-.111,3.009-1.569,4.983-.733a2.707,2.707,0,0,1,1.555,2.081c.829,3.445-1.453,4.384-2.385,4.8a.359.359,0,0,0-.214.1A46.518,46.518,0,0,1,544.123,175.227Z" fill="#939393"/><path d="M550.764,177.782c0,1.151-6.12,2.089-13.684,2.089-7.47,0-13.59-.938-13.59-2.089Z" fill="#939393"/><path d="M539.443,173.035a2.834,2.834,0,0,1-3.316.734s.616-2.712,2.171-3.855a6.992,6.992,0,0,0-2.795,3.642,2.437,2.437,0,0,1,.2-3.335c1.034-1.458,2.8-1.978,3.838-1.143C540.682,169.914,540.58,171.577,539.443,173.035Z" fill="#c2c2c2"/><path d="M181.362,95.3s-1.648.178-1.1,2.841l1.647,4.8a7.13,7.13,0,0,1,.366,1.6,1.118,1.118,0,0,0,.915,1.243h1.1c-.106-2.961-.726-5.412-.5-8.366A2.359,2.359,0,0,0,181.362,95.3Z" fill="#f6cba7"/><rect x="183.625" y="93.458" width="1.292" height="5.25" fill="#737373"/></svg>