<svg xmlns="http://www.w3.org/2000/svg" viewBox="0 0 636 300"><defs><style>.a{fill:#e5a500}.b{fill:#ffb800}.c{fill:#ff8b00}.d{fill:#fff}.e{fill:#282828}.f{fill:#505050}.g{fill:#fff9f8}.h{fill:#479cdf}.i{fill:#0078d6}.j{fill:#231f20}.k{fill:#737374}.l{fill:#3346a5}.m{fill:#ffc633}.n{fill:#333}.o{fill:#3393de}.p{fill:#8f8f90}.q{fill:#8fc3ec}.r{fill:#00188e}.s{fill:#5c6bb7}.t{fill:#5ca9e5}.u{fill:#ffd15c}.v{fill:#006cc0}.w{fill:#e5e5e5}.x{fill:#939393}.y{fill:#750000}.z{fill:#c2c2c2}.aa{fill:#a80000}.ab{fill:#737373}.ac{fill:#565656}.ad{fill:#212121}.ae{fill:#f0ae00}.af{fill:#b2b2b2}.ag{fill:#d2d2d2}.ah{fill:#45779e}.ai{fill:#787878}.aj{fill:#474747}.ak{fill:#767676}.al{fill:#5e5e5e}.am{fill:#171717}.an{fill:#2f2f2f}.ao{fill:#979797}.ap{fill:#373738}.aq{fill:#181818}.ar{fill:#6d6d6d}.as{fill:#4d4d4d}.at{fill:#545454}.au{fill:#535353}</style></defs><title>swimlane-universal-windows-platform</title><path class="a" d="M359.983 156.524a2.292 2.292 0 0 0-1.34 2.879 2.155 2.155 0 0 0 2.9 1.326 2.292 2.292 0 0 0 1.34-2.879 2.332 2.332 0 0 0-2.9-1.326zm6.928-2.21a2.271 2.271 0 0 0-1.564 2.653 2.559 2.559 0 0 0 2.9 1.548 2.053 2.053 0 0 0 1.34-2.653 1.985 1.985 0 0 0-2.681-1.548zm7.15-1.769a2.255 2.255 0 1 0 .894 4.421 2.193 2.193 0 0 0 1.788-2.431 2.3 2.3 0 0 0-2.681-1.99zm7.375-.884c-1.12.221-2.239 1.326-2.011 2.431a1.919 1.919 0 0 0 2.239 1.99 2.226 2.226 0 0 0 2.239-2.21 2.426 2.426 0 0 0-2.458-2.21zm7.383 0a2.228 2.228 0 0 0-2.239 2.21 2.19 2.19 0 0 0 2.011 2.21 2.426 2.426 0 0 0 2.46-2.21 2.226 2.226 0 0 0-2.239-2.21zm7.366.664a2.012 2.012 0 0 0-2.458 1.989 2.193 2.193 0 0 0 1.788 2.431 2.012 2.012 0 0 0 2.458-1.99 2.193 2.193 0 0 0-1.788-2.431zm7.15 1.105a2.451 2.451 0 0 0-2.687 1.769 2.294 2.294 0 0 0 1.788 2.653 2.161 2.161 0 0 0 2.691-1.769 2.349 2.349 0 0 0-1.788-2.653zm6.931 1.326a2.214 2.214 0 0 0-2.458 1.99 2.033 2.033 0 0 0 1.788 2.431 2.212 2.212 0 0 0 2.458-1.769 2.239 2.239 0 0 0-1.793-2.656zm7.145 1.1a2.678 2.678 0 0 0-2.687 1.994 2.1 2.1 0 0 0 2.011 2.431 2.212 2.212 0 0 0 2.458-1.769 2.294 2.294 0 0 0-1.788-2.653zm6.921.888a2.222 2.222 0 1 0-.446 4.421 2.423 2.423 0 0 0 2.458-1.99 2.257 2.257 0 0 0-2.011-2.431zm6.481-.221a2.293 2.293 0 0 0-1.788 2.653 2.21 2.21 0 0 0 2.458 1.769 2.375 2.375 0 0 0 2.011-2.431 2.47 2.47 0 0 0-2.681-1.99zm6.928-1.1a2.1 2.1 0 0 0-1.564 2.653 1.91 1.91 0 0 0 2.459 1.546 2.14 2.14 0 0 0 1.788-2.653 2.3 2.3 0 0 0-2.681-1.547zm6.705-1.769a1.977 1.977 0 0 0-1.34 2.653 2.006 2.006 0 0 0 2.681 1.326 1.85 1.85 0 0 0 1.34-2.653 2.006 2.006 0 0 0-2.681-1.326zM450.7 151a1.941 1.941 0 0 0-.894 2.879 1.982 1.982 0 0 0 2.9.884 1.941 1.941 0 0 0 .894-2.879 1.982 1.982 0 0 0-2.9-.884zm5.809-3.536a1.969 1.969 0 0 0-.446 3.095 2.226 2.226 0 0 0 3.575-2.653 2.054 2.054 0 0 0-3.129-.441zm4.694-4.638a2.629 2.629 0 0 0 .224 3.315 2.471 2.471 0 0 0 3.359-.441 2.168 2.168 0 0 0-.446-3.095 2.412 2.412 0 0 0-3.129.221zm3.367-5.084a1.961 1.961 0 0 0 1.564 2.653 2.006 2.006 0 0 0 2.681-1.326 2.291 2.291 0 0 0-1.34-2.879 2.357 2.357 0 0 0-2.9 1.547M153.07 233.225a2.412 2.412 0 0 0-2.011 2.431 2.128 2.128 0 0 0 2.458 1.99 2.258 2.258 0 0 0 2.011-2.431 2.425 2.425 0 0 0-2.458-1.99zm6.7-.884a2.157 2.157 0 0 0-1.564 2.653 2.036 2.036 0 0 0 2.681 1.547 2.158 2.158 0 0 0 1.564-2.653 2.185 2.185 0 0 0-2.681-1.547zm6.48-2.21a2.311 2.311 0 0 0-1.12 3.095 2.227 2.227 0 0 0 2.9 1.105 2.528 2.528 0 0 0 1.12-3.095 2.227 2.227 0 0 0-2.9-1.105zm5.586-3.315a2.169 2.169 0 0 0-.446 3.095 2.224 2.224 0 0 0 3.129.443 2.169 2.169 0 0 0 .446-3.095 2.456 2.456 0 0 0-3.129-.441zm4.469-4.638a2.321 2.321 0 0 0 .446 3.095 2.219 2.219 0 1 0 2.681-3.536 2.454 2.454 0 0 0-3.129.441zm3.577-5.534a2.184 2.184 0 0 0 1.12 2.879 2.227 2.227 0 0 0 2.9-1.105 2.337 2.337 0 0 0-1.12-2.879 2.387 2.387 0 0 0-2.9 1.105zm2.681-6.41a2.292 2.292 0 0 0 1.34 2.879 2.332 2.332 0 0 0 2.9-1.326 2.425 2.425 0 0 0-1.564-2.879 2.079 2.079 0 0 0-2.681 1.326zm2.011-6.631a2.1 2.1 0 0 0 1.564 2.653 2.006 2.006 0 0 0 2.681-1.326 2.164 2.164 0 0 0-1.564-2.879 2.3 2.3 0 0 0-2.681 1.548zm2.011-6.853a1.977 1.977 0 0 0 1.34 2.653 2.227 2.227 0 0 0 2.9-1.105 2.292 2.292 0 0 0-1.34-2.879 2.154 2.154 0 0 0-2.9 1.326zm4.245-6.852a2.117 2.117 0 0 0 0 3.095 2.449 2.449 0 0 0 3.359 0 2.348 2.348 0 0 0-.224-3.095 2.176 2.176 0 0 0-3.129 0zm6.48-4.421a2.185 2.185 0 0 0-1.12 2.879 2.584 2.584 0 0 0 3.129 1.105 2.433 2.433 0 0 0 .894-3.095 1.982 1.982 0 0 0-2.9-.884zm7.15-2.431a2.012 2.012 0 0 0-1.56 2.654 2.059 2.059 0 0 0 2.458 1.547 2.14 2.14 0 0 0 1.788-2.653 2.183 2.183 0 0 0-2.681-1.547zm7.6-.884a2.227 2.227 0 0 0-2.239 2.21 2.287 2.287 0 0 0 2.458 2.21 2.412 2.412 0 0 0 2.011-2.431 2.046 2.046 0 0 0-2.239-1.99zm7.374.221a2.214 2.214 0 0 0-2.459 1.99 2.19 2.19 0 0 0 2.011 2.21 2.012 2.012 0 0 0 2.458-1.99 1.919 1.919 0 0 0-2.011-2.21zm7.15.884a2.39 2.39 0 0 0-2.458 1.99 2.193 2.193 0 0 0 1.788 2.431 2.316 2.316 0 0 0 2.681-1.769 2.452 2.452 0 0 0-2.011-2.653zm7.15.884a2.012 2.012 0 0 0-2.458 1.99 2.135 2.135 0 1 0 4.245.441 2.079 2.079 0 0 0-1.788-2.431zm6.928.441a2.426 2.426 0 0 0-2.458 2.21 2.226 2.226 0 0 0 2.239 2.21 2.045 2.045 0 0 0 2.239-1.99 2.239 2.239 0 0 0-2.01-2.431zm6.927.221a2.4 2.4 0 0 0-2.239 2.21 2.227 2.227 0 0 0 2.239 2.21 2.1 2.1 0 0 0 2.24-2.21 2.227 2.227 0 0 0-2.24-2.21zm7.15-.221a2.42 2.42 0 0 0-2.239 2.431 2.214 2.214 0 0 0 2.458 1.99 1.92 1.92 0 0 0 2.011-2.21 2.227 2.227 0 0 0-2.239-2.21zM437.969 224.827a2.038 2.038 0 0 0 3.129.441 2.321 2.321 0 0 0 .446-3.095 2.454 2.454 0 0 0-3.129-.441 2.168 2.168 0 0 0-.446 3.095zm-4.023-6.41a2.583 2.583 0 0 0 3.129 1.105 1.941 1.941 0 0 0 .894-2.879 2.227 2.227 0 0 0-2.9-1.105 2.336 2.336 0 0 0-1.12 2.879zm-2.682-6.631a2.006 2.006 0 0 0 2.681 1.326 2.119 2.119 0 0 0 1.34-2.879 2.006 2.006 0 0 0-2.681-1.326 2.205 2.205 0 0 0-1.34 2.879zm-2.239-6.853a2.079 2.079 0 0 0 2.681 1.326 1.961 1.961 0 0 0 1.564-2.653 2.3 2.3 0 0 0-2.681-1.548 2.528 2.528 0 0 0-1.564 2.879zm-2.011-6.628a2.227 2.227 0 0 0 2.9 1.105 1.85 1.85 0 0 0 1.34-2.653 2.155 2.155 0 0 0-2.9-1.326 2.293 2.293 0 0 0-1.34 2.879zm-3.129-5.3a2.176 2.176 0 0 0 3.129 0 2.117 2.117 0 0 0 0-3.095 2.176 2.176 0 0 0-3.129 0 2.121 2.121 0 0 0 0 3.095zm-5.139-3.536a2.227 2.227 0 0 0 2.9-1.105 2.02 2.02 0 0 0-1.12-2.879 2.079 2.079 0 0 0-2.9.884 2.528 2.528 0 0 0 1.12 3.095zm-6.257-2.215a2.431 2.431 0 0 0 2.681-1.547 2.307 2.307 0 0 0-4.47-1.107 2.14 2.14 0 0 0 1.788 2.653zm-6.7-.664a2.228 2.228 0 0 0 2.239-2.21 2.19 2.19 0 0 0-2.011-2.21 2.127 2.127 0 0 0-2.458 1.99 2.42 2.42 0 0 0 2.239 2.431zm-6.918 0a1.919 1.919 0 0 0 2.011-2.21 2.012 2.012 0 0 0-2.458-1.99 2.19 2.19 0 0 0-2.011 2.21 2.214 2.214 0 0 0 2.458 1.99zm-6.928 1.105a2.193 2.193 0 0 0 1.788-2.431c0-1.326-1.12-1.99-2.458-1.99a2.294 2.294 0 0 0-1.788 2.653 1.987 1.987 0 0 0 2.458 1.769zm-7.15.886a2.6 2.6 0 0 0 2.011-2.431 2.214 2.214 0 0 0-2.467-2 2.1 2.1 0 0 0-2.011 2.431 2.268 2.268 0 0 0 2.458 1.99zm-7.382.435a2.2 2.2 0 1 0-2.23-1.99 2.046 2.046 0 0 0 2.239 1.99zm-7.14.221a2.228 2.228 0 0 0 2.239-2.21 2.4 2.4 0 0 0-2.239-2.21 2.226 2.226 0 0 0-2.239 2.21 2.1 2.1 0 0 0 2.239 2.21zm-7.374-.221a2.1 2.1 0 0 0 2.458-1.99 2.42 2.42 0 0 0-2.239-2.431 2.228 2.228 0 0 0-2.239 2.21 2.041 2.041 0 0 0 2.011 2.21"/><path class="b" d="M478.868 213.993l-.224-.221-.446-.443c-3.575-2.879-8.493-3.536-10.279-1.769v.22c-.447.221-.447.664-.447 1.105-.224 3.759 6.034 1.99 4.694 5.526-2.459 5.969-12.067 2.653-15.867 0-16.982-10.61-7.374-44.209-26.815-51.724a34.162 34.162 0 0 0-11.836-2.211 101.239 101.239 0 0 0-16.315 1.105c-14.748.441-35.977 2.431-46.707-1.105 0-.884-.224-1.989-.224-3.094q4.357-1.99 9.384-3.979a72.929 72.929 0 0 1 27.709-3.316c14.747 1.1 28.379 6.851 42.68 4.42 10.057-1.548 20.112-5.526 26.815-12.155a7.075 7.075 0 0 0 1.564-1.326 34.261 34.261 0 0 0 5.139-9.064.8.8 0 0 1 .225-.663v-.441c.224-.441.224-.664.446-1.105v-.438c.224-.442.224-.884.447-1.327a29.9 29.9 0 0 0-.224-11.714c-3.129-10.4-16.759-16.358-24.135-9.726-4.915 4.864 11.4 1.77 13.854 12.38 2.239 9.063-9.609 19.451-30.391 19.894a17.574 17.574 0 0 1-4.916-.664c-17.207-3.315-42.68-8.4-56.086-8.4a50.356 50.356 0 0 0-19.219 4.194 198.72 198.72 0 0 1-3.575-26.525 21.221 21.221 0 0 1 2.68-11.053c9.162-19.23 17.877-38.683 12.738-60.788-4.917-21-27.709-37.578-51.4-37.578h-2.011c-23.689 0-46.48 16.579-51.394 37.585-5.139 22.1 3.575 41.549 12.737 60.775a23.647 23.647 0 0 1 2.681 11.053 193.005 193.005 0 0 1-3.575 26.3 53.687 53.687 0 0 0-18.771-3.98c-13.407 0-38.882 5.084-56.088 8.4a17.608 17.608 0 0 1-4.915.664c-19.441-.439-31.06-9.5-30.614-18.121v-.884c0-.441.224-.664.224-.884 2.458-10.611 18.771-7.517 13.854-12.38l-2.011-.663h-.446a2.867 2.867 0 0 0-1.34-.221c-.224-.22-.446-.22-.894-.22a2.454 2.454 0 0 1-1.12-.221H159.1c-.224 0-.446.221-.67.221-.446 0-1.12.22-1.564.22a14.452 14.452 0 0 0-10.727 10.61 29.9 29.9 0 0 0-.224 11.715l.224.221a1.644 1.644 0 0 0 .224 1.105v.441c.224.441.224.663.446 1.1v.441a.8.8 0 0 1 .224.664 34.29 34.29 0 0 0 5.139 9.063 7.126 7.126 0 0 0 1.564 1.327c6.7 6.63 16.758 10.61 26.815 12.155 14.3 2.431 27.931-3.316 42.68-4.421a72.952 72.952 0 0 1 27.7 3.32c3.129 1.327 6.034 2.654 8.939 3.98-.225 1.326-.225 2.653-.447 3.979-11.4 2.21-29.72.664-42.9.221a102.924 102.924 0 0 0-16.315-1.105h-.224a34.165 34.165 0 0 0-11.837 2.21c-19.217 7.517-9.608 41.115-26.591 51.725-3.8 2.653-13.407 5.969-15.866 0a14.006 14.006 0 0 0-.446-1.547c.224-.22.446-.22.67-.441 1.12-1.105 4.693-.884 4.469-3.536a1.666 1.666 0 0 0-.894-1.547c-2.011-1.547-7.374-.441-10.949 2.879a.479.479 0 0 1-.446.441c-2.239 2.653-3.359 6.19-1.12 11.053 5.81 13.484 26.815 13.484 40.446-1.326 13.631-14.59 4.469-33.158 25.026-38.462 8.714-2.431 18.555-1.105 28.152 0 7.375.884 14.524 1.769 21.452 1.105a48.356 48.356 0 0 0 9.608-1.549 26.864 26.864 0 0 0 1.565 3.759 71.081 71.081 0 0 1-23.91 15.694c-12.956 5.084-31.954 2.431-42.681 11.936-9.385 8.18-13.183 22.325-7.374 33.378a21.742 21.742 0 0 0 13.407 10.831c3.575.884 13.183 1.326 16.758-2.21l.894-.884c2.458-2.879 5.363-11.053-.446-11.053-3.129 0-7.6 3.094-11.837 5.084-3.575-3.1-2.239-9.947-.446-14.148 6.48-15.253 15.642-15.034 26.591-15.034a62.243 62.243 0 0 0 17.652-1.769c6.7-1.99 15.866-7.736 25.026-15.253a34.281 34.281 0 0 0 3.575 2.431 28.037 28.037 0 0 1-4.023 12.6c-6.257 9.946-9.832 15.914-17.876 24.094-8.939 8.841-17.207 17.912-18.1 31.388-.67 9.947 6.928 21.22 18.555 21.663 8.044.221 11.836-5.969 12.956-10.61v-.22a11.405 11.405 0 0 0 .224-4.638l-.224-.22c-.67-3.98-3.359-7.3-7.821-7.074-4.916.441-.894 5.084-.224 7.736a5.212 5.212 0 0 1-.447 4.2c-3.8.221-7.82-3.979-8.044-7.959.224-7.294 14.526-17.912 19-22.55 10.5-10.611 25.026-24.979 33.071-40.451h2.9c8.044 15.253 22.346 29.84 32.848 40.451 4.693 4.638 18.994 15.253 19.216 22.55-.224 3.98-4.245 8.18-8.043 7.959a5.212 5.212 0 0 1-.447-4.2c.671-2.653 4.693-7.294-.224-7.736-4.469-.221-7.15 3.094-8.044 7.074v.22a7.964 7.964 0 0 0 0 4.638l.224.22c1.12 4.638 4.916 10.831 12.956 10.61 11.62-.441 19.217-11.714 18.555-21.663-.894-13.484-9.162-22.551-18.1-31.388-8.044-8.18-11.62-14.147-17.877-24.094a31.324 31.324 0 0 1-4.245-15.034 12.24 12.24 0 0 0 2.011-1.546c9.833 8.4 19.665 14.589 26.815 16.792a61.451 61.451 0 0 0 17.435 1.769c10.949 0 20.335-.22 26.815 15.034 1.564 3.759 2.9 9.725.447 13.263-4.916 1.769-7.15-4.2-12.957-4.2-5.587 0-2.9 8.179-.224 11.053l.894.884c3.575 3.537 13.184 3.1 16.758 2.211a21.748 21.748 0 0 0 13.408-10.82c5.81-11.053 2.011-25.2-7.374-33.378-10.726-9.505-29.72-6.853-42.68-11.936a70.75 70.75 0 0 1-26.368-18.345 27.64 27.64 0 0 0 .67-2.211 45.137 45.137 0 0 0 12.957 2.654c6.7.663 14.075-.221 21.451-1.105 9.609-1.105 19.441-2.431 28.152 0 20.557 5.305 11.173 23.874 25.026 38.462 13.631 14.81 34.636 14.81 40.446 1.326 2.239-5.3.67-9.276-2.011-11.714"/><path class="a" d="M253.172 160.72a2.154 2.154 0 0 0 2.9-1.326 2.185 2.185 0 0 0-1.12-2.879 2.239 2.239 0 0 0-2.9 1.326 2.183 2.183 0 0 0 1.119 2.879zm-6.478-2.21a2.3 2.3 0 0 0 2.68-1.548 2.2 2.2 0 1 0-4.245-1.105 2.191 2.191 0 0 0 1.565 2.653zm-6.7-1.548a2.214 2.214 0 0 0 2.465-1.767 2.14 2.14 0 0 0-1.789-2.653 2.212 2.212 0 0 0-2.458 1.989 2.032 2.032 0 0 0 1.788 2.431zm-6.927-.884a2.106 2.106 0 0 0 2.458-1.99 2.585 2.585 0 0 0-2.239-2.431 2.228 2.228 0 0 0-2.239 2.21 2.041 2.041 0 0 0 2.011 2.21zm-6.928 0a2.226 2.226 0 0 0 2.239-2.21 2.426 2.426 0 0 0-2.458-2.21 2.041 2.041 0 0 0-2.015 2.21 2.228 2.228 0 0 0 2.239 2.21zm-6.928.664a2.375 2.375 0 0 0 2.011-2.431 2.3 2.3 0 0 0-2.681-1.99 2.239 2.239 0 0 0 .67 4.421zm-6.928 1.105a2.14 2.14 0 0 0 1.788-2.653 2.316 2.316 0 0 0-2.681-1.769 2.575 2.575 0 0 0-1.788 2.653 2.375 2.375 0 0 0 2.681 1.769zm-6.928 1.326a2.193 2.193 0 0 0 1.788-2.431 2.258 2.258 0 1 0-4.468.659 2.316 2.316 0 0 0 2.681 1.769zm-7.15 1.105a2.079 2.079 0 0 0 1.788-2.431 2.612 2.612 0 0 0-2.458-1.989 2.452 2.452 0 0 0-2.011 2.653 2.316 2.316 0 0 0 2.681 1.769zm-7.374.884a2 2 0 0 0 2.011-2.431 2.2 2.2 0 0 0-2.239-1.99 2.282 2.282 0 0 0-2.239 2.431 2.612 2.612 0 0 0 2.458 1.99zm-7.6-.221a1.985 1.985 0 0 0 2.459-1.769 2.294 2.294 0 0 0-1.788-2.653c-1.34 0-2.458.664-2.458 1.99a2.193 2.193 0 0 0 1.788 2.431zm-7.15-1.326a2.122 2.122 0 0 0 2.681-1.547 2.239 2.239 0 0 0-1.788-2.653 2.431 2.431 0 0 0-2.681 1.547 2.294 2.294 0 0 0 1.782 2.653zm-7.15-1.99a2.332 2.332 0 0 0 2.9-1.326 1.977 1.977 0 0 0-1.34-2.653 2.239 2.239 0 0 0-2.9 1.326 1.977 1.977 0 0 0 1.34 2.653zM162 154.746a2.274 2.274 0 0 0 3.129-.884 2.184 2.184 0 0 0-1.12-2.879 2.156 2.156 0 0 0-3.151 1.682 2.1 2.1 0 0 0 1.142 2.081zm-6.257-3.758a2.454 2.454 0 0 0 3.129-.441 2.321 2.321 0 0 0-.446-3.095 2.219 2.219 0 1 0-2.681 3.536zm-5.579-5.3a2.2 2.2 0 0 0 3.129.441 2.29 2.29 0 0 0-2.906-3.539 2.133 2.133 0 0 0-.224 3.095zm-4.247-6.632a2.239 2.239 0 0 0 2.9 1.326 1.977 1.977 0 0 0 1.34-2.653 2.123 2.123 0 0 0-2.681-1.547 2.425 2.425 0 0 0-1.564 2.879z"/><path class="b" d="M343.225 256.658c4.693 4.638 18.995 15.253 19.217 22.551-.224 3.979-4.245 8.179-8.044 7.958a5.213 5.213 0 0 1-.446-4.2c.67-2.653 4.693-7.295-.224-7.736-4.469-.221-7.15 3.095-8.044 7.074v.221a7.958 7.958 0 0 0 0 4.638l.224.221c1.12 4.638 4.915 10.831 12.956 10.61 11.619-.441 19.217-11.715 18.555-21.663-.894-13.484-9.162-22.551-18.1-31.389a94.7 94.7 0 0 1-8.044-9.276h-27.49c6.48 7.958 13.631 15.034 19.441 21M145.921 131.986l.224.221a1.642 1.642 0 0 0 .224 1.105v.441c.224.441.224.664.446 1.105v.441a.8.8 0 0 1 .224.664 34.291 34.291 0 0 0 5.139 9.063 7.1 7.1 0 0 0 1.564 1.326c6.7 6.631 16.758 10.61 26.815 12.155 14.3 2.431 27.931-3.315 42.681-4.421a72.946 72.946 0 0 1 27.7 3.319c3.129 1.326 6.034 2.653 8.939 3.979v.441h.67l-14.075-28.073c-13.632.441-37.988 5.084-54.746 8.4a17.6 17.6 0 0 1-4.915.664c-19.438-.443-31.057-9.5-30.61-18.125v-.884c0-.441.224-.664.224-.884 2.458-10.61 18.771-7.517 13.854-12.379l-2.011-.664h-.446a2.863 2.863 0 0 0-1.34-.221c-.224-.221-.446-.221-.894-.221a2.453 2.453 0 0 1-1.12-.221H159.1c-.224 0-.446.221-.67.221-.446 0-1.12.221-1.564.221a14.449 14.449 0 0 0-10.726 10.61 29.894 29.894 0 0 0-.224 11.715"/><path class="c" d="M156.2 123.807c0-.441.224-.664.224-.884 2.458-10.61 18.771-7.517 13.854-12.379l-2.011-.664h-.446a2.863 2.863 0 0 0-1.34-.221c-.224-.221-.446-.221-.894-.221a2.453 2.453 0 0 1-1.12-.221H159.1c-.224 0-.446.221-.67.221-.446 0-1.12.221-1.564.221a14.449 14.449 0 0 0-10.726 10.61 29.894 29.894 0 0 0-.224 11.715l.224.221a1.642 1.642 0 0 0 .224 1.105v.441c.224.441.224.664.446 1.105v.441a.8.8 0 0 1 .224.664 34.291 34.291 0 0 0 5.139 9.063 7.1 7.1 0 0 0 1.564 1.326c6.7 6.631 16.758 10.61 26.815 12.155 8.714 1.547 17.206 0 25.7-1.769a59.3 59.3 0 0 1-17.2-14.145c-.67 0-1.564.221-2.239.221-19.436-.44-31.055-9.5-30.609-18.122z"/><path class="b" d="M156.2 123.807c0-.441.224-.664.224-.884 2.458-10.61 18.771-7.517 13.854-12.379l-2.011-.664h-.446a2.863 2.863 0 0 0-1.34-.221c-.224-.221-.446-.221-.894-.221a2.453 2.453 0 0 1-1.12-.221H159.1c-.224 0-.446.221-.67.221-.446 0-1.12.221-1.564.221a14.449 14.449 0 0 0-10.726 10.61 29.894 29.894 0 0 0-.224 11.715l.224.221a1.642 1.642 0 0 0 .224 1.105v.441c.224.441.224.664.446 1.105v.441a.8.8 0 0 1 .224.664 34.291 34.291 0 0 0 5.139 9.063 7.1 7.1 0 0 0 1.564 1.326c6.7 6.631 16.758 10.61 26.815 12.155 8.714 1.547 17.206 0 25.7-1.769a59.3 59.3 0 0 1-17.2-14.145c-.67 0-1.564.221-2.239.221-19.436-.44-31.055-9.5-30.609-18.122z"/><path class="d" d="M345.138 103.916a.1.1 0 0 0 .195 0zm.195-.221a.1.1 0 1 0-.195 0zm0 .221v-.221h-.195v.221zm-.195-.221v.221h.195v-.221zM317.531 244.178a.1.1 0 1 0 0 .195zm.224.195a.1.1 0 0 0 0-.195zm-.224 0h.224v-.195h-.224zm.224-.195h-.224v.195h.224z"/><path class="d" d="M317.531 244.178a.1.1 0 1 0 0 .195zm.224.195a.1.1 0 0 0 0-.195zm-.224 0h.224v-.195h-.224zm.224-.195h-.224v.195h.224z"/><path class="b" d="M317.756 244.275c.67 0 1.34.221 2.011.221-.667.004-1.341-.221-2.011-.221zM346.8 100.368c9.162-19.23 17.876-38.683 12.737-60.788-4.917-20.993-27.709-37.572-51.395-37.572h-2.011a43.53 43.53 0 0 0-5.363.221c21.9 2.21 41.562 17.913 46.255 37.357 5.139 22.1-3.8 41.557-12.956 60.788a23.647 23.647 0 0 0-2.681 11.053 219.983 219.983 0 0 0 3.794 26.525c0 23.431-25.474 23.431-25.474 23.431h12.737s25.25 0 25.25-23.431a198.689 198.689 0 0 1-3.575-26.525 21.226 21.226 0 0 1 2.681-11.053"/><path class="b" d="M346.8 100.368c9.162-19.23 17.876-38.683 12.737-60.788-4.917-20.993-27.709-37.572-51.395-37.572h-2.011a43.53 43.53 0 0 0-5.363.221c21.9 2.21 41.562 17.913 46.255 37.357 5.139 22.1-3.8 41.557-12.956 60.788a23.647 23.647 0 0 0-2.681 11.053 219.983 219.983 0 0 0 3.794 26.525c0 23.431-25.474 23.431-25.474 23.431h12.737s25.25 0 25.25-23.431a198.689 198.689 0 0 1-3.575-26.525 21.226 21.226 0 0 1 2.681-11.053"/><path class="b" d="M293.174 126.9a15.292 15.292 0 0 0 27.931 0z"/><path class="d" d="M297.641 126.9a10.749 10.749 0 0 0 9.608 5.526 11.29 11.29 0 0 0 9.608-5.526zM418.983 219.738a14.368 14.368 0 0 0-4.252-1.769 4.82 4.82 0 0 1 .224 1.769 12.286 12.286 0 0 1 4.023 0z"/><path class="b" d="M410.264 237.864c1.564 3.758 2.9 9.726.446 13.263-4.915 1.769-7.15-4.2-12.956-4.2-5.587 0-2.9 8.179-.224 11.053l.894.884c3.575 3.536 13.183 3.095 16.758 2.21a21.744 21.744 0 0 0 13.407-10.831c5.809-11.053 2.011-25.2-7.374-33.378-7.374-6.41-18.555-7.295-29.049-8.841a131.3 131.3 0 0 1-9.832 14.81c11.4 0 21.228-.664 27.931 15.034zM434.172 158.508c10.056-1.548 20.111-5.526 26.815-12.155a7.1 7.1 0 0 0 1.564-1.326 34.293 34.293 0 0 0 5.139-9.063.8.8 0 0 1 .224-.664v-.441c.224-.441.224-.664.446-1.105v-.44c.224-.441.224-.884.446-1.326a29.893 29.893 0 0 0-.224-11.715c-3.129-10.4-16.758-16.358-24.134-9.726-4.915 4.864 11.4 1.769 13.854 12.379 2.239 9.063-9.608 19.451-30.391 19.894a17.6 17.6 0 0 1-4.915-.664c-3.129-.664-6.256-1.105-9.608-1.769a138.17 138.17 0 0 1-2.239 16.793c7.6 1.546 15.2 2.653 23.016 1.326zM478.865 213.989l-.224-.221-.446-.443c-3.575-2.879-8.492-3.536-10.279-1.769v.221c-.446.221-.446.664-.446 1.105-.224 3.758 6.034 1.99 4.693 5.526-2.458 5.969-12.067 2.653-15.866 0-16.982-10.61-7.374-44.209-26.815-51.724a34.156 34.156 0 0 0-11.837-2.21c-2.458 0-5.363 0-8.044.221a146.6 146.6 0 0 1-6.033 19.894 42.355 42.355 0 0 1 11.837 1.326c20.557 5.305 11.173 23.873 25.026 38.463 13.631 14.81 34.636 14.81 40.446 1.326 2.239-5.305.67-9.276-2.011-11.715z"/><path class="b" d="M410.715 251.124c-4.915 1.99-7.15-3.979-12.737-3.979-5.81 0-2.9 7.958-.446 10.831 2.239 2.879 8.268 3.979 11.619 2.431 1.564-.884 3.8-3.979 1.34-5.305"/><path class="e" d="M492.947 205.591a71.753 71.753 0 0 0-18.1-13.262c-2.011-.221-6.928-.884-10.726 2.431-.67.884-1.34 1.326-7.15 5.084l-.224.221c-.224 0-.224.221-.446.221-5.586 3.758-6.257 4.421-7.374 4.421-4.469 2.21-5.81 7.074-6.48 9.063a84.516 84.516 0 0 0 5.587 21.663c4.023 9.726 10.726 6.853 10.726 6.853 2.9-1.99 1.564-10.169 1.564-12.82a5.073 5.073 0 0 1 2.239-4.421l7.15-4.864.894-.441 7.15-4.638a5.405 5.405 0 0 1 4.915-.664c2.681 1.326 9.832 5.526 12.737 3.536 0 0 5.139-4.864-2.458-12.379z"/><path class="f" d="M452.5 210.676a3.216 3.216 0 0 1-.894 4.638 3.33 3.33 0 0 1-4.693-.884 3.251 3.251 0 0 1 .894-4.638 3.538 3.538 0 0 1 4.693.884zM471.936 206.915a3.216 3.216 0 0 1-.894 4.638 3.039 3.039 0 0 1-4.469-.884 3.251 3.251 0 0 1 .894-4.638 3.438 3.438 0 0 1 4.469.884zM468.811 198.076a1.174 1.174 0 0 0 .446-1.99 1.369 1.369 0 0 0-2.011-.664 1.57 1.57 0 0 0-.67 2.21 1.4 1.4 0 0 0 2.239.441M472.612 204.048a1.6 1.6 0 0 0-1.788-2.653 1.65 1.65 0 0 0-.446 2.21 1.691 1.691 0 0 0 2.239.441M468.36 200.731a1.793 1.793 0 0 0-2.239-.441 1.524 1.524 0 0 0-.67 2.21 1.793 1.793 0 0 0 2.239.441 1.57 1.57 0 0 0 .67-2.21zM474.169 197.195a1.508 1.508 0 1 0-.451 1.99 1.439 1.439 0 0 0 .446-1.99M462.328 213.549a.825.825 0 0 0-.67-.221l-1.564 1.105a.827.827 0 0 1-.67-.221l-.894-1.547a.422.422 0 0 0-.67 0l-1.788 1.105a.411.411 0 0 0 0 .664l.894 1.326c.224.221.224.664 0 .664l-1.566 1.106c-.224 0-.224.441 0 .664l1.12 1.547c0 .221.446.221.446.221l1.564-1.105a.827.827 0 0 1 .67.221l.894 1.326c.224.221.446.441.67.221l1.787-1.1a.411.411 0 0 0 0-.664l-.894-1.326a.422.422 0 0 1 .224-.664l1.34-1.105c.224 0 .224-.441.224-.664z"/><path d="M465.68 193.658a3.437 3.437 0 0 0-1.34.884 3.324 3.324 0 0 1-1.564 1.326l-6.033 4.2-6.257 3.979a3.249 3.249 0 0 1-2.011.884c-.224 0-.67.441-1.12.884a27.655 27.655 0 0 0 6.257.884 62.412 62.412 0 0 0 10.5-7.074 31.377 31.377 0 0 0 1.564-5.969zM487.13 214.437c-6.928-1.547-7.374-2.21-10.949.221-2.458 1.548-10.949 7.074-13.407 8.62-3.575 2.431-3.129 3.095-4.245 10.169-1.12 6.189 0 8.4.224 8.841 2.9-1.99 1.564-10.169 1.564-12.82a5.073 5.073 0 0 1 2.239-4.421l7.15-4.864.894-.441 7.15-4.638a5.405 5.405 0 0 1 4.915-.664c2.681 1.326 9.832 5.526 12.737 3.536-.224-.441-2.011-2.21-8.268-3.536z"/><path class="b" d="M479.757 214.65c-4.245-4.421-12.067-5.526-12.291-1.769s6.257 1.99 4.693 5.526c-.224.221-.224.221-.224.441l.446-.441s2.9 1.769 4.693.884c1.12-.664 1.12-3.979 2.458-4.638z"/><path class="f" d="M437.217 240.966a1.12 1.12 0 0 1-1.19 1.329l-30.257 1.6c-.64-.064-1.382-.531-1.312-1.182l-.349-6.479c.07-.651.542-1.393 1.19-1.329l30.5-1.449a1.356 1.356 0 0 1 1.312 1.182z"/><path d="M431.024 242.588l-20.253 1.017-.47-8.99 20.5-.862z"/><path class="b" d="M428.571 241.032l-5 .293-.174-5.673 5-.293z"/><path class="g" d="M426.583 237.685l-1.136-.376.016 1.054.158-.248.157-.248.4-.091-.229.9-.472.742-.8.184.088.4.961-.43.472-.742.491.312-.473.742.245.155.473-.742-.577-.715.315-.494.086.4.8-.184-.245-.155-.245-.157z"/><path class="d" d="M426.583 237.685l.052-.082a.1.1 0 0 0-.022-.01zm-1.136-.376l.031-.093a.1.1 0 0 0-.128.094zm.016 1.054h-.1a.1.1 0 0 0 .18.051zm.158-.248l.082.052zm.157-.248l-.021-.1a.1.1 0 0 0-.061.043zm.4-.091l.094.024a.1.1 0 0 0-.116-.119zm-.229.9l.082.052a.1.1 0 0 0 .012-.028zm-.472.742l.022.1a.1.1 0 0 0 .061-.043zm-.8.184l-.022-.1a.1.1 0 0 0-.073.116zm.088.4l-.1.021a.1.1 0 0 0 .135.068zm.961-.43l.04.089a.1.1 0 0 0 .042-.037zm.472-.742l.052-.082a.1.1 0 0 0-.134.03zm.491.312l.082.052a.1.1 0 0 0-.03-.135zm-.473.742l-.082-.052a.1.1 0 0 0 .03.135zm.245.155l-.052.082a.1.1 0 0 0 .134-.03zm.473-.742l.082.052a.1.1 0 0 0-.006-.114zm-.577-.715l-.082-.052a.1.1 0 0 0 .006.114zm.315-.494l.1-.02a.1.1 0 0 0-.177-.032zm.086.4l-.1.02a.1.1 0 0 0 .117.075zm.8-.184l.022.1a.1.1 0 0 0 .03-.177zm-.245-.155l-.053.082zm-.245-.157l.053-.082zm-.459-.4l-1.136-.376-.061.185 1.136.376zm-1.264-.282l.016 1.054h.195l-.016-1.054zm.2 1.1l.158-.248-.164-.1-.158.248zm.159-.248l.157-.248-.165-.1-.157.248zm.1-.2l.4-.091-.043-.19-.4.091zm.287-.21l-.229.9.189.048.229-.9zm-.217.869l-.472.742.164.1.472-.742zm-.411.7l-.8.184.043.19.8-.184zm-.878.3l.088.4.19-.042-.088-.4zm.223.471l.961-.43-.08-.178-.961.43zm1-.467l.472-.742-.164-.1-.472.742zm.337-.712l.491.312.1-.165-.491-.312zm.461.177l-.473.742.164.1.473-.742zm-.443.877l.245.155.1-.165-.245-.155zm.379.125l.473-.742-.164-.1-.473.742zm.467-.856l-.577-.715-.152.122.577.715zm-.571-.6l.315-.494-.164-.1-.315.494zm.138-.526l.086.4.191-.041-.086-.4zm.2.478l.8-.184-.043-.19-.8.184zm.835-.361l-.245-.155-.1.165.245.155zm-.244-.155l-.245-.157-.105.164.245.157zm-.245-.157l-.489-.31-.1.165.489.31z"/><path class="g" d="M426.9 237.183a.29.29 0 1 1-.489-.312l.16-.248c.245.16.489.312.333.56z"/><path class="b" d="M423.331 241.172l-5 .293-.331-5.425 5-.293z"/><path class="g" d="M419.235 237.87l.192 1.86 2.9-.238.053-1.7-1.592 1.422z"/><path class="d" d="M419.235 237.87l.064-.074a.1.1 0 0 0-.161.084zm.192 1.86l-.1.01a.1.1 0 0 0 .1.087zm2.9-.238l.008.1a.1.1 0 0 0 .089-.094zm.053-1.7h.1a.1.1 0 0 0-.162-.076zm-1.592 1.422l-.064.074a.1.1 0 0 0 .128 0zm-1.653-1.329l.192 1.86.194-.02-.192-1.86zm.3 1.947l2.9-.238-.016-.194-2.9.238zm2.993-.332l.053-1.7-.195-.006-.053 1.7zm-.11-1.781l-1.592 1.422.13.145 1.592-1.422zm-1.463 1.421l-1.555-1.34-.127.148 1.556 1.339z"/><path class="g" d="M419.153 237.473l.088.4 1.468.936 1.435-1.174.157-.248z"/><path class="d" d="M419.153 237.473v-.1a.1.1 0 0 0-.093.118zm.088.4l-.1.021a.1.1 0 0 0 .043.061zm1.468.936l-.052.082a.1.1 0 0 0 .114-.007zm1.435-1.174l.062.075a.1.1 0 0 0 .021-.023zm.157-.248l.082.052a.1.1 0 0 0-.085-.15zm-3.243.1l.088.4.19-.042-.088-.4zm.131.464l1.468.936.1-.164-1.468-.936zm1.582.929l1.435-1.174-.123-.151-1.435 1.174zm1.455-1.2l.157-.248-.165-.1-.157.248zm.072-.4l-3.148.083.005.195 3.148-.083z"/><path class="b" d="M417.922 241.554l-5 .294-.174-5.673 5-.293z"/><path class="d" d="M416.822 238.423c-.088-.4-.419-.96-.822-.87s-.4.091-.56.339c-.245-.16-.245-.16-.64-.064-.64-.064-.8.184-.717.587-.07.651.91 1.279 1.4 1.585.56-.339 1.28-.926 1.347-1.577"/><path d="M256.3 223.5a.814.814 0 0 1 .894-.884h103.469a.815.815 0 0 1 .656.231.816.816 0 0 1 .238.653v62.777a.961.961 0 0 1-.894.884H257.2a.96.96 0 0 1-.894-.884z"/><path class="h" d="M264.57 231.451a1.439 1.439 0 0 1 1.12-1.326h86.477a1.241 1.241 0 0 1 1.12 1.326v46.2a1.19 1.19 0 0 1-1.12 1.105h-86.48a1.428 1.428 0 0 1-1.12-1.105v-46.2"/><path class="i" d="M317.531 264.834a.827.827 0 0 1 .67-.221.827.827 0 0 0-.67.221z"/><path class="b" d="M319.318 264.391a9.772 9.772 0 0 1-1.12.221 9.772 9.772 0 0 0 1.12-.221z"/><path class="i" d="M319.767 244.5c-.67 0-1.34-.221-2.011-.221h-.224a17.878 17.878 0 0 0-3.359 10.169 19.157 19.157 0 0 0 3.359 10.4.827.827 0 0 1 .67-.221 9.78 9.78 0 0 0 1.12-.221h.446a15.626 15.626 0 0 1 0-19.894"/><path class="d" d="M234.721 213.795a.1.1 0 1 0-.19-.043zm-1.978 7.914a.1.1 0 0 0 .19.043zm1.788-7.957l-1.788 7.957.19.043 1.788-7.957z"/><path class="j" d="M232.845 221.948l-.224-.221 1.788-7.958a.218.218 0 0 1 .224-.221c.224 0 .224 0 .224.221l-1.788 7.958c0 .221 0 .221-.224.221z"/><path class="d" d="M232.266 225.282a.1.1 0 1 0-.191-.041zm-1.085 4.159a.1.1 0 0 0 .191.041zm.894-4.2l-.894 4.2.191.041.894-4.2z"/><path class="j" d="M231.275 229.686c-.224 0-.224-.221-.224-.441l.894-3.979a.218.218 0 0 1 .224-.221c.224 0 .224.221.224.441l-.894 3.979z"/><path class="d" d="M228.241 243.855a.1.1 0 1 0-.19-.043zm-1.084 3.936a.1.1 0 0 0 .19.043zm.894-3.979l-.894 3.979.19.043.894-3.979z"/><path class="j" d="M227.259 248.036a.217.217 0 0 1-.224-.221l.894-4.2s.224-.221.224 0c.224 0 .224 0 .224.221l-.894 3.979a.218.218 0 0 1-.224.221z"/><path class="b" d="M225.691 255.107c-.224.443-.446.664-.894.443l-27.033-5.75c-.224 0-.446-.441-.446-.664l10.949-50.619c0-.443.446-.664.67-.443l27.261 5.748c.224 0 .446.441.446.664L225.7 255.107"/><path d="M225.466 252.9a2.116 2.116 0 0 1-2.458 1.326l-23.016-4.864a1.823 1.823 0 0 1-1.564-2.21l10.055-46.419a1.983 1.983 0 0 1 2.239-1.326l23.24 4.864a1.823 1.823 0 0 1 1.564 2.21L225.471 252.9"/><path class="i" d="M223.9 246.482l-21.451-4.643 8.268-38.02 21.451 4.641z"/><path class="d" d="M223.9 246.482l-.021.1a.1.1 0 0 0 .121-.082zm-21.451-4.643l-.1-.021a.1.1 0 0 0 .075.116zm8.268-38.02l.021-.1a.1.1 0 0 0-.116.075zm21.451 4.641l.1.021a.1.1 0 0 0-.075-.116zm-8.247 37.926l-21.451-4.643-.041.191 21.451 4.643zm-21.377-4.527l8.268-38.02-.19-.041-8.268 38.02zm8.152-37.945l21.451 4.641.041-.191-21.451-4.641zm21.377 4.525l-8.268 38.021.191.041 8.268-38.021z"/><path class="d" d="M223.9 246.482l-.021.1a.1.1 0 0 0 .121-.082zm-21.451-4.643l-.1-.021a.1.1 0 0 0 .075.116zm8.268-38.02l.021-.1a.1.1 0 0 0-.116.075zm21.451 4.641l.1.021a.1.1 0 0 0-.075-.116zm-8.247 37.926l-21.451-4.643-.041.191 21.451 4.643zm-21.377-4.527l8.268-38.02-.19-.041-8.268 38.02zm8.152-37.945l21.451 4.641.041-.191-21.451-4.641zm21.377 4.525l-8.268 38.021.191.041 8.268-38.021z"/><path class="k" d="M222.34 248.031c-.446 0-.67 0-.67.441v.221l-.446.441.446-.221h.446c.224.221.446 0 .446-.221.224-.441 0-.664-.224-.664zm-.226.883a.442.442 0 1 1 0-.884c.224.221.446.441.446.664s-.224.22-.446.22zM204.019 244.714l-1.116-.221.67-.443-.894.443.67.884-.446-.664 1.116.221z"/><path class="d" d="M204.019 244.714h.1a.1.1 0 0 0-.079-.1zm-1.116-.221l-.054-.081a.1.1 0 0 0 .035.177zm.67-.443l.054.081a.1.1 0 0 0-.1-.169zm-.894.443l-.043-.087a.1.1 0 0 0-.034.146zm.67.884l-.078.059a.1.1 0 0 0 .159-.113zm-.446-.664l.019-.1a.1.1 0 0 0-.1.15zm1.116.221l-.019.1a.1.1 0 0 0 .116-.1zm.019-.316l-1.116-.221-.038.191 1.116.221zm-1.082-.044l.67-.443-.107-.163-.67.443zm.573-.612l-.894.443.087.175.894-.443zm-.929.589l.67.884.155-.118-.67-.884zm.829.771l-.446-.664-.162.109.446.664zm-.546-.514l1.116.221.038-.191-1.116-.221zm1.233.125v-.221h-.195v.221z"/><path class="d" d="M204.019 244.714h.1a.1.1 0 0 0-.079-.1zm-1.116-.221l-.054-.081a.1.1 0 0 0 .035.177zm.67-.443l.054.081a.1.1 0 0 0-.1-.169zm-.894.443l-.043-.087a.1.1 0 0 0-.034.146zm.67.884l-.078.059a.1.1 0 0 0 .159-.113zm-.446-.664l.019-.1a.1.1 0 0 0-.1.15zm1.116.221l-.019.1a.1.1 0 0 0 .116-.1zm.019-.316l-1.116-.221-.038.191 1.116.221zm-1.082-.044l.67-.443-.107-.163-.67.443zm.573-.612l-.894.443.087.175.894-.443zm-.929.589l.67.884.155-.118-.67-.884zm.829.771l-.446-.664-.162.109.446.664zm-.546-.514l1.116.221.038-.191-1.116-.221zm1.233.125v-.221h-.195v.221z"/><path class="k" d="M211.838 246.928l.446.221.224-.441-.67-.221z"/><path class="d" d="M211.838 246.928h-.1a.1.1 0 0 0 .054.087zm.446.221l-.043.087a.1.1 0 0 0 .13-.043zm.224-.441l.087.044a.1.1 0 0 0-.056-.137zm-.67-.221l.03-.093a.1.1 0 0 0-.128.093zm-.043.529l.446.221.086-.175-.446-.221zm.576.177l.224-.441-.174-.088-.224.441zm.168-.578l-.67-.221-.061.185.67.221zm-.8-.128v.441h.195v-.441z"/><path class="d" d="M211.838 246.928h-.1a.1.1 0 0 0 .054.087zm.446.221l-.043.087a.1.1 0 0 0 .13-.043zm.224-.441l.087.044a.1.1 0 0 0-.056-.137zm-.67-.221l.03-.093a.1.1 0 0 0-.128.093zm-.043.529l.446.221.086-.175-.446-.221zm.576.177l.224-.441-.174-.088-.224.441zm.168-.578l-.67-.221-.061.185.67.221zm-.8-.128v.441h.195v-.441z"/><path class="k" d="M212.064 246.487l.448.221v-.664h-.448z"/><path class="d" d="M212.064 246.487h-.1a.1.1 0 0 0 .054.087zm.448.221l-.043.087a.1.1 0 0 0 .141-.087zm0-.664h.1a.1.1 0 0 0-.1-.1zm-.448 0v-.1a.1.1 0 0 0-.1.1zm-.043.53l.448.221.086-.175-.448-.221zm.588.133v-.664h-.195v.664zm-.1-.761h-.448v.195h.448zm-.545.1v.443h.195v-.443z"/><path class="d" d="M212.064 246.487h-.1a.1.1 0 0 0 .054.087zm.448.221l-.043.087a.1.1 0 0 0 .141-.087zm0-.664h.1a.1.1 0 0 0-.1-.1zm-.448 0v-.1a.1.1 0 0 0-.1.1zm-.043.53l.448.221.086-.175-.448-.221zm.588.133v-.664h-.195v.664zm-.1-.761h-.448v.195h.448zm-.545.1v.443h.195v-.443z"/><path class="k" d="M212.506 246.708h.67l.224-.664h-.894z"/><path class="d" d="M212.506 246.708h-.1a.1.1 0 0 0 .1.1zm.67 0v.1a.1.1 0 0 0 .092-.066zm.224-.664l.092.031a.1.1 0 0 0-.092-.129zm-.894 0v-.1a.1.1 0 0 0-.1.1zm0 .761h.67v-.195h-.67zm.763-.066l.224-.664-.185-.062-.224.664zm.132-.792h-.894v.195h.894zm-.992.1v.664h.195v-.664z"/><path class="d" d="M212.506 246.708h-.1a.1.1 0 0 0 .1.1zm.67 0v.1a.1.1 0 0 0 .092-.066zm.224-.664l.092.031a.1.1 0 0 0-.092-.129zm-.894 0v-.1a.1.1 0 0 0-.1.1zm0 .761h.67v-.195h-.67zm.763-.066l.224-.664-.185-.062-.224.664zm.132-.792h-.894v.195h.894zm-.992.1v.664h.195v-.664z"/><path class="k" d="M212.28 247.144l.894.443v-.664l-.67-.221z"/><path class="d" d="M212.28 247.144l-.087-.044a.1.1 0 0 0 .044.131zm.894.443l-.043.087a.1.1 0 0 0 .141-.087zm0-.664h.1a.1.1 0 0 0-.067-.093zm-.67-.221l.03-.093a.1.1 0 0 0-.117.048zm-.267.529l.894.443.087-.175-.894-.443zm1.035.356v-.664h-.195v.664zm-.067-.756l-.67-.221-.061.185.67.221zm-.788-.172l-.224.441.174.088.224-.441z"/><path class="d" d="M212.28 247.144l-.087-.044a.1.1 0 0 0 .044.131zm.894.443l-.043.087a.1.1 0 0 0 .141-.087zm0-.664h.1a.1.1 0 0 0-.067-.093zm-.67-.221l.03-.093a.1.1 0 0 0-.117.048zm-.267.529l.894.443.087-.175-.894-.443zm1.035.356v-.664h-.195v.664zm-.067-.756l-.67-.221-.061.185.67.221zm-.788-.172l-.224.441.174.088.224-.441z"/><path class="h" d="M220.775 227.922c-2.239-2.653-10.055-3.315-14.524-3.536l-3.8 17.463 21.451 4.638 2.9-13.484a48.008 48.008 0 0 1-6.033-5.084"/><path class="b" d="M218.543 215.977c.67-.664 1.12-.664 1.12.443l.446 4.638a2.631 2.631 0 0 0 1.788 2.21l4.693 1.105c.894.221 1.12.664 0 1.105l-4.245 1.769a2.677 2.677 0 0 0-1.564 2.653l.224 4.638c0 .884-.446 1.105-1.12.221l-2.9-3.536a2.836 2.836 0 0 0-2.9-.664l-4.469 1.769c-.894.441-1.34 0-.67-.884l2.458-3.979a2.658 2.658 0 0 0-.224-2.879l-2.9-3.536c-.67-.884-.446-1.326.446-1.105l4.693 1.105a2.575 2.575 0 0 0 2.681-1.105l2.458-3.979"/><path class="l" d="M225.692 255.1c-.224.221-.446.443-.67.443.224.005.447-.216.67-.443z"/><path class="m" d="M208.258 198.522l-10.949 50.619c0 .443.224.664.446.664l27.032 5.748h.224c.224 0 .446-.221.67-.443v-.664l-.446-1.326a1.943 1.943 0 0 1-1.788 1.326c-.224 0-.224 0-.446-.221l-23.016-4.864a1.823 1.823 0 0 1-1.564-2.21l10.055-46.419c0-.221.224-.441.224-.664l-.446-1.547"/><path class="n" d="M222.115 248.033a.442.442 0 1 0 0 .884.783.783 0 0 0 .446-.221c0-.22-.224-.441-.446-.663zm-.894 1.105l.446-.441v-.229a.48.48 0 0 1 .446-.441h.224c.224 0 .446.221.224.664a.48.48 0 0 1-.446.441v-.221h-.453l-.446.221zm-17.876-3.757l-.67-.884.894-.441-.67.441 1.12.221v.221l-1.12-.221zm5.362-45.316c0 .221-.224.441-.224.664l-10.055 46.419a1.823 1.823 0 0 0 1.564 2.21l23.017 4.867c.224.221.224.221.446.221a1.944 1.944 0 0 0 1.788-1.326l-2.011-6.853-20.781-4.421 3.8-17.463 4.023-19.23-1.564-5.084"/><path class="o" d="M210.275 205.146l-4.023 19.232c1.34 0 3.129.221 5.139.441l-.224-.221-2.9-3.536c-.67-.664-.67-1.105 0-1.105h.446l4.693 1.105c0 .221.224.221.446.221a3.2 3.2 0 0 0 1.34-.441l-4.915-15.694"/><path class="p" d="M222.116 248.916a.442.442 0 1 1 0-.884c.224.221.446.441.446.664a.784.784 0 0 1-.446.22zm0-.884a.48.48 0 0 0-.446.441v.221l-.446.441.446-.221h.446v.221a.48.48 0 0 0 .446-.441c.224-.441 0-.664-.224-.664h-.224M203.572 244.05l-.894.443.67.884-.446-.664 1.116.221v-.221l-1.116-.221z"/><path class="d" d="M203.572 244.05l.054.081a.1.1 0 0 0-.1-.169zm-.894.443l-.043-.087a.1.1 0 0 0-.034.146zm.67.884l-.078.059a.1.1 0 0 0 .159-.113zm-.446-.664l.019-.1a.1.1 0 0 0-.1.15zm1.116.221l-.019.1a.1.1 0 0 0 .116-.1zm0-.221h.1a.1.1 0 0 0-.079-.1zm-1.116-.221l-.054-.081a.1.1 0 0 0 .035.177zm.627-.53l-.894.443.087.175.894-.443zm-.929.589l.67.884.155-.118-.67-.884zm.829.771l-.446-.664-.162.109.446.664zm-.546-.514l1.116.221.038-.191-1.116-.221zm1.233.125v-.221h-.195v.221zm-.079-.316l-1.116-.221-.038.191 1.116.221zm-1.082-.044l.67-.443-.107-.163-.67.443z"/><path class="q" d="M206.252 224.386l-3.8 17.463 20.781 4.421-3.8-11.936-2.458-3.095a3.345 3.345 0 0 0-2.011-.884c-.446 0-.67.221-.894.221l-4.469 1.769c-.224 0-.446.221-.67.221-.446 0-.446-.441 0-1.105l2.458-3.979a2.792 2.792 0 0 0 0-2.653c-2.009-.222-3.797-.443-5.137-.443z"/><path class="m" d="M208.262 219.964c-.67 0-.67.443 0 1.105l2.9 3.536.224.221a2.792 2.792 0 0 1 0 2.653l-2.458 3.979c-.446.664-.446 1.105 0 1.105.224 0 .446-.221.67-.221l4.469-1.769c.224 0 .446-.221.894-.221a3.345 3.345 0 0 1 2.011.884l2.458 3.095-4.245-13.484a3.2 3.2 0 0 1-1.34.441c-.224 0-.446 0-.446-.221l-4.693-1.105h-.446"/><path class="b" d="M327.137 266.6c0 .884 1.34 1.105 2.011 1.546s.67 1.326.67 1.99c0 .441-.224 1.326-1.788 1.326h-6.257s-1.34-7.517-4.693-8.4c0-5.746 1.12-5.746 1.12-5.746s8.714 1.769 8.938 9.276"/><path class="b" d="M342.338 241.622a6.9 6.9 0 0 0-6.257-2.653 7.719 7.719 0 0 0-7.82 5.305c-1.12 2.653-1.564 13.484-6.7 12.155v-.221c-1.12.441-.67 1.547-.67 2.21a2.3 2.3 0 0 0 2.681 1.989c3.129.221 6.928.221 9.162-2.431 1.788-1.769 1.788-4.638 3.359-6.631a10.889 10.889 0 0 1 2.9-2.653 3.359 3.359 0 0 1-1.788-1.769c0-.221.224-.443.446-.664a.48.48 0 0 1 .446.441 3.11 3.11 0 0 0 1.564 1.326 19.357 19.357 0 0 1 2.239-1.548c1.788-1.326 1.564-2.653.446-4.864"/><path class="r" d="M336.076 243.4a1.34 1.34 0 1 1-.393-.948 1.34 1.34 0 0 1 .393.948z"/><path class="b" d="M287.814 257.1s-4.469.221-6.257-2.21c-2.011-2.431 2.458 5.969 5.587 6.852.446-3.757.67-4.638.67-4.638M286.474 266.6c0 .884-1.34 1.105-1.788 1.546a2.388 2.388 0 0 0-.894 1.99c0 .441.224 1.326 2.011 1.326h6.257s1.12-7.517 4.469-8.4c0-5.746-.894-5.746-.894-5.746s-8.938 1.769-9.162 9.276"/><path class="r" d="M329.374 262.179c-3.575-11.053-2.239-23.21-21.675-23.21s-18.1 12.155-21.9 23.21a108.478 108.478 0 0 0 43.575 0z"/><path class="l" d="M320.659 246.264c-2.239 0-3.359 1.99-4.693 3.315a10.262 10.262 0 0 1-1.564 1.547c-.446.441-1.12.441-1.564.884-1.564 1.105-1.34 2.653.446 3.536.67.221 2.239 2.879 3.129 3.536.224 0 .67.221.894.221.67 0 1.34-.441 2.011-.441 1.34-.221 2.681-.664 4.023-.884.894-.221 1.34-.664 1.12-1.548-.224-1.547-.446-3.315-.67-5.084a18.824 18.824 0 0 1-.224-3.536 1.668 1.668 0 0 0-.446-.884 15.456 15.456 0 0 0-1.788-.664h-.67M322.446 259.968a5.17 5.17 0 0 0-3.129.884l3.8 2.431a17.7 17.7 0 0 1 3.129-.441v-.884c0-1.105-.67-1.548-1.788-1.769a6.25 6.25 0 0 0-2.012-.221zM307.7 238.969h-.446a25.568 25.568 0 0 0-10.055 1.769c-.446 1.105-.67 2.21-1.12 3.315-.224.664-.446 1.547-.67 2.21l12.067 7.517c1.564-1.769 2.458-4.638 1.34-6.631a5.559 5.559 0 0 1-1.34-3.315 32.85 32.85 0 0 1 .446-4.421v-.441h-.222M309.264 238.969v.664c.446 3.095 1.12 6.189 1.788 9.276a1.267 1.267 0 0 0 2.239.884c1.12-.884 2.239-1.99 3.575-3.095a8.758 8.758 0 0 0 1.12-.884c.224-.441.894-2.21 1.788-4.2a21.343 21.343 0 0 0-10.5-2.653"/><path class="m" d="M327.367 254.888c.224.664.446 1.547.67 2.431-.224-.884-.446-1.769-.67-2.431z"/><path class="l" d="M325.132 247.813c.224 1.548.446 3.315.446 3.315.224 1.769-.224 4.2 1.12 5.748 0 .221.446.441.67.664a.827.827 0 0 1 .67-.221c-.224-.884-.446-1.769-.67-2.431a37.313 37.313 0 0 0-2.239-7.074M293.845 242.723a10.264 10.264 0 0 0-1.564 1.547l1.34 1.105a7.867 7.867 0 0 1 .894-2.431 2.267 2.267 0 0 0-.67-.221zM320.883 242.29a.8.8 0 0 1-.224.664c-.224.884 0 1.769 1.12 1.769a3.839 3.839 0 0 0 1.564.221 13.307 13.307 0 0 0-2.458-2.653"/><path class="b" d="M200.44 254.228c4.915 1.769 13.854-7.074 19.663-7.074 5.586 0 2.9 7.958.224 10.831-2.239 2.879-8.268 3.979-11.4 2.431-1.788-.884-3.8-3.979-1.34-5.305"/><path class="n" d="M256.747 222.834c-.224 0-.446.221-.446.664v62.777a.96.96 0 0 0 .894.884h103.464a.711.711 0 0 0 .671-.664l-12.738-7.736h-82.907a1.428 1.428 0 0 1-1.12-1.105v-46.2a1.44 1.44 0 0 1 1.12-1.326h3.129z"/><path class="h" d="M318.2 264.609a.827.827 0 0 0-.67.221.827.827 0 0 1 .67-.221zm-49.383-34.483h-3.129a1.439 1.439 0 0 0-1.12 1.326v46.2a1.428 1.428 0 0 0 1.12 1.105h82.9l-21.451-13.043v.884c0 .884 1.34 1.105 2.011 1.547s.67 1.326.67 1.99c0 .441-.224 1.326-1.788 1.326h-6.257a21.781 21.781 0 0 0-2.681-7.074 1.7 1.7 0 0 1-.894.221 1.7 1.7 0 0 0 .894-.221 1.7 1.7 0 0 1-.894.221.827.827 0 0 0-.67.221c-.224-.443-.224-.664-.446-.884-2.681.221-5.809.441-9.162.441h-.446c-4.469 0-8.714-.441-12.067-.664-2.458 1.99-3.359 7.736-3.359 7.736H285.8c-1.788 0-2.011-.884-2.011-1.326a2.388 2.388 0 0 1 .894-1.99c.446-.443 1.788-.664 1.788-1.547a10.426 10.426 0 0 1 1.12-3.979 5.42 5.42 0 0 0-1.788-.441l.224-.221a.8.8 0 0 1 .224-.664c-2.681-1.769-5.586-6.853-5.139-6.853l.446.441c1.34 1.769 4.469 2.21 5.81 2.21v-.221c1.12-4.638 2.011-9.276 4.915-12.6z"/><path class="o" d="M318.2 264.613a.827.827 0 0 0-.67.221.827.827 0 0 1 .67-.221z"/><path class="m" d="M319.092 264.391a1.7 1.7 0 0 1-.894.221 1.7 1.7 0 0 0 .894-.221z"/><path class="o" d="M318.429 263.723a2.86 2.86 0 0 1-1.34.221c.224.221.224.441.446.884a.827.827 0 0 1 .67-.221 1.7 1.7 0 0 0 .894-.221z"/><path class="m" d="M323.117 263.29a28.182 28.182 0 0 1-4.693.441l.67.664a21.78 21.78 0 0 1 2.681 7.074h6.257c1.564 0 1.788-.884 1.788-1.326 0-.664 0-1.547-.67-1.99s-2.011-.664-2.011-1.547v-.884l-4.023-2.431M281.109 254.446c-.446 0 2.459 5.084 5.139 6.853a29.192 29.192 0 0 1 1.12-4.2c-1.34 0-4.469-.441-5.81-2.21l-.446-.441M287.585 262.622a10.427 10.427 0 0 0-1.12 3.979c0 .884-1.34 1.105-1.788 1.547a2.388 2.388 0 0 0-.894 1.99c0 .441.224 1.326 2.011 1.326h6.257s.894-5.748 3.359-7.736c-3.359-.441-6.033-.884-7.822-1.105"/><path class="l" d="M302.339 264.171a332.158 332.158 0 0 1-8.49-.664 21.886 21.886 0 0 1 2.458-3.758 2.818 2.818 0 0 1 2.681-1.769c.894 0 1.564.221 2.458.221h.894c.67 0 .894.441.894 1.105a25.485 25.485 0 0 0-.894 3.979v.884zm-10.053-19.9c-2.9 3.315-3.8 7.958-4.915 12.6 0-.443.224-.884.224-1.326a34.254 34.254 0 0 0 4.469-1.326 1.354 1.354 0 0 1 .894-.221c.446 0 .67.441.894 1.105a4.465 4.465 0 0 1-.446 4.421 37.561 37.561 0 0 1-2.239 3.095c-.224.221-.224.221-.224.441-2.458-.441-4.023-.664-4.693-.884l-.224-.221-.224.221a5.42 5.42 0 0 1 1.788.441c1.788.221 4.469.664 7.822 1.105 3.359.221 7.6.664 12.067.664h-3.129c0-1.105.224-2.21.224-3.315a6.012 6.012 0 0 1 4.245-5.084h1.34a33.047 33.047 0 0 0 3.8 3.979 3.982 3.982 0 0 1 1.788 3.979c-2.239.221-4.915.441-7.82.441 3.359 0 6.48-.221 9.162-.441a2.861 2.861 0 0 0 1.34-.221 28.178 28.178 0 0 0 4.693-.441q-2.347.331-6.033.664c0-.664.224-1.105.224-1.548a12.259 12.259 0 0 1 2.011-1.547l-11.837-7.074a4.874 4.874 0 0 1-1.788 1.105 23.894 23.894 0 0 1-4.915.664c-1.788 0-3.359-.221-3.8-1.326-1.34-2.21-2.459-3.095-2.239-4.638.224-.884.446-2.21.67-3.315l-1.788-.884c-.446 1.326-.67 2.879-1.12 4.421 0 0-.224 1.99-1.788 1.99h-.446c-1.12-.441-1.34-.664-1.34-.884a18.644 18.644 0 0 1 3.359-6.631"/><path class="s" d="M309.262 255.989h-.446a6.012 6.012 0 0 0-4.245 5.084c0 1.105-.224 2.21-.224 3.315h3.575c2.9 0 5.586-.221 7.82-.441a3.982 3.982 0 0 0-1.787-3.974 33.037 33.037 0 0 1-3.8-3.979h-.894"/><path class="t" d="M286.248 261.294a.8.8 0 0 0-.224.664.8.8 0 0 1 .224-.664zm1.12-4.421z"/><path class="u" d="M287.363 257.1a29.191 29.191 0 0 0-1.12 4.2 29.191 29.191 0 0 1 1.12-4.2z"/><path class="s" d="M292.946 254a1.355 1.355 0 0 0-.894.221 34.233 34.233 0 0 1-4.469 1.326c0 .441-.224.884-.224 1.326v.221a29.192 29.192 0 0 0-1.12 4.2.8.8 0 0 0-.224.664l.224.221c.67.221 2.239.441 4.693.884 0-.221 0-.221.224-.441a37.547 37.547 0 0 0 2.239-3.095 4.465 4.465 0 0 0 .446-4.421c-.224-.664-.446-1.105-.894-1.105M319.323 260.853a12.256 12.256 0 0 0-2.011 1.547c0 .441-.224.884-.224 1.548q3.687-.331 6.033-.664zM298.981 257.984a2.818 2.818 0 0 0-2.681 1.769 21.883 21.883 0 0 0-2.458 3.758c2.458.221 5.139.441 8.49.664v-.884a25.489 25.489 0 0 1 .894-3.979c0-.664-.224-1.105-.894-1.105h-.894c-.894 0-1.564-.221-2.458-.221M295.4 246.267c-.224 1.105-.446 2.431-.67 3.315-.224 1.547.894 2.431 2.239 4.638.446 1.105 2.011 1.326 3.8 1.326a23.89 23.89 0 0 0 4.915-.664 4.872 4.872 0 0 0 1.788-1.105l-12.072-7.516M292.282 244.275a18.644 18.644 0 0 0-3.359 6.631c0 .221.224.441 1.34.884h.446c1.564 0 1.788-1.99 1.788-1.99.446-1.547.67-3.095 1.12-4.421l-1.34-1.105"/><path class="v" d="M370.486 155.413c-.224.221-.446.221-.894.221.446 0 .67 0 .894-.221z"/><path class="w" d="M369.6 155.639c-1.34.441-2.9.884-4.245 1.326 1.336-.442 2.9-.885 4.245-1.326z"/><path class="a" d="M364.457 133.971a51.629 51.629 0 0 0-16.758 3.979 18.551 18.551 0 0 1 .894 3.758 90.052 90.052 0 0 1 5.81 19.672q4.357-1.99 9.384-3.979h.224a.827.827 0 0 1 .67-.221v-.221h.67c1.34-.441 2.9-.884 4.245-1.326.446 0 .67 0 .894-.221a98.265 98.265 0 0 0-4.469-13.7c-.67-2.653-1.12-5.305-1.564-7.736"/><path class="v" d="M339.207 204.487c.446.221.894.664 1.34.884-.447-.221-.894-.664-1.34-.884zm12.956-17.913a73.426 73.426 0 0 0 11.619 10.4 73.426 73.426 0 0 1-11.619-10.4z"/><path class="a" d="M352.163 186.583a44.094 44.094 0 0 1-12.956 17.917c.446.221.894.664 1.34.884 2.239 1.99 4.469 3.758 6.48 5.305a48.417 48.417 0 0 0 16.758-13.7 73.436 73.436 0 0 1-11.619-10.4"/><path class="v" d="M359.536 186.137c.446.221.894.221 1.34.441-.446-.221-.894-.221-1.34-.441zm-4.915-21.663c4.469 1.547 10.726 1.99 17.653 1.99-6.928-.001-13.184-.442-17.653-1.99z"/><path class="w" d="M360.883 186.583a30.619 30.619 0 0 0 4.469.441 30.619 30.619 0 0 1-4.469-.441z"/><path class="a" d="M354.624 164.475a46.467 46.467 0 0 1-1.12 17.463 5.837 5.837 0 0 1-.67 2.653c2.239.664 4.469 1.105 6.7 1.546.446.221.894.221 1.34.441a30.625 30.625 0 0 0 4.469.441h.67v.221h3.359a30.037 30.037 0 0 0 1.564-5.305 52.51 52.51 0 0 0 1.34-15.474c-6.928 0-13.183-.441-17.653-1.99"/><path class="m" d="M306.138 2.009c-23.91 0-46.479 16.579-51.395 37.585-3.575 14.81-.67 28.735 4.469 42a16.883 16.883 0 0 1 .446-3.315c.446-.664.67-2.879 9.162-4.864a63.966 63.966 0 0 1-1.788-33.82c4.247-17.69 20.781-32.059 40-36.259a61.865 61.865 0 0 0-6.257-1.105 43.53 43.53 0 0 1 5.363-.222z"/><path class="m" d="M308.147 2.009h-2.011a43.53 43.53 0 0 0-5.363.221 61.866 61.866 0 0 1 6.257 1.105 61.87 61.87 0 0 1 6.256-1.105 39.994 39.994 0 0 0-5.139-.221zM268.594 102.81a21.251 21.251 0 0 1 1.564 8.62 209.675 209.675 0 0 1-4.469 30.283 82.556 82.556 0 0 0-5.587 19.231l.446.884h-.67c-.224 1.326-.224 2.431-.446 3.758a19.782 19.782 0 0 0 7.822-3.095h.224c0 .221-.224.441-.224.664l5.363-3.095a78.177 78.177 0 0 1 5.363-18.348 218.246 218.246 0 0 0 4.466-28.958c-6.033-1.99-10.055-4.421-10.949-5.526a30.324 30.324 0 0 1-2.9-4.421"/><path class="m" d="M260.105 160.945a1.319 1.319 0 0 0-.224.884h.67z"/><path class="a" d="M321.328 127.781h-.67a15.262 15.262 0 0 1-27.032 0h-.894a15.516 15.516 0 0 0 28.6 0"/><path class="a" d="M320.657 127.781h-4.463a11.142 11.142 0 0 1-18.1 0h-4.469a15.262 15.262 0 0 0 27.032 0z"/><path class="w" d="M316.2 127.781h-18.108a11.142 11.142 0 0 0 18.1 0"/><path class="d" d="M297.2 127.781a11.284 11.284 0 0 0 19.665 0z"/><path class="i" d="M291.163 95.953a4.876 4.876 0 0 1 3.129 1.105 2.92 2.92 0 0 0 .67-1.769 3.746 3.746 0 0 0-3.8-3.758 3.519 3.519 0 0 0-3.575 3.536 6.4 6.4 0 0 0 .446 1.99 5.375 5.375 0 0 1 3.129-1.105M323.792 95.953a5.375 5.375 0 0 1 3.129 1.105 5.161 5.161 0 0 0 .446-1.769 3.565 3.565 0 0 0-3.575-3.758 3.511 3.511 0 0 0-3.575 3.536 3.256 3.256 0 0 0 .446 1.99 5.376 5.376 0 0 1 3.129-1.105z"/><path class="o" d="M287.588 95.952c.224.441.224.664.446 1.105a.218.218 0 0 0 .224-.221c-.224-.22-.446-.663-.67-.884z"/><path class="m" d="M272.613 160.06l-5.366 3.095c0-.221.224-.441.224-.664h-.224c-4.245 3.315-12.957 3.979-23.016 3.979-9.162 0-19.441-.664-27.709-.884a103.852 103.852 0 0 0-14.3-1.105h-2.007a40.2 40.2 0 0 0-11.837 2.21c-10.279 3.979-12.513 15.034-14.748 26.3l8.938-7.295a18.173 18.173 0 0 1 10.279-10.4 34.155 34.155 0 0 1 11.837-2.21h2.011c4.915 0 9.608.441 14.3.884 8.268.441 18.555 1.105 27.709 1.105 9.832 0 18.77-.664 23.016-3.758a47.077 47.077 0 0 1 .893-11.274"/><path class="o" d="M148.821 221.282a8.106 8.106 0 0 0 2.458.443 11.635 11.635 0 0 1-2.458-.443z"/><path class="m" d="M179.436 195.863l-6.257 5.084-.894-1.105c-1.788 7.736-4.469 14.589-10.726 18.568a20.944 20.944 0 0 1-6.7 2.879v.221h-.67c-.67 0-1.34.221-2.011.221h-.889a8.107 8.107 0 0 1-2.458-.443 23.488 23.488 0 0 0-3.359-.441c-.446 0-.67 0-.67.221-.224.664 3.575 9.276 11.837 9.276a16.684 16.684 0 0 0 9.384-3.315c9.608-5.969 10.727-19.453 13.407-31.168"/><path class="d" d="M186.583 189.678l-2.458-3.095 1.787-1.769 2.682 3.095z"/><path class="x" d="M186.583 189.678l-2.458-3.095 1.787-1.769 2.682 3.095z"/><path class="r" d="M173.178 200.946l-3.8-4.421 14.078-11.494 3.8 4.421z"/><path class="y" d="M183.456 185.031l-.894.664-8.938 7.295-4.245 3.536 3.8 4.421 14.078-11.494-.224-.221-2.681-3.095z"/><path class="d" d="M116.871 245.163l-1.34-1.547 4.023-5.748 3.8 4.422z"/><path class="z" d="M116.871 245.163l-1.34-1.547 4.023-5.748 3.8 4.422z"/><path class="y" d="M114.632 246.044l-.446-.221 1.564-1.99.894 1.105z"/><path class="d" d="M162.682 202.277l-1.118-1.327 19.217-16.136 1.118 1.326z"/><path class="x" d="M162.682 202.277l-1.118-1.327 19.217-16.136 1.118 1.326z"/><path class="aa" d="M123.345 242.285l-3.8-4.422 49.83-41.335 3.8 4.421z"/><path class="b" d="M138.325 214.65c4.023-4.421 11.837-5.526 12.067-1.769.224 2.653-3.359 2.431-4.469 3.536a41.669 41.669 0 0 1-4.253 3.1 1.353 1.353 0 0 1-.894-.221c-1.12-.664-1.12-3.979-2.458-4.638z"/><path class="a" d="M331.162 15.049c-.224.221-.224.221-.446.221a2.385 2.385 0 0 0-1.564 3.095 2.418 2.418 0 0 0 2.458 1.769.827.827 0 0 0 .67-.221 2.158 2.158 0 0 0 1.788-2.21c-.894-.884-2.011-1.769-2.9-2.653"/><path class="a" d="M331.6 15.049h-.446c.894.884 2.011 1.769 2.9 2.653v-.884a2.612 2.612 0 0 0-2.458-1.769zM321.106 11.069c-.446 0-.67 0-.894.221a2.383 2.383 0 0 0-1.564 3.095 2.418 2.418 0 0 0 2.458 1.769.827.827 0 0 0 .67-.221 2.3 2.3 0 0 0 1.564-3.095 2.348 2.348 0 0 0-2.239-1.769M340.55 25.662a1.318 1.318 0 0 0 .224.884 2.2 2.2 0 0 0 1.564 1.547 23.17 23.17 0 0 1-1.788-2.431z"/><path class="a" d="M343.225 23.451h-.894a2.692 2.692 0 0 0-1.788 2.21 23.169 23.169 0 0 0 1.788 2.431c.224.221.446.221.894.221h.67A2.97 2.97 0 0 0 345.684 25a2.75 2.75 0 0 0-2.458-1.547zM332.729 25.217a.827.827 0 0 0-.67.221 2.3 2.3 0 0 0-1.564 3.095 2.348 2.348 0 0 0 2.239 1.769 1.355 1.355 0 0 0 .894-.221 2.383 2.383 0 0 0 1.564-3.095 2.418 2.418 0 0 0-2.458-1.769"/><path class="ab" d="M308.591 282.958v1.542l-1.564-.221v-1.326zm0-.221v-1.323l-1.564.221v1.105zm.224.221v1.542l2.011.221v-1.769zm2.011-.221v-1.769l-2.011.441v1.326z"/><path class="b" d="M353.958 282.961c.67-2.653 4.693-7.295-.224-7.736-6.033-.221-9.162 6.189-7.822 12.155h8.714a4.921 4.921 0 0 1-.67-4.421zM263.9 282.961c-.67-2.653-4.693-7.295.224-7.736 6.033-.221 9.162 6.189 7.822 12.155h-8.717a5.727 5.727 0 0 0 .67-4.421z"/><path class="f" d="M502.186 74.751h2.543s1.919-2.317 7.63-1.412a63.092 63.092 0 0 1 9.552 2.317s-13.4.96-14.639.96a3.823 3.823 0 0 1-2.26-.96h-2.826zM500.939 75.653H498.4s-1.919 2.317-7.63 1.412a63.093 63.093 0 0 1-9.552-2.317s13.4-.96 14.639-.96a3.823 3.823 0 0 1 2.26.96h2.826z"/><path class="ac" d="M500.291 80.424h2.543V72.8h-2.543z"/><path class="f" d="M413.674 74.751h-2.543s-1.919-2.317-7.63-1.412a63.094 63.094 0 0 0-9.552 2.317s13.4.96 14.639.96a3.823 3.823 0 0 0 2.26-.96h2.826zM414.921 75.653h2.543s1.919 2.317 7.63 1.412a63.093 63.093 0 0 0 9.552-2.317s-13.4-.96-14.639-.96a3.823 3.823 0 0 0-2.26.96h-2.826z"/><path class="ac" d="M415.6 72.832h-2.543v7.629h2.543z"/><path class="e" d="M435.495 117.592h-2.543a15.268 15.268 0 0 1 15.261-15.259v2.543a12.662 12.662 0 0 0-12.718 12.716zM481.333 117.592h2.543a15.268 15.268 0 0 0-15.261-15.259v2.543a12.662 12.662 0 0 1 12.718 12.716z"/><path class="ad" d="M498.969 78.535h5.256a1.16 1.16 0 0 1 1.187 1.187v2.719a1.16 1.16 0 0 1-1.187 1.187h-5.256a1.16 1.16 0 0 1-1.187-1.187v-2.719a1.16 1.16 0 0 1 1.187-1.187zM416.9 78.535h-5.2a1.254 1.254 0 0 0-1.243 1.243v2.657a1.254 1.254 0 0 0 1.243 1.243h5.2a1.254 1.254 0 0 0 1.243-1.243v-2.657a1.254 1.254 0 0 0-1.243-1.243z"/><path class="f" d="M455.055 84.245h-35.67v-1.92h-10.172a3.907 3.907 0 0 0 2.543 5.086c3.839 1.243 45.217 7.008 45.217 7.008zM460.814 84.245h35.67v-1.92h10.173a3.907 3.907 0 0 1-2.543 5.086c-3.839 1.3-45.217 7.008-45.217 7.008z"/><path class="f" d="M468.221 106.851h-19.9a2.509 2.509 0 0 1-2.481-2.485V91.535a2.51 2.51 0 0 1 2.481-2.487h19.9a2.509 2.509 0 0 1 2.5 2.487v12.886a2.46 2.46 0 0 1-2.492 2.429z"/><path d="M458.267 113.291a7.348 7.348 0 1 0-5.2-2.152 7.349 7.349 0 0 0 5.2 2.152z"/><path class="ae" d="M458.268 109.053a3.108 3.108 0 1 0-2.2-.91 3.108 3.108 0 0 0 2.2.91z"/><path class="e" d="M468.611 96.681h-21.416a6.465 6.465 0 0 1-6.5-6.5V86a6.465 6.465 0 0 1 6.5-6.5h21.421a6.465 6.465 0 0 1 6.5 6.5v4.182a6.465 6.465 0 0 1-6.505 6.5z"/><path class="f" d="M462 92.048a3.616 3.616 0 1 0-2.557-1.059A3.617 3.617 0 0 0 462 92.048zM453.073 90.351a1.92 1.92 0 1 0-.735-.146 1.92 1.92 0 0 0 .735.146z"/><path class="ab" d="M222.731 121.357a.869.869 0 0 0-.435-.64 182.141 182.141 0 0 0-25.1-11.2l-.982-.35-.665-.235-.16-.056a228.635 228.635 0 0 0-26.416-7 .941.941 0 0 0-.777.21 36.57 36.57 0 0 0-9.156 13.828 69.4 69.4 0 0 0-3.191 21.212 1.027 1.027 0 0 0 .432.768 179.556 179.556 0 0 0 25.033 11.179 224.069 224.069 0 0 0 28.141 7.616.848.848 0 0 0 .859-.32 68.114 68.114 0 0 0 10.853-18.5 36.981 36.981 0 0 0 1.564-16.512z"/><path class="af" d="M224.062 120.691a.869.869 0 0 0-.435-.64 182.148 182.148 0 0 0-25.113-11.208l-.977-.345-.665-.235-.16-.056A228.639 228.639 0 0 0 170.3 101.2a.941.941 0 0 0-.777.21 36.57 36.57 0 0 0-9.156 13.833 69.4 69.4 0 0 0-3.191 21.214 1.027 1.027 0 0 0 .432.768 179.545 179.545 0 0 0 25.036 11.175 224.057 224.057 0 0 0 28.142 7.613.848.848 0 0 0 .859-.32 68.119 68.119 0 0 0 10.853-18.5 35.982 35.982 0 0 0 1.564-16.502z"/><path class="ag" d="M221.6 139.609c.32-.768.64-1.575.921-2.358a37.226 37.226 0 0 0 1.585-16.548.868.868 0 0 0-.435-.64 182.136 182.136 0 0 0-25.113-11.208l-.977-.345-.665-.235-.16-.056a228.633 228.633 0 0 0-26.42-7.008.941.941 0 0 0-.777.21 36.57 36.57 0 0 0-9.156 13.828 50.755 50.755 0 0 0-.765 2.412l61.971 21.911z"/><path class="f" d="M173.656 139.375a1.908 1.908 0 1 0-1.085-.976 1.908 1.908 0 0 0 1.085.976zM184.052 142.912a1.908 1.908 0 1 0-1.085-.976 1.908 1.908 0 0 0 1.085.976zM194.448 146.5a1.908 1.908 0 1 0-1.085-.976 1.908 1.908 0 0 0 1.085.976z"/><path class="ah" d="M216.146 135.529l-5.119-1.81a.542.542 0 0 1-.16-.934l3.991-3.076a.542.542 0 0 1 .861.3l1.171 4.9a.574.574 0 0 1-.744.616zM215.43 137.563l-5.119-1.81a.542.542 0 0 0-.707.63l1.171 4.9a.542.542 0 0 0 .861.3l3.991-3.076a.574.574 0 0 0-.2-.948z"/><path class="ad" d="M200.8 142.108l-30.262-10.7a2.973 2.973 0 0 1-1.812-3.81l6.3-17.826a2.974 2.974 0 0 1 3.81-1.82l30.254 10.7a2.973 2.973 0 0 1 1.82 3.81l-6.3 17.826a2.974 2.974 0 0 1-3.812 1.827z"/><path class="q" d="M200.388 139.632l-27.875-9.855a1.708 1.708 0 0 1-1.037-2.169l5.718-16.185a1.708 1.708 0 0 1 2.169-1.036l27.877 9.854a1.708 1.708 0 0 1 1.036 2.169l-5.717 16.184a1.681 1.681 0 0 1-2.172 1.04z"/><path class="h" d="M188.679 113.678l-9.618-3.392a1.38 1.38 0 0 0-1.747.833l-5.957 16.843a1.38 1.38 0 0 0 .833 1.746l16.461 5.818zM207.565 120.354l-8.094-2.861-.014 21.809 1.251.443a1.381 1.381 0 0 0 1.747-.833l5.958-16.849a1.345 1.345 0 0 0-.848-1.708z"/><path d="M198.309 120.647l-.194.547-4.639 4.651-.861-.3 4.579-4.494-3.01-1.064.25-.7zM196.984 127.125l.179-.509.886-.39c2.089-.932 3.084-1.5 3.441-2.389a1.174 1.174 0 0 0-.784-1.641 2.18 2.18 0 0 0-1.47.053l-.066-.683a2.9 2.9 0 0 1 1.98 0 1.825 1.825 0 0 1 1.241 2.461c-.4 1.134-1.54 1.743-3.273 2.538l-.752.262 2.775.982-.25.7zM204.229 124.938a1.12 1.12 0 1 1 .856-.046 1.12 1.12 0 0 1-.856.046zm.539-1.524a.5.5 0 0 0-.64.3.5.5 0 0 0 .939.331.5.5 0 0 0-.3-.635z"/><path class="ai" d="M307.49 107.319c5 .128 5.118 5.311 10.635 5.311h.192c6.28-.064 13.839-.64 20.695-3.712a30.058 30.058 0 0 0 16.724-18.552h.064a3.216 3.216 0 0 1 .769-.128v2.239a1.08 1.08 0 0 0 1.089 1.088h1.665a1.119 1.119 0 0 0 1.089-1.088v-3.14a9.394 9.394 0 0 1 1.28-.32c2.818-7.295 1.217-20.094 1.217-20.094s-.959-8.064-54.269-8.256V60.6h-2.363v.064c-53.244.192-54.269 8.256-54.269 8.256s-1.537 12.795 1.217 20.094a10.251 10.251 0 0 1 1.345.32v3.136a1.08 1.08 0 0 0 1.089 1.088h1.6a1.08 1.08 0 0 0 1.089-1.088v-2.235a3.246 3.246 0 0 1 .833.128 30.229 30.229 0 0 0 16.723 18.552c6.856 3.072 14.481 3.648 20.759 3.712h.192c5.438 0 5.638-5.183 10.635-5.311"/><path class="aj" d="M362.913 68.924s-.96-8.064-54.269-8.256V60.6h-2.366v.064c-53.244.192-54.269 8.256-54.269 8.256s-1.537 12.795 1.217 20.094c17.043 4.478 37.482 4.608 44.723 4.544A4.135 4.135 0 0 0 301.6 91h11.789a3.973 3.973 0 0 0 3.588 2.559c7.239.064 27.672-.064 44.723-4.544 2.818-7.295 1.217-20.094 1.217-20.094"/><path class="ak" d="M273.851 67.263V62.2c-2.879.32-5.318.64-7.5 1.024v5q3.362-.481 7.5-.961zM348.237 68.223v-5a113.204 113.204 0 0 0-7.433-1.088v5.118c2.754.32 5.254.64 7.433.96"/><path class="al" d="M266.361 63.221a49.389 49.389 0 0 0-10.123 2.688v4.736c.769-.7 4.549-1.6 10.123-2.431zM358.364 70.457v-4.676a50.241 50.241 0 0 0-10.123-2.623v5.06a39.391 39.391 0 0 1 10.123 2.239z"/><path class="am" d="M266.229 79.989h11.213a4.224 4.224 0 1 0 0-8.448h-11.213a4.224 4.224 0 1 0 0 8.448z"/><path class="an" d="M274.43 75.769a2.852 2.852 0 1 0 .859-1.973 2.851 2.851 0 0 0-.859 1.973zM263.538 75.766a2.852 2.852 0 1 0 2.82-2.816 2.8 2.8 0 0 0-2.82 2.816z"/><path class="am" d="M337.863 79.989h11.149a4.224 4.224 0 1 0 0-8.448h-11.149a4.224 4.224 0 1 0 0 8.448z"/><path class="an" d="M346.066 75.766a2.852 2.852 0 1 0 2.818-2.816 2.8 2.8 0 0 0-2.818 2.816zM335.11 75.769a2.852 2.852 0 1 0 .859-1.973 2.851 2.851 0 0 0-.859 1.973zM253.223 89.012l4.741-2.815.385 1.663.832 2.495-4.421-.96z"/><path class="d" d="M253.223 89.012l-.021-.036a.042.042 0 0 0 .011.076zm4.741-2.815l.04-.009a.042.042 0 0 0-.062-.026zm.385 1.663l-.041.009zm.832 2.495l-.009.041a.042.042 0 0 0 .048-.054zm-4.421-.96l-.01.04zm-1.516-.348l4.741-2.815-.042-.071-4.743 2.815zm4.679-2.841l.385 1.663.081-.019-.389-1.663zm.387 1.667l.832 2.495.079-.026-.832-2.495zm.88 2.441l-4.421-.96-.018.081 4.421.96zm-4.42-.959l-1.537-.384-.02.081 1.537.384z"/><path class="d" d="M253.223 89.012l-.021-.036a.042.042 0 0 0 .011.076zm4.741-2.815l.04-.009a.042.042 0 0 0-.062-.026zm.385 1.663l-.041.009zm.832 2.495l-.009.041a.042.042 0 0 0 .048-.054zm-4.421-.96l-.01.04zm-1.516-.348l4.741-2.815-.042-.071-4.743 2.815zm4.679-2.841l.385 1.663.081-.019-.389-1.663zm.387 1.667l.832 2.495.079-.026-.832-2.495zm.88 2.441l-4.421-.96-.018.081 4.421.96zm-4.42-.959l-1.537-.384-.02.081 1.537.384z"/><path class="aa" d="M254.568 89.338l2.754-1.471h1.025v4.608a1.08 1.08 0 0 1-1.089 1.088h-1.6a1.08 1.08 0 0 1-1.089-1.088v-3.137"/><path class="an" d="M361.635 89.012l-4.677-2.812-.448 1.663-.833 2.495 4.421-.96z"/><path class="d" d="M361.635 89.012l.01.04a.042.042 0 0 0 .011-.076zm-4.677-2.812l.021-.036a.042.042 0 0 0-.061.025zm-.448 1.663l.039.013zm-.833 2.495l-.039-.013a.042.042 0 0 0 .048.054zm4.421-.96l.009.041zm1.559-.419l-4.677-2.815-.043.071 4.677 2.815zm-4.739-2.79l-.448 1.663.08.022.45-1.666zm-.447 1.661l-.833 2.495.079.026.833-2.495zm-.785 2.549l4.421-.96-.018-.081-4.421.96zm4.422-.96l1.537-.384-.02-.081-1.537.384z"/><path class="d" d="M361.635 89.012l.01.04a.042.042 0 0 0 .011-.076zm-4.677-2.812l.021-.036a.042.042 0 0 0-.061.025zm-.448 1.663l.039.013zm-.833 2.495l-.039-.013a.042.042 0 0 0 .048.054zm4.421-.96l.009.041zm1.559-.419l-4.677-2.815-.043.071 4.677 2.815zm-4.739-2.79l-.448 1.663.08.022.45-1.666zm-.447 1.661l-.833 2.495.079.026.833-2.495zm-.785 2.549l4.421-.96-.018-.081-4.421.96zm4.422-.96l1.537-.384-.02-.081-1.537.384z"/><path class="aa" d="M360.345 89.338l-2.754-1.471h-1.084v4.608a1.12 1.12 0 0 0 1.089 1.088h1.665a1.12 1.12 0 0 0 1.089-1.088v-3.137"/><path class="ao" d="M272.7 92.4c-4.421-.512-9.034-1.152-13.519-2.047a30.229 30.229 0 0 0 16.719 18.556c6.856 3.072 14.481 3.648 20.759 3.712a33.5 33.5 0 0 1-5.382-7.614l-.256-.512a53.622 53.622 0 0 1-4.037-11.071c-4.1-.192-8.778-.448-13.775-.96zM323.634 105a31.468 31.468 0 0 1-5.318 7.615c12.622-.064 30.5-2.5 37.418-22.269a130.375 130.375 0 0 1-13.007 1.983l-.577.064c-5.118.512-10 .832-14.225 1.024a53.609 53.609 0 0 1-4.037 11.071l-.256.512"/><path class="ap" d="M273.215 92.473c5 .512 9.676.768 13.775.96a76.715 76.715 0 0 1-2.239-18.552c0-2.816.192-5.631.448-8.384-15.056 1.152-27.422 3.072-28.769 4.352l-.192-.192c0 3.008.192 5.758.448 8.384a57.275 57.275 0 0 0 1.28 7.167l.128.448a12.241 12.241 0 0 0 .577 2.047l.512 1.663c4.479.9 9.1 1.535 13.519 2.047zM266.232 80a4.224 4.224 0 1 1 0-8.448h11.213a4.224 4.224 0 1 1 0 8.448zM342.733 92.339a130.374 130.374 0 0 0 13.007-1.983h-.064l.833-2.495.448-1.663a64.707 64.707 0 0 0 1.731-15.55l-.192.192c-1.345-1.279-13.711-3.2-28.769-4.352a72.717 72.717 0 0 1 .448 8.384 73.658 73.658 0 0 1-2.239 18.552c4.229-.192 9.1-.512 14.225-1.024l.577-.064zm6.285-12.353h-11.149a4.224 4.224 0 1 1 0-8.448h11.149a4.224 4.224 0 1 1 0 8.448z"/><path class="aq" d="M277.313 74.872a.875.875 0 0 0-.9.9.864.864 0 0 0 .9.832.848.848 0 0 0 .833-.832.862.862 0 0 0-.833-.9zM266.358 74.872a.862.862 0 0 0-.833.9.848.848 0 0 0 .833.832.862.862 0 0 0 .9-.832.875.875 0 0 0-.9-.9zM348.885 74.872a.862.862 0 0 0-.833.9.848.848 0 0 0 .833.832.864.864 0 0 0 .9-.832.875.875 0 0 0-.9-.9zM337.993 74.872a.875.875 0 0 0-.9.9.862.862 0 0 0 .9.832.848.848 0 0 0 .833-.832.862.862 0 0 0-.833-.9z"/><path class="ar" d="M307.495 95.473c-3.652 0-4.613 6.463-4.741 8.576s-3.588 3.776-5.51 3.776l1.217-2.816zm-8.906 9.023v.256L304.739 91l-6.15 13.5zm18.516.517l1.089 2.175a4.385 4.385 0 0 1-1.473.256 4.036 4.036 0 0 1-3.78-2.623c-1.859-3.838-1.795-9.343-5.438-9.343l9.612 9.535zM304.748 91h-3.14a4.135 4.135 0 0 1-3.652 2.559h-2.626c-2.239 0-5.061-.064-8.329-.128a53.615 53.615 0 0 0 4.037 11.071l.256.512a33.495 33.495 0 0 0 5.382 7.615h.192c5.438 0 5.638-5.183 10.635-5.311 5 .128 5.119 5.311 10.635 5.311h.192a33.345 33.345 0 0 0 5.318-7.615l.256-.512a52.277 52.277 0 0 0 4.037-11.071c-3.2.064-6.086.128-8.329.128h-2.626A3.973 3.973 0 0 1 313.4 91h-8.652zm8.652 0h-3.343l6.792 13.5-3.46-13.5"/><path class="an" d="M307.363 65.666c-7.367 0-15.056.32-22.17.832-.256 2.752-.448 5.567-.448 8.384a76.716 76.716 0 0 0 2.239 18.552c3.268.064 6.086.128 8.329.128h2.626A4.135 4.135 0 0 0 301.592 91h11.788a3.973 3.973 0 0 0 3.588 2.559h2.626c2.239 0 5.118-.064 8.329-.128a73.662 73.662 0 0 0 2.239-18.552 72.725 72.725 0 0 0-.448-8.384c-7.048-.512-14.737-.832-22.17-.832h-.192"/><path class="as" d="M342.16 92.4a84.126 84.126 0 0 0 1.089-12.414h.512a95.351 95.351 0 0 1-1.025 12.35l-.577.064"/><path class="ac" d="M342.734 92.342l-.577.064c-1.473 8.956-3.973 11.646-4.357 12.094h-13.9l-.128.256-.128.256h14.353l.064-.064c.124-.128 3.072-2.559 4.673-12.606z"/><path class="at" d="M323.892 104.5h-7.048l.256.512h6.536l.128-.256z"/><path class="e" d="M310.058 91h-5.318l-6.15 13.754-.128.256-1.217 2.816c1.919 0 5.382-1.663 5.51-3.776s1.089-8.576 4.741-8.576 3.588 5.5 5.438 9.343a4.035 4.035 0 0 0 3.78 2.623 4.383 4.383 0 0 0 1.473-.256l-1.089-2.175-.256-.512z"/><path class="am" d="M358.488 70.838c-1.919-1.919-27.808-5.183-50.937-5.183h-.192c-23.129 0-49.015 3.264-50.937 5.183l-.32-.384c2.179-2.175 29.089-5.311 51.257-5.311h.2c22.17 0 49.08 3.136 51.323 5.311l-.384.384"/><path class="au" d="M273.211 92.469c1.537 8.9 3.973 11.582 4.421 12.03h21.079l-.128.256-.128.256h-21.016l-.064-.064c-.192-.128-3.076-2.559-4.677-12.542z"/><path class="as" d="M272.7 92.4a84.973 84.973 0 0 1-1.089-12.414h.577a86.338 86.338 0 0 0 1.025 12.475z"/><path class="b" d="M156.647 110.989l-.446 13.7a4.267 4.267 0 0 1 .224-1.769c2.458-10.61 18.771-7.517 13.854-12.379a25.658 25.658 0 0 0-13.407-.884c0 .441-.224.884-.224 1.326z"/><path class="e" d="M434 119.787c2.061 0 3.732-.627 3.732-1.4s-1.671-1.4-3.732-1.4-3.732.627-3.732 1.4 1.674 1.4 3.732 1.4zM482.96 119.787c2.061 0 3.732-.627 3.732-1.4s-1.671-1.4-3.732-1.4-3.732.627-3.732 1.4 1.672 1.4 3.732 1.4z"/><path class="p" d="M211.9 246.412l-.08.63-.625-.171.069-.541.64.082zm.011-.09l.069-.541-.648.01-.058.449.64.082zm.08.1l-.08.63.8.194.091-.72-.819-.1zm.83.014l.091-.72-.841.077-.069.541.819.1z"/></svg>