<svg xmlns="http://www.w3.org/2000/svg" viewBox="0 0 636 300"><defs><style>.a{fill:#b2b2b2}.b{fill:#b3d6f2}.c{fill:#107c10}.d{fill:#fff}.e{fill:#65aa0d}.f{fill:#69afe5}.g{fill:#106110}.h{fill:#e5a500}.i{fill:#5991c9}.j{fill:#005a93}.k{fill:#0078d7}.l{fill:#004578}.m{fill:#6597bf}.n{fill:#0064b5}.o{fill:#99bcd7}.p{fill:#00b294}.q{fill:#008272}.r{fill:#ff8c00}.s{fill:#c8c8c8}.t{fill:#939393}.u{fill:#d1d1d1}</style></defs><title>swimlane-machine-learning-library</title><path class="a" d="M41.882 261.967a4.079 4.079 0 0 1-3.99-3.967 3.989 3.989 0 0 1 3.989-3.967c70.307 0 552.236-2 552.236-2a4 4 0 0 1 .148 8z"/><path class="b" d="M383.754 230.786c-54.2-110.676-54.209-110.676-54.209-110.676V50.033h3v-12h-49v12h3v70.077l-54.381 110.675c-7.311 19.751 11.422 25.052 11.422 25.248l64.732 1h65.2c.001-.624 17.547-6.496 10.236-26.247z"/><path class="c" d="M340.452 142.033h-65.034l-43.059 88.442c-7.292 19.7 10.255 24.863 11.277 24.93s64.683.628 64.683.628h65.034s17.5-5.858 10.209-25.558z"/><path class="d" d="M318.578 137.647c-2.924 0-6.592 1.462-8.054 4.386h16.827c-1.462-2.924-5.13-4.386-8.773-4.386z"/><path class="e" d="M327.351 142.033h-16.827a10.213 10.213 0 0 0-1.447 5.689 9.8 9.8 0 0 0 9.144 8.952c6.026.183 10.593-4.277 10.593-9.511a10.447 10.447 0 0 0-1.463-5.13zM289.237 212.422c-5.849 0-10.235 4.411-10.235 9.516a10.011 10.011 0 0 0 10.235 10.309c5.179 0 9.591-4.386 9.591-10.309a9.732 9.732 0 0 0-9.591-9.516zM268.024 194.134a5.13 5.13 0 0 0 0 10.26c2.181 0 4.386-2.206 4.386-5.13s-2.21-5.13-4.386-5.13zM303.932 161.892a5.118 5.118 0 0 0 0 10.235c2.206 0 4.386-2.206 4.386-5.13s-2.18-5.105-4.386-5.105zM309.781 197.8c-2.924 0-5.105 2.181-5.105 4.386a5.118 5.118 0 1 0 10.235 0c0-2.204-2.181-4.386-5.13-4.386zM325.889 227.861c-2.206 0-3.668 2.206-3.668 4.386a3.668 3.668 0 1 0 7.336 0c0-2.18-1.463-4.386-3.668-4.386zM353.694 220.477a4.727 4.727 0 0 0-4.386 4.461c0 2.924 2.181 5.13 4.386 5.13a5.018 5.018 0 0 0 5.13-5.13c0-2.256-2.206-4.461-5.13-4.461zM338.329 206.574a3.656 3.656 0 1 0 3.671 3.668 3.46 3.46 0 0 0-3.671-3.668z"/><path class="f" d="M306.545 38.033h-23v12h3v69.9l-11.074 22.1H287.3c8.175-16.23 19.249-39.006 19.249-39.006V51.613c-20 2.937-20 3.572-20 3.572v-5.153h20z"/><path class="g" d="M287.051 142.033h-11.774l-43.059 88.441a37.2 37.2 0 0 0-1.458 8.75c0 12.408 10.009 16.809 15.925 16.809h61.294c40.075.009 55.831 0 64.006 0 9.59 0 14.253-11.956 13.9-17h-123.6s-17.49-5.821-10.213-24.817z"/><path class="h" d="M296.622 123.035a3.781 3.781 0 0 0-1.462 2.924z"/><path class="i" d="M329.545 50.523v69.587l54.2 110.675-54.2-110.675z"/><path class="b" d="M332.545 38.033h-17V65.49a5.471 5.471 0 0 1 2.944-1.49 4.25 4.25 0 0 1 4.417 4.431q0 4.405-4.417 4.405c-.748 0-2.221 0-2.944-.746v39.031l15.472 30.916h9.583l43.52 89.063-54.575-111.171v-69.9h3z"/><path class="e" d="M340.535 142.033h-9.516l38.781 79.822c2.974 8.128 3.515 17.666-.743 17.62 10.646.115 16.577 0 16.577 0a23.706 23.706 0 0 0-1.881-8.773z"/><circle class="d" cx="306.701" cy="126.611" r="7.444"/><circle class="d" cx="314.743" cy="97.896" r="4.111"/><path class="j" d="M316.606 50.033h-30.061v5.13l30.061-5.13z"/><path class="k" d="M478.545 66.033h49v189h-49z"/><path class="f" d="M478.545 89.033h49v62h-49z"/><path class="l" d="M478.545 97.033h49v44h-49z"/><path class="m" d="M393.829 245.956L434.918 78.8l43.136 10.604-41.088 167.157z"/><path class="n" d="M417.35 150.272l12.082-49.154 43.137 10.604-12.082 49.154z"/><path class="o" d="M418.713 144.727l9.517-38.719 43.137 10.604-9.517 38.718z"/><path class="p" d="M527.545 81.033h31v174h-31z"/><path class="q" d="M527.545 199.033h31v5h-31zM527.545 81.033h31v25h-31z"/><circle class="q" cx="542.443" cy="222.294" r="9.778"/><path class="r" d="M47.545 114.033h205v143h-205z"/><path class="d" d="M150.545 122.033h93v126h-93z"/><path class="s" d="M57.545 122.033h93v126h-93zM160.853 148.033h68.779a2 2 0 1 0 0-4h-68.779a2 2 0 1 0 0 4zM160.853 160.033h68.779a2 2 0 1 0 0-4h-68.779a2 2 0 1 0 0 4zM158.726 168.952a2.106 2.106 0 0 0 2.124 2.081h68.782a1.892 1.892 0 0 0 2.128-2c0-1.508-.541-2-2.128-2h-68.779a1.89 1.89 0 0 0-2.127 1.919zM160.853 181.033h68.779c1.587 0 2.128-.508 2.128-2a1.892 1.892 0 0 0-2.128-2h-68.774a2.1 2.1 0 0 0-2.127 2.2 1.9 1.9 0 0 0 2.122 1.8zM160.853 193.033h68.779a2 2 0 1 0 0-4h-68.779a2 2 0 1 0 0 4zM160.853 204.033h68.779a2 2 0 1 0 0-4h-68.779a2 2 0 1 0 0 4zM160.853 215.033h68.779a2 2 0 1 0 0-4h-68.779a2 2 0 1 0 0 4zM160.85 226.033h50.1a2.106 2.106 0 0 0 2.124-2.081 1.89 1.89 0 0 0-2.127-1.919h-50.1a1.89 1.89 0 0 0-2.127 1.919 2.106 2.106 0 0 0 2.13 2.081z"/><path class="t" d="M69.225 148.033h69.266a2 2 0 1 0 0-4H69.225a2 2 0 1 0 0 4zM69.225 160.033h69.266a2 2 0 1 0 0-4H69.225a2 2 0 1 0 0 4zM69.222 171.033h69.271a2.106 2.106 0 0 0 2.124-2.081 1.89 1.89 0 0 0-2.127-1.919H69.225a1.9 1.9 0 0 0-2.144 1.9 2.119 2.119 0 0 0 2.141 2.1zM69.225 181.033h69.266a1.9 1.9 0 0 0 2.121-1.8 2.1 2.1 0 0 0-2.127-2.2H69.222a2.119 2.119 0 0 0-2.141 2.085 1.913 1.913 0 0 0 2.144 1.915zM69.225 193.033h69.266a2 2 0 1 0 0-4H69.225a2 2 0 1 0 0 4zM69.225 204.033h69.266a2 2 0 1 0 0-4H69.225a2 2 0 1 0 0 4zM69.225 215.033h69.266a2 2 0 1 0 0-4H69.225a2 2 0 1 0 0 4zM69.222 226.033h50.1a2.106 2.106 0 0 0 2.124-2.081 1.89 1.89 0 0 0-2.127-1.919h-50.1a1.9 1.9 0 0 0-2.144 1.9 2.119 2.119 0 0 0 2.147 2.1z"/><path class="m" d="M182.545 186.004l-7.473-3.192-7.527 3.192v-71.971h15v71.971z"/><path class="d" d="M149.545 247.602l-46-29.111V93.642l46 29.093v124.867z"/><path class="u" d="M103.545 93.642v124.849l46 29.111V122.735l-13.205-8.445-32.795-20.648z"/></svg>