<svg xmlns="http://www.w3.org/2000/svg" viewBox="0 0 636 300"><defs><style>.a{fill:#737373}.b{fill:#c2c2c2}.c{fill:#65aa0d}.d{fill:#b2b2b2}.e{fill:#cfe454}.f,.w{fill:none}.g{fill:#fff}.h{fill:#f57800}.i{fill:#ffae4d}.j{fill:#0078d7}.k{fill:#4da1e2}.l{fill:#003438}.m{fill:#004b50}.n{fill:#83503a}.o{fill:#ff8b00}.p{fill:#995d44}.q{fill:#794b37}.r{fill:#562c85}.s{fill:#704532}.t{fill:#d48169}.u{fill:#231f20}.v{fill:#d6d6d6}.w{stroke:#f08400;stroke-miterlimit:10;stroke-width:2px}.x{fill:#00188f}.y{fill:#2488d8}.z{fill:#ec6401}.aa{fill:#707070}.ab{fill:#d83b01}.ac{fill:#b5b5b5}.ad{fill:#464646}.ae{fill:#9080cf}.af{fill:#2b6aa9}.ag{fill:#5c2d91}.ah{fill:#90c10c}</style></defs><title>swimlane-fsharp-data-science</title><path class="a" d="M168.782 190.5h-21a2.507 2.507 0 0 0-2.5 2.5 2.507 2.507 0 0 0 2.5 2.5h21a2.507 2.507 0 0 0 2.5-2.5 2.507 2.507 0 0 0-2.5-2.5z"/><path class="b" d="M149.5 196.5h18v64.293a8.707 8.707 0 0 1-8.707 8.707h-.578a8.715 8.715 0 0 1-8.715-8.715z"/><path class="c" d="M149.5 216.5h18v44.293a8.707 8.707 0 0 1-8.707 8.707h-.578a8.715 8.715 0 0 1-8.715-8.715z"/><path class="d" d="M163.5 196.5h4v20h-4z"/><path class="e" d="M167.5 216.5h-4v22h4zm0 26h-4v25.562c3.187-1.812 4-4.956 4-7.7z"/><path class="f" d="M149.5 196.5h18v64.293a8.707 8.707 0 0 1-8.707 8.707h-.578a8.715 8.715 0 0 1-8.715-8.715z"/><path class="g" d="M158.366 207.8a2.6 2.6 0 0 0-2.75-2.518 2.544 2.544 0 0 0-2.516 2.518 2.607 2.607 0 0 0 2.518 2.766 2.653 2.653 0 0 0 2.748-2.766z"/><path class="e" d="M157.452 246.29a3.44 3.44 0 0 0 0 6.879 3.449 3.449 0 0 0 0-6.879zM160.2 227.745a1.371 1.371 0 1 0 0 2.742 1.395 1.395 0 0 0 0-2.742z"/><path class="g" d="M161.333 201.4a1.277 1.277 0 0 0-1.139-1.371 1.469 1.469 0 0 0-1.371 1.371 1.278 1.278 0 0 0 1.371 1.146 1.078 1.078 0 0 0 1.139-1.146z"/><path class="e" d="M152.642 235.29a1.4 1.4 0 0 0 0 2.765 1.383 1.383 0 0 0 0-2.765z"/><path class="a" d="M195.743 190.5h-20.486a2.547 2.547 0 0 0-2.757 2.383v.235a2.547 2.547 0 0 0 2.757 2.383h20.486a2.552 2.552 0 0 0 2.757-2.383v-.235a2.551 2.551 0 0 0-2.757-2.383z"/><path class="b" d="M176.5 196.5h18v64.293a8.707 8.707 0 0 1-8.707 8.707h-.6a8.692 8.692 0 0 1-8.692-8.692z"/><path class="h" d="M176.5 230.5h18v30.293a8.707 8.707 0 0 1-8.707 8.707h-.6a8.692 8.692 0 0 1-8.692-8.692z"/><path class="d" d="M190.5 196.5h4v34h-4z"/><path class="i" d="M194.5 230.5h-4v8h4zm0 12h-4v25.688a9.17 9.17 0 0 0 4-7.824z"/><path class="f" d="M176.5 196.5h18v64.293a8.707 8.707 0 0 1-8.707 8.707h-.6a8.692 8.692 0 0 1-8.692-8.692z"/><path class="g" d="M184 213.08a2.594 2.594 0 0 0-2.518-2.742 2.645 2.645 0 0 0-2.742 2.742 2.594 2.594 0 0 0 2.742 2.518A2.533 2.533 0 0 0 184 213.08z"/><path class="i" d="M184.69 246.29a3.448 3.448 0 0 0 0 6.879 3.44 3.44 0 0 0 0-6.879z"/><path class="g" d="M188.8 224.08a1.319 1.319 0 0 0-1.371-1.371 1.283 1.283 0 0 0-1.147 1.371 1.082 1.082 0 0 0 1.147 1.146c.917.001 1.371-.456 1.371-1.146zM186.975 203.916a.914.914 0 0 0-1.828 0c0 .457.457 1.139.914 1.139s.914-.682.914-1.139z"/><path class="i" d="M180.111 235.29a1.383 1.383 0 1 0 1.371 1.394 1.483 1.483 0 0 0-1.371-1.394z"/><path class="a" d="M224 190.5h-21.012a2.5 2.5 0 0 0-2.488 2.488V193a2.5 2.5 0 0 0 2.5 2.5h21a2.507 2.507 0 0 0 2.5-2.5 2.507 2.507 0 0 0-2.5-2.5z"/><path class="b" d="M204.5 196.5h17v64.3a8.56 8.56 0 0 1-8.269 8.7h-.219a8.6 8.6 0 0 1-8.512-8.7z"/><path class="j" d="M204.5 224.5h17v36.315a8.551 8.551 0 0 1-8.269 8.685h-.219a8.6 8.6 0 0 1-8.512-8.685z"/><path class="d" d="M217.5 196.5h4v28h-4z"/><path class="k" d="M221.5 224.5h-4v14h4zm0 18h-4l.062 25.688a8.11 8.11 0 0 0 3.938-7.365z"/><path class="f" d="M204.5 196.5h17v64.3a8.56 8.56 0 0 1-8.269 8.7h-.219a8.6 8.6 0 0 1-8.512-8.7v-64.3z"/><path class="g" d="M211.47 215.6a2.6 2.6 0 0 0-2.742-2.518 2.518 2.518 0 0 0 0 5.036 2.6 2.6 0 0 0 2.742-2.518z"/><path class="k" d="M212.175 246.29a3.44 3.44 0 1 0 3.432 3.432 3.514 3.514 0 0 0-3.432-3.432zM214.917 227.745a1.371 1.371 0 1 0 1.371 1.371 1.474 1.474 0 0 0-1.371-1.371zM207.581 235.29a1.383 1.383 0 0 0 0 2.765 1.407 1.407 0 0 0 0-2.765z"/><path class="g" d="M136.5 241.5h4v50h-4z"/><path class="l" d="M140.5 242.5h-4V284a5.286 5.286 0 0 1 1.889-.232 5.964 5.964 0 0 1 2.111.232v-41.5z"/><path class="m" d="M133.5 238.5h104v4h-104z"/><path class="l" d="M237.5 237.5H133.5v4h104v-4zM480.555 290.5H115.76a5.046 5.046 0 0 0-5.26 5h375.106a4.994 4.994 0 0 0-5.051-5z"/><path class="m" d="M147.823 291.5a9.273 9.273 0 0 0-18.545 0z"/><path class="l" d="M138.442 282.343a9.2 9.2 0 0 0-9.164 9.157h18.546a9.237 9.237 0 0 0-9.382-9.157z"/><path d="M370.6 232.772c-38.238 11.457-64.1-37.548-64.1-37.548V163.37l49.215-1.37.457 3.447c-.001 37.779-.001 54.272 14.428 67.325z"/><path class="n" d="M339.242 222.5a2.742 2.742 0 0 1-2.742-2.742V197.5h-36v22.234a2.766 2.766 0 0 1-2.766 2.766H292.5v26h53v-26z"/><path class="n" d="M333.5 222.5c0 .233-32.2 0-32.2 0a34.568 34.568 0 0 0-34.481 31.742l-2.987 32.427a4.53 4.53 0 0 0 4.6 4.831h100.486a4.519 4.519 0 0 0 4.59-4.831l-2.98-32.427a34.579 34.579 0 0 0-34.5-31.742z"/><path d="M280.5 165.5h7v12h-7z"/><path class="n" d="M297.031 178.026a9.731 9.731 0 1 1-9.606-9.831 9.669 9.669 0 0 1 9.606 9.831z"/><path class="o" d="M283.536 184.681a2.787 2.787 0 0 1-2.766 2.742 2.993 2.993 0 0 1-2.975-2.742 3.026 3.026 0 0 1 2.975-2.975 2.841 2.841 0 0 1 2.766 2.975z"/><path class="p" d="M339.839 178.026a9.62 9.62 0 1 0 9.629-9.831 9.689 9.689 0 0 0-9.629 9.831z"/><path class="o" d="M353.132 184.681a2.991 2.991 0 0 0 2.967 2.742 2.783 2.783 0 0 0 2.75-2.742 2.839 2.839 0 0 0-2.75-2.975 3.026 3.026 0 0 0-2.967 2.975z"/><path class="q" d="M295.5 223.268v.232h.232a.227.227 0 0 1-.232-.232z"/><path class="q" d="M295.73 223.5h-.23v24h26.038c-10.628-3.847-20.838-9.954-25.808-24z"/><path class="r" d="M300.5 205.5h-.225a.225.225 0 0 0 .225.232z"/><path class="q" d="M336.5 204.621l-36 .914v.232c10.163 13.061 26.547 16.028 33.229 16.733h4.84a2.7 2.7 0 0 1-2.069-2.533zM335.95 222.5h-2.285c1.828.542 2.75.542 2.75 0h2.742c-.232.542-.457.542-.689 0z"/><path class="n" d="M353.814 175.377a35.2 35.2 0 0 1-26.323 34.32 5.5 5.5 0 0 1-1.6 2.75 7.278 7.278 0 0 1-5.051 2.053h-4.8a6.93 6.93 0 0 1-6.631-4.8 35.3 35.3 0 1 1 44.412-34.32z"/><path class="p" d="M294.289 163.37a51.211 51.211 0 0 1 8.483-19.917 35.23 35.23 0 0 0-3.68 61.145c-6.639-12.14-7.553-28.398-4.803-41.228z"/><path d="M318.094 128.788a37.835 37.835 0 0 0-37.781 37.112 36.469 36.469 0 0 0 14.2 2.75 38.349 38.349 0 0 0 36.177-25.889 37.163 37.163 0 0 0 25.41 22.684 37.941 37.941 0 0 0-38.006-36.657z"/><path class="p" d="M318.5 189.5v-15.346a3.7 3.7 0 0 0-3.664 3.2l-1.6 12.147z"/><path class="s" d="M312.834 189.5a6.931 6.931 0 0 0 11.682 0z"/><path class="t" d="M308.031 197.5a10.961 10.961 0 0 0 20.831 0z"/><path class="g" d="M308.031 197.5c1.371 3.2 5.485 5.492 10.52 5.492 4.818 0 8.94-2.293 10.311-5.492z"/><path class="u" d="M300.687 179.421a2.853 2.853 0 0 1 2.313 1.146 2.634 2.634 0 0 0 .689-1.851 3.036 3.036 0 0 0-3-2.975 2.837 2.837 0 0 0-2.742 2.975 2.632 2.632 0 0 0 .689 1.851 2.39 2.39 0 0 1 2.051-1.146zM335.493 179.421a3.173 3.173 0 0 1 2.293 1.146 5.492 5.492 0 0 0 .457-1.851 2.755 2.755 0 1 0-5.492 0 2.632 2.632 0 0 0 .689 1.851 2.389 2.389 0 0 1 2.053-1.146z"/><path class="v" d="M372.784 275.5l-2.529-28.685a26.959 26.959 0 0 0-26.9-24.315H341.5v.233a23 23 0 0 1-46 0v-.233h-1.144a26.567 26.567 0 0 0-26.677 24.315l-2.53 28.685H284.5v16h69v-16z"/><path class="w" d="M339.5 49.5h17.27c2 .21 3.039-.394 4.662-3.619 1.491-2.962 3.746-4.5 6.161.333s4.9 4.408 6.826.333c2.081-4.413 4.59-4.768 6.494-.083 1.936 4.766 5.328 4.246 6.993-.333s4.912-3.913 6.327.25 4.6 4.26 6.576.167c2.206-4.557 4.828-4.5 6.576-.083 1.623 4.1 4.828 4.079 6.91-.25s4.641-3.725 6.244-.083c1.8 4.082 5.078 4.912 7.16.083s5.037-3.414 6.077-.167c.94 2.933 4.079 5.827 6.743.749s4.662-4.662 6.66-.749 3.33 3.746 6.077 4.453H487.5v29M185.5 185.5v-53.833c-.026-2.313.474-6.188-3.253-7.914-4.366-2.023-3.733-4.646-.083-6.25 4.09-1.8 4.922-5.083.083-7.167s-3.42-5.042-.167-6.083c2.939-.941 5.839-4.083.751-6.75s-4.672-4.667-.751-6.667 3.754-3.333 4.42-6.083V67.5h55M486.5 105.5v37.752c.1 2 .7 3.042 3.935 4.667 2.968 1.492 4.5 3.75-.333 6.167s-4.416 4.909-.333 6.833c4.421 2.083 4.778 4.6.083 6.5-4.776 1.938-4.254 5.333.333 7s3.921 4.917-.25 6.333-4.268 4.6-.167 6.583c4.567 2.208 4.5 4.833.083 6.583-4.1 1.625-4.087 4.833.25 6.917s3.733 4.646.083 6.25c-4.09 1.8-4.922 5.083-.083 7.167s3.42 5.042.167 6.083c-2.939.941-5.839 4.083-.751 6.75s4.672 4.667.751 6.667-3.754 3.333-2.768 6.083V265.5h-135"/><path class="w" d="M158.5 186.5v-44h56v44"/><path class="g" d="M428.5 64.5h97v72h-97z"/><path class="x" d="M428.5 65.5h97v71h-97z"/><path class="y" d="M428.5 64.5h97v9h-97z"/><path class="z" d="M451.557 210.5h-24.082a2.984 2.984 0 0 0-2.975 2.975v.283a2.742 2.742 0 0 0 2.742 2.742h24.314a2.7 2.7 0 0 0 2.944-2.769v-.231a2.881 2.881 0 0 0-2.943-3z"/><path class="b" d="M427.114 291.5h24.538a26.252 26.252 0 0 0 14.6-23.685 26.759 26.759 0 0 0-15.752-24.393V216.5h-22v26.922a26.561 26.561 0 0 0-1.386 48.078z"/><path class="h" d="M426.655 291.5h24.254a26.146 26.146 0 0 0 14.427-23.573 25.88 25.88 0 0 0-4.12-14.427h-44.869a27.9 27.9 0 0 0-4.12 14.427 26.6 26.6 0 0 0 14.428 23.573z"/><path class="g" d="M439.936 246.972a1.44 1.44 0 0 0-.232-2.053 1.47 1.47 0 1 0-1.828 2.285 1.447 1.447 0 0 0 2.06-.232zM424.133 259.119a3.9 3.9 0 0 0 0 7.793 3.9 3.9 0 0 0 0-7.793z"/><circle class="g" cx="433.291" cy="227.511" r="3.889" transform="rotate(-4.066 433.244 227.492)"/><path class="aa" d="M450.5 216.5h-3v27.054a29.908 29.908 0 0 1 12.495 9.946h2.991a23.923 23.923 0 0 0-12.486-10.188V216.5zm15 50.644zm0 .225z"/><path class="ab" d="M462.787 253.5H459.8a27.9 27.9 0 0 1 4.12 14.427 26.616 26.616 0 0 1-14.431 23.573h2.741a26.37 26.37 0 0 0 14.677-23.573 27.582 27.582 0 0 0-4.12-14.427z"/><path class="ac" d="M315.5 263.5h3v3h-3z"/><circle class="g" cx="450.321" cy="266.781" r="3.295"/><circle class="g" cx="430.845" cy="278.44" r="1.625"/><path class="d" d="M300.318 220.334l17.917 44.5L290.068 241l1.667-6.833-4.167-4.333 6-8.167 6.75-1.333zM336.193 220.209l-17.625 44.625L346.735 241l-1.667-6.833 4.167-4.333-5.667-7.625-7.375-2z"/><path class="ad" d="M359.5 243.156a3.656 3.656 0 0 0-3.656-3.656H282.2a3.633 3.633 0 0 0-3.7 3.685v43.623a3.639 3.639 0 0 0 3.7 3.692h73.646a3.656 3.656 0 0 0 3.656-3.656z"/><path class="ac" d="M319.5 263.5h3v3h-3zM315.5 266.5h3v3h-3zM319.5 266.5h3v3h-3z"/><path class="aa" d="M278.5 287.5h81v4h-81z"/><path class="aa" d="M356.5 286.809v-43.624a3.692 3.692 0 0 0-3.648-3.685h2.992a3.656 3.656 0 0 1 3.656 3.656v43.68a3.664 3.664 0 0 1-3.664 3.664h-2.984a3.7 3.7 0 0 0 3.648-3.691z"/><path class="j" d="M485.235 85.5h-46.582a2.048 2.048 0 0 1-1.981-1.347 2.007 2.007 0 0 1 1.9-2.653h46.582a2.048 2.048 0 0 1 1.981 1.347 2.007 2.007 0 0 1-1.9 2.653z"/><path class="h" d="M462.4 93.5h-23.748a2.048 2.048 0 0 1-1.981-1.347 2.007 2.007 0 0 1 1.9-2.653h23.749a2.048 2.048 0 0 1 1.981 1.347A2.007 2.007 0 0 1 462.4 93.5z"/><path class="j" d="M500.235 93.5H470.32a2.048 2.048 0 0 1-1.981-1.347 2.007 2.007 0 0 1 1.9-2.653h29.915a2.048 2.048 0 0 1 1.981 1.347 2.007 2.007 0 0 1-1.9 2.653zM497.235 101.5h-46.582a2.048 2.048 0 0 1-1.981-1.347 2.007 2.007 0 0 1 1.9-2.653h46.582a2.048 2.048 0 0 1 1.981 1.347 2.007 2.007 0 0 1-1.9 2.653zM486.9 125.5h-36.248a2.048 2.048 0 0 1-1.981-1.347 2.007 2.007 0 0 1 1.9-2.653h36.249a2.048 2.048 0 0 1 1.981 1.347 2.007 2.007 0 0 1-1.901 2.653zM510.568 125.5h-15.915a2.048 2.048 0 0 1-1.981-1.347 2.007 2.007 0 0 1 1.9-2.653h15.915a2.048 2.048 0 0 1 1.981 1.347 2.007 2.007 0 0 1-1.9 2.653zM509.235 109.5h-46.582a2.048 2.048 0 0 1-1.981-1.347 2.007 2.007 0 0 1 1.9-2.653h46.582a2.048 2.048 0 0 1 1.981 1.347 2.007 2.007 0 0 1-1.9 2.653z"/><path class="h" d="M475.735 117.5h-13.082a2.048 2.048 0 0 1-1.981-1.347 2.007 2.007 0 0 1 1.9-2.653h13.082a2.048 2.048 0 0 1 1.981 1.347 2.007 2.007 0 0 1-1.9 2.653z"/><path class="j" d="M503.235 117.5h-19.749a2.048 2.048 0 0 1-1.981-1.347 2.007 2.007 0 0 1 1.9-2.653h19.749a2.048 2.048 0 0 1 1.981 1.347 2.007 2.007 0 0 1-1.9 2.653z"/><path class="ae" d="M286.5 81.763v-40.74c0-1.475-1.341-2.523-3.228-2.523h-12.95c-1.879 0-3.228 1.048-3.228 2.523-.265 33.72-.265 40.74-.265 40.74 0 1.468 1.615 2.737 3.493 2.737h12.95a2.978 2.978 0 0 0 3.228-2.737z"/><path class="af" d="M267.561 40.019a1.534 1.534 0 0 0-.273 1.051c-.264 33.6-.264 40.6-.264 40.6.264-33.6.264-40.6.264-40.6a1.545 1.545 0 0 1 .273-1.051zm-.536 41.754c0 1.463 1.609 2.727 3.481 2.727-1.872 0-3.481-1.265-3.481-2.727z"/><path class="ag" d="M272.5 38.5h-2.426a3.458 3.458 0 0 0-2.954 1.468 1.539 1.539 0 0 0-.274 1.055c-.265 33.72-.265 40.74-.265 40.74 0 1.468 1.615 2.737 3.493 2.737h2.426v-46z"/><path class="ae" d="M263.5 81.742v-26.7c0-1.487-1.313-2.543-3.161-2.543h-12.678c-1.839 0-3.161 1.056-3.161 2.543 0 12.275-.259 26.7-.259 26.7 0 1.48 1.581 2.758 3.42 2.758h12.678a2.946 2.946 0 0 0 3.161-2.758z"/><path class="ag" d="M250.5 52.5h-2.713s-2.408.883-2.944 1.721c-.273.419-.273.632-1.343 1.051l1 26.394v.076c0 1.48 1.637 2.758 3.541 2.758h2.459z"/><path class="ae" d="M308.5 81.781V35.24a2.945 2.945 0 0 0-3.186-2.74h-12.646a2.93 2.93 0 0 0-3.168 2.528v46.753a2.937 2.937 0 0 0 3.168 2.719h12.646a2.944 2.944 0 0 0 3.186-2.719z"/><path class="af" d="M289.581 81.773a2.974 2.974 0 0 0 3.226 2.727 2.976 2.976 0 0 1-3.226-2.727z"/><path class="ag" d="M295.5 32.5h-2.564c-2 0-3.436 1.26-3.436 2.74v46.541c0 1.459 1.432 2.719 3.436 2.719h2.564z"/><path class="ae" d="M331.917 81.759c.274-51.7.274-58.726.274-58.726 0-1.477-1.626-2.534-3.507-2.534h-12.951c-1.881 0-3.233 1.056-3.233 2.534v58.726a2.986 2.986 0 0 0 3.233 2.741h12.951a2.987 2.987 0 0 0 3.233-2.741z"/><path class="af" d="M312.681 81.773A2.971 2.971 0 0 0 315.9 84.5a2.973 2.973 0 0 1-3.219-2.727z"/><path class="ag" d="M318.5 20.5h-2.574c-1.994 0-3.426 1.056-3.426 2.534v58.725c0 1.47 1.432 2.741 3.426 2.741h2.574z"/><path class="a" d="M299.396 21.968l-20.086 5.294-.341-.976 20.163-5.369L323.5 6.359v1.399l-24.104 14.21zM252.89 43.71l-.829-.769 23.457-15.44.829.769-23.457 15.44z"/><circle class="ah" cx="253.233" cy="42.732" r="3.957"/><circle class="ah" cx="277.715" cy="28.043" r="3.957"/><circle class="ah" cx="299.399" cy="21.747" r="3.957"/><circle class="ah" cx="322.482" cy="8.457" r="3.957"/></svg>