<svg xmlns="http://www.w3.org/2000/svg" viewBox="0 0 636 300"><title>swimlane-code-or-gui</title><path d="M355.018,132.44l30.66-2.406a1.119,1.119,0,0,0,.7-.3l4.952-2.763c1.349-.784,2.468-5.919,2.468-5.919a1.2,1.2,0,0,0,.013-.93,14.455,14.455,0,0,0-1.148-2.361c-.583-.833-2.25-.25-1.917.834s.75,2.5.75,2.5l-7.75.583-.333-1.333,2.417-2.834-3.084-1s-3.233,2.884-4.067,3.634-2.166,2.5-3.25,2.75-20.083.292-20.083.292Z" fill="#bb9167"/><polygon points="358.465 123.5 358.653 132.562 361 132.358 360.959 123.523 358.465 123.5" fill="#ab845f"/><path d="M269.917,132.44l-30.66-2.406a1.119,1.119,0,0,1-.706-.3l-4.952-2.763c-1.349-.784-2.468-5.919-2.468-5.919a1.2,1.2,0,0,1-.013-.93,14.455,14.455,0,0,1,1.148-2.361c.584-.833,2.25-.25,1.917.834s-.75,2.5-.75,2.5l7.75.583.333-1.333-2.416-2.834,3.083-1s3.234,2.884,4.067,3.634,2.167,2.5,3.25,2.75,20.083.292,20.083.292Z" fill="#bb9167"/><path d="M296.032,49.68s.06,9.858-2.082,13.74S285.383,69,285.383,69l8.032,11.155L322.6,80.9s13.789-9.845,4.686-28.184-24.5-14.323-24.5-14.323Z" fill="#282828"/><path d="M318.745,63.73c0,2.3.526,11.507.526,11.507,2.729.5,6.937,1.229,6.937,1.229C324.025,77.651,314.276,90.7,309.333,90.7c-4.959,0-10.89-14.387-13.25-13.667C301,75.528,303,74.945,303,74.945c.417-2.833.841-11.422.841-11.422Z" fill="#bb9167"/><path d="M294,45.527h0a2,2,0,0,0-2,2v3.548a3.449,3.449,0,0,0,3.449,3.448H296v-7A2,2,0,0,0,294,45.527Z" fill="#ab845f"/><path d="M312.345,30.523h-1.69A14.7,14.7,0,0,0,296,45.179V54.5a14.69,14.69,0,0,0,9.784,13.829L318.3,67.91A14.7,14.7,0,0,0,327,54.5V45.179A14.7,14.7,0,0,0,312.345,30.523Z" fill="#bb9167"/><path d="M305.9,68.173l-.041,1.027h0l.54,3.5c1.069,2.843,8.749,7.743,13.23,9.823l6.75-5.875s-4.521-.791-7.1-1.25c-.192-3.847-.391-7.815-.4-7.812a14.117,14.117,0,0,0,8.392-13.063h.12A3.475,3.475,0,0,0,331,51.117V47.692a2.18,2.18,0,0,0-2.131-2.045,3.27,3.27,0,0,0-1.869.769v-1.4a2.294,2.294,0,0,0,.208-1.466,1.918,1.918,0,0,0-.384-.523l-12.157-9.224-1.291,4.026a16.7,16.7,0,0,0,6.492,8.549,13.478,13.478,0,0,0-3.185.641l-.531.178a2.317,2.317,0,0,0-1.578,2.317l.3,5.82c.057,1.106-.611,1.287-1.561,1.283a1.023,1.023,0,0,0-1,1.22l.7,3.6-.882.976A6.788,6.788,0,0,0,310.687,69h0A14.515,14.515,0,0,1,305.9,68.173Z" fill="#ab845f"/><circle cx="303.5" cy="50.023" r="1.5" fill="#282828"/><circle cx="319.5" cy="50.023" r="1.5" fill="#282828"/><path d="M306.128,58.523a5.974,5.974,0,0,0,10.918,0Z" fill="#fff"/><path d="M312.938,27.524A16,16,0,0,0,296.1,43.165c-.034,1.634-.057,3.312-.067,4.995a29.463,29.463,0,0,0,3.322-.656.724.724,0,0,0,.607,1.123.732.732,0,0,0,.559-.256,4.943,4.943,0,0,1,6.456-.677.734.734,0,1,0,.749-1.263,7.541,7.541,0,0,0-2.755-1.015,20.321,20.321,0,0,0,9.194-9.036c3.508,8.975,13.788,11.78,13.788,11.78l.139-4.116A16,16,0,0,0,312.938,27.524Z" fill="#282828"/><path d="M322.97,48.629a.733.733,0,0,1-.56-.258h0a4.944,4.944,0,0,0-6.456-.677.734.734,0,1,1-.748-1.263,6.455,6.455,0,0,1,8.324.989.735.735,0,0,1-.56,1.209Z" fill="#282828"/><rect x="356" y="8.523" width="164" height="113" fill="#d2d2d2"/><rect x="356" y="22.523" width="164" height="17" fill="#8fc3ec"/><path d="M359,121.523l-5.285-.013a.631.631,0,0,1-.609-.472l-9.6-36.533c-.94-3.575-3.718-5.4-7.338-6.148-2.68-.555-5.65-1.117-7.486-1.3l3.7,16.893s7.2,28.018,8,32.621,4.6,7.953,8.606,7.953H359Z" fill="#5c2d91"/><polygon points="266.535 123.5 266.347 132.562 264 132.358 264.041 123.523 266.535 123.5" fill="#ab845f"/><path d="M266,121.523l5.285-.013a.631.631,0,0,0,.609-.472l9.6-36.533c.94-3.575,4.066-5.764,7.686-6.514,2.68-.555,5.651-1.117,7.486-1.3l-4.05,17.259s-7.2,28.018-8,32.621-4.6,7.953-8.606,7.953H266Z" fill="#5c2d91"/><path d="M360.536,287.523H262.83a4.626,4.626,0,0,1-4.525-4.5,4.526,4.526,0,0,1,4.525-4.5h97.706a4.432,4.432,0,0,1,4.525,4.5,4.525,4.525,0,0,1-4.525,4.5Z" fill="#b2b2b2"/><path d="M334.257,206.144a7.153,7.153,0,0,0-14.27-.979l-3.76,65.611c0,2.162,7.931,2.948,8.128.589Z" fill="#ce9c5e"/><path d="M292.15,206.144a7.191,7.191,0,0,1,6.535-7.484,7,7,0,0,1,7.734,6.5l3.76,65.611c-.2,2.162-7.93,2.948-8.128.589Z" fill="#ce9c5e"/><path d="M310.179,206.843l.789,61.68H299.079l-9.507-60.5-.394-62.844,24.959-6.112C320.689,157.975,309.982,185.165,310.179,206.843Z" fill="#b2b2b2"/><polygon points="315.681 267.523 327.135 267.523 338 205.862 337.002 138.523 314.094 138.523 317.448 206.254 315.681 267.523" fill="#b2b2b2"/><path d="M310.968,275.117l.2,5.914c-.2,1.573-1.363,2.062-3.366,2.359-8.486,1.258-25.049,1.383-25.049,1.383-3.281.032-2.937-2.406-1.156-2.968a79.9,79.9,0,0,0,8.125-2.782C295.281,278.711,310.968,275.117,310.968,275.117Z" fill="#5c2d91"/><path d="M310.179,270.523c0,1.77.789,3.949.591,4.735,0,1.573-18.457,4.532-18.457,4.532-1.469.25-3.7-.263-2.5-.656,5.155-1.77,12.436-6.644,12.041-8.611Z" fill="#ce9c5e"/><path d="M315.458,275.117l-.2,5.914c.2,1.573,1.363,2.062,3.366,2.359,8.486,1.258,25.049,1.383,25.049,1.383,3.281.032,2.937-2.406,1.156-2.968a79.9,79.9,0,0,1-8.125-2.782C331.145,278.711,315.458,275.117,315.458,275.117Z" fill="#5c2d91"/><path d="M316.247,270.523c0,1.77-.789,3.949-.592,4.735,0,1.573,18.458,4.532,18.458,4.532,1.469.25,3.7-.263,2.5-.656-5.155-1.77-12.436-6.644-12.041-8.611Z" fill="#ce9c5e"/><path d="M313,160.523c8.846-.22,23.929-2.462,23.929-2.462l1.2-52.012c-2.775-8.275-3.044-27.859-3.044-27.859-3.375-.625-9-1.75-9-1.75-4.449,4.777-13.958,13.333-13.958,13.333A195.315,195.315,0,0,1,296.583,76.69c-3.625.75-6.666,1.167-6.666,1.167s-.345,19.917-3.12,28.192l1.97,51.819S304.154,160.744,313,160.523Z" fill="#5c2d91"/><polyline points="355.5 9.523 355.5 122.023 520 122.023" fill="none" stroke="#737373" stroke-miterlimit="10"/><rect x="368" y="14.523" width="33" height="5" fill="#b2b2b2"/><rect x="366" y="49.523" width="140" height="2" fill="#0048b3"/><rect x="366" y="56.523" width="140" height="2" fill="#0048b3"/><rect x="366" y="62.523" width="140" height="2" fill="#0048b3"/><rect x="367" y="69.523" width="67" height="2" fill="#0048b3"/><rect x="469" y="83.523" width="26" height="26" fill="#00b294"/><rect x="474.663" y="89.774" width="14.072" height="14.072" transform="translate(72.632 368.968) rotate(-45)" fill="#40c5af"/><rect x="425" y="83.523" width="26" height="26" fill="#479cdf"/><polygon points="428.566 105.523 446.477 105.523 437.521 87.613 428.566 105.523" fill="#8fc3ec"/><rect x="381" y="83.523" width="26" height="26" fill="#ff8c00"/><circle cx="393.5" cy="96.023" r="7.5" fill="#ffa940"/><rect x="106" y="8.523" width="164" height="113" fill="#4b4a4b"/><rect x="106" y="8.523" width="164" height="113" fill="none"/><rect x="128" y="18.523" width="44" height="3" fill="#e26c41"/><rect x="128" y="29.523" width="13" height="3" fill="#ffa940"/><rect x="134" y="35.523" width="11" height="3" fill="#b2b2b2"/><rect x="144" y="29.523" width="104" height="3" fill="#b2b2b2"/><rect x="150" y="35.523" width="78" height="3" fill="#b2b2b2"/><rect x="128" y="93.523" width="13" height="3" fill="#00b294"/><rect x="134" y="100.523" width="11" height="3" fill="#ffa940"/><rect x="145" y="93.523" width="88" height="3" fill="#b2b2b2"/><rect x="149" y="100.523" width="30" height="3" fill="#b2b2b2"/><rect x="140" y="42.523" width="16" height="3" fill="#00b294"/><rect x="159" y="42.523" width="24" height="3" fill="#b2b2b2"/><rect x="146" y="54.523" width="16" height="3" fill="#ffa940"/><rect x="165" y="54.523" width="76" height="3" fill="#b2b2b2"/><rect x="140" y="107.523" width="78" height="3" fill="#b2b2b2"/><rect x="146" y="61.523" width="16" height="3" fill="#e26c41"/><rect x="154" y="68.523" width="16" height="3" fill="#b2b2b2"/><rect x="165" y="61.523" width="24" height="3" fill="#b2b2b2"/><rect x="165" y="74.523" width="85" height="3" fill="#b2b2b2"/><rect x="165" y="82.523" width="24" height="3" fill="#b2b2b2"/><rect x="182" y="100.523" width="51" height="3" fill="#00b294"/><rect x="193" y="61.523" width="28" height="3" fill="#00b294"/><rect x="192" y="82.523" width="28" height="3" fill="#ffa940"/><line x1="119" y1="18.523" x2="119" y2="111.523" fill="none" stroke="#c2c2c2" stroke-miterlimit="10" stroke-width="2"/><path d="M231.667,123.523l6.166.042c.092-.139.834-1.654.933-1.8.959-1.416-.791-2.416-1.083-2.166-.175.15-1.079,1.029-1.779,1.713.159-.644.336-1.359.487-1.963.254-1.014-1.391-1.919-2.208-.334.583-1.157-1.3-1.934-1.83-.985a27.83,27.83,0,0,0-1.235,2.513,1.275,1.275,0,0,0-.009.987C231.234,122.044,231.667,123.523,231.667,123.523Z" fill="#bb9167"/><path d="M393.268,123.523l-6.167.042c-.092-.139-.834-1.654-.933-1.8-.958-1.416.792-2.416,1.084-2.166.174.15,1.078,1.029,1.778,1.713-.159-.644-.336-1.359-.487-1.963-.253-1.014,1.391-1.919,2.209-.334-.583-1.157,1.3-1.934,1.829-.985a27.553,27.553,0,0,1,1.235,2.513,1.27,1.27,0,0,1,.009.987C393.7,122.044,393.268,123.523,393.268,123.523Z" fill="#bb9167"/></svg>