<svg width="512" height="308" viewBox="0 0 512 308" version="1.1" xmlns="http://www.w3.org/2000/svg" xmlns:xlink="http://www.w3.org/1999/xlink">
<title>swimlane-trusted-secure</title>
<desc>Created using Figma</desc>
<g id="Canvas" transform="translate(-22823 -2405)">
<g id="swimlane-trusted-secure">
<g id="Group">
<g id="Vector">
<use xlink:href="#path0_fill" transform="translate(23157.2 2477.02)" fill="#BEA15F"/>
</g>
<g id="Vector">
<use xlink:href="#path1_fill" transform="matrix(-1 -4.52014e-11 4.51869e-11 -1 23174.3 2560.16)" fill="#937A47"/>
</g>
<g id="Vector">
<use xlink:href="#path2_fill" transform="translate(23094.2 2478.24)" fill="#82693C"/>
</g>
<g id="Vector">
<use xlink:href="#path3_fill" transform="matrix(-1 -3.51452e-11 3.51339e-11 -1 23144.9 2503.91)" fill="#BEA15F"/>
</g>
<g id="Vector">
<use xlink:href="#path4_fill" transform="translate(23118.2 2514.17)" fill="#303333"/>
</g>
</g>
<g id="Group">
<g id="Vector">
<use xlink:href="#path5_fill" transform="translate(23051.9 2441.18)" fill="#613D30"/>
</g>
<g id="Vector">
<use xlink:href="#path6_fill" transform="translate(23055.6 2443.75)" fill="#CFE0EE"/>
</g>
<g id="Vector">
<use xlink:href="#path7_fill" transform="translate(23090.7 2443.75)" fill="#E9F0F7"/>
</g>
<g id="Vector">
<use xlink:href="#path8_fill" transform="translate(23079.3 2434.3)" fill="#A7A8AB"/>
</g>
<g id="Vector">
<use xlink:href="#path9_fill" transform="translate(23078.5 2443.27)" fill="#737374"/>
</g>
<g id="Vector">
<use xlink:href="#path10_fill" transform="translate(23078.5 2443.23)" fill="#515050"/>
</g>
<g id="Vector">
<use xlink:href="#path11_fill" transform="translate(23086.7 2461.12)" fill="#FF8C00"/>
</g>
<g id="Vector">
<use xlink:href="#path12_fill" transform="translate(23068.5 2451.34)" fill="#009A83"/>
</g>
<g id="Group">
<g id="Vector">
<use xlink:href="#path13_fill" transform="translate(23066.9 2469.68)" fill="#A6A6A6"/>
</g>
</g>
<g id="Group">
<g id="Vector">
<use xlink:href="#path14_fill" transform="translate(23065.6 2474.57)" fill="#A6A6A6"/>
</g>
</g>
<g id="Group">
<g id="Vector">
<use xlink:href="#path15_fill" transform="translate(23064.3 2479.46)" fill="#A6A6A6"/>
</g>
</g>
<g id="Group">
<g id="Vector">
<use xlink:href="#path16_fill" transform="translate(23062.9 2484.35)" fill="#A6A6A6"/>
</g>
</g>
<g id="Group">
<g id="Vector">
<use xlink:href="#path15_fill" transform="translate(23085 2479.46)" fill="#A6A6A6"/>
</g>
</g>
<g id="Group">
<g id="Vector">
<use xlink:href="#path16_fill" transform="translate(23083.7 2484.35)" fill="#A6A6A6"/>
</g>
</g>
<g id="Group">
<g id="Vector">
<use xlink:href="#path17_fill" transform="translate(23082.4 2489.24)" fill="#A6A6A6"/>
</g>
</g>
<g id="Group">
<g id="Vector">
<use xlink:href="#path18_fill" transform="translate(23092.6 2451.34)" fill="#A6A6A6"/>
</g>
</g>
<g id="Group">
<g id="Vector">
<use xlink:href="#path19_fill" transform="translate(23091.3 2456.23)" fill="#A6A6A6"/>
</g>
</g>
</g>
<g id="Vector">
<use xlink:href="#path20_fill" transform="translate(22826.5 2684.88)" fill="#B2B2B2"/>
</g>
<g id="Vector">
<use xlink:href="#path21_fill" transform="translate(22835.2 2560.16)" fill="#515050"/>
</g>
<g id="Group">
<g id="Vector">
<use xlink:href="#path22_fill" transform="translate(22856.7 2598.06)" fill="#737373"/>
</g>
<g id="Vector">
<use xlink:href="#path23_fill" transform="translate(23059.6 2598.06)" fill="#737373"/>
</g>
<g id="Vector">
<use xlink:href="#path24_fill" transform="translate(23262.6 2598.06)" fill="#737373"/>
</g>
</g>
<g id="Vector">
<use xlink:href="#path25_fill" transform="translate(22843 2588.28)" fill="#515050"/>
</g>
<g id="Vector">
<use xlink:href="#path26_fill" transform="translate(23292.9 2588.28)" fill="#3C3C3C"/>
</g>
<g id="Group">
<g id="Vector">
<use xlink:href="#path27_fill" transform="translate(22825.3 2562.61)" fill="#A7A8AB"/>
</g>
</g>
<g id="Group">
<g id="Vector">
<use xlink:href="#path28_fill" transform="translate(22828.3 2565.24)" fill="#FFFFFF"/>
</g>
<g id="Vector">
<use xlink:href="#path29_fill" transform="translate(22835.3 2571.6)" fill="#75BEFF"/>
</g>
</g>
<g id="Vector">
<use xlink:href="#path30_fill" transform="translate(22823 2560.16)" fill="#6D6E71"/>
</g>
<g id="Group">
<g id="Vector">
<use xlink:href="#path31_fill" transform="translate(23297.5 2565.24)" fill="#FFFFFF"/>
</g>
<g id="Vector">
<use xlink:href="#path32_fill" transform="translate(23303.7 2571.6)" fill="#75BEFF"/>
</g>
</g>
<g id="Group">
<g id="Vector">
<use xlink:href="#path33_fill" transform="translate(22832.8 2569.32)" fill="#737374"/>
</g>
<g id="Vector">
<use xlink:href="#path34_fill" transform="translate(22891.3 2569.32)" fill="#737374"/>
</g>
<g id="Vector">
<use xlink:href="#path35_fill" transform="translate(22949.8 2569.32)" fill="#737374"/>
</g>
<g id="Vector">
<use xlink:href="#path36_fill" transform="translate(23008.3 2569.32)" fill="#737374"/>
</g>
<g id="Vector">
<use xlink:href="#path37_fill" transform="translate(23066.8 2569.32)" fill="#737374"/>
</g>
<g id="Vector">
<use xlink:href="#path38_fill" transform="translate(23125.3 2569.32)" fill="#737374"/>
</g>
<g id="Vector">
<use xlink:href="#path39_fill" transform="translate(23183.9 2569.32)" fill="#737374"/>
</g>
<g id="Vector">
<use xlink:href="#path40_fill" transform="translate(23242.4 2569.32)" fill="#737374"/>
</g>
<g id="Vector">
<use xlink:href="#path41_fill" transform="translate(23300.9 2569.32)" fill="#737374"/>
</g>
</g>
<g id="Vector">
<use xlink:href="#path42_fill" transform="translate(23080.7 2490.47)" fill="#8E562E"/>
</g>
<g id="Vector">
<use xlink:href="#path43_fill" transform="translate(23011.7 2442.78)" fill="#8E562E"/>
</g>
<g id="Vector">
<use xlink:href="#path44_fill" transform="translate(23019 2442.54)" fill="#613D30"/>
</g>
<g id="Vector">
<use xlink:href="#path45_fill" transform="translate(23006.2 2454.59)" fill="#D2D2D2"/>
</g>
<g id="Vector">
<use xlink:href="#path46_fill" transform="translate(22969.1 2535.84)" fill="#8E562E"/>
</g>
<g id="Vector">
<use xlink:href="#path47_fill" transform="translate(22971.9 2542.29)" fill="#F3F3F3"/>
</g>
<g id="Vector">
<use xlink:href="#path48_fill" transform="translate(22991.4 2562.41)" fill="#CE9C5F"/>
</g>
<g id="Vector">
<use xlink:href="#path49_fill" transform="translate(23019.9 2545.94)" fill="#2139B5"/>
</g>
<g id="Vector">
<use xlink:href="#path50_fill" transform="translate(23018.4 2560.23)" fill="#005959"/>
</g>
<g id="Vector">
<use xlink:href="#path51_fill" transform="translate(22992 2547.81)" fill="#005959"/>
</g>
<g id="Vector">
<use xlink:href="#path52_fill" transform="translate(22981.5 2459.64)" fill="#002050"/>
</g>
<g id="Vector">
<use xlink:href="#path53_fill" transform="translate(22987.3 2547.15)" fill="#002050"/>
</g>
<g id="Vector">
<use xlink:href="#path54_fill" transform="translate(22986.1 2560.85)" fill="#005959"/>
</g>
<g id="Vector">
<use xlink:href="#path55_fill" transform="translate(22988.9 2685.38)" fill="#001129"/>
</g>
<g id="Vector">
<use xlink:href="#path56_fill" transform="translate(22960.4 2694.99)" fill="#505050"/>
</g>
<g id="Vector">
<use xlink:href="#path57_fill" transform="translate(22986.1 2612.7)" fill="#005959"/>
</g>
<g id="Vector">
<use xlink:href="#path58_fill" transform="translate(22983.6 2624.5)" fill="#005959"/>
</g>
<g id="Vector">
<use xlink:href="#path59_fill" transform="translate(23018.7 2684.45)" fill="#001129"/>
</g>
<g id="Vector">
<use xlink:href="#path60_fill" transform="translate(23017.3 2695.3)" fill="#505050"/>
</g>
<g id="Vector">
<use xlink:href="#path61_fill" transform="translate(23018.4 2611.77)" fill="#005959"/>
</g>
<g id="Vector">
<use xlink:href="#path62_fill" transform="translate(23017.1 2623.88)" fill="#005959"/>
</g>
<g id="Vector">
<use xlink:href="#path63_fill" transform="translate(23076.5 2510.22)" fill="#F3F3F3"/>
</g>
<g id="Vector">
<use xlink:href="#path64_fill" transform="translate(23015.1 2416.14)" fill="#8E562E"/>
</g>
<g id="Vector">
<use xlink:href="#path65_fill" transform="translate(23006.5 2405)" fill="#301D19"/>
</g>
<g id="Vector">
<use xlink:href="#path66_fill" transform="translate(22968.3 2458.64)" fill="#004B50"/>
</g>
<g id="Vector">
<use xlink:href="#path67_fill" transform="translate(22987 2571.11)" fill="#002F33"/>
</g>
<g id="Vector">
<use xlink:href="#path68_fill" transform="translate(23087.8 2491.87)" fill="#8E562E"/>
</g>
</g>
</g>
<defs>
<path id="path0_fill" d="M 50.1235 0L 9.55096e-06 0L 9.55096e-06 83.1449L 50.1235 83.1449L 50.1235 0Z"/>
<path id="path1_fill" d="M 83.1316 0L -9.10326e-06 0L -9.10326e-06 83.1449L 83.1316 83.1449L 83.1316 0Z"/>
<path id="path2_fill" d="M 76.2426 2.44544L 1.00492 2.44544C 0.449893 2.9761 -2.68621e-06 2.41365 -2.68621e-06 1.7167C -2.68621e-06 1.01975 0.449893 0.457296 1.00492 -1.45526e-06L 76.2426 -1.45526e-06C 76.7977 0.457296 77.2476 1.02097 77.2476 1.7167C 77.2476 2.41242 76.7977 2.9761 76.2426 2.44544Z"/>
<path id="path3_fill" d="M 26.8955 0L -9.10326e-06 0L -9.10326e-06 26.8998L 26.8955 26.8998L 26.8955 0Z"/>
<path id="path4_fill" d="M 15.7167 4.47773e-06L 6.11858e-06 14.1994L 8.38161 14.1994L 8.38161 32.5402L 23.0519 32.5402L 23.0519 14.1994L 31.436 14.1994L 15.7167 4.47773e-06Z"/>
<path id="path5_fill" d="M 48.9847 61.0589L 1.51169 61.0369C 0.443209 61.0369 -0.205955 60.2312 0.0593323 59.2395L 15.4802 1.79618C 15.7467 0.80455 16.8287 -1.15675e-06 17.8972 -1.15675e-06L 64.9753 0.0220097C 66.4069 0.0220097 66.9912 1.06377 66.726 2.05172L 51.3967 59.2701C 51.1315 60.2581 50.052 61.0589 48.9847 61.0589Z"/>
<path id="path6_fill" d="M 44.7419 55.4149L -2.83544e-06 55.3819L 14.872 6.53003e-07L 59.5882 6.53003e-07L 44.7419 55.4149Z"/>
<path id="path7_fill" d="M 17.3317 26.9793L 24.5593 6.53003e-07L 7.01399e-06 0.0317902C 4.43532 7.11378 11.4379 17.579 17.3317 26.9793Z"/>
<path id="path8_fill" d="M 27.2953 4.31995L 19.7022 4.31995C 19.7022 4.31995 20.223 0.0233128 16.2461 8.11665e-05C 13.7008 -0.0145915 11.1005 1.97477 10.3328 4.83349L 2.77513 4.83349C 1.59906 4.83349 0.914442 5.97184 0.914442 5.97184L -6.86475e-06 9.51528L 27.5288 9.48349L 28.4958 5.8887C 28.6633 4.99244 28.1902 4.31995 27.2953 4.31995ZM 14.5492 6.32032C 13.4502 6.32032 12.7888 5.46686 13.0712 4.41532C 13.3536 3.36378 14.4735 2.51155 15.5725 2.51277C 16.6715 2.51277 17.3329 3.36623 17.0505 4.41776C 16.7681 5.46808 15.6483 6.32032 14.5492 6.32032Z"/>
<path id="path9_fill" d="M 0.973125 0.0635825L 8.80479e-06 3.55934L 27.6339 3.52754L 28.5789 1.08212e-06L 0.973125 0.0635825Z"/>
<path id="path10_fill" d="M 11.9587 5.59717e-07L 0.970689 0.0330145L -2.08927e-06 3.52754L 14.0016 3.59235L 11.9587 5.59717e-07Z"/>
<path id="path11_fill" d="M 15.8928 14.6726L -2.98468e-06 14.6726L 3.9304 -1.45526e-06L 19.8232 -1.45526e-06L 15.8928 14.6726Z"/>
<path id="path12_fill" d="M 15.8928 14.6726L 3.58161e-06 14.6726L 3.93164 -1.45526e-06L 19.8244 -1.45526e-06L 15.8928 14.6726Z"/>
<path id="path13_fill" d="M 15.8928 2.44544L 8.05862e-06 2.44544L 0.655275 -1.45526e-06L 16.5481 -1.45526e-06L 15.8928 2.44544Z"/>
<path id="path14_fill" d="M 15.8928 2.44544L 9.10326e-06 2.44544L 0.654045 -1.45526e-06L 16.5468 -1.45526e-06L 15.8928 2.44544Z"/>
<path id="path15_fill" d="M 15.8928 2.44544L 1.49234e-06 2.44544L 0.655268 -1.45526e-06L 16.5481 -1.45526e-06L 15.8928 2.44544Z"/>
<path id="path16_fill" d="M 15.8928 2.44544L -6.11859e-06 2.44544L 0.655279 3.20904e-06L 16.5481 3.20904e-06L 15.8928 2.44544Z"/>
<path id="path17_fill" d="M 15.8928 2.44544L 4.92471e-06 2.44544L 0.655272 3.20904e-06L 16.5481 3.20904e-06L 15.8928 2.44544Z"/>
<path id="path18_fill" d="M 15.8928 2.44544L -5.37242e-06 2.44544L 0.65528 -1.45526e-06L 16.5481 -1.45526e-06L 15.8928 2.44544Z"/>
<path id="path19_fill" d="M 15.8928 2.44544L 5.67088e-06 2.44544L 0.655273 -1.45526e-06L 16.5481 -1.45526e-06L 15.8928 2.44544Z"/>
<path id="path20_fill" d="M 501.09 9.26455C 500.001 11.8775 497.294 13.4499 494.463 13.4499L 6.98061 13.4499C 3.24702 13.4499 6.52897e-08 10.5398 6.52897e-08 6.73475C 6.52897e-08 3.1534 3.24702 -6.11957e-06 6.98061 -6.11957e-06C 111.992 -6.11957e-06 494.641 -6.11957e-06 494.641 -6.11957e-06C 499.502 -6.11957e-06 502.957 4.78695 501.09 9.26455Z"/>
<path id="path21_fill" d="M 483.838 3.20904e-06L 83.9458 3.20904e-06L 83.9458 0.177293L 15.7791 3.20904e-06C 7.06374 3.20904e-06 4.94337e-07 7.17858 4.94337e-07 15.8953C 4.94337e-07 24.6121 7.22144 31.7907 15.9356 31.7907L 115.903 31.7907L 115.903 30.8321L 483.996 31.7907C 492.711 31.7907 499.775 24.6121 499.775 15.8953C 499.775 7.17858 492.552 3.20904e-06 483.838 3.20904e-06Z"/>
<path id="path22_fill" d="M -5.78281e-07 -6.11957e-06L 10.7423 11.3383L 10.7423 94.1494L 18.0774 94.1494L 18.0774 11.3481L 28.8308 -6.11957e-06L -5.78281e-07 -6.11957e-06Z"/>
<path id="path23_fill" d="M 28.8308 -6.11957e-06L 6.41705e-06 -6.11957e-06L 10.7423 11.3383L 10.7423 94.1494L 18.0774 94.1494L 18.0774 11.3481L 28.8308 -6.11957e-06Z"/>
<path id="path24_fill" d="M 18.0775 94.1494L 18.0775 11.3481L 28.8308 -6.11957e-06L -1.22372e-05 -6.11957e-06L 10.7423 11.3383L 10.7423 94.1494L 18.0775 94.1494Z"/>
<path id="path25_fill" d="M 462.114 -6.11957e-06L 0 -6.11957e-06L 0 12.2272L 462.114 12.2272L 462.114 -6.11957e-06Z"/>
<path id="path26_fill" d="M 20.7829 -6.11957e-06L 9.55096e-06 -6.11957e-06L 9.55096e-06 12.2272L 20.7829 12.2272L 20.7829 -6.11957e-06Z"/>
<path id="path27_fill" d="M 482.402 25.6771L 13.2504 25.6771C 6.31384 25.6771 0.322254 20.3497 0.0129553 13.4193C -0.314681 6.06469 5.61456 -6.11957e-06 12.9754 -6.11957e-06L 482.127 -6.11957e-06C 489.064 -6.11957e-06 495.055 5.32739 495.365 12.2578C 495.692 19.6124 489.763 25.6771 482.402 25.6771Z"/>
<path id="path28_fill" d="M 20.3819 11.7442L 20.3697 8.67032C 20.3697 8.48936 20.2976 8.31451 20.1716 8.18734C 20.0457 8.05896 19.8734 7.98804 19.6973 7.98926L 17.8537 7.99782C 17.8354 7.93424 17.7706 7.78384 17.6826 7.59432C 17.5408 7.18349 17.3696 6.78612 17.1655 6.40463L 18.4809 5.08164C 18.6068 4.95448 18.6789 4.78084 18.6802 4.59988C 18.6814 4.41769 18.6129 4.24285 18.4882 4.11324L 16.4026 1.94902C 16.1361 1.67147 15.6935 1.66902 15.4221 1.94169L 14.1397 3.23167C 13.5859 2.89175 13.0419 2.65576 12.4135 2.48458L 12.4245 0.696956C 12.427 0.326472 12.1543 0.0207998 11.812 0.0207998L 8.67748 1.56737e-05C 8.2985 -0.00242976 7.9892 0.302017 7.98676 0.68106L 7.97331 2.51637C 7.42073 2.68144 6.88893 2.91497 6.38403 3.21699L 5.25931 1.97348C 4.99036 1.67514 4.52335 1.67148 4.24951 1.96615L 2.34726 4.00441C 2.2299 4.12913 2.16388 4.30031 2.16266 4.47883C 2.16144 4.65735 2.22501 4.82853 2.33993 4.95569L 3.52088 6.25912C 3.51966 6.26279 3.51722 6.26523 3.51599 6.2689C 3.50988 6.26156 3.50254 6.25422 3.49643 6.24688L 3.49399 6.26156C 3.34606 6.54034 3.22014 6.82034 3.11134 7.10646L 3.11134 7.10769C 3.00498 7.39014 2.91573 7.68237 2.84238 7.99049C 2.84238 7.99049 1.81913 7.99049 0.909573 7.99049C 1.59581e-05 7.99049 0.0195767 8.77547 0.0195767 8.77547L 1.60071e-05 11.7149C -0.00120652 11.8922 0.0672549 12.0621 0.19073 12.1893C 0.20051 12.1991 0.211513 12.2052 0.221293 12.215C 0.342323 12.3409 0.511031 12.4204 0.698077 12.418L 2.48785 12.4106C 2.5502 12.6356 3.04777 13.7874 3.23481 14.1224L 1.94627 15.4295C 1.8228 15.5555 1.75311 15.7254 1.75434 15.9027C 1.75434 16.08 1.82524 16.25 1.94994 16.3747L 4.04046 18.4631C 4.30941 18.7321 4.74707 18.7309 5.01358 18.4594L 6.26911 17.1866C 6.82169 17.513 7.36327 17.7356 7.98798 17.8957L 7.99654 19.7237C 7.99776 20.0905 8.29728 20.3864 8.66404 20.384L 11.7546 20.3705C 12.1213 20.3681 12.4172 20.071 12.416 19.7041L 12.4098 17.8786C 13.0064 17.7099 13.5798 17.4714 14.1226 17.167L 15.4283 18.4521C 15.6911 18.7113 16.1141 18.7088 16.3757 18.4484L 18.4858 16.3404C 18.6105 16.2157 18.6802 16.0458 18.6802 15.8709C 18.6802 15.6948 18.608 15.5273 18.4821 15.4026L 17.3831 13.7348C 17.4283 13.6578 17.4858 13.5783 17.6019 13.2971C 17.718 13.0159 17.8158 12.7236 17.8965 12.4143L 19.7169 12.4082C 19.8941 12.4082 20.0641 12.3373 20.1888 12.2125C 20.3135 12.089 20.3831 11.9191 20.3819 11.7442Z"/>
<path id="path29_fill" d="M 3.47074 6.94261C 5.38758 6.94261 6.94149 5.38845 6.94149 3.4713C 6.94149 1.55415 5.38758 -5.37328e-06 3.47074 -5.37328e-06C 1.5539 -5.37328e-06 0 1.55415 0 3.4713C 0 5.38845 1.5539 6.94261 3.47074 6.94261Z"/>
<path id="path30_fill" d="M 483.838 3.20904e-06L 83.9458 3.20904e-06L 83.9458 0.177293L 15.7791 3.20904e-06C 7.06374 3.20904e-06 5.80652e-11 7.17858 5.80652e-11 15.8953C 5.80652e-11 24.6121 7.22144 31.7907 15.9356 31.7907L 115.903 31.7907L 115.903 30.8321L 483.996 31.7907C 492.711 31.7907 499.775 24.6121 499.775 15.8953C 499.775 7.17858 492.552 3.20904e-06 483.838 3.20904e-06ZM 491.51 23.4505C 489.383 25.6747 486.507 26.8998 483.41 26.8998L 115.901 26.8998L 83.9445 26.8998L 16.6349 26.8998C 10.6054 26.8998 5.49035 22.1862 5.2324 16.3942C 5.09792 13.3839 6.17374 10.5227 8.26181 8.34016C 10.389 6.11604 13.2656 4.89087 16.3622 4.89087L 83.9445 4.89087L 115.901 4.89087L 483.137 4.89087C 489.167 4.89087 494.282 9.60447 494.54 15.3965C 494.674 18.4068 493.599 21.2668 491.51 23.4505Z"/>
<path id="path31_fill" d="M 19.4968 11.7442L 19.4846 8.67032C 19.4846 8.48936 19.4125 8.31451 19.2865 8.18734C 19.1606 8.05896 18.9883 7.98804 18.8122 7.98926L 16.9687 7.99782C 16.9503 7.93424 16.8855 7.78384 16.7975 7.59432C 16.6557 7.18349 16.4845 6.78612 16.2803 6.40463L 17.5958 5.08164C 17.7217 4.95448 17.7938 4.78084 17.7951 4.59988C 17.7963 4.41769 17.7278 4.24285 17.6031 4.11324L 15.5175 1.94902C 15.251 1.67147 14.8084 1.66902 14.537 1.94169L 13.2546 3.23167C 12.7008 2.89175 12.1568 2.65576 11.5284 2.48458L 11.5394 0.696956C 11.5419 0.326472 11.2692 0.0207998 10.9269 0.0207998L 8.67748 1.56737e-05C 8.2985 -0.00242976 7.9892 0.302017 7.98675 0.68106L 7.97332 2.51637C 7.42074 2.68144 6.88892 2.91497 6.38402 3.21699L 5.25932 1.97348C 4.99037 1.67514 4.52334 1.67148 4.24949 1.96615L 2.34725 4.00441C 2.22988 4.12913 2.16387 4.30031 2.16264 4.47883C 2.16142 4.65735 2.22502 4.82853 2.33993 4.95569L 3.5209 6.25912C 3.51967 6.26279 3.51723 6.26523 3.51601 6.2689C 3.5099 6.26156 3.50253 6.25422 3.49642 6.24688L 3.494 6.26156C 3.34607 6.54034 3.22013 6.82034 3.11132 7.10646L 3.11132 7.10769C 3.00496 7.39014 2.91572 7.68237 2.84237 7.99049C 2.84237 7.99049 1.81912 7.99049 0.909566 7.99049C 8.8899e-06 7.99049 0.0195732 8.77547 0.0195732 8.77547L 2.35574e-05 11.7149C -0.00119897 11.8922 0.0672695 12.0621 0.190744 12.1893C 0.200525 12.1991 0.21152 12.2052 0.2213 12.215C 0.34233 12.3409 0.511019 12.4204 0.698065 12.418L 2.48786 12.4106C 2.55021 12.6356 3.04777 13.7874 3.23481 14.1224L 1.94626 15.4295C 1.82278 15.5555 1.75312 15.7254 1.75434 15.9027C 1.75434 16.08 1.82525 16.25 1.94995 16.3747L 4.04045 18.4631C 4.30941 18.7321 4.74706 18.7309 5.01357 18.4594L 6.26911 17.1866C 6.82169 17.513 7.36328 17.7356 7.98799 17.8957L 7.99653 19.7237C 7.99775 20.0905 8.29729 20.3864 8.66405 20.384L 10.8682 20.3705C 11.235 20.3681 11.5309 20.071 11.5284 19.7041L 11.5223 17.8786C 12.1189 17.7099 12.6922 17.4714 13.235 17.167L 14.5407 18.4521C 14.8035 18.7113 15.2266 18.7088 15.4882 18.4484L 17.5982 16.3404C 17.7229 16.2157 17.7926 16.0458 17.7926 15.8709C 17.7926 15.6948 17.7205 15.5273 17.5946 15.4026L 16.4955 13.7348C 16.5407 13.6578 16.5982 13.5783 16.7144 13.2971C 16.8305 13.0159 16.9283 12.7236 17.009 12.4143L 18.8293 12.4082C 19.0066 12.4082 19.1765 12.3373 19.3012 12.2125C 19.4284 12.089 19.498 11.9191 19.4968 11.7442Z"/>
<path id="path32_fill" d="M 3.47074 6.94261C 5.38757 6.94261 6.9415 5.38845 6.9415 3.4713C 6.9415 1.55415 5.38757 -5.37328e-06 3.47074 -5.37328e-06C 1.5539 -5.37328e-06 5.37242e-06 1.55415 5.37242e-06 3.4713C 5.37242e-06 5.38845 1.5539 6.94261 3.47074 6.94261Z"/>
<path id="path33_fill" d="M 6.13462 12.2712C 9.52268 12.2712 12.2692 9.5242 12.2692 6.1356C 12.2692 2.747 9.52268 9.25398e-06 6.13462 9.25398e-06C 2.74656 9.25398e-06 0 2.747 0 6.1356C 0 9.5242 2.74656 12.2712 6.13462 12.2712Z"/>
<path id="path34_fill" d="M 6.13462 12.2712C 9.52268 12.2712 12.2692 9.5242 12.2692 6.1356C 12.2692 2.747 9.52268 9.25398e-06 6.13462 9.25398e-06C 2.74656 9.25398e-06 -2.01466e-06 2.747 -2.01466e-06 6.1356C -2.01466e-06 9.5242 2.74656 12.2712 6.13462 12.2712Z"/>
<path id="path35_fill" d="M 6.13462 12.2712C 9.52268 12.2712 12.2692 9.5242 12.2692 6.1356C 12.2692 2.747 9.52268 9.25398e-06 6.13462 9.25398e-06C 2.74656 9.25398e-06 0 2.747 0 6.1356C 0 9.5242 2.74656 12.2712 6.13462 12.2712Z"/>
<path id="path36_fill" d="M 6.13462 12.2712C 9.52268 12.2712 12.2692 9.5242 12.2692 6.1356C 12.2692 2.747 9.52268 9.25398e-06 6.13462 9.25398e-06C 2.74656 9.25398e-06 -8.50633e-06 2.747 -8.50633e-06 6.1356C -8.50633e-06 9.5242 2.74656 12.2712 6.13462 12.2712Z"/>
<path id="path37_fill" d="M 6.13463 12.2712C 9.52269 12.2712 12.2692 9.5242 12.2692 6.1356C 12.2692 2.747 9.52269 9.25398e-06 6.13463 9.25398e-06C 2.74657 9.25398e-06 2.23851e-06 2.747 2.23851e-06 6.1356C 2.23851e-06 9.5242 2.74657 12.2712 6.13463 12.2712Z"/>
<path id="path38_fill" d="M 6.13462 12.2712C 9.52268 12.2712 12.2692 9.5242 12.2692 6.1356C 12.2692 2.747 9.52268 9.25398e-06 6.13462 9.25398e-06C 2.74656 9.25398e-06 -5.67088e-06 2.747 -5.67088e-06 6.1356C -5.67088e-06 9.5242 2.74656 12.2712 6.13462 12.2712Z"/>
<path id="path39_fill" d="M 6.13463 12.2712C 9.52269 12.2712 12.2693 9.5242 12.2693 6.1356C 12.2693 2.747 9.52269 9.25398e-06 6.13463 9.25398e-06C 2.74658 9.25398e-06 5.07395e-06 2.747 5.07395e-06 6.1356C 5.07395e-06 9.5242 2.74658 12.2712 6.13463 12.2712Z"/>
<path id="path40_fill" d="M 6.13461 12.2712C 9.52266 12.2712 12.2692 9.5242 12.2692 6.1356C 12.2692 2.747 9.52266 9.25398e-06 6.13461 9.25398e-06C 2.74655 9.25398e-06 1.58188e-05 2.747 1.58188e-05 6.1356C 1.58188e-05 9.5242 2.74655 12.2712 6.13461 12.2712Z"/>
<path id="path41_fill" d="M 6.13462 12.2712C 9.52267 12.2712 12.2692 9.5242 12.2692 6.1356C 12.2692 2.747 9.52267 9.25398e-06 6.13462 9.25398e-06C 2.74656 9.25398e-06 -1.07448e-05 2.747 -1.07448e-05 6.1356C -1.07448e-05 9.5242 2.74656 12.2712 6.13462 12.2712Z"/>
<path id="path42_fill" d="M 8.9232 29.1264C 8.9232 29.1264 13.1409 25.2443 16.5359 24.1389C 20.2988 22.9138 23.2292 16.4272 23.8857 15.2999C 24.2292 14.7093 27.0508 9.00655 27.5557 6.1136C 28.0606 3.22065 25.1106 3.20904e-06 25.1106 3.20904e-06L 24.2793 3.72563L 11.6372 7.51117C 11.6372 7.51117 7.87426 10.9238 7.17498 12.237C 6.47448 13.5502 6.56251 16.0873 4.55024 17.837C 2.53797 19.5867 7.76016e-06 21.2496 7.76016e-06 21.2496L 8.9232 29.1264Z"/>
<path id="path43_fill" d="M 18.5953 18.4936C 19.8092 1.68246 19.8092 1.68246 19.8092 1.68246C 1.24277 -2.18639e-06 1.24278 8.76889e-07 1.24278 8.76889e-07C 0.0288143 16.4823 0.0288189 16.4823 0.0288189 16.4823C -0.280479 20.5062 1.85037 24.8713 8.83831 25.5414C 15.5292 26.2114 18.2872 22.1875 18.5953 18.4936Z"/>
<path id="path44_fill" d="M 0.853313 2.88684C 2.55996 9.71206 2.79346 11.7467 11.812 15.1605C 13.0504 0.552672 12.768 2.80981 12.768 2.80981C 6.16885 1.24717 -5.82012e-06 -4.10459e-07 -5.82012e-06 -4.10459e-07L 0.853313 2.88684Z"/>
<path id="path45_fill" d="M 5.14438 0.0974162C 5.14438 0.0974162 10.2998 -0.200925 16.2742 0.24659C 22.1142 0.684324 26.9053 3.11265 26.9053 3.11265L 29.5741 7.24788L 7.61092e-06 5.49817L 5.14438 0.0974162Z"/>
<path id="path46_fill" d="M 1.11605 18.5401C -0.87422 27.3596 -0.0759119 30.31 2.50728 37.9251C 4.37163 42.2939 6.42424 43.2378 6.80322 40.7887C 7.00739 45.517 11.6725 47.8426 11.587 44.3444C 12.0099 45.6637 13.609 47.4831 15.2875 46.7971C 16.6531 46.0733 15.4489 43.6878 14.9782 42.679C 16.5137 42.9162 18.2766 41.6165 16.9135 38.2711C 15.7582 35.5738 16.0883 33.4365 16.0883 33.4365C 18.5174 36.0005 20.6654 36.3331 21.5615 34.5907C 19.4918 31.7626 18.1054 26.5012 15.9135 22.4002C 15.3963 21.6935 14.878 20.9868 14.3609 20.2788C 15.2961 -2.33215e-06 15.2961 -2.68664e-06 15.2961 -2.68664e-06C 1.27132 5.36529 1.27131 5.36529 1.27131 5.36529L 1.11605 18.5401Z"/>
<path id="path47_fill" d="M 5.96935e-07 5.00337L 16.8549 5.72844L 17.0518 0.392488L 0.145485 -3.50756e-06L 5.96935e-07 5.00337Z"/>
<path id="path48_fill" d="M -6.56629e-06 6.846C 2.17364 4.33576 5.2703 9.02 6.51972 9.94437C 9.30218 11.4984 11.4758 10.5643 11.79 9.02C 8.99656 7.16147 5.88889 2.79269 2.48783 7.46289e-07L -6.56629e-06 6.846Z"/>
<path id="path49_fill" d="M 27.3087 15.2265C 27.0043 23.3123 20.179 29.8233 12.1164 29.5188C 4.03188 29.5188 -4.47701e-07 22.6936 -4.47701e-07 14.2923C 0.31541 6.23826 4.65169 -0.304512 12.746 0.0109493C 21.1142 0.315406 27.3087 7.16141 27.3087 15.2265Z"/>
<path id="path50_fill" d="M 24.8209 63.9519L -1.04464e-06 63.3332L 1.54281 8.95546e-07L 28.8528 0.934158L 24.8209 63.9519Z"/>
<path id="path51_fill" d="M 48.7188 43.8003C 53.6847 4.6643e-06 53.6847 -3.58219e-06 53.6847 -3.58219e-06C 0 -3.58219e-06 2.68621e-06 -3.58219e-06 2.68621e-06 -3.58219e-06L 2.68621e-06 43.8003C 2.68621e-06 41.6263 10.8462 37.5729 24.5165 37.5729"/>
<path id="path52_fill" d="M 32.2648 113.959L -8.65556e-06 111.165L 6.50994 65.8104L 13.6385 12.0964L 22.0286 1.85853L 43.4265 -1.00749e-06L 37.5364 97.4923L 32.2648 113.959Z"/>
<path id="path53_fill" d="M 0.0427318 13.7042C -0.577087 22.1055 5.61744 28.9307 13.9856 29.5506C 22.0812 29.8551 31.3723 23.6596 31.9922 15.5737C 32.612 7.50865 23.9394 0.34719 15.5394 0.042733C 7.47689 -0.578408 0.662551 5.6489 0.0427318 13.7042Z"/>
<path id="path54_fill" d="M -2.23851e-06 63.332L 24.5275 64.9178L 33.2001 1.86832L 1.24942 -3.80607e-06L -2.23851e-06 63.332Z"/>
<path id="path55_fill" d="M 15.5285 18.3224L 2.23851e-06 17.392L 0.934 -8.95546e-06L 15.2241 0.934158L 15.5285 18.3224Z"/>
<path id="path56_fill" d="M 44.6967 17.0802C 31.3418 17.0802 31.3418 17.0802 31.3418 17.0802C 30.722 15.2204 30.722 15.2204 30.722 15.2204C 26.6901 16.1509 17.0835 17.3907 12.4001 17.3907C 8.68358 17.3907 3.41206 17.0802 0.934004 15.8391C 0.618593 15.8391 -3.88008e-06 14.9098 -3.88008e-06 14.2887C 0.619815 8.70699 22.0384 6.53666 27.6241 -8.95546e-07C 27.9285 -8.95546e-07 41.567 1.55041 43.1428 0.309354C 44.6967 1.85976 45.0109 16.7696 44.6967 17.0802Z"/>
<path id="path57_fill" d="M 24.5408 13.066C 24.8452 6.20898 19.5749 0.317911 12.7288 0.0134539C 5.91441 -0.302008 0.328703 4.97036 0.0132924 11.7956C -0.291116 18.6428 4.665 24.2294 11.4891 24.8481C 18.3353 25.1526 24.2254 19.8814 24.5408 13.066Z"/>
<path id="path58_fill" d="M 27.0055 1.27041L 2.47805 6.56734e-06L 6.56629e-06 73.9011L 22.3538 76.7171L 27.0055 1.27041Z"/>
<path id="path59_fill" d="M 8.95403e-06 17.3859L 15.5285 17.6964L 16.1483 0.619918L 1.55383 -4.92551e-06L 8.95403e-06 17.3859Z"/>
<path id="path60_fill" d="M 0.102521 16.7684C 13.4366 17.0789 13.4366 17.079 13.4366 17.079C 14.0772 15.218 14.0772 15.218 14.0772 15.218C 18.1091 16.1485 27.7266 17.6989 32.3783 17.6989C 35.7806 17.6989 41.0509 17.6989 43.5608 16.459C 44.1806 16.1497 44.7992 15.5285 44.7992 14.5993C 44.4948 9.32813 22.7608 6.84722 17.4905 0.309342C 16.8706 0.309342 3.5158 1.23984 1.96197 5.07476e-06C 0.102516 1.54797 -0.201887 16.4578 0.102521 16.7684Z"/>
<path id="path61_fill" d="M -1.04464e-06 12.1095C 0.304407 5.28427 5.89011 -0.292549 12.7362 0.0119076C 19.5604 0.327369 24.8209 5.90297 24.5165 12.7294C 24.5165 19.5766 18.9308 24.8478 12.0846 24.5323C 5.27029 24.5323 -1.04464e-06 18.6413 -1.04464e-06 12.1095Z"/>
<path id="path62_fill" d="M 1.23841 1.94035e-06L 25.7549 0.619925L 22.657 74.5211L -1.64157e-06 75.4516L 1.23841 1.94035e-06Z"/>
<path id="path63_fill" d="M -1.79081e-06 3.09226L 8.71292 14.5932L 12.8561 11.5131L 4.0979 -2.98515e-07L -1.79081e-06 3.09226Z"/>
<path id="path64_fill" d="M 28.1235 2.02355C 27.7458 7.22255 25.533 12.0878 25.9083 13.1882C 26.8289 15.8843 27.1308 16.8564 26.1479 21.2692C 25.077 26.0744 22.5513 33.4022 21.7725 34.7729C 20.8691 36.3648 20.6722 37.6035 15.2051 36.2022C 9.73799 34.801 2.12288 30.4872 1.45783 26.6381C 0.895471 23.3832 1.2989 22.2033 0.659524 20.5367C 0.0201443 18.8702 -2.18894 6.85941 7.77829 2.12993C 17.7455 -2.59955 28.1235 2.02355 28.1235 2.02355Z"/>
<path id="path65_fill" d="M 40.4049 9.78607C 41.4184 5.4662 37.5968 2.62093 33.1285 1.18791C 23.2004 -1.54365 2.28545 -1.10347 0.131364 19.5764C -1.07404 31.1458 6.41267 39.6583 6.44446 39.6571C 7.8528 40.074 13.2246 41.5328 16.1782 40.4482C 19.5964 39.1925 22.028 33.9323 22.4216 28.4203C 22.8153 22.9083 25.8153 22.912 26.2334 24.3474C 26.8337 26.4114 25.8557 29.5464 25.8557 29.5464C 25.8557 29.5464 26.7225 29.5611 27.3887 29.2334C 28.8496 28.5157 29.6321 26.2793 29.8717 24.713C 30.1113 23.1467 32.0245 16.0256 35.1872 14.7919C 37.4452 13.9115 39.488 13.1926 40.4049 9.78607Z"/>
<path id="path66_fill" d="M 116.588 48.6961L 96.8137 59.3729C 96.8137 59.3729 91.9139 25.0695 90.3393 12.1172C 89.1412 2.2609 66.7152 1.15678 54.111 0.395024L 54.1159 0.390136C 32.0665 -0.310483 28.5676 -0.835032 21.7423 5.99141C 14.9181 12.8166 0.568169 36.6193 0.218527 43.9703C -0.131114 51.3213 0.0437091 96.3015 0.0437091 96.3015L 15.3962 96.9617L 13.1577 112.163L 78.3072 117.738L 81.5004 81.553C 86.2951 85.9316 92.887 84.4631 97.8639 81.0737C 106.089 75.4737 124.637 62.3465 124.637 62.3465L 116.588 48.6961ZM 19.2923 52.3716C 19.3449 51.8006 20.9146 48.6105 23.1469 44.3127L 17.0649 85.6173C 17.9097 72.8204 19.1774 53.6469 19.2923 52.3716Z"/>
<path id="path67_fill" d="M -2.98468e-06 7.75081L 58.9537 7.1309L 58.9537 5.27237L -2.98468e-06 4.77625e-06L -2.98468e-06 7.75081Z"/>
<path id="path68_fill" d="M 7.07841 11.81C 4.24949 10.5335 7.6591 5.95072 7.98918 4.60573C 8.51486 1.3105 7.19332 -0.29615 5.68717 0.0449884C 4.55756 3.47716 1.59662 6.85064 5.52165e-06 11.0226L 7.07841 11.81Z"/>
</defs>
</svg>
