<svg width="483" height="308" viewBox="0 0 483 308" version="1.1" xmlns="http://www.w3.org/2000/svg" xmlns:xlink="http://www.w3.org/1999/xlink">
<title>IllustrationContainer</title>
<desc>Created using Figma</desc>
<g id="Canvas" transform="translate(-19808 -359)">
<g id="IllustrationContainer">
<g id="illustration">
<g id="Group">
<g id="Group">
<g id="Vector">
<use xlink:href="#path0_fill" transform="translate(19915.4 399.349)" fill="#505050"/>
</g>
<g id="Group">
<g id="Vector">
<use xlink:href="#path1_fill" transform="translate(19954.3 362.01)" fill="#FFB900"/>
</g>
</g>
<g id="Group">
<g id="Vector">
<use xlink:href="#path2_fill" transform="translate(20007.5 359)" fill="#FF8C00"/>
</g>
</g>
<g id="Vector">
<use xlink:href="#path3_fill" transform="translate(20013.9 364.921)" fill="#737373"/>
</g>
<g id="Vector">
<use xlink:href="#path4_fill" transform="translate(19959.4 390.088)" fill="#737373"/>
</g>
<g id="Group">
<g id="Vector">
<use xlink:href="#path5_fill" transform="matrix(-1 -4.47674e-11 4.49462e-11 -1 19996.4 508.423)" fill="#2488D8"/>
</g>
<g id="Vector">
<use xlink:href="#path6_fill" transform="matrix(-1 -4.45387e-11 4.47166e-11 -1 19996.4 508.423)" fill="#004578"/>
</g>
<g id="Vector">
<use xlink:href="#path7_fill" transform="matrix(-1 -4.47674e-11 4.49462e-11 -1 19996.4 465.587)" fill="#69AFE5"/>
</g>
</g>
</g>
<g id="Group">
<g id="Vector">
<use xlink:href="#path8_fill" transform="matrix(-1 4.47538e-11 -4.49326e-11 -1 20071.9 592.537)" fill="#2488D8"/>
</g>
<g id="Vector">
<use xlink:href="#path9_fill" transform="matrix(-1 4.44609e-11 -4.46385e-11 -1 20071.9 592.537)" fill="#004578"/>
</g>
<g id="Vector">
<use xlink:href="#path10_fill" transform="matrix(-1 4.48181e-11 -4.49971e-11 -1 20071.9 549.627)" fill="#69AFE5"/>
</g>
</g>
<g id="Group">
<g id="Vector">
<use xlink:href="#path11_fill" transform="matrix(-1 4.47538e-11 -4.49326e-11 -1 20156.3 592.537)" fill="#2488D8"/>
</g>
<g id="Vector">
<use xlink:href="#path12_fill" transform="matrix(-1 4.44609e-11 -4.46385e-11 -1 20156.3 592.537)" fill="#004578"/>
</g>
<g id="Vector">
<use xlink:href="#path13_fill" transform="matrix(-1 4.48181e-11 -4.49971e-11 -1 20156.3 549.627)" fill="#69AFE5"/>
</g>
</g>
<g id="Group">
<g id="Vector">
<use xlink:href="#path11_fill" transform="matrix(-1 4.47538e-11 -4.49326e-11 -1 20240.8 592.537)" fill="#2488D8"/>
</g>
<g id="Vector">
<use xlink:href="#path12_fill" transform="matrix(-1 4.44609e-11 -4.46385e-11 -1 20240.8 592.537)" fill="#004578"/>
</g>
<g id="Vector">
<use xlink:href="#path13_fill" transform="matrix(-1 4.48181e-11 -4.49971e-11 -1 20240.8 549.627)" fill="#69AFE5"/>
</g>
</g>
<g id="Vector">
<use xlink:href="#path14_fill" transform="translate(19870.3 631.531)" fill="#505050"/>
</g>
<g id="Group">
<g id="Vector">
<use xlink:href="#path15_fill" transform="translate(19810 595.199)" fill="#A7A9AC"/>
</g>
</g>
<g id="Group">
<g id="Vector">
<use xlink:href="#path16_stroke" transform="translate(19810 595.199)" fill="#6D6E71"/>
</g>
</g>
<g id="Vector">
<use xlink:href="#path17_fill" transform="translate(19893.7 639.318)" fill="#505050"/>
</g>
<g id="Vector">
<use xlink:href="#path18_fill" transform="translate(20198 639.318)" fill="#505050"/>
</g>
<g id="Group">
<g id="Vector">
<use xlink:href="#path19_fill" transform="translate(19814.7 598.806)" fill="#FFFFFF"/>
</g>
<g id="Vector">
<use xlink:href="#path20_fill" transform="translate(19824 607.949)" fill="#75BEFF"/>
</g>
</g>
<g id="Group">
<g id="Vector">
<use xlink:href="#path21_fill" transform="translate(20255.9 598.806)" fill="#FFFFFF"/>
</g>
<g id="Vector">
<use xlink:href="#path22_fill" transform="translate(20265.2 607.949)" fill="#75BEFF"/>
</g>
</g>
<g id="Group">
<g id="Vector">
<use xlink:href="#path23_fill" transform="translate(19820.5 604.75)" fill="#737373"/>
</g>
<g id="Vector">
<use xlink:href="#path24_fill" transform="translate(19908.6 604.748)" fill="#737373"/>
</g>
<g id="Vector">
<use xlink:href="#path25_fill" transform="translate(19996.7 604.748)" fill="#737373"/>
</g>
<g id="Vector">
<use xlink:href="#path26_fill" transform="translate(20084.9 604.748)" fill="#737373"/>
</g>
<g id="Vector">
<use xlink:href="#path27_fill" transform="translate(20173 604.748)" fill="#737373"/>
</g>
<g id="Vector">
<use xlink:href="#path28_fill" transform="translate(20261.1 604.748)" fill="#737373"/>
</g>
</g>
</g>
</g>
</g>
</g>
<defs>
<path id="path0_fill" d="M 43.8627 29.7308L 43.8627 1.51122e-06L 62.0189 1.51122e-06L 62.0189 30.5315L 103.006 41.9358L 87.9958 79.7225L 80.1054 78.2222L 90.4767 50.0423L 51.1852 39.0784L 12.5292 50.0423L 22.9005 78.2222L 15.008 79.7225L 3.02847e-06 41.9358L 43.8627 29.7308Z"/>
<path id="path1_fill" d="M 10.3482 50.9753C 13.3887 51.8456 16.7353 51.7192 19.875 50.3853L 74.0119 27.3534C 81.2625 24.2684 84.6366 15.9006 81.5455 8.66231C 78.4522 1.42401 70.0678 -1.93912 62.8171 1.14375L 8.68018 24.1757C 1.42955 27.2606 -1.94451 35.6284 1.14662 42.8667C 2.8991 46.9737 6.36184 49.8332 10.3482 50.9753Z"/>
<path id="path2_fill" d="M 161.494 261.19C 166 262.214 170.903 261.483 175.077 258.761C 183.244 253.438 185.539 242.514 180.201 234.365L 32.4482 7.98864C 27.1189 -0.159985 16.1733 -2.45475 8.00418 2.87441C -0.162813 8.19725 -2.45794 19.1211 2.87975 27.2697L 150.633 253.644C 153.241 257.627 157.187 260.21 161.494 261.19Z"/>
<path id="path3_fill" d="M 11.3003 22.5557C 17.5414 22.5557 22.6007 17.5064 22.6007 11.2778C 22.6007 5.04926 17.5414 0 11.3003 0C 5.05934 0 3.99501e-06 5.04926 3.99501e-06 11.2778C 3.99501e-06 17.5064 5.05934 22.5557 11.3003 22.5557Z"/>
<path id="path4_fill" d="M 9.15936 18.2822C 14.2179 18.2822 18.3187 14.1896 18.3187 9.14112C 18.3187 4.09262 14.2179 0 9.15936 0C 4.10078 0 0 4.09262 0 9.14112C 0 14.1896 4.10078 18.2822 9.15936 18.2822Z"/>
<path id="path5_fill" d="M 59.5929 0L 0 0L 0 55.7571L 59.5929 55.7571L 59.5929 0Z"/>
<path id="path6_fill" d="M 14.6301 0L 5.92807e-06 0L 5.92807e-06 55.7571L 14.6301 55.7571L 14.6301 0Z"/>
<path id="path7_fill" d="M 59.5929 0L 0 0L 0 12.9215L 59.5929 12.9215L 59.5929 0Z"/>
<path id="path8_fill" d="M 59.6963 -2.95813e-06L -5.7992e-06 -2.95813e-06L -5.7992e-06 55.854L 59.6963 55.854L 59.6963 -2.95813e-06Z"/>
<path id="path9_fill" d="M 14.6554 -2.95813e-06L -4.25275e-06 -2.95813e-06L -4.25275e-06 55.854L 14.6554 55.854L 14.6554 -2.95813e-06Z"/>
<path id="path10_fill" d="M 59.6963 -2.95813e-06L -5.7992e-06 -2.95813e-06L -5.7992e-06 12.9425L 59.6963 12.9425L 59.6963 -2.95813e-06Z"/>
<path id="path11_fill" d="M 59.6963 -2.95813e-06L 1.03097e-05 -2.95813e-06L 1.03097e-05 55.854L 59.6963 55.854L 59.6963 -2.95813e-06Z"/>
<path id="path12_fill" d="M 14.6554 -2.95813e-06L 1.18561e-05 -2.95813e-06L 1.18561e-05 55.854L 14.6554 55.854L 14.6554 -2.95813e-06Z"/>
<path id="path13_fill" d="M 59.6963 -2.95813e-06L 1.03097e-05 -2.95813e-06L 1.03097e-05 12.9425L 59.6963 12.9425L 59.6963 -2.95813e-06Z"/>
<path id="path14_fill" d="M 356.271 0L 0 0L 0 10.3823L 356.271 10.3823L 356.271 0Z"/>
<path id="path15_fill" d="M 460.797 36.3327L 18.2026 36.3327C 8.14799 36.3327 0 28.1988 0 18.1663C 0 8.13387 8.1501 -7.71687e-06 18.2026 -7.71687e-06L 460.797 -7.71687e-06C 470.852 -7.71687e-06 479 8.13387 479 18.1663C 479 28.1988 470.852 36.3327 460.797 36.3327Z"/>
<path id="path16_stroke" d="M 460.797 34.8327L 18.2026 34.8327L 18.2026 37.8327L 460.797 37.8327L 460.797 34.8327ZM 18.2026 34.8327C 8.97371 34.8327 1.5 27.3677 1.5 18.1663L -1.5 18.1663C -1.5 29.03 7.32227 37.8327 18.2026 37.8327L 18.2026 34.8327ZM 1.5 18.1663C 1.5 8.96511 8.97571 1.49999 18.2026 1.49999L 18.2026 -1.50001C 7.32449 -1.50001 -1.5 7.30263 -1.5 18.1663L 1.5 18.1663ZM 18.2026 1.49999L 460.797 1.49999L 460.797 -1.50001L 18.2026 -1.50001L 18.2026 1.49999ZM 460.797 1.49999C 470.026 1.49999 477.5 8.965 477.5 18.1663L 480.5 18.1663C 480.5 7.30274 471.678 -1.50001 460.797 -1.50001L 460.797 1.49999ZM 477.5 18.1663C 477.5 27.3677 470.026 34.8327 460.797 34.8327L 460.797 37.8327C 471.678 37.8327 480.5 29.03 480.5 18.1663L 477.5 18.1663Z"/>
<path id="path17_fill" d="M 6.50108 -1.51765e-05L 0 -1.51765e-05L 0 27.6826L 6.50108 27.6826L 6.50108 -1.51765e-05Z"/>
<path id="path18_fill" d="M 6.50106 -1.51765e-05L -4.63936e-06 -1.51765e-05L -4.63936e-06 27.6826L 6.50106 27.6826L 6.50106 -1.51765e-05Z"/>
<path id="path19_fill" d="M 28.0545 16.9884L 28.0376 12.1756C 28.0376 11.9206 27.9363 11.6761 27.7589 11.497C 27.5816 11.3179 27.3409 11.2168 27.0917 11.2189L 24.4968 11.2315C 24.4714 11.143 24.3785 10.9302 24.2561 10.6647C 24.0555 10.0894 23.8169 9.52888 23.5276 8.99365L 25.3794 7.13509C 25.5567 6.95597 25.6581 6.71363 25.6602 6.45866C 25.6623 6.20368 25.5652 5.95714 25.3899 5.77592L 22.4529 2.7352C 22.0792 2.34747 21.4584 2.34326 21.0763 2.72467L 19.271 4.53899C 18.4919 4.06065 17.7276 3.73192 16.8429 3.48959L 16.8598 0.979885C 16.864 0.459401 16.4797 0.029536 15.9983 0.029536L 12.2083 3.49916e-05C 11.6762 -0.00417945 11.2434 0.423578 11.2392 0.95249L 11.2201 3.53383C 10.4431 3.76563 9.6957 4.09436 8.98415 4.51791L 7.39847 2.77102C 7.02052 2.35379 6.36598 2.34958 5.9817 2.76049L 3.3023 5.62421C 3.13761 5.7991 3.04471 6.03933 3.0426 6.29009C 3.04049 6.54085 3.13128 6.78106 3.29175 6.95807L 4.95344 8.78925C 4.95133 8.79346 4.94921 8.79767 4.9471 8.80188C 4.93866 8.79135 4.9281 8.78081 4.91965 8.77028L 4.91543 8.79135C 4.7064 9.1833 4.52904 9.57525 4.37702 9.97773C 4.22711 10.3739 4.10253 10.7848 3.99907 11.2168C 3.99907 11.2168 2.55908 11.2168 1.27956 11.2168C 3.33504e-05 11.2168 0.027482 12.3188 0.027482 12.3188L 3.39586e-05 16.9421C -0.00207747 17.1907 0.0950478 17.431 0.268185 17.608C 0.280853 17.6206 0.297745 17.6312 0.310413 17.6438C 0.481439 17.8208 0.717918 17.9325 0.981846 17.9283L 3.50078 17.9177C 3.58734 18.2338 4.28834 19.85 4.55227 20.3221L 2.73855 22.1575C 2.5633 22.3345 2.46618 22.5726 2.46829 22.8212C 2.46829 23.0699 2.56753 23.3101 2.74489 23.485L 5.68821 26.4204C 6.06616 26.7976 6.67847 26.7954 7.0543 26.4161L 8.82157 24.6271C 9.59857 25.0844 10.3608 25.3984 11.2392 25.6238L 11.2518 28.1841C 11.2539 28.7025 11.6699 29.1239 12.1872 29.1176L 15.9181 29.0986C 16.4311 29.0965 16.8471 28.6793 16.845 28.1651L 16.8365 25.5985C 17.6769 25.3604 18.4813 25.0275 19.2478 24.5997L 21.0868 26.4056C 21.4563 26.7681 22.0496 26.766 22.4149 26.4014L 25.3857 23.4408C 25.5609 23.2659 25.6602 23.0277 25.6581 22.7812C 25.6581 22.5346 25.5567 22.2986 25.3794 22.1237L 23.8338 19.7826C 23.8971 19.673 23.9774 19.5635 24.1421 19.1694C 24.3068 18.7733 24.444 18.3645 24.558 17.9304L 27.1192 17.9219C 27.3683 17.9219 27.6069 17.8229 27.7843 17.648C 27.9574 17.4731 28.0545 17.235 28.0545 16.9884Z"/>
<path id="path20_fill" d="M 4.86895 9.7185C 7.55799 9.7185 9.73789 7.54294 9.73789 4.85925C 9.73789 2.17556 7.55799 -2.44368e-06 4.86895 -2.44368e-06C 2.1799 -2.44368e-06 0 2.17556 0 4.85925C 0 7.54294 2.1799 9.7185 4.86895 9.7185Z"/>
<path id="path21_fill" d="M 28.0545 16.9884L 28.0377 12.1756C 28.0377 11.9206 27.9363 11.6761 27.7589 11.497C 27.5816 11.3179 27.3409 11.2168 27.0917 11.2189L 24.4968 11.2315C 24.4715 11.143 24.3786 10.9302 24.2561 10.6647C 24.0555 10.0894 23.8169 9.52888 23.5277 8.99365L 25.3794 7.13509C 25.5567 6.95597 25.6581 6.71363 25.6602 6.45866C 25.6623 6.20368 25.5652 5.95714 25.3899 5.77592L 22.4529 2.7352C 22.0792 2.34747 21.4584 2.34326 21.0763 2.72467L 19.271 4.53899C 18.4919 4.06065 17.7276 3.73192 16.8429 3.48959L 16.8598 0.979885C 16.864 0.459401 16.4797 0.029536 15.9983 0.029536L 12.2083 3.49916e-05C 11.6762 -0.00417945 11.2434 0.423578 11.2391 0.95249L 11.2201 3.53383C 10.4431 3.76563 9.6936 4.09436 8.98416 4.51791L 7.39846 2.77102C 7.02052 2.35379 6.36597 2.34958 5.98169 2.76049L 3.30229 5.62421C 3.1376 5.7991 3.0447 6.03933 3.04259 6.29009C 3.04047 6.54085 3.13129 6.78106 3.29176 6.95807L 4.95342 8.78925C 4.95131 8.79346 4.94922 8.79767 4.94711 8.80188C 4.93866 8.79135 4.92811 8.78081 4.91966 8.77028L 4.91544 8.79135C 4.70641 9.1833 4.52904 9.57525 4.37702 9.97773C 4.2271 10.3739 4.10253 10.7848 3.99907 11.2168C 3.99907 11.2168 2.55909 11.2168 1.27956 11.2168C 4.03981e-05 11.2168 0.0274841 12.3188 0.0274841 12.3188L 3.44942e-05 16.9421C -0.00207693 17.1907 0.0950463 17.431 0.268183 17.608C 0.280852 17.6206 0.297752 17.6312 0.310421 17.6438C 0.481446 17.8208 0.717911 17.9325 0.981839 17.9283L 3.50079 17.9177C 3.58736 18.2338 4.28835 19.85 4.55228 20.3221L 2.73855 22.1575C 2.5633 22.3345 2.46619 22.5726 2.4683 22.8212C 2.4683 23.0699 2.56753 23.3101 2.74489 23.485L 5.68821 26.4204C 6.06616 26.7976 6.67848 26.7954 7.05431 26.4161L 8.82156 24.6271C 9.59856 25.0844 10.3608 25.3984 11.2391 25.6238L 11.2518 28.1841C 11.2539 28.7025 11.6699 29.1239 12.1872 29.1176L 15.9181 29.0986C 16.4311 29.0965 16.8471 28.6793 16.845 28.1651L 16.8365 25.5985C 17.6769 25.3604 18.4813 25.0275 19.2478 24.5997L 21.0868 26.4056C 21.4563 26.7681 22.0496 26.766 22.4149 26.4014L 25.3857 23.4408C 25.5609 23.2659 25.6602 23.0277 25.6581 22.7812C 25.6581 22.5346 25.5567 22.2986 25.3794 22.1237L 23.8338 19.7826C 23.8971 19.673 23.9774 19.5635 24.1421 19.1694C 24.3047 18.7733 24.444 18.3645 24.558 17.9304L 27.1192 17.9219C 27.3683 17.9219 27.6069 17.8229 27.7822 17.648C 27.9574 17.4731 28.0567 17.235 28.0545 16.9884Z"/>
<path id="path22_fill" d="M 4.86895 9.7185C 7.558 9.7185 9.7379 7.54294 9.7379 4.85925C 9.7379 2.17556 7.558 -2.44368e-06 4.86895 -2.44368e-06C 2.17991 -2.44368e-06 6.18582e-06 2.17556 6.18582e-06 4.85925C 6.18582e-06 7.54294 2.17991 9.7185 4.86895 9.7185Z"/>
<path id="path23_fill" d="M 8.60828 17.1823C 13.3625 17.1823 17.2166 13.3359 17.2166 8.59113C 17.2166 3.84638 13.3625 3.47259e-06 8.60828 3.47259e-06C 3.85406 3.47259e-06 0 3.84638 0 8.59113C 0 13.3359 3.85406 17.1823 8.60828 17.1823Z"/>
<path id="path24_fill" d="M 8.60828 17.1823C 13.3625 17.1823 17.2166 13.3359 17.2166 8.59113C 17.2166 3.84638 13.3625 3.47259e-06 8.60828 3.47259e-06C 3.85406 3.47259e-06 0 3.84638 0 8.59113C 0 13.3359 3.85406 17.1823 8.60828 17.1823Z"/>
<path id="path25_fill" d="M 8.60828 17.1823C 13.3625 17.1823 17.2166 13.3359 17.2166 8.59113C 17.2166 3.84638 13.3625 3.47259e-06 8.60828 3.47259e-06C 3.85406 3.47259e-06 -7.47453e-06 3.84638 -7.47453e-06 8.59113C -7.47453e-06 13.3359 3.85406 17.1823 8.60828 17.1823Z"/>
<path id="path26_fill" d="M 8.60829 17.1823C 13.3625 17.1823 17.2166 13.3359 17.2166 8.59113C 17.2166 3.84638 13.3625 3.47259e-06 8.60829 3.47259e-06C 3.85407 3.47259e-06 -1.54645e-05 3.84638 -1.54645e-05 8.59113C -1.54645e-05 13.3359 3.85407 17.1823 8.60829 17.1823Z"/>
<path id="path27_fill" d="M 8.6083 17.1823C 13.3625 17.1823 17.2166 13.3359 17.2166 8.59113C 17.2166 3.84638 13.3625 3.47259e-06 8.6083 3.47259e-06C 3.85407 3.47259e-06 -8.5055e-06 3.84638 -8.5055e-06 8.59113C -8.5055e-06 13.3359 3.85407 17.1823 8.6083 17.1823Z"/>
<path id="path28_fill" d="M 8.60829 17.1823C 13.3625 17.1823 17.2166 13.3359 17.2166 8.59113C 17.2166 3.84638 13.3625 3.47259e-06 8.60829 3.47259e-06C 3.85407 3.47259e-06 1.57223e-05 3.84638 1.57223e-05 8.59113C 1.57223e-05 13.3359 3.85407 17.1823 8.60829 17.1823Z"/>
</defs>
</svg>
