<svg xmlns="http://www.w3.org/2000/svg" viewBox="0 0 636 300"><defs><style>.a{fill:none}.b{fill:#737373}.c{fill:#464646}.d{clip-path:url(#a)}.e{fill:#505050}.f{fill:#939393}.g{fill:#ffb900}.h{fill:#212121}.i{fill:#937a47}.j{fill:#bea15f}.k{fill:#82693c}.l{fill:#fff}.m{clip-path:url(#c)}.n{fill:#008272}.o{clip-path:url(#e)}.p{fill:#004b50}</style><clipPath id="a"><rect class="a" x="292.5" y="216" width="133" height="17" rx="5.15" ry="5.15"/></clipPath><clipPath id="c"><rect class="a" x="62.5" y="213" width="217" height="21" rx="5.15" ry="5.15"/></clipPath><clipPath id="e"><rect class="a" x="408.5" y="213" width="133" height="21" rx="5.15" ry="5.15"/></clipPath></defs><title>swimlane-package-library</title><path class="b" d="M300.5 175h118v41h-118z"/><path class="c" d="M393.5 175h25v41h-25z"/><g class="d"><path class="e" d="M504.35 216h-206.7a5.15 5.15 0 0 0-5.15 5.15v10.7a5.15 5.15 0 0 0 5.15 5.15h206.7a5.15 5.15 0 0 0 5.15-5.15v-10.7a5.15 5.15 0 0 0-5.15-5.15z"/></g><g class="d"><path class="f" d="M292.5 216h6v13h-6zM306.5 216h6v13h-6zM320.5 216h6v13h-6zM334.5 216h6v13h-6zM348.5 216h6v13h-6zM362.5 216h6v13h-6zM376.5 216h6v13h-6zM390.5 216h6v13h-6zM405.5 216h6v13h-6zM419.5 216h6v13h-6z"/><path class="g" d="M433.5 216h6v13h-6zM447.5 216h6v13h-6zM461.5 216h6v13h-6zM475.5 216h6v13h-6zM489.5 216h6v13h-6zM503.5 216h6v13h-6z"/></g><path class="c" d="M25.5 210h59v15h-59z"/><path class="f" d="M14.5 192h70v25h-70z"/><path class="c" d="M559.5 210h59v15h-59z"/><path class="h" d="M607.5 210h11v15h-11z"/><path class="f" d="M551.5 192h75v25h-75z"/><path class="b" d="M612.5 192h14v25h-14z"/><path class="i" d="M187.5 66h84v147h-84z"/><path class="j" d="M71.5 66h147v147h-147z"/><path class="k" d="M75.5 71h138v4h-138z"/><path class="i" d="M120.5 66h49v27h-49z"/><path class="l" d="M111.5 127h68v36h-68z"/><path class="i" d="M485.5 125h50v88h-50z"/><path class="j" d="M415.5 125h88v88h-88z"/><path class="k" d="M417.5 128h83v2h-83z"/><path class="i" d="M445.5 125h29v16h-29z"/><path class="l" d="M439.5 161h41v22h-41z"/><g class="m"><path class="n" d="M274.35 213H67.65a5.15 5.15 0 0 0-5.15 5.15v10.7a5.15 5.15 0 0 0 5.15 5.15h206.7a5.15 5.15 0 0 0 5.15-5.15v-10.7a5.15 5.15 0 0 0-5.15-5.15z"/></g><g class="m"><path class="g" d="M62.5 213h6v13h-6zM76.5 213h6v13h-6zM90.5 213h6v13h-6zM104.5 213h6v13h-6zM118.5 213h6v13h-6zM132.5 213h6v13h-6zM146.5 213h6v13h-6zM160.5 213h6v13h-6zM175.5 213h6v13h-6zM189.5 213h6v13h-6zM203.5 213h6v13h-6zM217.5 213h6v13h-6zM231.5 213h6v13h-6zM245.5 213h6v13h-6zM259.5 213h6v13h-6zM273.5 213h6v13h-6z"/></g><g class="o"><path class="n" d="M620.35 213h-206.7a5.15 5.15 0 0 0-5.15 5.15v10.7a5.15 5.15 0 0 0 5.15 5.15h206.7a5.15 5.15 0 0 0 5.15-5.15v-10.7a5.15 5.15 0 0 0-5.15-5.15z"/></g><g class="o"><path class="g" d="M408.5 213h6v13h-6zM422.5 213h6v13h-6zM436.5 213h6v13h-6zM450.5 213h6v13h-6zM464.5 213h6v13h-6zM478.5 213h6v13h-6zM492.5 213h6v13h-6zM506.5 213h6v13h-6zM521.5 213h6v13h-6zM535.5 213h6v13h-6zM549.5 213h6v13h-6zM563.5 213h6v13h-6zM577.5 213h6v13h-6zM591.5 213h6v13h-6zM605.5 213h6v13h-6zM619.5 213h6v13h-6z"/></g><path class="p" d="M2.5 224h631v10H2.5z"/></svg>