<svg xmlns="http://www.w3.org/2000/svg" viewBox="0 0 636 300"><defs><style>.a{fill:none}.b{fill:#b2b2b2}.c{fill:#a6a6a6}.d{fill:#2e2e2e}.e{fill:#767576}.f{fill:#737373}.g{clip-path:url(#a)}.h{fill:#69afe5}.i{fill:#2488d8}.j{fill:#502f84}.k{fill:#5c3d99}.l{fill:#3d1a68}.m{fill:#32145a}.n{fill:#af5443}.o{fill:#fff}.p{fill:#505050}.q{fill:#282828}.r{fill:#5d5f5e}.s{fill:#00bcf2}.t{fill:#107c10}.u{fill:#0078d7}.v{fill:#2f2f2f}.w{fill:#00188f}.x{fill:#d83b01}.y{fill:#5c2d91}.z{fill:#a80000}.aa{fill:#1ac3f3}.ab{fill:#666}.ac{fill:#750000}.ad{fill:#d86e26}.ae{fill:#0872c4}.af{fill:#bd3604}.ag{fill:#106ebe}</style><clipPath id="a"><path class="a" d="M211.545 54.5h239v129h-239z"/></clipPath></defs><title>swimlane-cross-platform</title><path class="b" d="M618.475 258.5H17.525a4.091 4.091 0 0 1-3.98-4 4 4 0 0 1 3.98-4h600.95a3.919 3.919 0 0 1 3.98 4 4 4 0 0 1-3.98 4z"/><path class="c" d="M355.545 233.62V217.5h-51v16.12c0 9.3-10.311 13.435-15 14.88l-.03 5h83.03v-5c-4.68-1.445-17-5.578-17-14.88z"/><path class="d" d="M462.545 195.5V49.321a7.821 7.821 0 0 0-7.821-7.821H207.366a7.821 7.821 0 0 0-7.821 7.821V195.5z"/><circle class="e" cx="330.168" cy="48.057" r="1.991"/><path class="c" d="M199.545 192.5v18.179a7.821 7.821 0 0 0 7.821 7.821h247.358a7.821 7.821 0 0 0 7.821-7.821V192.5z"/><path class="f" d="M289.545 248.5h83v5h-83zM355.545 232.5v-14h-51v14z"/><circle class="f" cx="330.413" cy="204" r="4.5"/><g class="g"><path class="h" d="M211.545 54.5h239v129h-239z"/><path class="i" d="M397.963 105.5H182.545a11.773 11.773 0 0 1-11.857-10.469A11.566 11.566 0 0 1 182.3 82.5h215.418a11.773 11.773 0 0 1 11.857 10.469 11.567 11.567 0 0 1-11.612 12.531z"/><path class="i" d="M437.6 82.5h-97.015a5.212 5.212 0 0 1-5.178-3.991 5.078 5.078 0 0 1 5.142-6.009h97.013a5.212 5.212 0 0 1 5.178 3.991 5.078 5.078 0 0 1-5.14 6.009z"/><path class="j" d="M210.545 102.134l9.706-3.634H238.1l8.312-4.75 9.5-3.562L268.976 79.5h5.224l3.646-2H290.1l18.667-5.833L325.1 90.334s8.167-1.167 9.333 0 10.5-1.167 10.5-1.167 5.833 9.333 7 9.333h9.491l10.286 9h3.438l18 12h7.2l9.6-6 8.4-1.2s3.6 7.2 8.4 7.2 9.6-1.2 12 0 12.8 4.8 12.8 4.8v60.2h-241z"/><path class="k" d="M238.838 147.461s-13.369-15.8-18.23-19.445-4.861-12.153-4.861-12.153 6.077-4.863 7.292-4.863 2.431 3.646 1.215 6.077 1.215 6.077 1.215 6.077-1.215-6.077 1.215-4.861 4.861-1.215 4.861-4.861v-8.507l3.646-2.431s1.215 12.153 3.646 14.584 10.938 9.723 10.938 9.723-3.646-12.153-3.646-13.369 4.861-6.077 4.861-6.077 2.431 8.507 6.077 9.723 12.153-9.723 12.153-9.723l9.723 8.507-14.584 27.952zM298.3 116.5s-13.75-16.25-13.75-18.75v-10l2.5 2.5s1.25 10 3.75 11.25 16.25-7.5 16.25-7.5l-3.75 7.5h5l5-1.25-10 16.25zM324.084 97.5s-1.231 8.615-2.462 9.846-4.923 8.615-4.923 8.615l9.846 8.615V113.5h1.231l1.231-16zM351.372 102.8l-6.684 5.773-7.288 14.581 3.646 3.646s9.723-9.723 10.938-9.723-.612-14.277-.612-14.277zM368.684 158.883l-3.646-20.66 3.646-9.723h4.861v8.507l4.861 2.431-3.646 12.153 2.431 20.661-8.507-13.369zM386.009 155.807l-1.215-15.8 3.646-8.507h4.861l-3.646 8.507-1.215 19.445-2.431-3.645zM409.1 128.015l9.723 6.077-1.215 4.861s-1.215 10.938-1.215 12.153-3.646 14.584-3.646 14.584l3.646 14.584-7.293-6.074-7.292-18.23 2.431-20.661-2.431-2.431 2.431-10.938z"/><path class="l" d="M433.453 189.5s-7.2-20.4-7.2-21.6 1.2-19.2 1.2-19.2l3.6 2.4s-1.2 7.2 0 9.6 6 10.8 6 10.8h3.6l7.2 18z"/><path class="m" d="M400.531 192.1l-34.072-36.979-6.988-3.494-15.14-16.3-9.317-10.606-22.127-9.192-5.823-4.658-16.3 8.152-8.333.841-7.1 3.642h-1.841l-8.49 6.052s-7.269 2.423-8.481 2.423-10.9 7.269-10.9 7.269l-4.846 1.212s-3.635 4.846-8.481 4.846S204.426 155 204.426 155l6.058 31.5 100.432 1h.027z"/><path class="n" d="M236.321 98.848l3.849 4.861 3.646-2.431 2.431-7.292-9.926 4.862zM255.899 90.34l-6.077 12.154 6.077 1.215 3.646-10.938v-5.414l-3.646 2.983zM288.9 77.208l-3.647 7.292h3.647l3.646-3.646V84.5h8.507l7.292 3.646 6.077 9.723s0-2.431 1.215-2.431-2.437-13.369-2.437-13.369l-4.861-10.938zM267.545 104.1c1.208 0 8.458-9.6 8.458-9.6h1.542l1.25 7.292 2.5 3.646 2.5 4.861s5 3.646 8.75 4.861 7.5-1.215 7.5-1.215l6.25-3.646s0 4.861 1.25 4.861 3.75-2.431 3.75-2.431l6.25 2.431 1.25 2.431 3.75 1.215s2.5 3.646 5 3.646a45.359 45.359 0 0 1 7.5 1.215s-2.5 6.077-1.25 8.507 5 12.153 5 12.153l-12.5-1.215-8.75-1.215v-19.445l-2.5 2.431-3.75 15.8s-3.75-6.077-3.75-8.507V126.8l-1-3.646V118.5h-3.958l-6.042 6v-4.8l-8.458 7.2s0-6-3.625-6-7.25-3.6-7.25-3.6-4.833 0-7.25-1.2a4.258 4.258 0 0 1-2.417-3.6zM353.255 98.5l-7.412 16.059 1.235 1.235 2.471 3.706h10v-4c0-2.667-1.25-6.667 0-6.667a4.292 4.292 0 0 0 2.5-1.333l7.5 8s1.25 4 0 5.333a4.264 4.264 0 0 0-1.25 2.667h3.75l2.5-5.333v6.048s5.143 2.571 6.429 0 .989-11.769.989-11.769l-4.9-3.264-2.522 4.747V107.5h-3.857l-10.286-9zM399.822 119.508l2.431 3.646 4.861 3.646-1.215-6.077 3.646-2.43v-4.862l-9.723 6.077zM427.454 119.131s-2.431 7.292-3.646 8.507l-2.431 2.431s1.215 2.431 2.431 2.431h6.077l3.646 1.215 8.507 1.215 8.507-3.849v-7.089l-12.153-6.077zM344.371 134.5s-3.857 9-2.571 9h6.429l3.857 9h7.714l-2.571-9-9-7.714zM366.545 155.5v7.292l4.861 4.861a27.579 27.579 0 0 1 1.215 4.861c0 1.215 2.431 3.646 1.215 4.861a17.523 17.523 0 0 1-3.646 2.431s15.8 9.723 18.23 9.723 18.23 2.431 18.23 2.431l-12.15-13.369-4.861-3.646-3.646-8.507-3.646 2.431-4.861-3.646-1.215-4.861-6.077-4.862zM348.421 101.278l-2.431-12.153-8.079 1.445-6.505-1.445-6.076 1.215-1.216 7.292 2.431 2.431v6.076l3.646 1.216 4.861-7.292 1.714-5.142 11.655 6.357z"/></g><path class="o" d="M211.545 53.5h239v5h-239z"/><path class="p" d="M257.545 172.5h144v11h-144z"/><path class="q" d="M230.545 247.5V124.558a5.058 5.058 0 0 0-5.058-5.058H46.6a5.058 5.058 0 0 0-5.058 5.058V247.5z"/><path d="M245.628 253.5H27.85c-7.259 0-8.444-10-8.444-10h234.667s-2.816 10-8.445 10z"/><path class="r" d="M134.545 123.5h3v3h-3z"/><path class="s" d="M50.545 226.94a2.63 2.63 0 0 0 2.541 2.56H221.5a.049.049 0 0 0 .049-.049v-98.9a.049.049 0 0 0-.049-.049H50.743a.2.2 0 0 0-.2.2v95.8"/><path d="M50.545 144.5h74v85h-74z"/><ellipse class="t" cx="59.994" cy="158.477" rx="4.156" ry="3.977"/><path class="u" d="M80.545 167.5h17v15h-17zM80.545 182.5h8v7h-8z"/><path class="t" d="M88.545 182.5h8v7h-8z"/><path class="u" d="M97.545 167.5h8v7h-8zM106.545 167.5h7v7h-7z"/><path class="t" d="M80.545 205.5h17v15h-17z"/><path class="u" d="M97.545 205.5h8v7h-8zM106.545 205.5h7v7h-7z"/><path class="o" d="M97.545 213.5h8v7h-8z"/><path class="v" d="M106.545 213.5h7v7h-7z"/><path class="w" d="M80.545 193.5h7v7h-7z"/><path class="x" d="M88.545 193.5h8v7h-8z"/><path class="y" d="M97.545 193.5h7v7h-7z"/><path class="t" d="M105.545 193.5h8v7h-8z"/><path class="u" d="M80.545 152.5h33v13h-33zM96.545 175.5h17v14h-17z"/><path d="M221.544 220.5h-171v7.585a2.373 2.373 0 0 0 2.392 2.415h166.217a2.373 2.373 0 0 0 2.392-2.415V220.5"/><path class="u" d="M55.545 165.5h7v5h-7zM55.545 172.5h7v5h-7z"/><path class="z" d="M55.545 179.5h7v5h-7z"/><path class="u" d="M55.545 186.5h7v5h-7zM55.545 193.5h7v5h-7z"/><path class="aa" d="M221.545 130.5h-93c46.815 47 55.341 55.835 55.341 55.835l4.659-.751v5.409l4.509 4.507h6.491v5.845l2 2.094V190.5h2v-3h7v3h2v20h9v10.455c.042 0 .042-90.455 0-90.455"/><path class="o" d="M197.347 158.782a4.086 4.086 0 0 0 .148-1.33 9.923 9.923 0 0 0-9.945-9.9 10.091 10.091 0 0 0-9.2 6.206 7.739 7.739 0 0 0-3.711-1.034 7.333 7.333 0 0 0-7.421 7.388 7.425 7.425 0 0 0 7.421 7.388h21.371a4.586 4.586 0 0 0 4.453-4.581 4.437 4.437 0 0 0-3.116-4.137z"/><path class="u" d="M184.545 183.485V220.5h-23v-16h1v-7h9v7h1v8h5v-27.896l7-1.119zM221.545 210.5v10h-34v-26h10v11h2v-15h2v-3h7v3h2v20h11z"/><path class="ab" d="M253.282 246.5c.853-1.854 1.282-3.371 1.282-3H18.913c0-.371.182 1.146.829 3z"/><path class="u" d="M151.136 204.675a79.88 79.88 0 0 1-.322-7.176c0-8.5 1.322-16.262 3.365-21.534a28.137 28.137 0 0 0 8.248-2.117 30.826 30.826 0 0 0-11.651-2.35l-.8-7h-.431l-.628 7a30.857 30.857 0 0 0-11.7 2.351 28.112 28.112 0 0 0 8.249 2.118c2.044 5.272 3.365 13.033 3.365 21.534a79.93 79.93 0 0 1-.322 7.176 15.229 15.229 0 0 0-5.173 1.173 15.038 15.038 0 0 0 4.926 1.15 47.706 47.706 0 0 1-3.4 13.5h1.329a57 57 0 0 0 3.359-12.03v13.03h1v-13.028a46.331 46.331 0 0 0 3.129 12.027h1.116a47.706 47.706 0 0 1-3.4-13.5 15.032 15.032 0 0 0 4.924-1.156 15.253 15.253 0 0 0-5.183-1.168zm-.591-18.159V176.2a38.53 38.53 0 0 0 2.486-.122 50.155 50.155 0 0 0-2.486 10.438zm-3.484-10.434c.81.067 1.64.106 2.484.121v10.3a50.227 50.227 0 0 0-2.484-10.421z"/><path d="M596.545 247.5V141.869a4.369 4.369 0 0 0-4.369-4.369H437.914a4.369 4.369 0 0 0-4.369 4.369V247.5z"/><path class="ac" d="M442.545 146.5h14v90h-14z"/><path class="ad" d="M456.545 146.5h132v90h-132z"/><path class="q" d="M610.114 253.5H421.237c-6.3 0-7.324-7-7.324-7h203.524s-2.437 7-7.323 7z"/><path class="r" d="M513.545 141.5h3v2h-3z"/><path class="p" d="M442.545 146.5h146v6h-146z"/><path class="x" d="M445.545 156.5h7v7h-7z"/><path class="ae" d="M445.545 166.5h7v7h-7z"/><path class="t" d="M445.545 175.5h7v7h-7z"/><path class="af" d="M445.545 185.5h7v7h-7z"/><path class="x" d="M445.545 194.5h7v7h-7z"/><path class="ae" d="M445.545 204.5h7v7h-7z"/><path class="u" d="M280.545 173.5h8v8h-8z"/><path class="y" d="M300.545 173.5h8v8h-8z"/><path class="f" d="M310.545 173.5h8v8h-8z"/><circle class="m" cx="274.913" cy="177.5" r="4"/><circle class="aa" cx="294.913" cy="177.5" r="4"/><circle class="t" cx="324.913" cy="177.5" r="4"/><path class="u" d="M330.545 173.5h8v8h-8z"/><path class="n" d="M350.545 173.5h8v8h-8z"/><path class="f" d="M360.545 173.5h8v8h-8zM260.545 173.5h8v8h-8z"/><path class="u" d="M380.545 173.5h8v8h-8z"/><circle class="c" cx="344.913" cy="177.5" r="4"/><circle class="m" cx="374.913" cy="177.5" r="4"/><circle class="aa" cx="394.913" cy="177.5" r="4"/><path class="q" d="M402.672 253.839c-2.718.657-7.339 1.275-15.588 1.275s-14.341-.642-16.658-1.281-3.881-2.13-3.881-4.484V174.82c0-2.4 1.478-3.841 3.984-4.244a123.878 123.878 0 0 1 16.45-1.1 90.468 90.468 0 0 1 15.586 1.1c2.686.457 3.98 1.949 3.98 4.344v74.441c0 2.346-1.155 3.822-3.873 4.478z"/><path class="ag" d="M368.545 181.5h36v62h-36z"/><ellipse class="e" cx="386.135" cy="173.657" rx=".782" ry=".839"/><ellipse class="e" cx="373.765" cy="174.32" rx=".628" ry=".673"/><path class="i" d="M404.545 214.626V181.5h-33.736l33.736 33.126z"/></svg>