<svg xmlns="http://www.w3.org/2000/svg" viewBox="0 0 636 300"><title>swimlane-customize-editor-theme</title><path d="M577.1,300H58.9a5.081,5.081,0,0,1-5-5,5.015,5.015,0,0,1,5-5H577.1a4.951,4.951,0,0,1,5,5A5.015,5.015,0,0,1,577.1,300Z" fill="#d2d2d2"/><path d="M403.2,289.5H357.6l3.7-31.9h38.2Z" fill="#231f20"/><path d="M502.2,260H257.4a6.231,6.231,0,0,1-6.2-6.2V97.2a6.231,6.231,0,0,1,6.2-6.2H502.1a6.231,6.231,0,0,1,6.2,6.2V253.8a6.231,6.231,0,0,1-6.2,6.2" fill="#231f20"/><path d="M500,99.7H259.8V248.3H500Z" fill="#479cdf"/><path d="M435.2,286h-110v9h110Z" fill="#231f20"/><path d="M500.2,100h-241V249h241Z" fill="#4b4a4b"/><path d="M353.2,112h-59v6h59Z" fill="#939393"/><path d="M354.2,132h-60v6h60Z" fill="#fff"/><path d="M339.2,147h-37v6h37Z" fill="#939393"/><path d="M426.2,147h-83v6h83Z" fill="#939393"/><path d="M332.2,161h-21v6h21Z" fill="#00b294"/><path d="M368.2,161h-32v6h32Z" fill="#939393"/><path d="M338.2,180h-21v6h21Z" fill="#00b294"/><path d="M443.2,180h-101v6h101Z" fill="#939393"/><path d="M338.2,194h-21v6h21Z" fill="#00b294"/><path d="M348.2,208h-21v6h21Z" fill="#939393"/><path d="M374.2,194h-32v6h32Z" fill="#939393"/><path d="M453.2,221h-111v6h111Z" fill="#939393"/><path d="M416.2,194h-38v6h38Z" fill="#00b294"/><path d="M283.2,112h-4V236h4Z" fill="#939393"/><path d="M325.8,132c-1.8,4.2-5.1,6-10.1,6h38.5v-6Z" fill="#ffa940"/><path d="M208.2,182h-105V290h105Z" fill="#d2d2d2"/><path d="M208.2,182h-9V290h9Z" fill="#c2c2c2"/><path d="M134.2,182h-20V290h20Z" fill="#f3f3f3"/><path d="M209.3,295H102.1a3.842,3.842,0,0,1-3.9-3.9v-.2a3.842,3.842,0,0,1,3.9-3.9H209.3a3.842,3.842,0,0,1,3.9,3.9v.2A3.842,3.842,0,0,1,209.3,295Z" fill="#939393"/><path d="M208.2,185h-105v6h105Z" fill="#737373"/><path d="M134.2,185h-20v6h20Z" fill="#b2b2b2"/><path d="M209.3,185H102.1a3.9,3.9,0,0,1-3.9-3.9v-.2a3.9,3.9,0,0,1,3.9-3.9H209.3a3.9,3.9,0,0,1,3.9,3.9v.2A3.9,3.9,0,0,1,209.3,185Z" fill="#939393"/><path d="M144.3,177s9.9,1.7,9.9,12.1v13.2c0,6.4,7.8,8.7,14.9,8.7s13.1,4.5,13.1,10.6v16.3c0,6.4,10,6.8,10,0V189.7c0-12.1-10.9-12.6-10.9-12.6Z" fill="#fda84c"/><path d="M104.1,189.3l-6.5-1.9-9.5,32.8c-2.2,6.2-4.4,13.1-6.5,20.4s-3.9,14.3-5.4,20.7l-9.6,32.8,6.5,1.9c3.9,1.1,14-21.8,22.6-51.3S108.1,190.4,104.1,189.3Z" fill="#939393"/><path d="M89.216,242.544c8.546-29.55,12.334-54.414,8.461-55.534s-13.94,21.928-22.486,51.478S62.857,292.9,66.73,294.021,80.67,272.094,89.216,242.544Z" fill="#c2c2c2"/><path d="M72.4,282.2,69.6,285a1.7,1.7,0,0,1-.6.6c-1-1.8,1.8-18.4,9.7-45.8s14.5-42.9,16.4-43.9a3.709,3.709,0,0,1,.2,1.4l1,2c.3-4.1-.4-4.4-.9-4.5-.7-.2-2.1-.6-7.3,12.9-3.2,8.4-7,19.7-10.5,31.9s-6.5,23.7-8.2,32.5c-2.8,14.2-1.4,14.6-.7,14.8C69.2,286.9,70.1,287.1,72.4,282.2Z" fill="#fff"/><path d="M83,225.8c6-18.7,10.6-29.1,12.1-30a3.709,3.709,0,0,1,.2,1.4l1,2c.3-4.1-.4-4.4-.9-4.5-.7-.2-2.1-.6-7.3,12.9-1.8,4.8-3.8,10.5-5.9,16.8Z" fill="#939393"/><path d="M185.1,236.9V222.6c0-9.6-5.7-12.1-18.8-13.1-9.6-.7-8.4-6.4-8.4-13.7,0-9.2-1.7-18.9-14.8-18.9,1.6.3,9.9,3.4,9.9,12.9v12.3c0,6.6,8.1,8.8,15.4,9.2,8.3.5,13.6,4.3,13.6,10.5V238c0,6,10.1,6.2,10.1-.1C190.6,241.1,185.1,239.7,185.1,236.9Z" fill="#e58b39"/><path d="M232.2,55.2l41.2,11.9,3.5-9.9L237.4,40.4Z" fill="#d2d2d2"/><path d="M232.2,55.2,138.5,16.7a2.881,2.881,0,0,1-1.6-3.7,2.918,2.918,0,0,1,3.6-1.8l97,29.2Z" fill="#1070c4"/><path d="M234.5,48.7l-2.3,6.5,41.2,11.9,1.4-4.1Z" fill="#b2b2b2"/><path d="M136.7,13.9a2.837,2.837,0,0,0,1.8,2.7l93.7,38.5,2.3-6.5Z" fill="#09538f"/><path d="M310.2,80.9S306.6,65.5,296.7,57a21.1,21.1,0,0,0-7.1-4.3c-.2-.1-.4-.1-.6-.2-8.6-2.7-17.2.2-19.5,6.7-2.4,6.7,2.8,14.7,11.5,17.8a19.561,19.561,0,0,0,12.6.4C302.4,76.7,310.2,80.9,310.2,80.9Z" fill="#676767"/><path d="M311,82.2c-.2-9.6-11.7-27.1-22.2-29.6,0,0,6.2,4,7.3,7.7.9,3.1-2.5,1.5-5.1,1.4s-2.9,1.8.9,4.6c3.8,2.7-.1,3.1-3.7,2.4-3.3-.6-3.1,2.4.7,4.7,3.8,2.4-4.3,4.8-7.7,3.9a28.524,28.524,0,0,0,8.6,1.7h.5C307.4,80.4,311.2,94,311,82.2Z" fill="#fda84c"/><path d="M285.9,69.7c0,1,1,2.4,3,3.6,3.8,2.4-4.3,4.8-7.7,3.9a28.524,28.524,0,0,0,8.6,1.7h.5c11.9,1.1,17.4,8,19.6,8.1C309.1,84.1,303.8,75,285.9,69.7Z" fill="#e58b39"/><path d="M321.9,111.4c-1.5-4.2-6.3-10.5-9.2-13.4-1-.9-1.8-.8-1.6.5.4,2.4-.6,5.6-3.5,11A10.7,10.7,0,0,0,306,116c.3,5.5,4.2,9.7,8.8,9.5s8.1-4.9,7.8-10.3a10.039,10.039,0,0,0-.4-2.4A3.529,3.529,0,0,0,321.9,111.4Z" fill="#fda84c"/><path d="M306,115.6v.3c.3,5.5,4.2,9.7,8.8,9.5,4.5-.2,8-4.7,7.8-10.1A9.3,9.3,0,0,1,306,115.6Z" fill="#e58b39"/><path d="M294.2,131.7c8.9,0,13.4,5.7,18.4,6.3H294.2Z" fill="#ffa940"/><path d="M500.2,210.9V100H398.3Z" fill="#686868"/><path d="M452.2,132h-94v6h94Z" fill="#939393"/></svg>