<svg xmlns="http://www.w3.org/2000/svg" viewBox="0 0 636 300"><defs><style>.a{fill:#b2b2b2}.b{fill:#00b294}.c{fill:#008272}.d{fill:#69afe5}.e{fill:#0089de}.f{fill:#ff8c00}.g{fill:#ec6401}.h{fill:#ffa940}.i{fill:#40c5af}.j{fill:#2488d8}.k{fill:#5c2d91}</style></defs><title>swimlane-thank-you-for-downloading</title><path class="a" d="M361.926 296.5h-85.852a4.112 4.112 0 0 1-4.022-4 4.022 4.022 0 0 1 4.022-4h85.851a3.94 3.94 0 0 1 4.022 4 4.022 4.022 0 0 1-4.022 4z"/><path class="b" d="M199.162 61.5h-42.324A4.838 4.838 0 0 1 152 56.662V14.338a4.838 4.838 0 0 1 4.838-4.838h42.324A4.838 4.838 0 0 1 204 14.338v42.324a4.838 4.838 0 0 1-4.838 4.838z"/><path class="c" d="M153.183 11.2A4.8 4.8 0 0 0 152 14.338v42.324a4.838 4.838 0 0 0 4.838 4.838h42.324a4.8 4.8 0 0 0 3.137-1.183z"/><path class="d" d="M339.162 61.5h-42.324A4.838 4.838 0 0 1 292 56.662V14.338a4.838 4.838 0 0 1 4.838-4.838h42.324A4.838 4.838 0 0 1 344 14.338v42.324a4.838 4.838 0 0 1-4.838 4.838z"/><path class="e" d="M293.183 11.2A4.8 4.8 0 0 0 292 14.338v42.324a4.838 4.838 0 0 0 4.838 4.838h42.324a4.8 4.8 0 0 0 3.137-1.183z"/><path class="d" d="M479.162 61.5h-42.324A4.838 4.838 0 0 1 432 56.662V14.338a4.838 4.838 0 0 1 4.838-4.838h42.324A4.838 4.838 0 0 1 484 14.338v42.324a4.838 4.838 0 0 1-4.838 4.838z"/><path class="e" d="M433.183 11.2A4.8 4.8 0 0 0 432 14.338v42.324a4.838 4.838 0 0 0 4.838 4.838h42.324a4.8 4.8 0 0 0 3.137-1.183z"/><path class="b" d="M269.162 141.5h-42.324a4.838 4.838 0 0 1-4.838-4.838V94.338a4.838 4.838 0 0 1 4.838-4.838h42.324A4.838 4.838 0 0 1 274 94.338v42.324a4.838 4.838 0 0 1-4.838 4.838z"/><path class="c" d="M223.183 91.2A4.8 4.8 0 0 0 222 94.338v42.324a4.838 4.838 0 0 0 4.838 4.838h42.324a4.8 4.8 0 0 0 3.137-1.183z"/><path class="b" d="M479.162 141.5h-42.324a4.838 4.838 0 0 1-4.838-4.838V94.338a4.838 4.838 0 0 1 4.838-4.838h42.324A4.838 4.838 0 0 1 484 94.338v42.324a4.838 4.838 0 0 1-4.838 4.838z"/><path class="c" d="M433.183 91.2A4.8 4.8 0 0 0 432 94.338v42.324a4.838 4.838 0 0 0 4.838 4.838h42.324a4.8 4.8 0 0 0 3.137-1.183z"/><path class="f" d="M339.162 153.5h-42.324a4.838 4.838 0 0 1-4.838-4.838v-42.324a4.838 4.838 0 0 1 4.838-4.838h42.324a4.838 4.838 0 0 1 4.838 4.838v42.324a4.838 4.838 0 0 1-4.838 4.838z"/><path class="g" d="M293.183 103.2a4.8 4.8 0 0 0-1.183 3.138v42.324a4.838 4.838 0 0 0 4.838 4.838h42.324a4.8 4.8 0 0 0 3.137-1.183z"/><path class="d" d="M185.841 83.5h-30.714A1.127 1.127 0 0 0 154 84.627v59.746a1.127 1.127 0 0 0 1.127 1.127h46.746a1.127 1.127 0 0 0 1.127-1.124l.13-43.549z"/><path class="e" d="M203 100.438L186.03 83.5H186v15.873a1.127 1.127 0 0 0 1.127 1.127H203zM161 108.5h34v3h-34zM161 116.5h34v3h-34zM161 124.5h34v3h-34z"/><path class="d" d="M395.841 83.5h-30.714A1.127 1.127 0 0 0 364 84.627v59.746a1.127 1.127 0 0 0 1.127 1.127h46.746a1.127 1.127 0 0 0 1.127-1.124l.13-43.549z"/><path class="e" d="M413 100.438L396.03 83.5H396v15.873a1.127 1.127 0 0 0 1.127 1.127H413zM371 108.5h34v3h-34zM371 116.5h34v3h-34zM371 124.5h34v3h-34z"/><path class="d" d="M224.944 202.859c0 9.575 7.736 18.641 17.8 18.641h129.087c14.537 0 27.25-10.493 29.264-24.89a28.571 28.571 0 0 0-35.528-31.953c.008-.315.024-.628.024-.945a36.906 36.906 0 0 0-73.221-6.583 28.518 28.518 0 0 0-48.494 28.5 17.584 17.584 0 0 0-1.875-.1 17.1 17.1 0 0 0-17.057 17.33z"/><path class="f" d="M255.841 3.5h-30.714A1.127 1.127 0 0 0 224 4.627v59.746a1.127 1.127 0 0 0 1.127 1.127h46.746A1.127 1.127 0 0 0 273 64.376l.13-43.549z"/><path class="g" d="M273 20.438L256.03 3.5H256v15.873a1.127 1.127 0 0 0 1.127 1.127H273z"/><path class="h" d="M231 28.5h34v3h-34zM231 36.5h34v3h-34zM231 44.5h34v3h-34z"/><path class="b" d="M395.841 3.5h-30.714A1.127 1.127 0 0 0 364 4.627v59.746a1.127 1.127 0 0 0 1.127 1.127h46.746A1.127 1.127 0 0 0 413 64.376l.13-43.549z"/><path class="c" d="M413 20.438L396.03 3.5H396v15.873a1.127 1.127 0 0 0 1.127 1.127H413z"/><path class="i" d="M371 28.5h34v3h-34zM371 36.5h34v3h-34zM371 44.5h34v3h-34z"/><path class="j" d="M266.153 147.269a28.525 28.525 0 0 0-22.277 38.359 17.584 17.584 0 0 0-1.875-.1 17.1 17.1 0 0 0-17.057 17.336c0 9.575 7.736 18.641 17.8 18.641h97.638z"/><path class="k" d="M347.708 235.71L322 264.11V212.5h-9v51.628l-25.717-28.418-6.592 6.304 36.8 40.647 36.809-40.647-6.592-6.304zM313 194.5h9v9h-9zM313 176.5h9v9h-9zM313 157.5h9v9h-9z"/></svg>