<svg xmlns="http://www.w3.org/2000/svg" viewBox="0 0 636 300"><title>swimlane-embed-github-snippet</title><path d="M387.723,256.435H81.521a7.6,7.6,0,0,1-7.6-7.6V56.669a7.6,7.6,0,0,1,7.6-7.6h306.2a7.6,7.6,0,0,1,7.6,7.6V248.933A7.579,7.579,0,0,1,387.723,256.435Z" fill="#87bfea"/><path d="M133.038,49.066H81.421a7.58,7.58,0,0,0-7.5,7.6V248.933a7.58,7.58,0,0,0,7.5,7.6h51.617Z" fill="#69afe5"/><path d="M387.723,49.066H271.184l95.232,207.369h21.207a7.6,7.6,0,0,0,7.6-7.6V56.669A7.453,7.453,0,0,0,387.723,49.066Z" fill="#a4ceef"/><path d="M395.326,68.473v-11.8a7.6,7.6,0,0,0-7.6-7.6H81.521a7.6,7.6,0,0,0-7.6,7.6v11.9H395.326Z" fill="#505050"/><path d="M395.226,67.973H73.918v4.9H395.226Z" fill="#737373"/><path d="M383.922,55.569h-7.8v7.6h7.8Z" fill="#737373"/><path d="M164.449,68.573l-5.5-12.3a1.753,1.753,0,0,0-1.5-1H89.924a1.861,1.861,0,0,0-1.5.9l-6.2,12.4Z" fill="#737373"/><path d="M395.926,175.108H266.383v57.019H395.926Z" fill="#669bd1"/><path d="M426.936,166.606H273.885v57.019H426.936Z" fill="#fec94e"/><path d="M351.411,188.913l-13.1-6.6v-.9l13.1-7.4v2.3l-9.8,5.4v.1l9.8,4.8Z" fill="#505050"/><path d="M397.226,206.719l-13.1,6.6v-2.3l9.8-4.8v-.1l-9.8-5.4v-2.3l13.1,7.4Z" fill="#505050"/><path d="M408.93,179.61H353.912v4H408.93Z" fill="#f0ae00"/><path d="M408.93,191.614H337.606v4H408.93Z" fill="#f0ae00"/><path d="M381.921,203.618H337.606v4h44.315Z" fill="#f0ae00"/><path d="M305.2,173.908a21.432,21.432,0,0,0-6.6,41.814c.6.1,1.3-.1,1.3-1.4v-3.6c-5.4.9-6.8-1-7.4-2.8a5.985,5.985,0,0,0-2.6-3.1c-.7-.4-.5-1.1.2-1.1a4.31,4.31,0,0,1,3.6,2.3c1.4,2.5,3.9,2.8,6.2,1.7a3.705,3.705,0,0,1,1.5-2.9c-6.3-.7-9.2-3.2-9.9-8.5-.5-3.8.7-6.1,2.2-7.7a7.188,7.188,0,0,1,.2-5.7s2.5-.3,5.8,2.3a21.155,21.155,0,0,1,10.9-.1c3.3-2.5,5.7-2.2,5.7-2.2a7.723,7.723,0,0,1,.2,5.7c2.2,2.5,2.4,5.5,2.1,8.2-.4,3.8-3,7.2-9.7,8a3.879,3.879,0,0,1,1.5,3.5v6.2c0,.9.5,1.4,1.3,1.2a21.432,21.432,0,0,0-6.5-41.814Z" fill="#191717"/><path d="M147.643,119.39l7.8,56.519L307,154.9l-7.8-56.519Z" fill="#669bd1"/><path d="M481.554,199.617l3-12.7a3.762,3.762,0,0,0-.1-2.1l-4.3-11.6a4,4,0,0,0-1.5-1.9l-8.8-5.4-.5.7a5.708,5.708,0,0,0-1.2,3.5l-7.6-9.8a4.741,4.741,0,0,0-1-1l-11.2-7.9-1.1,1.5a5.957,5.957,0,0,0-1.1,3.9,5.808,5.808,0,0,0,1.7,3.7l6.5,6.7,6.4,10.4,1.5,9.2-4.4-10.9a4.624,4.624,0,0,0-1.3-1.8l-14.305-13a5.677,5.677,0,0,0-1.8-1.2l-16.806-6.8-1,2.6a5.788,5.788,0,0,0-.1,4.1,6.612,6.612,0,0,0,2.4,3.3l9.4,5.4,11.5,12.7,1.6,5.2-9.9-7.8a3.981,3.981,0,0,0-2.1-.9,4.458,4.458,0,0,0-2.3.3l-6.3,2.1v11.3h6.6l8.9,7.9,3.1,16.406a9.925,9.925,0,0,1-.1,4.2,9.1,9.1,0,0,1-1.9,3.8,10.879,10.879,0,0,1-3.3,2.7,9.886,9.886,0,0,1-4.1,1l-2.7.1-13.5-7.7-2-6.1-.3-.9a43.162,43.162,0,0,1-8.6,10.9l1.2,4.7,19.407,19.207,52.718,26.108,18.606-26.309Z" fill="#72594b"/><path d="M474.052,189.113l-2-13.1,1.8,1.6,1.1,9.1Z" fill="#665042"/><path d="M484.155,255.335a31.033,31.033,0,0,0-15.7-6.6l-25.108-3.1a12.21,12.21,0,0,1-5-2.4l-12.5-10.2c-4.4-4.5-5.8-12.9-5.8-12.9l-2-6.1c-.1-.3-.5-1.2-.3-.9-2.6-5.9-10.2-8.3-13.605-5.2l6.2,20.807,19.406,19.207,52.718,26.108,9-12.8Z" fill="#665042"/><path d="M407.029,217.623s4.3-1.1,3-5c-2-6-5.8-4.4-5.8-4.4Z" fill="#8e7a6f"/><path d="M237.073,102.184c-.4-3.5-.8-6.1-.8-6.1s2.2-15.3,4.5-20.007c5.6-2.8,11.2,1,12,3.9s5.7-2.5,5.7-2.5L241.374,38.563l-14.4,5.8a6.92,6.92,0,0,0-3.1,2.5l-10.1,15.405a2.456,2.456,0,0,0-.5,1.5,3.65,3.65,0,0,0,.2,1.5l3.5,8.2-.1.4a4.216,4.216,0,0,0-.3,1.9l1.1,17.006a3.929,3.929,0,0,0,.4,1.8l6.5,14.7,2.3-1.1a2.182,2.182,0,0,0,.8-.5l2,8.5,2.5-.7a7.629,7.629,0,0,0,2.8-1.5,8.176,8.176,0,0,0,2-2.5A57.4,57.4,0,0,0,237.073,102.184Z" fill="#ce9c5f"/><path d="M234.572,83.478l-1.8,12a6.079,6.079,0,0,0,.1,1.9,153.719,153.719,0,0,1,2.2,16.606,8.749,8.749,0,0,0,1.3-1.5,6.5,6.5,0,0,0,.4-1.3l.3-2.1a38.645,38.645,0,0,0-.1-6.8c-.4-3.5-.8-6.1-.8-6.1s2.2-15.305,4.5-20.007c.2-.1-2.4,1-2.4,1C236.072,78.376,234.872,80.877,234.572,83.478Z" fill="#ba8c57"/><path d="M229.57,116.389l-1.4-6.1h.7a3.778,3.778,0,0,1,2.3.8,4.067,4.067,0,0,1,1.4,2l.6,2.2Z" fill="#8e7a6f"/><path d="M224.469,109.487l-2.5-5.6.5-.2a2.664,2.664,0,0,1,1.2-.3,5.029,5.029,0,0,1,1.2.2,3.328,3.328,0,0,1,1,.6,3.592,3.592,0,0,1,.7,1l1.1,2.9Z" fill="#8e7a6f"/><path d="M285.489,16.255a47.466,47.466,0,0,0,6.4,26.009,23.038,23.038,0,0,1-7.6,5.7,21.284,21.284,0,0,0-10,10.9l-10.9,28.409a5.11,5.11,0,0,1-.9,1.6l-8.9,10.2a5.63,5.63,0,0,1-2.6,1.7l-14.7,4.2a7.25,7.25,0,0,0-.4,2.5v3.8l18.607-4.5,17.1-17.106,19.107-37.913a10.464,10.464,0,0,1,4.6-4.7l13.005-10.4Z" fill="#665042"/><path d="M216.966,73.575l7.8-17.606-10.5,11.3Z" fill="#ba8c57"/><path d="M225.069,82.377l5.2-11.9-5.6,5.3a9.909,9.909,0,0,0-2.7,4.5,10.2,10.2,0,0,0-.1,5.2l3,12.2Z" fill="#ba8c57"/><path d="M557.68,299.95l-55.919-53.218a55.016,55.016,0,0,0-28.009,24.508l-1.6,2.8,18.206,25.909Z" fill="#c2c2c2"/><path d="M563.482,299.95l-61.721-53.218a54.779,54.779,0,0,0-15.405,9.2l43.815,44.015Z" fill="#d2d2d2"/><path d="M302.6,88.379,151.044,109.386l7.8,56.519L310.4,144.9Z" fill="#fff"/><path d="M230.871,120.89l-13.9-4.8-.1-.9,12-9.1.3,2.3-9,6.7v.1l10.4,3.4Z" fill="#505050"/><path d="M278.687,132.094l-12.1,8.3-.3-2.3,9.1-6.1v-.1l-10.5-4-.3-2.3,14,5.5Z" fill="#505050"/><path d="M286.589,103.685l-54.518,7.6.5,4,54.518-7.6Z" fill="#c2c2c2"/><path d="M288.19,115.589l-70.724,9.8.5,4,70.724-9.8Z" fill="#c2c2c2"/><path d="M263.081,131.194l-43.914,6.1.5,4,43.915-6.1Z" fill="#c2c2c2"/><path d="M183.055,112.287a21.368,21.368,0,0,0-.7,42.215c.6.1,1.3-.3,1.1-1.6-.1-1-.3-2.2-.5-3.6-5.3,1.6-6.9,0-7.7-1.8a5.664,5.664,0,0,0-3-2.7c-.7-.3-.6-1,.1-1.1a3.89,3.89,0,0,1,3.8,1.8c1.8,2.3,4.3,2.2,6.4.8a3.856,3.856,0,0,1,1-3.1c-6.3.1-9.5-1.9-10.9-7.1-1-3.7-.1-6.2,1.1-7.9a7.449,7.449,0,0,1-.6-5.7s2.4-.7,6.1,1.5a20.567,20.567,0,0,1,10.8-1.6c2.9-3,5.4-3,5.4-3a7.392,7.392,0,0,1,1,5.6,10.439,10.439,0,0,1,3.3,7.9c.1,3.8-2,7.5-8.5,9.3a3.933,3.933,0,0,1,2,3.2c.3,2.5.7,5.2.9,6.2.1.9.7,1.3,1.4,1a21.478,21.478,0,0,0,11.9-22.208A21.881,21.881,0,0,0,183.055,112.287Z" fill="#191717"/><path d="M292.091,6.152,273.485,24.958a11.515,11.515,0,0,1-3.7,2.5L236.973,40.464c4.4,11.2,15,37.612,15.9,39.613a20.634,20.634,0,0,1,1.1,6.5l-6.8,11.7-.1-.1-5.5,1.6a8.144,8.144,0,0,0-4.4,3.1,7.854,7.854,0,0,0-1.5,5.1l.2,3.4,3.9-.9,8.8-2.1,6-1.4L271.684,89.88l19.107-37.913c1-2,2.6-3,4.6-4.7L326.5,22.057Z" fill="#ce9c5f"/><path d="M254.479,106.886l-18.607,4.5-.2-3.4s6.9-7,14.205-6.8a6.6,6.6,0,0,1,2.7,1.2,8.355,8.355,0,0,1,2,2.2Z" fill="#ba8c57"/><path d="M235.872,111.387l-.4-4.2,3.5-.9a1.708,1.708,0,0,1,1,0,3.556,3.556,0,0,1,.9.4,2.336,2.336,0,0,1,.7.7,1.689,1.689,0,0,1,.3,1l.2,1.5Z" fill="#d8b094"/><path d="M283.088,11.454l.9,2.4A52.175,52.175,0,0,0,305.8,39.763L354.312,1.751l-61.821.1Z" fill="#fff"/><path d="M311.2,24.858c2.8-2.6,4.9-4.2,4.9-4.2L293.191,3.051l-3.4,1.6s-2.9,11.2,9.6,22.407l-4.5,4.1a53.041,53.041,0,0,0,10.8,8.6l11.7-9.1Z" fill="#e6e6e6"/><path d="M288.69,1.751l1.1,2.8A60.612,60.612,0,0,0,315.4,34.962L363.515-.05H290.691Z" fill="#c2c2c2"/></svg>