<svg width="400" height="300" viewBox="0 0 400 300" version="1.1" xmlns="http://www.w3.org/2000/svg" xmlns:xlink="http://www.w3.org/1999/xlink">
<title>error-code-generic</title>
<desc>Created using Figma</desc>
<g id="Canvas" transform="translate(-30218 -939)">
<clipPath id="clip-0" clip-rule="evenodd">
<path d="M 30218 939L 30618 939L 30618 1239L 30218 1239L 30218 939Z" fill="#FFFFFF"/>
</clipPath>
<g id="error-code-generic" clip-path="url(#clip-0)">
<path d="M 30218 939L 30618 939L 30618 1239L 30218 1239L 30218 939Z" fill="#FFFFFF"/>
<g id="Vector">
<use xlink:href="#path0_fill" transform="translate(30359.9 1227.64)" fill="#C8C8C8"/>
</g>
<g id="Vector">
<use xlink:href="#path1_fill" transform="translate(30319 1071.76)" fill="#6132E0"/>
</g>
<g id="Vector">
<use xlink:href="#path2_fill" transform="translate(30338.3 1076.31)" fill="#232323"/>
</g>
<g id="Vector">
<use xlink:href="#path3_fill" transform="matrix(0.978685 0.205367 -0.205367 0.978685 30350.6 1070.39)" fill="#6132E0"/>
</g>
<g id="Vector">
<use xlink:href="#path4_fill" transform="translate(30481.1 1085.91)" fill="#6132E0"/>
</g>
<g id="Vector">
<use xlink:href="#path5_fill" transform="translate(30481.1 1085.91)" fill="#232323"/>
</g>
<g id="Vector">
<use xlink:href="#path6_fill" transform="translate(30438 1077.55)" fill="#6132E0"/>
</g>
<g id="Vector">
<use xlink:href="#path7_fill" transform="translate(30389.1 1118.93)" fill="#6132E0"/>
</g>
<g id="Vector">
<use xlink:href="#path8_fill" transform="translate(30389.1 1113.16)" fill="#232323"/>
</g>
<g id="Vector">
<use xlink:href="#path9_fill" transform="translate(30384.4 1038.05)" fill="#6132E0"/>
</g>
<g id="Vector">
<use xlink:href="#path10_fill" transform="translate(30395.6 1051.76)" fill="#FFFFFF"/>
</g>
<g id="Vector">
<use xlink:href="#path11_fill" transform="translate(30425.2 1051.76)" fill="#FFFFFF"/>
</g>
<g id="Vector">
<use xlink:href="#path12_fill" transform="translate(30390.5 1162.99)" fill="#6132E0"/>
</g>
<g id="Vector">
<use xlink:href="#path13_fill" transform="translate(30390.5 1162.99)" fill="#232323"/>
</g>
<g id="Vector">
<use xlink:href="#path14_fill" transform="translate(30431 1162.99)" fill="#6132E0"/>
</g>
<g id="Vector">
<use xlink:href="#path15_fill" transform="translate(30431 1162.99)" fill="#232323"/>
</g>
<g id="Vector">
<use xlink:href="#path16_fill" transform="translate(30380.8 1218.58)" fill="#6132E0"/>
</g>
<g id="Vector">
<use xlink:href="#path17_fill" transform="translate(30380.8 1228.34)" fill="#232323"/>
</g>
<g id="Vector">
<use xlink:href="#path18_fill" transform="translate(30421.2 1218.58)" fill="#6132E0"/>
</g>
<g id="Vector">
<use xlink:href="#path19_fill" transform="translate(30421.2 1228.34)" fill="#232323"/>
</g>
<g id="Vector">
<use xlink:href="#path20_fill" transform="translate(30320.1 1092.89)" fill="#6132E0"/>
</g>
<g id="Vector">
<use xlink:href="#path21_fill" transform="translate(30320.1 1092.89)" fill="#232323"/>
</g>
<g id="Vector">
<use xlink:href="#path22_fill" transform="translate(30311 1064.01)" fill="#6132E0"/>
</g>
<g id="Vector">
<use xlink:href="#path23_fill" transform="translate(30315.2 1109.8)" fill="#6132E0"/>
</g>
<g id="Vector">
<use xlink:href="#path24_fill" transform="translate(30505.8 1113.81)" fill="#6132E0"/>
</g>
<g id="Vector">
<use xlink:href="#path25_fill" transform="translate(30506.4 1113.81)" fill="#232323"/>
</g>
<g id="Vector">
<use xlink:href="#path26_fill" transform="translate(30502.1 1084.63)" fill="#6132E0"/>
</g>
<g id="Vector">
<use xlink:href="#path27_fill" transform="translate(30496.3 1129.99)" fill="#6132E0"/>
</g>
<g id="Vector">
<use xlink:href="#path28_fill" transform="translate(30387.5 1033.6)" fill="#232323"/>
</g>
<g id="Vector">
<use xlink:href="#path29_fill" transform="translate(30430.2 1033.6)" fill="#232323"/>
</g>
<g id="Vector">
<use xlink:href="#path30_fill" transform="translate(30367.1 1066.57)" fill="#4833C8"/>
<use xlink:href="#path30_fill" transform="translate(30367.1 1066.57)" fill="#FFFFFF" fill-opacity="0.5"/>
</g>
<g id="Vector">
<use xlink:href="#path31_fill" transform="translate(30397 1072.47)" fill="#232323"/>
</g>
<g id="Vector">
<use xlink:href="#path32_fill" transform="translate(30405.4 1079.88)" fill="#FFFFFF"/>
</g>
<g id="Vector">
<use xlink:href="#path33_fill" transform="translate(30378.4 1143.48)" fill="#4833C8"/>
<use xlink:href="#path33_fill" transform="translate(30378.4 1143.48)" fill="#FFFFFF" fill-opacity="0.5"/>
</g>
<g id="Vector">
<use xlink:href="#path34_fill" transform="translate(30438.5 940)" fill="#B4A2FC"/>
</g>
<g id="Vector">
<use xlink:href="#path35_fill" transform="translate(30504.6 980.23)" fill="#FFFFFF"/>
</g>
</g>
</g>
<defs>
<path id="path0_fill" d="M 6.17783 12.3541L 101.919 12.3541C 103.503 12.3852 105.041 11.8273 106.237 10.7885C 107.433 9.74975 108.201 8.30404 108.391 6.73157C 108.468 5.87714 108.366 5.01607 108.092 4.20323C 107.817 3.3904 107.377 2.64362 106.798 2.01047C 106.219 1.37731 105.515 0.871686 104.729 0.525754C 103.944 0.179823 103.096 0.00117287 102.238 0.00122846L 6.49697 0.00122846C 4.91331 -0.0299202 3.37447 0.527981 2.1787 1.56677C 0.982924 2.60556 0.215368 4.05128 0.0247921 5.62374C -0.0519905 6.47818 0.0500359 7.33922 0.324368 8.15205C 0.598701 8.96488 1.03933 9.71166 1.61817 10.3448C 2.19702 10.978 2.9014 11.4836 3.68644 11.8296C 4.47148 12.1755 5.31996 12.3541 6.17783 12.3541Z"/>
<path id="path1_fill" fill-rule="evenodd" d="M 30.8892 6.78318L 28.8199 15.5706L 1.35699e-07 8.78744L 2.06728 -1.73694e-06L 30.8892 6.78318Z"/>
<path id="path2_fill" fill-rule="evenodd" d="M 11.558 2.23395L 9.48873 11.0214L -8.52963e-07 8.78745L 2.06728 -3.84609e-06L 11.558 2.23395Z"/>
<path id="path3_fill" d="M 40.6544 0L 5.42126 0C 2.42718 0 0 2.42718 0 5.42126L 0 21.681C 0 24.6751 2.42718 27.1023 5.42126 27.1023L 40.6544 27.1023C 43.6485 27.1023 46.0757 24.6751 46.0757 21.681L 46.0757 5.42126C 46.0757 2.42718 43.6485 0 40.6544 0Z"/>
<path id="path4_fill" fill-rule="evenodd" d="M 2.72948e-06 8.63499L 2.62831 -3.59795e-06L 30.9542 8.6228L 28.3239 17.2598L 2.72948e-06 8.63499Z"/>
<path id="path5_fill" fill-rule="evenodd" d="M 2.72948e-06 8.63499L 2.62831 -3.59795e-06L 11.9544 2.83971L 9.32611 11.4747L 2.72948e-06 8.63499Z"/>
<path id="path6_fill" d="M 40.6544 0L 5.42126 0C 2.42718 0 -3.22575e-06 2.42718 -3.22575e-06 5.42126L -3.22575e-06 21.681C -3.22575e-06 24.6751 2.42718 27.1023 5.42126 27.1023L 40.6544 27.1023C 43.6485 27.1023 46.0756 24.6751 46.0756 21.681L 46.0756 5.42126C 46.0756 2.42718 43.6485 0 40.6544 0Z"/>
<path id="path7_fill" fill-rule="evenodd" d="M -2.66745e-06 1.98508e-06L 50.9135 1.98508e-06L 50.9135 27.8035L -2.66745e-06 27.8035L -2.66745e-06 1.98508e-06Z"/>
<path id="path8_fill" fill-rule="evenodd" d="M -2.66745e-06 -3.84609e-06L 50.9135 -3.84609e-06L 50.9135 5.77699L -2.66745e-06 5.77699L -2.66745e-06 -3.84609e-06Z"/>
<path id="path9_fill" fill-rule="evenodd" d="M 30.1513 0.000420403C 26.2012 -0.0204628 22.2858 0.739169 18.6301 2.2357C 14.9743 3.73222 11.6502 5.93616 8.84858 8.72096C 6.04698 11.5058 3.82307 14.8166 2.30457 18.4632C 0.786067 22.1099 0.00289089 26.0206 1.17864e-06 29.9708L 60.3006 29.9708C 60.2977 26.0208 59.5146 22.1103 57.9962 18.4637C 56.4779 14.8172 54.2541 11.5065 51.4528 8.72168C 48.6514 5.93691 45.3275 3.73293 41.672 2.23628C 38.0164 0.739638 34.1013 -0.0201942 30.1513 0.000420403Z"/>
<path id="path10_fill" fill-rule="evenodd" d="M 0.00412003 4.34189C -0.0328157 3.51268 0.17934 2.69139 0.61326 1.98381C 1.04718 1.27622 1.68299 0.71474 2.43882 0.371676C 3.19464 0.0286114 4.03586 -0.0803262 4.85414 0.058894C 5.67242 0.198114 6.43029 0.579112 7.03013 1.15283C 7.62998 1.72654 8.04433 2.4667 8.21984 3.27797C 8.39534 4.08924 8.32396 4.93447 8.01488 5.70482C 7.7058 6.47517 7.17317 7.13534 6.4856 7.60033C 5.79803 8.06531 4.987 8.31381 4.15696 8.31382C 3.07971 8.33727 2.0372 7.9321 1.25851 7.18733C 0.479821 6.44256 0.0286477 5.41913 0.00412003 4.34189Z"/>
<path id="path11_fill" fill-rule="evenodd" d="M 0.00411612 4.34189C -0.0328196 3.51268 0.179336 2.69139 0.613256 1.98381C 1.04718 1.27622 1.68299 0.71474 2.43881 0.371676C 3.19464 0.0286114 4.03586 -0.0803262 4.85414 0.058894C 5.67242 0.198114 6.43028 0.579112 7.03013 1.15283C 7.62997 1.72654 8.04434 2.4667 8.21984 3.27797C 8.39535 4.08924 8.32396 4.93447 8.01487 5.70482C 7.70579 6.47517 7.17317 7.13534 6.4856 7.60033C 5.79803 8.06531 4.98701 8.31381 4.15697 8.31382C 3.07971 8.33727 2.0372 7.9321 1.25851 7.18733C 0.479825 6.44256 0.0286438 5.41913 0.00411612 4.34189Z"/>
<path id="path12_fill" fill-rule="evenodd" d="M 2.10915e-06 -3.97016e-06L 9.02731 -3.97016e-06L 9.02731 58.1358L 2.10915e-06 58.1358L 2.10915e-06 -3.97016e-06Z"/>
<path id="path13_fill" fill-rule="evenodd" d="M 2.10915e-06 -3.97016e-06L 9.02731 -3.97016e-06L 9.02731 10.8324L 2.10915e-06 10.8324L 2.10915e-06 -3.97016e-06Z"/>
<path id="path14_fill" fill-rule="evenodd" d="M 3.03965e-06 -3.97016e-06L 9.02731 -3.97016e-06L 9.02731 58.1358L 3.03965e-06 58.1358L 3.03965e-06 -3.97016e-06Z"/>
<path id="path15_fill" fill-rule="evenodd" d="M 3.03965e-06 -3.97016e-06L 9.02731 -3.97016e-06L 9.02731 10.8324L 3.03965e-06 10.8324L 3.03965e-06 -3.97016e-06Z"/>
<path id="path16_fill" fill-rule="evenodd" d="M 29.2468 9.75706C 28.8489 7.12319 27.5476 4.70957 25.5659 2.92958C 23.5842 1.14958 21.0452 0.113941 18.3839 6.20337e-06L 10.8629 6.20337e-06C 5.01269 6.20337e-06 -8.06438e-07 4.87854 -8.06438e-07 9.75706L 29.2468 9.75706Z"/>
<path id="path17_fill" fill-rule="evenodd" d="M -8.06438e-07 1.24067e-05L 29.2468 1.24067e-05L 29.2468 5.77901L -8.06438e-07 5.77901L -8.06438e-07 1.24067e-05Z"/>
<path id="path18_fill" fill-rule="evenodd" d="M 28.887 9.75706C 28.887 4.87854 23.9353 6.20337e-06 18.1583 6.20337e-06L 10.7287 6.20337e-06C 8.08571 0.12778 5.56957 1.17132 3.61197 2.95163C 1.65437 4.73194 0.377351 7.13804 1.24067e-07 9.75706L 28.887 9.75706Z"/>
<path id="path19_fill" fill-rule="evenodd" d="M 1.24067e-07 1.24067e-05L 28.887 1.24067e-05L 28.887 5.77901L 1.24067e-07 5.77901L 1.24067e-07 1.24067e-05Z"/>
<path id="path20_fill" fill-rule="evenodd" d="M 1.62838e-07 1.27248L 8.93787 -5.21083e-06L 11.991 21.4493L 3.05518 22.7217L 1.62838e-07 1.27248Z"/>
<path id="path21_fill" fill-rule="evenodd" d="M 1.62838e-07 1.27248L 8.93787 -5.21083e-06L 10.4136 10.3669L 1.47575 11.6394L 1.62838e-07 1.27248Z"/>
<path id="path22_fill" fill-rule="evenodd" d="M 22.1946 22.5344C 22.293 24.0254 21.846 25.5013 20.9369 26.6872C 20.0277 27.873 18.7185 28.688 17.2531 28.9801L 9.06124 30.1469C 7.57456 30.2714 6.09323 29.8521 4.8924 28.9668C 3.69158 28.0815 2.85289 26.7904 2.53215 25.3334L 0.0136092 7.63657C -0.0855904 6.14637 0.360054 4.6709 1.26759 3.48478C 2.17513 2.29866 3.48274 1.4827 4.94702 1.18878L 13.1389 0.0220015C 14.6266 -0.104042 16.1094 0.314576 17.3115 1.2C 18.5136 2.08542 19.3532 3.37736 19.6741 4.83548L 22.1926 22.5303L 22.1946 22.5344Z"/>
<path id="path23_fill" fill-rule="evenodd" d="M 8.98309 18.8963C 7.63477 17.6958 6.80236 16.0208 6.6597 14.2211C 6.52897 12.5141 7.02118 10.8175 8.0452 9.44557C 9.06922 8.07361 10.5557 7.11916 12.2293 6.75896C 14.0431 6.45832 15.9033 6.85789 17.4336 7.87682C 18.9638 8.89575 20.0499 10.4579 20.472 12.2473C 20.731 13.1966 20.704 14.2012 20.3945 15.1352C 20.085 16.0692 19.5066 16.8911 18.732 17.4978L 24.3057 21.7055C 25.9782 19.5568 26.9589 16.951 27.1181 14.2329C 27.2774 11.5147 26.6076 8.8122 25.1976 6.48292C 23.7875 4.15364 21.7035 2.30733 19.2212 1.18822C 16.739 0.0691224 13.9755 -0.270029 11.2963 0.215629C 9.57623 0.444121 7.91922 1.01442 6.42284 1.89294C 4.92646 2.77147 3.62095 3.94046 2.58317 5.33113C 1.54538 6.72179 0.79628 8.30601 0.379969 9.99054C -0.0363417 11.6751 -0.111453 13.4259 0.159058 15.1399C 0.257743 16.9324 0.72068 18.686 1.51961 20.2936C 2.31854 21.9012 3.43671 23.3292 4.80585 24.4904L 8.98309 18.8943L 8.98309 18.8963Z"/>
<path id="path24_fill" fill-rule="evenodd" d="M 1.11596 -5.58303e-06L 10.1311 0.465495L 9.01715 22.1018L -6.32743e-06 21.6383L 1.11596 -5.58303e-06Z"/>
<path id="path25_fill" fill-rule="evenodd" d="M 0.538672 -5.58303e-06L 9.55378 0.465495L 9.01511 10.9218L 2.23321e-06 10.4583L 0.538672 -5.58303e-06Z"/>
<path id="path26_fill" fill-rule="evenodd" d="M -7.07184e-06 23.236C 0.0204852 24.7156 0.578233 26.1372 1.56929 27.2359C 2.56035 28.3347 3.9171 29.0357 5.3867 29.2082L 13.5013 29.6269C 14.9809 29.6064 16.4025 29.0486 17.5013 28.0576C 18.6 27.0665 19.301 25.7098 19.4734 24.2402L 20.3922 6.39086C 20.3718 4.91132 19.814 3.4897 18.8229 2.39093C 17.8319 1.29217 16.4751 0.591232 15.0055 0.418744L 6.89093 8.68471e-07C 5.412 0.0203683 3.99088 0.577536 2.8922 1.56776C 1.79353 2.55799 1.09219 3.91378 0.918789 5.38265L -7.07184e-06 23.232L -7.07184e-06 23.236Z"/>
<path id="path27_fill" fill-rule="evenodd" d="M 18.5468 19.0381C 19.4317 18.0871 20.0363 16.91 20.2939 15.6369C 20.5515 14.3638 20.452 13.0442 20.0065 11.8241C 19.5609 10.6039 18.7866 9.53079 17.7692 8.72326C 16.7518 7.91572 15.5309 7.40525 14.2415 7.2483C 13.3767 7.19566 12.51 7.31695 11.6928 7.60498C 10.8757 7.893 10.1245 8.34192 9.48381 8.92521C 8.8431 9.5085 8.32584 10.2143 7.96258 11.0009C 7.59932 11.7876 7.39744 12.639 7.36889 13.505C 7.16526 15.2961 7.65875 17.0969 8.74706 18.534L 3.59209 23.2275C 1.74625 21.1869 0.547489 18.6445 0.147607 15.9221C -0.252275 13.1997 0.164702 10.4199 1.34576 7.93473C 2.52681 5.44952 4.41881 3.3707 6.78214 1.96151C 9.14547 0.55232 11.8738 -0.123835 14.6217 0.0186602C 17.3696 0.161155 20.0134 1.1159 22.2183 2.76198C 24.4232 4.40806 26.09 6.67142 27.0076 9.26546C 27.9253 11.8595 28.0525 14.6675 27.3732 17.3339C 26.6939 20.0003 25.2386 22.4051 23.1916 24.2439L 18.5468 19.0462L 18.5468 19.0381Z"/>
<path id="path28_fill" d="M 11.0966 3.65076L 3.25236 9.56801C 2.82107 9.89147 2.27895 10.0304 1.74526 9.95413C 1.21157 9.87789 0.730018 9.59276 0.406551 9.16147C 0.0830849 8.73018 -0.0558035 8.18805 0.0204382 7.65436C 0.09668 7.12067 0.381808 6.63913 0.813097 6.31566L 8.65736 0.406541C 8.87092 0.246376 9.11392 0.129845 9.37251 0.0635953C 9.6311 -0.00265431 9.90021 -0.0173235 10.1645 0.0204276C 10.4287 0.0581787 10.683 0.147609 10.9127 0.283613C 11.1423 0.419618 11.343 0.599534 11.5032 0.813086C 11.6633 1.02664 11.7799 1.26964 11.8461 1.52823C 11.9124 1.78682 11.927 2.05593 11.8893 2.32019C 11.8515 2.58444 11.7621 2.83868 11.6261 3.06837C 11.4901 3.29807 11.3102 3.49873 11.0966 3.6589L 11.0966 3.65076Z"/>
<path id="path29_fill" d="M 11.0966 6.3238L 3.25236 0.406549C 2.82107 0.0830825 2.27895 -0.055806 1.74526 0.0204358C 1.21157 0.0966776 0.730018 0.381806 0.406551 0.813094C 0.083085 1.24438 -0.0558035 1.7865 0.0204383 2.32019C 0.0966801 2.85389 0.381808 3.33544 0.813097 3.65891L 8.65736 9.57006C 8.87092 9.73022 9.11392 9.84675 9.37251 9.913C 9.6311 9.97925 9.90021 9.99392 10.1645 9.95617C 10.4287 9.91842 10.6829 9.82899 10.9126 9.69298C 11.1423 9.55698 11.343 9.37706 11.5032 9.16351C 11.6633 8.94996 11.7799 8.70695 11.8461 8.44836C 11.9124 8.18977 11.927 7.92067 11.8893 7.65641C 11.8515 7.39215 11.7621 7.13792 11.6261 6.90822C 11.4901 6.67853 11.3102 6.47786 11.0966 6.3177L 11.0966 6.3238Z"/>
<path id="path30_fill" fill-rule="evenodd" d="M 89.2567 0.00203477C 90.1964 0.00203477 91.0976 0.375318 91.762 1.03977C 92.4265 1.70421 92.7997 2.6054 92.7997 3.54507L 92.7997 43.7685C 92.7976 44.7068 92.4233 45.6059 91.7591 46.2686C 91.0949 46.9312 90.195 47.3034 89.2567 47.3034L 3.54303 47.3034C 2.60477 47.3034 1.70481 46.9312 1.0406 46.2686C 0.376386 45.6059 0.00215352 44.7068 3.10168e-07 43.7685L 3.10168e-07 3.52067C 3.10168e-07 2.58693 0.370929 1.69143 1.03118 1.03118C 1.69144 0.370927 2.58693 3.16372e-06 3.52067 3.16372e-06L 89.2567 0.00203477Z"/>
<path id="path31_fill" d="M 16.9386 33.8773C 26.2936 33.8773 33.8773 26.2936 33.8773 16.9387C 33.8773 7.58369 26.2936 0 16.9386 0C 7.58369 0 3.78405e-06 7.58369 3.78405e-06 16.9387C 3.78405e-06 26.2936 7.58369 33.8773 16.9386 33.8773Z"/>
<path id="path32_fill" d="M 17.3594 1.43713L 15.9223 7.19591e-06L 8.67971 7.24258L 1.43713 7.19591e-06L 3.59795e-06 1.43713L 7.24258 8.67971L 3.59795e-06 15.9223L 1.43713 17.3594L 8.67971 10.1168L 15.9223 17.3594L 17.3594 15.9223L 10.1168 8.67971L 17.3594 1.43713Z"/>
<path id="path33_fill" fill-rule="evenodd" d="M 5.75333 20.2224C 4.2712 20.1363 2.8708 19.5147 1.81264 18.4734C 0.754469 17.432 0.110579 16.0418 0.000733534 14.5612L 0.000733534 5.66402C -0.0114932 4.90944 0.12964 4.16025 0.415584 3.46185C 0.701527 2.76345 1.12632 2.13038 1.66421 1.60104C 2.20211 1.0717 2.84189 0.65712 3.54479 0.382407C 4.24768 0.107694 4.99905 -0.0214184 5.75333 0.00290059L 65.743 0.00290059C 66.4972 -0.0214184 67.2486 0.107694 67.9515 0.382407C 68.6544 0.65712 69.2942 1.0717 69.8321 1.60104C 70.3699 2.13038 70.7948 2.76345 71.0807 3.46185C 71.3666 4.16025 71.5078 4.90944 71.4955 5.66402L 71.4955 14.5612C 71.3857 16.0418 70.7418 17.432 69.6836 18.4734C 68.6255 19.5147 67.2251 20.1363 65.743 20.2224L 5.75333 20.2224Z"/>
<path id="path34_fill" d="M 73.0478 146.096C 113.391 146.096 146.096 113.391 146.096 73.0478C 146.096 32.7046 113.391 0 73.0478 0C 32.7046 0 2.48135e-06 32.7046 2.48135e-06 73.0478C 2.48135e-06 113.391 32.7046 146.096 73.0478 146.096Z"/>
<path id="path35_fill" d="M 6.57434 66.3845C 4.85272 66.4246 3.1829 65.7942 1.91738 64.6262C 1.30766 64.0961 0.82046 63.4398 0.489484 62.7027C 0.158507 61.9656 -0.00833612 61.1655 0.000518891 60.3575C -0.0105632 59.5258 0.154505 58.7011 0.484878 57.9377C 0.81525 57.1743 1.30345 56.4895 1.91738 55.9282C 3.17052 54.7548 4.82303 54.1019 6.53978 54.1019C 8.25654 54.1019 9.90904 54.7548 11.1622 55.9282C 11.7826 56.4856 12.2768 57.1692 12.6115 57.9331C 12.9463 58.697 13.114 59.5236 13.1034 60.3575C 13.1113 61.1677 12.9416 61.9697 12.6062 62.7072C 12.2709 63.4447 11.778 64.0997 11.1622 64.6262C 9.91617 65.7809 8.27291 66.4107 6.57434 66.3845ZM 11.6419 7.44404e-07L 10.7739 46.2037L 2.10033 46.2037L 0.91322 7.44404e-07L 11.6419 7.44404e-07Z"/>
</defs>
</svg>
