<svg xmlns="http://www.w3.org/2000/svg" xmlns:xlink="http://www.w3.org/1999/xlink" viewBox="0 0 636 300"><defs><clipPath id="a"><rect x="411.5" y="199.833" width="133.167" height="31.5" fill="none"/></clipPath></defs><title>swimlane-functional-programming-machine</title><rect x="200" y="93" width="214" height="142" rx="3.727" ry="3.727" fill="#737373"/><g clip-path="url(#a)"><path d="M404.894,223H535.255c3.374,0,6.3-2.357,6.3-5.5,0-2.946-2.924-5.5-6.3-5.5H404.894c-3.6,0-6.3,2.554-6.3,5.5C398.6,220.643,401.294,223,404.894,223Z" fill="#b2b2b2" fill-rule="evenodd"/></g><path d="M116,155v33.194A12.805,12.805,0,0,0,128.806,201H249" fill="none" stroke="#737373" stroke-miterlimit="8" stroke-width="12"/><path d="M548.75,277H97.671a3.616,3.616,0,0,1-3.612-2.848A3.5,3.5,0,0,1,97.5,270H548.579a3.616,3.616,0,0,1,3.612,2.848A3.5,3.5,0,0,1,548.75,277Z" fill="#b2b2b2"/><path d="M531.837,272.585a3.925,3.925,0,0,0-1.837-2.13V223h-4v47.479a3.9,3.9,0,0,0-1.837,2.105L523.689,274h8.62Z" fill="#737373"/><path d="M208.837,272.585a3.925,3.925,0,0,0-1.837-2.13V223h-4v47.479a3.9,3.9,0,0,0-1.837,2.105L200.689,274h8.62Z" fill="#737373"/><path d="M405.837,272.585a3.925,3.925,0,0,0-1.837-2.13V223h-4v47.479a3.9,3.9,0,0,0-1.837,2.105L397.689,274h8.62Z" fill="#737373"/><path d="M401.826,222.307A6.524,6.524,0,0,0,408.183,227H536.174a6.507,6.507,0,0,0,0-13H407.789A6.448,6.448,0,0,0,401.826,222.307Z" fill="#737373" fill-rule="evenodd"/><circle cx="534.61" cy="220.434" r="2.869" fill="#001129"/><circle cx="521.64" cy="220.434" r="2.869" fill="#001129"/><circle cx="508.669" cy="220.434" r="2.869" fill="#001129"/><circle cx="495.699" cy="220.434" r="2.869" fill="#001129"/><circle cx="482.729" cy="220.434" r="2.869" fill="#001129"/><circle cx="469.759" cy="220.434" r="2.869" fill="#001129"/><circle cx="456.789" cy="220.434" r="2.869" fill="#001129"/><circle cx="443.819" cy="220.434" r="2.869" fill="#001129"/><circle cx="430.849" cy="220.434" r="2.869" fill="#001129"/><circle cx="417.879" cy="220.434" r="2.869" fill="#001129"/><path d="M205,234H409a0,0,0,0,1,0,0v4.737A3.263,3.263,0,0,1,405.737,242H205a0,0,0,0,1,0,0v-8A0,0,0,0,1,205,234Z" fill="#737373"/><rect x="195" y="93" width="214" height="142" rx="3.727" ry="3.727" fill="#939393"/><circle cx="319.887" cy="137.376" r="3.298" fill="#737373"/><circle cx="284.486" cy="137.376" r="3.298" fill="#737373"/><circle cx="302.187" cy="137.376" r="3.298" fill="#737373"/><path d="M85.091,126.552C100.545,147.125,107.217,154.7,109.684,157h12.981l22.714-30.448C145.753,126.227,84.717,126.227,85.091,126.552Z" fill="#b2b2b2" fill-rule="evenodd"/><ellipse cx="115.326" cy="126.279" rx="30.326" ry="4.196" fill="#737373"/><rect x="94.553" y="31.469" width="24.257" height="23.202" rx="3.837" ry="3.837" transform="translate(59.336 -61.784) rotate(43.714)" fill="#106ebe"/><path d="M106.223,52.626,104.1,50.6l1.555-6.009a5.323,5.323,0,0,1,.268-.712l-.03-.029q-.224.1-.707.293l-6,1.759-2.136-2.042,8.63-2.023,1.859-8.382,2.167,2.071-1.517,5.446q-.156.535-.348,1.035l.022.022q.665-.263,1.084-.389l5.419-1.659,2,1.908-8.351,2.147Z" fill="#fff"/><rect x="121.269" y="66.29" width="23.555" height="22.531" rx="3.514" ry="3.514" transform="translate(30.253 -37.117) rotate(17.888)" fill="#69afe5"/><path d="M136.688,86.1l-2.713-.875-1.182-5.91a5.273,5.273,0,0,1-.067-.736l-.038-.013c-.1.121-.267.307-.495.556l-4.5,4.075-2.732-.882L131.65,76.9l-1.921-8.113,2.769.894.979,5.4c.06.356.1.706.133,1.052l.029.009c.313-.34.574-.607.783-.8l4.034-3.742,2.551.823-6.391,5.409Z"/><rect x="104.341" y="102.833" width="23.823" height="22.788" rx="3.263" ry="3.263" transform="translate(-42.333 76.637) rotate(-31.162)" fill="#ffcb40"/><path d="M125.584,117.11l-2.467,1.492-5.3-3.014a5.335,5.335,0,0,1-.607-.437l-.035.021q.037.237.1.746l.13,6.139-2.484,1.5.294-8.7-7.471-3.91,2.519-1.524,4.775,2.834q.468.285.892.6l.026-.016q-.078-.7-.091-1.127l-.184-5.563,2.32-1.4-.1,8.468Z"/><rect x="447.607" y="185" width="27.81" height="27.208" rx="3.727" ry="3.727" fill="#c48c00"/><rect x="443.505" y="185" width="27.81" height="27.208" rx="3.941" ry="3.941" fill="#ffcb40"/><path d="M464.63,190.641l-5.619,10.917v6.229h-2.846v-6.169l-5.476-10.977h3.24L457.3,198q.06.132.359.992h.035a6.842,6.842,0,0,1,.395-.992l3.527-7.354Z"/><rect x="492.607" y="185" width="27.81" height="27.208" rx="3.568" ry="3.568" fill="#c48c00"/><rect x="488.505" y="185" width="27.81" height="27.208" rx="3.324" ry="3.324" fill="#ffcb40"/><path d="M509.63,190.641l-5.619,10.917v6.229h-2.846v-6.169l-5.476-10.977h3.24L502.3,198q.06.132.359.992h.035a6.842,6.842,0,0,1,.395-.992l3.527-7.354Z"/><rect x="420.568" y="185" width="9.849" height="27.208" rx="3.562" ry="3.562" fill="#c48c00"/><path d="M411.6,185h11.2a3.514,3.514,0,0,1,3.514,3.514v19.823a3.872,3.872,0,0,1-3.872,3.872H411.6a0,0,0,0,1,0,0V185A0,0,0,0,1,411.6,185Z" fill="#ffcb40"/><path d="M347,109h-5v31h5Z" fill="#737373"/><path d="M359,109h-5v31h5Z" fill="#737373"/><path d="M371,109h-5v31h5Z" fill="#737373"/><path d="M382,109h-5v31h5Z" fill="#737373"/><path d="M360,121h-8v3h8Z" fill="#ffcb40"/><path d="M383,114h-8v3h8Z" fill="#ffcb40"/><path d="M348,131h-8v3h8Z" fill="#ffcb40"/><path d="M372,128h-8v3h8Z" fill="#ffcb40"/><path d="M227,109h-5v31h5Z" fill="#737373"/><path d="M239,109h-5v31h5Z" fill="#737373"/><path d="M251,109h-5v31h5Z" fill="#737373"/><path d="M262,109h-5v31h5Z" fill="#737373"/><path d="M240,121h-8v3h8Z" fill="#ffcb40"/><path d="M263,114h-8v3h8Z" fill="#ffcb40"/><path d="M228,131h-8v3h8Z" fill="#ffcb40"/><path d="M252,128h-8v3h8Z" fill="#ffcb40"/><path d="M323.948,128a21.234,21.234,0,0,0-21.2-21,20.976,20.976,0,0,0-20.9,21Z" fill="#fff"/><path d="M319.548,140.136a3.3,3.3,0,1,0-3.3-3.3A3.3,3.3,0,0,0,319.548,140.136Z" fill="#ffcb40"/><path d="M284.148,140.136a3.3,3.3,0,1,0-3.3-3.3A3.3,3.3,0,0,0,284.148,140.136Z" fill="#ffcb40"/><path d="M301.848,140.136a3.3,3.3,0,1,0-3.3-3.3A3.3,3.3,0,0,0,301.848,140.136Z" fill="#ffcb40"/><path d="M261.8,214H212.2a4.212,4.212,0,0,1-4.2-4.2V156.2a4.212,4.212,0,0,1,4.2-4.2h49.6a4.212,4.212,0,0,1,4.2,4.2v53.6A4.212,4.212,0,0,1,261.8,214Z" fill="#737373"/><path d="M260.235,211H213.766c-2.063,0-2.766-.747-2.766-2.861V157.861c0-2.114.7-2.861,2.766-2.861h46.469c2.062,0,2.765.747,2.765,2.861l-.25,50.639C262.75,210.615,262.3,211,260.235,211Z" fill="#b2b2b2"/><path d="M392.8,214H343.2a4.212,4.212,0,0,1-4.2-4.2V156.2a4.212,4.212,0,0,1,4.2-4.2h49.6a4.212,4.212,0,0,1,4.2,4.2v53.6A4.212,4.212,0,0,1,392.8,214Z" fill="#737373"/><path d="M244.369,164.293c-.393-.237-.865-.553-1.259-.79-.157-.08-.236-.159-.393-.159a.077.077,0,0,1-.079-.079c-.157-.079-.236-.079-.393-.158a.077.077,0,0,1-.079-.079c-.393-.158-.787-.316-1.259-.474-.079,0-.157-.08-.236-.08s-.236-.079-.315-.079-.157-.079-.315-.079c-.078,0-.157-.079-.314-.079s-.236-.079-.394-.079a.289.289,0,0,1-.236-.079c-.157,0-.393-.079-.551-.079H236.4a14.9,14.9,0,0,0-5.337.947,7.788,7.788,0,0,0-1.177.552,1.962,1.962,0,0,0-.55.315c-.392.237-.706.4-1.1.631a9,9,0,0,0-1.021.789,11.744,11.744,0,0,0-2.511,15.54c.078.157.235.315.314.473a8.4,8.4,0,0,0,1.1,1.262l.235.237.079.078A26.126,26.126,0,0,1,231.93,193h8.82a26.2,26.2,0,0,1,5.507-10.2,11.818,11.818,0,0,0-1.888-18.5Z" fill="#fff880"/><path d="M244.369,164.293c-.393-.237-.865-.553-1.259-.79-.157-.08-.236-.159-.393-.159a.077.077,0,0,1-.079-.079c-.157-.079-.236-.079-.393-.158a.077.077,0,0,1-.079-.079c-.393-.158-.787-.316-1.259-.474-.079,0-.157-.08-.236-.08s-.236-.079-.315-.079-.157-.079-.315-.079c-.078,0-.157-.079-.314-.079s-.236-.079-.394-.079a.289.289,0,0,1-.236-.079c-.157,0-.393-.079-.551-.079H236.4a14.9,14.9,0,0,0-5.337.947,7.788,7.788,0,0,0-1.177.552,1.962,1.962,0,0,0-.55.315c-.392.237-.706.4-1.1.631a9,9,0,0,0-1.021.789,11.744,11.744,0,0,0-2.511,15.54c.078.157.235.315.314.473a8.4,8.4,0,0,0,1.1,1.262l.235.237.079.078A26.126,26.126,0,0,1,231.93,193h8.82a26.2,26.2,0,0,1,5.507-10.2,11.818,11.818,0,0,0-1.888-18.5Z" fill="#ffcb40"/><path d="M238.107,204h-3.365l-1.956-2h7.278Z" fill="#939393"/><path d="M241,193H231v9h10Z" fill="#939393"/><path d="M240,196h-9v2h9Z" fill="#505050"/><path d="M240,199h-9v2h9Z" fill="#505050"/><path d="M327.8,214H278.2a4.212,4.212,0,0,1-4.2-4.2V156.2a4.212,4.212,0,0,1,4.2-4.2h49.6a4.212,4.212,0,0,1,4.2,4.2v53.6A4.212,4.212,0,0,1,327.8,214Z" fill="#106ebe"/><path d="M416.617,190.641,413.09,198a6.842,6.842,0,0,0-.395.992h-.035q-.3-.861-.359-.992l-.8-1.747v11.539h2.511v-6.229l5.619-10.917Z"/><path d="M326.235,211H279.766c-2.063,0-2.766-.747-2.766-2.861V157.861c0-2.114.7-2.861,2.766-2.861h46.469c2.062,0,2.765.747,2.765,2.861l-.25,50.639C328.75,210.615,328.3,211,326.235,211Z" fill="#69afe5"/><path d="M291.129,172.544a3.293,3.293,0,0,0-1.671-.421q-2.642,0-2.641,2.984v2.172h3.719v2.844h-3.7v13.156h-3.625V180.123h-2.735v-2.844h2.735v-2.594a5.025,5.025,0,0,1,1.656-3.984,6.007,6.007,0,0,1,4.14-1.469,6.142,6.142,0,0,1,2.125.3Zm9.938,25.829H298a19.745,19.745,0,0,1-4.937-13.641A20.484,20.484,0,0,1,298,170.873h3.079a21.219,21.219,0,0,0-4.844,13.828A20.813,20.813,0,0,0,301.067,198.373Zm16.047-21.094-5.328,8.094,5.265,7.906h-4.2l-2.812-4.953q-.266-.453-.625-1.157h-.063q-.061.141-.656,1.157l-2.859,4.953h-4.188l5.438-7.844-5.157-8.156h4.219l2.766,5.2q.312.577.609,1.187h.047l3.578-6.39Zm3.687,21.094h-3.062a20.775,20.775,0,0,0,4.844-13.672,21.179,21.179,0,0,0-4.86-13.828h3.094a20.442,20.442,0,0,1,4.953,13.859A19.666,19.666,0,0,1,320.8,198.373Z" fill="#fff"/><path d="M314.644,113.185a.535.535,0,0,0-.713-.084l-9.1,6.52a2.749,2.749,0,0,0-.7-.141A2.869,2.869,0,1,0,307,122.349a2.707,2.707,0,0,0-.091-.449l7.713-8A.533.533,0,0,0,314.644,113.185Z" fill="#f0ae00"/><path d="M391.235,211H344.766c-2.063,0-2.766-.747-2.766-2.861V157.861c0-2.114.7-2.861,2.766-2.861h46.469c2.062,0,2.765.747,2.765,2.861l-.25,50.639C393.75,210.615,393.3,211,391.235,211Z" fill="#b2b2b2"/><path d="M377.012,180.551c.091.27.364.359.546.449h1.273a.791.791,0,0,0,.546-.628l.091-1.526a.892.892,0,0,1,.637-.9,5.042,5.042,0,0,1,.727-.449,1.042,1.042,0,0,1,1.092.179l1.455.9a.976.976,0,0,0,.728-.09l.909-.987c.091-.09.091-.449-.182-.808l-1.091-1.166a.851.851,0,0,1-.182-.988l-.091-.089a2.255,2.255,0,0,0,.364-.628c0-.359.273-.718.909-.808l1.456-.18a.856.856,0,0,0,.545-.628l-.091-1.346a.586.586,0,0,0-.545-.449l-1.546-.09a.924.924,0,0,1-.91-.628,4.931,4.931,0,0,1-.455-.718,1.354,1.354,0,0,1,.091-1.166l.91-1.167a.8.8,0,0,0-.091-.9l-1-.718a.684.684,0,0,0-.818,0l-1.092,1.166a1.079,1.079,0,0,1-1.091.269,6.146,6.146,0,0,1-.728-.269l-.091-.09c-.273-.089-.546-.179-.727-.807l-.182-1.616c-.091-.269-.364-.359-.546-.448l-1.364.089a.585.585,0,0,0-.455.539l-.182,1.615a.739.739,0,0,1-.546.808,5.225,5.225,0,0,1-.727.449.98.98,0,0,1-1.183-.09l-1.273-.987a.939.939,0,0,0-.819.179l-.909.987a1.008,1.008,0,0,0,.182.808l1.091,1.167c.364.359.455.718.182.987a7.414,7.414,0,0,1-.182.9c-.091.27-.182.539-.909.629l-1.547.269c-.272.09-.363.359-.454.538l.091,1.347c0,.179.272.448.454.538h1.638a.747.747,0,0,1,.818.538,8.281,8.281,0,0,1,.455.9.93.93,0,0,1,.091,1.077l-1,1.256a.906.906,0,0,0,.182.808l.91.808a.687.687,0,0,0,.818,0l1.092-1.167a1.079,1.079,0,0,1,1.091-.269,3.211,3.211,0,0,1,.819.359c.364,0,.546.179.727.807Zm3.654-8.388a3.185,3.185,0,0,1-2.926,3.311,2.991,2.991,0,0,1-3.356-2.887,3.046,3.046,0,0,1,2.84-3.226A3.111,3.111,0,0,1,380.666,172.163Z" fill="#737373"/><path d="M385.009,182.518c-.167.164-.5.164-.5.082-.084.082-.167-.165-.251-.412l-.25-.741c-.084-.247-.334-.247-.418-.082l-.584.576a.732.732,0,0,1-.5.33l-.333-.33-.585-.576c-.167-.165-.417-.165-.417.082l-.334.824a2.673,2.673,0,0,0-.25.494,4.578,4.578,0,0,1-.418-.247l-.751-.33c-.25-.164-.417,0-.417.247v1c.082.161-.082.4-.163.483a1,1,0,0,1-.408.08H377.7c-.244,0-.407.08-.244.322l.326.724a1.408,1.408,0,0,1,.081.483c-.081.08-.244.08-.489.161l-.734.321c-.163.081-.244.242-.081.4l.57.563a4.807,4.807,0,0,0,.327.483c-.082.08-.163.241-.327.4l-.57.563c-.163.081-.082.322.081.4l.734.321c.163.081.408.242.408.322a1.062,1.062,0,0,1-.082.4l-.407.724c-.082.161.081.322.244.4h.8c.251,0,.5,0,.585.082a.614.614,0,0,1,.083.412v.906c0,.247.167.329.334.247l.751-.412a.7.7,0,0,1,.584,0c.084-.082.084.165.251.412l.25.741a.246.246,0,0,0,.417.083l.585-.577a.73.73,0,0,1,.5-.329l.334.329.584.577c.167.164.418.164.418-.083l.334-.906a1.8,1.8,0,0,1,.333-.411,4.3,4.3,0,0,1,.418.247l.751.329c.25.165.417,0,.417-.247l-.083-.741a1.257,1.257,0,0,1,.167-.659H387.6c.25,0,.333-.165.25-.329l-.334-.742a1.436,1.436,0,0,1-.083-.494.9.9,0,0,1,.417-.247l.835-.247c.167-.082.25-.247.083-.412l-.584-.576a2.375,2.375,0,0,1-.334-.494c-.083-.083.167-.247.25-.33l.668-.576c.167-.082.084-.329-.083-.412l-.752-.329c-.166-.083-.5-.247-.417-.33-.083-.082,0-.247.084-.411l.417-.742c.083-.164-.084-.329-.334-.329h-.751a3.012,3.012,0,0,1-.584-.082c-.084-.083-.084-.247-.084-.494l.084-.824c0-.247-.167-.329-.334-.247Zm-1.848,4.249a1.1,1.1,0,0,1-.344,1.528,1.13,1.13,0,0,1-1.549-.34,1.056,1.056,0,0,1,.43-1.528A1.332,1.332,0,0,1,383.161,186.767Z" fill="#737373"/><path d="M370.684,179.434a.436.436,0,0,0,0-.679l-.947-1.019a.525.525,0,0,0-.688,0l-1.635,1.019c-.344-.255-.774-.51-1.119-.764l.517-1.953a.569.569,0,0,0-.258-.595l-1.2-.509a.519.519,0,0,0-.689.17l-1.118,1.7a3.648,3.648,0,0,0-1.291-.34l-.172-1.953a.492.492,0,0,0-.516-.509h-1.377c-.172-.085-.43.085-.517.34l-.43,2.037a3.5,3.5,0,0,0-1.291.255l-1.032-1.783c-.172-.17-.43-.34-.6-.255l-1.291.51a.527.527,0,0,0-.344.509l.43,1.953a8.724,8.724,0,0,0-1.119.764l-1.549-1.273a.525.525,0,0,0-.688,0l-.947.849c-.258.169-.258.509-.086.594l1.119,1.7a5.2,5.2,0,0,0-.861,1.189L349,180.708a.784.784,0,0,0-.688.339l-.516,1.189a.565.565,0,0,0,.258.679l1.635,1.1c-.172.424-.172.849-.344,1.273l-1.98.17a.54.54,0,0,0-.43.51l-.086,1.273a.64.64,0,0,0,.43.595l2.066.339a7.21,7.21,0,0,0,.258,1.444l-1.807,1.019a.436.436,0,0,0-.259.594l.431,1.189a.577.577,0,0,0,.6.339l1.979-.424a12.746,12.746,0,0,1,.689,1.1l-1.291,1.529a.926.926,0,0,0,0,.679l.946,1.019c.173.17.517.255.6.085l1.721-1.1c.344.255.774.509,1.118.764l-.516,1.953a.567.567,0,0,0,.258.594l1.291.595a.765.765,0,0,0,.688-.17l1.119-1.613c.43,0,.861.169,1.291.169l.086,2.038a.544.544,0,0,0,.516.425l1.377.17a.771.771,0,0,0,.516-.51l.346-1.961,1.461-.246.947,1.7a.506.506,0,0,0,.6.254l1.205-.424a.88.88,0,0,0,.43-.595l-.43-1.952a4.416,4.416,0,0,0,1.119-.764l1.548,1.273a.406.406,0,0,0,.689,0l.946-.849a.4.4,0,0,0,0-.679l-1.118-1.7a4.277,4.277,0,0,0,.86-1.189l1.979.679a.583.583,0,0,0,.6-.254l.6-1.274c.086-.17-.086-.509-.172-.679l-1.721-1.1a2.966,2.966,0,0,0,.258-1.189l2.065-.254c.258-.085.43-.255.43-.425l.087-1.443a.494.494,0,0,0-.517-.51l-1.979-.339a6.524,6.524,0,0,0-.172-1.359l1.721-1.019a.621.621,0,0,0,.344-.679l-.43-1.189a.446.446,0,0,0-.6-.254l-1.98.339a6.272,6.272,0,0,1-.6-1.019Zm-8.863,6.4a1.976,1.976,0,0,1-.172,2.972,2.076,2.076,0,0,1-2.926-.17,2,2,0,0,1,.086-2.887A2.1,2.1,0,0,1,361.821,185.832Z" fill="#ffcb40"/></svg>