<svg xmlns="http://www.w3.org/2000/svg" viewBox="0 0 636 300"><defs><style>.a{fill:#b2b2b2;}.ac,.b{fill:#bb9167;}.aa,.ag,.ah,.ai,.aj,.ak,.b,.c,.d,.x,.z{fill-rule:evenodd;}.ad,.c{fill:#a07657;}.d,.u{fill:#939393;}.e{fill:none;stroke:#939393;stroke-miterlimit:10;}.f{fill:#ce9c5f;}.g{fill:#bc874d;}.h{fill:#737373;}.i{fill:#2139b5;}.j{fill:#002050;}.k{fill:#001129;}.l{fill:#282828;}.m{fill:#004880;}.n{fill:#9c2801;}.o{fill:#e24f01;}.p{fill:#ddb694;}.q{fill:#080001;}.r{fill:#a0722a;}.s{fill:#a80000;}.t{fill:#e5ad70;}.v{fill:#c8c8c8;}.w{fill:#666;}.x{fill:#5c2d91;}.y{fill:#8867c8;}.z{fill:#f3f3f3;}.aa{fill:#008c74;}.ab{fill:#871a1a;}.ae{fill:#bd895e;}.af,.ah{fill:#fff;}.ag{fill:#32145a;}.ai{fill:#8e562e;}.aj{fill:#a56b44;}.ak{fill:#7c4622;}</style></defs><title>swimlane-feedback-survey</title><path class="a" d="M214.975,272.764h-98.95a4.07,4.07,0,0,1-3.98-3.958,3.981,3.981,0,0,1,3.98-3.958h98.95a3.9,3.9,0,0,1,3.98,3.958,3.98,3.98,0,0,1-3.98,3.958Z"/><path class="a" d="M519.975,272.764h-83.95a4.07,4.07,0,0,1-3.98-3.958,3.981,3.981,0,0,1,3.98-3.958h83.95a3.9,3.9,0,0,1,3.98,3.958,3.98,3.98,0,0,1-3.98,3.958Z"/><path class="b" d="M473.3,197.183l-.427-18.109-12.983-2.2V197.64h.029c-.019.2-.029.41-.029.615l9.328,57.816c.583,2.141,7.579,1.071,8.162-.535Z"/><path class="b" d="M494.365,197.074l-.49-14.75h-12.93V196.47h0a4.439,4.439,0,0,0-.064.713l-3.5,58.352c0,1.606,7.579,2.677,7.579.535l9.328-57.816a4.61,4.61,0,0,0,.059-1.181Z"/><path class="c" d="M459.918,197.7h13.419c-.012-.173-.024-.341-.036-.516l-.427-18.109-12.983-2.2V197.64h.029C459.92,197.659,459.92,197.679,459.918,197.7Z"/><path class="c" d="M494.354,197.7a4.672,4.672,0,0,0,0-.626h.015l-.49-14.75h-12.93V196.47a4.439,4.439,0,0,0-.064.713l-.031.516Z"/><polygon class="d" points="467.265 81.244 490.016 81.244 480.406 135.574 467.265 81.244"/><line class="e" x1="215.874" y1="50.593" x2="428.549" y2="50.593"/><path class="f" d="M183.079,74.054c1.029-6,1.624-13.57,1.624-13.57l-14.724-1.208c-.546,6-1.624,13.334-1.624,13.334-.245,2.889,1.445,6.024,6.987,6.505C180.647,79.6,182.835,76.707,183.079,74.054Z"/><path class="g" d="M183.7,69.94c.646-4.865,1.008-9.457,1.008-9.457l-14.724-1.208c-.175,1.928-.406,3.991-.638,5.907C174.222,70.251,178.428,71.064,183.7,69.94Z"/><path class="f" d="M132.646,135.588c-.482,7.011.482,9.182,3.371,14.724,1.951,3.134,3.64,3.616,3.64,1.69.718,3.608,4.579,4.84,4.1,2.163.482.963,1.926,2.171,3.134,1.445.963-.718-.245-2.408-.726-3.126,1.208,0,2.408-1.208.963-3.616a7.508,7.508,0,0,1-1.208-3.616c2.171,1.681,3.861,1.681,4.342.237-1.926-1.926-3.616-5.8-5.787-8.693l-1.445-1.445-1.69-15.687L131.2,125.45Z"/><path class="f" d="M216.582,60.949c3.652-4.042,1.272-11.813.246-17.706-.9-3.485-3.783-4.726-3.352-3.075-.856-3.281-3.686-4.686-4-2.011a1.473,1.473,0,0,0-2.021-1.34c-1.136.405-1.05,1.625-.714,2.422-1.137-.455-2.751.231-1.867,2.836C205.491,44.211,216.582,60.949,216.582,60.949Z"/><path class="f" d="M232.258,86.321c-3.486-9.293-16.384-35.728-16.384-35.728l-6.824,2.466s5.561,19.389,8.282,28.389L197.6,77.7l-3.189,16.246s22.966,3.74,30.474,3.747C230.438,97.7,234.936,93.459,232.258,86.321Z"/><path class="f" d="M150.015,157.56c1.69-1.951,4.1,1.69,5.069,2.408,2.163,1.208,3.852.482,4.1-.718-2.171-1.445-4.587-4.84-7.232-7.011Z"/><polygon class="h" points="215.874 29.644 215.63 29.644 215.874 29.889 215.874 29.644"/><path class="i" d="M193.437,151.275a11.53,11.53,0,0,1-11.81,11.109c-6.285,0-9.419-5.305-9.419-11.835.245-6.26,3.616-11.345,9.909-11.1A11.735,11.735,0,0,1,193.437,151.275Z"/><polygon class="j" points="190.303 200.256 171.008 199.774 172.208 150.549 193.437 151.275 190.303 200.256"/><path class="j" d="M150.5,174.937c0-1.69,8.431-4.84,19.058-4.84,10.358,0,18.814,3.151,18.814,4.84l3.861-34.044H150.5Z"/><path class="j" d="M146.889,151.03a11.443,11.443,0,0,0,10.839,12.317c6.293.237,13.516-4.579,14-10.864.482-6.268-6.26-11.835-12.79-12.072A11.342,11.342,0,0,0,146.889,151.03Z"/><polygon class="j" points="145.918 200.256 164.984 201.488 171.726 152.483 146.889 151.03 145.918 200.256"/><polygon class="k" points="160.16 262.057 148.089 261.334 148.815 247.816 159.924 248.542 160.16 262.057"/><path class="l" d="M160.642,268.564H150.26l-.482-1.446a88.275,88.275,0,0,1-14.243,1.687c-2.889,0-6.987-.242-8.913-1.206-.245,0-.726-.722-.726-1.2.482-4.338,17.132-6.025,21.474-11.106h.237c1.208,1.2,2.653,3.374,5.305,3.374,2.408,0,5.3-2.169,6.521-3.133C160.642,256.735,160.887,268.323,160.642,268.564Z"/><path class="j" d="M164.984,201.488a9.693,9.693,0,0,0-9.182-10.145,9.471,9.471,0,0,0-9.884,9.158,9.547,9.547,0,1,0,19.067.988Z"/><polygon class="j" points="164.984 201.488 145.918 200.5 143.991 257.94 161.368 260.129 164.984 201.488"/><polygon class="k" points="171.244 260.611 183.316 260.852 183.798 247.579 172.452 247.098 171.244 260.611"/><path class="l" d="M170.281,268.564l10.366.242.5-1.446a88.049,88.049,0,0,0,14.226,1.928c2.644,0,6.742,0,8.693-.964a1.627,1.627,0,0,0,.963-1.446c-.237-4.1-17.132-6.025-21.23-11.107h-.482c-1.2.964-2.408,3.133-5.322,3.133-2.408,0-5.06-2.41-6.268-3.374C170.281,256.735,170.045,268.323,170.281,268.564Z"/><path class="j" d="M171.008,200.019a9.673,9.673,0,0,1,9.9-9.4,9.472,9.472,0,0,1,9.158,9.884,9.129,9.129,0,0,1-9.664,9.174A9.621,9.621,0,0,1,171.008,200.019Z"/><polygon class="j" points="171.008 200.019 190.066 200.5 187.658 257.94 170.045 258.663 171.008 200.019"/><polygon class="k" points="146.644 159.005 168.355 160.939 171.244 148.622 170.526 160.939 192.474 163.102 192.474 164.547 170.763 163.828 169.081 160.939 167.873 163.828 146.644 165.028 146.644 159.005"/><path class="m" d="M174.379,129.319c0,.49-.718.971-1.2.971a1.092,1.092,0,1,1,.237-2.171A1.588,1.588,0,0,1,174.379,129.319Z"/><path class="m" d="M173.179,143.325c-.245.718-.726,1.2-1.208.963a1.036,1.036,0,0,1-.963-.963c0-.726.482-.971,1.2-.971A1.045,1.045,0,0,1,173.179,143.325Z"/><path class="n" d="M192.474,163.1l-46.85-3.709,4.895-61.187-7.036,2.447-7.954-16.214s16.826-9.178,20.8-11.014,10.387-2.005,10.387-2.005,4.42,6.3,9.009,6.3,9.118-5.753,9.118-5.753,9.1,1.1,12.933,2.809,15.5,5.44,15.5,5.44l-.966,18.912-13.461-1.53Z"/><path class="o" d="M183.569,71.627a8.406,8.406,0,0,1-7.3,4.269,8.893,8.893,0,0,1-7.815-4.91l-4.45.543A13.132,13.132,0,0,0,176.271,79.9a12.448,12.448,0,0,0,11.454-7.575Z"/><polygon class="o" points="209.051 98.99 211.439 79.453 215.672 81.081 213.718 99.424 209.051 98.99"/><path class="f" d="M132.42,134.049c-.757-4.776-5.21-31.369-5.97-36.253s-.068-8.374,4.45-10.746c4.342-2.279,7.489-3.69,7.489-3.69l6.078,15.3-4.125,1.737,2.822,39.184S133.831,142.95,132.42,134.049Z"/><polygon class="o" points="139.367 82.275 147.073 99.424 142.84 101.052 135.025 84.445 139.367 82.275"/><path class="p" d="M168.57,51.465c.168.171.336.171.336.335a17.066,17.066,0,0,1-.5-4.207v-.841l-.853.165V51.3C167.885,51.3,168.4,51.3,168.57,51.465Z"/><path class="p" d="M180.894,62.392a7.748,7.748,0,0,1-5.4-1.848c1.175-2.012,3.2-3.877,5.4-3.877,2.364,0,4.393,1.865,5.568,3.877A7.9,7.9,0,0,1,180.894,62.392Z"/><path class="f" d="M169.074,43.211l-1.021-.335c-.671,0-1.679,0-1.846.841a18.86,18.86,0,0,0,.335,7.066c-.168,1.188-.335,2.865,1.343,3.2l1.356.171Z"/><path class="f" d="M192.882,43.381l1.021-.171c.84,0,1.846,0,1.846.841a19.224,19.224,0,0,1-.335,7.078c.168,1.177.335,2.854-1.511,3.189l-1.189.171Z"/><path class="f" d="M194.407,38v15.48c0,5.389-2.7,10.1-7.26,12.285A14.465,14.465,0,0,1,181.23,67.1h-.839a12.944,12.944,0,0,1-5.064-1.006,13.428,13.428,0,0,1-7.778-12.62V38l23.99-6.731,1.679,2.865Z"/><path class="q" d="M176.166,45.576a.934.934,0,0,1-1.86.171.77.77,0,0,1,.839-1.006C175.663,44.558,176.166,44.9,176.166,45.576Z"/><path class="q" d="M185.622,45.576a1.028,1.028,0,0,0,2.028.335c0-.671-.335-1.006-1.021-1.171A.94.94,0,0,0,185.622,45.576Z"/><path class="r" d="M180.894,27.236c-6.924,0-13.177,3.7-13.345,10.762h0V50.277h1.357v-9.75c7.428,2.683,24.144-17,24.144-2.53V50.277h1.357V38C194.407,29.925,187.987,27.236,180.894,27.236Z"/><path class="r" d="M180.894,60.88a7.748,7.748,0,0,1-5.4-1.848c1.175-2.012,3.2-3.871,5.4-3.871,2.364,0,4.393,1.859,5.568,3.871A7.9,7.9,0,0,1,180.894,60.88Z"/><path class="r" d="M193.386,45.24v.841c0,4.366-1.343,8.408-4.728,10.756h0a10.491,10.491,0,0,0-7.6-3.525A10.656,10.656,0,0,0,173.3,57.02h0c-3.385-2.365-4.9-6.572-4.9-10.938V45.24l-.853.171v8.743a13.463,13.463,0,0,0,12.842,13.792h.839a13.428,13.428,0,0,0,13.177-13.792V45.411Z"/><path class="s" d="M180.894,59.538a13.8,13.8,0,0,1-3.385-.506c-.168,0-.336-.335-.336-.5,0-.335.336-.506.518-.335a13.855,13.855,0,0,0,6.406,0c.336-.171.686,0,.686.335,0,.165-.168.5-.35.5A13.852,13.852,0,0,1,180.894,59.538Z"/><path class="r" d="M170.585,44.558s.181,0,.35-.335c.168-.171.335-.341.671-.676a14.751,14.751,0,0,0,1.343-.836,8.223,8.223,0,0,1,.853-.171v-.165h1.007a5.87,5.87,0,0,1,1.692.335,13.021,13.021,0,0,1,1.357.5,2.619,2.619,0,0,1,1.175.841h0c.168,0,.168.171,0,.171h-.168s-.5-.171-1.175-.341a16.781,16.781,0,0,0-3.05-.5h-.335s-.336,0-.336.165a1,1,0,0,0-.671.171c-.517.165-.853.335-1.357.506a2.918,2.918,0,0,1-.839.335.5.5,0,0,1-.336.182h-.181Z"/><path class="r" d="M191.022,44.9a.589.589,0,0,0-.335-.165,3.142,3.142,0,0,0-.84-.517c-.5-.171-.853-.506-1.356-.676-.168,0-.336-.165-.671-.165a.585.585,0,0,0-.336-.171h-.336a15.324,15.324,0,0,0-2.881.335,7.5,7.5,0,0,1-1.343.171c-.168.165-.168,0-.168,0v-.171h0a2.859,2.859,0,0,1,1.343-.671,11.953,11.953,0,0,1,1.357-.5,5.67,5.67,0,0,1,1.692-.171h.84l.168.171h0a1.267,1.267,0,0,1,.839.335c.518.335.853.671,1.189.836.336.335.671.676.839.841a.648.648,0,0,0,.168.352V44.9Z"/><path class="t" d="M177.341,51.3h3.553V43.381c-.335,0-1.189,0-1.189,1.359a9.716,9.716,0,0,1-1.846,5.367A1.59,1.59,0,0,0,177.341,51.3Z"/><path class="g" d="M184.434,51.3c0,.335-.336.5-.671.671-.84.335-1.343.335-1.693.671a1.809,1.809,0,0,1-1.175.5h0a1.871,1.871,0,0,1-1.189-.5c-.336-.335-.84-.335-1.679-.671-.335-.171-.686-.335-.686-.671Z"/><rect class="u" x="195.931" y="41.282" width="25.902" height="15.311"/><rect class="v" x="195.931" y="41.282" width="25.902" height="7.233"/><path class="w" d="M195.931,58.093a.5.5,0,0,1-.5-.5V40.282a.5.5,0,1,1,1,0V57.593A.5.5,0,0,1,195.931,58.093Z"/><path class="w" d="M221.931,58.093a.5.5,0,0,1-.5-.5V40.282a.5.5,0,0,1,1,0V57.593A.5.5,0,0,1,221.931,58.093Z"/><path class="f" d="M217.112,57.2c-1.774,1.635-8.492-3.944-9.354-4.59-2.2-1.378-4.615-1.06-4.829.121,2.111,1.852,4.748,5.394,8.622,7.272Z"/><path class="b" d="M512.7,156.594c.436,6.375-.8,8.8-2.994,14.1-1.475,3.141-3.015,3.917-3.32,2.273-.689,3.345-3.768,4.9-3.32,2.273a2.728,2.728,0,0,1-3.08,1.552c-.546-.924.448-2.624.689-3.345-1.027.517-2.359-.61-1.124-3.03a4.9,4.9,0,0,0,1.2-3.6c-1.78,1.5-3.08,1.552-3.626.628,1.234-2.421,2.95-6.283,4.7-8.962.513-.259.754-.979,1.267-1.238l2.448-15.023,7.928,4.4Z"/><path class="b" d="M429.713,71.35c-1.085-6.653-.323-9.164,1.649-14.481,1.315-3.544,2.553-3.69,3.133-2.063.077-3.4,3.105-4.723,3.133-2.063.553-1.033,1.553-2.361,2.686-1.768a2.666,2.666,0,0,1-.419,2.955c.79.149,2.266,1.187,1.5,3.7a5.393,5.393,0,0,0-.867,3.25c1.448-1.623,3.028-1.324,3.714-.435-1.553,2.361-2.525,6.35-4.077,8.711a3.721,3.721,0,0,1-1.448,1.623l-.516,15.075-8.275-4.6Z"/><path class="x" d="M479.881,265.134c-2.5,2.307-1.874,2.307-3.123,4.615h-5c0-1.384-.625-2.769-4.373-1.846,0,0-2.055-1.246,5.362-3.5S479.881,265.134,479.881,265.134Z"/><path class="x" d="M487.377,267.9c-3.748-.923-4.373.461-3.748,1.846h-5.622c-.625-2.307-1.049-3.217-3.123-4.615,0,0-2.676-1.935,5.366-.894S487.377,267.9,487.377,267.9Z"/><rect class="y" x="479.881" y="156.682" width="22.488" height="36.92"/><rect class="y" x="457.394" y="156.682" width="22.488" height="36.92"/><polygon class="z" points="428.632 69.044 440.019 70.258 439.853 73.327 428.466 72.114 428.632 69.044"/><polygon class="z" points="515.276 149.808 503.254 147.369 502.354 150.329 514.62 153.452 515.276 149.808"/><path class="aa" d="M503.916,138.222c3.569,0,5.949,2.4,5.949,4.807v2.884a14.046,14.046,0,0,1-10.114,3.846c-8.329,0-14.873-5.288-14.873-11.537Z"/><rect class="u" x="425.13" y="43.621" width="25.902" height="15.311"/><rect class="v" x="425.13" y="43.621" width="25.902" height="7.233"/><path class="w" d="M425.13,60.432a.5.5,0,0,1-.5-.5V42.621a.5.5,0,1,1,1,0V59.932A.5.5,0,0,1,425.13,60.432Z"/><path class="w" d="M451.13,60.432a.5.5,0,0,1-.5-.5V42.621a.5.5,0,1,1,1,0V59.932A.5.5,0,0,1,451.13,60.432Z"/><path class="b" d="M443.992,61.023A67.369,67.369,0,0,1,447.75,53.2a1.868,1.868,0,0,0-3.25-.5c-2.116,1.986-5.111,7.588-5.111,7.588S443.2,63.113,443.992,61.023Z"/><path class="ab" d="M469.955,44.577c2.218,2.553,9.529,15.439,9.529,15.439a45.707,45.707,0,0,1-.052,9.054l12.249,1.692c3.146-3.359,6.036-8.308,7.736-15.623,4.433-19.081-10.918-25.927-16.1-27.132-7.259-1.686-14.78,1.047-15.937,6.025S466.505,40.606,469.955,44.577Z"/><path class="ac" d="M469.093,55.63l15.8-1.216,1.679,20.506h0l0,.016c.258,3.349-3.066,7.336-7.43,7.671s-8.117-3.107-8.374-6.456c0-.005,0-.011,0-.016h0Z"/><path class="ad" d="M470.447,71.661l-1.519-19.035,15.8-1.216.893,10.888C484.125,67.032,478.641,71.074,470.447,71.661Z"/><path class="ac" d="M468.938,36.252a57.2,57.2,0,0,0-3.172,8.4,10.092,10.092,0,0,1-4.453,5.134c-1.7.84-.226,1.915.707,2.132s1.148.7.859,1.948L461.313,60.6c-.458,1.97-.226,4.278,3.819,5.217C470.42,67.05,477.147,67,481.1,64.091a9.785,9.785,0,0,0,4.1-6.954s3.386.291,4.188-4c.9-4.819-4.875-5.833-7.774-4.648C478.058,47.334,470.15,42.327,468.938,36.252Z"/><circle cx="469.66" cy="48.103" r="1.171" transform="translate(316.518 494.693) rotate(-76.92)"/><path class="ad" d="M467.817,38.725l-.006-.021c.7-1.47,1.127-2.451,1.127-2.451,1.212,6.075,9.121,11.082,12.678,12.236C479.149,49.227,470.662,46.709,467.817,38.725Z"/><path class="ab" d="M485.2,57.136c-.433,6.446-5.2,12.012-5.2,12.012l11.023,1.522,1.033-11.741Z"/><path class="ae" d="M468.308,57.049a10.4,10.4,0,0,1-6.289.515l-.277,1.194a2.622,2.622,0,0,0,1.579.495A6.641,6.641,0,0,0,468.308,57.049Z"/><path class="af" d="M469.24,57.832a16.148,16.148,0,0,1-6.825-1.975l-.429,1.847c.03.011.051.022.083.034A13.264,13.264,0,0,0,469.24,57.832Z"/><path class="x" d="M470.385,77.167H459.892c-4.017,0-5.53,1.281-10.012,4.628-5.433,4.057-11.256,9.154-11.256,9.154l1.25-18.75L427.75,71.074s-2.385,25.053-2.755,30.589,5.051,11.241,11.737,7.616l16.965-9.2L460.2,124.96l-4.685,31.722h28.605Z"/><path class="x" d="M486.984,77.167H498c4.143,0,8.957,1.17,11.545,8.685l10.088,29.295c.531,1.542,1.148,3.16.475,7.152l-4.74,28.11-12.13-1.844,3.077-28.042-4.191-8.272L500,124.96l6.25,31.722H477.881Z"/><polygon class="ag" points="486.74 77.167 490.881 77.167 495.256 81.693 492.303 85.853 495.256 89.074 480.369 134.948 486.74 77.167"/><polygon class="ag" points="470.885 77.167 465.938 77.167 462.369 81.693 465.322 85.853 462.369 89.074 480.369 134.948 470.885 77.167"/><polygon class="ah" points="468.928 78.605 470.444 73.649 480.317 83.586 473.611 89.206 468.928 78.605"/><polygon class="ah" points="487.494 78.49 486.213 73.327 478.631 83.586 485.412 89.206 487.494 78.49"/><path class="ai" d="M505,135.915a4.875,4.875,0,0,1,4.862,4.928v22.449A4.875,4.875,0,0,1,505,168.22H489.876v-32.3Z"/><path class="aj" d="M505,135.915a4.773,4.773,0,0,1,4.862,4.72v3.147a11.636,11.636,0,0,1-8.1,3.671,11.819,11.819,0,0,1-11.885-11.537Z"/><polygon class="ai" points="462.094 76.958 489.876 150.922 487.232 150.798 459.369 76.958 462.094 76.958"/><path class="ak" d="M489.876,135.915a4.942,4.942,0,0,1,5,4.928v22.449a5,5,0,0,1-9.995,0V140.843A4.942,4.942,0,0,1,489.876,135.915Z"/><ellipse class="ac" cx="503.618" cy="146.299" rx="1.249" ry="1.154"/><path class="x" d="M479.308,258.212l.573,5.244c0,1.049-.573,1.573-2.867,2.1L464.4,268.7a36.8,36.8,0,0,1-8.028,1.049h-7.455c-4.014,0-2.294-2.1-1.72-2.1,2.867-1.049,9.749-2.622,14.91-5.244C466.692,260.31,479.308,258.212,479.308,258.212Z"/><path class="b" d="M478.007,253.6c0,1.648,1.249,3.3,1.874,4.4,0,1.648-21.238,6.593-21.238,6.593-1.851.322-2.929.413-1.81-.136,4.583-2.25,13.053-7.556,13.053-9.753Z"/><path class="x" d="M476.031,258.212l-1.147,5.244c0,1.049,1.147,1.573,2.867,2.1l12.616,3.147a48.179,48.179,0,0,0,8.6,1.049h6.881c4.014,0,2.867-2.1,1.72-2.1-2.867-1.049-9.175-2.622-14.91-5.244C488.074,260.31,476.031,258.212,476.031,258.212Z"/><path class="b" d="M476.758,253.6c0,1.648-1.249,3.3-1.249,4.4-.625,1.648,21.238,6.593,21.238,6.593,1.086.259,2.544.663,1.92.114-5-2.2-13.788-7.806-13.788-10Z"/></svg>