<svg xmlns="http://www.w3.org/2000/svg" xmlns:xlink="http://www.w3.org/1999/xlink" viewBox="0 0 636 300"><defs><clipPath id="a"><path d="M75,71.167V203.094H311.2c-3.885-1.157-10.371-3.548-11.325-6.844-1.375-4.75-.735-11.079-.735-11.079,4.735-.046,14.36-.171,14.36-.171l9.5,1.25,1.6,7.906s13.049,1.13,20.148.43v3.372c-.335.234-3.873,2.611-11,3.917-2.759.506-6.143.91-9.319,1.219H359.5V188.75l28.375,1.875c-.1,3.691-.625,10.233-.81,12.469H582.138V71.167Zm200.5,83.409h-34V147h34Z" fill="none"/></clipPath><clipPath id="b"><path d="M544.427,91.448h0a16.525,16.525,0,0,1,16.432,16.444V139.5h-32.7V107.892A16.374,16.374,0,0,1,544.427,91.448Z" fill="none"/></clipPath></defs><title>swimlane-monogame-game-development</title><path d="M323.164,53.5S310,53.5,310,66.679V213.341s0,13.159,13.164,13.159H582.855S596,226.5,596,213.341V66.679S596,53.5,582.855,53.5Z" fill="#737373"/><path d="M325.772,55.5S313,55.5,313,68.283V210.724s0,12.776,12.772,12.776H580.234S593,223.5,593,210.724V68.283S593,55.5,580.234,55.5Z"/><path d="M328.26,65.5s-5.26,0-5.26,5.282V209.04s0,5.46,5.26,5.46H576.727s5.273,0,5.273-5.46V70.782s0-5.282-5.273-5.282Z" fill="#f08400"/><rect x="404" y="274.5" width="97" height="2" fill="#737373"/><path d="M424.451,267.5a23.656,23.656,0,0,0-8.438,1.752l-6.38,2.737-4.13,1.759s-3.952,1.752,2.44,1.752H498.63s5.814,0,.559-2.34l-7.333-3.121a36.181,36.181,0,0,0-12.384-2.539Z" fill="#282828"/><path d="M467,267.5v-41h-9v11.082a5.5,5.5,0,0,1-11,0V226.5h-9v41Z" fill="#282828"/><polygon points="438 237.997 467 260.542 467 267.5 438 267.5 438 237.997" fill="#464646"/><rect x="542.472" y="76.237" width="3.898" height="21.93" fill="#ffa940"/><rect x="528.167" y="139" width="32.856" height="49" fill="#e24f01"/><line x1="473.157" y1="166.945" x2="488.568" y2="166.945" fill="none" stroke="#c740b6" stroke-miterlimit="10" stroke-width="2.362"/><line x1="473.157" y1="170.728" x2="488.568" y2="170.728" fill="none" stroke="#c740b6" stroke-miterlimit="10" stroke-width="2.362"/><line x1="473.157" y1="174.513" x2="488.568" y2="174.513" fill="none" stroke="#c740b6" stroke-miterlimit="10" stroke-width="2.362"/><line x1="473.157" y1="178.29" x2="488.568" y2="178.29" fill="none" stroke="#c740b6" stroke-miterlimit="10" stroke-width="2.362"/><line x1="473.157" y1="182.072" x2="488.568" y2="182.072" fill="none" stroke="#c740b6" stroke-miterlimit="10" stroke-width="2.362"/><line x1="473.157" y1="185.858" x2="488.568" y2="185.858" fill="none" stroke="#c740b6" stroke-miterlimit="10" stroke-width="2.362"/><path d="M381,214.5H577c5.329,0,5-5.515,5-5.515V187.5H381Z" fill="#bd3604"/><path d="M536.128,165.34A27.087,27.087,0,1,1,508.994,138.3,27.071,27.071,0,0,1,536.128,165.34Z" fill="#bd3604"/><path d="M467.314,218.572s-5.484-3.259-4.531-12.807c1.039-9.474,1.509-13.472-1.33-17.765,5.672,1.257,6.05,11.026,5.861,15.542s2.273,12.887,8.138,15.03Z" fill="#e24f01"/><path d="M449.464,188.75s6.238,5.677,6.427,13.568c.1,7.89,4.259,15.386,8.505,17.67h8.515s-7.847-2.757-9.931-10.411C460.809,201.845,455.514,191.041,449.464,188.75Z" fill="#e24f01"/><path d="M550.614,218.572s5.484-3.259,4.534-12.807c-1.039-9.474-1.512-13.472,1.33-17.765-5.676,1.257-6.053,11.026-5.864,15.542s-2.273,12.887-8.134,15.03Z" fill="#e24f01"/><path d="M568.467,188.75s-6.241,5.677-6.43,13.568c-.093,7.89-4.256,15.386-8.505,17.67H545.02s7.843-2.757,9.928-10.411C557.119,201.845,562.414,191.041,568.467,188.75Z" fill="#e24f01"/><rect x="472.683" y="167.132" width="72.714" height="48.506" fill="#bd3604"/><rect x="493.202" y="198" width="31.581" height="17.637" fill="#e24f01"/><rect x="504.246" y="201.932" width="9.588" height="13.706" fill="#bd3604"/><rect x="468.52" y="172.049" width="8.324" height="46.901" fill="#e24f01"/><rect x="541.234" y="172.049" width="8.324" height="46.901" fill="#e24f01"/><rect x="541.234" y="174.417" width="8.324" height="5.862" fill="#bd3604"/><rect x="468.52" y="174.417" width="8.324" height="5.862" fill="#bd3604"/><path d="M497.176,206.471c0-13.43,11.722-15.414,12.477-31.392h-.377c-1.7,7.559-14.091,15.789-19.2,26.852A17.2,17.2,0,0,0,492.92,221.7h9.266S497.176,220.271,497.176,206.471Z" fill="#f08400"/><path d="M496.987,174.7c1.794,17.206-8.7,21.179-8.7,33.28,0,12.006,7.185,13.714,7.185,13.714H486.49s-10.305-5.484-4.918-19.764C486.963,187.556,491.6,190.587,496.987,174.7Z" fill="#f08400"/><path d="M472.894,220.8l-1.176-1.618c.075-.055,7.527-5.559,7.527-11.953,0-6.669-1.922-9.213-8.568-11.345l.611-1.9c7.444,2.388,9.957,5.73,9.957,13.249C481.245,214.646,473.234,220.55,472.894,220.8Z" fill="#ffa940"/><path d="M470.071,220.872c-.119-.264-2.856-6.536,2.915-12.812,2.954-3.214,5.984-8.658,4.8-13.424-.8-3.207-3.423-5.621-7.807-7.175l.668-1.885c5.057,1.792,8.111,4.678,9.08,8.578,1.375,5.535-1.979,11.68-5.27,15.259-4.85,5.273-2.659,10.421-2.563,10.638Z" fill="#ffa940"/><path d="M470.314,187.367s-3.776,3.031-6.993-3.217c5.576-2.644,7.661-.189,7.661,1.9C471.171,187.367,470.314,187.367,470.314,187.367Z" fill="#ffa940"/><path d="M471.36,195.126s0-5.68-6.907-2.556C466.445,197.486,469.371,197.014,471.36,195.126Z" fill="#ffa940"/><path d="M521.944,174.7c-1.794,17.206,8.7,21.179,8.7,33.28,0,12.006-7.182,13.714-7.182,13.714h8.975s10.309-5.484,4.918-19.764C531.968,187.556,527.331,190.587,521.944,174.7Z" fill="#f08400"/><path d="M546.037,220.8c-.341-.248-8.352-6.152-8.352-13.571,0-7.519,2.512-10.862,9.954-13.249l.611,1.9c-6.645,2.131-8.565,4.676-8.565,11.345,0,6.411,7.452,11.9,7.527,11.952Z" fill="#ffa940"/><path d="M548.856,220.872l-1.822-.824.911.412-.913-.408c.1-.217,2.288-5.364-2.56-10.638-3.291-3.577-6.646-9.72-5.272-15.257.968-3.9,4.023-6.788,9.08-8.58l.668,1.885c-4.384,1.555-7.011,3.969-7.807,7.177-1.183,4.767,1.849,10.209,4.8,13.422C551.714,214.336,548.976,220.608,548.856,220.872Z" fill="#ffa940"/><path d="M548.614,187.367s3.779,3.031,7-3.217c-5.58-2.644-7.664-.189-7.664,1.9C547.757,187.367,548.614,187.367,548.614,187.367Z" fill="#ffa940"/><path d="M547.568,195.126s0-5.68,6.91-2.556C552.486,197.486,549.56,197.014,547.568,195.126Z" fill="#ffa940"/><path d="M528.85,201.932c-5.106-11.063-17.5-19.294-19.2-26.852h-.377c.755,15.978,12.48,17.962,12.48,31.392,0,13.8-5.014,15.224-5.014,15.224h9.269A17.2,17.2,0,0,0,528.85,201.932Z" fill="#f08400"/><path d="M499.536,155.974a5.686,5.686,0,0,1-5.672,5.676,5.608,5.608,0,0,1-5.58-5.676c0-3.028,5.58-7.946,5.58-7.946S499.536,152.946,499.536,155.974Z" fill="#f08400"/><path d="M529.8,155.974a5.626,5.626,0,1,1-11.252,0c0-3.028,5.672-7.946,5.672-7.946S529.8,152.946,529.8,155.974Z" fill="#f08400"/><path d="M473.061,153.512h-1.039c0,4.067-1.519,7.476-3.5,8.608h8.042C474.57,160.988,473.061,157.58,473.061,153.512Z" fill="#ffa940"/><path d="M545.774,153.512h-1.132c0,4.067-1.416,7.476-3.5,8.608h8.134C547.191,160.988,545.774,157.58,545.774,153.512Z" fill="#ffa940"/><path d="M293,180.5V29.55a6.05,6.05,0,0,0-6.05-6.05H73.05A6.05,6.05,0,0,0,67,29.55V180.5Z" fill="#231f20"/><rect x="75" y="33.5" width="210" height="135" fill="#8562ad"/><path d="M311.707,187.5H50.142c-8.719,0-10.142-9-10.142-9H321.849S318.468,187.5,311.707,187.5Z" fill="#231f20"/><rect x="179" y="28.5" width="4" height="3" fill="#505050"/><path d="M256,164.5V153.207a4.208,4.208,0,0,0-1.388-3.123l-49.077-44.327a4.208,4.208,0,0,0-5.694.048l-68.159,63.682c-2.791,2.607,14.223,2.062,18.041,2.062l102.067-2.839A4.208,4.208,0,0,0,256,164.5Z" fill="#5c2d91"/><polygon points="153 169.5 199.615 106.023 132.502 168.71 153 169.5" fill="#32145a"/><path d="M378.5,154c-10,0-9.233-1.932-10-5-1-4-4-4-6-4h-128c-2,0-5.187.313-6.187,4.313-.767,3.068.188,4.688-9.812,4.688-5,0-11.562,4.5-11.562,16.5S209.5,215,211.5,222s5,10,11,10,5,2,6,5,4,3,7,3c1.177,0,128.332,3.123,129.417,2.667a11.494,11.494,0,0,0,6.583-6.417c.917-2.333,1.25-1.5,4.25-1.75,5.979-.5,9.583-6.5,11.667-20.167,1.1-7.2,2.917-32.25,2.917-44.25S383.5,154,378.5,154Z" fill="none"/><path d="M377.5,157.5c-10,0-9.233-1.932-10-5a6.048,6.048,0,0,0-6-5h-128a6.048,6.048,0,0,0-6,5c-.767,3.068,0,5-10,5-5,0-11,4-11,16s2,45,4,52,5,10,11,10,5,2,6,5,4,4,7,4h126c3,0,6-1,7-4s0-5,6-5,9-3,11-10,4-40,4-52S382.5,157.5,377.5,157.5Z" fill="#505050"/><rect x="232" y="151.5" width="132" height="89" rx="1.883" ry="1.883" fill="#231f20"/><rect x="236" y="154.5" width="124" height="82" rx="0.672" ry="0.672" fill="#008272"/><circle cx="221.985" cy="203.642" r="6.142" fill="#3c3c3c"/><circle cx="223.692" cy="217.121" r="3.707" fill="#282828"/><circle cx="373.015" cy="203.642" r="6.142" fill="#3c3c3c"/><circle cx="371.308" cy="217.121" r="3.707" fill="#282828"/><circle cx="375.5" cy="177" r="9.899" fill="#282828"/><path d="M371.459,186.143v-1.824a3.279,3.279,0,0,1,3.278-3.279h1.525a3.279,3.279,0,0,1,3.278,3.279v1.824a9.951,9.951,0,0,1-8.081,0Z" fill="#3c3c3c"/><path d="M376.262,172.959h-1.525a3.279,3.279,0,0,1-3.278-3.279v-1.824a9.951,9.951,0,0,1,8.081,0v1.824A3.279,3.279,0,0,1,376.262,172.959Z" fill="#3c3c3c"/><path d="M379.541,177.762v-1.524a3.279,3.279,0,0,1,3.278-3.279h1.824a9.951,9.951,0,0,1,0,8.081h-1.824A3.279,3.279,0,0,1,379.541,177.762Z" fill="#3c3c3c"/><path d="M368.181,181.041h-1.824a9.951,9.951,0,0,1,0-8.081h1.824a3.279,3.279,0,0,1,3.278,3.279v1.524A3.279,3.279,0,0,1,368.181,181.041Z" fill="#3c3c3c"/><circle cx="219.5" cy="177" r="9.899" fill="#282828"/><path d="M215.459,186.143v-1.824a3.279,3.279,0,0,1,3.278-3.279h1.525a3.279,3.279,0,0,1,3.278,3.279v1.824a9.951,9.951,0,0,1-8.081,0Z" fill="#3c3c3c"/><path d="M220.262,172.959h-1.525a3.279,3.279,0,0,1-3.278-3.279v-1.824a9.951,9.951,0,0,1,8.081,0v1.824A3.279,3.279,0,0,1,220.262,172.959Z" fill="#3c3c3c"/><path d="M223.541,177.762v-1.524a3.279,3.279,0,0,1,3.278-3.279h1.824a9.951,9.951,0,0,1,0,8.081h-1.824A3.279,3.279,0,0,1,223.541,177.762Z" fill="#3c3c3c"/><path d="M212.181,181.041h-1.824a9.951,9.951,0,0,1,0-8.081h1.824a3.279,3.279,0,0,1,3.278,3.279v1.524A3.279,3.279,0,0,1,212.181,181.041Z" fill="#3c3c3c"/><circle cx="135.5" cy="60" r="16.028" fill="#9080cf"/><path d="M410.488,100.42H409a12.717,12.717,0,0,0,1.484-5.939,13.587,13.587,0,0,0-27.08-1.6,13.527,13.527,0,0,0-23.544,8.339,13.031,13.031,0,0,0-4.687-.8,13.54,13.54,0,1,0,0,27.08h55.312a13.54,13.54,0,0,0,0-27.08Z" fill="#ffa940"/><rect x="438" y="214.5" width="142" height="8.75"/><path d="M516.175,137.157a7.135,7.135,0,1,1-7.182-7.185A7.161,7.161,0,0,1,516.175,137.157Z" fill="#bd3604"/><path d="M520.15,140.659H497.931a4.736,4.736,0,0,1,4.729-4.729h12.761A4.736,4.736,0,0,1,520.15,140.659Z" fill="#e24f01"/><path d="M514.666,152.192a5.626,5.626,0,1,1-11.252,0c0-3.022,5.58-7.939,5.58-7.939S514.666,149.17,514.666,152.192Z" fill="#f08400"/><path d="M335.323,154.5h-98.65a.672.672,0,0,0-.672.672v72.673Z" fill="#00a68c"/><rect x="271.401" y="197.295" width="55.479" height="22.75" fill="#008272"/><path d="M281.814,197.3c-3.564.5-7.131.854-10.412,1.066v7.348a216.5,216.5,0,0,0,55.479,0v-7.348c-3.21-.212-6.629-.569-10.051-1.066Z" fill="#005248"/><rect x="260.709" y="216.264" width="76.869" height="20.18" fill="#008272"/><rect x="287.731" y="221.966" width="2.712" height="14.478" fill="#005248"/><rect x="307.84" y="221.966" width="2.712" height="14.478" fill="#005248"/><rect x="334.867" y="217.973" width="2.712" height="18.471" fill="#005248"/><rect x="260.709" y="217.973" width="2.706" height="18.471" fill="#005248"/><rect x="290.442" y="229.098" width="17.397" height="7.346" fill="#40c5af"/><rect x="295.219" y="229.098" width="7.844" height="7.346" fill="#003631"/><rect x="263.415" y="229.098" width="13.481" height="7.346" fill="#40c5af"/><rect x="267.123" y="229.098" width="6.064" height="7.346" fill="#003631"/><rect x="321.392" y="229.098" width="13.475" height="7.346" fill="#40c5af"/><rect x="325.101" y="229.098" width="6.058" height="7.346" fill="#003631"/><path d="M323.6,195.224l-1.994-9.766c-6.846.569-14.406.854-22.465.854s-15.616-.285-22.458-.854l-2,9.843a179.841,179.841,0,0,1-21.177.427v2.206c5.915,3.851,24.1,6.706,45.634,6.706s39.721-2.855,45.643-6.706v-2.206A171.271,171.271,0,0,1,323.6,195.224Z" fill="#40a195"/><path d="M260.709,221.54c8.7,2.284,22.672,3.85,38.431,3.85s29.74-1.566,38.438-3.85v-4.35a48.258,48.258,0,0,1-9.267-.926H269.764a56.97,56.97,0,0,1-9.055.784Z" fill="#005248"/><rect x="260.709" y="227.603" width="76.869" height="1.495" fill="#005248"/><line x1="282.455" y1="236.444" x2="282.455" y2="228.386" fill="none" stroke="#005248" stroke-miterlimit="10" stroke-width="2.362"/><line x1="316.111" y1="236.444" x2="316.111" y2="228.386" fill="none" stroke="#005248" stroke-miterlimit="10" stroke-width="2.362"/><path d="M326.881,213.124H271.4c-11.049,2.071-17.9.429-17.9.429v2.211c5.915,3.923,24.1,6.778,45.634,6.778s39.721-2.855,45.643-6.778v-2.211S338.361,215.552,326.881,213.124Z" fill="#40a195"/><path d="M276.036,186.88l-1.353,6.706h-.357v7.987a14.091,14.091,0,0,0,1.71.142Z" fill="#40c5af"/><path d="M282.882,186.169c-.569,0-1.138-.072-1.707-.072v16.115a13.584,13.584,0,0,0,1.707.142Z" fill="#40c5af"/><path d="M286.306,186.311a13.538,13.538,0,0,1-1.71-.072V202.5c.572,0,1.141.07,1.71.07Z" fill="#40c5af"/><path d="M296.576,186.6h-1.715v16.33h1.715Z" fill="#40c5af"/><path d="M293.155,186.524H291.44v16.26a14.04,14.04,0,0,0,1.715.07Z" fill="#40c5af"/><path d="M289.73,186.454a13.633,13.633,0,0,1-1.715-.072v16.26c.574.07,1.145.07,1.715.142Z" fill="#40c5af"/><path d="M265.771,195.513h-1.715v4.35c.5.142,1.073.215,1.715.357Z" fill="#40c5af"/><path d="M300,202.926V186.6h-1.71v16.33H300Z" fill="#40c5af"/><path d="M253.718,196.369a8.462,8.462,0,0,0,1.782.926v-1.782c-.856-.07-1.425-.07-1.782-.07Z" fill="#40c5af"/><path d="M258.922,195.586c-.639,0-1.211-.072-1.707-.072v2.421c.5.215,1.068.427,1.707.641Z" fill="#40c5af"/><path d="M272.617,195.152c-.574,0-1.143.072-1.715.072v5.85c.572.07,1.141.215,1.715.285Z" fill="#40c5af"/><path d="M260.637,199.075c.5.147,1.068.289,1.71.432v-3.921h-1.71Z" fill="#40c5af"/><path d="M269.195,195.371c-.572,0-1.145.072-1.715.072v5.131c.5.072,1.073.142,1.715.285Z" fill="#40c5af"/><path d="M277.75,201.928a13.585,13.585,0,0,0,1.71.142V185.954c-.572,0-1.141-.07-1.71-.07Z" fill="#40c5af"/><path d="M334.226,195.8h-1.707v4.423c.639-.142,1.211-.215,1.707-.357Z" fill="#40c5af"/><path d="M322.246,186.88v14.835a14.091,14.091,0,0,0,1.71-.142v-7.987a.531.531,0,0,0-.357-.072Z" fill="#40c5af"/><path d="M330.8,195.728a13.48,13.48,0,0,0-1.707-.072v5.2c.639-.142,1.211-.212,1.707-.285Z" fill="#40c5af"/><path d="M337.65,195.87h-1.715v3.636c.646-.142,1.215-.285,1.715-.432Z" fill="#40c5af"/><path d="M339.36,198.576c.639-.215,1.215-.427,1.715-.641V195.8c-.5,0-1.075.072-1.715.072Z" fill="#40c5af"/><path d="M344.568,195.728c-.357,0-.931,0-1.787.07v1.5a8.629,8.629,0,0,0,1.787-.926Z" fill="#40c5af"/><path d="M310.266,186.381a13.481,13.481,0,0,1-1.707.072v16.33c.569-.072,1.138-.072,1.707-.142Z" fill="#40c5af"/><path d="M313.69,186.239a13.538,13.538,0,0,1-1.715.072v16.258c.576,0,1.145-.07,1.715-.07Z" fill="#40c5af"/><path d="M303.42,186.6h-1.71v16.33h1.71Z" fill="#40c5af"/><path d="M306.842,186.524h-1.707v16.33a13.941,13.941,0,0,0,1.707-.07Z" fill="#40c5af"/><path d="M327.38,195.513c-.572,0-1.141-.07-1.71-.07v5.915c.569-.07,1.138-.215,1.71-.285Z" fill="#40c5af"/><path d="M317.114,186.1c-.569,0-1.145.072-1.715.072v16.185a13.7,13.7,0,0,0,1.715-.142Z" fill="#40c5af"/><path d="M320.539,185.885c-.576,0-1.145.07-1.717.07V202.07a13.813,13.813,0,0,0,1.717-.142Z" fill="#40c5af"/><path d="M276.036,213.481l-1.353-.212h-.357v6.277l1.71.212Z" fill="#40c5af"/><path d="M282.882,213.481a13.907,13.907,0,0,0-1.707,0v6.776c.569,0,1.138.072,1.707.072Z" fill="#40c5af"/><path d="M286.306,213.481a13.946,13.946,0,0,0-1.71,0v6.991a14,14,0,0,0,1.71.07Z" fill="#40c5af"/><path d="M296.576,213.481h-1.715V220.9h1.715Z" fill="#40c5af"/><path d="M293.155,213.481H291.44v7.345h1.715Z" fill="#40c5af"/><path d="M289.73,213.481h-1.715v7.2a13.556,13.556,0,0,1,1.715.072Z" fill="#40c5af"/><path d="M265.771,213.765h-1.715v4.066a10.346,10.346,0,0,0,1.715.354Z" fill="#40c5af"/><path d="M300,220.9v-7.418h-1.71V220.9H300Z" fill="#40c5af"/><path d="M253.718,214.334a8.245,8.245,0,0,0,1.782.933v-1.5c-.856,0-1.425-.07-1.782-.07Z" fill="#40c5af"/><path d="M258.922,213.838h-1.707v2.141c.5.142,1.068.357,1.707.569Z" fill="#40c5af"/><path d="M272.617,213.411c-.574.07-1.143.07-1.715.142v5.493a14.044,14.044,0,0,0,1.715.285Z" fill="#40c5af"/><path d="M260.637,217.047q.749.213,1.71.427v-3.636h-1.71Z" fill="#40c5af"/><path d="M269.195,213.623c-.572,0-1.145.072-1.715.072v4.847c.5.072,1.073.15,1.715.292Z" fill="#40c5af"/><path d="M277.75,219.9a14.051,14.051,0,0,0,1.71.142v-6.564a13.946,13.946,0,0,0-1.71,0Z" fill="#40c5af"/><path d="M334.226,213.765h-1.707v4.42a10.149,10.149,0,0,0,1.707-.354Z" fill="#40c5af"/><path d="M322.246,213.481v6.277l1.71-.212v-6.277a.764.764,0,0,1-.357-.072Z" fill="#40c5af"/><path d="M330.8,213.7c-.569,0-1.138-.072-1.707-.072v5.211c.639-.142,1.211-.219,1.707-.292Z" fill="#40c5af"/><path d="M337.65,213.838h-1.715v3.636c.646-.142,1.215-.285,1.715-.427Z" fill="#40c5af"/><path d="M339.36,216.548c.639-.212,1.215-.427,1.715-.569v-2.141H339.36Z" fill="#40c5af"/><path d="M344.568,213.7c-.357,0-.931.07-1.787.07v1.5a8.4,8.4,0,0,0,1.787-.933Z" fill="#40c5af"/><path d="M310.266,213.481h-1.707v7.275a13.48,13.48,0,0,1,1.707-.072Z" fill="#40c5af"/><path d="M313.69,213.481a14.025,14.025,0,0,0-1.715,0v7.061a14,14,0,0,0,1.715-.07Z" fill="#40c5af"/><path d="M303.42,213.481h-1.71V220.9h1.71Z" fill="#40c5af"/><path d="M306.842,213.481h-1.707v7.345h1.707Z" fill="#40c5af"/><path d="M327.38,213.481c-.572,0-1.141-.07-1.71-.07v5.92a14.123,14.123,0,0,0,1.71-.285Z" fill="#40c5af"/><path d="M317.114,213.481a14.025,14.025,0,0,0-1.715,0v6.848c.569,0,1.145-.072,1.715-.072Z" fill="#40c5af"/><path d="M320.539,213.481a14.065,14.065,0,0,0-1.717,0v6.564a14.29,14.29,0,0,0,1.717-.142Z" fill="#40c5af"/><path d="M344.783,194.582h-.072a162.237,162.237,0,0,1-20.109-.427l-2.071-9.909-1,.142c-7.061.5-14.55.781-22.395.781s-15.332-.285-22.385-.781l-1-.142-2.067,9.978a170.194,170.194,0,0,1-20.109.357h-.07v2.284a181.856,181.856,0,0,0,21.247-.427l.856-.07,2-9.631c6.776.5,14.044.711,21.532.711s14.765-.212,21.541-.711l1.992,9.559.856.072a173.242,173.242,0,0,0,21.254.5Z" fill="#40c5af"/><rect x="275.537" y="181.464" width="2.783" height="3.993" fill="#40c5af"/><rect x="320.032" y="181.464" width="2.783" height="3.993" fill="#40c5af"/><path d="M344.783,212.555h-.072l-.212.072c-2.144.641-8.563,1.423-17.4-.427l-.072-.072H271.259l-.072.072c-10.62,1.992-17.4.427-17.468.354h-.212v1.994c1.28.292,7.914,1.5,17.967-.427h55.335c10.273,2.141,16.615.861,17.975.5Z" fill="#40c5af"/><rect x="273.757" y="208.704" width="4.207" height="3.424" fill="#003631"/><rect x="279.53" y="208.704" width="4.278" height="3.424" fill="#003631"/><rect x="285.38" y="208.704" width="4.207" height="3.424" fill="#003631"/><rect x="291.225" y="208.704" width="4.207" height="3.424" fill="#003631"/><rect x="297.006" y="208.704" width="4.278" height="3.424" fill="#003631"/><rect x="302.848" y="208.704" width="4.207" height="3.424" fill="#003631"/><rect x="308.701" y="208.704" width="4.207" height="3.424" fill="#003631"/><rect x="314.474" y="208.704" width="4.278" height="3.424" fill="#003631"/><rect x="320.324" y="208.704" width="4.207" height="3.424" fill="#003631"/><rect x="89" y="142.491" width="29.297" height="25.776" fill="#32145a"/><g clip-path="url(#a)"><path d="M410.5,200.167h-98A11.182,11.182,0,0,1,301.333,189v-6.329a3.172,3.172,0,0,0-3.168-3.169h-34A11.182,11.182,0,0,1,253,168.331V98.669a3.173,3.173,0,0,0-3.169-3.169h-90a3.172,3.172,0,0,0-3.168,3.169v4.662A11.182,11.182,0,0,1,145.5,114.5h-9a3.173,3.173,0,0,0-3.169,3.169v10.662A11.181,11.181,0,0,1,122.165,139.5H75.333v-8h46.832a3.172,3.172,0,0,0,3.168-3.169V117.669A11.182,11.182,0,0,1,136.5,106.5h9a3.173,3.173,0,0,0,3.169-3.169V98.669A11.181,11.181,0,0,1,159.835,87.5h90A11.182,11.182,0,0,1,261,98.669v69.662a3.173,3.173,0,0,0,3.169,3.169h34a11.181,11.181,0,0,1,11.168,11.169V189a3.173,3.173,0,0,0,3.169,3.169h98A3.173,3.173,0,0,0,413.667,189V168a11.181,11.181,0,0,1,11.168-11.169H446.5a3.172,3.172,0,0,0,3.169-3.168v-22.33a11.18,11.18,0,0,1,11.168-11.168H582.083v8H460.835a3.171,3.171,0,0,0-3.168,3.168v22.33A11.181,11.181,0,0,1,446.5,164.833H424.835A3.172,3.172,0,0,0,421.667,168v21A11.182,11.182,0,0,1,410.5,200.167Z" fill="#d2d2d2"/><path d="M410.5,200.167h-3.251v-8H410.5a3.181,3.181,0,0,0,2.978-2.078l7.512,2.75A11.206,11.206,0,0,1,410.5,200.167Zm-15.251,0h-12v-8h12Zm-24,0h-12v-8h12Zm-24,0h-12v-8h12Zm-24,0H312.5a11.214,11.214,0,0,1-1.94-.169l1.387-7.879a3.26,3.26,0,0,0,.554.048h10.745Zm-13.914-13.158h-8v-4.34a3.174,3.174,0,0,0-1.645-2.78l3.859-7.008a11.175,11.175,0,0,1,5.785,9.788Zm112.334-7.494h-8V168q0-.378.025-.752l7.982.531c0,.073-.008.146-.008.221Zm-131.9-.015h-12v-8h12Zm-24,0h-1.6a11.176,11.176,0,0,1-11.089-9.829l7.943-.955a3.168,3.168,0,0,0,3.146,2.784h1.6Zm172.288-14.667h-12v-8h12Zm13.762-1.347L448,156.453a3.169,3.169,0,0,0,1.662-2.788V149.37h8v4.295A11.166,11.166,0,0,1,451.819,163.486ZM261,157.2h-8v-12h8ZM111.333,139.5h-12v-8h12Zm-24,0h-12v-8h12Zm36.638-.146-1.287-7.9a3.152,3.152,0,0,0,2.649-3.127v-1.9h8v1.9A11.124,11.124,0,0,1,123.971,139.354Zm333.7-1.984h-8v-6.035a11.2,11.2,0,0,1,3.645-8.255l5.391,5.912a3.133,3.133,0,0,0-1.035,2.343ZM261,133.2h-8v-12h8Zm314.536-5.029h-12v-8h12Zm-24,0h-12v-8h12Zm-24,0h-12v-8h12Zm-24,0h-12v-8h12Zm-24,0h-12v-8h12ZM133.648,116.288l-7.193-3.5A11.243,11.243,0,0,1,136.5,106.5h3.977v8H136.5A3.152,3.152,0,0,0,133.648,116.288Zm21.083-6.673-6.611-4.5a3.152,3.152,0,0,0,.547-1.78V98.669a11.1,11.1,0,0,1,1-4.613l7.285,3.3a3.154,3.154,0,0,0-.28,1.309v4.662A11.113,11.113,0,0,1,154.731,109.615ZM261,109.2h-8V98.669a3.223,3.223,0,0,0-.066-.65l7.834-1.621A11.221,11.221,0,0,1,261,98.669ZM247.624,95.5h-12v-8h12Zm-24,0h-12v-8h12Zm-24,0h-12v-8h12Zm-24,0h-12v-8h12Z" fill="#fff"/></g><rect x="96.48" y="97.099" width="13.062" height="44.425" fill="#5c2d91"/><path d="M122.162,97.86c-4.464,2.6-18.921,3.069-27.533,2.448C85.714,99.547,83.71,97.86,83.71,97.86c6.924,0,17.375-5.667,17.375-5.667h3.69S114.616,97.86,122.162,97.86Z" fill="#5c2d91"/><path d="M110.165,99.395H95.707a44.272,44.272,0,0,1-12-1.534v.761a27.009,27.009,0,0,0,12,2.613h14.458a27.008,27.008,0,0,0,12-2.613V97.86A44.272,44.272,0,0,1,110.165,99.395Z" fill="#32145a"/><path d="M109.239,105.216H96.48c-3.855,1.534-9.232,3.525-13.227,3.525,0,0,2.46,1.687,11.376,2.3,8.611.609,23.525.3,27.989-2.3C118.155,108.742,112.929,106.751,109.239,105.216Z" fill="#5c2d91"/><path d="M110.165,110.264H95.707a50.575,50.575,0,0,1-12.454-1.522v.761a32.122,32.122,0,0,0,12.454,2.448h14.458a32.123,32.123,0,0,0,12.454-2.448v-.761A50.575,50.575,0,0,1,110.165,110.264Z" fill="#32145a"/><path d="M109.239,116.084H96.48c-3.855,1.535-10.158,3.526-14.153,3.526,0,0,3.386,1.687,12.3,2.3,8.611.621,24.451.317,28.915-2.3C119.08,119.61,112.929,117.619,109.239,116.084Z" fill="#5c2d91"/><path d="M110.165,121.145H95.707a63.694,63.694,0,0,1-13.379-1.534v.774a40.451,40.451,0,0,0,13.379,2.448h14.458a40.45,40.45,0,0,0,13.379-2.448v-.774A63.692,63.692,0,0,1,110.165,121.145Z" fill="#32145a"/><path d="M109.239,126.966H96.48c-3.855,1.534-10.615,3.525-14.61,3.525,0,0,3.843,1.687,12.758,2.3,8.611.761,24.908.3,29.372-2.3C119.537,130.491,112.929,128.5,109.239,126.966Z" fill="#5c2d91"/><path d="M110.165,132.026H95.707a71.122,71.122,0,0,1-13.836-1.534v.761a42.555,42.555,0,0,0,13.836,2.613h14.458A42.555,42.555,0,0,0,124,131.252v-.761A71.122,71.122,0,0,1,110.165,132.026Z" fill="#32145a"/><path d="M109.239,137.847H96.48c-3.855,3.525-11.54,3.525-15.535,3.525,0,0,2.46,1.674,11.376,2.3,8.459.761,27.685.3,32.136-2.3C126.461,141.373,112.156,140.9,109.239,137.847Z" fill="#5c2d91"/><path d="M112.625,142.895H93.247a48.537,48.537,0,0,1-12.3-1.522v.761a30.257,30.257,0,0,0,12.3,2.6h19.378a30.254,30.254,0,0,0,12.3-2.6v-.761A48.533,48.533,0,0,1,112.625,142.895Z" fill="#32145a"/><rect x="100.932" y="90.659" width="3.995" height="1.535" fill="#5c2d91"/><rect x="102.218" y="73.5" width="1.437" height="15.941" fill="#32145a"/><polygon points="109.543 133.865 96.48 137.847 96.48 133.865 109.543 133.865" fill="#32145a"/><polygon points="109.543 122.832 96.48 126.966 96.48 122.832 109.543 122.832" fill="#32145a"/><polygon points="109.543 111.95 96.48 116.084 96.48 111.95 109.543 111.95" fill="#32145a"/><polygon points="109.543 101.234 96.48 105.216 96.48 101.234 109.543 101.234" fill="#32145a"/><rect x="101.706" y="86.219" width="2.613" height="0.913" fill="#5c2d91"/><rect x="101.706" y="84.225" width="2.613" height="1.078" fill="#5c2d91"/><rect x="101.706" y="82.39" width="2.613" height="0.913" fill="#5c2d91"/><rect x="101.706" y="80.547" width="2.613" height="0.926" fill="#5c2d91"/><rect x="101.706" y="78.56" width="2.613" height="1.078" fill="#5c2d91"/><path d="M104.318,89.441a1.382,1.382,0,1,1-1.382-1.386A1.374,1.374,0,0,1,104.318,89.441Z" fill="#5c2d91"/><path d="M198.364,82.952s12.521-.2,13.256-.432,4.346-4.03,5.454-5.13,1.571-4.315,1.571-4.315l-5.67-2.251a5.375,5.375,0,0,0-1.181,1.553l-.67,1.984s-1.864,4.192-2.206,4.232c-2.213.262-11.483,1.978-11.483,1.978Z" fill="#32145a"/><path d="M214.319,76.226l5.854,5.016,3.73,9.487s2.109.046,2.164-.294-1.512-9.817-1.837-10.683-5.34-6.755-6.437-7.165S214.319,76.226,214.319,76.226Z" fill="#32145a"/><path d="M223.592,90.182s1.492-.137,1.785-.148.477-.795.638-.711,2.068.509,2.4.621.447.828.447.828a22.835,22.835,0,0,1-4.348,1.347c-.18.021-.345-.2-.53-.769C223.856,90.956,223.592,90.182,223.592,90.182Z" fill="#5c2d91"/><path d="M198.885,80.405s-.59,1.574-.689,1.849.559.74.421.857-1.245,1.728-1.472,1.993-.935.105-.935.105a29.375,29.375,0,0,1,.535-4.674c.048-.175.316-.245.911-.2C198.068,80.361,198.885,80.405,198.885,80.405Z" fill="#5c2d91"/><path d="M212.506,70.649c.322.168,6.139,2.425,6.139,2.425s1.618-4.97,2.581-8.767.862-5.325-1.163-6.466-3.139-.96-4.006-.635a5.111,5.111,0,0,0-2.411,4.295C213.807,63.387,212.506,70.649,212.506,70.649Z" fill="#32145a"/><path d="M219,62.188s2.311,4.731,2.6,4.948c.771.576,1.168.349,2.22-.082a18.11,18.11,0,0,0,2.794-1.494l-.645-1.474-3.129.879-1.147-5.019Z" fill="#32145a"/><path d="M225.583,64.215c.1-.013,1.653-1.133,2.05-1.287s.283.4.373.41.8-.245,1.039-.028.259,1.347.2,1.6-1.449.529-1.718.491a4.842,4.842,0,0,0-1.269.426Z" fill="#9080cf"/><path d="M508.994,129.973a7.2,7.2,0,0,1,1.417.141V111.461a1.318,1.318,0,0,0-1.417-1.324,1.291,1.291,0,0,0-1.324,1.324V130.1A6.932,6.932,0,0,1,508.994,129.973Z" fill="#bd3604"/><path d="M544.427,91.448h0a16.525,16.525,0,0,1,16.432,16.444V139.25h-32.7V107.892A16.374,16.374,0,0,1,544.427,91.448Z" fill="#ffa940"/><g clip-path="url(#b)"><path d="M540.177,134.043h8.488V119.554a4.192,4.192,0,0,0-4.238-4.25h0a4.31,4.31,0,0,0-4.25,4.25Z" fill="#e24f01"/><path d="M526.046,134.043h8.47V119.554a4.308,4.308,0,0,0-4.238-4.25h0a4.3,4.3,0,0,0-4.232,4.25Z" fill="#e24f01"/><path d="M554.326,134.043H562.8V119.554a4.2,4.2,0,0,0-4.238-4.25h0a4.308,4.308,0,0,0-4.238,4.25Z" fill="#e24f01"/><rect x="528.162" y="107.889" width="32.696" height="3.177" fill="#e24f01"/></g><polygon points="104.667 151.5 104.599 168.267 118.297 168.267 118.297 146.937 104.667 151.5" fill="#5c2d91"/><rect x="81" y="164.5" width="45" height="4" fill="#5c2d91"/><rect x="209.753" y="61.96" width="9.413" height="9.413" rx="4.707" ry="4.707" fill="#5c2d91"/><rect x="208.917" y="61.96" width="9.413" height="9.413" rx="4.707" ry="4.707" fill="#c7b8ff"/><path d="M211.879,66.748s.726,1.978.785,2.336,1.06.637,1.06.637l1.678-.31-.76-1.053L215.7,68.3l-2.707-1.95Z" fill="#9080cf"/><path d="M216.117,57.086a54.824,54.824,0,0,0-6.8,3.351c-.627.383-.637,1.06-.293,1.813s2.927,5.337,2.927,5.337l1.72-.753-1.6-4.331s3.921-1.717,5.9-2.443S218.829,56.13,216.117,57.086Z" fill="#32145a"/><path d="M218.9,52.073c-1.046,1.781-.834,3.853-.933,4.955a6.655,6.655,0,0,1,2.093.813c.1.055.169.116.258.173l.21-.911s1.773.637,2.128-.119a22.857,22.857,0,0,0,.908-4.743C223.564,51.543,220.027,50.162,218.9,52.073Z" fill="#9080cf"/><path d="M220.745,54.347c.5.006.349-1.857,1.113-1.758a5.355,5.355,0,0,0,1.728.009s.18-1.831-1.293-2.069-3.322-.305-4,.981S218.036,56,218.036,56s1.7.065,1.384-1.163c-.3-1.183-.075-1.594.374-1.655C220.135,53.136,220.248,54.341,220.745,54.347Z" fill="#5c2d91"/><path d="M207,173.328a31.039,31.039,0,0,1,.364-4.828H74v5H207C207,173.445,207,173.382,207,173.328Z" fill="#231f20"/><path d="M531.495,164.771a34.163,34.163,0,0,0-44.909,0H465.115v9.647h28.464a20.394,20.394,0,0,1,30.923,0h28.458v-9.647Z" fill="#ffa940"/><path d="M476.655,165.055h-8.227a1.655,1.655,0,0,1-1.605-1.612h0a1.574,1.574,0,0,1,1.605-1.512h8.227a1.493,1.493,0,0,1,1.512,1.512h0A1.575,1.575,0,0,1,476.655,165.055Z" fill="#bd3604"/><path d="M549.276,165.055h-8.134a1.593,1.593,0,0,1-1.605-1.612h0a1.517,1.517,0,0,1,1.605-1.512h8.134a1.517,1.517,0,0,1,1.605,1.512h0A1.593,1.593,0,0,1,549.276,165.055Z" fill="#bd3604"/></svg>