<svg xmlns="http://www.w3.org/2000/svg" viewBox="0 0 636 300"><defs><style>.a,.t{fill:none}.b{fill:#666}.c{fill:#b4a0ff}.d{fill:#5c2d91}.e{fill:#8867c8}.f{fill:#724aad}.g{fill:#fff}.h{fill:#c8c8c8}.i{fill:#a6a6a6}.j{fill:#ba6800}.k{fill:#ffa940}.l{fill:#939393}.m{fill:#f57800}.n{fill:#333}.o{fill:#868686}.p{fill:#0078d7}.q{clip-path:url(#a)}.r{fill:#b2b2b2}.s{fill:#ff8c00}.t{stroke:#40cdf5;stroke-linecap:round;stroke-linejoin:round;stroke-width:4px;stroke-dasharray:4 8}</style><clipPath id="a"><path class="a" d="M116.129 244.485c-3.275 1.839-9.811 1.968-13.764-.106-3.9-2.046-3.934-5.625-.659-7.463 3.911-2.2 10.5-2.3 14.4-.251 3.953 2.075 3.934 5.625.023 7.82z"/></clipPath></defs><title>swimlane-unity-game-development</title><path class="b" d="M236.329 70.563h19v21h-19z"/><path class="c" d="M488.137 72.371l23.317 12.388 22.986-11.16-23.984-12.158-22.319 10.93z"/><path class="d" d="M488.138 72.592l23.191 12.321v69.126l-23-11.473-.191-69.974z"/><path class="e" d="M534.141 73.32l-22.812 11.237v69.982l23-12.232-.188-68.987z"/><path class="f" d="M495.198 44.945l16.131 8.571v27.771l-16-8.701-.131-27.641z"/><path class="e" d="M526.206 48.328l-14.877 7.328v24.742l15-7.452-.123-24.618z"/><path class="d" d="M526.329 97.816l-7 3.717v-10.25c0-2.929.8-4.843 2.832-5.744s4.168.563 4.168 3.154z"/><path class="g" d="M519.329 91.172v4.953l2-1.062v-9.492c-1.415 1.129-2 2.998-2 5.601z"/><path class="c" d="M521.088 95.235l-1.76.935v5.7l7-3.717v-.184z"/><path class="h" d="M491.127 45.053l20.327-10.163 19.697 10.163-2.139 7.3-17.873 7.678-18.628-8.559-1.384-6.419z"/><path class="b" d="M507.329 53.33v3.049l-4-2.047v-3.064l-4-2.088v3.134l-4-2.048V47.17l-4-2.089v7.024l20 10.315v-7.002l-4-2.088z"/><path class="i" d="M515.329 53.33v3.049l4-2.047v-3.064l4-2.088v3.134l4-2.048V47.17l4-2.089v7.024l-20 10.315v-7.001l4-2.089zM496.629 45.026l14.466 6.604 15.629-6.604-15.289-25.869-14.806 25.869z"/><path class="b" d="M496.863 45.026l14.466 6.604.34-32.473-14.806 25.869z"/><path class="j" d="M468.039 223.852l-70.376-31.169 15.666-8.081v-6.139l-21.099-4.855 119.099-61.287v-5.769l-150 60.515v6.492l20.314 10-15.314 2.501v6.623l92.681 47.062-.247-9.214 9.276-6.679z"/><path class="k" d="M475.203 225.914l-77.312-39.438 15.833-8.167-21-10.833 118.605-60.938-.063-16.312-150.375 76.917 21.667 10.666-16.334 8.667 64.917 33.125 28.25 14.875 15.812-8.562z"/><path class="j" d="M241.737 72.476l40.083-20.417 61.75 32.417 27-13.333 31.5 16-15.667 8.5-16.583-8.417-25.75 13.583-63-32.583-24.667 12.917-14.666-8.667z"/><path class="k" d="M241.737 66.476l40.083-20.417 61.75 32.417 27-13.333 31.5 16-15.667 8.5-16.583-8.417-25.75 13.583-63-32.583-24.667 12.917-14.666-8.667z"/><path class="c" d="M195.471 69.037l23.316 12.389 22.986-11.16-23.983-12.158-22.319 10.929z"/><path class="d" d="M195.142 69.264l23.187 12.32V150.7l-23-12.508-.187-68.928z"/><path class="e" d="M241.139 69.991l-22.81 11.236v69.975l23-11.426-.19-69.785z"/><path class="f" d="M203.198 41.612l16.131 8.571v27.771l-16-8.701-.131-27.641z"/><path class="e" d="M234.205 44.994l-14.876 7.329v24.742l15-7.452-.124-24.619z"/><path class="d" d="M233.329 94.483l-7 3.717V87.95c0-2.929.8-4.843 2.832-5.744s4.168.563 4.168 3.154z"/><path class="g" d="M226.329 87.839v4.953l2-1.062v-9.492c-1.416 1.131-2 2.997-2 5.601z"/><path class="l" d="M228.088 91.9l-1.76.935v5.7l7-3.717v-.184z"/><path class="h" d="M198.46 41.72l20.327-10.163 19.698 10.163-2.14 7.3-17.873 7.678-18.628-8.559-1.384-6.419z"/><path class="b" d="M214.329 49.997v3.049l-4-2.048v-3.064l-4-2.088v3.134l-4-2.047v-3.097l-4-2.088v7.024l20 10.314v-7l-4-2.089z"/><path class="i" d="M222.329 49.997v3.049l4-2.048v-3.064l4-2.088v3.134l4-2.047v-3.097l4-2.088v7.024l-20 10.314v-7.001l4-2.088zM203.962 41.693l14.466 6.603 15.629-6.603-15.288-25.869-14.807 25.869z"/><path class="b" d="M203.863 41.693l14.466 6.603.341-32.472-14.807 25.869z"/><path class="f" d="M289.329 76.474v57.959l-85 44.253v-58.414l85-43.798z"/><path class="d" d="M174.329 119.559v69.485l86 43.461v-69.941l-86-43.005z"/><path class="e" d="M276.575 155.131l-16.246 8.123v68.677l16-8.369.246-68.431z"/><path class="m" d="M233.329 89.622v16.1l-26.75 13.741 70.766 35.157-16.5 8.25-85.766-43.157 58.25-30.091z"/><path class="d" d="M330.329 134.606v69.774l73 38.216v-70.231l-73-37.759z"/><path class="m" d="M388.329 104.885v16.1l-26.75 13.741 57.5 29.5-16.5 8.25-72.5-37.5 58.25-30.091z"/><path class="c" d="M381.945 74.316l30.875 16.405 30.438-14.778-31.758-16.1-29.555 14.473z"/><path class="d" d="M382.076 73.652l31.253 16.606v93.158l-31-16.859-.253-92.905z"/><path class="e" d="M443.081 76.431l-29.752 14.656v102.595l30-14.903-.248-102.348z"/><path class="f" d="M392.157 38.213l21.172 11.249V85.91l-21-11.42-.172-36.277z"/><path class="e" d="M433.164 42.332l-19.835 9.771v32.989l20-9.936-.165-32.824z"/><path class="d" d="M433.329 108.5l-10 5.31V99.171c0-4.183 1.149-6.919 4.046-8.207s5.954.8 5.954 4.505z"/><path class="g" d="M422.329 99.2v6.421l3-1.377v-12.3c-1.564 1.465-2.322 3.884-3 7.256z"/><path class="c" d="M425.842 104.247l-2.513 1.334v8.142l10-5.31v-.262z"/><path class="b" d="M187.329 250.516l-132-11.952s-6 2.25-4.5 10.688c.312 1.938 2.188 4.375 5.438 5.562 5.767 2.107 15.693 2.847 24.832 2.706 12.43-.6 28.134 7.647 28.134 7.647s15.758 8.27 15.08 15.032c.051 4.963.059 11.34 6.631 14.788 5.234 2.747 13.078.492 23.489-5.353 23.517-13.2 30.631-30.018 30.631-30.018l1.875-1.053h.39z"/><path class="n" d="M184.8 251.481l2.008-1.127c-2.027-6-11.2-9.379-11.2-9.379l-1.908.375a60.248 60.248 0 0 0-7.833-1.986c-4.626-.247-7.242-1.62-15.149-5.769-7.852-4.121-10.47-5.495-11.08-8a22.29 22.29 0 0 0-3.918-4.181l.572-1.076s-6.532-4.863-17.594-5.732l-2.008 1.127s-30.725 4.425-54.242 17.627c-10.411 5.844-14.3 10.175-9.066 12.922 6.517 3.42 18.312 3.239 27.451 3.1 12.43-.6 28.134 7.647 28.134 7.647s15.759 8.27 15.08 15.032c.051 4.963.059 11.339 6.631 14.788 5.234 2.747 13.078.492 23.489-5.353 23.522-13.196 30.633-30.015 30.633-30.015z"/><path class="o" d="M143.578 241.9a10.378 10.378 0 0 1-9.138.14c-2.618-1.374-2.639-3.508-.049-4.962 2.008-1.127 5.938-1.188 8.556.186s2.64 3.507.631 4.636z"/><path class="p" d="M141.627 238a6.79 6.79 0 0 0-5.26.109c-1.957 1.1-1.255 2.155.028 2.828a5.347 5.347 0 0 0 5.206-.081 1.522 1.522 0 0 0 .026-2.856zm-9.143 5.133c-3.259-1.71-2.6-4.924.625-6.734a13.743 13.743 0 0 1 11.8-.239c3.259 1.71 3.231 4.567-.045 6.406-3.228 1.815-9.122 2.282-12.38.572zM161.969 258.612a7.061 7.061 0 0 1-5.891.466c-1.978-1.038-1.938-2.452.017-3.549a8.245 8.245 0 0 1 6.536-.13c1.28.672.659 2.471-.662 3.213zM175.656 250.928c-1.267.711-4.559 1.109-5.84.437-1.978-1.038-1.3-2.808-.035-3.52a7.07 7.07 0 0 1 6.536-.13c1.283.672 1.296 2.115-.661 3.213zM161.945 250.792a6.949 6.949 0 0 1-5.893.467c-1.978-1.038-1.938-2.452.019-3.55a8.249 8.249 0 0 1 6.534-.129c1.335.701.661 2.47-.66 3.212zM176.369 258.361a7.065 7.065 0 0 1-5.9.466c-1.976-1.037-1.938-2.452.019-3.55a8.25 8.25 0 0 1 6.534-.129c1.287.674.668 2.472-.653 3.213z"/><path class="b" d="M119.372 228.448c-3.277 1.84-8.484 1.921-12.437-.154-3.259-1.71-3.286-4.538-.008-6.378a13.62 13.62 0 0 1 11.741-.209c3.953 2.075 3.979 4.903.704 6.741zM142.356 258.249a13.632 13.632 0 0 1-11.794.181c-3.259-1.71-3.284-4.537-.009-6.376 3.911-2.2 9.171-2.307 12.429-.6 3.313 1.746 3.285 4.6-.626 6.795zM115.472 237.021c-3.259-1.71-8.52-1.6-12.431.6-3.275 1.839-3.247 4.667.011 6.377 3.313 1.739 9.161 1.995 12.437.156 3.911-2.2 3.296-5.395-.017-7.133zM101.1 245.09c-3.9-2.046-3.941-6.316-.032-8.511 4.547-2.552 12.463-2.7 16.361-.656 4.594 2.411 3.89 6.345-.657 8.9-3.911 2.193-11.081 2.677-15.672.267z"/><g class="q"><path class="b" d="M101.725 233.366l5.236 2.748a6.988 6.988 0 0 0 6.536-.13l5.178-2.907-5.877-3.084-1.954 1.1-2.618-1.374zm27.441 7.34l-2.618-1.374 1.954-1.1-5.234-2.747-5.178 2.907c-2.008 1.127-1.942 2.541.033 3.577l4.542 2.383zm-39.226-.725l2.618 1.374-1.957 1.1 5.877 3.084 5.868-3.294c1.321-.742 1.992-2.512.017-3.549l-5.236-2.748zm20.94 10.99l-2.618-1.374-1.957 1.1-5.234-2.747 5.868-3.294a8.386 8.386 0 0 1 6.586-.1l4.542 2.383z"/></g><path class="b" d="M150.79 245.684a4.958 4.958 0 0 1-3.934.06 1.431 1.431 0 0 1-.019-2.135 5.1 5.1 0 0 1 3.984-.091c1.335.701 1.29 1.424-.031 2.166zM131.133 235.367a4.958 4.958 0 0 1-3.934.06 1.431 1.431 0 0 1-.019-2.135 5.1 5.1 0 0 1 3.984-.091c1.336.699 1.29 1.425-.031 2.166z"/><path class="e" d="M445.329 177.606v69.774l-73 38.216v-70.231l73-37.759z"/><path class="d" d="M322.329 184.5l8-4.25v-7.617l8-4.266v-7.928l8-3.878V148.5l8-3.75v-7.875l9-4.5V122.9l9.023-4.623 16.108 8.336-16.108 43.138-33.917 78.056-16.106-8.336V184.5z"/><path class="k" d="M346.329 156.704v.074l-8 3.879v.236l27.817 13.746 4.772-4.775.115-.307-24.704-12.853zM330.329 179.703v.547l-7.547 4.009 22.491 11.912 5.479-5.481-20.423-10.987zM387.32 127.645l-15.813-8.183-8.858 4.538 21.766 11.424 2.905-7.779zM362.329 132.347v.153l-8.324 4.162 24.838 12.83 2.654-7.11-19.168-10.035zM337.478 168.724l-6.744 3.6 25.207 13.248 5.087-5.089c-7.028-3.515-16.162-8.074-23.55-11.759zM354.324 144.752l-7.995 3.748v.203l28.068 14.034 2.514-6.733-22.587-11.252z"/><path class="e" d="M338.329 192.682l8-4.25v-7.617l8-4.266v-7.928l8-3.878v-8.061l7-3.75v-7.875l9-4.5v-8.339l9-4.609v84.085l-49 25.075v-44.087z"/><path class="r" d="M421.329 210.088v9.9l4-2.124v-18.975c-2.829 2.263-4 5.994-4 11.199z"/><path class="d" d="M357.083 207.826l16.246 8.123v68.677l-16-8.369-.246-68.431zM437.329 224.915l-16 8.5v-23.434c0-6.694 1.839-11.071 6.474-13.131s9.526 1.287 9.526 7.209z"/><path class="g" d="M421.329 210.088v9.9l4-2.124v-18.975c-2.829 2.263-4 5.994-4 11.199z"/><path class="c" d="M425.35 217.907l-4.022 2.136v13.028l16-8.5v-.419z"/><path class="d" d="M416.329 180.606l-29 13.087v-30.79l29 9.993v7.71z"/><path class="m" d="M387.329 147.885v16.1l26.75 13.741-57.5 29.5 16.5 8.25 72.5-37.5-58.25-30.091z"/><path class="h" d="M385.903 38.143l26.917-13.459 26.083 13.459-2.833 9.666-23.667 10.167-24.666-11.333-1.834-8.5z"/><path class="b" d="M406.329 48.92v4.144l-5-2.559v-4.042l-5-2.948v4.166l-5-2.56v-4.139l-6-2.839v9.204l27 13.925v-9.22l-6-3.132z"/><path class="i" d="M418.329 48.92v4.106l4-2.483v-3.988l6-3.132v4.258l5-2.56v-4.254l5-2.61v9.348l-26 13.409v-8.962l6-3.132zM393.189 38.107l19.156 8.744 20.695-8.744-20.244-34.256-19.607 34.256z"/><path class="b" d="M393.173 38.107l19.156 8.744.451-43-19.607 34.256z"/><path class="d" d="M382.74 180.367l-.512-12.809-14.321 8.355c-4.092 2.387-6.111 5.072-5.717 8.639s4.184 5.364 7.8 3.252z"/><path class="g" d="M367.907 175.913l6.357-3.709.134 3.363-12.183 7.108c.393-2.665 2.351-4.813 5.692-6.762z"/><path class="c" d="M374.393 175.423l-.129-3.22 7.963-4.646.512 12.809-.256.15z"/><path class="e" d="M182.329 184.549l16 8.5v-23.434c0-6.694-1.839-11.071-6.474-13.131s-9.526 1.287-9.526 7.209z"/><path class="g" d="M198.329 169.722v9.9l-4-2.124v-18.975c2.831 2.263 4 5.995 4 11.199z"/><path class="c" d="M194.307 177.541l4.022 2.136V192.7l-16-8.5v-.419z"/><path class="m" d="M234.329 56.003v10.39l7 3.873v4.864l10.074 5.179-67.708 34.667 19.125 6.25 79.125-40.375-47.616-24.848z"/><path class="j" d="M372.329 248.075l-130.766-61.152 15.766-8.132v-6.007l-21.724-5.001 6.724-3.448-.049-5.897 24.562-6.492 102.487-52.653v-5.719l-164 67.678v6.64l20.313 10.001-15.313 2.5v6.668l161.51 82.163.49-.245v-20.904z"/><path class="s" d="M373.329 247.59l-131.326-66.781 15.833-8.166-21-10.834 133.5-68.458-16.333-8-149 76.125 21.666 10.667-16.333 8.666 162.5 82.667.493-.247V247.59z"/><path class="f" d="M331.329 136.373l-8-4.25v-7.617l-8-4.266v-7.928l-8-3.878v-8.061l-8-3.75v-8.125l-8-4v-8.147l-8.803-4.509-15.715 8.131 36.271 64.829 12.549 88.96 15.698-8.034v-89.355z"/><path class="k" d="M307.329 108.578v.073l8 3.879v.237l-27.817 13.745-4.773-4.775-.114-.307 24.704-12.852zM323.329 131.576v.547l7.547 4.009-22.491 11.913-5.479-5.482 20.423-10.987zM266.07 79.518l15.813-8.182 8.858 4.537-21.766 11.425-2.905-7.78zM290.329 84.221v.152l8.324 4.162-24.838 12.83-2.654-7.109 19.168-10.035zM315.912 120.6l6.744 3.6-25.207 13.248-5.087-5.089a15407.45 15407.45 0 0 1 23.55-11.759zM299.334 96.625l7.995 3.748v.203l-28.068 14.035-2.514-6.734 22.587-11.252z"/><path class="e" d="M315.329 144.556l-8-4.25v-7.617l-8-4.266v-7.928l-8-3.878v-8.061l-8-3.75v-7.875l-9-4.5v-8.595l-8-4.098v50.34l49 25.075v-10.597z"/><path class="d" d="M272.329 118.309l8 4.248v-11.715c0-3.347-.92-5.535-3.237-6.565s-4.763.644-4.763 3.6z"/><path class="g" d="M280.329 110.868v4.953l-2-1.062v-9.49c1.415 1.131 2 2.996 2 5.599z"/><path class="c" d="M278.318 114.874l2.011 1.067v6.514l-8-4.248V118z"/><path class="e" d="M315.329 151.558v84.03l-16-7.936v-84.313l16 8.219z"/><path class="j" d="M321.329 106.215l-2-1.08V52.112l2 1.08v53.023z"/><path class="m" d="M321.329 107.351l2-1.25v-55.25l-2 1.25v55.25z"/><path class="j" d="M338.329 135.976l-2-1.125v-74.5l2 1.125v74.5z"/><path class="m" d="M338.329 135.976l2-1.25v-74.5l-2 .625v75.125z"/><path class="j" d="M362.329 94.715l-2-1.08V40.612l2 1.08v53.023z"/><path class="m" d="M362.329 95.851l2-1.25v-51.5l-2 1.25v51.5z"/><path class="j" d="M346.329 80.465l-2-1.08V26.362l2 1.08v53.023z"/><path class="m" d="M346.329 81.601l2-1.25v-55.25l-2 1.25v55.25z"/><path class="h" d="M315.653 43.393l26.917-13.459 26.083 13.459-2.833 9.666-23.667 10.167-24.666-11.333-1.834-8.5z"/><path class="b" d="M336.329 54.17v4.144l-5-2.559v-3.95l-6-3.132v4.22l-4-2.484v-4.292l-5-2.609v9.347l26 13.409v-8.962l-6-3.132z"/><path class="i" d="M347.329 54.246v4.068l5-2.559v-3.95l6-3.132v4.258l5-2.56v-4.139l6-2.839v9.204l-27 13.925v-9.296l5-2.98zM322.939 43.357l19.156 8.744 20.695-8.744-20.244-34.256-19.607 34.256z"/><path class="b" d="M323.173 43.357l19.156 8.744.451-43-19.607 34.256z"/><path class="d" d="M303.329 199.311l7 4.25v-11.719c0-3.348-.8-5.537-2.832-6.568s-4.168.643-4.168 3.606z"/><path class="g" d="M310.329 191.762v5.663l-2-1.214V185.36c1.415 1.293 2 3.426 2 6.402z"/><path class="c" d="M308.57 196.246l1.759 1.068v6.516l-7-4.25v-.209z"/><path class="j" d="M511.296 154.26l38.116 18.966-90.875 45.75 1.25 21 125.125-64.25.289-6.591-73.872-31.659-.033 16.784z"/><path class="k" d="M511.546 148.01l38.116 18.966-96.5 49.5 6.5 17.875 125.75-64.875-74.083-38 .217 16.534z"/><path class="e" d="M514.329 195.078l-7-4.25v-7.617l-8-4.266v-7.928l-8-3.878v-8.061l-8-3.75v-7.875l-9-4.5v-8.143l-8.804-4.51-15.715 8.131 15.715 42.087 33.089 33.107 15.715-8.132v-10.415z"/><path class="k" d="M491.329 167.282v.074l8 3.879v.236l-27.818 13.745-4.773-4.775-.114-.307 24.705-12.852zM506.329 190.28v.548l7.546 4.008-22.491 11.913-5.479-5.482 20.424-10.987zM449.861 138.223l15.813-8.183 8.859 4.538-21.767 11.424-2.905-7.779zM474.329 142.925v.153l8.323 4.161-24.837 12.83-2.655-7.109 19.169-10.035zM499.7 179.3l6.744 3.6-25.204 13.247-5.087-5.089c7.025-3.512 16.163-8.072 23.547-11.758zM483.333 155.329l7.996 3.749v.202l-28.069 14.035-2.514-6.734 22.587-11.252z"/><path class="d" d="M499.329 203.26l-8-4.25v-7.617l-8-4.266v-7.928l-8-3.878v-8.061l-8-3.75v-7.875l-9-4.5v-8.339l-9-4.61v50.34l50 25.587V203.26z"/><path class="m" d="M215.313 140.194l45.063 22.676 16.5-8.25-46.124-22.915-15.439 8.489z"/><path class="d" d="M226.382 145.788l33.994 17.082-4.473 2.106-36.958-18.75 7.437-.438z"/><path class="k" d="M266.329 263.933v-8.267l8-3.878v-8.061l8-3.75v-7.875l9-4.5v-8.618l8.948-4.583 15.972 8.265-13.542 36.27-20.406 13.263-15.972-8.266z"/><path class="e" d="M274.329 251.887v.074l-8 3.879v.236L287.942 267l4.773-4.776-.439-1-17.947-9.337zM315.512 222.872L299.7 214.69l-8.859 4.537 21.766 11.424 2.905-7.779zM291.329 227.574v.153l-8.324 4.162 24.838 12.83 2.655-7.11-19.169-10.035zM282.324 239.979l-7.995 3.748v.203l28.068 14.034 2.514-6.733-22.587-11.252z"/><path class="d" d="M281.329 272.011v-7.919l9-4.364v-7.819l8-3.75v-7.875l9-4.5v-8.595l8-4.097V254.5l-34 17.511z"/><path class="t" d="M154.737 231.476l158-82.667"/></svg>