<svg xmlns="http://www.w3.org/2000/svg" viewBox="0 0 636 300"><style>.st0{fill-rule:evenodd;clip-rule:evenodd;fill:#fff}.st1{fill:none;stroke:#90c10c;stroke-width:5;stroke-miterlimit:10}.st2{fill:#a88763}.st3{fill:#b2b2b2}.st4{fill:none;stroke:#65aa0d;stroke-width:5;stroke-miterlimit:10}.st5{fill:#2e2e2e}.st6{fill:#2488d8}.st7{fill:#5d5f5e}.st8{fill:#69afe5}.st9{fill:#cbe247;stroke:#90c10c;stroke-width:5.527;stroke-miterlimit:10}.st10{fill:#0078d7}.st11{fill:#004578}.st12{fill:#b3d6f2}.st13{fill:#cbe247;stroke:#90c10c;stroke-width:5;stroke-miterlimit:10}.st14{fill-rule:evenodd;clip-rule:evenodd;fill:#0078d7}.st15{fill:#fff}.st16{fill:#005a93}.st17{fill:#737373}.st18{fill:#acacac}.st19{fill-rule:evenodd;clip-rule:evenodd;fill:#b4b4b4}.st20{fill:#a6a6a6}.st21{fill:#767576}.st22{clip-path:url(#SVGID_2_)}.st23{fill:#502f84}.st24{fill:#5c3d99}.st25{fill:#3d1a68}.st26{fill:#32145a}.st27{fill:#af5443}.st28{fill:#505050}.st29{opacity:.37;fill:#fff}.st30{fill:#99bcd7}.st31{fill:#c8c8c8}.st32{fill:#666}.st33{fill:#45779e}.st34{fill:#6597bf}.st35{fill:#3c3c3c}.st36{fill:#235a89}.st37{fill:#106ebe}.st38{fill:#333}.st39{fill:#1c4768}.st40{fill:#212121}.st41{fill:#11334b}.st42{fill:#cfe0ee}.st43{fill:#eaeaea}.st44{fill:#deecf9}.st45{fill:#e9f0f7}.st46{fill:#f4f4f4}.st47{fill:#231f20}.st48{fill:#a8dceb}.st49,.st50,.st51{fill-rule:evenodd;clip-rule:evenodd}.st49{stroke:#69afe5;stroke-width:2;stroke-miterlimit:10;stroke-dasharray:1.8146,2.7218;fill:none}.st50,.st51{fill:#2488d8}.st51{fill:#d8b094}.st52,.st53,.st54,.st55,.st56,.st57{fill-rule:evenodd;clip-rule:evenodd;fill:#f6caa7}.st53,.st54,.st55,.st56,.st57{fill:#00188f}.st54,.st55,.st56,.st57{fill:#c69e83}.st55,.st56,.st57{fill:#b58861}.st56,.st57{fill:#505050}.st57{fill:#8a0000}.st58{fill:#fff880}.st59,.st60,.st61{fill-rule:evenodd;clip-rule:evenodd}.st59{stroke:#ffa940;stroke-width:2;stroke-miterlimit:10;stroke-dasharray:2,3;fill:none}.st60,.st61{fill:#69afe5}.st61{fill:#910f1b}.st62{fill:#ff8c00}.st63,.st64,.st65,.st66{fill-rule:evenodd;clip-rule:evenodd;fill:#bd3604}.st64,.st65,.st66{fill:#e26c41}.st65,.st66{fill:#bb9167}.st66{fill:#ba0e1c}.st67{fill:#bfc5cc}.st68{fill:#8e562e}.st68,.st69,.st70,.st71,.st72{fill-rule:evenodd;clip-rule:evenodd}.st70,.st71,.st72{fill:#d0b28d}.st71,.st72{fill:#666}.st72{fill:#b89e7c}.st73{fill:#5c005c}.st74,.st75{fill-rule:evenodd;clip-rule:evenodd;fill:#ff8c00}.st75{fill:#f0ae00}.st76{fill:#d0b28d}.st77{fill:#e81123}.st78{fill:#d9c1a4}.st79,.st80,.st81,.st82{fill-rule:evenodd;clip-rule:evenodd;fill:#d9c1a4}.st80,.st81,.st82{fill:#ee4d5a}.st81,.st82{fill:#939393}.st82{fill:#394453}.st83{fill:#f6cba7}.st84{fill:#a996f0}.st85{fill:#bcbec0}.st86{fill:#414042}.st87{fill:#6d6e71}.st88{fill:#8867c8}.st89{fill:#c09f81}.st90{fill:#ddb694}.st91{fill:#5c2d91}.st92{fill:#8c562f}.st93{fill:#451e7c}.st94{fill:#025b56}.st95{fill:#394453}.st96{fill:#999}.st97{fill:#8e562e}.st98{fill:gray}.st99{fill:#6d573e}.st100{fill-rule:evenodd;clip-rule:evenodd}.st100,.st101{fill:#b80409}.st102{fill:#613d30}.st103{fill:#d80d1a}.st104{fill:#ef502a}.st105{fill:none;stroke:#939393;stroke-miterlimit:10;stroke-dasharray:.9773,1.9547}.st106{fill:#0d520d}.st107{fill:#004b1c}.st108{fill:#3b930f}.st109{fill:#936f51}.st110{fill:#bce2bc}.st111{fill:#8a0000}.st112{fill:#003c16}.st113{fill:none}.st114{fill:#8ec3ec}.st115{fill:#395b71}.st116{fill:#65aa0d}.st117{fill:#90c10c}.st118{fill:#107c10}.st119{fill:#d2d2d2}.st120{fill:#939393}.st121{fill:#4d4d4d}.st122{fill:#472176}.st123{clip-path:url(#SVGID_4_)}.st124{fill:#724aad}.st125{fill:#282828}.st126{fill:none;stroke:#939393;stroke-width:.75;stroke-miterlimit:10}.st127{fill:#f57800}.st128{fill:#750000}.st129{fill:#900}.st130{fill:#d83b01}.st131{fill:#0872c4}.st132{fill:#bd3604}.st133{fill:#5e0000}.st134{fill:#464646}.st135{fill:#e6e6e6}.st136{fill:#a6a8ab}.st137{fill:#96bcce}.st138{fill-rule:evenodd;clip-rule:evenodd;fill:#fff200}.st139{fill:none;stroke:#fff100;stroke-width:.72;stroke-miterlimit:8}.st140,.st141,.st142{fill-rule:evenodd;clip-rule:evenodd;fill:#fff880}.st141,.st142{fill:#f0e300}.st142{fill:#ccc000}.st143,.st144,.st145,.st146,.st147,.st148{fill-rule:evenodd;clip-rule:evenodd;fill:#ffb900}.st144,.st145,.st146,.st147,.st148{fill:#ffcb40}.st145,.st146,.st147,.st148{fill:#c78e00}.st146,.st147,.st148{fill:#ffa940}.st147,.st148{fill:#f08400}.st148{fill:#ba6800}.st149,.st150,.st151,.st152,.st153,.st154{fill-rule:evenodd;clip-rule:evenodd;fill:#e81123}.st150,.st151,.st152,.st153,.st154{fill:#d91021}.st151,.st152,.st153,.st154{fill:#a3111e}.st152,.st153,.st154{fill:#b4009e}.st153,.st154{fill:#c740b6}.st154{fill:#9e008b}.st155,.st156,.st157,.st158,.st159,.st160{fill-rule:evenodd;clip-rule:evenodd;fill:#850063}.st156,.st157,.st158,.st159,.st160{fill:#5c2d91}.st157,.st158,.st159,.st160{fill:#8562ad}.st158,.st159,.st160{fill:#522882}.st159,.st160{fill:#401467}.st160{fill:#409ae1}.st161,.st162,.st163,.st164,.st165,.st166{fill-rule:evenodd;clip-rule:evenodd;fill:#006fc8}.st162,.st163,.st164,.st165,.st166{fill:#005291}.st163,.st164,.st165,.st166{fill:#008272}.st164,.st165,.st166{fill:#40a195}.st165,.st166{fill:#007365}.st166{fill:#005850}.st167,.st168,.st169,.st170,.st171,.st172{fill-rule:evenodd;clip-rule:evenodd;fill:#107c10}.st168,.st169,.st170,.st171,.st172{fill:#4c9d4c}.st169,.st170,.st171,.st172{fill:#0e6d0e}.st170,.st171,.st172{fill:#106110}.st171,.st172{fill:#e3008c}.st172{fill:#ea40a9}.st173,.st174,.st175,.st176,.st177,.st178{fill-rule:evenodd;clip-rule:evenodd;fill:#d40083}.st174,.st175,.st176,.st177,.st178{fill:#9c005f}.st175,.st176,.st177,.st178{fill:#b4a0ff}.st176,.st177,.st178{fill:#c7b8ff}.st177,.st178{fill:#a996f0}.st178{fill:#9080cf}.st179,.st180,.st181,.st182,.st183,.st184{fill-rule:evenodd;clip-rule:evenodd;fill:#00bcf2}.st180,.st181,.st182,.st183,.st184{fill:#40cdf5}.st181,.st182,.st183,.st184{fill:#00b0e3}.st182,.st183,.st184{fill:#0086ad}.st183,.st184{fill:#002050}.st184{fill:#40587c}.st185,.st186,.st187,.st188,.st189,.st190{fill-rule:evenodd;clip-rule:evenodd;fill:#001a41}.st186,.st187,.st188,.st189,.st190{fill:#001129}.st187,.st188,.st189,.st190{fill:#00b294}.st188,.st189,.st190{fill:#40c5af}.st189,.st190{fill:#00a387}.st190{fill:#008770}.st191,.st192,.st193,.st194,.st195,.st196{fill-rule:evenodd;clip-rule:evenodd;fill:#bad80a}.st192,.st193,.st194,.st195,.st196{fill:#cbe247}.st193,.st194,.st195,.st196{fill:#adc909}.st194,.st195,.st196{fill:#91a80a}.st195,.st196{fill:#d83b01}.st196{fill:#9c2801}.st197,.st198,.st199,.st200,.st201,.st202{fill-rule:evenodd;clip-rule:evenodd;fill:#a80000}.st198,.st199,.st200,.st201,.st202{fill:#be4040}.st199,.st200,.st201,.st202{fill:#900}.st200,.st201,.st202{fill:#750000}.st201,.st202{fill:#5c005c}.st202{fill:#854085}.st203,.st204,.st205,.st206,.st207,.st208{fill-rule:evenodd;clip-rule:evenodd;fill:#4d004d}.st204,.st205,.st206,.st207,.st208{fill:#380038}.st205,.st206,.st207,.st208{fill:#32145a}.st206,.st207,.st208{fill:#654f83}.st207,.st208{fill:#28114a}.st208{fill:#220c3d}.st209,.st210,.st211,.st212,.st213,.st214{fill-rule:evenodd;clip-rule:evenodd;fill:#4052ab}.st210,.st211,.st212,.st213,.st214{fill:#001580}.st211,.st212,.st213,.st214{fill:#001363}.st212,.st213,.st214{fill:#004b50}.st213,.st214{fill:#40787c}.st214{fill:#003d41}.st215,.st216,.st217,.st218,.st219,.st220{fill-rule:evenodd;clip-rule:evenodd;fill:#002f33}.st216,.st217,.st218,.st219,.st220{fill:#004b1c}.st217,.st218,.st219,.st220{fill:#407855}.st218,.st219,.st220{fill:#003c16}.st219,.st220{fill:#00240d}.st220{fill:#282828}.st221,.st222,.st223,.st224,.st225,.st226{fill-rule:evenodd;clip-rule:evenodd;fill:#d2d2d2}.st222,.st223,.st224,.st225,.st226{fill:#f3f3f3}.st223,.st224,.st225,.st226{fill:#e6e6e6}.st224,.st225,.st226{fill:#737373}.st225,.st226{fill:#c2c2c2}.st226{fill:#b2b2b2}.st227{fill:none;stroke:#e6e6e6;stroke-width:.36;stroke-miterlimit:8}.st228,.st229{fill-rule:evenodd;clip-rule:evenodd;fill:#613d30}.st229{fill:#f7d7c4}.st230{fill:#00a68c}.st231{fill:#009a83}.st232{fill:#008e7b}.st233{fill:#00abeb}.st234{fill:#009ae4}.st235{fill:#0089de}.st236{fill:#0060c5}.st237{fill:#0048b3}.st238{fill:#0030a1}.st239{fill:#00746a}.st240{fill:#006761}.st241{fill:#005959}.st242{fill:#0c7013}.st243{fill:#086416}.st244{fill:#045719}.st245{fill:#522783}.st246{fill:#9e008e}.st247{fill:#88007d}.st248{fill:#72006d}.st249{fill:#c80912}.st250{fill:#9e83e3}.st251{fill:#ec6401}.st252{fill:#e24f01}.st253{fill:#323232}.st254{fill:#2f2f2f}.st255{fill:#00188f}.st256{fill:#a80000}.st257{fill-rule:evenodd;clip-rule:evenodd;fill:#1ac3f3}.st258{fill:#d86e26}.st259{opacity:.2;fill:#fff}</style><switch><g><g id="Layer_1"><path class="st48" d="M450.886 165.578h-54.739c-4.31 0-4.083-5.746-.151-5.746h26.463c10.022 0 18.146-8.124 18.146-18.146s-8.124-18.146-18.146-18.146h-13.558c-5.041 0-5.344-6.956 0-6.956h17.188c7.516 0 13.609-6.093 13.609-13.609s-6.093-13.609-13.609-13.609h-70.163c-4.839 0-4.763-6.351-.302-6.351h95.265c7.516 0 13.609-6.093 13.609-13.609s-6.093-13.609-13.609-13.609h-90.275c-3.024 0-3.251-3.629-.302-3.629h4.687c10.022 0 18.146-8.124 18.146-18.146s-8.124-18.146-18.146-18.146h-97.381c-10.022 0-18.146 8.124-18.146 18.146s8.124 18.146 18.146 18.146h1.361c2.797 0 2.797 3.629 0 3.629h-67.895c-7.516 0-13.609 6.093-13.609 13.609s6.093 13.609 13.609 13.609h42.491c4.763 0 5.239 6.351 0 6.351h-67.29c-7.516 0-13.609 6.093-13.609 13.609s6.093 13.609 13.609 13.609h34.904c5.139.339 5.029 5.915 1.134 6.956h-39.667c-10.022 0-18.146 8.124-18.146 18.146s8.124 18.146 18.146 18.146h79.461c4.308 0 4.404 5.746 0 5.746h-51.033c-7.516 0-13.609 6.093-13.609 13.609s6.093 13.609 13.609 13.609h1.96c6.129 0 4.542 6.351.308 6.351h-27.067c-7.516 0-13.609 6.093-13.609 13.609s6.093 13.609 13.609 13.609h68.349c3.1 0 3.402 3.629 0 3.629-10.022 0-18.146 8.124-18.146 18.146s8.124 18.146 18.146 18.146h140.931c10.022 0 18.146-8.124 18.146-18.146s-8.124-18.146-18.146-18.146H375.43c-2.646 0-2.419-3.629-.079-3.629h50.736c7.516 0 13.609-6.093 13.609-13.609s-6.093-13.609-13.609-13.609h-19.204c-4.612 0-4.159-6.351.069-6.351h43.934c7.516 0 13.609-6.093 13.609-13.609s-6.093-13.609-13.609-13.609z"/><path class="st3" d="M358.72 295.662h-94.518c-1.971 0-3.695-1.633-3.695-3.5 0-1.983 1.724-3.5 3.695-3.5h94.518c2.094 0 3.695 1.517 3.695 3.5 0 1.867-1.601 3.5-3.695 3.5z"/><circle class="st49" cx="307.535" cy="138.359" r="101.364"/><path class="st50" d="M220.376 43.778l-4.195 6.88v1.059l6.292 11.114v.529l5.768 4.234 1.049 20.641s0 .529.524.529l2.097 6.351c0 .529 0 .529.524.529l3.146 3.705c0 .529.524.529.524.529l5.768 1.588.524.529c.524 0 1.049-.529 1.049-1.058.524-.529.524-1.059 0-1.588l-3.67-3.705v-7.939l14.682-18.524 4.719-12.173v-1.059l-2.097-4.234c0-.529-.524-.529-.524-.529-4.719-1.059-9.438-2.117-11.011-3.175v-3.176c0-.529 0-.529-.524-1.058l-8.914-7.409H224.048l-3.146 2.117-.526 5.293zM396.082 77.946l-4.208.982c-.516-.151-1.33.717-.813.867l-1.181.208-5.093.172-1.253-1.469c-.368-.66-.884-.81-1.549-.452l-5.39 1.189s-.516-.151-.665.358l-2.439 2.602-2.879.265c-.148.509-.665.358-.813.867l-6.885 14.005c-.665.358-.297 1.018.071 1.677l2.137 2.279-.89 3.053.736 1.319 9.806 6.724 1.549.452 4.357-1.49.148-.509 4.802-3.017 1.401.96c.368.659 1.033.301 1.033.301l1.846-.566.884.81 1.175 3.656s-.148.509.368.659l3.021 3.089 3.093 4.767c-.297 1.018-.302 4.881-.302 4.881-.148.509.22 1.168 6.186 9.533l4.79 4.709c-.148.509.884.81 1.033.301l4.873-1.34c.516.151.665-.358.665-.358l6.588-12.987c.148-.509.297-1.018-.071-1.677l-.884-.81 3.181-5.146c.148-.509.297-1.018-.071-1.677l-2.576-4.616-.956-2.487 1.412-6.766 3.104-2.96.297-1.018.528-7.576c.148-.509-.368-.659-.368-.659l-.22-1.168s-.368-.659-.884-.81c0 0-.516-.151-.665.358l-6.131 3.734-12.015-10.681.665-.358c-1.917-1.111-4.571-3.541-6.488-4.652l-4.06.472zM267.75 226.145l-6.336-7.252 3.696-2.59-5.28-6.734-.528-5.18-1.056-10.879-2.112 1.036h-.528l-3.168 2.072v-1.036l3.168-2.072c.528-.518.528-.518.528-1.554l-.528-1.554c0-1.036-1.056-1.036-1.584-1.036l-7.92 1.036-6.864 2.072-.528.518-6.336 5.698c0 .518-.528 1.036-.528 1.554l1.056 2.59c0 .518.528 1.036 1.056.518h2.64l1.056.518c.528.518 1.056.518 1.584 0l1.056-1.036 2.112-2.072h.528l1.056-2.59 2.112 3.626-3.696 2.072-6.336 1.036h-2.64c-.528 0-.528 0-1.056.518l-1.056 1.036-3.696-4.662c-.528-.518-.528-.518-1.056-.518s-1.056 0-1.056.518l-1.056 1.554c-.528.518 0 1.036 0 1.554l.528.518v1.036c0 .518.528 1.036.528 1.554l1.584 1.036-2.112 1.554c-.528 0-.528.518-.528 1.036s0 1.036.528 1.036l1.056.518v1.036h-4.224c-.528 0-1.056 0-1.056.518-.528 0-.528.518-.528 1.036l.528 5.698s0 .518.528.518c0 .518.528.518 1.056.518l4.224-1.036c.528 0 .528-.518 1.056-.518l2.64-4.144h5.28l3.168 2.59v1.554c0 1.036.528 1.036 1.056 1.554.528 0 1.056-.518 1.584-.518l1.056-1.554c0-.518 0-1.036-.528-1.554l-3.168-4.144 1.056-.518 2.64 4.662 1.584 2.072.528.518 1.584 1.036c.528.518 1.056.518 1.584 0 .528 0 .528-.518.528-1.036v-2.072l4.224 3.626c.528 0 .528.518 1.056.518l2.64-.518v2.59h-.528l-2.64-.518c1.056 2.072 3.168 4.662 4.752 6.216l.528-.518 1.056 1.554c2.112-1.036 6.336-2.59 6.336-2.59-.528.002 2.112-3.625 2.112-3.625zM392.951 235.357v-1.056h3.208l6.951-3.696c.535 0 1.069-.528 1.069-.528l1.069-5.808s0-.528-.535-.528l-2.673-3.696v-1.584c.535 0 0-.528 0-.528 0-.528-.535-.528-1.069-1.056l-2.139-.528h3.208l1.069 1.056v.528l3.208 3.168c.535 0 .535.528 1.069.528 0 0 .535-.528 1.069-.528l1.604-2.64c.535 0 0-1.056-.535-1.584l-2.139-1.584 1.604-2.64.535-3.168 3.208.528c.535 0 1.069-.528 1.069-1.056v-1.584l-6.416-5.28h-.535l-4.277-1.056 1.604-2.112h6.416c.535 0 .535-.528 1.069-1.056v-1.056h3.208l-.535 3.168c0 .528 0 1.056.535 1.584l4.277 2.64c.535 0 1.604 0 1.604-.528l1.069-.528c.535-.528.535-1.056 0-1.584l-2.139-3.168 4.277-2.112c.534 0 .534-.528.534-.528.535-.528 0-1.056 0-1.056l-.534-1.056h4.277c.535 0 1.069-.528 1.069-1.584 0-.528 0-1.056-.535-1.056-3.743-1.584-4.812-1.584-4.812-1.584-1.07 0-19.248-2.112-31.545-3.696h-.535l-4.812 1.056-15.505-1.056v-1.584c0-.528-.535-1.056-1.604-1.056h-12.297l-7.485 3.168-2.139-1.584c-.535-.528-1.069-.528-1.604 0l-2.139 2.64c-.535 0-.535.528-.535 1.056h-3.208l-6.951 1.056-1.598.525 1.069 10.561.535 5.28 5.347 6.864-3.743 2.64 5.881 7.392s-2.139 3.696-2.139 4.224c0 0-3.743 1.584-6.416 2.112l5.881 10.561c0 .528.535.528 1.604.528l8.02-2.112s.535 0 .535-.528l4.277-4.752c.535 0 .535-.528.535-1.056s-.535-.528-1.069-1.056l-3.208-1.584h-3.742l-2.673-2.64.535-.528 8.555 1.584 5.881 3.168 2.673 2.64v.528l2.673 2.112 1.604 3.168 1.604 5.28s0 .528.535.528l2.139 1.056c0 .528.535.528 1.069.528 0-.528.535-.528.535-1.056l2.139-5.28v-1.056l-.535-.528 1.069-.528.535-.528 3.208-4.224h2.673l1.604 2.112 1.069 2.112s8.02-.528 12.297-1.056l-1.605-1.055zM396.272 4.922l-3.213-1.555h-12.85-.535l-9.638 1.036c0-.518-.535-1.036-1.071-1.036h-9.102l-6.961 1.036c-.535 0-.535.518-.535 1.036-.535.518 0 1.036 0 1.555h1.071l-3.213 1.555h-.535l-3.213 3.628c-.535 0-1.071.518-1.071.518-.535-1.036-.535-2.073-1.071-2.073 0 0 0-.518-.535-.518s-2.677-1.036-3.748-1.036h-8.567c-1.606 0-5.354 1.555-6.425 2.073-.535.518-.535.518-.535 1.036-.535.518-.535.518 0 1.036l-9.102-.518-11.244-1.555h-.535l-9.102 2.591h-.535l-4.284 2.073c0 .518-.535 1.036-.535 1.036v1.036h-.535l-2.677 3.11c-.535 0-.535.518-.535.518 0 .518.535 1.036.535 1.036l.535.518h-.535l-8.567 2.073c-.535 0-.535.518-.535 1.036 0 1.037.535 1.555 1.071 1.037h8.031l4.284-1.555 5.354-2.591 3.213-.518 4.819 2.073v2.073l-1.606 5.701-3.748 5.701v1.036l1.071 6.219v.518l3.213 5.182 2.142 5.182c0 .518.535.518 1.071.518 1.071 0 1.606-.518 1.606-1.036s0-.518-.535-.518l-2.142-6.737 1.071-.518 2.142 5.182v5.182c0 .518 0 1.036.535 1.036l6.425 3.628h1.071l1.606-.518 2.677 1.555v.518h3.213l1.606 3.628c0 .518.535.518.535.518l6.961 2.591 1.606-.518-4.819-5.182v-2.591c0-.518-.535-1.036-1.071-1.036l-2.677-1.037 1.071-3.109v-1.036c-.535-.518-.535-.518-1.071-.518h-3.213s-.535 0-.535.518c-.535 0-.535.518-1.071.518s-1.606-.518-2.677-.518l1.606-5.701 7.496-2.073 1.606 4.146c.535 0 1.071.518 1.606.518l1.606-.518c1.071 0 1.071 0 1.606-1.036v-3.628l4.819-3.628c.535-.518.535-.518.535-1.036l.535-2.073 8.567-5.182h3.748c.535 0 1.071-.518 1.071-1.036l.535-2.591v-1.036l-1.071-1.036v-.518h4.819l2.142-1.555c.535 0 .535-.518.535-1.036v-1.037l-5.354-4.664-1.606-1.555c0-.518-.535-.518-.535-.518h-5.89c-.535 0-1.071.518-1.071 1.037l-1.606 4.146h-2.142c0-.518-.535-.518-.535-.518l-4.284-1.555 3.213-3.11 5.354-.518c.535 0 1.071-.518 1.071-.518l.535-2.591h3.748l1.606 2.073 1.071.518h.535l2.142.518c.535 0 1.071 0 1.071-.518l.535-.518h2.677c.535-.518 1.071-1.036 1.071-1.555l-.535-3.628s0-.518-.535-.518l-3.213-2.073-.535-.518 5.89-1.036 4.284 1.555 1.606 2.591-1.071 1.037s-.535 0-.535.518c-1.071 3.109-.535 3.628-.535 3.628 0 .518 0 1.036 3.213 4.146.535 0 1.071.518 1.606 0l3.748-2.591L377 18.399l9.102-2.591h.535l2.142-1.555v-1.037-1.036c1.606-1.555 2.677-3.109 3.213-3.109 0-.518 2.142-1.555 3.748-2.073.535 0 1.071-.518 1.071-1.037-.003-.521-.003-1.039-.539-1.039zM189.794 128.969c0 .514.566 1.029.566 1.029l5.657.514c.566 0 1.132-.514 1.697-1.029l1.697-6.686c0-.514-.566-1.029-.566-1.029-2.263-2.572-2.829-2.572-3.394-2.572-.566 0-1.132.514-2.829 2.572-.566 1.029-1.132 2.057-1.697 2.572-.566 0-1.132.514-1.697.514-.566.514-1.132.514-1.132 1.029v1.029l1.698 2.057zM199.864 112.408l-2.263 2.263c-.453.566-.453.566-.453 1.131 0 .566 0 .566.453 1.131l1.358 1.697c.453.566.905.566.905.566h.453c.453-.566.453-.566.453-1.131l.905-3.96c0-1.131-.453-1.697-.453-1.697h-1.358zM191.927 112.408h3.656c1.044 0 1.567-.905 1.567-1.358 0-.453-.522-.453-.522-.453l-4.178-4.526c0-.453-.522-.453-1.044-.453-.522.453-1.044.905-1.044 1.358v4.526s0 .453.522.453c-.002.453.52.453 1.043.453zM201.556 132.253l4.288-.522c0 .522.536 1.044 1.072 1.044h4.288c.536 0 1.072-.522 1.072-1.044v-1.567l5.896.522h.536c.536 0 .536-.522 1.072-1.044 0-.522-.536-1.044-1.072-1.044l-5.896-2.611h-8.04c-.536 0-1.072.522-1.072.522l-1.072 1.044-1.608-.522s-.536 0-1.072.522c-.536 0-.536.522-.536 1.044l1.072 2.611c0 .522.536 1.045 1.072 1.045zM178.398 123.723c-1.078 0-1.616.485-1.616.97s0 1.455.539 1.455c1.616.485 2.694.97 3.233 1.455.539 0 2.155 1.455 3.233 2.425h.539l2.155.485h1.078v-.485c.539 0 .539-.485.539-.97l-1.078-2.91c-.539-.485-.539-.485-1.078-.485l-7.544-1.94zM221.543 146.601l-3.494-4.7-1.498-4.7-.499-.522-1.997-1.567c-.499 0-.998-.522-.998 0-.499 0-.998 0-.998.522l-.998 3.133-1.997-.522.499-1.044s0-.522-.499-1.044c0 0-.499-.522-.998-.522h-4.493c-.499 0-.998.522-.998 1.044l-.499 2.089-.998-.522c-.499-.522-.998-.522-1.498 0l-3.994 4.178h-.499l-.998 2.089-4.992 1.567c-.499.522-.499 1.044-.499 1.044v9.922l-.499 1.567c0 .522 0 .522.499 1.044 0 .522.499.522.998.522l5.99-1.044h.499l5.491-3.656 2.995 2.089c.499.522 1.498 1.567 1.498 2.089 0 1.044 1.498 1.567 3.993 2.089h.499l3.994-1.567c0-.522 0-.522.499-.522l3.494-4.178c.499 0 .499 0 .499-.522l2.496-7.311c.499-.523.499-.523 0-1.045zM209.721 162.194h-2.012c-.503 0-1.006 0-1.006.503-.503 0-.503.503-.503 1.006l.503 2.012c.503.503.503 1.006 1.006 1.006h.503s.503 0 1.006-.503l1.509-2.012v-1.509c0-.001-.503-.503-1.006-.503zM234.053 148.767l-.522-1.207c0-.603-.522-1.207-1.044-1.207s-1.044.603-1.567 1.207l-1.567 6.035c-.522.603 0 1.207.522 1.81h.522c.522 0 .522 0 .522-.603l4.178-3.621c0-.603.522-1.207 0-1.207 0-.604-.522-1.207-1.044-1.207zM227.753 156.47c0-.532-.539-1.065-1.078-1.065 0 0-.539 0-1.078.532l-7.543 5.857c-.539.532-.539 1.065 0 1.597 0 .532.539 1.065 1.078.532h.539l8.082-4.792c.539-.532 1.078-1.065.539-1.597l-.539-1.064zM222.042 129.483c0 .617 0 1.234.647 1.852l5.819 3.086c0 .617.647.617.647.617.647 0 1.293-.617 1.293-.617.647-.617.647-1.852 0-2.469l-5.819-3.086c-.648-.617-1.941 0-2.587.617zM439.159 69.462c-.48-.664-1.101-.845-1.722-1.026-.761.302-.761.302-.902.785l-2.508 3.983-.563 1.931-.141.483.877 3.922.339 1.147c-.281.965.339 1.146.96 1.327l3.724 1.086.621.181.621.181.422-1.448.191-9.897c-.621-.181-.621-.181-.48-.664l-1.439-1.991zM410.97 170.755h.754l2.263-1.358c.377 0 .377-.453.377-.905s0-.905-.377-.905l-3.017-1.358c-.377 0-.754 0-.754.453-.377.453-.377.905-.377.905l.754 2.263c-.001.453-.001.453.377.905zM408.108 179.304c0 .503.532.503.532.503h.533c.532 0 3.727-1.006 5.325-1.509 2.13-1.006 2.13-3.52 2.13-3.52v-.503l-1.597-2.514c-.532-.503-.532-1.006-1.065-1.006s-1.065.503-1.065.503l-2.662 4.023-2.13 2.514c-.534.504-.534 1.007-.001 1.509z"/><path class="st51" d="M326.134 222.814c0-3.15-2.112-6.3-5.808-6.3-3.168-.525-6.336 2.1-6.336 5.25l-3.696 57.226c.528 1.575 6.864 2.625 7.392.525l8.448-56.701z"/><path class="st51" d="M326.134 223.344c-.538 3.96-3.229 6.223-6.996 6.223-3.229-.566-5.919-3.394-5.381-7.355 0-3.394 3.229-6.223 6.458-5.657 3.766 0 5.919 3.394 5.919 6.789z"/><path class="st51" d="M326.134 223.344c0 3.249-2.893 6.677-6.026 6.677-3.656 0-6.267-2.708-6.267-5.957l-6.789-46.033c0-5.957 4.178-10.29 9.922-10.831s10.445 3.791 10.445 9.748l-1.285 46.396zM294.98 222.814c-.528-3.15 2.112-6.3 5.808-6.3 3.168-.525 6.336 2.1 6.336 5.25l3.168 57.226c0 1.575-6.864 2.625-6.864.525l-8.448-56.701z"/><path class="st52" d="M294.995 223.344c0 3.96 3.259 6.223 7.061 6.223 3.259-.566 5.974-3.394 5.431-7.355 0-3.394-3.259-6.223-6.517-5.657-3.802 0-6.518 3.394-5.975 6.789z"/><path class="st51" d="M294.995 223.344c0 3.249 2.437 6.436 5.831 6.436s6.789-2.708 6.789-5.957l6.789-46.033c.566-5.957-4.526-10.29-10.183-10.831-6.223-.542-11.315 3.791-11.881 9.748l2.655 46.637z"/><path class="st53" d="M306.104 285.789c2.263 2.263 3.623 4.878 4.755 7.141h4.526c0-1.358.566-2.716 3.96-1.81"/><path class="st53" d="M314.545 286.135c-2.829 2.263-4.252 4.533-4.818 6.796h-5.092c.566-1.358 0-2.716-3.395-1.81"/><path class="st51" d="M229.183 115.758c-5.677-2.593-7.226-4.667-10.839-8.816-2.064-2.593-2.064-4.149-.516-3.63-2.581-2.074-2.581-5.186-.516-3.63-.516-.519-1.032-2.074 0-3.112 1.032-.519 2.064 1.556 2.581 2.074 0-1.037 1.548-1.556 3.097.519 1.032 2.074 2.581 2.593 2.581 2.593-.516-2.074 0-3.63 1.032-3.112 1.548 2.074 4.129 5.186 5.677 7.779 0 .519.516 1.037.516 1.556l11.871 8.816-7.226 4.149-8.258-5.186zM385.177 113.204c5.884-2.987 7.488-4.979 10.698-9.459 2.139-2.987 1.605-3.983 0-3.485 2.674-1.991 2.139-4.979 0-3.485.535-.996 1.07-2.489 0-2.987-1.07 0-2.14 1.494-2.14 1.991-.535-.498-2.139-.996-3.744.996-1.07 1.991-2.14 2.489-2.14 2.489.535-1.991-.535-2.987-1.605-2.987-1.07 2.489-3.744 5.476-4.814 7.966-.535.996-.535 1.494-.535 1.991l-11.768 8.961 8.023 3.485 8.025-5.476z"/><path class="st53" d="M310.752 182.044h-22.63l4.297-31.222-3.724-26.484 3.724-19.235h18.333z"/><path class="st53" d="M308.752 182.044h24.096l-4.196-31.222 6.993-32.896-6.993-12.823h-19.9z"/><path class="st53" d="M323.354 122.025c4.288 2.202 9.647 1.101 12.327-3.303 2.68-3.853 1.608-9.358-2.68-12.11-4.288-2.752-9.647-1.651-12.327 2.752-2.68 3.854-1.608 9.909 2.68 12.661z"/><path class="st53" d="M333.375 106.87l29.425 21.16-9.675 9.715-31.058-16.861z"/><path class="st0" d="M384.843 115.904l-7.635-7.867-2.082 1.631 7.454 8.046z"/><path class="st53" d="M361.341 127.818c-2.196-2.745-6.038-3.294-9.332-1.098-2.745 2.196-3.294 6.587-1.098 9.332 2.196 2.745 6.587 3.294 9.332 1.098 2.745-2.196 3.294-6.039 1.098-9.332z"/><path class="st53" d="M382.708 117.695l-22.333 19.259-9.348-9.58 24.124-17.745zM264.956 131.139c1.509 2.514 1.006 6.035-1.509 8.046-2.514 2.012-6.538 1.509-8.549-1.006-2.012-3.017-1.509-6.538 1.509-8.549 2.514-2.011 6.537-1.508 8.549 1.509zM294.574 120.203c-3.425 2.545-8.807 2.036-11.254-2.036-2.446-3.563-1.957-9.163 1.957-11.708 3.425-2.545 8.807-2.036 11.254 2.036 2.447 3.563 1.958 9.163-1.957 11.708z"/><path class="st53" d="M285.534 106.302l-29.553 22.389 6.606 11.067 31.827-19.493"/><path class="st0" d="M230.814 118.654l6.527-8.605 2.545 1.886-6.252 9.009z"/><path class="st53" d="M233.351 120.669l22.466 18.379 6.953-10.424-23-16.732z"/><path class="st0" d="M300.391 105.103h14.428l-8.486 54.311z"/><path class="st51" d="M314.819 91.525l-13.578.993v11.922s.543 7.451 6.517 7.451c5.431 0 5.974-7.451 5.974-7.451l1.087-12.915z"/><path class="st54" d="M300.958 88.572c-.539 7.146 5.24 12.005 13.322 11.409l.539-9.528-13.861-1.881z"/><path class="st51" d="M314.411 70.981c-9.46-11.138-24.485-3.713-23.928 6.895 0 10.608 8.347 14.32 16.138 14.851 5.565 1.061 11.129-2.122 13.912-3.182 3.339-1.061 2.782-2.652 2.782-2.652-1.113-1.591-3.895-6.895-3.339-8.486 2.782-1.591 1.434-2.196 1.113-2.652.32.455-5.565-2.652-6.121-3.713-.001 0-.557-.53-.557-1.061z"/><path class="st54" d="M304.635 80.21c-.754 0-1.132.411-1.132.823 0 .823.377 1.646 1.132 2.469l1.131 1.234c-.753-1.234-1.885-3.292-1.131-4.526z"/><path class="st55" d="M313.154 72.309c-.555-2.148-2.775-3.759-2.775-3.759-.555 0 2.775 3.759 1.665 4.296-1.11 1.074-9.436 1.074-4.996 6.981.555 1.074-1.665 1.074-2.775 1.074-1.11 0-1.665.537-1.665 1.074 0 1.074.555 2.148 1.665 3.222l1.665 1.611c1.11.537 2.775 4.833.555 6.981 0 0-7.771-.537-11.656-3.759-5.551-4.296-9.436-12.35-1.665-20.942 6.661-6.981 17.762-6.444 21.648 1.611l-1.666 1.61z"/><path class="st55" d="M291.333 82.473c-10.459 8.276-9.908 36.208 9.908 31.035-7.156-5.173-15.413-17.587-10.459-26.38 1.101-2.069 2.202-2.069 2.202-2.069"/><path class="st14" d="M308.549 281.615l-.519 4.629c0 1.543.519 2.057 2.597 2.572l11.426 3.086c2.077.514 4.674 1.029 7.271 1.029h6.752c3.636 0 2.078-2.057 1.558-2.057-2.597-1.029-8.829-2.572-13.504-5.143-4.155-2.058-15.581-4.116-15.581-4.116z"/><path class="st51" d="M309.727 277.09c0 1.616-1.132 3.233-1.697 4.31 0 1.616 17.586 6.465 17.586 6.465 1.384.415 5.132 1.092 4.567.554-4.526-2.155-13.101-8.096-13.101-10.251l-7.355-1.078z"/><path class="st14" d="M311.517 281.615l1.039 4.629c0 1.543-1.039 2.057-2.597 2.572l-11.426 3.086c-2.597.514-5.194 1.029-7.791 1.029h-6.232c-3.636 0-2.597-2.057-1.558-2.057 2.597-1.029 8.31-2.572 13.504-5.143 4.154-2.058 15.061-4.116 15.061-4.116z"/><path class="st51" d="M310.859 277.09c0 1.616 1.131 3.233 1.131 4.31.566 1.616-17.441 6.257-17.441 6.257-.899.554-4.302.954-3.736.415 4.526-2.155 12.691-7.75 12.691-9.905l7.355-1.077z"/><path class="st54" d="M294.79 218.13l.123 3.767 12.963.315.543-3.96zM312.984 218.252l.638 3.96h12.543l.11-3.96z"/><path class="st56" d="M310.03 77.912s.548-1.474 1.342-2.155c.794-.68 1.777-1.077 1.777-1.077l-.113.491s.217.172.363.465c.128.256.091.556.091.556s-.375.305-.718.491c-.425-.115-.703-.499-.703-.499s-.747.448-1.487 1.338c-.407.488-.552.39-.552.39z"/><path class="st57" d="M316.608 84.603s3.26-2.023 4.149-2.101c.889-.078.593.545.771.661.178.117.83.467-.474.817-1.304.351-4.446.623-4.446.623z"/><path class="st10" d="M310.03 182.044h-20.367v36.208h40.734v-36.208z"/></g></g></switch></svg>