<svg xmlns="http://www.w3.org/2000/svg" viewBox="0 0 636 300"><title>swimlane-global-data-storage</title><path d="M447.966,207a135.759,135.759,0,0,0,11.516-55h-3.358a132.428,132.428,0,0,1-11.82,55Z" fill="#d2d2d2"/><path d="M471.151,152.208a14.126,14.126,0,1,1-14.125-14.125,14.124,14.124,0,0,1,14.125,14.125" fill="#106ebe"/><path d="M466,153v-1h-3.175a5.691,5.691,0,0,0-1.125-2.552l2.293-2.292-1.149-1.149-2.314,2.312A5.7,5.7,0,0,0,458,147.3V144h-1v3.3a5.693,5.693,0,0,0-2.53,1.023l-2.314-2.313-1.15,1.149,2.294,2.292A5.691,5.691,0,0,0,452.175,152H449v1h3.131a5.674,5.674,0,0,0,1.045,2.674l-2.17,2.17,1.15,1.148,2.149-2.147A5.688,5.688,0,0,0,457,157.992V161h1v-3.008a5.7,5.7,0,0,0,2.7-1.147l2.148,2.147,1.149-1.148-2.169-2.169A5.683,5.683,0,0,0,462.87,153Zm-8.788,2.928a3.72,3.72,0,1,1,3.719-3.719,3.719,3.719,0,0,1-3.719,3.719" fill="#fff"/><path d="M418.813,158.779A99.413,99.413,0,1,1,389.7,88.48a99.412,99.412,0,0,1,29.117,70.3" fill="#479cdf"/><path d="M380,94h.605l.858,3.858L386,95.715V100h-5.174q.249,3.813.253,7.686c0,2.237-.069,4.457-.194,6.663L383,112.588V114.7l8,4.989V122h-4v2h6v-4.058l1.06-.544-6.356-4.174-1-4.224h3.72L396,115.95V120.4l3.769,3.814,1.724-5.534L405,116.777v4.4L407.616,124h5.028a27.547,27.547,0,0,0-1.345-3H407v-8.727a103.045,103.045,0,0,0-9.828-15.1l-2.83,2.83H388V98.729l4-2.723V90.7a103.979,103.979,0,0,0-8-7.639v4.151L380.78,88.3l-1.561,1.052q.374,2.316.651,4.661" fill="#db9d00"/><path d="M319.076,211.445a118.2,118.2,0,0,1-29.094,10.806L288.7,228.62l3.3,3.814v8.453l4.414,8.392L302.482,254h6.071l.965-2.163-4.483-3.607L306,244.1V242h-2.611l-1.633-1.685L305,237.592v-1.565l-3-.544V234h3.827l6.193-3.13L320,218.829v-1.978l-1.238-4.967Z" fill="#db9d00"/><path d="M413.247,125.814l1.99,7.186h-8.882l-4.131-4H397v4h-2l-1.733-1.419L385,129.387V124h-4.637a115.293,115.293,0,0,1-16.106,45h4.855l2.314-2h3.944l2.178,3H383v8.6l7.2,12.246-3.2,6.8v4.354l2,1.77V212.3l4,5.578V224h1.3a99.637,99.637,0,0,0,18.943-98.761" fill="#db9d00"/><path d="M323.089,209h3.564l4.286-4.285.038-.777Q327.143,206.623,323.089,209Z" fill="#ed8422"/><path d="M380.479,110.106c0-3.6,3.976-6.241,3.655-9.761q-.154-1.695-.359-3.389c-.161-1.341-1.99-2.22-2.2-3.545a11.32,11.32,0,0,1,.621-3.746l-4.009-11.2a99.536,99.536,0,0,0-132.4,147.321c3.408.65,4.237-1.809,7.744-1.46l2.521-17.555,9.2,21.064c.847.019,1.695.031,2.542.031a117.631,117.631,0,0,0,21.635-2c1.34-3.346,9.2-5.185,14.116-6.813,5.265-1.746,11.362-5.136,16.3-3.4a117.36,117.36,0,0,0,48.852-45.7c-2.5-2.26,4.083-16.807,6.745-25.5,2.1-6.863,3.211-18.745,8.475-20.479q.423-3.885.6-7.85c.072-1.688-4.031-4.309-4.031-6.014" fill="#69afe5"/><path d="M377.959,100l-4,6h-4.51l-.862,5H371v4.241L367.06,114h-4.03L359,115.592v6.2l2.9,2.2H371v-1.977L376.774,116h3.068L383,113.369v2.059l1.779,1.113c.077-1.77.123-3.546.123-5.337,0-3.778-.179-7.514-.514-11.2Z" fill="#f0ae00"/><path d="M347,150v9.133L356.865,169H369.3l.037-.039A115.264,115.264,0,0,0,384,124H373.33l-3,2h-7.83l-4.5,3.056v5.694l-11,8.056V146h3v4Z" fill="#f0ae00"/><path d="M381.264,98.083l2.33-1.1c-.282-2.391-.651-5.534-1.079-7.877L377,92.064V94h3.356Z" fill="#f0ae00"/><path d="M319.1,215.626l-.993-4.027,1.865-2.6H326.3l4.213-4.354.534-11.06,3.428-4.165A6.677,6.677,0,0,0,336,185.179v-.855l-3.945-.968L330.049,179h-9.095L314,176.028v-2.512a5.343,5.343,0,0,0-.791-2.8L311.537,168h-6.222l-4.58-7.071L298,160v2h-4.817l-2.457-3.487-6.388-.7-4.421,5.581L271,162.349V154.62a1.7,1.7,0,0,0-1.473-1.684l-5.054-.7L267,148.048v-1.706a1.226,1.226,0,0,0-.187-.652,1.24,1.24,0,0,0-.5-.456,1.251,1.251,0,0,0-1.305.117L258.787,150h-4.111l-.414-.887a8.8,8.8,0,0,1-.191-6.986l.921-2.272a8.239,8.239,0,0,1,3.786-4.241l1.195-.629a8.572,8.572,0,0,1,3.99-.985H273v2.646a4.332,4.332,0,0,0,.492,2.005,4.084,4.084,0,0,0,1.35,1.508l.747.5a.909.909,0,0,0,.464.148.891.891,0,0,0,.469-.119.944.944,0,0,0,.349-.355,1.011,1.011,0,0,0,.129-.489v-6.669l5-4.566,5-2.681v-4.55l6.33-5.875,6.67-3.064v-1.377l3.674-2.939,1.254.357a2.563,2.563,0,0,0,1.437-.009,2.357,2.357,0,0,0,1.167-.769.409.409,0,0,0,.043-.458.456.456,0,0,0-.177-.177.5.5,0,0,0-.25-.066h-1.236a1.773,1.773,0,0,1-1.066-.33,1.521,1.521,0,0,1-.6-.873,1.382,1.382,0,0,1,.017-.658,1.458,1.458,0,0,1,.322-.589,1.622,1.622,0,0,1,.564-.405,1.74,1.74,0,0,1,.7-.145h1.257a2.338,2.338,0,0,1,2.045,1.213l.433.787h4.31l1.839-2H317v1.927l-1.517,1.713a.911.911,0,0,0-.2.382.994.994,0,0,0-.011.444.939.939,0,0,0,.18.4.794.794,0,0,0,.328.246l4.708,1.864a1,1,0,0,0,.535.059,1.061,1.061,0,0,0,.5-.223,1.242,1.242,0,0,0,.353-.457,1.408,1.408,0,0,0,.127-.589v-1.2l-4-1.846v-1.439l3-1.125v-2.686a2.211,2.211,0,0,0-1.129-1.929L317,97.924v-3.45a1.24,1.24,0,0,0-.617-1.07,1.269,1.269,0,0,0-1.246-.025L312.1,95h-2.175l.34-4.429L303.331,88.9,300,90.979v6.642l-5.237,1.95L292.452,104H290V98.76l-5.2-.748-2.5-2.246-.194-2.051a2.409,2.409,0,0,1,1.121-2.274l6.777-4.247,3.4-.879a1.259,1.259,0,0,1,.576-.015,1.274,1.274,0,0,1,.523.243A1.286,1.286,0,0,1,295,87.559V89h2.17a1.027,1.027,0,0,0,.943-.315c.25-.25-.113-.943-.113-.943V87h1.753a1.3,1.3,0,0,0,.315-.124.589.589,0,0,0,.219-.242.6.6,0,0,0,.061-.32.624.624,0,0,0-.119-.3L299.048,84h3.4l2.584-2.743,5.64-.508a2.5,2.5,0,0,1,1.991.723l.644.644a1.212,1.212,0,0,1,.342,1.047,1.228,1.228,0,0,1-.216.524,1.208,1.208,0,0,1-.429.368c-1.18.6-2.825,1.445-4,2.068a.7.7,0,0,0-.3.3.7.7,0,0,0-.079.413.717.717,0,0,0,.172.385.694.694,0,0,0,.361.218l6.2,1.653a1.558,1.558,0,0,0,1.182-.157,1.553,1.553,0,0,0,.723-.949l.178-.669a1.568,1.568,0,0,1,.555-.837,5.539,5.539,0,0,1,.951-.477H322.6l1.106-1.9a.682.682,0,0,0-.025-.735.817.817,0,0,0-.305-.265.91.91,0,0,0-.411-.1H321V79.421l-6.884-2.782a11.268,11.268,0,0,0-7.554-.316L301,78.046v2.615a1.077,1.077,0,0,1-.094.44,1.064,1.064,0,0,1-.264.363,1.074,1.074,0,0,1-.839.268l-1.844-.2A1.08,1.08,0,0,1,297,80.457V78.715L298.759,77a.893.893,0,0,0,.264-.459.9.9,0,0,0-.372-.94,1.006,1.006,0,0,1-.507-.6h-4.509a2.558,2.558,0,0,1-.948.72,1.774,1.774,0,0,0-.659.733L291.156,78h.97a7.71,7.71,0,0,1,.853.59c.226.226.021.853.021.853v.649s.2.627-.021.853a.559.559,0,0,1-.853.055h-3.419l-.641,1.279a1.718,1.718,0,0,1-.63.579,1.178,1.178,0,0,1-.829.142h-3.37a1.45,1.45,0,0,1-1.231-.443c-.327-.326-1.006-1.232-1.006-1.232V79h5.094l2.772-3.418-.918-.656a1.225,1.225,0,0,0-1.619.174l-1.154,1.275a1.893,1.893,0,0,1-1.408.625H281.8s-.681.342-.98.174a2.008,2.008,0,0,1-.73-.7L278.434,74h-4.988a4.088,4.088,0,0,0-2.689,1.008l-2.245,1.947a.611.611,0,0,0-.186.3A.6.6,0,0,0,268.9,78H273v1.592l-.226.217A.691.691,0,0,0,273.252,81h3.461a1.926,1.926,0,0,1,1.124.362,1.838,1.838,0,0,1,.681.945l.215.693h-5.657a2.152,2.152,0,0,1-1.211-.372,2.056,2.056,0,0,1-.773-.982l-.318-.85-6.107-2.205-3.91.139-1.031.482A99.164,99.164,0,0,0,234,107.313v1.127l-1.591,1.581A95.976,95.976,0,0,0,226,123.807v2.637l4,2.178V134.3a8.772,8.772,0,0,0,1.084,4.224l3,5.472H236v-2.813l-2-5.942v-2.968a2,2,0,0,1,2-2v5.291l4,6.668V145h1v2.223l2.755,5.443,8.564,2.415a.545.545,0,0,0,.244.012.538.538,0,0,0,.224-.1.532.532,0,0,0,.157-.186.515.515,0,0,0,.056-.235v-1.1a.392.392,0,0,1,.032-.156.37.37,0,0,1,.091-.125.323.323,0,0,1,.131-.071.285.285,0,0,1,.145,0l2.343.556a.331.331,0,0,1,.186.127.383.383,0,0,1,.072.226v1.6a.57.57,0,0,0,.1.32.488.488,0,0,0,.253.189l5.072,1.588a2.1,2.1,0,0,1,1.033.719L267.515,165H275.4a1.6,1.6,0,0,1,1.131.472A1.608,1.608,0,0,1,277,166.61v3.969l-5,5.035v10.423l8,8V197h3.178L289,202.987V220h1.593l-1.12,5.6a113.587,113.587,0,0,0,29.627-9.968Z" fill="#f0ae00"/><path d="M265,91h-4.963a.4.4,0,0,1-.246-.083.389.389,0,0,1-.144-.215.4.4,0,0,1,.018-.259.392.392,0,0,1,.173-.193l1.56-.888A2.76,2.76,0,0,1,262.764,89H265Z" fill="#69afe5"/><path d="M285,117.494l-.747.749a2.577,2.577,0,0,1-1.825.757h-1.4a.821.821,0,0,1-.373-.09.834.834,0,0,1-.288-.253.8.8,0,0,1-.14-.358.81.81,0,0,1,.041-.381l.494-1.375,3.192-.975a.814.814,0,0,1,.373-.024.827.827,0,0,1,.343.147.807.807,0,0,1,.328.65Z" fill="#69afe5"/><path d="M285,112.422c.423.164.389.328.325.478a1.217,1.217,0,0,1-.279.4l-.706.668a.545.545,0,0,1-.835.031H282v-3h3Z" fill="#69afe5"/><path d="M288,112a.4.4,0,0,1,.472-.391.4.4,0,0,1,.2.109l.606.606a.4.4,0,0,1,.109.2.391.391,0,0,1-.024.229.4.4,0,0,1-.147.178A.408.408,0,0,1,289,113h-1Z" fill="#69afe5"/><path d="M286,113.411l3.59.685a1.249,1.249,0,0,1,.72.432c.184.223.284.5-.31.791V117h-1.412a4.106,4.106,0,0,1-1.052-.343,2.246,2.246,0,0,1-.805-.726l-.731-.886Z" fill="#69afe5"/><path d="M284,108.485a.4.4,0,0,1,.249-.37.4.4,0,0,1,.436.087l1.113,1.114a.4.4,0,0,1,.11.2.385.385,0,0,1-.023.232.4.4,0,0,1-.146.181.413.413,0,0,1-.224.066H284Z" fill="#69afe5"/><path d="M274,114.634a2.448,2.448,0,0,1,.586-1.359l2.6-2.275H274v-1.556l3.152-2.154a1.666,1.666,0,0,1,.94-.29H280.3a1.457,1.457,0,0,1,.874.3,1.78,1.78,0,0,1,.587.793l.235.615V110h-2.089l-4.014,7.3-.52-.249a2.33,2.33,0,0,1-.961-.858,3.106,3.106,0,0,1-.416-1.24Z" fill="#69afe5"/><path d="M270.1,99.663a1.27,1.27,0,0,1,1.018-.21l.9.2a1.273,1.273,0,0,1,.711.447,1.259,1.259,0,0,1,.278.792v1.977l-1.854.883a1.273,1.273,0,0,1-1.609-.452l-1.436-2.2Z" fill="#939393"/><path d="M258.359,84.565a1.115,1.115,0,0,1,.9-1.091L261.68,83H265v1.953l-.829.632a2.028,2.028,0,0,1-1.229.415h-3.465a1.111,1.111,0,0,1-1.111-1.109Z" fill="#69afe5"/><path d="M186.392,158h-3.333a134.789,134.789,0,0,1,25.667-79.464l2.7,1.951A131.5,131.5,0,0,0,186.392,158Z" fill="#d2d2d2"/><path d="M319.037,294.207a135.9,135.9,0,0,1-90.894-34.777l2.225-2.482a132.831,132.831,0,0,0,203.388-31.9l2.878,1.683a136.1,136.1,0,0,1-117.6,67.479Z" fill="#d2d2d2"/><path d="M221.07,64.832l-2.43-2.284A143.728,143.728,0,0,1,384.151,30.729l-1.413,3.019A140.386,140.386,0,0,0,221.07,64.832Z" fill="#d2d2d2"/><path d="M169,51.517V95.482a13.593,13.593,0,0,0,3.947,9.546A13.434,13.434,0,0,0,182.436,109l79.249-.187L242.977,96.264c.015-.26.023-.52.023-.782V51.517a13.6,13.6,0,0,0-3.948-9.548A13.432,13.432,0,0,0,229.56,38H182.436a13.433,13.433,0,0,0-9.489,3.971A13.592,13.592,0,0,0,169,51.517Z" fill="#106ebe"/><path d="M398.327,278.461a19.63,19.63,0,1,1-5.75-13.882A19.63,19.63,0,0,1,398.327,278.461Z" fill="#106ebe"/><path d="M433,18H389.518A13.527,13.527,0,0,0,376,31.454V99.7l12.737-18.736c.258.015,44.746.025,44.746.025A13.526,13.526,0,0,0,447,67.533V31.458a13.458,13.458,0,0,0-3.97-9.5A13.6,13.6,0,0,0,433.483,18" fill="#d2d2d2"/><path d="M396.155,140.689a5.791,5.791,0,0,0-5.791,5.791c0,5.875,5.791,11.873,5.791,11.873s5.79-6.327,5.79-11.873a5.791,5.791,0,0,0-5.79-5.791Z" fill="#fff"/><path d="M367.214,111.86a5.794,5.794,0,0,0-5.791,5.791c0,5.875,5.791,11.874,5.791,11.874s5.791-6.328,5.791-11.874a5.794,5.794,0,0,0-5.791-5.791Z" fill="#fff"/><path d="M292.717,166.628a5.792,5.792,0,0,0-5.791,5.791c0,5.875,5.791,11.875,5.791,11.875s5.79-6.329,5.79-11.875a5.792,5.792,0,0,0-5.79-5.791Z" fill="#fff"/><path d="M292.227,95.008a5.791,5.791,0,0,0-5.791,5.791c0,5.875,5.791,11.873,5.791,11.873s5.79-6.327,5.79-11.873a5.791,5.791,0,0,0-5.79-5.791Z" fill="#fff"/><path d="M268.553,92.155a5.791,5.791,0,0,0-5.791,5.791c0,5.874,5.791,11.873,5.791,11.873s5.791-6.328,5.791-11.873a5.792,5.792,0,0,0-5.791-5.791Z" fill="#fff"/><path d="M439,187.869V221h33.13A33.13,33.13,0,0,0,439,187.869Z" fill="#479cdf"/><path d="M436,223.966V191.932A32.03,32.03,0,1,0,452.7,251.3c8.655-5.3,7.788-25.307,7.788-25.307Z" fill="#d2d2d2"/><path d="M459.041,246.646A31.927,31.927,0,0,0,468.422,224H436.4Z" fill="#939393"/><path d="M459.041,246.611,436.4,223.965,453.09,251.3a32.213,32.213,0,0,0,5.951-4.69" fill="#b2b2b2"/><path d="M432,40H391V62h41Z" fill="#505050"/><path d="M432.928,28H391.072a3.088,3.088,0,0,0-1.182.219,3.048,3.048,0,0,0-1,.652,2.955,2.955,0,0,0-.664.984A2.922,2.922,0,0,0,388,31.014v6.972a2.922,2.922,0,0,0,.224,1.159,2.955,2.955,0,0,0,.664.984,3.048,3.048,0,0,0,1,.652,3.088,3.088,0,0,0,1.182.219h41.856a3.072,3.072,0,0,0,1.181-.219,3.032,3.032,0,0,0,1-.652,2.973,2.973,0,0,0,.665-.984A2.921,2.921,0,0,0,436,37.986V31.014a3,3,0,0,0-.906-2.125A3.122,3.122,0,0,0,432.928,28Z" fill="#737373"/><path d="M432,31h-9v2h9Z" fill="#e26c41"/><path d="M432.928,44H391.072a3.088,3.088,0,0,0-1.182.219,3.048,3.048,0,0,0-1,.652,2.955,2.955,0,0,0-.664.984A2.922,2.922,0,0,0,388,47.014v6.972a2.922,2.922,0,0,0,.224,1.159,2.955,2.955,0,0,0,.664.984,3.048,3.048,0,0,0,1,.652,3.088,3.088,0,0,0,1.182.219h41.856a3.072,3.072,0,0,0,1.181-.219,3.032,3.032,0,0,0,1-.652,2.973,2.973,0,0,0,.665-.984A2.921,2.921,0,0,0,436,53.986V47.014a3,3,0,0,0-.906-2.125A3.122,3.122,0,0,0,432.928,44Z" fill="#737373"/><path d="M432,47h-9v2h9Z" fill="#e26c41"/><path d="M432.928,60H391.072a3.088,3.088,0,0,0-1.182.219,3.048,3.048,0,0,0-1,.652,2.955,2.955,0,0,0-.664.984A2.922,2.922,0,0,0,388,63.014v6.972a2.922,2.922,0,0,0,.224,1.159,2.955,2.955,0,0,0,.664.984,3.048,3.048,0,0,0,1,.652,3.088,3.088,0,0,0,1.182.219h41.856a3.072,3.072,0,0,0,1.181-.219,3.032,3.032,0,0,0,1-.652,2.973,2.973,0,0,0,.665-.984A2.921,2.921,0,0,0,436,69.986V63.014a2.921,2.921,0,0,0-.223-1.159,2.973,2.973,0,0,0-.665-.984,3.032,3.032,0,0,0-1-.652A3.072,3.072,0,0,0,432.928,60Z" fill="#737373"/><path d="M432,62h-9v2h9Z" fill="#e26c41"/><path d="M396.155,149.645a3.042,3.042,0,1,1,2.149-.891,3.05,3.05,0,0,1-2.149.891" fill="#69afe5"/><path d="M367.214,120.817a3.044,3.044,0,1,1,2.152-.891A3.045,3.045,0,0,1,367.214,120.817Z" fill="#69afe5"/><path d="M292.717,175.586a3.038,3.038,0,1,1,1.165-.232A3.044,3.044,0,0,1,292.717,175.586Z" fill="#69afe5"/><path d="M292.227,103.964a3.042,3.042,0,1,1,2.152-.891A3.038,3.038,0,0,1,292.227,103.964Z" fill="#69afe5"/><path d="M268.553,101.112a3.042,3.042,0,1,1,2.152-.891A3.045,3.045,0,0,1,268.553,101.112Z" fill="#69afe5"/><path d="M200.151,152.208a14.126,14.126,0,1,1-14.125-14.125,14.124,14.124,0,0,1,14.125,14.125" fill="#939393"/><path d="M195,153v-1h-3.175a5.691,5.691,0,0,0-1.125-2.552l2.293-2.292-1.149-1.149-2.314,2.312A5.7,5.7,0,0,0,187,147.3V144h-1v3.3a5.693,5.693,0,0,0-2.53,1.023l-2.314-2.313-1.15,1.149,2.294,2.292A5.691,5.691,0,0,0,181.175,152H178v1h3.131a5.674,5.674,0,0,0,1.045,2.674l-2.17,2.17,1.15,1.148,2.149-2.147A5.688,5.688,0,0,0,186,157.992V161h1v-3.008a5.7,5.7,0,0,0,2.7-1.147l2.148,2.147,1.149-1.148-2.169-2.169A5.683,5.683,0,0,0,191.87,153Zm-8.788,2.928a3.72,3.72,0,1,1,3.719-3.719,3.719,3.719,0,0,1-3.719,3.719" fill="#fff"/><path d="M511.794,113.94a1.75,1.75,0,0,0-3.425.719,194.249,194.249,0,0,1,4.117,39.841A192.426,192.426,0,0,1,452.2,294.625a1.75,1.75,0,0,0,2.406,2.542,196.842,196.842,0,0,0,57.19-183.227Z" fill="#d2d2d2"/><path d="M195.939,2.373a1.751,1.751,0,0,0-1.281.392A195.954,195.954,0,0,0,123.014,154.5a199.047,199.047,0,0,0,1.414,23.689,1.749,1.749,0,0,0,1.735,1.541,1.683,1.683,0,0,0,.211-.013,1.751,1.751,0,0,0,1.528-1.946,195.5,195.5,0,0,1-1.388-23.271A192.467,192.467,0,0,1,196.885,5.466a1.75,1.75,0,0,0-.946-3.093Z" fill="#d2d2d2"/><path d="M349.218,19.931a18.4,18.4,0,1,1-5.39-13.013A18.4,18.4,0,0,1,349.218,19.931Z" fill="#939393"/><polygon points="341 17 321 17 321 20.12 329 29.959 329 35 333 35 333 30.087 341 20.12 341 17" fill="#fff"/><rect x="324" y="9" width="2" height="4" fill="#fff"/><rect x="328" y="11" width="2" height="4" fill="#fff"/><rect x="332" y="5" width="2" height="4" fill="#fff"/><rect x="335" y="11" width="2" height="4" fill="#fff"/><path d="M147,187H106v22h41Z" fill="#505050"/><path d="M147.928,175H106.072a3.088,3.088,0,0,0-1.182.219,3.048,3.048,0,0,0-1,.652,2.955,2.955,0,0,0-.664.984,2.922,2.922,0,0,0-.224,1.159v6.972a2.922,2.922,0,0,0,.224,1.159,2.955,2.955,0,0,0,.664.984,3.048,3.048,0,0,0,1,.652,3.088,3.088,0,0,0,1.182.219h41.856a3.081,3.081,0,0,0,1.182-.219,3.038,3.038,0,0,0,1-.652,2.958,2.958,0,0,0,.665-.984,2.9,2.9,0,0,0,.223-1.159v-6.972a3,3,0,0,0-.905-2.125A3.124,3.124,0,0,0,147.928,175Z" fill="#737373"/><path d="M146,178h-9v2h9Z" fill="#e26c41"/><path d="M147.928,191H106.072a3.088,3.088,0,0,0-1.182.219,3.048,3.048,0,0,0-1,.652,2.955,2.955,0,0,0-.664.984,2.922,2.922,0,0,0-.224,1.159v6.972a2.922,2.922,0,0,0,.224,1.159,2.955,2.955,0,0,0,.664.984,3.048,3.048,0,0,0,1,.652,3.088,3.088,0,0,0,1.182.219h41.856a3.081,3.081,0,0,0,1.182-.219,3.038,3.038,0,0,0,1-.652,2.958,2.958,0,0,0,.665-.984,2.9,2.9,0,0,0,.223-1.159v-6.972a3,3,0,0,0-.905-2.125A3.124,3.124,0,0,0,147.928,191Z" fill="#737373"/><path d="M146,194h-9v2h9Z" fill="#e26c41"/><path d="M147.928,206H106.072a3.088,3.088,0,0,0-1.182.219,3.048,3.048,0,0,0-1,.652,2.955,2.955,0,0,0-.664.984,2.922,2.922,0,0,0-.224,1.159v6.972a2.922,2.922,0,0,0,.224,1.159,2.955,2.955,0,0,0,.664.984,3.048,3.048,0,0,0,1,.652,3.088,3.088,0,0,0,1.182.219h41.856a3.081,3.081,0,0,0,1.182-.219,3.038,3.038,0,0,0,1-.652,2.958,2.958,0,0,0,.665-.984,2.9,2.9,0,0,0,.223-1.159v-6.972a2.9,2.9,0,0,0-.223-1.159,2.958,2.958,0,0,0-.665-.984,3.038,3.038,0,0,0-1-.652A3.081,3.081,0,0,0,147.928,206Z" fill="#737373"/><path d="M146,209h-9v2h9Z" fill="#e26c41"/><path d="M208,277h43.482A13.527,13.527,0,0,0,265,263.546V195.3l-12.737,18.736c-.258-.015-44.746-.025-44.746-.025A13.526,13.526,0,0,0,194,227.467v36.075a13.458,13.458,0,0,0,3.97,9.5A13.6,13.6,0,0,0,207.517,277" fill="#d2d2d2"/><path d="M253.936,252H207v10.135c0,3.785,10.521,6.853,23.5,6.853s23.5-3.068,23.5-6.853C254,261.973,253.936,252,253.936,252Z" fill="#939393"/><path d="M230.032,245.145c-12.9,0-23.365,3.068-23.365,6.853s10.46,6.853,23.365,6.853S253.4,255.783,253.4,252,242.936,245.145,230.032,245.145Zm0,10.66c-10.143,0-18.365-1.977-18.365-4.416s8.222-4.417,18.365-4.417,18.365,1.978,18.365,4.417S240.174,255.805,230.032,255.805Z" fill="#fff"/><path d="M253.936,240H207v10.135c0,3.785,10.521,6.853,23.5,6.853s23.5-3.068,23.5-6.853C254,249.973,253.936,240,253.936,240Z" fill="#939393"/><path d="M230.032,233.2c-12.9,0-23.365,3.068-23.365,6.853s10.46,6.853,23.365,6.853,23.364-3.068,23.364-6.853S242.936,233.2,230.032,233.2Zm0,10.66c-10.143,0-18.365-1.977-18.365-4.416s8.222-4.416,18.365-4.416,18.365,1.977,18.365,4.416S240.174,243.861,230.032,243.861Z" fill="#fff"/><path d="M253.936,228H207l.013,9.983c0,.05-.013.1-.013.152,0,3.785,10.521,6.853,23.5,6.853s23.5-3.068,23.5-6.853C254,237.973,253.936,228,253.936,228Z" fill="#939393"/><path d="M209.623,229.551s-1.865-7.256,20.6-7.256,20.515,6.036,20.515,6.036-5.108,4.816-18.65,4.816S209.623,229.551,209.623,229.551Z" fill="#737373"/><ellipse cx="230.032" cy="229.901" rx="18.365" ry="4.416" fill="#939393"/><path d="M230.032,221.257c-12.9,0-23.365,3.069-23.365,6.853s10.46,6.853,23.365,6.853S253.4,231.9,253.4,228.11,242.936,221.257,230.032,221.257Zm0,10.661c-10.143,0-18.365-1.978-18.365-4.417s8.222-4.416,18.365-4.416S248.4,225.062,248.4,227.5,240.174,231.918,230.032,231.918Z" fill="#fff"/><path d="M244,263.488a48,48,0,0,1-5,.809v2.284a48.825,48.825,0,0,0,5-.8Z" fill="#d2d2d2"/><path d="M246,263.086V265.2a26.479,26.479,0,0,0,4-1.321v-2.068A38.131,38.131,0,0,1,246,263.086Z" fill="#d2d2d2"/><path d="M532.936,115H486v10.135c0,3.785,10.521,6.853,23.5,6.853s23.5-3.068,23.5-6.853C533,124.973,532.936,115,532.936,115Z" fill="#479cdf"/><path d="M509.7,108.478c-12.9,0-23.365,3.068-23.365,6.853s10.461,6.853,23.365,6.853,23.365-3.068,23.365-6.853S522.6,108.478,509.7,108.478Zm0,10.66c-10.142,0-18.365-1.977-18.365-4.416s8.223-4.416,18.365-4.416,18.365,1.977,18.365,4.416S519.841,119.138,509.7,119.138Z" fill="#9dccef"/><path d="M532.936,103H486v10.135c0,3.785,10.521,6.853,23.5,6.853s23.5-3.068,23.5-6.853C533,112.973,532.936,103,532.936,103Z" fill="#479cdf"/><path d="M509.7,96.535c-12.9,0-23.365,3.068-23.365,6.852s10.461,6.853,23.365,6.853,23.365-3.068,23.365-6.853S522.6,96.535,509.7,96.535Zm0,10.66c-10.142,0-18.365-1.978-18.365-4.417s8.223-4.416,18.365-4.416,18.365,1.977,18.365,4.416S519.841,107.2,509.7,107.2Z" fill="#9dccef"/><path d="M532.936,91H486l.013,9.983c0,.05-.013.1-.013.152,0,3.785,10.521,6.853,23.5,6.853s23.5-3.068,23.5-6.853C533,100.973,532.936,91,532.936,91Z" fill="#479cdf"/><path d="M489.29,92.884s-1.865-7.256,20.6-7.256S530.4,91.664,530.4,91.664s-5.109,4.816-18.65,4.816S489.29,92.884,489.29,92.884Z" fill="#106ebe"/><ellipse cx="509.698" cy="93.235" rx="18.365" ry="4.416" fill="#479cdf"/><path d="M509.7,84.591c-12.9,0-23.365,3.068-23.365,6.853S496.794,98.3,509.7,98.3s23.365-3.069,23.365-6.853S522.6,84.591,509.7,84.591Zm0,10.66c-10.142,0-18.365-1.977-18.365-4.416s8.223-4.417,18.365-4.417,18.365,1.978,18.365,4.417S519.841,95.251,509.7,95.251Z" fill="#9dccef"/><path d="M523,126.821a47.732,47.732,0,0,1-5,.809v2.284a48.552,48.552,0,0,0,5-.8Z" fill="#106ebe"/><path d="M525,126.419v2.116a26.479,26.479,0,0,0,4-1.321v-2.068A37.88,37.88,0,0,1,525,126.419Z" fill="#106ebe"/><polygon points="390 275 390 273 377.866 273 375.744 270 367 270 367 275 390 275" fill="#fff"/><rect x="367" y="276" width="23" height="11" fill="#fff"/><path d="M186,59l.011,8.754c0,.044-.011.088-.011.133,0,3.3,8.507,5.972,19,5.972s19-2.674,19-5.972c0-.142-.052-8.887-.052-8.887" fill="none" stroke="#fff" stroke-miterlimit="10" stroke-width="2"/><path d="M186,68l.011,8.558c0,.045-.011.089-.011.133,0,3.3,8.507,5.973,19,5.973s19-2.674,19-5.973c0-.141-.052-8.691-.052-8.691" fill="none" stroke="#fff" stroke-miterlimit="10" stroke-width="2"/><path d="M186,77l.011,8.363c0,.044-.011.088-.011.133,0,3.3,8.507,5.972,19,5.972s19-2.674,19-5.972c0-.142-.052-8.5-.052-8.5" fill="none" stroke="#fff" stroke-miterlimit="10" stroke-width="2"/><path d="M205.386,53.078c-10.6,0-19.193,2.7-19.193,6.034s8.593,6.034,19.193,6.034,19.193-2.7,19.193-6.034S215.986,53.078,205.386,53.078Z" fill="none" stroke="#fff" stroke-miterlimit="10" stroke-width="2"/></svg>