<svg xmlns="http://www.w3.org/2000/svg" viewBox="0 0 636 300"><title>swimlane-migrate-to-azure</title><line x1="92.557" y1="280.05" x2="441.234" y2="280.05" fill="none" stroke="#bfe1f7" stroke-linecap="round" stroke-linejoin="round" stroke-width="24.011"/><path d="M301.822,299.363a190.949,190.949,0,0,0-290.085,0Z" fill="#d7d7d7"/><polygon points="257.537 278 251.111 263 253.378 263 248.237 251 251.198 251 245.276 237.179 239.356 251 242.316 251 237.175 263 239.442 263 233.017 278 257.537 278" fill="#a0a0a0"/><polygon points="228.583 259.337 219.147 286 237.607 286 228.583 259.337" fill="#c2c2c2"/><polygon points="189.737 260 189.737 237 178.737 237 178.737 248 168.737 248 168.737 273 164.737 273 164.737 218.873 150.737 228.872 150.737 269 118.737 269 118.737 200 113.737 200 113.737 186 110.737 186 110.737 171 108.737 171 108.737 160 106.737 160 106.737 146 105.737 146 105.737 160 102.737 160 102.737 171 100.737 171 100.737 186 97.737 186 97.737 200 93.737 200 93.737 267.494 93.832 278 199.737 278 199.737 260 189.737 260" fill="#b5b5b5" fill-rule="evenodd"/><path d="M216.025,232.946a11.793,11.793,0,1,1-11.792-11.792,11.791,11.791,0,0,1,11.792,11.792" fill="#459bdd"/><polygon points="211.759 231.776 210.628 230.644 204.737 236.239 204.737 229.566 208.313 226.287 207.182 225.154 204.737 227.303 204.737 227 202.737 227 202.737 231.221 200.666 228.455 199.535 229.587 200.932 230.983 199.718 232.199 200.849 233.331 202.064 232.115 202.737 233.486 202.737 240.006 197.552 234.126 196.421 235.258 203.378 242.215 202.737 242.161 202.737 257 204.737 257 204.737 238.502 207.663 235.871 209.455 237.664 210.586 236.532 208.794 234.74 211.759 231.776" fill="#1070c4"/><polygon points="124.737 278 124.737 181.669 144.07 200.872 136.635 218.467 144.07 239.766 136.635 261.061 144.07 278 124.737 278" fill="#aeaeae" fill-rule="evenodd"/><polygon points="124.66 221.056 143.737 240.271 143.864 200.988 124.66 221.056" fill="#c2c2c2"/><polygon points="159.737 252 159.737 264 143.737 264 143.737 240.271 124.733 259.292 142.737 277.133 142.737 278 159.737 278 182.737 278 182.737 264.067 182.737 252 159.737 252" fill="#c2c2c2"/><path d="M96.558,253.4A12.063,12.063,0,1,1,84.5,241.333,12.063,12.063,0,0,1,96.558,253.4" fill="#ffb900"/><polygon points="91.304 255.244 89.891 253.803 85.737 258.033 85.737 249 83.737 249 83.737 254.333 79.29 249.802 77.874 251.244 83.737 257.216 83.737 279 85.737 279 85.737 260.917 91.304 255.244" fill="#c78e00"/><path d="M596.218,156.96a13.455,13.455,0,0,0-5.81,1.31,25.106,25.106,0,0,0-49.432-5.562A17.383,17.383,0,1,0,530.55,184h65.311a13.75,13.75,0,0,0,13.791-11.983,13.523,13.523,0,0,0-13.434-15.057" fill="#d4e6f4"/><path d="M315.245,238.762a1.524,1.524,0,0,1-1.522-1.523V160.407a1.524,1.524,0,0,1,1.522-1.523H353.1l7.955,7.637h49.908a.909.909,0,0,1,.908.909v69.809a1.524,1.524,0,0,1-1.522,1.523Z" fill="#ffb900"/><path d="M352.845,159.5l7.6,7.292.359.345h50.158a.291.291,0,0,1,.29.29v69.809a.9.9,0,0,1-.9.9h-95.1a.9.9,0,0,1-.9-.9V160.407a.9.9,0,0,1,.9-.9h37.6m.5-1.238h-38.1a2.142,2.142,0,0,0-2.141,2.142v76.832a2.142,2.142,0,0,0,2.141,2.142h95.1a2.142,2.142,0,0,0,2.142-2.142V167.43a1.528,1.528,0,0,0-1.528-1.528H361.3l-7.955-7.637Z" fill="#c78e00"/><path d="M317.722,238.762a1.524,1.524,0,0,1-1.523-1.523V160.407a1.524,1.524,0,0,1,1.523-1.523h37.849l7.955,7.637h49.909a.91.91,0,0,1,.909.909v69.809a1.524,1.524,0,0,1-1.523,1.523Z" fill="#ffb900"/><path d="M355.322,159.5l7.6,7.292.359.345h50.158a.29.29,0,0,1,.289.29v69.809a.9.9,0,0,1-.9.9h-95.1a.9.9,0,0,1-.9-.9V160.407a.906.906,0,0,1,.9-.9h37.6m.5-1.238h-38.1a2.142,2.142,0,0,0-2.142,2.142v76.832a2.142,2.142,0,0,0,2.142,2.142h95.1a2.141,2.141,0,0,0,2.141-2.142V167.43a1.528,1.528,0,0,0-1.527-1.528h-49.66l-7.955-7.637Z" fill="#c78e00"/><path d="M320.2,238.762a1.524,1.524,0,0,1-1.522-1.523V160.407a1.524,1.524,0,0,1,1.522-1.523h37.849L366,166.521h49.908a.91.91,0,0,1,.909.909v69.809a1.524,1.524,0,0,1-1.522,1.523Z" fill="#ffb900"/><path d="M357.8,159.5l7.6,7.292.359.345h50.157a.29.29,0,0,1,.29.29v69.809a.9.9,0,0,1-.9.9H320.2a.9.9,0,0,1-.9-.9V160.407a.906.906,0,0,1,.9-.9h37.6m.5-1.238H320.2a2.142,2.142,0,0,0-2.142,2.142v76.832a2.142,2.142,0,0,0,2.142,2.142h95.1a2.142,2.142,0,0,0,2.141-2.142V167.43a1.528,1.528,0,0,0-1.528-1.528H366.252l-7.955-7.637Z" fill="#c78e00"/><path d="M322.676,238.762a1.524,1.524,0,0,1-1.523-1.523V160.407a1.524,1.524,0,0,1,1.523-1.523h37.848l7.955,7.637h49.909a.91.91,0,0,1,.909.909v69.809a1.524,1.524,0,0,1-1.523,1.523Z" fill="#ffb900"/><path d="M360.276,159.5l7.6,7.292.359.345h50.157a.29.29,0,0,1,.29.29v69.809a.9.9,0,0,1-.9.9h-95.1a.9.9,0,0,1-.9-.9V160.407a.906.906,0,0,1,.9-.9h37.6m.5-1.238h-38.1a2.142,2.142,0,0,0-2.142,2.142v76.832a2.142,2.142,0,0,0,2.142,2.142h95.1a2.142,2.142,0,0,0,2.143-2.142V167.43a1.529,1.529,0,0,0-1.529-1.528H368.729l-7.955-7.637Z" fill="#c78e00"/><path d="M325.152,238.762a1.524,1.524,0,0,1-1.522-1.523V160.407a1.524,1.524,0,0,1,1.522-1.523H363l7.955,7.637h49.908a.91.91,0,0,1,.909.909v69.809a1.524,1.524,0,0,1-1.523,1.523Z" fill="#ffb900"/><path d="M362.752,159.5l7.6,7.292.36.345h50.157a.291.291,0,0,1,.29.29v69.809a.9.9,0,0,1-.9.9h-95.1a.9.9,0,0,1-.9-.9V160.407a.9.9,0,0,1,.9-.9h37.6m.5-1.238h-38.1a2.142,2.142,0,0,0-2.141,2.142v76.832a2.142,2.142,0,0,0,2.141,2.142h95.1a2.142,2.142,0,0,0,2.142-2.142V167.43a1.528,1.528,0,0,0-1.528-1.528H371.206l-7.956-7.637Z" fill="#c78e00"/><path d="M373.682,165.9l-7.955-7.637h-38.1a2.142,2.142,0,0,0-2.141,2.142v76.832a2.142,2.142,0,0,0,2.141,2.142h95.1a2.142,2.142,0,0,0,2.142-2.142V167.43a1.528,1.528,0,0,0-1.528-1.528Z" fill="#c78e00"/><line x1="371.602" y1="93.108" x2="371.602" y2="133.91" fill="none" stroke="#737373" stroke-miterlimit="10" stroke-width="1.238"/><path d="M325.737,176.092v60.766A2.142,2.142,0,0,0,327.879,239H422.6a2.142,2.142,0,0,0,2.142-2.142V175.829A1.829,1.829,0,0,0,422.908,174H327.829A2.092,2.092,0,0,0,325.737,176.092Z" fill="#ffb900"/><polyline points="405.675 240 418.368 240 418.368 165.184 405.675 165.184" fill="none" stroke="#737373" stroke-linecap="round" stroke-linejoin="round" stroke-width="1.238"/><polyline points="320.224 240 332.918 240 332.918 157.753 320.224 157.753" fill="none" stroke="#737373" stroke-linecap="round" stroke-linejoin="round" stroke-width="1.238"/><polyline points="412.331 165.076 371.606 133.91 326.877 157.646" fill="none" stroke="#737373" stroke-miterlimit="10" stroke-width="1.238"/><rect x="361.737" y="7" width="5" height="29" fill="#459bdd"/><path d="M379.084,28.129Q377.053,28,375,28h-2.266V23h-16v5H272.1L254.2,1h-14l10.967,38.341.034,0a9.419,9.419,0,0,0,7.191,6.775L300.2,54.632a28,28,0,0,1,13.786,7.551l23.65,23.649A27.883,27.883,0,0,0,357.352,94H406.9a24.994,24.994,0,0,0,24.978-25.831Z" fill="#459bdd"/><path d="M434.444,89a16.021,16.021,0,0,1-16,16h-30.7V94h18.974A25.281,25.281,0,0,0,428.87,81H399.678a64.84,64.84,0,0,1-44.154-17.351l-1.4-1.3A64.859,64.859,0,0,0,309.971,45H255a9.3,9.3,0,0,0,3.52,1.524l41.423,8.438A27.739,27.739,0,0,1,313.6,62.446L337,85.827a27.74,27.74,0,0,0,15.742,7.827V105h-31v7h96.809a23.026,23.026,0,0,0,23-23Zm-74.707,5h22v11h-22Z" fill="#1070c4"/><path d="M396.737,69h35.007a25.055,25.055,0,0,0-4.953-14.817,65.005,65.005,0,0,0-48.054-26.049V53.559A22.564,22.564,0,0,1,397.211,69" fill="#c2c2c2"/><path d="M286.192,37.05a21.782,21.782,0,1,1-21.783-21.784A21.785,21.785,0,0,1,286.192,37.05" fill="#fff"/><path d="M283.015,25.719a21.714,21.714,0,0,0-3.531-4.381L264.408,37.049Z" fill="#ffb900"/><path d="M264.41,58.783A21.784,21.784,0,0,0,286.193,37H242.626A21.787,21.787,0,0,0,264.41,58.783" fill="#d2d2d2"/><path d="M269.315,37.05a4.905,4.905,0,1,1-4.906-4.9,4.906,4.906,0,0,1,4.906,4.9" fill="#b2b2b2"/><path d="M432.737,15H295.84a2.5,2.5,0,1,1-.058-5H433.141a2.5,2.5,0,1,1,.052,5" fill="#b2b2b2"/><path d="M305.772,173.745H250.431a1.238,1.238,0,1,1,0-2.476h55.341a1.238,1.238,0,1,1,0,2.476Z" fill="#b5b5b5"/><path d="M296.006,186.129H275.389a1.239,1.239,0,1,1,0-2.477h20.617a1.239,1.239,0,0,1,0,2.477Z" fill="#b5b5b5"/><path d="M300.889,207.548H257.483a1.238,1.238,0,0,1,0-2.476h43.406a1.238,1.238,0,1,1,0,2.476Z" fill="#b5b5b5"/><path d="M389.737,33.671v6.467a53.588,53.588,0,0,1,27.395,19.911l5.273-3.244C421.979,56.112,411.816,39.96,389.737,33.671Z" fill="#e1e1e1"/><path d="M600.989,230a81.131,81.131,0,0,0-123.252,0Z" fill="#d7d7d7"/><path d="M598.737,166v57h-57V166Z" fill="#f6f6f6" fill-opacity="0"/><path d="M572.31,218H528.737v-.082l26.452-4.631c-.866-1.033-1.625-1.942-2.387-2.85q-5.451-6.449-10.891-12.882a1.1,1.1,0,0,1-.335-1.258c2.3-6.2,4.571-12.422,6.844-18.639.039-.11.089-.214.207-.5Zm-28.041-37.857,2.911-6.227c-.356.26-.5.356-.627.456q-7.164,5.977-14.325,11.966a10.56,10.56,0,0,0-2.665,2.754c-3.812,6.665-7.691,13.292-11.542,19.932-.745,1.286-1.479,2.579-2.284,3.976h1.033c3.677,0,7.353-.029,11.044.021a1.424,1.424,0,0,0,1.546-.969Q536.777,196.082,544.269,180.143Z" fill="#0072c6"/></svg>