<svg width="75" height="75" viewBox="0 0 75 75" version="1.1" xmlns="http://www.w3.org/2000/svg" xmlns:xlink="http://www.w3.org/1999/xlink">
<title>Vector</title>
<desc>Created using Figma</desc>
<g id="Canvas" transform="translate(-7639 -666)">
<g id="Vector">
<use xlink:href="#path0_fill" transform="translate(7639 666)" fill="#38208A"/>
</g>
</g>
<defs>
<path id="path0_fill" d="M 37.5 0C 40.9424 0 44.2627 0.445557 47.4609 1.33667C 50.6592 2.22778 53.6438 3.49121 56.4148 5.12695C 59.1858 6.7627 61.7126 8.72193 63.9954 11.0046C 66.2781 13.2874 68.2373 15.8142 69.873 18.5852C 71.5088 21.3562 72.7722 24.3408 73.6633 27.5391C 74.5544 30.7373 75 34.0576 75 37.5C 75 40.9424 74.5544 44.2627 73.6633 47.4609C 72.7722 50.6592 71.5149 53.6499 69.8914 56.4331C 68.2678 59.2163 66.3147 61.7493 64.032 64.032C 61.7493 66.3147 59.2163 68.2678 56.4331 69.8914C 53.6499 71.5149 50.6592 72.7722 47.4609 73.6633C 44.2627 74.5544 40.9424 75 37.5 75C 34.0576 75 30.7373 74.5544 27.5391 73.6633C 24.3408 72.7722 21.3501 71.5149 18.5669 69.8914C 15.7837 68.2678 13.2507 66.3147 10.968 64.032C 8.6853 61.7493 6.73218 59.2163 5.10864 56.4331C 3.48511 53.6499 2.22778 50.6653 1.33667 47.4792C 0.445558 44.2932 0 40.9668 0 37.5C 0 34.0576 0.445558 30.7373 1.33667 27.5391C 2.22778 24.3408 3.48511 21.3501 5.10864 18.5669C 6.73218 15.7837 8.6853 13.2507 10.968 10.968C 13.2507 8.6853 15.7837 6.73218 18.5669 5.10864C 21.3501 3.48511 24.3347 2.22778 27.5208 1.33667C 30.7068 0.445557 34.0332 0 37.5 0ZM 67.1265 23.4375C 66.1743 21.46 65.0452 19.5984 63.739 17.8528C 62.4329 16.1072 60.9741 14.5142 59.3628 13.0737C 57.7515 11.6333 56.012 10.3516 54.1443 9.22852C 52.2766 8.10547 50.3052 7.18994 48.23 6.48193C 50.0122 8.99658 51.4282 11.6943 52.478 14.5752C 53.5278 17.4561 54.3457 20.4102 54.9316 23.4375L 67.1265 23.4375ZM 70.3125 37.5C 70.3125 34.2529 69.8608 31.1279 68.9575 28.125L 55.6641 28.125C 55.8594 29.6875 56.0059 31.2439 56.1035 32.7942C 56.2012 34.3445 56.25 35.9131 56.25 37.5C 56.25 39.0869 56.2012 40.6555 56.1035 42.2058C 56.0059 43.7561 55.8594 45.3125 55.6641 46.875L 68.9575 46.875C 69.8608 43.8721 70.3125 40.7471 70.3125 37.5ZM 37.5 70.3125C 38.6963 70.3125 39.8132 69.9829 40.8508 69.3237C 41.8884 68.6646 42.8467 67.7979 43.7256 66.7236C 44.6045 65.6494 45.3918 64.4348 46.0876 63.0798C 46.7834 61.7248 47.3999 60.3516 47.937 58.96C 48.4741 57.5684 48.9258 56.2256 49.292 54.9316C 49.6582 53.6377 49.939 52.5146 50.1343 51.5625L 24.8291 51.5625C 25.0244 52.5146 25.3113 53.6377 25.6897 54.9316C 26.0681 56.2256 26.5259 57.5684 27.063 58.96C 27.6001 60.3516 28.2166 61.7248 28.9124 63.0798C 29.6082 64.4348 30.3955 65.6494 31.2744 66.7236C 32.1533 67.7979 33.1116 68.6646 34.1492 69.3237C 35.1868 69.9829 36.3037 70.3125 37.5 70.3125ZM 50.9399 46.875C 51.1353 45.3125 51.2878 43.7561 51.3977 42.2058C 51.5076 40.6555 51.5625 39.0869 51.5625 37.5C 51.5625 35.9131 51.5076 34.3445 51.3977 32.7942C 51.2878 31.2439 51.1353 29.6875 50.9399 28.125L 24.0234 28.125C 23.8281 29.6875 23.6816 31.2439 23.584 32.7942C 23.4863 34.3445 23.4375 35.9131 23.4375 37.5C 23.4375 39.0869 23.4863 40.6555 23.584 42.2058C 23.6816 43.7561 23.8281 45.3125 24.0234 46.875L 50.9399 46.875ZM 4.6875 37.5C 4.6875 40.7471 5.13916 43.8721 6.04248 46.875L 19.3359 46.875C 19.1406 45.3125 18.9941 43.7561 18.8965 42.2058C 18.7988 40.6555 18.75 39.0869 18.75 37.5C 18.75 35.9131 18.7988 34.3445 18.8965 32.7942C 18.9941 31.2439 19.1406 29.6875 19.3359 28.125L 6.04248 28.125C 5.13916 31.1279 4.6875 34.2529 4.6875 37.5ZM 37.5 4.6875C 36.3037 4.6875 35.1868 5.01709 34.1492 5.67627C 33.1116 6.33545 32.1533 7.20215 31.2744 8.27637C 30.3955 9.35058 29.6082 10.5652 28.9124 11.9202C 28.2166 13.2751 27.6001 14.6484 27.063 16.04C 26.5259 17.4316 26.0681 18.7744 25.6897 20.0684C 25.3113 21.3623 25.0244 22.4854 24.8291 23.4375L 50.1343 23.4375C 49.939 22.4854 49.6582 21.3623 49.292 20.0684C 48.9258 18.7744 48.4741 17.4316 47.937 16.04C 47.3999 14.6484 46.7834 13.2751 46.0876 11.9202C 45.3918 10.5652 44.6045 9.35058 43.7256 8.27637C 42.8467 7.20215 41.8884 6.33545 40.8508 5.67627C 39.8132 5.01709 38.6963 4.6875 37.5 4.6875ZM 26.77 6.48193C 24.6948 7.18994 22.7173 8.10547 20.8374 9.22852C 18.9575 10.3516 17.2119 11.6333 15.6006 13.0737C 13.9893 14.5142 12.5305 16.1072 11.2244 17.8528C 9.91821 19.5984 8.78906 21.46 7.83692 23.4375L 20.0684 23.4375C 20.3369 21.9971 20.6726 20.5261 21.0754 19.0247C 21.4783 17.5232 21.9543 16.0461 22.5037 14.5935C 23.053 13.1409 23.6816 11.7249 24.3896 10.3455C 25.0977 8.96606 25.8911 7.67822 26.77 6.48193ZM 7.83692 51.5625C 9.74121 55.542 12.3291 58.9966 15.6006 61.9263C 18.8721 64.856 22.5952 67.0532 26.77 68.5181C 25.8911 67.3218 25.0977 66.0339 24.3896 64.6545C 23.6816 63.2752 23.053 61.8591 22.5037 60.4065C 21.9543 58.9539 21.4783 57.4768 21.0754 55.9753C 20.6726 54.4739 20.3369 53.0029 20.0684 51.5625L 7.83692 51.5625ZM 48.23 68.5181C 50.3052 67.8101 52.2766 66.9006 54.1443 65.7898C 56.012 64.679 57.7515 63.3972 59.3628 61.9446C 60.9741 60.4919 62.439 58.8928 63.7573 57.1472C 65.0757 55.4016 66.1987 53.54 67.1265 51.5625L 54.9316 51.5625C 54.3457 54.5898 53.5278 57.5439 52.478 60.4248C 51.4282 63.3057 50.0122 66.0034 48.23 68.5181Z"/>
</defs>
</svg>
