<svg width="75" height="61" viewBox="0 0 75 61" version="1.1" xmlns="http://www.w3.org/2000/svg" xmlns:xlink="http://www.w3.org/1999/xlink">
<title>Vector</title>
<desc>Created using Figma</desc>
<g id="Canvas" transform="translate(-8084 -1203)">
<g id="Vector">
<use xlink:href="#path0_fill" transform="translate(8084 1203)" fill="#38208A"/>
</g>
</g>
<defs>
<path id="path0_fill" d="M 75 0L 75 60.9375L 0 60.9375L 0 0L 75 0ZM 4.6875 4.6875L 4.6875 14.0625L 70.3125 14.0625L 70.3125 4.6875L 4.6875 4.6875ZM 4.6875 56.25L 42.1875 56.25L 42.1875 18.75L 4.6875 18.75L 4.6875 56.25ZM 70.3125 56.25L 70.3125 18.75L 46.875 18.75L 46.875 56.25L 70.3125 56.25ZM 51.5625 23.4375L 65.625 23.4375L 65.625 28.125L 51.5625 28.125L 51.5625 23.4375ZM 51.5625 32.8125L 65.625 32.8125L 65.625 37.5L 51.5625 37.5L 51.5625 32.8125ZM 51.5625 42.1875L 65.625 42.1875L 65.625 46.875L 51.5625 46.875L 51.5625 42.1875ZM 37.5 23.4375L 37.5 51.5625L 9.375 51.5625L 9.375 23.4375L 37.5 23.4375ZM 32.8125 28.125L 14.0625 28.125L 14.0625 46.875L 32.8125 46.875L 32.8125 28.125Z"/>
</defs>
</svg>
