<svg width="75" height="75" viewBox="0 0 75 75" version="1.1" xmlns="http://www.w3.org/2000/svg" xmlns:xlink="http://www.w3.org/1999/xlink">
<title>Vector</title>
<desc>Created using Figma</desc>
<g id="Canvas" transform="translate(-8526 -666)">
<g id="Vector">
<use xlink:href="#path0_fill" transform="translate(8526 666)" fill="#38208A"/>
</g>
</g>
<defs>
<path id="path0_fill" d="M 75 37.5L 70.3125 37.5C 70.3125 34.4971 69.9219 31.5979 69.1406 28.8025C 68.3594 26.0071 67.2546 23.3948 65.8264 20.9656C 64.3982 18.5364 62.6831 16.3208 60.6812 14.3188C 58.6792 12.3169 56.4636 10.6018 54.0344 9.17358C 51.6052 7.74536 48.9929 6.64062 46.1975 5.85938C 43.4021 5.07812 40.5029 4.6875 37.5 4.6875C 34.4727 4.6875 31.5674 5.07812 28.7842 5.85938C 26.001 6.64062 23.3948 7.74536 20.9656 9.17358C 18.5364 10.6018 16.3208 12.3169 14.3188 14.3188C 12.3169 16.3208 10.6018 18.5364 9.17358 20.9656C 7.74536 23.3948 6.64062 26.0071 5.85938 28.8025C 5.07812 31.5979 4.6875 34.4971 4.6875 37.5C 4.6875 40.5273 5.07812 43.4326 5.85938 46.2158C 6.64062 48.999 7.74536 51.6052 9.17358 54.0344C 10.6018 56.4636 12.3169 58.6792 14.3188 60.6812C 16.3208 62.6831 18.5364 64.3982 20.9656 65.8264C 23.3948 67.2546 26.0071 68.3594 28.8025 69.1406C 31.5979 69.9219 34.4971 70.3125 37.5 70.3125L 37.5 75C 34.0332 75 30.7068 74.5544 27.5208 73.6633C 24.3347 72.7722 21.3501 71.5149 18.5669 69.8914C 15.7837 68.2678 13.2507 66.3147 10.968 64.032C 8.6853 61.7493 6.73218 59.2163 5.10864 56.4331C 3.48511 53.6499 2.22778 50.6592 1.33667 47.4609C 0.445558 44.2627 0 40.9424 0 37.5C 0 34.0576 0.445558 30.7373 1.33667 27.5391C 2.22778 24.3408 3.48511 21.3501 5.10864 18.5669C 6.73218 15.7837 8.6853 13.2507 10.968 10.968C 13.2507 8.6853 15.7837 6.73218 18.5669 5.10864C 21.3501 3.48511 24.3408 2.22778 27.5391 1.33667C 30.7373 0.445557 34.0576 0 37.5 0C 40.9424 0 44.2627 0.445557 47.4609 1.33667C 50.6592 2.22778 53.6499 3.48511 56.4331 5.10864C 59.2163 6.73218 61.7493 8.6853 64.032 10.968C 66.3147 13.2507 68.2678 15.7837 69.8914 18.5669C 71.5149 21.3501 72.7722 24.3408 73.6633 27.5391C 74.5544 30.7373 75 34.0576 75 37.5ZM 37.5 14.0625C 40.7471 14.0625 43.7927 14.6729 46.637 15.8936C 49.4812 17.1143 51.9653 18.7866 54.0894 20.9106C 56.2134 23.0347 57.8857 25.5188 59.1064 28.363C 60.3271 31.2073 60.9375 34.2529 60.9375 37.5L 56.25 37.5C 56.25 34.9121 55.7556 32.4829 54.7668 30.2124C 53.7781 27.9419 52.4353 25.9583 50.7385 24.2615C 49.0417 22.5647 47.0581 21.2219 44.7876 20.2332C 42.5171 19.2444 40.0879 18.75 37.5 18.75C 34.9121 18.75 32.4829 19.2444 30.2124 20.2332C 27.9419 21.2219 25.9583 22.5647 24.2615 24.2615C 22.5647 25.9583 21.2219 27.9419 20.2332 30.2124C 19.2444 32.4829 18.75 34.9121 18.75 37.5C 18.75 40.0146 19.22 42.4072 20.1599 44.6777C 21.0999 46.9482 22.4609 48.9746 24.2432 50.7568L 20.9106 54.0894C 18.689 51.8677 16.9922 49.3286 15.8203 46.4722C 14.6484 43.6157 14.0625 40.625 14.0625 37.5C 14.0625 34.2529 14.6729 31.2073 15.8936 28.363C 17.1143 25.5188 18.7866 23.0347 20.9106 20.9106C 23.0347 18.7866 25.5188 17.1143 28.363 15.8936C 31.2073 14.6729 34.2529 14.0625 37.5 14.0625ZM 37.5 28.125C 38.7939 28.125 40.0085 28.3691 41.1438 28.8574C 42.2791 29.3457 43.2739 30.0171 44.1284 30.8716C 44.9829 31.7261 45.6543 32.7209 46.1426 33.8562C 46.6309 34.9915 46.875 36.2061 46.875 37.5C 46.875 38.7939 46.6309 40.0085 46.1426 41.1438C 45.6543 42.2791 44.9829 43.2739 44.1284 44.1284C 43.2739 44.9829 42.2791 45.6543 41.1438 46.1426C 40.0085 46.6309 38.7939 46.875 37.5 46.875C 36.2061 46.875 34.9915 46.6309 33.8562 46.1426C 32.7209 45.6543 31.7261 44.9829 30.8716 44.1284C 30.0171 43.2739 29.3457 42.2791 28.8574 41.1438C 28.3691 40.0085 28.125 38.7939 28.125 37.5C 28.125 36.2061 28.3691 34.9915 28.8574 33.8562C 29.3457 32.7209 30.0171 31.7261 30.8716 30.8716C 31.7261 30.0171 32.7209 29.3457 33.8562 28.8574C 34.9915 28.3691 36.2061 28.125 37.5 28.125ZM 37.5 42.1875C 38.1592 42.1875 38.7695 42.0654 39.3311 41.8213C 39.8926 41.5771 40.387 41.2415 40.8142 40.8142C 41.2415 40.387 41.5771 39.8926 41.8213 39.3311C 42.0654 38.7695 42.1875 38.1592 42.1875 37.5C 42.1875 36.8408 42.0654 36.2305 41.8213 35.6689C 41.5771 35.1074 41.2415 34.613 40.8142 34.1858C 40.387 33.7585 39.8926 33.4229 39.3311 33.1787C 38.7695 32.9346 38.1592 32.8125 37.5 32.8125C 36.8408 32.8125 36.2305 32.9346 35.6689 33.1787C 35.1074 33.4229 34.613 33.7585 34.1858 34.1858C 33.7585 34.613 33.4229 35.1074 33.1787 35.6689C 32.9346 36.2305 32.8125 36.8408 32.8125 37.5C 32.8125 38.1592 32.9346 38.7695 33.1787 39.3311C 33.4229 39.8926 33.7585 40.387 34.1858 40.8142C 34.613 41.2415 35.1074 41.5771 35.6689 41.8213C 36.2305 42.0654 36.8408 42.1875 37.5 42.1875Z"/>
</defs>
</svg>
