<svg width="75" height="62" viewBox="0 0 75 62" version="1.1" xmlns="http://www.w3.org/2000/svg" xmlns:xlink="http://www.w3.org/1999/xlink">
<title>Vector</title>
<desc>Created using Figma</desc>
<g id="Canvas" transform="translate(-8304 -673)">
<g id="Vector">
<use xlink:href="#path0_fill" transform="translate(8304 673.5)" fill="#38208A"/>
</g>
</g>
<defs>
<path id="path0_fill" d="M 75 51.5625L 51.5625 51.5625L 51.5625 56.25L 60.9375 56.25L 60.9375 60.9375L 37.5 60.9375L 37.5 56.25L 46.875 56.25L 46.875 51.5625L 32.8125 51.5625L 32.8125 60.9375L 0 60.9375L 0 0L 32.8125 0L 32.8125 18.75L 75 18.75L 75 51.5625ZM 70.3125 46.875L 70.3125 23.4375L 28.125 23.4375L 28.125 46.875L 70.3125 46.875ZM 28.125 56.25L 28.125 51.5625L 9.375 51.5625L 9.375 46.875L 23.4375 46.875L 23.4375 42.1875L 9.375 42.1875L 9.375 37.5L 23.4375 37.5L 23.4375 18.75L 28.125 18.75L 28.125 4.6875L 4.6875 4.6875L 4.6875 56.25L 28.125 56.25ZM 23.4375 9.375L 23.4375 14.0625L 9.375 14.0625L 9.375 9.375L 23.4375 9.375Z"/>
</defs>
</svg>
