<svg width="63" height="75" viewBox="0 0 63 75" version="1.1" xmlns="http://www.w3.org/2000/svg" xmlns:xlink="http://www.w3.org/1999/xlink">
<title>Vector</title>
<desc>Created using Figma</desc>
<g id="Canvas" transform="translate(-7645 -888)">
<g id="Vector">
<use xlink:href="#path0_fill" transform="translate(7645 888)" fill="#38208A"/>
</g>
</g>
<defs>
<path id="path0_fill" d="M 19.3548 26.6129L 24.1936 26.6129L 24.1936 31.4516L 19.3548 31.4516L 19.3548 26.6129ZM 38.7097 26.6129L 43.5484 26.6129L 43.5484 31.4516L 38.7097 31.4516L 38.7097 26.6129ZM 56.439 50.8064C 57.3211 50.8064 58.1527 50.9766 58.934 51.3168C 59.7152 51.657 60.402 52.1232 60.9942 52.7155C 61.5864 53.3077 62.0527 53.9945 62.3929 54.7757C 62.7331 55.557 62.9032 56.3886 62.9032 57.2707L 62.9032 75L 58.0645 75L 58.0645 57.2707C 58.0645 56.817 57.907 56.4327 57.592 56.1177C 57.277 55.8027 56.8926 55.6452 56.439 55.6452L 6.46421 55.6452C 6.01059 55.6452 5.62626 55.8027 5.31124 56.1177C 4.99622 56.4327 4.83871 56.817 4.83871 57.2707L 4.83871 75L 0 75L 0 57.2707C 0 56.3886 0.170111 55.557 0.510333 54.7757C 0.850555 53.9945 1.31048 53.3077 1.89012 52.7155C 2.46976 52.1232 3.1565 51.657 3.95035 51.3168C 4.7442 50.9766 5.58216 50.8064 6.46421 50.8064L 19.3548 50.8064L 19.3548 45.9677L 16.1416 45.9677C 15.2596 45.9677 14.4216 45.7976 13.6278 45.4574C 12.8339 45.1172 12.1472 44.6573 11.5675 44.0776C 10.9879 43.498 10.528 42.8112 10.1878 42.0174C 9.84753 41.2235 9.67742 40.3856 9.67742 39.5035L 9.67742 36.2903L 4.83871 36.2903L 4.83871 26.6129L 9.67742 26.6129L 9.67742 23.3997C 9.67742 22.5176 9.84753 21.686 10.1878 20.9047C 10.528 20.1235 10.9879 19.4367 11.5675 18.8445C 12.1472 18.2523 12.8339 17.786 13.6278 17.4458C 14.4216 17.1056 15.2596 16.9355 16.1416 16.9355L 29.0323 16.9355L 29.0323 9.03478C 28.3014 8.60635 27.7155 8.01411 27.2744 7.25806C 26.8334 6.50202 26.6129 5.69556 26.6129 4.83871C 26.6129 4.15827 26.7389 3.52823 26.9909 2.94859C 27.2429 2.36895 27.5895 1.85862 28.0305 1.41759C 28.4715 0.976564 28.9819 0.630042 29.5615 0.378024C 30.1411 0.126009 30.7712 0 31.4516 0C 32.1321 0 32.7621 0.126009 33.3417 0.378024C 33.9214 0.630042 34.4317 0.976564 34.8727 1.41759C 35.3138 1.85862 35.6603 2.36895 35.9123 2.94859C 36.1643 3.52823 36.2903 4.15827 36.2903 4.83871C 36.2903 5.69556 36.0698 6.50202 35.6288 7.25806C 35.1878 8.01411 34.6018 8.60635 33.871 9.03478L 33.871 16.9355L 46.7616 16.9355C 47.6437 16.9355 48.4753 17.1056 49.2566 17.4458C 50.0378 17.786 50.7245 18.2523 51.3168 18.8445C 51.909 19.4367 52.3753 20.1235 52.7155 20.9047C 53.0557 21.686 53.2258 22.5176 53.2258 23.3997L 53.2258 26.6129L 58.0645 26.6129L 58.0645 36.2903L 53.2258 36.2903L 53.2258 39.5035C 53.2258 40.3856 53.0557 41.2235 52.7155 42.0174C 52.3753 42.8112 51.909 43.498 51.3168 44.0776C 50.7245 44.6573 50.0378 45.1172 49.2566 45.4574C 48.4753 45.7976 47.6437 45.9677 46.7616 45.9677L 43.5484 45.9677L 43.5484 50.8064L 56.439 50.8064ZM 14.5161 39.5035C 14.5161 39.9572 14.6736 40.3415 14.9887 40.6565C 15.3037 40.9715 15.688 41.129 16.1416 41.129L 46.7616 41.129C 47.2152 41.129 47.5995 40.9715 47.9146 40.6565C 48.2296 40.3415 48.3871 39.9572 48.3871 39.5035L 48.3871 23.3997C 48.3871 22.9461 48.2296 22.5617 47.9146 22.2467C 47.5995 21.9317 47.2152 21.7742 46.7616 21.7742L 16.1416 21.7742C 15.688 21.7742 15.3037 21.9317 14.9887 22.2467C 14.6736 22.5617 14.5161 22.9461 14.5161 23.3997L 14.5161 39.5035ZM 24.1936 50.8064L 38.7097 50.8064L 38.7097 45.9677L 24.1936 45.9677L 24.1936 50.8064Z"/>
</defs>
</svg>
