<svg width="56" height="75" viewBox="0 0 56 75" version="1.1" xmlns="http://www.w3.org/2000/svg" xmlns:xlink="http://www.w3.org/1999/xlink">
<title>Vector</title>
<desc>Created using Figma</desc>
<g id="Canvas" transform="translate(-8092 -666)">
<g id="Vector">
<use xlink:href="#path0_fill" transform="translate(8092.5 666)" fill="#38208A"/>
</g>
</g>
<defs>
<path id="path0_fill" d="M 27.75 0C 30.3034 0 32.7604 0.335693 35.1211 1.00708C 37.4818 1.67847 39.6919 2.62451 41.7515 3.84521C 43.811 5.06592 45.6839 6.53076 47.3701 8.23975C 49.0563 9.94873 50.5016 11.8469 51.7061 13.9343C 52.9105 16.0217 53.8439 18.2617 54.5063 20.6543C 55.1688 23.0469 55.5 25.5371 55.5 28.125L 55.5 44.5312C 55.5 45.5078 55.3193 46.4233 54.958 47.2778C 54.5967 48.1323 54.1029 48.877 53.4766 49.5117C 52.8503 50.1465 52.1156 50.647 51.2725 51.0132C 50.4294 51.3794 49.526 51.5625 48.5625 51.5625L 41.625 51.5625L 41.625 28.125L 48.5625 28.125C 48.972 28.125 49.3695 28.1677 49.7549 28.2532C 50.1403 28.3386 50.5137 28.4424 50.875 28.5645C 50.875 25.2686 50.2848 22.1741 49.1045 19.281C 47.9242 16.3879 46.3042 13.8611 44.2446 11.7004C 42.1851 9.53979 39.7401 7.83081 36.9097 6.57349C 34.0793 5.31616 31.026 4.6875 27.75 4.6875C 25.6302 4.6875 23.5827 4.96826 21.6074 5.52979C 19.6322 6.09131 17.7894 6.87866 16.0791 7.89185C 14.3688 8.90503 12.8091 10.1257 11.3999 11.554C 9.99072 12.9822 8.7863 14.563 7.78662 16.2964C 6.78695 18.0298 6.01009 19.8975 5.45605 21.8994C 4.90202 23.9014 4.625 25.9766 4.625 28.125L 4.625 28.5645C 4.98633 28.4424 5.3597 28.3386 5.74512 28.2532C 6.13054 28.1677 6.52799 28.125 6.9375 28.125L 13.875 28.125L 13.875 51.5625L 9.25 51.5625L 9.25 56.25C 9.25 57.5439 9.49089 58.7585 9.97266 59.8938C 10.4544 61.0291 11.1169 62.0239 11.96 62.8784C 12.8031 63.7329 13.7847 64.4043 14.9048 64.8926C 16.0249 65.3809 17.2233 65.625 18.5 65.625C 18.5 64.9658 18.6204 64.3555 18.8613 63.7939C 19.1022 63.2324 19.4334 62.738 19.855 62.3108C 20.2765 61.8835 20.7643 61.5479 21.3184 61.3037C 21.8724 61.0596 22.4746 60.9375 23.125 60.9375L 32.375 60.9375C 33.0254 60.9375 33.6276 61.0596 34.1816 61.3037C 34.7357 61.5479 35.2235 61.8835 35.645 62.3108C 36.0666 62.738 36.3978 63.2324 36.6387 63.7939C 36.8796 64.3555 37 64.9658 37 65.625L 37 70.3125C 37 70.9717 36.8796 71.582 36.6387 72.1436C 36.3978 72.7051 36.0666 73.1995 35.645 73.6267C 35.2235 74.054 34.7357 74.3896 34.1816 74.6338C 33.6276 74.8779 33.0254 75 32.375 75L 23.125 75C 22.4746 75 21.8724 74.8779 21.3184 74.6338C 20.7643 74.3896 20.2765 74.054 19.855 73.6267C 19.4334 73.1995 19.1022 72.7051 18.8613 72.1436C 18.6204 71.582 18.5 70.9717 18.5 70.3125C 16.5729 70.3125 14.7723 69.9463 13.0981 69.2139C 11.424 68.4814 9.95459 67.4744 8.68994 66.1926C 7.42529 64.9109 6.43164 63.4216 5.70898 61.7249C 4.98633 60.0281 4.625 58.2031 4.625 56.25L 4.625 51.123C 3.92643 50.8789 3.29411 50.5371 2.72803 50.0977C 2.16195 49.6582 1.68017 49.1516 1.28272 48.5779C 0.885255 48.0042 0.572104 47.3694 0.343261 46.6736C 0.114421 45.9778 0 45.2637 0 44.5312L 0 28.125C 0 25.5371 0.331217 23.0469 0.993652 20.6543C 1.65609 18.2617 2.58952 16.0217 3.79395 13.9343C 4.99837 11.8469 6.44369 9.94873 8.12988 8.23975C 9.81608 6.53076 11.689 5.06592 13.7485 3.84521C 15.8081 2.62451 18.0182 1.67847 20.3789 1.00708C 22.7396 0.335693 25.1966 0 27.75 0ZM 23.125 70.3125L 32.375 70.3125L 32.375 65.625L 23.125 65.625L 23.125 70.3125ZM 6.9375 32.8125C 6.3112 32.8125 5.7692 33.0444 5.31152 33.5083C 4.85384 33.9722 4.625 34.5215 4.625 35.1562L 4.625 44.5312C 4.625 45.166 4.85384 45.7153 5.31152 46.1792C 5.7692 46.6431 6.3112 46.875 6.9375 46.875L 9.25 46.875L 9.25 32.8125L 6.9375 32.8125ZM 50.875 35.1562C 50.875 34.5215 50.6462 33.9722 50.1885 33.5083C 49.7308 33.0444 49.1888 32.8125 48.5625 32.8125L 46.25 32.8125L 46.25 46.875L 48.5625 46.875C 49.1888 46.875 49.7308 46.6431 50.1885 46.1792C 50.6462 45.7153 50.875 45.166 50.875 44.5312L 50.875 35.1562Z"/>
</defs>
</svg>
