<svg width="48" height="75" viewBox="0 0 48 75" version="1.1" xmlns="http://www.w3.org/2000/svg" xmlns:xlink="http://www.w3.org/1999/xlink">
<title>Vector</title>
<desc>Created using Figma</desc>
<g id="Canvas" transform="translate(-7873 -665)">
<g id="Vector">
<use xlink:href="#path0_fill" transform="translate(7873.5 665)" fill="#38208A"/>
</g>
</g>
<defs>
<path id="path0_fill" d="M 42.1875 0C 42.8467 0 43.457 0.122071 44.0186 0.366211C 44.5801 0.610353 45.0745 0.946046 45.5017 1.37329C 45.929 1.80054 46.2646 2.29492 46.5088 2.85645C 46.7529 3.41797 46.875 4.02832 46.875 4.6875L 46.875 70.3125C 46.875 70.9717 46.7529 71.582 46.5088 72.1436C 46.2646 72.7051 45.929 73.1995 45.5017 73.6267C 45.0745 74.054 44.5801 74.3896 44.0186 74.6338C 43.457 74.8779 42.8467 75 42.1875 75L 4.6875 75C 4.02832 75 3.41797 74.8779 2.85645 74.6338C 2.29492 74.3896 1.80054 74.054 1.37329 73.6267C 0.946045 73.1995 0.610352 72.7051 0.36621 72.1436C 0.12207 71.582 0 70.9717 0 70.3125L 0 4.6875C 0 4.02832 0.12207 3.41797 0.36621 2.85645C 0.610352 2.29492 0.946045 1.80054 1.37329 1.37329C 1.80054 0.946046 2.29492 0.610353 2.85645 0.366211C 3.41797 0.122071 4.02832 0 4.6875 0L 42.1875 0ZM 42.1875 4.6875L 4.6875 4.6875L 4.6875 70.3125L 42.1875 70.3125L 42.1875 4.6875ZM 18.75 60.9375L 28.125 60.9375L 28.125 65.625L 18.75 65.625L 18.75 60.9375Z"/>
</defs>
</svg>
