<svg xmlns="http://www.w3.org/2000/svg" viewBox="0 0 636 300"><defs><style>.a{fill:#b3d6f2;}.b{fill:#505050;}.c{fill:#565656;}.d,.t{fill:#212121;}.e{fill:#bad80a;}.f{fill:#f0ae00;}.g{fill:#90c10c;}.h{fill:#fff;}.i{fill:#737373;}.j{fill:#b2b2b2;}.k{fill:#d2d2d2;}.l{fill:#235a89;}.m{fill:#72b4e8;}.n{fill:#2488d8;}.o{fill:#99bcd7;}.p{fill:#939393;}.q{fill:#479cdf;}.r{fill:#8fc3ec;}.s{fill:#0078d7;}.s,.t{fill-rule:evenodd;}.u{fill:#282828;}.v{fill:#5c2d91;}.w{fill:#8867c8;}.x{fill:#9e83e3;}.y{fill:#b4a0ff;}</style></defs><title>swimlane-uwp-iot-core</title><path class="a" d="M184.43,99.753A13.018,13.018,0,0,0,171.766,86.7a11.619,11.619,0,0,0,.183-2.6A17.182,17.182,0,0,0,145.663,69.74,20.368,20.368,0,0,0,107.83,80.183l-.017.016a16.311,16.311,0,1,0-.728,32.6h64.308A13.075,13.075,0,0,0,184.43,99.753Z"/><path class="b" d="M263.814,25.723h4.008s3.006-3.688,12.024-2.213A89.934,89.934,0,0,1,294.877,27.2s-21.043,1.475-23.047,1.475a6.212,6.212,0,0,1-3.551-1.475h-4.466Z"/><path class="b" d="M261.81,27.114H257.8S254.8,30.8,245.777,29.327a89.934,89.934,0,0,1-15.031-3.688s21.043-1.475,23.047-1.475a6.212,6.212,0,0,1,3.551,1.475h4.466Z"/><rect class="c" x="260.808" y="22.661" width="4.008" height="12.024" transform="translate(525.623 57.347) rotate(-180)"/><path class="b" d="M124.53,25.723h-4.008s-3.006-3.688-12.024-2.213A89.934,89.934,0,0,0,93.467,27.2s21.043,1.475,23.047,1.475a6.212,6.212,0,0,0,3.551-1.475h4.466Z"/><path class="b" d="M126.534,27.114h4.008s3.006,3.688,12.024,2.213A89.934,89.934,0,0,0,157.6,25.639s-21.043-1.475-23.047-1.475A6.212,6.212,0,0,0,131,25.639h-4.466Z"/><rect class="c" x="123.528" y="22.661" width="4.008" height="12.024"/><path class="b" d="M158.838,93.09h-4.008a24.068,24.068,0,0,1,24.04-24.04v4.008A20.054,20.054,0,0,0,158.838,93.09Z"/><path class="b" d="M230.976,93.09h4.008a24.068,24.068,0,0,0-24.04-24.04v4.008A20.054,20.054,0,0,1,230.976,93.09Z"/><rect class="d" x="256.799" y="31.68" width="12.024" height="8.016" rx="2.11" ry="2.11" transform="translate(525.623 71.375) rotate(-180)"/><rect class="d" x="119.52" y="31.68" width="12.024" height="8.016" rx="2.177" ry="2.177"/><path class="e" d="M189.663,40.7H133.549V37.692H117.516s-2,6.012,4.008,8.016S192.669,56.73,192.669,56.73Z"/><path class="e" d="M198.681,40.7H254.8V37.692h16.033s2,6.012-4.008,8.016S195.675,56.73,195.675,56.73Z"/><rect class="d" x="175.133" y="48.213" width="39.08" height="28.057" rx="4.375" ry="4.375"/><circle class="b" cx="194.673" cy="74.767" r="11.559"/><circle class="f" cx="194.673" cy="74.767" r="4.904"/><rect class="g" x="167.117" y="33.183" width="54.11" height="27.055" rx="11.5" ry="11.5"/><circle class="h" cx="200.528" cy="47.211" r="5.668"/><circle class="h" cx="186.5" cy="47.211" r="3.006"/><path class="i" d="M501.02,157.111a2.1,2.1,0,0,0-1.519-1.1,432.057,432.057,0,0,0-66.1-5.341q-1.264,0-2.526.01c-.56-.005-1.119-.01-1.66-.01-.139,0-.276.02-.414.03a531.176,531.176,0,0,0-65.662,5.328,2.1,2.1,0,0,0-1.556,1.1c-2.075,3.942-9.729,19.774-9.729,38.845,0,22.323,7.873,45.442,9.814,50.8a2.1,2.1,0,0,0,1.635,1.362,432.5,432.5,0,0,0,65.912,5.31c32.235,0,63.534-4.363,70.064-5.328a2.112,2.112,0,0,0,1.679-1.37c1.957-5.409,9.8-28.49,9.8-50.776C510.76,176.871,503.078,161.016,501.02,157.111Z"/><path class="j" d="M503.6,154.535a2.1,2.1,0,0,0-1.519-1.1,432.057,432.057,0,0,0-66.1-5.341q-1.264,0-2.526.01c-.56-.005-1.119-.01-1.66-.01-.139,0-.276.02-.414.03a531.176,531.176,0,0,0-65.662,5.328,2.1,2.1,0,0,0-1.556,1.1c-2.075,3.942-9.729,19.774-9.729,38.845,0,22.323,7.873,45.442,9.814,50.8a2.1,2.1,0,0,0,1.635,1.362,432.5,432.5,0,0,0,65.912,5.31c32.235,0,63.534-4.363,70.064-5.328a2.112,2.112,0,0,0,1.679-1.37c1.957-5.409,9.8-28.49,9.8-50.776C513.336,174.3,505.654,158.44,503.6,154.535Z"/><path class="k" d="M513.15,199.486c.119-2.025.186-4.058.186-6.084,0-19.106-7.682-34.961-9.74-38.867a2.1,2.1,0,0,0-1.519-1.1,432.052,432.052,0,0,0-66.1-5.341q-1.264,0-2.526.009c-.56,0-1.119-.009-1.66-.009-.139,0-.276.019-.414.029a531.285,531.285,0,0,0-65.662,5.328,2.1,2.1,0,0,0-1.556,1.1c-2.075,3.942-9.729,19.774-9.729,38.845,0,2.026.067,4.059.186,6.084Z"/><circle class="b" cx="403.918" cy="232.927" r="4.616"/><circle class="b" cx="430.442" cy="232.665" r="4.616"/><circle class="b" cx="456.966" cy="232.402" r="4.616"/><path class="l" d="M497.437,194.583H484.288a1.321,1.321,0,0,1-1.111-2.035l6.574-10.227a1.321,1.321,0,0,1,2.222,0l6.574,10.227A1.321,1.321,0,0,1,497.437,194.583Z"/><path class="l" d="M497.437,199.836H484.288a1.321,1.321,0,0,0-1.111,2.035l6.574,10.227a1.321,1.321,0,0,0,2.222,0l6.574-10.227A1.321,1.321,0,0,0,497.437,199.836Z"/><rect class="d" x="383.186" y="161.754" width="91.921" height="60.143" rx="7.248" ry="7.248"/><rect class="m" x="389" y="166.729" width="80" height="50" rx="4.142" ry="4.142"/><path class="n" d="M417.418,167.007H392.791a3.263,3.263,0,0,0-3.263,3.264v43.11a3.263,3.263,0,0,0,3.263,3.264h42.1Z"/><path class="n" d="M465.8,167.007H445.146l17.478,49.637H465.8a3.263,3.263,0,0,0,3.263-3.264V170.27A3.263,3.263,0,0,0,465.8,167.007Z"/><path d="M444.908,175.175v1.4l-6.845,14.32h-2.2l6.821-13.909v-.048H434.99v-1.766Z"/><path d="M447.111,190.9v-1.306l1.669-1.62c4.015-3.822,5.829-5.854,5.854-8.224a2.8,2.8,0,0,0-3.121-3.072,5.355,5.355,0,0,0-3.338,1.33l-.677-1.5a6.9,6.9,0,0,1,4.45-1.6,4.424,4.424,0,0,1,4.814,4.572c0,2.9-2.1,5.248-5.418,8.441l-1.257,1.161v.048h7.063V190.9Z"/><path d="M461.849,180.112a2.736,2.736,0,1,1,2.736-2.736A2.739,2.739,0,0,1,461.849,180.112Zm0-3.9a1.16,1.16,0,1,0,1.16,1.16A1.161,1.161,0,0,0,461.849,176.215Z"/><path class="o" d="M78.988,136.729H301a0,0,0,0,1,0,0v149a0,0,0,0,1,0,0H80.531A4.531,4.531,0,0,1,76,281.2V139.717A2.988,2.988,0,0,1,78.988,136.729Z"/><path class="l" d="M270,136.729h44.536A5.464,5.464,0,0,1,320,142.193V280.056a5.673,5.673,0,0,1-5.673,5.673H270a0,0,0,0,1,0,0v-149A0,0,0,0,1,270,136.729Z"/><rect class="d" x="92" y="152.729" width="155" height="118" rx="1.917" ry="1.917"/><rect class="p" x="97" y="157.729" width="145" height="108" rx="1.917" ry="1.917"/><rect class="l" x="97" y="157.729" width="145" height="108" rx="1.917" ry="1.917"/><rect class="d" x="253" y="145.729" width="11" height="129" rx="3.554" ry="3.554"/><rect class="f" x="274" y="152.729" width="42" height="34"/><rect class="q" x="274" y="195.729" width="11" height="8"/><rect class="q" x="290" y="195.729" width="11" height="8"/><rect class="q" x="305" y="195.729" width="11" height="8"/><rect class="q" x="274" y="208.729" width="11" height="8"/><rect class="q" x="290" y="208.729" width="11" height="8"/><rect class="q" x="305" y="208.729" width="11" height="8"/><rect class="q" x="274" y="220.729" width="11" height="8"/><rect class="q" x="290" y="220.729" width="11" height="8"/><rect class="q" x="305" y="220.729" width="11" height="8"/><rect class="r" x="274" y="233.729" width="11" height="8"/><rect class="r" x="290" y="233.729" width="11" height="8"/><rect class="r" x="305" y="233.729" width="11" height="8"/><path class="s" d="M190.824,157.729h-62.76l51.118,108h60.552a2.978,2.978,0,0,0,1.82-.628Z"/><path class="h" d="M288.145,164.651c0,2.8-1.039,4.346-2.863,4.346-1.61,0-2.7-1.507-2.725-4.232,0-2.762,1.192-4.283,2.864-4.283C287.156,160.481,288.145,162.027,288.145,164.651Zm-4.473.126c0,2.142.659,3.358,1.673,3.358,1.14,0,1.685-1.331,1.685-3.434,0-2.027-.519-3.358-1.673-3.358C284.382,161.343,283.672,162.535,283.672,164.777Z"/><path class="h" d="M294.649,164.651c0,2.8-1.039,4.346-2.863,4.346-1.61,0-2.7-1.507-2.725-4.232,0-2.762,1.192-4.283,2.864-4.283C293.661,160.481,294.649,162.027,294.649,164.651Zm-4.473.126c0,2.142.659,3.358,1.673,3.358,1.14,0,1.685-1.331,1.685-3.434,0-2.027-.519-3.358-1.673-3.358C290.886,161.343,290.176,162.535,290.176,164.777Z"/><path class="h" d="M295.768,163.738a.755.755,0,1,1,1.507,0,.754.754,0,1,1-1.507,0Zm0,4.474a.755.755,0,1,1,1.507,0,.754.754,0,1,1-1.507,0Z"/><path class="h" d="M303.777,164.651c0,2.8-1.039,4.346-2.863,4.346-1.61,0-2.7-1.507-2.725-4.232,0-2.762,1.192-4.283,2.864-4.283C302.789,160.481,303.777,162.027,303.777,164.651Zm-4.473.126c0,2.142.658,3.358,1.673,3.358,1.14,0,1.685-1.331,1.685-3.434,0-2.027-.519-3.358-1.673-3.358C300.014,161.343,299.3,162.535,299.3,164.777Z"/><path class="h" d="M310.281,164.651c0,2.8-1.039,4.346-2.863,4.346-1.61,0-2.7-1.507-2.725-4.232,0-2.762,1.192-4.283,2.864-4.283C309.292,160.481,310.281,162.027,310.281,164.651Zm-4.473.126c0,2.142.659,3.358,1.673,3.358,1.14,0,1.685-1.331,1.685-3.434,0-2.027-.519-3.358-1.673-3.358C306.518,161.343,305.808,162.535,305.808,164.777Z"/><rect class="h" x="253" y="158.729" width="11" height="100"/><polygon class="t" points="274 152.729 274 156.729 313 156.729 313 186.729 316 186.729 316 152.729 274 152.729"/><path class="i" d="M544.4,94.507c-8.32-4.871-16.542-18.825-10.49-29.6a26.84,26.84,0,0,1,3.663-4.686c3.588-3.965,7.3-8.065,4.9-16.648-3.078-11-20.9-8.8-38.883-5.608l-.818-4.609c15.821-2.813,39.729-7.061,44.21,8.955,3.1,11.07-2.121,16.839-5.932,21.051a23.651,23.651,0,0,0-3.053,3.837c-3.052,5.434-1.109,17.486,8.773,23.272Z"/><rect class="u" x="495.01" y="26.598" width="12.042" height="20.459" transform="translate(3.218 104.432) rotate(-11.938)"/><rect class="u" x="442.996" y="41.853" width="26.675" height="54.772" rx="8.584" ry="8.584" transform="translate(-4.453 95.888) rotate(-11.938)"/><rect class="u" x="371.726" y="55.561" width="9.711" height="20.977" transform="translate(-5.518 79.323) rotate(-11.938)"/><rect class="v" x="378.597" y="42.05" width="124.306" height="25.897" transform="translate(-1.844 92.356) rotate(-11.938)"/><path class="w" d="M548.413,121.527a11.02,11.02,0,0,1-14.379,5.964l-78.39-32.424a11.007,11.007,0,1,1,8.414-20.342l78.39,32.424A11.02,11.02,0,0,1,548.413,121.527Z"/><circle class="v" cx="458.871" cy="84.608" r="5.723"/><polygon class="x" points="555.999 153.948 528.406 138.41 528.406 91.316 555.999 75.778 555.999 153.948"/><polygon class="w" points="528.406 114.862 528.406 138.41 555.999 153.948 555.999 114.862 528.406 114.862"/><rect class="u" x="552.231" y="69.07" width="7.769" height="93.683"/><polygon class="w" points="501.024 39.608 397.142 61.571 356.991 59.471 353.777 44.269 495.667 14.271 501.024 39.608"/><rect class="y" x="352.959" y="29.192" width="145.026" height="7.251" transform="translate(2.413 88.717) rotate(-11.938)"/></svg>