<svg xmlns="http://www.w3.org/2000/svg" viewBox="0 0 636 300"><defs><style>.a{fill:#007596}.b{fill:#69afe5}.c{fill:#f3f3f3}.d{fill:#2488d8}.e{fill:#8e562e}.f{fill:#106ebe}.g{fill:#bb9167}.h{fill:#00b294}.i{fill:#008272}.j{fill:#f8d5b9}.k{fill:#613d30}.l{fill:#e6e6e6}.m{fill:#5c005c}.n{fill:none;stroke:#fff;stroke-linecap:round;stroke-linejoin:round;stroke-width:.057px}.o{fill:#409ae1}.p{fill:#004578}.q{fill:#0078d7}.r{fill:#005a93}.s{fill:#d8b094}.t{fill:#737373}.u{fill:#004880}</style></defs><title>swimlane-free-open-source</title><path class="a" d="M270.852 196.248a25.469 25.469 0 0 0 5.437 40.224l1.517.754a21.339 21.339 0 0 1-26.555-30.419 21.666 21.666 0 0 1 19.6-10.559"/><path class="b" d="M177.063 73.92h226v167H189.83a12.788 12.788 0 0 1-12.766-12.72z"/><path class="c" d="M397.063 80.92h-178v2h176v150h-216.9c.253.507 1.012 2 1.012 2h217.888z"/><path class="d" d="M218.063 73.919v152h-21.511c-7.719 0-14.173 5.438-14.173 13.278 0 0-5.315-3.288-5.315-9.1 0-16.692-.127-156.173-.127-156.173h41.127z"/><path class="b" d="M191.547 58.92a14.251 14.251 0 0 0-14.483 14.056v155.87c.517-7.279 6.724-12.926 14.483-12.926h15.517v-157z"/><path class="e" d="M406.659 229.809c-3.793-3.394-9.737-7.416-12.645-15.335s-6.955-9.93 2.276-13.324a142.41 142.41 0 0 1 18.462 23.38 19.284 19.284 0 0 1-8.093 5.279zM368.724 210.075a3.251 3.251 0 0 0 4.046 2.263 3.3 3.3 0 0 0 2.4-4.022 3.343 3.343 0 1 0-6.449 1.759zM374.793 222.645a3.363 3.363 0 0 0 6.07-2.892 3.5 3.5 0 0 0-4.552-1.634 3.45 3.45 0 0 0-1.518 4.526zM379.219 228.678a3.391 3.391 0 0 0 4.426 1.634 3.5 3.5 0 0 0 1.644-4.525 3.412 3.412 0 0 0-4.552-1.508 3.2 3.2 0 0 0-1.518 4.4zM384.658 234.083a3.284 3.284 0 0 0 4.426 1.634 3.248 3.248 0 0 0 1.644-4.4 3.284 3.284 0 0 0-4.426-1.634 3.247 3.247 0 0 0-1.644 4.4z"/><path class="f" d="M351.78 145.088l66.766 100.811-15.932 10.307-66.64-100.685 15.806-10.433z"/><path class="g" d="M378.966 194.236a77.7 77.7 0 0 0 17.324 2.514l27.566 8.673s4.046 23.632-5.817 22.626c-9.863-1.131-21.623-21.118-21.623-21.118a22.428 22.428 0 0 0-7.081-1.634c-8.725 1.007-13.277-7.29-10.369-11.061z"/><path class="g" d="M454.331 214.6l-58.04-17.849 20.738 31.047 34.393 13.325 2.909-26.523z"/><path class="h" d="M457.063 214.349l-22.255-7.417-3.54 28.534 25.795 10.81v-31.927z"/><path class="i" d="M457.063 238.483l-24.911-10.308-.884 7.291 25.795 10.81v-7.793z"/><path class="j" d="M353.3 109.641s-7.081-12.7-1.77-23.38c-12.9 8.422-13.4 10.182-13.4 10.182l2.15 16.844z"/><path class="k" d="M353.3 109.641s-7.081-12.7-1.77-23.38c-12.9 8.422-13.4 10.182-13.4 10.182l2.15 16.844z"/><path class="e" d="M331.8 90.409s1.644 7.291 5.184 7.919c3.414.5 13.151-8.422 13.277-9.3 14.415 4.777 9.357 18.478 9.357 18.478s.759 1.131 9.989 6.159c17.7-5.4 16.059-18.226 16.059-18.226l5.437-.377-.253-21.243-19.726 3.52s-21.117-3.771-23.267-1.257c-1.514 1.631-16.057 14.327-16.057 14.327z"/><path class="l" d="M387.944 71.177l1.266 25.517 12.264-.503-1.39-26.649-12.14 1.635z"/><path class="k" d="M357.849 93.928l8.351-17.347a20.769 20.769 0 0 0-3.161-.5s-9.1 14.455-8.6 14.832a16.212 16.212 0 0 1 3.414 3.018z"/><path class="m" d="M362.529 62.503l-30.728 57.068 2.024 1.131 30.726-57.067-2.022-1.132z"/><path class="n" d="M362.529 62.503l-30.728 57.068 2.024 1.131 30.726-57.067-2.022-1.132z"/><path class="f" d="M368.598 65.771l-4.047-2.136-2.022-1.132-30.728 57.068 2.024 1.131 4.045 2.137 30.728-57.068z"/><path class="c" d="M331.801 119.571l-.252 7.793 6.321-4.525-6.069-3.268z"/><path class="f" d="M334.71 125.102l-3.161 2.262.126-3.896 3.035 1.634z"/><path class="c" d="M365.943 61.246l-1.392 2.389 4.047 2.136 1.392-2.388-4.047-2.137z"/><path class="n" d="M365.943 61.246l-1.392 2.389 4.047 2.136 1.392-2.388-4.047-2.137z"/><path class="o" d="M365.943 61.246l-1.392 2.389-2.022-1.132 1.391-2.388 2.023 1.131z"/><path class="n" d="M365.943 61.246l-1.392 2.389-2.022-1.132 1.391-2.388 2.023 1.131z"/><path class="f" d="M371.632 60.115a.869.869 0 0 0-.379-1.257l-2.276-1.258a7.333 7.333 0 0 1-.885-.5 3.193 3.193 0 0 1-.885-.5l-.253-.126a1.066 1.066 0 0 0-1.391.5l-1.9 3.394 2.023 1.132 4.046 2.137z"/><path class="b" d="M365.689 61.5l2.4-4.4a3.193 3.193 0 0 1-.885-.5l-.253-.126a1.066 1.066 0 0 0-1.391.5l-1.9 3.394zM362.529 62.503l-30.728 57.068 2.024 1.131 30.726-57.067-2.022-1.132z"/><path class="e" d="M337.618 114.291a3.909 3.909 0 0 1-4.426-3.52l-2.4-17.347a4.053 4.053 0 0 1 3.541-4.4 3.994 3.994 0 0 1 4.426 3.52l2.4 17.347a3.98 3.98 0 0 1-3.541 4.4zM341.158 116.554a5.229 5.229 0 0 1 3.667-6.411l22-6.536a5.217 5.217 0 1 1 2.782 10.056l-22 6.536a5.267 5.267 0 0 1-6.449-3.645z"/><path class="k" d="M357.849 114.543l-15.174 4.525a5.4 5.4 0 0 0 4.932 1.131l22-6.536c16.944-5.154 16.186-17.1 16.059-18.1 0 0-2.4 12.193-27.819 18.981z"/><path class="h" d="M459.063 57.35c-17.324 2.765-65.627 10.433-65.627 10.433l1.517 30.8s48.051-.252 64.11-.629z"/><path class="i" d="M459.063 93.264l-64.235 1.759.126 3.897 64.109-.251v-5.405z"/><path class="f" d="M324.973 67.531l-72.835-25.14-25.416 72.529 98.251-47.389zM259.724 57.6l34.268 11.816-46.153 22.25L259.724 57.6z"/><path class="p" d="M232.664 112.029l-2.149 1.005-1.517-3.142 2.149-1.005 1.517 3.142zM236.838 110.018l-2.024 1.005-1.517-3.142 2.024-1.006 1.517 3.143zM241.011 108.007l-2.024 1.005-1.517-3.142 2.023-1.006 1.518 3.143zM245.31 105.995l-2.15 1.006-1.518-3.143 2.151-1.005 1.517 3.142zM249.483 103.984l-2.024 1.006-1.644-3.268 2.15-1.006 1.518 3.268zM253.655 101.847l-2.023 1.006-1.518-3.143 2.024-1.005 1.517 3.142zM257.955 99.836l-2.15 1.006-1.518-3.143 2.151-1.005 1.517 3.142zM262.128 97.825l-2.024 1.006-1.644-3.143 2.151-1.006 1.517 3.143zM266.3 95.814l-2.022 1.005-1.519-3.142 2.024-1.006 1.517 3.143zM270.599 93.802l-2.149 1.006-1.517-3.142 2.023-1.006 1.643 3.142zM274.772 91.791l-2.023 1.006-1.643-3.143 2.15-1.005 1.516 3.142zM278.946 89.78l-2.024 1.006-1.518-3.269 2.023-1.005 1.519 3.268zM283.244 87.643l-2.15 1.006-1.517-3.143 2.024-1.005 1.643 3.142zM287.417 85.632l-2.022 1.006-1.645-3.143 2.15-1.005 1.517 3.142zM291.59 83.621l-2.022 1.006-1.518-3.143 2.022-1.006 1.518 3.143zM295.89 81.61l-2.15 1.005-1.517-3.142 2.022-1.006 1.645 3.143zM300.063 79.599l-2.151 1.005-1.517-3.142 2.15-1.006 1.518 3.143zM304.236 77.587l-2.023 1.006-1.519-3.143 2.024-1.005 1.518 3.142zM308.534 75.576l-2.15 1.006-1.516-3.269 2.023-.879 1.643 3.142zM312.707 73.565l-2.149.88-1.517-3.143 2.148-1.005 1.518 3.268zM316.881 71.428l-2.025 1.006-1.517-3.143 2.023-1.006 1.519 3.143zM321.052 69.417l-2.023 1.005-1.517-3.142 2.023-1.006 1.517 3.143zM252.138 42.391l8.598 15.713 4.299-7.416-1.264-4.274-11.633-4.023z"/><path class="g" d="M289.156 55.409l9.61 3.268c-3.161-9.805-1.77-10.559-4.173-15.084-2.908-5.657-9.484-8.422-12.771-8.673h-.122l-5.943-22.877-23.014 12.7 8.346 26.02-2.023 9.176a4.158 4.158 0 0 0 3.161 4.9 4.086 4.086 0 0 0 2.15-.126 4.231 4.231 0 0 0 3.288 4.4 3.1 3.1 0 0 0 2.4-.252v.126a4.244 4.244 0 0 0 3.288 4.9 4.5 4.5 0 0 0 4.046-1.508 3.426 3.426 0 0 0 2.15 1.257 4.088 4.088 0 0 0 4.932-3.142l1.264-6.159 3.288-9.427z"/><path class="l" d="M273.507 10.92l-24.531 10.81 2.53 5.657 27.44-11.187-1.391-5.28h-4.048z"/><path class="h" d="M241.517 7.92l6.953 15.084 29.843-11.941-1.012-3.143h-35.784z"/><path class="n" d="M241.517 7.92l6.953 15.084 29.843-11.941-1.012-3.143h-35.784z"/><path class="i" d="M267.818 7.92l4.3 5.657 6.195-2.514-1.012-3.143h-9.483z"/><path class="e" d="M289.693 55.464l9.61 3.268a89.056 89.056 0 0 1-.632-2.011zM253.908 26.428l23.647-9.554 1.138 4.148-24.785 5.406z"/><path class="l" d="M427.27 206.052a2.42 2.42 0 0 1-2.655 2.137 2.446 2.446 0 0 1-2.15-2.765 2.42 2.42 0 0 1 2.655-2.137 2.446 2.446 0 0 1 2.15 2.765z"/><path class="l" d="M426.765 210.829a2.4 2.4 0 0 1-2.655 2.137 2.256 2.256 0 0 1-2.15-2.64 2.416 2.416 0 0 1 4.8.5z"/><path class="l" d="M426.258 215.731a2.5 2.5 0 0 1-2.655 2.137 2.54 2.54 0 0 1-2.276-2.765 2.627 2.627 0 0 1 2.782-2.137 2.536 2.536 0 0 1 2.149 2.765z"/><path class="l" d="M425.753 220.508a2.454 2.454 0 0 1-2.782 2.137 2.414 2.414 0 0 1-2.15-2.64 2.454 2.454 0 0 1 2.782-2.137 2.415 2.415 0 0 1 2.15 2.64z"/><path class="l" d="M425.248 225.41a2.627 2.627 0 0 1-2.782 2.137 2.538 2.538 0 0 1-2.15-2.765 2.5 2.5 0 0 1 2.655-2.137 2.539 2.539 0 0 1 2.277 2.765z"/><path class="l" d="M424.615 230.187a2.416 2.416 0 0 1-4.8-.5 2.4 2.4 0 0 1 2.655-2.137 2.256 2.256 0 0 1 2.15 2.64z"/><path class="b" d="M207.063 82.92h12v-2h-12v2.296-.296zM184.614 232.92a5.045 5.045 0 0 0-1.012 2h-4.3c-.379-.739-.759-1.493-1.012-2z"/><path class="q" d="M338.882 153.51l-2.908 2.011 27.567 41.732 39.073 58.953 3.033-1.885-66.765-100.811z"/><path class="r" d="M399.578 245.145l-3.035 2.011-.885-1.508 2.909-2.012 1.011 1.509zM397.555 242.002l-3.035 2.012-1.012-1.509 3.035-2.011 1.012 1.508zM395.532 238.86l-3.034 2.011-1.012-1.508 3.034-2.011 1.012 1.508zM393.382 235.717l-3.034 2.012-.885-1.509 3.035-1.885.884 1.382zM391.358 232.701l-3.033 1.885-1.012-1.383 3.035-2.011 1.01 1.509zM389.335 229.558l-3.035 2.011-1.011-1.508 3.036-2.011 1.01 1.508zM387.187 226.416l-2.909 2.011-1.012-1.509 3.034-2.011.887 1.509zM385.162 223.273l-3.034 2.011-1.012-1.508 3.035-2.011 1.011 1.508zM383.14 220.256l-3.036 1.886-1.01-1.509 3.034-1.885 1.012 1.508zM381.116 217.114l-3.035 2.011-1.01-1.508 3.033-2.011 1.012 1.508zM378.966 214.417l-3.033 2.011-1.012-1.508h.125l2.91-2.011 1.01 1.508zM376.943 210.829l-3.035 2.011-1.011-1.508 3.036-2.012 1.01 1.509zM374.921 207.686l-3.035 2.012-1.012-1.509 3.034-1.885 1.013 1.382zM372.77 204.67l-3.034 1.885-.885-1.383 3.035-2.011.884 1.509zM370.748 201.527l-3.035 2.011-1.012-1.508 3.035-2.011 1.012 1.508zM368.724 198.385l-3.035 2.011-1.01-1.509 3.034-2.011 1.011 1.509zM366.575 195.242l-3.034 2.011-.887-1.508 3.035-2.011.886 1.508zM364.551 192.1l-3.035 2.011-1.01-1.509 3.035-1.885 1.01 1.383zM362.529 189.083l-3.035 1.885-1.012-1.382 3.034-2.012 1.013 1.509zM360.378 185.94l-2.908 2.012-1.011-1.509 3.035-2.011.884 1.508zM358.356 182.798l-3.035 2.011-1.012-1.508 3.035-2.012 1.012 1.509zM356.332 179.655l-3.035 2.012-1.01-1.509 3.034-2.011 1.011 1.508zM354.183 176.639l-2.908 1.885-1.013-1.508 3.035-1.886.886 1.509zM352.159 173.496l-3.035 1.886-1.01-1.383 3.033-2.011 1.012 1.508zM350.137 170.354l-3.035 2.011-1.012-1.509 3.034-2.011 1.013 1.509zM348.114 167.211l-3.036 2.011-1.011-1.508 3.035-2.011 1.012 1.508zM345.964 164.069l-3.035 2.011-.886-1.509 2.908-1.885 1.013 1.383zM343.94 161.052l-3.035 1.885-1.011-1.382 3.035-2.012 1.011 1.509z"/><path class="b" d="M404.383 246.528l-2.656 1.759-1.011-1.508 2.655-1.76 1.012 1.509zM402.233 243.385l-2.655 1.76-1.011-1.509 2.656-1.759 1.01 1.508zM400.21 240.243l-2.655 1.759-1.012-1.508 2.655-1.76 1.012 1.509zM398.188 237.226l-2.656 1.634-1.012-1.508 2.655-1.635 1.013 1.509zM398.313 232.575l-4.931 3.142-.884-1.382 4.931-3.269.884 1.509zM394.015 230.941l-2.657 1.76-1.01-1.509 2.655-1.76 1.012 1.509zM391.991 227.798l-2.656 1.76-1.01-1.508 2.654-1.76 1.012 1.508zM389.841 224.656l-2.654 1.76-.887-1.509 2.656-1.634.885 1.383zM387.818 221.639l-2.656 1.634-1.011-1.508 2.655-1.634 1.012 1.508zM388.072 216.988l-4.932 3.268-1.012-1.508 4.931-3.268 1.013 1.508zM383.771 215.354l-2.655 1.76-1.012-1.508 2.657-1.76 1.01 1.508zM381.623 212.212l-2.657 1.759-1.01-1.508 2.655-1.76 1.012 1.509zM379.599 209.069l-2.656 1.76-1.01-1.509 2.655-1.634 1.011 1.383zM377.576 206.052l-2.655 1.634-1.013-1.382 2.656-1.76 1.012 1.508zM377.702 201.401l-4.932 3.269-.884-1.509 4.804-3.268 1.012 1.508zM373.404 199.767l-2.656 1.76-1.012-1.508 2.655-1.76 1.013 1.508zM371.379 196.625l-2.655 1.76-1.011-1.509 2.656-1.76 1.01 1.509zM369.231 193.482l-2.656 1.76-.886-1.508 2.656-1.634.886 1.382zM367.207 190.465l-2.656 1.76-1.01-1.508 2.655-1.76 1.011 1.508zM367.46 185.815l-4.931 3.268-1.013-1.509 4.932-3.268 1.012 1.509zM363.034 184.181l-2.656 1.759-.884-1.508 2.656-1.76.884 1.509zM361.012 181.038l-2.656 1.76-1.012-1.509 2.655-1.634 1.013 1.383zM358.987 178.021l-2.655 1.634-1.011-1.382 2.656-1.76 1.01 1.508zM356.839 174.879l-2.656 1.76-.886-1.509 2.656-1.76.886 1.509zM357.091 170.228l-4.932 3.268-1.012-1.508 4.933-3.269 1.011 1.509zM352.792 168.594l-2.655 1.76-1.013-1.509 2.656-1.76 1.012 1.509zM350.769 165.451l-2.655 1.76-1.012-1.508 2.655-1.634 1.012 1.382zM348.619 162.435l-2.655 1.634-1.013-1.383 2.656-1.76 1.012 1.509zM346.595 159.292l-2.655 1.76-1.011-1.509 2.656-1.759 1.01 1.508z"/><path class="r" d="M401.654 248.339l-3.035 2.012-.884-1.509 2.909-2.011 1.01 1.508z"/><path class="a" d="M274.93 175.8a25.469 25.469 0 0 0 16.765 36.966l1.67.286a21.339 21.339 0 0 1-34.175-21.508 21.663 21.663 0 0 1 15.74-15.744"/><path class="g" d="M255.5 209.183a3.5 3.5 0 1 1-2.341-4.285 3.5 3.5 0 0 1 2.341 4.285z"/><path class="r" d="M254.628 190.417a25.845 25.845 0 0 0 19.3 31.349 26.062 26.062 0 1 0-19.3-31.349"/><path class="o" d="M259.189 191.542a21.385 21.385 0 1 0 25.9-15.772 21.524 21.524 0 0 0-25.9 15.772"/><path class="q" d="M274.723 175.99a25.374 25.374 0 0 0 16.728 36.845 9.494 9.494 0 0 0 1.706.407 21.4 21.4 0 0 1-34.175-21.508 21.288 21.288 0 0 1 15.741-15.744"/><path class="r" d="M226.784 233.151l35.616-22.1-3.682-6.113-35.737 22.136a3.486 3.486 0 0 0-1.2 4.82 3.566 3.566 0 0 0 5 1.257"/><path class="p" d="M225.963 225.13l-2.981 1.944-.363.109c-.085.157-.206.193-.291.35l3.125 6.018a1.151 1.151 0 0 0 .642-.061.124.124 0 0 1 .085-.157l.242-.073.363-.109 3.223-2.017z"/><path class="s" d="M257.938 236.667L259.4 223.5a8.585 8.585 0 0 0-1.455-5.732l-9.245-14.55a4.322 4.322 0 0 0-5.469-1.509 4.1 4.1 0 0 0-2.019 5.593l.072.241a4.178 4.178 0 0 0-5.083-1.1 4.1 4.1 0 0 0-2.212 5.388 4.318 4.318 0 0 0-6.993 4.853 3.3 3.3 0 0 0 1.39 1.552 4.335 4.335 0 0 0-3.087.27 4.1 4.1 0 0 0-2.14 5.629l.036.12 13.695 26.732c.508.373 11.989 18.845 11.989 18.845l25.546-8.581z"/><path class="g" d="M257.607 268.131l-31.021-46.207-.036-.12a3.916 3.916 0 0 1 .079-3.7 2.608 2.608 0 0 0-1.332.4 4.1 4.1 0 0 0-2.14 5.629l.036.12 13.7 26.732c.508.373 12.943 20.264 12.943 20.264"/><path class="t" d="M268.249 245.516a1.158 1.158 0 0 1-.451 1.579l-26.91 13.714a1.165 1.165 0 0 1-1.585-.443l-2.9-5.693a1.155 1.155 0 0 1 .572-1.615l26.789-13.678a1.164 1.164 0 0 1 1.585.443z"/><path class="u" d="M268.249 245.516a1.158 1.158 0 0 1-.451 1.579l-26.91 13.714a1.165 1.165 0 0 1-1.585-.443l-2.9-5.693a1.155 1.155 0 0 1 .572-1.615l26.789-13.678a1.164 1.164 0 0 1 1.585.443z"/><path d="M263.45 249.318l-18.09 9.232-4.03-7.715 18.09-9.231 4.03 7.714z"/><path class="o" d="M260.581 248.998l-4.47 2.259-2.522-4.886 4.47-2.26 2.522 4.887z"/><path class="c" d="M257.056 246.714l-1.127.207.253.843.242-.073-.108-.361.363-.109.132.879-.061.675-.62.579.194.204.739-.615-.01-.916.593.216-.025.795.242-.072.111-.952-.714-.18-.061-.638.473.252.411-.386-.193-.205-.327.23-.507-.373z"/><path class="n" d="M257.056 246.714l-1.127.207.253.843.242-.073-.108-.361.363-.109.132.879-.061.675-.62.579.194.204.739-.615-.01-.916.593.216-.025.795.242-.072.111-.952-.714-.18-.061-.638.473.252.411-.386-.193-.205-.327.23-.507-.373z"/><path class="c" d="M257.353 246.16a.4.4 0 0 1-.255.47c-.278-.048-.436-.132-.472-.252a.379.379 0 0 1 .727-.218z"/><path class="o" d="M255.869 251.33l-4.436 2.38-2.522-4.886 4.436-2.381 2.522 4.887z"/><path class="c" d="M250.75 250.109l.748 1.613 2.64-1.317-.747-1.613-.815 1.688-1.826-.371z"/><path class="n" d="M250.75 250.109l.748 1.613 2.64-1.317-.747-1.613-.815 1.688-1.826-.371z"/><path class="c" d="M250.521 249.785l.035.12 1.827.371.814-1.688-.035-.121-2.641 1.318z"/><path class="n" d="M250.521 249.785l.035.12 1.827.371.814-1.688-.035-.121-2.641 1.318z"/><path class="o" d="M251.192 253.783l-4.472 2.259-2.522-4.886 4.472-2.26 2.522 4.887z"/><path class="c" d="M248.75 251.365a.8.8 0 0 0-1.113-.191c-.242.073-.448.266-.376.507a.968.968 0 0 0-.678-.059.921.921 0 0 0-.474 1.061c.338.686 1.572.841 2.129.936.219-.591.85-1.568.512-2.254"/><path class="h" d="M271.417 255.454l-24.848 11.784 11.93 24.682 39.452.16-26.534-36.626z"/><path class="i" d="M273.674 291.92H257.86l-11.291-24.842 7.753-3.638 19.352 28.48z"/></svg>