<svg xmlns="http://www.w3.org/2000/svg" viewBox="0 0 636 300"><title>swimlane-try-dotnet-features</title><path d="M365.047,300H262.764a5.066,5.066,0,0,1-3.352-1.437,4.833,4.833,0,0,1-1.436-3.256,4.5,4.5,0,0,1,1.436-3.352,4.786,4.786,0,0,1,3.352-1.341H365.047a5.565,5.565,0,0,1,1.82.288,3.393,3.393,0,0,1,1.532,1.053,5.487,5.487,0,0,1,1.054,1.533,3.887,3.887,0,0,1,.383,1.819,4.492,4.492,0,0,1-1.437,3.352A4.958,4.958,0,0,1,365.047,300Z" fill="#b2b2b2"/><path d="M337.465,124.452s-2.873-17.621-5.267-28.826-10.726-12.355-14.749-12.355h-.383c-4.022,0-12.354,1.15-14.748,12.355s-5.268,28.826-5.268,28.826l15.036.192-.1.575Z" fill="#282828"/><path d="M381.233,81.356l-6.226.479a3.01,3.01,0,0,0-1.532.574,2.65,2.65,0,0,0-1.053,1.245L371.847,85l-13.5,25.666-9.96,6.417,3.735,9.864,13.5-10.726a4.314,4.314,0,0,0,1.053-1.628L375.2,90.837l4.6-1.053,3.16.191a1.036,1.036,0,0,0,.767-.191.865.865,0,0,0,.574-.575l1.15-1.915a1.791,1.791,0,0,0,.191-.671,1.415,1.415,0,0,0-.1-.67l-1.149-2.394,3.16-.192a2.616,2.616,0,0,0,1.82-.766,4.015,4.015,0,0,0,1.054-1.724v-.192Z" fill="#bb9167"/><path d="M333.635,230.854a5.761,5.761,0,0,0-1.533-4.214,6.044,6.044,0,0,0-4.022-2.012,5.687,5.687,0,0,0-4.214,1.437,5.848,5.848,0,0,0-2.011,4.022l-3.161,54.4c0,1.82,6.609,2.49,6.7.479Z" fill="#bb9167"/><path d="M298.678,230.854a6.107,6.107,0,0,1,1.437-4.214,5.826,5.826,0,0,1,3.926-2.012,6.255,6.255,0,0,1,2.3.192,4.273,4.273,0,0,1,2.011,1.149,6.712,6.712,0,0,1,1.437,1.82,4.447,4.447,0,0,1,.574,2.2l3.161,54.4c-.192,1.82-6.608,2.49-6.7.479Z" fill="#bb9167"/><path d="M313.619,230.949l.67,51.142h-9.864l-7.854-50.184-.287-52.1,20.686-5.076C322.334,190.438,313.523,213.04,313.619,230.949Z" fill="#002050"/><path d="M317.737,282.187h9.577l9-51.333-.862-56.026H316.4l2.777,56.409Z" fill="#002050"/><path d="M314.289,288.029l.191,4.884c-.191,1.341-1.149,1.724-2.777,1.915-7.087,1.054-20.782,1.15-20.782,1.15-2.682,0-2.394-2.012-.958-2.49,2.3-.671,4.5-1.437,6.7-2.3C301.264,291,314.289,288.029,314.289,288.029Z" fill="#252829"/><path d="M313.619,284.1c0,1.437.67,3.256.478,3.927,0,1.34-15.323,3.735-15.323,3.735-1.245.191-3.065-.192-2.107-.575,4.31-1.436,10.343-5.555,9.96-7.183h6.992Z" fill="#bb9167"/><path d="M318.024,288.029l-.192,4.884c.192,1.341,1.15,1.724,2.778,1.915,7.087,1.054,20.782,1.15,20.782,1.15,2.682,0,2.394-2.012.958-2.49-2.3-.671-4.5-1.437-6.7-2.3C331.049,291,318.024,288.029,318.024,288.029Z" fill="#252829"/><path d="M318.694,284.1c0,1.437-.67,3.256-.479,3.927,0,1.34,15.324,3.735,15.324,3.735,1.245.191,3.064-.192,2.107-.575-4.31-1.436-10.343-5.555-9.96-7.183h-6.992Z" fill="#bb9167"/><path d="M289.1,194.173l-5.746-33.615a5.2,5.2,0,0,1,0-1.724l2.394-9.481,9.769,2.2-2.107,8.907a1.214,1.214,0,0,0-.1.575l2.011,31.508Z" fill="#bb9167"/><path d="M285.845,150.406l9.673,2.778-.671,2.3-9.672-2.873Z" fill="#ab845f"/><path d="M322.429,113.056c0,1.819.383,9,.383,9,2.107.383,5.459,1.054,5.459,1.054,10.535,3.256.671,12.641-12.546,12.258-13.7-.383-13.312-11.971-12.546-12.163l6.9-1.245c.287-2.2.67-9.1.67-9.1Z" fill="#bb9167"/><path d="M303.371,98.786a1.214,1.214,0,0,0-.575.1.947.947,0,0,0-.478.383c-.1.191-.288.287-.384.479a1.221,1.221,0,0,0-.1.574V103a2.673,2.673,0,0,0,.766,1.915,2.846,2.846,0,0,0,1.915.766H305v-5.459a1.763,1.763,0,0,0-.479-1.149A2.045,2.045,0,0,0,303.371,98.786Z" fill="#ab845f"/><path d="M317.641,86.815h-1.532a11.776,11.776,0,0,0-8.141,3.352,11.6,11.6,0,0,0-3.352,8.14v7.279a11.521,11.521,0,0,0,7.662,10.822l9.864-.288a11.8,11.8,0,0,0,4.98-4.214,11.1,11.1,0,0,0,1.916-6.225V98.4a11.776,11.776,0,0,0-3.352-8.141A10.723,10.723,0,0,0,317.641,86.815Z" fill="#bb9167"/><path d="M312.373,116.408v.766l.384,2.777c.862,2.2,6.32,6.225,13.886,9.194l2.778-5.842s-4.6-.862-6.609-1.149c-.191-2.969-.287-6.129-.287-6.129a10.57,10.57,0,0,0,4.789-4.119,11.407,11.407,0,0,0,1.819-6.033h.1a3.443,3.443,0,0,0,1.054-.192,2.721,2.721,0,0,0,.862-.574,2.273,2.273,0,0,0,.574-.862,3.443,3.443,0,0,0,.192-1.054V100.51a1.843,1.843,0,0,0-.288-.958,1.488,1.488,0,0,0-.766-.575,1.642,1.642,0,0,0-.957,0,1.494,1.494,0,0,0-.767.575V98.5a4.693,4.693,0,0,0-.095-1.149,1.325,1.325,0,0,0-.288-.384l-9.481-7.182-1.054,3.16a13.165,13.165,0,0,0,5.076,6.7,10.405,10.405,0,0,0-2.49.479l-.383.095a2.184,2.184,0,0,0-.957.671,2.269,2.269,0,0,0-.288,1.149l.192,4.6c0,.862-.479,1.054-1.245.958a.721.721,0,0,0-.383.1c-.1.095-.192.095-.288.191s-.1.192-.191.287v.383l.574,2.778-.67.766a5.746,5.746,0,0,0-1.245,2.394,5.1,5.1,0,0,0,.1,2.682A27.64,27.64,0,0,1,312.373,116.408Z" fill="#ab845f"/><path d="M310.65,103.479a1.15,1.15,0,1,0-1.15-1.15A1.105,1.105,0,0,0,310.65,103.479Z" fill="#282828"/><path d="M322.812,103.479a1.15,1.15,0,1,0-1.149-1.15A1.237,1.237,0,0,0,322.812,103.479Z" fill="#282828"/><path d="M312.565,109.129a4.431,4.431,0,0,0,1.724,2.011,4.815,4.815,0,0,0,2.586.766,5.077,5.077,0,0,0,2.586-.766,4.429,4.429,0,0,0,1.723-2.011Z" fill="#fff"/><path d="M325.781,101.084a.354.354,0,0,1-.287-.095c-.1,0-.1-.1-.191-.192a4.175,4.175,0,0,0-2.395-1.245,4.056,4.056,0,0,0-2.586.67c-.1,0-.1.1-.191.1h-.192c-.1,0-.1-.1-.191-.1s-.1-.095-.192-.191c0-.1-.095-.1-.095-.192v-.191c0-.1.095-.1.095-.192s.1-.1.192-.191A5.325,5.325,0,0,1,323.2,98.4a4.856,4.856,0,0,1,3.16,1.628c.1.1.1.1.1.191v.192c0,.1,0,.191-.1.191,0,.1-.1.1-.1.192C325.973,100.989,325.877,101.084,325.781,101.084Z" fill="#282828"/><path d="M313.235,101.084a.354.354,0,0,1-.287-.095c-.1,0-.1-.1-.191-.192a4.175,4.175,0,0,0-2.395-1.245,4.056,4.056,0,0,0-2.586.67c-.1,0-.1.1-.191.1h-.192c-.095,0-.095-.1-.191-.1s-.1-.095-.192-.191c0-.1-.095-.1-.095-.192v-.191c0-.1.095-.1.095-.192s.1-.1.192-.191a5.325,5.325,0,0,1,3.448-.862,4.856,4.856,0,0,1,3.16,1.628c.1.1.1.1.1.191v.192c0,.1,0,.191-.1.191,0,.1-.1.1-.1.192A.869.869,0,0,1,313.235,101.084Z" fill="#282828"/><path d="M351.927,113.822c-6.321,3.543-11.4,6.7-14.94,8.14a17.6,17.6,0,0,1-6.226,1.245,13.725,13.725,0,0,1-1.436-.095s-2.3,11.971-12.642,12.067c-10.343-.1-12.642-12.067-12.642-12.067s-3.83.478-7.374,1.053-4.693,1.915-6.033,5.842c-1.245,3.927-6.609,20.016-6.609,20.016l10.822,3.161,1.341,37.35.479.1v.1s15.323,1.724,20.016,1.724c5.268,0,18.771-1.629,19.92-1.724h.1v-.1s.1-1.054.192-2.969l3.639-47.023a3.186,3.186,0,0,1,1.054-2.012l17.43-14.557C359.11,123.974,354.991,118.706,351.927,113.822Z" fill="#0078d7"/><path d="M297.242,195.9l.383,2.3a1.987,1.987,0,0,0,.574.957,1.441,1.441,0,0,0,1.054.384h.191v-4.119a2.543,2.543,0,0,0-.287-1.149,2.087,2.087,0,0,0-.67-.862l-2.107-1.628a2.133,2.133,0,0,1-.862-1.628l-.479-3.352-6.608.862L288.144,198a4.367,4.367,0,0,0,2.2,3.831l1.916,1.149.862,1.628,2.681,2.682a1.637,1.637,0,0,0,.671-1.245,2.492,2.492,0,0,0-.384-1.437l-.383-.478,2.395,2.3a1.636,1.636,0,0,0,.67-1.245,1.942,1.942,0,0,0-.383-1.437l-1.437-1.819-.191-1.245-.671-4.884Z" fill="#bb9167"/><path d="M317.928,84.516a12.164,12.164,0,0,0-4.884.766,12.435,12.435,0,0,0-7.087,6.609,12.079,12.079,0,0,0-1.054,4.884v1.34h6.034c.862-2.3,4.214-9.289,4.214-9.289v9.289H329.9l.1-.67a12.668,12.668,0,0,0-3.256-8.906A13.9,13.9,0,0,0,317.928,84.516Z" fill="#282828"/><path d="M319.489,2A26.475,26.475,0,0,0,311.4,53.657c.745.214,1.6-.107,1.6-1.708V47.467c-6.7,1.067-8.407-1.174-9.152-3.522a7.522,7.522,0,0,0-3.192-3.843c-.851-.533-.639-1.28.319-1.387,1.17-.107,3.086.534,4.363,2.882,1.808,3.095,4.9,3.415,7.662,2.134a5.117,5.117,0,0,1,1.808-3.629c-7.768-.853-11.279-3.949-12.237-10.566-.638-4.7.852-7.578,2.767-9.5a9.852,9.852,0,0,1,.213-7.151s3.086-.427,7.129,2.775a26.321,26.321,0,0,1,13.514-.106c4.044-3.1,7.023-2.775,7.023-2.775a9.737,9.737,0,0,1,.214,7.151c2.765,3.095,2.979,6.724,2.659,10.246-.531,4.7-3.617,8.965-12.024,9.925a4.908,4.908,0,0,1,1.809,4.27v7.684c0,1.174.638,1.708,1.6,1.494A26.413,26.413,0,0,0,319.489,2Z" fill="#191717"/><path d="M253.283,49.464H200.9v54.781h52.386Z" fill="#f0db4f"/><path d="M224.456,74.939h4.98V92.848c0,4.5-2.969,7.183-6.991,7.183-6.225,0-7.758-4.6-7.758-4.6l4.119-2.49s1.149,2.586,3.16,2.586,2.49-1.437,2.49-3.735Z" fill="#323330"/><path d="M243.9,81.069l3.735-2.395a7.074,7.074,0,0,0-6.608-4.118c-4.98,0-7.47,3.161-7.47,7.183s3.831,6.321,6.513,7.374c2.777,1.15,4.213,2.2,4.213,3.831,0,1.245-1.053,2.49-3.256,2.49-3.447.1-4.98-3.16-4.98-3.16l-3.926,2.586s2.107,5.075,9,5.075,8.045-4.788,8.045-7.087-.766-5.459-5.651-7.566c-4.884-2.2-5.171-3.16-5.171-4.405s1.053-2.107,2.585-2.107S243.9,80.973,243.9,81.069Z" fill="#323330"/><path d="M232.6,190.726a2.537,2.537,0,0,1-2.491-2.49V171.188a5.7,5.7,0,0,0-5.554-5.65h-9.577a2.49,2.49,0,1,1,0-4.98h9.577a10.76,10.76,0,0,1,10.535,10.63v17.048A2.473,2.473,0,0,1,232.6,190.726Z" fill="#ff8c00"/><path d="M227.13,168.665,196.115,137.65l-31.9,31.895,31.015,31.015Z" fill="#b2b2b2"/><path d="M227.166,168.679l-2.642-2.641-31.9,31.9,2.641,2.641Z" fill="#939393"/><path d="M205.291,146.856l-5.892-5.892-31.9,31.9,5.892,5.89Z" fill="#d2d2d2"/><path d="M194.1,202.41l-31.7-31.6a1.563,1.563,0,0,1,0-2.3l.095-.1a1.566,1.566,0,0,1,2.3,0l31.7,31.7a1.566,1.566,0,0,1,0,2.3l-.1.095A1.65,1.65,0,0,1,194.1,202.41Z" fill="#737373"/><path d="M226.264,169.646l-31.015-31.017-1.761,1.762L224.5,171.406Z" fill="#282828"/><path d="M198.455,141.872l-1.76,1.76,5.891,5.892,1.761-1.761Z" fill="#505050"/><path d="M226.563,169.943l-31.7-31.7a1.625,1.625,0,0,1,2.3-2.3l31.8,31.6a1.564,1.564,0,0,1,0,2.3A1.6,1.6,0,0,1,226.563,169.943Z" fill="#737373"/><path d="M203.2,166.4a3.927,3.927,0,1,0-3.927-3.927A3.926,3.926,0,0,0,203.2,166.4Z" fill="#fff"/><path d="M172.165,161.228a3.353,3.353,0,1,1,.1-6.7l7.183-.095,2.011-2.012-9.194.1a5.3,5.3,0,0,0-5.076,3.544,5.386,5.386,0,0,0,5.076,7.182l31.03.288a.96.96,0,0,0,.957-.958,1.048,1.048,0,0,0-.957-1.053Z" fill="#939393"/><path d="M472.566,192.584H410.522a1.543,1.543,0,0,1-1.54-1.545v-39.05a1.542,1.542,0,0,1,1.54-1.544h62.044a1.542,1.542,0,0,1,1.54,1.544v39.07A1.538,1.538,0,0,1,472.566,192.584Z" fill="#d2d2d2"/><path d="M421.432,150.445h-10.87a1.567,1.567,0,0,0-1.58,1.543V191.04a1.568,1.568,0,0,0,1.58,1.544h10.87Z" fill="#b2b2b2"/><path d="M472.6,150.445H449.206l19.117,42.139h4.257a1.536,1.536,0,0,0,1.526-1.545v-39.05A1.505,1.505,0,0,0,472.6,150.445Z" fill="#e4e4e4"/><path d="M474.106,154.255v-2.317a1.516,1.516,0,0,0-1.54-1.493H410.522a1.516,1.516,0,0,0-1.54,1.493v2.337h65.124Z" fill="#505050"/><path d="M474.106,154.275H408.982v.958h65.124Z" fill="#737373"/><path d="M472.191,151.4h-1.916v1.916h1.916Z" fill="#737373"/><path d="M427.179,154.275l-1.089-2.656a.349.349,0,0,0-.3-.217h-13.37a.364.364,0,0,0-.3.2l-1.227,2.678Z" fill="#737373"/><path d="M430.052,162.9H443.46" fill="none" stroke="#505050" stroke-miterlimit="10" stroke-width="2"/><path d="M430.052,168.641h10.534" fill="none" stroke="#ff8c00" stroke-miterlimit="10" stroke-width="2"/><path d="M443.46,168.641h22.985" fill="none" stroke="#505050" stroke-miterlimit="10" stroke-width="2"/><path d="M451.121,173.429h13.408" fill="none" stroke="#505050" stroke-miterlimit="10" stroke-width="2"/><path d="M438.671,173.429h8.619" fill="none" stroke="#505050" stroke-miterlimit="10" stroke-width="2"/><path d="M430.052,173.429h6.7" fill="none" stroke="#ff8c00" stroke-miterlimit="10" stroke-width="2"/><path d="M444.417,179.176h17.239" fill="none" stroke="#505050" stroke-miterlimit="10" stroke-width="2"/><path d="M437.713,179.176H442.5" fill="none" stroke="#0078d7" stroke-miterlimit="10" stroke-width="2"/><path d="M447.29,183.964h19.155" fill="none" stroke="#505050" stroke-miterlimit="10" stroke-width="2"/><path d="M437.713,183.964h6.7" fill="none" stroke="#0078d7" stroke-miterlimit="10" stroke-width="2"/><path d="M426.221,161.937V185.88" fill="none" stroke="#939393" stroke-miterlimit="10" stroke-width="2"/><path d="M467.63,74.549h-6.439c0-.169.012-.335.012-.5a27.678,27.678,0,1,0-.539,5.446h6.966a2.472,2.472,0,1,0,0-4.943Z" fill="#fec94e"/><path d="M448.843,73.976a15.274,15.274,0,1,0-25.88,10.987,14,14,0,0,1,4.187,10.1v.276h12.833v-.275a14.555,14.555,0,0,1,4.371-10.28,15.222,15.222,0,0,0,4.484-10.807" fill="#edac28"/><path d="M431.566,77.218l-.04-1.193-.1-2.752a2.927,2.927,0,1,0-5.854,0V73.4a2.919,2.919,0,0,0,1.8,2.7l.077.033a15.78,15.78,0,0,0,2.922.894l.758,22.109,1.179-.042-.75-21.87Zm-3.657-2.181-.077-.032a1.739,1.739,0,0,1-1.076-1.613V73.27a1.746,1.746,0,0,1,3.492.02l.086,2.516a14.623,14.623,0,0,1-2.425-.766" fill="#fff"/><path d="M438.684,70.343h-.049a2.926,2.926,0,0,0-2.924,2.9l-.1,2.778a15.04,15.04,0,0,1-3.237.083l.057,1.186a16.221,16.221,0,0,0,3.139-.073l-.749,21.862,1.18.04.756-22.094.042-1.213.088-2.552a1.746,1.746,0,0,1,1.745-1.746h.049a1.748,1.748,0,0,1,1.747,1.746V73.4a1.745,1.745,0,0,1-1.069,1.61,14.631,14.631,0,0,1-1.563.551l-.053,1.245a15.776,15.776,0,0,0,2.074-.7,2.919,2.919,0,0,0,1.791-2.7v-.13a2.931,2.931,0,0,0-2.927-2.927" fill="#fff"/><path d="M427.15,95.063v7.278a1.914,1.914,0,0,0,1.915,1.915h2.624v1.675H435.6v-1.68h2.624a1.915,1.915,0,0,0,1.915-1.916V95.057Z" fill="#a6a6a6"/><path d="M437.381,97.129H427.149v1.456h10.232Z" fill="#d2d2d2"/><path d="M437.381,100.374H427.149v1.456h10.232Z" fill="#d2d2d2"/><path d="M409.005,52.381a2.475,2.475,0,0,1-1.749-.724l-3.3-3.3a2.472,2.472,0,1,1,3.5-3.5l3.3,3.3a2.473,2.473,0,0,1-1.749,4.221Z" fill="#fec94e"/></svg>