<svg xmlns="http://www.w3.org/2000/svg" viewBox="0 0 157.564 150"><title>zerodata-release-management</title><path d="M93.653 137.026H76.6l2.082-8.982H91.57z" fill="#231f20"/><path d="M69.354 106.715c-8.453 3.074-13.214 8.072-13.448 19.6-.237 11.577 1.7 17.8 2.006 18.7h1.669c.688-1.873 5.462-13.819 16.431-16.651 9.088-2.348-6.658-21.649-6.658-21.649z" fill="#2488d8"/><path d="M100.208 106.715c8.453 3.074 13.214 8.072 13.448 19.6.237 11.577-1.7 17.8-2.006 18.7h-1.67c-.688-1.873-5.462-13.819-16.431-16.651-9.086-2.348 6.659-21.649 6.659-21.649z" fill="#005a93"/><path d="M24.841 88.4C10.443 85.51 0 72.455 0 57.34c0-15.09 10.418-28.029 24.58-31.007C26.916 11.4 39.7 0 54.613 0A30.1 30.1 0 0 1 80.2 14.376a30.39 30.39 0 0 1 13.5-3.163 31.251 31.251 0 0 1 29.131 20.75 28.753 28.753 0 0 1 18.139 54.182l-.441.187a26.475 26.475 0 0 1-8.508 2.329c-.243.028-.484.05-.722.07-3.734.328-8.782.391-16.794.391H30.88a26.049 26.049 0 0 1-6.039-.722z" fill="#b3d6f2"/><path d="M98.68 66.168H70.565c-3.455 7.318-6.092 15.374-6.115 22.671-.055 20.248 9.867 38.351 10.859 40.2h19.609c0-1.011 9.673-19.846 9.728-40.094.015-7.319-2.6-15.421-5.966-22.777z" fill="#005a93"/><path d="M85.13 42.7s-9.78 11.7-14.518 23.466H98.7C93.966 54.4 85.13 42.7 85.13 42.7zM98.67 66.168h-3.433c2.827 7.283 4.794 14.88 4.772 21.892-.044 16.346-5.219 31.932-8.723 40.982h3.623c0-1.011 9.672-19.845 9.727-40.092.016-7.325-2.6-15.426-5.965-22.783z" fill="#2488d8"/><circle cx="84.824" cy="83.451" r="7.551" fill="#fff"/><path d="M95.155 66.168H98.7C93.966 54.4 85.13 42.7 85.13 42.7s-.8.952-2.035 2.578a120.286 120.286 0 0 1 12.06 20.89z" fill="#69afe5"/><path d="M47.521 145.01V61.178h8.126l.34-.14 4.743-4.744-.106-.106h22.825v-2H47.521V32.623L36.543 43.51v41.373l-9.98 9.654v50.473H9.6V150h119.76v-4.99zm0-88.822h11.837l-3.992 3.992h-7.845zM36.543 115.07v8.459l-8.383-8.459zm-8.2-1l8.2-8.268v8.268zm8.2 20.958v8.39l-8.391-8.39zm-8.184-1l8.184-8.184v8.184zm.154-38.922h8.03v8.03zm18.01-29.94v8.546L38.05 65.17zm-8.283-1l8.283-8.355v8.355zm8.283 20.964v8.476l-8.476-8.476zm-8.273-.993l8.273-8.272v8.267zm.4 39.915l7.874-8.3v8.3zm7.874 1v8.483l-8.255-8.483zm-8.037-20.958l8.037-8.319v8.319zm8.037 1v8.483l-8.406-8.483zm-.938-10.978h-8.045v-8.057zm.165 1l-8.209 8.5v-8.5zm-.166 18.958h-8.044v-8.119zm.188 1l-8.231 8.673v-8.677zm-.178 18.962h-8.054v-8.27zm0 1l-8.052 8.261v-8.267zm-7.782 9.98l8.713-8.939v8.939zm.6-98.8h8.116v8.116zm-.866-1.315l8.982-8.923v9.232h-8.988zm0 .8l8.493 8.5h-8.5zm0 9.494H45.8l-8.255 8.326zm0 10.825l8.067 8.137h-8.073zm0 9.135h8.343l-8.343 8.343zm-1 10.868v8.094h-8.372zM27.563 95.6l8.5 8.5h-8.5zm0 9.494h8.255l-8.255 8.326zm0 10.825l8.067 8.137h-8.069zm0 9.135H35.9l-8.343 8.343zm0 11.277l8.683 8.683h-8.685z" fill="#737373"/></svg>