<svg xmlns="http://www.w3.org/2000/svg" viewBox="0 0 636 300"><defs><style>.a,.b,.e{fill:none}.b,.c,.d{clip-rule:evenodd}.c,.m{fill:#82bceb}.d,.h{fill:#2488d8}.e{stroke:#505050;stroke-miterlimit:10;stroke-width:2px}.f{clip-path:url(#a)}.g,.o{fill:#69afe5}.aa,.ab,.h,.i,.k,.l,.m,.n,.o,.p,.q,.s,.t,.u,.x,.z{fill-rule:evenodd}.i{fill:#0078d7}.j{clip-path:url(#b)}.k{fill:#419ae1}.ae,.l{fill:#106ebe}.af,.n{fill:#005a93}.p{fill:#59595c}.q{fill:#a5a7aa}.r{clip-path:url(#c)}.s{fill:#6d6f70}.t{fill:#414141}.u{fill:#808083}.v{clip-path:url(#d)}.w{clip-path:url(#e)}.x{fill:#51accb}.y{clip-path:url(#f)}.z{fill:#185173}.aa{fill:#4097ad}.ab{fill:#2c6d77}.ac{clip-path:url(#g)}.ad{clip-path:url(#h)}.ag{fill:#5d5d5d}.ah{fill:#171717}.ai{fill:#868686}</style><clipPath id="a"><path class="a" d="M147.481 26.967h322.611v175.954H147.481z"/></clipPath><clipPath id="b"><path class="b" d="M195.936 77.854s118 28 217.333 54 84-28 84-28l-59.333-24-29.336 9.334-9.333-.667-26 4.667-28-24.667-14.667-2.667-25.333-18-32.667 16h-10l-23.33 11.334-42-2.667z"/></clipPath><clipPath id="c"><path class="b" d="M179.726 171.295a23.943 23.943 0 0 1 8.194-12.678s3.225 10.816 1.492 19.952-5.267 31.444-5.267 31.444"/></clipPath><clipPath id="d"><path class="b" d="M150.484 188.192s4.783-25.472 6.188-30.984a23.943 23.943 0 0 1 8.194-12.678s3.225 10.816 1.492 19.952-5.267 31.444-5.267 31.444z"/></clipPath><clipPath id="e"><path class="b" d="M167.173 148.769s6.849-29.478 8.764-35.837a27.957 27.957 0 0 1 10.19-14.382s3.223 12.779.746 23.351-7.712 36.42-7.712 36.42z"/></clipPath><clipPath id="f"><path class="c" d="M140.98 131.187s6.849-29.478 8.764-35.837a27.957 27.957 0 0 1 10.191-14.382s3.223 12.779.746 23.351-7.712 36.42-7.712 36.42z"/></clipPath><clipPath id="g"><path class="d" d="M456.979 209.968s4.45-24.656 6.062-30.888 6.114-10.251 12.093-8.221 8.489 6.188 6.263 17.2-6.716 30.834-6.716 30.834z"/></clipPath><clipPath id="h"><path class="b" d="M397.518 227.588s5.085-28.177 6.928-35.3 6.987-11.715 13.82-9.395 9.7 7.072 7.157 19.655-7.675 35.238-7.675 35.238z"/></clipPath></defs><title>swimlane-cryengine-game-development</title><path class="e" d="M421.069 260.889c7-.468 15.5-2.75 13.187-6s-11.937-4.677-34.687-7.066-10.875-10.559 6.875-8.934c14.393 1.318 13.549 6-6.125 5.5-24.649-.631-17.375-9.372 0-9.622s36.585 7.25 54.585 20.125"/><g class="f"><path class="g" d="M149.814 27.697h321.944v176.62H149.814z"/><path class="h" d="M191.27 59.688l45.33-3.334 27.333 4.667 10.667-3.333s58 19.333 60 18.667 36-14 36-14l20 3.333 38.667-8L452.6 71.021l22.667-6 8 88L202.6 78.354z"/><path class="i" d="M195.936 77.854s118 28 217.333 54 80.667-36 80.667-36l-56-16-29.336 9.334-9.333-.667-26 4.667-28-24.667-14.667-2.667-25.333-18-32.667 16h-10l-23.33 11.334-42-2.667z"/><g class="j"><path class="k" d="M203.936 71.854l44 8 18-7.333-3.333 10 24.667-13.333 9.333 2.667 8.667-24 16.667 6L308.6 76.521l22.667-.667L354.6 63.188s-54-24.667-56-25.333-106.664 20.666-106.664 20.666zM285.936 88.521l34-8 16 4.667-20.666 2-6 6-23.334-4.667z"/><path class="l" d="M278.603 96.938l53.333.666 16.667 10.667 12.841 2.868 21 12-6-.75-97.841-25.451z"/><path class="k" d="M367.936 87.188l6.667 10 36 2-2-6 26.667-1.334 3.333-20-70.667 15.334z"/></g><path class="m" d="M365.936 166.104l-28.666-12.416 4.416-18.584 28.75 10.75-4.5 20.25z"/><path class="h" d="M341.686 135.104l19.5-1.25 10.75 4-2.5 8.5-27.75-11.25z"/><path class="i" d="M193.27 104.354l73.333 30.667 12 13.333 53.091 18.535 20 45.5-75.758-11.368-10.666-25.333-17.334-16.667-9.333-19.333-50-22.667 4.667-12.667z"/><path class="h" d="M189.936 107.021l73.334 30.667 6 13.333 54.666 19.333 14.508 34.285-65.841-.951-10.667-25.334-17.333-16.666-9.333-19.334-50-22.666 4.666-12.667z"/><path class="k" d="M193.555 244.94l16.751-121.207-44.462-27.659-23.421 5.954 20.168 143.77 30.964-.858z"/><path class="m" d="M136.102 99.799l75.817 47.144-.702 4.727-81.487-47.62 6.372-4.251z"/><path class="n" d="M206.234 153.197l4.983-1.527-80.585-48.222-2.265 3.506 78.16 44.122-.293 2.121z"/><path class="n" d="M198.247 144.808l4.162 7.965-1.593.632-5.328-3.271 1.165-4.695 1.594-.631z"/><path class="o" d="M203.501 147.997l-1.092 4.776-5.381-3.263 1.219-4.702 5.254 3.189z"/><path class="p" d="M186.66 138.006l4.162 7.966-1.593.631-5.52-3.085 1.357-4.881 1.594-.631z"/><path class="q" d="M191.914 141.196l-1.092 4.776-5.473-3.145 1.311-4.821 5.254 3.19z"/><path class="p" d="M175.015 131.064l4.397 8.416-1.683.666-5.913-3.531 1.516-4.884 1.683-.667z"/><path class="q" d="M180.566 134.434l-1.154 5.046-5.913-3.532 1.516-4.884 5.551 3.37z"/><path class="p" d="M160.754 122.542l4.917 9.411-1.882.745-6.613-3.949 1.695-5.462 1.883-.745z"/><path class="q" d="M166.961 126.31l-1.29 5.643-6.613-3.95 1.696-5.461 6.207 3.768z"/><path class="m" d="M141.335 75.264l73.486 50.061-.55 4.83-79.477-50.904 6.541-3.987z"/><path class="n" d="M209.231 131.478l5.04-1.323-78.55-51.469-2.406 3.411 76.295 47.272-.379 2.109z"/><g class="r"><path class="s" d="M193.342 175.487l-13.683 9.05-.858-28.662 11.968-.924 2.573 20.536z"/><path class="t" d="M167.13 203.944s4.783-25.472 6.188-30.984a23.943 23.943 0 0 1 8.194-12.678s3.224 10.818 1.488 19.952-5.267 31.444-5.267 31.444z"/></g><path class="u" d="M150.484 188.192s4.783-25.472 6.188-30.984a23.943 23.943 0 0 1 8.194-12.678s3.225 10.816 1.492 19.952-5.267 31.444-5.267 31.444z"/><g class="v"><path class="s" d="M170.287 161.401l-13.683 9.05-.857-28.663 11.968-.924 2.572 20.537z"/><path class="t" d="M144.075 189.858s4.783-25.472 6.188-30.984a23.943 23.943 0 0 1 8.194-12.678s3.225 10.816 1.492 19.952-5.267 31.444-5.267 31.444z"/></g><path class="h" d="M188.398 201.536l25.584-142.565-50.491-34.484-13.547 2.402v178l38.454-3.353z"/><path class="m" d="M128.609 27.351l86.098 58.777-1.056 5.48-92.688-59.616 7.646-4.641z"/><path class="n" d="M207.763 93.141l5.888-1.533-91.605-60.273-2.818 3.977 88.983 55.369-.448 2.46z"/><path class="n" d="M198.863 82.956l4.459 9.5-1.89.657-6.053-4.081 1.594-5.419 1.89-.657z"/><path class="k" d="M204.834 86.939l-1.512 5.517-6.115-4.076 1.656-5.424 5.971 3.983z"/><path class="n" d="M185.684 74.443l4.459 9.5-1.89.657-6.286-3.873 1.827-5.627 1.89-.657z"/><path class="k" d="M191.655 78.426l-1.512 5.517-6.228-3.941 1.769-5.559 5.971 3.983z"/><path class="n" d="M172.446 65.764l4.71 10.037-1.996.694-6.723-4.415 2.012-5.622 1.997-.694z"/><path class="k" d="M178.754 69.972l-1.598 5.829-6.722-4.415 2.012-5.622 6.308 4.208z"/><path class="n" d="M156.233 55.111l5.268 11.224-2.233.776-7.518-4.937 2.25-6.287 2.233-.776z"/><path class="k" d="M163.288 59.817l-1.787 6.518-7.518-4.937 2.25-6.287 7.055 4.706z"/><path class="m" d="M135.936-1.012l83.234 62.066-.883 5.607-90.18-63.347 7.829-4.326z"/><path class="n" d="M212.341 67.952l5.946-1.291-89.071-63.96-2.977 3.859 86.65 58.952-.548 2.44z"/><path class="m" d="M167.173 148.769s6.849-29.478 8.764-35.837a27.957 27.957 0 0 1 10.19-14.382s3.223 12.779.746 23.351-7.712 36.42-7.712 36.42z"/><g class="w"><path class="i" d="M191.611 118.502l-16.413 9.876.428-33.481 14.008-.481 1.977 24.086z"/><path class="n" d="M160.361 150.332s6.849-29.478 8.764-35.837a27.957 27.957 0 0 1 10.191-14.382s3.223 12.779.746 23.351-7.712 36.42-7.712 36.42z"/></g><path class="x" d="M140.98 131.187s6.849-29.478 8.764-35.837a27.957 27.957 0 0 1 10.191-14.382s3.223 12.779.746 23.351-7.712 36.42-7.712 36.42z"/><path class="m" d="M140.98 131.187s6.849-29.478 8.764-35.837a27.957 27.957 0 0 1 10.191-14.382s3.223 12.779.746 23.351-7.712 36.42-7.712 36.42z"/><g class="y"><path class="i" d="M165.418 100.919l-16.413 9.876.428-33.48 14.008-.481 1.977 24.085z"/><path class="z" d="M133.421 132.811s6.849-29.478 8.764-35.837a27.957 27.957 0 0 1 10.191-14.382s3.223 12.779.746 23.351-7.712 36.42-7.712 36.42z"/></g><path class="m" d="M480.865 221.963l-62.421-30.907 14.336-67.301 63.263 24.246-15.178 73.962z"/><path class="aa" d="M480.598 221.648l17.553-10.55 15.376-69.263-17.484 6.166-15.445 73.647z"/><path class="ab" d="M491.952 151.468l17.089-15.564 7.174 5.275-24.263 10.289z"/><path class="aa" d="M425.563 157.109l30.877 14.182-8.225 6.565-30.022-13.893 7.37-6.854zM456.979 209.968s4.45-24.656 6.062-30.888 6.114-10.251 12.093-8.221 8.489 6.188 6.263 17.2-6.716 30.834-6.716 30.834z"/><path class="h" d="M456.979 209.968s4.45-24.656 6.062-30.888 6.114-10.251 12.093-8.221 8.489 6.188 6.263 17.2-6.716 30.834-6.716 30.834z"/><g class="ac"><path class="n" d="M460.957 209.637s4.45-24.656 6.062-30.888 6.114-10.251 12.093-8.221 8.489 6.188 6.263 17.2-6.716 30.834-6.716 30.834z"/></g><path class="m" d="M424.816 241.297l-71.336-35.322 16.383-76.913 72.299 27.708-17.346 84.527z"/><path class="i" d="M424.511 240.937l20.06-12.057 17.572-79.156-19.981 7.046-17.651 84.167z"/><path class="n" d="M437.487 160.732l-.301-.961 19.831-16.825 8.198 6.028-27.728 11.758z"/><path class="h" d="M397.518 227.588s5.085-28.177 6.928-35.3 6.987-11.715 13.82-9.395 9.7 7.072 7.157 19.655-7.675 35.238-7.675 35.238z"/><g class="ad"><path class="n" d="M402.065 227.21s5.085-28.177 6.928-35.3 6.987-11.715 13.82-9.395 9.7 7.072 7.157 19.655-7.675 35.238-7.675 35.238z"/></g><path class="k" d="M372.751 152.037l5.865 2.346 1.173-4.692-2.111-3.753-3.988 1.642-.939 4.457zM387.531 158.137l5.865 2.345 1.173-4.691-2.112-3.754-3.988 1.642-.938 4.458zM403.014 164.236l5.865 2.346 1.173-4.692-2.112-3.753-3.988 1.642-.938 4.457zM418.966 170.335l5.865 2.346 1.173-4.692-2.111-3.753-3.988 1.642-.939 4.457zM369.936 165.409l5.865 2.346 1.173-4.692-2.111-3.754-3.988 1.643-.939 4.457zM384.716 171.508l5.865 2.346 1.172-4.692-2.111-3.753-3.988 1.642-.938 4.457zM372.603 138.205l3.783 1.513.756-3.026-1.361-2.421-2.573 1.059-.605 2.875zM382.136 142.139l3.783 1.514.756-3.027-1.362-2.421-2.572 1.059-.605 2.875zM392.123 146.074l3.783 1.513.756-3.027-1.362-2.421-2.572 1.06-.605 2.875zM402.412 150.008l3.783 1.513.757-3.026-1.362-2.421-2.573 1.059-.605 2.875zM412.603 154.455l3.783 1.513.756-3.026-1.361-2.421-2.573 1.059-.605 2.875zM422.136 158.389l3.783 1.514.756-3.027-1.362-2.421-2.572 1.059-.605 2.875zM432.123 162.324l3.783 1.513.756-3.027-1.362-2.421-2.572 1.06-.605 2.875z"/><path class="l" d="M457.186 143.021l-20.083 17-72.229-30.174 21.656-15.126 69.743 27.818"/><path class="k" d="M434.936 132.205l3.783 1.513.757-3.026-1.362-2.421-2.572 1.059-.606 2.875zM444.469 136.139l3.783 1.514.757-3.027-1.362-2.421-2.573 1.059-.605 2.875zM454.456 140.074l3.783 1.513.756-3.027-1.361-2.421-2.573 1.06-.605 2.875zM464.745 144.008l3.783 1.513.757-3.026-1.362-2.421-2.572 1.059-.606 2.875z"/><path class="aa" d="M474.936 148.455l3.783 1.513.757-3.026-1.362-2.421-2.572 1.059-.606 2.875zM484.469 152.389l3.783 1.514.757-3.027-1.362-2.421-2.573 1.059-.605 2.875zM494.956 155.157l3.783 1.513.756-3.026-1.361-2.421-2.573 1.059-.605 2.875z"/><path class="l" d="M509.041 135.904l-16.774 15.297-63.202-26.403 18.949-13.236 61.027 24.342z"/><path class="ae" d="M378.855 222.811l-31.064-15.664 7.168-32.259 1.953.433-6.832 30.74 27.437 13.836 8.198-33.034 1.941.483-8.801 35.465z"/><path class="h" d="M361.616 167.179l35.286 16.208-8.466 7.967-35.243-16.341 8.423-7.834z"/><path class="k" d="M343.186 145.433l2.993 1.197.598-2.394-1.077-1.915-2.035.838-.479 2.274zM350.727 148.545l2.992 1.197.599-2.394-1.077-1.915-2.035.838-.479 2.274zM358.627 151.657l2.992 1.197.599-2.394-1.078-1.915-2.035.838-.478 2.274z"/><path class="i" d="M363.27 183.688l5 2.333-3 12-5.334-2 3.334-12.333z"/><path class="af" d="M437.873 161.519l-73.499-29.602.437-2.063 73.009 29.482 24.359-11.388.848 1.813-25.154 11.758zM492.292 152.29l-63.731-25.498.563-2 63.119 25.32 21.776-10 .834 1.818-22.561 10.36zM389.038 192.863l-35.598-16.274.417-1.993 34.818 15.902 8.011-7.227-.666 3.333-6.982 6.259z"/></g><path class="ag" d="M379.333 244.889H242.335l8.027-9h120.943l8.028 9z"/><path class="ah" d="M373.914 250.889H247.987c-5.82 0-5.92-6-5.92-6h137.266s.702 6-5.419 6zM340.092 238.889h-58.517l4.745-28h49.027l4.745 28z"/><path class="ag" d="M442.684 272.889H182.41l15.25-18h229.774l15.25 18z"/><path class="ah" d="M418.172 266.889h-211.25l7.418-10h196.415l7.417 10zM431.689 278.889H193.847c-10.992 0-11.181-7-11.181-7l260.019 1s.565 6-10.996 6zM470.535 20.889H150.352a7.555 7.555 0 0 0-7.409 7.694V206.2a7.555 7.555 0 0 0 7.409 7.694h320.183a7.555 7.555 0 0 0 7.408-7.694V28.584a7.555 7.555 0 0 0-7.408-7.695zm-3.592 179h-313v-170h313zM441 249.249a13.442 13.442 0 0 0 2.425 10.911c2.425 2.829 18.076 14.3 22.226 16.972 5.657 3.637 15.244 1.5 20.205-.4 5.253-2.021 7.678-6.87 6.87-9.294-.767-2.3-37.177-21.013-42.027-20.609s-9.299.804-9.699 2.42z"/><path class="ag" d="M441 249.249c-.6 2.385.606 4.243 8.284 5.051s10.911 6.466 14.548 12.931 13.739 10.1 19.8 8.89 11.719-4.849 8.486-13.335-19.973-15.636-24.044-17.174c-9.092-3.435-18.185-.808-21.417 0s-5.257 2.021-5.657 3.637z"/><path class="ai" d="M485.507 274.244c-6.061 1.212-16.164-2.424-19.8-8.89s-6.87-12.123-14.548-12.932-8.88-2.667-8.284-5.051a2.587 2.587 0 0 1 .149-.388 3.893 3.893 0 0 0-2.024 2.266c-.6 2.385.606 4.243 8.284 5.051s10.911 6.466 14.548 12.932 13.74 10.1 19.8 8.89c3.222-.644 6.315-1.984 8.034-4.362a15.75 15.75 0 0 1-6.159 2.484z"/><path class="ah" d="M452.282 247.243l5.213 1.489 2.607-.745a4.13 4.13 0 0 0-3.351-2.979c-2.98-.744-4.469 2.235-4.469 2.235zM459.729 249.477l1.862-.744 5.585 2.606-1.861.745-5.586-2.607z"/></svg>