<svg xmlns="http://www.w3.org/2000/svg" viewBox="0 0 636 300"><defs><style>.a{fill:#b2b2b2}.b{fill:#737373}.c{fill:#409ae1}.d{fill:#505050}.e{fill:#d83b01}.f{fill:#fff}.g{fill:#900}.h{fill:#c6c6c6}.i{fill:#fff100}.j{fill:#b82f01}.k{fill:#002050}.l{fill:#a80000}.m{fill:#62402c}.n{fill:#4f3125}.o{fill:#00132e}.p{fill:#b3d6f2}.q{fill:#92c5ed}.r{fill:#dedede}.s{fill:#2d3d87}.t{fill:#ce9c5f}.u{fill:#ba8c57}.v{fill:#c8c8c8}.w{fill:#004578}.x{fill:#2488d8}.y{fill:#282828}</style></defs><title>swimlane-congratulations-finished-setup</title><path class="a" d="M583.716 292H78.766a4.091 4.091 0 0 1-3.98-4 4 4 0 0 1 3.98-4h504.95a3.919 3.919 0 0 1 3.98 4 4 4 0 0 1-3.98 4z"/><path class="b" d="M126.736 8S110.3 8 110.3 24.454V207.57s0 16.43 16.432 16.43H450.9s16.408 0 16.408-16.43V24.454S467.3 8 450.9 8z"/><path d="M130.269 11S114.3 11 114.3 26.978V205.03s0 15.97 15.965 15.97h318.082s15.957 0 15.957-15.97V26.978S464.3 11 448.347 11z"/><path class="c" d="M133.885 23s-6.581 0-6.581 6.593v172.591s0 6.816 6.581 6.816h310.823s6.6 0 6.6-6.816V29.593s0-6.593-6.6-6.593z"/><path class="b" d="M229.304 284h121v3h-121z"/><path class="d" d="M253.769 275a29.6 29.6 0 0 0-10.554 2.19l-7.979 3.421-5.166 2.2s-4.943 2.19 3.052 2.19h113.426s7.272 0 .7-2.925l-9.171-3.9A45.269 45.269 0 0 0 322.586 275zM308.3 275v-51h-12v13.86a7.012 7.012 0 0 1-14 0V224h-11v51z"/><path class="b" d="M271.304 239.1l37 28.197V276h-37v-36.9z"/><path class="e" d="M258.3 173.187v-37.353c-40.635 0-36.407 34.3-36.407 34.3z"/><path class="f" d="M255.304 132h4v41h-4z"/><path class="g" d="M255.3 163.078v-11.031s-1.884 5.4-11.5 4.7c-6.1-1.645-11.969-3.29-18.088-4.927a8.682 8.682 0 0 0-1.176 2.575c10.351 3.049 20.905 5.87 30.764 8.683z"/><path class="h" d="M259.304 147.104l-4 4.943v11.031l4 .7v-16.674z"/><path class="i" d="M278.304 157h10v8h-10z"/><path class="f" d="M290.184 175.063c0-3.99-.469-8.21-.938-13.391-8.464.7-4.951.469-15.505.23-3.99.707-7.041 3.545-9.155 7.065 9.624 2.575 18.541 4.689 25.598 6.096z"/><path class="i" d="M289.3 162.609v-.938c-8.464.7-4.951.469-15.505.23a20.794 20.794 0 0 0-3.521 1.176 24.346 24.346 0 0 0-2.583 2.114c-.238.254-.469.254-.469.485-.238.238-.469.238-.469.469a21.931 21.931 0 0 0-2.114 2.821c4.458 1.168 8.687 2.344 12.676 3.282a39.864 39.864 0 0 1 11.985-9.639z"/><path class="e" d="M424.3 186.91c-18.8-5.635-46.528-11.985-75.192-22.332l-5.16-1.645c-3.517 2.607-20.914 10.117-39.948 10.117-22.318 0-154.343-41.366-154.343-41.366-6.353-1.876-6.353 4.713-6.353 4.713v62.03c0 6.573 6.591 6.573 6.591 6.573H424.3v-18.09z"/><path class="j" d="M343.964 162.883C340.443 165.49 323.054 173 304.028 173h-3.052s24.9 11.746 66.711-2.114c-6.128-2.114-12.462-3.99-18.565-6.358zM424.3 205v-7h-281v.673c0 6.327 6.591 6.327 6.591 6.327z"/><path class="k" d="M184.738 209.134a35.124 35.124 0 1 0-34.985-35.234 34.976 34.976 0 0 0 34.985 35.234z"/><circle class="k" cx="380.582" cy="187.991" r="21.139" transform="rotate(-19.33 380.584 187.993)"/><path class="l" d="M237.35 182.128a8.7 8.7 0 1 0-8.7-8.7 8.533 8.533 0 0 0 8.7 8.7z"/><path class="f" d="M424.3 186.953V198h15v-5.881c-3.854-1.645-9.09-3.29-15-5.166z"/><path class="h" d="M424.3 198v7h8.864c2.568 0 4.195-.229 5.364-.932a1.214 1.214 0 0 0 .466-.932c.229 0 .229-.237.229-.466a1.741 1.741 0 0 0 .237-1.169c.229 0 .229-3.034.229-3.5H424.3z"/><path class="m" d="M294.3 141.938v.23a38.834 38.834 0 0 1-.23 5.166 20.141 20.141 0 0 0 1.637 4.482c0 .469.707 1.407-1.876 1.168l-1.407 6.573s-.238.938-2.345.469-7.765-2.114-10.348-5.4c1.176-12.93 3.521-15.037 3.521-15.037l10.578.23z"/><path d="M290.891 149.933a.758.758 0 0 0 .7-.723c0-.469-.23-.938-.7-.938s-.707.469-.707.938a.767.767 0 0 0 .707.723z"/><path class="f" d="M293.236 155h-3.282a6.353 6.353 0 0 0 3.046 1.645 16.207 16.207 0 0 0 .236-1.645z"/><path class="n" d="M290.184 144.521s-5.158 2.813-4.927 7.526c-.23-7.3-2.837-7.3-2.837-7.3z"/><path class="k" d="M297.3 142a16.907 16.907 0 0 0-15.618-13.733 1.433 1.433 0 0 0-.96-.244 16.99 16.99 0 1 0 0 33.979h.994c2.813-1.034 3.584-8.544 3.584-8.544V142h12z"/><path class="f" d="M283.304 142.211V145l14.168-.211-1.284-2.789-12.884.211z"/><path class="h" d="M184.738 193.859a19.849 19.849 0 1 0-19.964-19.964 19.954 19.954 0 0 0 19.964 19.964z"/><path class="f" d="M184.738 190.1a16.209 16.209 0 1 0-16.205-16.2 16.23 16.23 0 0 0 16.205 16.2z"/><path class="h" d="M197.883 183.3l-26.306-18.812a16.171 16.171 0 0 0 13.161 25.612 15.689 15.689 0 0 0 13.145-6.8zM380.594 199.279a11.4 11.4 0 1 0-11.5-11.285 11.445 11.445 0 0 0 11.5 11.285z"/><path class="f" d="M380.594 197.165a9.334 9.334 0 0 0 9.148-9.171 9.267 9.267 0 0 0-18.534 0 9.382 9.382 0 0 0 9.386 9.171z"/><path class="h" d="M388.1 193.151L373.083 182.6a8.342 8.342 0 0 0-1.876 5.4 9.265 9.265 0 0 0 16.9 5.158z"/><path class="o" d="M281.72 128.777a1.4 1.4 0 0 0-.938-.238 16.567 16.567 0 1 0 0 33.133 1.759 1.759 0 0 0 .938-.238 16.408 16.408 0 0 1 0-32.657z"/><path class="p" d="M154.455 78.32A16.55 16.55 0 0 0 138 61.638a15.632 15.632 0 0 0-4.927.707 29.11 29.11 0 0 0-28.643-25.154 28.819 28.819 0 0 0-27.478 20.457 20.092 20.092 0 0 0-10.637-1.756A19.608 19.608 0 0 0 68.273 95H137.3v-.23c.23 0 .469.23.7.23a16.547 16.547 0 0 0 16.455-16.68z"/><path class="q" d="M76.478 57.648a20.092 20.092 0 0 0-10.637-1.756A19.608 19.608 0 0 0 67.8 95h60.583z"/><path class="f" d="M403.141 88.73a11.276 11.276 0 0 0-11.285-11.285 15.471 15.471 0 0 0-3.282.477 19.382 19.382 0 0 0-37.806-3.052 11.79 11.79 0 0 0-5.627-1.407 13.328 13.328 0 0 0-13.169 13.376A13.089 13.089 0 0 0 344.9 100h46.953a11.274 11.274 0 0 0 11.288-11.27z"/><path class="r" d="M350.767 74.87a11.79 11.79 0 0 0-5.627-1.407 13.328 13.328 0 0 0-13.169 13.376A13.089 13.089 0 0 0 344.9 100h40.85z"/><path class="f" d="M551.48 282.111l9.074.405.443-9.516h-8.189l-1.328 9.111z"/><path class="d" d="M551.48 287.754l7.175.381.378-1.142c1.888.381 7.175 1.142 9.441 1.523 1.888 0 4.909 0 6.042-.761a.815.815 0 0 0 .755-.761c-.378-3.045-11.707-4.568-14.35-7.994h-.378c-.755.761-1.888 2.284-3.776 2.284-1.511 0-3.4-1.9-4.154-2.284-.755.76-1.133 8.373-1.133 8.754z"/><path class="s" d="M565.359 241.28c.4 3.525-2.379 6.344-6.344 6.344-3.569.352-7.137-2.115-7.137-5.639-.4-3.172 2.776-5.992 6.344-6.344s7.137 2.467 7.137 5.639zM563.8 207.947a7.859 7.859 0 0 1-7.008 8.308 8.116 8.116 0 0 1-8.115-7.553 7.859 7.859 0 0 1 7.008-8.308c4.427 0 8.115 3.021 8.115 7.553z"/><path class="f" d="M546.722 282.111l-7.737.405-.193-9.516h7.157l.773 9.111z"/><path class="d" d="M548.308 287.754l-7.175.381-.378-1.142a567.595 567.595 0 0 1-9.819 1.523c-1.888 0-4.532 0-6.042-.761a1.333 1.333 0 0 1-.378-.761c0-3.045 11.329-4.568 14.35-7.994h.378c.755.761 1.511 2.284 3.4 2.284s3.4-1.9 4.154-2.284c1.133.76 1.51 8.373 1.51 8.754z"/><path class="s" d="M534.034 241.28a6.105 6.105 0 0 0 6.163 6.344 6.037 6.037 0 0 0 6.526-5.639 6.522 6.522 0 0 0-5.8-6.344 6.406 6.406 0 0 0-6.889 5.639zM534.034 207.947a7.939 7.939 0 1 0 8.308-7.553 8.234 8.234 0 0 0-8.308 7.553z"/><path class="k" d="M565.608 240.815h.074l-.832-32.475-1.117.042.417-6.382h-27.567l.418 6.386-1.211-.049-.738 32.475h.075a6.941 6.941 0 0 0-.075.968c.008.073.023.144.034.216h-.034l1.981 37.622 10.27-.4-.342-35.749a6.434 6.434 0 0 0 .342-2.055c-.008-.081-.023-.158-.034-.239l1.929-20.1.951-.006 2.162 19.978-.006.254a4.619 4.619 0 0 0 0 1.308l-.407 36.6 11.7.4L565.682 242h-.013c0-.072.013-.144.013-.217a6.792 6.792 0 0 0-.074-.968z"/><path class="t" d="M544.3 164.442V149h10v15.442c0 1.8-1.482 3.591-5.185 3.591s-4.815-1.795-4.815-3.591z"/><path class="u" d="M554.3 151.312c-1.067 1.515-4.281 3.214-9 4.467V149.2c10.528-.94 9 .546 9 .546z"/><path class="b" d="M487.304 90h2v84h-2z"/><path d="M487.304 80h13v13h-13z"/><path class="v" d="M487.304 93h13v13h-13z"/><path d="M487.304 106h13v13h-13z"/><path class="v" d="M500.304 80h13v13h-13z"/><path d="M500.304 93h13v13h-13z"/><path class="v" d="M500.304 106h13v13h-13z"/><path d="M513.304 80h13v13h-13z"/><path class="v" d="M513.304 93h13v13h-13z"/><path d="M513.304 106h13v13h-13z"/><path class="v" d="M526.304 80h13v13h-13z"/><path d="M526.304 93h13v13h-13z"/><path class="v" d="M526.304 106h13v13h-13z"/><path class="t" d="M487.191 158.589c1.642.375 3.027 1.094 3.027 1.781s-.821 1.375-.821 1.375 1.1 1.062.821 1.812a12.959 12.959 0 0 0-.342 2.625c-.068.562-.134 1.83-1.092 1.906a6.11 6.11 0 0 1-3.406-.844 1.611 1.611 0 0 1-.708-1.667 1.563 1.563 0 0 1-.792-1.458 1.217 1.217 0 0 1 .667-1 2.027 2.027 0 0 1-.75-1.438 1.122 1.122 0 0 1 .99-1.125s-.93-1-.246-1.75 2.72-.969 2.72-.969z"/><path class="t" d="M495.367 163a7.885 7.885 0 0 1-1.224-1.707c-1.151-2.326-3.454-3.877-4.605-5.816-.768 0-2.129.293-.359 3.9l.125.875-.083 7.958c1.1.958 3.354 1.25 4.688 1.333l4.839 2.995s2.932-2.724 5.432-5.224c0-.006 1.164.334-8.813-4.314z"/><path class="w" d="M493.5 170.056l3.652-7.118 20.652 8.694s12.089-11.53 13.726-13.356a10.611 10.611 0 0 1 8-3.276h6.044l5.73 10.836-.378 52.164H534.3v-42.714s-9.7 5.922-11.333 6.866-4.281 2.71-9-.314-20.467-11.782-20.467-11.782z"/><path class="w" d="M550.097 218h16.207v-48l-17-3.812.793 51.812z"/><path class="w" d="M553.691 155h8.938c3.688 0 6.5.688 8.875 5.188s7.188 21.5 7.875 23.062a10.673 10.673 0 0 1 .375 6.729c-.833 3.5-4.917 19.917-4.917 19.917l-8.417-2.75 4.333-21.25-4.667-14.167-16.333-5.792z"/><path class="t" d="M566.815 207.708a13.578 13.578 0 0 0-1.3.912c-1.809 1.408-3.464 3.957-4.932 4.931.155 1.141 1.385 1.361 2.854.386a6.562 6.562 0 0 1-1.261 2.495c-1.416 1.354-.475 2.388.31 2.281-.341.434-1.365 1.735-.92 2.062a1.834 1.834 0 0 0 2.357-.321c-.579 1.628 2.171 1.253 3.04-1.188-.238 1.194.993 1.414 2.7-.754 2.5-3.176 3.567-4.543 4.46-8.415z"/><path class="x" d="M547.683 160.04l-2.745-6.603-1.647 2.136-.366 7.38 3.477-4.078 1.281 1.165zM552.191 159.496l2.201-6.247 2.013 2.137.732 7.38-3.477-4.079-1.469.809zM534.304 176h33v14h-33zM569.309 164.13l3.267-1.142 3.468 9.93-3.268 1.141zM522.974 166.781l7.438-7.437 2.447 2.447-7.437 7.438z"/><path class="t" d="M543.461 134.662s-.75 4.083-.792 4.583a15.7 15.7 0 0 1-1.708 3.167 7.909 7.909 0 0 1-.708.833s.364.773.875.958a3.377 3.377 0 0 0 1 .167s.208 4.208.208 4.917-.667 1.833 2.708 2.083 9.125-.958 12.625-3.875 1.75-13.25 1.75-13.25z"/><path class="y" d="M545.345 130.208c-.771.356 1.95-1.842 4.863-2.436a10.329 10.329 0 0 1 9.085 3.332c1.564 1.724 2.486 4.876 2.1 8.442-.75 2.794-.428 5.469-3.921 8.024a3.612 3.612 0 0 1-2.657-4.043c.171-.832 1.114-2.021 1.521-3.15a2.127 2.127 0 0 0-1.221-3.389c-1.671-.357-2.485 1.9-2.657 2.734-.236.3-.471.594-.771.356l-1.136-.416.428-5.469c.194-5.173-6.879-3.034-5.634-3.985z"/><path class="x" d="M542.253 134.871l19.471 5.75s3.047-9.625-5.7-13.75c-7.92-3.737-10.067.375-11.126 1.375s-2.645 6.625-2.645 6.625z"/><path class="w" d="M537.608 133.5c2.088 1.256 7.27 2.125 7.27 2.125l-1.163-3.375s-4.071-.125-5.719 0-1.842.371-.388 1.25z"/><circle cx="546.045" cy="139.662" r=".75"/><path class="u" d="M542.282 147.778c2.476.276 3.041-1.112 3.041-1.112l-3.076.288z"/><path class="f" d="M542.223 147l3.1-.042a4.206 4.206 0 0 1-1.4.667 4.149 4.149 0 0 1-1.667-.021z"/></svg>