<svg xmlns="http://www.w3.org/2000/svg" viewBox="0 0 636 300"><defs><style>.a,.p{fill:none}.b{fill:#4b4a4b}.c{fill:#5d5d5d}.d{fill:#171717}.e{fill:#e26c41}.f{fill:#ffa940}.g{fill:#b2b2b2}.h{fill:#00b294}.i{fill:#f0f0f0}.j{fill:#0048b3}.k{fill:#40c5af}.l{fill:#479cdf}.m{fill:#8fc3ec}.n{clip-path:url(#a)}.o{fill:#ff8c00}.p{stroke:#c2c2c2;stroke-miterlimit:10;stroke-width:2px}</style><clipPath id="a"><path class="a" d="M317.5 30h158v171h-158z"/></clipPath></defs><title>swimlane-wpf</title><path class="b" d="M154.5 25h325v185h-325z"/><path class="c" d="M386.632 245H249.634l8.027-9h120.944l8.027 9z"/><path class="d" d="M381.214 251H255.287c-5.82 0-5.92-5-5.92-5h137.265s.702 5-5.418 5zM347.392 239h-58.518l4.745-28h49.028l4.745 28z"/><path class="c" d="M449.981 273H189.712l15.25-18h229.769l15.25 18z"/><path class="d" d="M425.471 267H214.222l7.417-10h196.415l7.417 10zM438.989 279H201.147c-10.992 0-11.181-7-11.181-7h259.257s1.326 7-10.234 7z"/><path class="e" d="M189.5 44h25v5h-25z"/><path class="f" d="M189.5 61h20v5h-20z"/><path class="g" d="M197.5 71h17v5h-17zM214.5 61h73v5h-73zM219.5 71h75v5h-75z"/><path class="h" d="M189.5 158h20v5h-20z"/><path class="f" d="M197.5 168h17v5h-17z"/><path class="g" d="M214.5 158h80v5h-80zM219.5 168h46v5h-46z"/><path class="h" d="M206.5 81h24v5h-24z"/><path class="g" d="M235.5 81h36v5h-36z"/><path class="f" d="M215.5 100h24v5h-24z"/><path class="g" d="M244.5 100h48v5h-48zM208.5 178h79v5h-79z"/><path class="e" d="M215.5 110h24v5h-24z"/><path class="g" d="M227.5 120h24v5h-24zM244.5 110h37v5h-37zM244.5 130h54v5h-54zM244.5 140h36v5h-36z"/><path class="h" d="M270.5 168h30v5h-30zM286.5 110h14v5h-14z"/><path class="f" d="M285.5 140h16v5h-16z"/><path class="i" d="M317.5 30h158v171h-158z"/><path class="g" d="M334.5 38h51v8h-51z"/><path class="j" d="M334.5 92h124v3h-124zM334.5 102h124v3h-124zM334.5 112h124v3h-124zM334.5 122h101v3h-101z"/><path class="d" d="M478.092 21H157.909a7.556 7.556 0 0 0-7.409 7.694v177.612a7.556 7.556 0 0 0 7.409 7.694h320.183a7.555 7.555 0 0 0 7.408-7.694V28.694A7.555 7.555 0 0 0 478.092 21zM474.5 200h-313V30h313z"/><path class="h" d="M418.5 143h39v39h-39z"/><path class="k" d="M422.738 162.524l15-15 15 15-15 15z"/><path class="l" d="M371.5 143h39v39h-39z"/><path class="m" d="M377.243 176h27l-13.5-27-13.5 27z"/><g class="n"><path class="m" d="M317.5 51h157v26h-157z"/></g><g class="n"><path class="o" d="M324.5 143h39v39h-39z"/></g><path class="p" d="M175.5 44v145"/><circle class="f" cx="343.243" cy="162.023" r="11.314"/></svg>