<svg width="165" height="150" viewBox="0 0 165 150" version="1.1" xmlns="http://www.w3.org/2000/svg" xmlns:xlink="http://www.w3.org/1999/xlink">
<title>Illustration</title>
<desc>Created using Figma</desc>
<g id="Canvas" transform="translate(-18785 -562)">
<g id="Illustration">
<g id="Group">
<g id="Vector">
<use xlink:href="#path0_fill" transform="translate(18899.5 565.571)" fill="#2488D8"/>
</g>
<g id="Vector">
<use xlink:href="#path1_fill" transform="translate(18881.6 562)" fill="#69AFE5"/>
</g>
</g>
<g id="Group">
<g id="Vector">
<use xlink:href="#path2_fill" transform="translate(18791.9 576.286)" fill="#00ABEB"/>
</g>
<g id="Vector">
<use xlink:href="#path3_fill" transform="translate(18792.1 576.405)" fill="#2488D8"/>
</g>
<g id="Vector">
<use xlink:href="#path4_fill" transform="translate(18839.6 576.286)" fill="#2488D8"/>
</g>
<g id="Vector">
<use xlink:href="#path5_fill" transform="translate(18822 597.714)" fill="#69AFE5"/>
</g>
</g>
<g id="Group">
<g id="Vector">
<use xlink:href="#path6_fill" transform="translate(18881.8 619.143)" fill="#2488D8"/>
</g>
<g id="Vector">
<use xlink:href="#path7_fill" transform="translate(18882.2 619.262)" fill="#00ABEB"/>
</g>
<g id="Vector">
<use xlink:href="#path8_fill" transform="translate(18899.5 629.857)" fill="#69AFE5"/>
</g>
<g id="Vector">
<use xlink:href="#path9_fill" transform="translate(18906.7 641.762)" fill="#2488D8"/>
</g>
<g id="Vector">
<use xlink:href="#path9_fill" transform="translate(18906.7 651.286)" fill="#2488D8"/>
</g>
<g id="Vector">
<use xlink:href="#path9_fill" transform="translate(18906.7 662)" fill="#2488D8"/>
</g>
<g id="Vector">
<use xlink:href="#path9_fill" transform="translate(18906.7 671.524)" fill="#2488D8"/>
</g>
<g id="Vector">
<use xlink:href="#path10_fill" transform="translate(18940.1 641.762)" fill="#2488D8"/>
</g>
<g id="Vector">
<use xlink:href="#path10_fill" transform="translate(18940.1 651.286)" fill="#2488D8"/>
</g>
<g id="Vector">
<use xlink:href="#path10_fill" transform="translate(18940.1 662)" fill="#2488D8"/>
</g>
<g id="Vector">
<use xlink:href="#path10_fill" transform="translate(18940.1 671.524)" fill="#2488D8"/>
</g>
</g>
<g id="Group">
<g id="Vector">
<use xlink:href="#path11_fill" transform="translate(18799.4 640.571)" fill="#2488D8"/>
</g>
<g id="Group">
<g id="Vector">
<use xlink:href="#path12_fill" transform="translate(18829.1 649.976)" fill="#69AFE5"/>
</g>
</g>
</g>
<g id="Vector">
<use xlink:href="#path13_fill" transform="translate(18785 649.768)" fill="#FFB900"/>
</g>
<g id="Vector">
<use xlink:href="#path14_fill" transform="translate(18886.2 572.297)" fill="#FFB900"/>
</g>
</g>
</g>
<defs>
<path id="path0_fill" d="M 42.9762 0L 0 0L 0 13.0952L 42.9762 13.0952L 42.9762 0Z"/>
<path id="path1_fill" d="M 28.412 9.52381L 18.9812 0L 1.82157e-06 0L 1.82157e-06 46.4286L 60.8829 46.4286L 60.8829 9.52381L 28.412 9.52381Z"/>
<path id="path2_fill" d="M 47.7513 0L 77.8347 21.9048L 77.8347 35.7143L 30.0833 35.7143L 30.0833 21.9048L -2.27696e-07 0L 47.7513 0Z"/>
<path id="path3_fill" d="M 29.8446 53.0952L 1.13848e-07 31.9048L 1.13848e-07 4.54131e-07L 29.8446 21.1905L 29.8446 53.0952Z"/>
<path id="path4_fill" d="M 9.10784e-07 31.5476L 9.10784e-07 0L 30.0833 21.7857L 30.0833 34.5238L 4.05886 34.5238L 9.10784e-07 31.5476Z"/>
<path id="path5_fill" d="M 14.3254 0C 14.3254 5.2381 18.623 9.52381 23.8757 9.52381C 29.1283 9.52381 33.4259 5.2381 33.4259 0L 47.7513 0L 47.7513 32.1429L -4.55392e-07 32.1429L -4.55392e-07 0L 14.3254 0Z"/>
<path id="path6_fill" d="M 66.3744 11.6667L 48.2288 1.07143C 47.3932 0.357145 46.3188 0 45.125 0L 5.01389 0C 2.26818 0 0 2.26191 0 5L 0 69.881C 0 71.4286 0.71627 72.8571 1.79068 73.8095C 2.14881 74.1667 19.2199 85 19.2199 85L 50.1389 37.619L 66.3744 11.6667Z"/>
<path id="path7_fill" d="M 65.6581 14.1667L 66.255 11.3095L 48.2288 1.07143C 47.3932 0.357143 46.1994 -1.81652e-06 45.0056 -1.81652e-06L 4.29762 -1.81652e-06C 2.62632 -1.81652e-06 0.955028 1.42857 1.82157e-06 2.7381L 19.2199 14.1667L 65.6581 14.1667Z"/>
<path id="path8_fill" d="M 47.0351 75L 3.10384 75C 1.43254 75 1.82157e-06 73.5714 1.82157e-06 71.9048L 1.82157e-06 3.09524C 1.82157e-06 1.42857 1.43254 0 3.10384 0L 47.0351 0C 48.7064 0 50.1389 1.42857 50.1389 3.09524L 50.1389 71.9048C 50.1389 73.5714 48.8257 75 47.0351 75Z"/>
<path id="path9_fill" d="M 25.0695 0L 0 0L 0 4.7619L 25.0695 4.7619L 25.0695 0Z"/>
<path id="path10_fill" d="M 2.38756 4.7619C 3.70618 4.7619 4.77513 3.69592 4.77513 2.38095C 4.77513 1.06599 3.70618 0 2.38756 0C 1.06894 0 -7.28627e-06 1.06599 -7.28627e-06 2.38095C -7.28627e-06 3.69592 1.06894 4.7619 2.38756 4.7619Z"/>
<path id="path11_fill" d="M 61.5992 0L 11.1022 0C 4.89451 0 0 5 0 11.0714L 0 44.7619C 0 50.9524 5.01389 55.8333 11.1022 55.8333L 39.0367 55.8333L 57.3016 71.4286L 57.3016 55.9524L 61.7186 55.9524C 67.9263 55.9524 72.8208 50.9524 72.8208 44.881L 72.8208 11.0714C 72.7014 5 67.8069 0 61.5992 0Z"/>
<path id="path12_fill" d="M 4.65575 25.119L 4.53638 23.8095C 4.17824 21.0714 5.13327 18.0952 7.64021 15C 9.9084 12.2619 11.2216 10.3571 11.2216 8.09523C 11.2216 5.47619 9.55027 3.80952 6.32705 3.69048C 4.53638 3.69048 2.50695 4.28572 1.19379 5.2381L 1.82157e-06 2.02381C 1.6713 0.833332 4.53638 1.81652e-06 7.28208 1.81652e-06C 13.1316 1.81652e-06 15.7579 3.57142 15.7579 7.5C 15.7579 10.9524 13.8479 13.4524 11.3409 16.3095C 9.07276 18.9286 8.2371 21.1905 8.47586 23.8095L 8.47586 25.119L 4.65575 25.119ZM 3.58135 32.5C 3.58135 30.5952 4.89451 29.2857 6.68519 29.2857C 8.47586 29.2857 9.66965 30.5952 9.66965 32.5C 9.66965 34.2857 8.47586 35.5952 6.56581 35.5952C 4.77514 35.7143 3.58135 34.2857 3.58135 32.5Z"/>
<path id="path13_fill" d="M 16.7756 0.446427L 20.9538 8.89881C 21.0732 9.1369 21.3119 9.375 21.6701 9.375L 30.9816 10.6845C 31.8172 10.8036 32.056 11.7559 31.4591 12.3512L 24.7739 18.8988C 24.5352 19.1369 24.4158 19.375 24.5352 19.7321L 26.0871 29.0179C 26.2065 29.8512 25.3708 30.3274 24.6545 29.9702L 16.2981 25.5655C 16.0593 25.4464 15.7012 25.4464 15.4624 25.5655L 7.10592 29.9702C 6.38965 30.3274 5.554 29.7321 5.67338 29.0179L 7.2253 19.7321C 7.2253 19.375 7.2253 19.1369 6.98654 18.8988L 0.301358 12.3512C -0.295534 11.7559 0.0626013 10.8036 0.778871 10.6845L 10.0904 9.375C 10.4485 9.375 10.6873 9.1369 10.8067 8.89881L 14.9849 0.446427C 15.4624 -0.148811 16.4174 -0.148811 16.7756 0.446427Z"/>
<path id="path14_fill" d="M 16.7756 0.535715L 20.9538 8.9881C 21.0732 9.22619 21.3119 9.46429 21.6701 9.46429L 30.9816 10.7738C 31.8172 10.8929 32.056 11.8452 31.4591 12.4405L 24.7739 18.9881C 24.5352 19.2262 24.4158 19.4643 24.5352 19.8214L 26.0871 29.1071C 26.2065 29.9405 25.3708 30.4167 24.6545 30.0595L 16.2981 25.6548C 16.0593 25.5357 15.7012 25.5357 15.4624 25.6548L 7.10592 30.0595C 6.38965 30.4167 5.554 29.8214 5.67338 29.1071L 7.2253 19.8214C 7.2253 19.4643 7.2253 19.2262 6.98654 18.9881L 0.301358 12.4405C -0.295534 11.8452 0.062603 10.8929 0.778873 10.7738L 10.0904 9.46429C 10.4485 9.46429 10.6873 9.22619 10.8067 8.9881L 14.9849 0.535715C 15.4624 -0.178571 16.4174 -0.178571 16.7756 0.535715Z"/>
</defs>
</svg>
