<svg xmlns="http://www.w3.org/2000/svg" xmlns:xlink="http://www.w3.org/1999/xlink" viewBox="0 0 636 300"><defs><clipPath id="a"><rect x="172" y="173.023" width="72" height="39" fill="none"/></clipPath></defs><title>swimlane-tools-for-all-platforms</title><circle cx="317.741" cy="138.593" r="105.716" fill="none" stroke="#939393" stroke-miterlimit="10" stroke-width="2" stroke-dasharray="2.001 2.001"/><path d="M264.75,299H373.829a3.616,3.616,0,0,0,3.612-2.848A3.5,3.5,0,0,0,374,292H264.921a3.616,3.616,0,0,0-3.612,2.848A3.5,3.5,0,0,0,264.75,299Z" fill="#b2b2b2"/><polygon points="314.541 288.269 304.978 288.534 304.511 276.502 313.142 276.502 314.541 288.269" fill="#fff"/><polygon points="322.559 288.269 332.095 288.534 332.58 276.502 323.538 276.502 322.559 288.269" fill="#fff"/><path d="M321.983,295.592l6.684.485c.475,0,.96-.485,1.435-.485,0-.484.476-.484,1.436-.96,2.386-.484,7.634,1.92,10.971,1.92,2.386,0,5.724,0,7.634-.96a1.7,1.7,0,0,0,.476-.96c0-6.263-14.318-5.778-18.14-10.112H332c-.914.969-1.911,2.889-4.3,2.889s-4.3-2.4-5.733-2.889c-.914.485-1.426,6.739-1.426,9.628A1.526,1.526,0,0,0,321.983,295.592Z"/><path d="M315.108,295.592l-6.684.485a1.66,1.66,0,0,1-.914-.485c-.475-.484-.96-.484-1.911-.96-1.911-.484-7.634,1.92-10.5,1.92-2.386,0-6.208,0-7.634-.96a1.042,1.042,0,0,1-.96-.96c0-6.263,14.8-5.778,18.148-10.112h.476c.914.969,2.386,2.889,4.772,2.889,1.911,0,4.3-2.4,5.248-2.889.915.485,1.436,6.739,1.436,9.628a1.27,1.27,0,0,1-1.064,1.448A1.241,1.241,0,0,1,315.108,295.592Z"/><path d="M298.943,236.9c-.448,5.01,2.67,9.024,7.132,9.024,4,.5,8.018-3.008,8.018-8.027a8.475,8.475,0,0,0-7.131-9.015C302.957,228.383,298.943,232.388,298.943,236.9Z" fill="#2d3d87"/><path d="M314.093,237.9a8.475,8.475,0,0,0-7.131-9.015c-4-.5-8.019,3.5-8.019,8.018-.448,5.01,2.67,9.024,7.132,9.024C310.079,246.431,314.093,242.92,314.093,237.9Z" fill="#2d3d87"/><path d="M338.6,236.9c0,5.01-3.209,9.024-7.79,9.024-4.123.5-7.79-3.008-8.228-8.027,0-4.508,3.209-8.521,7.314-9.015C334.472,228.383,338.139,232.388,338.6,236.9Z" fill="#2d3d87"/><path d="M322.559,237.9c0-4.508,3.209-8.521,7.315-9.015,4.571-.5,8.228,3.5,8.7,8.018,0,5.01-3.21,9.024-7.79,9.024C326.683,246.431,323.016,242.92,322.559,237.9Z" fill="#2d3d87"/><path d="M324.562,129.759V120.1H310.527v9.655c0,2.194,2.076,4.379,7.315,4.379C322.486,134.138,324.562,131.953,324.562,129.759Z" fill="#ce9c5f"/><path d="M310.527,120.607c3.877,5.01,7.744,7.515,14.035,9.527V119.6l-14.035-1.5Z" fill="#ba8c57"/><path d="M337.855,190.312h-38.6l-.75,46.748v.31h0l2.158,47.159,13.879-.53-.466-45.157c0-.155,2.825-26.633,2.825-26.633.292,0,2.487,0,3.264.055,0,0,2.6,26.972,2.834,27.758L322.559,284l13.212.5L338.6,237.37Z" fill="#737373"/><path d="M317.311,137.768c6.6,0,11.036-3.813,11.036-8.512h-3.785v.5c0,2.194-2.076,4.379-6.757,4.379-5.2,0-7.314-2.185-7.314-4.379v-.5H306.23C306.267,133.955,310.71,137.768,317.311,137.768Z" fill="none"/><polygon points="337.919 190.312 337.855 187.743 299.254 187.743 299.199 190.312 337.919 190.312" fill="#939393"/><path d="M372.548,129.986c-.073.659.229,1.024.156,1.692l-2.7,5.22,7.122,2.332,1.536-3.923c3.063-3.657,3.264-5.659,3.657-9.627.284-2.642-.6-3.739-1.408-2.487.914-2.569-.832-4.763-1.7-2.852.429-.915-.092-2.341-1.116-2.122-.658-.064-.8,1.253-.868,1.911-.659-.064-1.984-.21-1.829,1.481a10.507,10.507,0,0,1-.64,2.935c-.823-1.755-1.774-2.194-2.505-1.6C372.439,124.628,372.174,127.271,372.548,129.986Z" fill="#ce9c5f"/><polygon points="369.25 138.458 371.636 132.872 379.376 135.832 376.542 142.25 369.25 138.458" fill="#fff"/><polygon points="276.135 106.648 280.615 108.02 280.615 112.564 275.577 117.346 272.999 116.834 273.813 108.331 276.135 106.648" fill="#ba8c57"/><path d="M309.64,129.539v-3.328L318.3,128.5l7.122-2.286v3.328s5.01-.813,5.97.915,2.2,57.307,2.2,57.307H299.2l3.913-56.338Z" fill="#fff"/><path d="M332.406,131.441H337.5c4.169,0,7.488,1.829,11.364,4.91s15.3,10.56,15.3,10.56l5.367-11.228,8.64,3.548s-5.056,12.242-6.253,15.4c-2.387,6.281-8.494,5.184-14.455,1.637s-17.582-9.966-17.582-9.966v65.756l-14-24.311V156.264C325.878,153.256,332.406,131.441,332.406,131.441Z" fill="#282828"/><path d="M325.421,128.168s11.328-.137,11.483,2.459-2.386,6.684-2.386,6.684L336.9,142.8l-11.026,19.063v-7.232s3.072-19.913,3.548-22.226-4-2.862-4-2.862Z"/><path d="M303.475,131h-5.09c-6.47,0-24.335,2.3-24.335,2.3l4.3-12.608-9.523-2.624s-4.349,11.721-5.8,15.278-2.066,9.938,6.534,10.3S296,145.9,296,145.9v65.756l14-24.311V155.823C310,152.815,303.475,131,303.475,131Z" fill="#282828"/><path d="M309.64,128.168s-10.88-.137-11.026,2.459S301,137.311,301,137.311l-2.395,5.485,11.035,19.091v-7.26s-3.072-19.913-3.547-22.226,3.547-2.862,3.547-2.862Z"/><path d="M324.269,130.024l-3.712,1.737a3.045,3.045,0,0,0-5.486-.082l-4.288-1.655V136l4.389-2.057a2.969,2.969,0,0,0,2.615,1.481,3.072,3.072,0,0,0,2.3-1.033L324.242,136Z"/><path d="M274.837,117.346a.623.623,0,0,1-.211,0,.531.531,0,0,1-.363-.656.338.338,0,0,1,.016-.048l16.567-39.79a.6.6,0,0,1,.768-.311.538.538,0,0,1,.357.674l-.01.03-16.567,39.79A.594.594,0,0,1,274.837,117.346Z" fill="#c2c2c2"/><path d="M271.655,118.8v-8.347l1.536-6.153,7.012-2.908s.915,1.454,0,2.066a7.248,7.248,0,0,0-1.508,1.326s.055.85.055,1.582-1.591,1.335-1.591,1.335,1.874.841,1.536,1.453-2.56,1.573-2.56,1.573,1.024.64.914,1.225-1.591.869-1.591.869l-1.06,6.007Z" fill="#ce9c5f"/><path d="M276.373,119.576l2.322-3.885,4.425-4.023-1.445-7.982s-1.828.713-1.929,2.039,0,4.855,0,4.855-5.074-.256-6.747,6.254A18.959,18.959,0,0,1,276.373,119.576Z" fill="#ce9c5f"/><polygon points="277.643 120.472 278.695 117.812 271.408 115.691 270.366 118.434 277.643 120.472" fill="#fff"/><path d="M319.478,98.975c.841,1.042,2.88,2.925,3.346,4.571a3.376,3.376,0,0,0,1.628,1.975,38.113,38.113,0,0,1,3.118,2.34c.045.613-.1.814-.3.915-.823.612-1.628.713-1.006,2a24.978,24.978,0,0,0,3.026,4.91c.64.8.842,1.828-1.938,3.355s-11.282,4.645-15.351,3.319c-3.209-1.051-9.947-11.209-7.131-17.225S317.147,96.131,319.478,98.975Z" fill="#ce9c5f"/><path d="M320.84,100.227c1.7-.3,2.058-2.267-1-3.657a14.811,14.811,0,0,0-10.734-.539,12.58,12.58,0,0,0-8.228,9.069c-.741,2.844-.1,7.022,2.569,10.67,2.121,2.9,5.266,6.071,9.051,6.674,3.2.512,1.774-4.571.613-6.089-.659-.841-2.387-1.636-3.529-2.624s-2.14-2.88-.814-4.068c1.947-1.728,3.959.338,4.763,1.051a.7.7,0,0,0,.982.051.734.734,0,0,0,.088-.1c.594-.621,1.024-1.133,1.024-1.133l-3.657-5.87C308.754,98.015,319.771,100.227,320.84,100.227Z" fill="#282828"/><circle cx="320.658" cy="106.38" r="0.878"/><path d="M323.135,113.887s1.9-.631,2.277-.8c.759-.32,1.5-.695,1.5-.695s.494-.082.585.32a3.219,3.219,0,0,1,.064.4s.641,0,.631.557-1.481.8-2.743.741A7.774,7.774,0,0,1,323.135,113.887Z" fill="#aa5b5b"/><path d="M454,211V168.756A1.756,1.756,0,0,0,452.244,167H389.756A1.756,1.756,0,0,0,388,168.756V211Z"/><rect x="391" y="171" width="6" height="36" fill="#750000"/><rect x="397" y="171" width="53" height="36" fill="#d86e26"/><path d="M458.718,214H382.779c-2.532,0-2.945-3-2.945-3h81.828S460.681,214,458.718,214Z" fill="#282828"/><rect x="420" y="169" width="1" height="1" fill="#5d5f5e"/><rect x="391" y="171" width="59" height="2" fill="#505050"/><rect x="393" y="175" width="3" height="3" fill="#d83b01"/><rect x="393" y="179" width="3" height="3" fill="#0872c4"/><rect x="393" y="183" width="3" height="3" fill="#107c10"/><rect x="393" y="187" width="3" height="3" fill="#bd3604"/><rect x="393" y="191" width="3" height="3" fill="#d83b01"/><rect x="393" y="195" width="3" height="3" fill="#0872c4"/><path d="M348,51V9.7A1.7,1.7,0,0,0,346.3,8H286.7A1.7,1.7,0,0,0,285,9.7V51Z" fill="#282828"/><path d="M353.441,53H280.349c-2.437,0-2.834-4-2.834-4h78.76S355.33,53,353.441,53Z"/><rect x="316" y="10" width="1" height="1" fill="#5d5f5e"/><path d="M288,44.147a.877.877,0,0,0,.847.853h56.137a.016.016,0,0,0,.016-.016V12.016a.016.016,0,0,0-.016-.016H288.067a.067.067,0,0,0-.067.067V44" fill="#00bcf2" fill-rule="evenodd"/><path d="M323.68,37Zm-.365.2" fill="#0078d7" fill-rule="evenodd"/><path d="M288.806,45H313V17H288V44.194A.806.806,0,0,0,288.806,45Z"/><ellipse cx="290.262" cy="21.325" rx="1.395" ry="1.335" fill="#107c10"/><rect x="298" y="25" width="12" height="7" fill="#0078d7"/><rect x="298" y="37" width="6" height="5" fill="#107c10"/><rect x="304" y="37" width="3" height="3" fill="#0078d7"/><rect x="307" y="37" width="3" height="3" fill="#0078d7"/><rect x="304" y="39" width="3" height="3" fill="#fff"/><rect x="307" y="39" width="3" height="3" fill="#2f2f2f"/><rect x="298" y="33" width="3" height="3" fill="#00188f"/><rect x="300" y="33" width="3" height="3" fill="#d83b01"/><rect x="303" y="33" width="3" height="3" fill="#5c2d91"/><rect x="307" y="33" width="3" height="3" fill="#107c10"/><rect x="298" y="19" width="12" height="5" fill="#0078d7"/><path d="M345,42H288v3.189a.811.811,0,0,0,.811.811H344.2a.8.8,0,0,0,.8-.8V42" fill-rule="evenodd"/><rect x="289" y="24" width="3" height="2" fill="#0078d7"/><rect x="289" y="26" width="3" height="2" fill="#0078d7"/><rect x="289" y="28" width="3" height="2" fill="#a80000"/><rect x="289" y="31" width="3" height="2" fill="#0078d7"/><rect x="289" y="33" width="3" height="2" fill="#0078d7"/><path d="M345,12H313.692C329.537,27.908,331,29,331,29c1.577-.254,3-.437,3-.437v3.911L335.526,34H338v2.061l1,.7V32h0V31h3v1h1v6h2" fill="#1ac3f3" fill-rule="evenodd"/><path d="M337.237,22.074a1.663,1.663,0,0,0,.05-.528,3.087,3.087,0,0,0-1.465-2.7,3.375,3.375,0,0,0-4.962,1.539,2.587,2.587,0,0,0-1.245-.347,2.461,2.461,0,0,0-2.491,2.479A2.493,2.493,0,0,0,329.615,25h7.173a1.539,1.539,0,0,0,1.5-1.537A1.49,1.49,0,0,0,337.237,22.074Z" fill="#fff" fill-rule="evenodd"/><polygon points="333 28.717 333 42 325 42 325 37 326 37 326 34 329 34 329 36 329 36 329 39 331 39 331 29.126 333 28.717" fill="#0078d7" fill-rule="evenodd"/><polygon points="345 38 345 42 333 42 333 33 337 33 337 38 338 38 338 33 338 32 338 31 341 31 341 32 342 32 342 38 345 38" fill="#0078d7" fill-rule="evenodd"/><path d="M356.01,50a9.4,9.4,0,0,1,.43-1H277.349c0-.124.061.382.279,1Z" fill="#666"/><path d="M322.211,36.914c-.074-.74-.115-1.513-.115-2.307a18.352,18.352,0,0,1,1.2-6.922,10.91,10.91,0,0,0,2.946-.68,12.091,12.091,0,0,0-4.161-.756L321.8,24h-.154l-.225,2.249a12.086,12.086,0,0,0-4.178.756,10.956,10.956,0,0,0,2.946.681,18.343,18.343,0,0,1,1.2,6.921,22.929,22.929,0,0,1-.115,2.307,5.933,5.933,0,0,0-1.847.377,5.874,5.874,0,0,0,1.759.371A14.143,14.143,0,0,1,319.969,42h.513A7.387,7.387,0,0,0,321,38.267V42h1V38.134A13.728,13.728,0,0,0,323.118,42h.4a14.115,14.115,0,0,1-1.216-4.338,5.881,5.881,0,0,0,1.759-.371A5.933,5.933,0,0,0,322.211,36.914ZM322,30.8V27.337c.283,0,.562-.018.834-.04A16.82,16.82,0,0,0,322,30.8Zm-.834-3.5c.272.022.551.035.834.04V30.8A16.756,16.756,0,0,0,321.166,27.3Z" fill="#0078d7" fill-rule="evenodd"/><rect x="300" y="29" width="3" height="3" fill="#107c10"/><path d="M216,225.925V221H201v4.925c0,2.843-3.749,4.106-5,4.547L195.992,232H221v-1.528C219.624,230.031,216,228.768,216,225.925Z" fill="#a6a6a6"/><path d="M247,215V171.325A2.325,2.325,0,0,0,244.675,169h-73.35A2.325,2.325,0,0,0,169,171.325V215Z" fill="#2e2e2e"/><circle cx="207.962" cy="170.948" r="0.592" fill="#767576"/><path d="M169,214v5.676A2.325,2.325,0,0,0,171.324,222h73.352A2.325,2.325,0,0,0,247,219.676V214Z" fill="#a6a6a6"/><rect x="195" y="231" width="26" height="1" fill="#737373"/><path d="M216,225v-4H201v4Z" fill="#737373"/><circle cx="208" cy="217" r="1" fill="#737373"/><g clip-path="url(#a)"><rect x="172" y="173" width="72" height="39" fill="#69afe5"/><path d="M228.112,188l-56.1.031c-.024-1.57-.008-3.615-.008-6.031h56.285a3.242,3.242,0,0,1,3.238,2.462C231.9,186.356,230.229,188,228.112,188Z" fill="#2488d8"/><path d="M241.6,179.605a1.6,1.6,0,0,1-1.634,1.4H210.923a1.528,1.528,0,0,1-1.578-1.6,1.6,1.6,0,0,1,1.634-1.4h29.037A1.528,1.528,0,0,1,241.6,179.605Z" fill="#2488d8"/><path d="M172,187.1l2.9-1.1h6.224l2.188-1.25,2.5-.937L189.249,181h2.115l1.01-1h4.041l5.333-1.667,4.667,5.334s2.333-.334,2.666,0,3-.334,3-.334,1.667,2.667,2,2.667h3.275l2.847,2h2.985l4.984,4h1.994l2.658-1.755,2.325-.332s1,1.993,2.326,1.993,2.658-.332,3.323,0,3.2,1.329,3.2,1.329V212H172Z" fill="#502f84"/><path d="M180.167,200.492a64.9,64.9,0,0,0-5.418-5.779c-1.445-1.084-1.445-3.613-1.445-3.613a11.245,11.245,0,0,1,2.167-1.444c.362,0,.723,1.083.362,1.806s.361,1.806.361,1.806-.361-1.806.361-1.445,1.445-.361,1.445-1.445v-2.529l1.084-.722s.361,3.612,1.083,4.335,3.251,2.889,3.251,2.889-1.083-3.612-1.083-3.973,1.444-1.806,1.444-1.806.723,2.528,1.807,2.89,3.612-2.89,3.612-2.89l2.889,2.528-4.334,8.308Z" fill="#5c3d99"/><path d="M197.667,191S194,186.667,194,186v-2.667l.667.667s.333,2.667,1,3S200,185,200,185l-1,2h1.333l1.334-.333L199,191Z" fill="#5c3d99"/><path d="M206.385,186a9.51,9.51,0,0,1-.616,2.462,17.7,17.7,0,0,0-1.231,2.153L207,192.769V190h.308l.307-4Z" fill="#5c3d99"/><path d="M214.264,187.217l-1.986,1.716-2.168,4.335,1.084,1.083s2.89-2.889,3.251-2.889S214.264,187.217,214.264,187.217Z" fill="#5c3d99"/><polygon points="219.555 203.03 218.471 196.89 219.555 194 221 194 221 196.529 222.445 197.251 221.361 200.863 222.084 207.004 219.555 203.03" fill="#5c3d99"/><polygon points="224.559 203.224 224.198 198.529 225.281 196 226.726 196 225.643 198.529 225.281 204.308 224.559 203.224" fill="#5c3d99"/><path d="M231.422,194.713l2.89,1.806-.361,1.444s-.362,3.251-.362,3.613-1.083,4.334-1.083,4.334l1.083,4.335-2.167-1.806-2.167-5.418.722-6.141-.722-.723.722-3.251Z" fill="#5c3d99"/><path d="M238.73,212s-2-5.667-2-6,.333-5.333.333-5.333l1,.666a6.936,6.936,0,0,0,0,2.667c.334.667,1.667,3,1.667,3h1l2,5Z" fill="#3d1a68"/><path d="M228.678,214.365l-10.115-10.978-2.075-1.037-4.494-4.841-2.766-3.149-6.569-2.728-1.729-1.383-4.84,2.42-2.474.25L191.507,194h.073l-2.558,1.827a23.248,23.248,0,0,1-2.558.731,25.662,25.662,0,0,0-3.288,2.192l-1.462.365a3.738,3.738,0,0,1-2.557,1.462c-1.462,0-7.2,2.465-7.2,2.465L172,213h30.081Z" fill="#32145a"/><polygon points="180.799 185.825 181.213 187.488 182.297 186.766 183.019 184.599 180.799 185.825" fill="#af5443"/><polygon points="185.916 183.515 184.11 187.127 185.916 187.488 187 184.237 187 182.628 185.916 183.515" fill="#af5443"/><path d="M196.209,179.84,194.833,182h1.083L197,180.916V182h2.529l2.167,1.084,1.806,2.889s0-.722.361-.722-.722-3.973-.722-3.973l-1.367-3.163Z" fill="#af5443"/><path d="M189,187.782c.357,0,1.828-2.991,1.828-2.991l.315-.009.4,2.163.8,1.082.8,1.442a13.306,13.306,0,0,0,2.812,1.442,4.119,4.119,0,0,0,2.277,0l2.076-1.038s.067,1.039.469,1.039a3.667,3.667,0,0,0,1.205-.47l2.009.47.4.721,1.205.361a4.052,4.052,0,0,0,1.808.691c.8,0,2.11,1.138,2.11,1.138s-.7,1.416-.3,2.137,1.607,3.6,1.607,3.6l-4.018-.36L204,198.843v-5.581l-.75.673-1.125,4.374A7.646,7.646,0,0,1,201,195.954v-1.885l1-1.084V192h-2.125L198,193.879v-1.5l-2.625,2.254s0-1.879-1.125-1.879a3.926,3.926,0,0,1-2.25-1.127,6.6,6.6,0,0,1-2.25-.375,1.336,1.336,0,0,1-.75-1.128Z" fill="#af5443"/><path d="M214.781,186l-2.117,4.588.353.353.705,1.059H217v-1c0-.667-.333-1.667,0-1.667a1.167,1.167,0,0,0,.667-.333l2,2s.333,1,0,1.333a1.033,1.033,0,0,0-.334.667h1l.667-1.333v1.544s1.446.712,1.8,0a11.787,11.787,0,0,0,.274-3.258l-1.356-.9-.72,1.314V188h-.843l-2.848-2Z" fill="#af5443"/><polygon points="228.948 192.241 229.804 193.268 231.249 194.351 230.888 192.545 231.972 191.823 231.782 190.384 228.948 192.241" fill="#af5443"/><path d="M237.137,192.027a13.122,13.122,0,0,1-1.084,2.528l-.722.723s.361.722.722.722h1.806l1.084.361,2.528.361L244,195.579v-2.108l-3.612-1.806Z" fill="#af5443"/><path d="M212.272,197.219s-1.034,2.332-.678,2.781h1.78l1.068,2h2.267l-.843-2.449-2.492-2.136Z" fill="#af5443"/><path d="M218.889,202.916l.2,2.268,1.445,1.445a8.206,8.206,0,0,1,.361,1.445c0,.361.723,1.084.362,1.445a5.216,5.216,0,0,1-1.084.722s4.7,2.89,5.418,2.89,5.418.722,5.418.722L227.4,209.88l-1.445-1.084-1.083-2.528-1.084.722-1.445-1.083-.361-1.445-1.806-1.445Z" fill="#af5443"/><polygon points="213.502 186.766 212.251 182.959 209.972 183.415 208.408 183.024 206.209 183.337 206.335 185.838 207 186.405 207 188.211 208.084 188.572 209.529 186.405 210.038 184.876 213.502 186.766" fill="#af5443"/></g><rect x="172" y="173" width="72" height="1" fill="#fff"/><rect x="186" y="207" width="46" height="4" fill="#505050"/><rect x="193" y="208" width="2" height="2" fill="#0078d7"/><rect x="200" y="208" width="2" height="2" fill="#5c2d91"/><rect x="203" y="208" width="2" height="2" fill="#737373"/><circle cx="191" cy="209" r="1" fill="#32145a"/><circle cx="198" cy="209" r="1" fill="#1ac3f3"/><circle cx="207" cy="209" r="1" fill="#107c10"/><rect x="210" y="208" width="2" height="2" fill="#0078d7"/><rect x="216" y="208" width="2" height="2" fill="#af5443"/><rect x="219" y="208" width="2" height="2" fill="#737373"/><rect x="187" y="208" width="2" height="2" fill="#737373"/><rect x="226" y="208" width="2" height="2" fill="#0078d7"/><circle cx="214" cy="209" r="1" fill="#a6a6a6"/><circle cx="223" cy="209" r="1" fill="#32145a"/><circle cx="230" cy="209" r="1" fill="#1ac3f3"/><circle cx="217" cy="93" r="28" fill="#fff"/><path d="M228.386,93.933a.631.631,0,0,0,.593.435l1.329-.041a.681.681,0,0,0,.542-.691l.075-1.629a.943.943,0,0,1,.658-.992c.213-.194.523-.282.737-.477a1.141,1.141,0,0,1,1.116.153l1.486.986a.773.773,0,0,0,.718-.07l.968-1.078a.706.706,0,0,0-.166-.825l-1.166-1.278a.83.83,0,0,1-.158-1.028l-.1-.106a1.1,1.1,0,0,0,.339-.7c.019-.409.241-.807.959-.876l1.543-.237a.808.808,0,0,0,.541-.69l-.137-1.436a.5.5,0,0,0-.593-.435l-1.63-.075a.972.972,0,0,1-.991-.657c-.194-.213-.282-.523-.476-.735a1.634,1.634,0,0,1,.055-1.223l.979-1.283a.737.737,0,0,0-.06-.922l-1.088-.763a.62.62,0,0,0-.815-.037L232.465,78.5a1.041,1.041,0,0,1-1.134.255,3.173,3.173,0,0,0-.806-.241l-.1-.107a1.072,1.072,0,0,1-.777-.851l-.225-1.747a.632.632,0,0,0-.593-.434l-1.437.139a.5.5,0,0,0-.435.592l-.182,1.728c-.027.611-.241.805-.551.894-.214.2-.524.282-.737.478a1.072,1.072,0,0,1-1.222-.056l-1.38-1.083a.794.794,0,0,0-.824.165l-.969,1.081a.9.9,0,0,0,.167.823l1.166,1.278c.389.426.477.737.157,1.028-.009.2-.126.506-.144.913-.117.3-.232.6-.95.671l-1.648.334a.636.636,0,0,0-.437.593l.139,1.435a.652.652,0,0,0,.486.533l1.737-.024c.611.028.805.241.893.551a8.963,8.963,0,0,1,.467.94.914.914,0,0,1,.05,1.126l-1.084,1.38a.791.791,0,0,0,.166.823l.982.861a.62.62,0,0,0,.815.038l1.182-1.274a1.035,1.035,0,0,1,1.134-.255l.9.347c.407.018.6.232.777.852l.332,1.649m4-9.313a3.585,3.585,0,0,1-3.234,3.733,3.33,3.33,0,0,1-3.731-3.232,3.425,3.425,0,0,1,3.128-3.635,3.468,3.468,0,0,1,3.837,3.134" fill="#737373"/><path d="M236.982,96.114a.512.512,0,0,1-.6.12c-.077.071-.21-.231-.274-.455l-.254-.9c-.134-.3-.429-.314-.512-.1l-.694.633a.789.789,0,0,1-.61.415l-.352-.385-.632-.693c-.211-.231-.436-.167-.52.05l-.412.942a2.159,2.159,0,0,1-.322.576,4.336,4.336,0,0,1-.5-.245l-.872-.335c-.287-.16-.442-.02-.455.275l.029.961a.713.713,0,0,1-.173.583,1.831,1.831,0,0,1-.52.05l-.884-.04c-.294-.013-.449.128-.315.429l.4.9c.064.225.121.6.121.6a1.786,1.786,0,0,1-.526.2l-.905.4c-.224.064-.308.281-.1.512l.709.623a3.66,3.66,0,0,1,.345.532,3.775,3.775,0,0,1-.392.5l-.694.633c-.154.14-.091.365.127.448l.871.335c.218.084.505.244.5.392a1.953,1.953,0,0,1-.1.512l-.483.864c-.083.218.057.372.275.456l.96-.031a1.446,1.446,0,0,1,.66.1.556.556,0,0,1,.05.519l-.047,1.031c-.014.295.2.379.428.315l.834-.479a.747.747,0,0,1,.667-.044c.077-.07.141.154.274.455l.254.9c.134.3.358.238.512.1l.694-.633a.792.792,0,0,1,.61-.416l.352.385.633.693c.21.231.434.168.518-.05l.343-1.019a1.539,1.539,0,0,1,.391-.5,4.264,4.264,0,0,1,.506.244l.87.335c.289.16.442.02.456-.275l-.106-.891a1.574,1.574,0,0,1,.181-.729s.3.012.59.026l.884.04c.294.013.379-.2.315-.429l-.4-.9c-.064-.225-.12-.6-.12-.6a1.123,1.123,0,0,1,.455-.275l.975-.325c.224-.063.308-.281.1-.512l-.709-.623a2.3,2.3,0,0,1-.345-.532c-.07-.077.161-.289.315-.43l.771-.7c.154-.141.091-.365-.127-.449l-.871-.334c-.217-.084-.576-.322-.5-.392-.07-.077.014-.295.1-.512l.483-.864c.083-.218-.057-.372-.352-.386l-.884-.04a4.018,4.018,0,0,1-.66-.1.954.954,0,0,1-.12-.595l.118-.955c.014-.294-.2-.378-.428-.315Zm-1.851,4.936A1.269,1.269,0,0,1,233,102.43a1.16,1.16,0,0,1,.445-1.677,1.258,1.258,0,0,1,1.686.3" fill="#737373"/><path d="M221.235,92.851a.6.6,0,0,0,.036-.792L220.212,90.9a.7.7,0,0,0-.791-.036l-1.8,1.189c-.384-.257-.845-.594-1.231-.85l.579-2.2a.541.541,0,0,0-.289-.648l-1.321-.616a.5.5,0,0,0-.724.206l-1.28,1.926a4.609,4.609,0,0,0-1.411-.38l-.215-2.233a.541.541,0,0,0-.53-.58l-1.508.011c-.234-.09-.483.138-.573.371l-.5,2.28a4.652,4.652,0,0,0-1.441.252l-1.1-2.034a.8.8,0,0,0-.7-.27l-1.456.569a.539.539,0,0,0-.345.62l.456,2.164c-.408.22-.822.6-1.229.818l-1.76-1.429a.513.513,0,0,0-.717.047l-1.077.983a.513.513,0,0,0-.112.71l1.263,1.883a6.468,6.468,0,0,0-.935,1.307l-2.188-.733a.692.692,0,0,0-.732.363l-.617,1.323a.685.685,0,0,0,.281.806l1.851,1.2c-.18.468-.2.944-.383,1.412l-2.233.217a.692.692,0,0,0-.5.612l-.066,1.426a.693.693,0,0,0,.447.656l2.287.341a9.252,9.252,0,0,0,.243,1.6l-2.035,1.1a.5.5,0,0,0-.271.7l.493,1.372a.742.742,0,0,0,.694.428l2.249-.534q.328.61.658,1.221l-1.431,1.762a.742.742,0,0,0,.046.716l1.059,1.16a.6.6,0,0,0,.709.111l1.885-1.265c.384.257.846.595,1.231.85l-.578,2.2a.539.539,0,0,0,.288.649l1.4.7a.679.679,0,0,0,.724-.206l1.2-1.851c.476.021.944.2,1.42.223l.131,2.308a.691.691,0,0,0,.612.5l1.5.147a.957.957,0,0,0,.58-.529l.419-2.2c.558-.054,1.041-.191,1.6-.245l1.022,1.951a.544.544,0,0,0,.7.27l1.372-.493a.645.645,0,0,0,.43-.7l-.456-2.164a5.7,5.7,0,0,0,1.228-.818l1.761,1.43a.531.531,0,0,0,.792.036l1.078-.984a.531.531,0,0,0,.036-.792l-1.264-1.884a3.946,3.946,0,0,0,.934-1.307l2.19.734a.539.539,0,0,0,.648-.287l.7-1.4a.8.8,0,0,0-.205-.724l-1.927-1.278a4.044,4.044,0,0,0,.3-1.336l2.316-.293c.241-.068.49-.3.5-.454l.073-1.584a.542.542,0,0,0-.529-.58l-2.2-.417a8.648,8.648,0,0,0-.168-1.517l1.876-1.106a.578.578,0,0,0,.354-.777l-.492-1.372a.5.5,0,0,0-.7-.27l-2.241.376q-.328-.612-.659-1.221l1.349-1.688m-9.776,7.1a2.3,2.3,0,1,1-3.4,3.1,2.3,2.3,0,1,1,3.4-3.1" fill="#737373"/><path d="M411,119a25,25,0,1,0-25-25A25,25,0,0,0,411,119Z" fill="#fff"/><path d="M394.459,111.3a1.51,1.51,0,1,1,1.513-1.51A1.535,1.535,0,0,1,394.459,111.3Zm34.849-30.9-.7-.693-6.421,6.775-4.05-1.184-1.472-3.918,7.2-6.122-.7-.694a9.376,9.376,0,0,0-9.939,2.285,9.067,9.067,0,0,0-1.718,9.919l-19.633,20.571c-1.268,1.347-1.432,3.878.2,5.062a3.537,3.537,0,0,0,4.827-.164L417,91.954a11.348,11.348,0,0,0,9.939-2.939C429.471,86.933,430.371,83.913,429.308,80.4Z" fill="#b2b2b2"/><path d="M395.154,112.035a1.571,1.571,0,0,1-1.554-1.51,1.484,1.484,0,0,1,1.554-1.469,1.527,1.527,0,0,1,1.513,1.469A1.563,1.563,0,0,1,395.154,112.035ZM429.307,80.4l-6.421,6.776-4.05-1.224-1.431-3.919,6.462-6.775a9.376,9.376,0,0,0-9.939,2.285,9.079,9.079,0,0,0-1.759,9.919l-19.551,20.612c-1.268,1.306-1.432,3.837.164,5.02a3.543,3.543,0,0,0,4.867-.122l20.042-20.367a11.207,11.207,0,0,0,9.9-2.9C430.207,87.627,430.739,83.627,429.307,80.4Z" fill="#737373"/><path d="M409.224,95.709l-10.266-9.674-3.722-1.347L390,77.668l2.5-2.368,7.4,4.858,1.514,3.428,10.1,9.429C411.474,93.056,409.224,95.709,409.224,95.709Z" fill="#b2b2b2"/><path d="M409.715,94.811l-10.267-9.674-3.722-1.388L390.7,77.015l-.695.653,5.236,7.02,3.722,1.347,10.266,9.674,2.25-2.694-.123-.163C411.351,92.892,409.715,94.811,409.715,94.811Z" fill="#737373"/><path d="M427.712,113.137a3.658,3.658,0,0,1-4.008-.449L408.856,99.382c-1.677-1.592-1.268-3.1-.122-4.163l2.372-2.653a2.821,2.821,0,0,1,3.845-.327l15.134,14.245a2.673,2.673,0,0,1,.122,4.163Z" fill="#505050"/><path d="M430.207,108.321s-1.963,2.041-2.5,2.49a2.568,2.568,0,0,1-3.722-.2L408.856,97.1a3.581,3.581,0,0,1-.777-.979c-.573.939-.491,2.122.777,3.347l15.134,13.51a3.021,3.021,0,0,0,3.722.2,28.732,28.732,0,0,0,2.5-2.49,2.564,2.564,0,0,0,.614-3.183A2.862,2.862,0,0,1,430.207,108.321Z" fill="#282828"/></svg>