<svg width="423" height="308" viewBox="0 0 423 308" version="1.1" xmlns="http://www.w3.org/2000/svg" xmlns:xlink="http://www.w3.org/1999/xlink">
<title>Group</title>
<desc>Created using Figma</desc>
<g id="Canvas" transform="translate(-23534 -3210)">
<g id="Group">
<g id="bkgd 1">
<g id="Vector">
<use xlink:href="#path0_fill" transform="translate(23570.9 3241.69)" fill="#90C10C"/>
</g>
<g id="Vector">
<use xlink:href="#path1_fill" transform="translate(23735.8 3259.54)" fill="#A88763"/>
</g>
<g id="Vector">
<use xlink:href="#path2_fill" transform="matrix(0.7071 -0.7071 0.7071 0.7071 23799.4 3321.65)" fill="#90C10C"/>
</g>
<g id="Vector">
<use xlink:href="#path3_fill" transform="translate(23695.9 3509.49)" fill="#B2B2B2"/>
</g>
<g id="Vector">
<use xlink:href="#path4_fill" transform="translate(23682.9 3236.16)" fill="#65AA0D"/>
</g>
<g id="Vector">
<use xlink:href="#path5_fill" transform="translate(23635 3243.61)" fill="#65AA0D"/>
</g>
<g id="Vector">
<use xlink:href="#path6_fill" transform="translate(23706.3 3234.04)" fill="#2E2E2E"/>
</g>
<g id="Vector">
<use xlink:href="#path7_fill" transform="translate(23710.5 3236.16)" fill="#2488D8"/>
</g>
<g id="Vector">
<use xlink:href="#path8_fill" transform="translate(23707.9 3250.73)" fill="#5D5F5E"/>
</g>
<g id="Vector">
<use xlink:href="#path9_fill" transform="translate(23751.5 3250.2)" fill="#5D5F5E"/>
</g>
<g id="Vector">
<use xlink:href="#path10_fill" transform="translate(23728.3 3236.16)" fill="#69AFE5"/>
</g>
<g id="Vector">
<use xlink:href="#path11_fill" transform="translate(23570.2 3378.68)" fill="#2E2E2E"/>
</g>
<g id="Vector">
<use xlink:href="#path12_fill" transform="translate(23573.4 3381.87)" fill="#2488D8"/>
</g>
<g id="Vector">
<use xlink:href="#path13_fill" transform="translate(23561.4 3423.33)" fill="#2E2E2E"/>
</g>
<g id="Vector">
<use xlink:href="#path14_fill" transform="translate(23603.1 3379.74)" fill="#5D5F5E"/>
</g>
<g id="Vector">
<use xlink:href="#path15_fill" transform="translate(23606.7 3381.87)" fill="#69AFE5"/>
</g>
<g id="Vector">
<use xlink:href="#path16_fill" transform="matrix(0.7071 -0.7071 0.7071 0.7071 23568.7 3303.52)" fill="#90C10C"/>
</g>
<g id="Group">
<g id="Vector">
<use xlink:href="#path17_fill" transform="translate(23861.1 3229.04)" fill="#CBE247"/>
</g>
<g id="Vector">
<use xlink:href="#path18_fill" transform="translate(23858.2 3226.06)" fill="#90C10C"/>
</g>
</g>
<g id="Group">
<g id="Vector">
<use xlink:href="#path19_fill" transform="translate(23851.9 3297.85)" fill="#CBE247"/>
</g>
<g id="Vector">
<use xlink:href="#path20_fill" transform="translate(23848.9 3294.87)" fill="#90C10C"/>
</g>
</g>
<g id="Group">
<g id="Vector">
<use xlink:href="#path21_fill" transform="translate(23783.5 3260.94)" fill="#CBE247"/>
</g>
<g id="Vector">
<use xlink:href="#path22_fill" transform="translate(23780.5 3257.97)" fill="#90C10C"/>
</g>
</g>
<g id="Vector">
<use xlink:href="#path23_fill" transform="translate(23534 3330.82)" fill="#0078D7"/>
</g>
<g id="Vector">
<use xlink:href="#path24_fill" transform="translate(23542.5 3336.14)" fill="#004578"/>
</g>
<g id="Vector">
<use xlink:href="#path25_fill" transform="translate(23540.4 3337.2)" fill="#B3D6F2"/>
</g>
<g id="Vector">
<use xlink:href="#path26_fill" transform="translate(23805.1 3220.21)" fill="#0078D7"/>
</g>
<g id="Vector">
<use xlink:href="#path27_fill" transform="translate(23809.5 3224.46)" fill="#004578"/>
</g>
<g id="Vector">
<use xlink:href="#path28_fill" transform="translate(23809.5 3224.46)" fill="#B3D6F2"/>
</g>
<g id="Vector">
<use xlink:href="#path29_fill" transform="matrix(0.7071 -0.7071 0.7071 0.7071 23886.6 3342.76)" fill="#90C10C"/>
</g>
<g id="Group">
<g id="Vector">
<use xlink:href="#path30_fill" transform="translate(23912.4 3297.32)" fill="#CBE247"/>
</g>
<g id="Vector">
<use xlink:href="#path31_fill" transform="translate(23909.4 3294.34)" fill="#90C10C"/>
</g>
</g>
<g id="Group">
<g id="Vector">
<use xlink:href="#path32_fill" transform="translate(23554 3284.02)" fill="#CBE247"/>
</g>
<g id="Vector">
<use xlink:href="#path33_fill" transform="translate(23551.3 3281.26)" fill="#90C10C"/>
</g>
</g>
<g id="Group">
<g id="Vector">
<use xlink:href="#path34_fill" transform="translate(23627.2 3223.72)" fill="#CBE247"/>
</g>
<g id="Vector">
<use xlink:href="#path35_fill" transform="translate(23624.2 3220.74)" fill="#90C10C"/>
</g>
</g>
<g id="Group">
<g id="Vector">
<use xlink:href="#path36_fill" transform="translate(23719.4 3367.51)" fill="#CBE247"/>
</g>
<g id="Vector">
<use xlink:href="#path37_fill" transform="translate(23716.4 3364.53)" fill="#90C10C"/>
</g>
</g>
<g id="Group">
<g id="Group">
<g id="Vector">
<use xlink:href="#path38_fill" transform="translate(23674.1 3212.98)" fill="#CBE247"/>
</g>
<g id="Vector">
<use xlink:href="#path39_fill" transform="translate(23671.1 3210)" fill="#90C10C"/>
</g>
</g>
</g>
<g id="Group">
<g id="Vector">
<use xlink:href="#path40_fill" transform="translate(23663.1 3334.22)" fill="#CBE247"/>
</g>
<g id="Vector">
<use xlink:href="#path41_fill" transform="translate(23660.1 3331.24)" fill="#90C10C"/>
</g>
</g>
<g id="Group">
<g id="Vector">
<use xlink:href="#path42_fill" transform="translate(23561.7 3231.91)" fill="#2488D8"/>
</g>
<g id="Vector">
<use xlink:href="#path43_fill" transform="translate(23565.9 3236.16)" fill="#B3D6F2"/>
</g>
</g>
<g id="Group">
<g id="Vector">
<use xlink:href="#path44_fill" transform="translate(23706.4 3304.44)" fill="#0078D7"/>
</g>
<g id="Vector">
<use xlink:href="#path45_fill" transform="translate(23717 3314.34)" fill="#B3D6F2"/>
</g>
<g id="Vector">
<use xlink:href="#path46_fill" transform="translate(23715.1 3314.65)" fill="#004578"/>
</g>
</g>
<g id="Group">
<g id="Vector">
<use xlink:href="#path47_fill" transform="translate(23896.7 3231.91)" fill="#69AFE5"/>
</g>
<g id="Vector">
<use xlink:href="#path48_fill" transform="translate(23905.8 3263.3)" fill="#FFFFFF"/>
</g>
<g id="Vector">
<use xlink:href="#path49_fill" transform="translate(23909.5 3261.79)" fill="#004578"/>
</g>
<g id="Vector">
<use xlink:href="#path50_fill" transform="translate(23911 3259.03)" fill="#004578"/>
</g>
<g id="Vector">
<use xlink:href="#path51_fill" transform="translate(23911 3242.01)" fill="#005A93"/>
</g>
<g id="Vector">
<use xlink:href="#path52_fill" transform="translate(23904 3253.24)" fill="#005A93"/>
</g>
<g id="Vector">
<use xlink:href="#path53_fill" transform="translate(23916.3 3261.05)" fill="#004578"/>
</g>
<g id="Vector">
<use xlink:href="#path54_fill" transform="translate(23913.7 3242.01)" fill="#004578"/>
</g>
<g id="Vector">
<use xlink:href="#path55_fill" transform="translate(23924.1 3242.01)" fill="#FFFFFF"/>
</g>
<g id="Vector">
<use xlink:href="#path56_fill" transform="translate(23927.5 3242.12)" fill="#FFFFFF"/>
</g>
</g>
<g id="Group">
<g id="Vector">
<use xlink:href="#path57_fill" transform="translate(23565.9 3236.16)" fill="#004578"/>
</g>
</g>
<g id="Group">
<g id="Vector">
<use xlink:href="#path57_fill" transform="translate(23580.8 3236.16)" fill="#004578"/>
</g>
</g>
<g id="Group">
<g id="Vector">
<use xlink:href="#path57_fill" transform="translate(23595.7 3236.16)" fill="#004578"/>
</g>
</g>
<g id="Group">
<g id="Group">
<g id="Vector">
<use xlink:href="#path58_fill" transform="translate(23632.4 3292.74)" fill="#CBE247"/>
</g>
<g id="Vector">
<use xlink:href="#path59_fill" transform="translate(23629.4 3289.77)" fill="#90C10C"/>
</g>
</g>
</g>
<g id="Group">
<g id="Group">
<g id="Vector">
<use xlink:href="#path60_fill" transform="translate(23791.6 3310.82)" fill="#CBE247"/>
</g>
<g id="Vector">
<use xlink:href="#path61_fill" transform="translate(23788.6 3307.85)" fill="#90C10C"/>
</g>
</g>
</g>
<g id="Group">
<g id="Vector">
<use xlink:href="#path62_fill" transform="translate(23933.9 3326.56)" fill="#2E2E2E"/>
</g>
<g id="Vector">
<use xlink:href="#path63_fill" transform="translate(23933.9 3363.79)" fill="#2E2E2E"/>
</g>
<g id="Vector">
<use xlink:href="#path64_fill" transform="translate(23936 3331.88)" fill="#2488D8"/>
</g>
<g id="Vector">
<use xlink:href="#path65_fill" transform="translate(23937.2 3331.88)" fill="#69AFE5"/>
</g>
<g id="Vector">
<use xlink:href="#path66_fill" transform="translate(23941.3 3328.69)" fill="#737373"/>
</g>
<g id="Vector">
<use xlink:href="#path67_fill" transform="translate(23937.1 3364.85)" fill="#ACACAC"/>
</g>
</g>
<g id="Group">
<g id="Vector">
<use xlink:href="#path68_fill" transform="translate(23887.8 3396.54)" fill="#69AFE5"/>
</g>
<g id="Vector">
<use xlink:href="#path69_fill" transform="translate(23887.1 3395.69)" fill="#004578"/>
</g>
<g id="Vector">
<use xlink:href="#path70_fill" transform="translate(23894.5 3413.77)" fill="#B3D6F2"/>
</g>
</g>
</g>
<g id="Layer 1 2">
<g id="Vector">
<use xlink:href="#path71_fill" transform="translate(23768.3 3374)" fill="#0D520D"/>
</g>
<g id="Vector">
<use xlink:href="#path72_fill" transform="translate(23758 3370.91)" fill="#0D520D"/>
</g>
<g id="Vector">
<use xlink:href="#path73_fill" transform="translate(23763.1 3368.79)" fill="#A88763"/>
</g>
<g id="Vector">
<use xlink:href="#path74_fill" transform="translate(23767.5 3370.91)" fill="#0D520D"/>
</g>
<g id="Vector">
<use xlink:href="#path75_fill" transform="translate(23764 3310.29)" fill="#A88763"/>
</g>
<g id="Vector">
<use xlink:href="#path76_fill" transform="translate(23765 3338.35)" fill="#A88763"/>
</g>
<g id="Vector">
<use xlink:href="#path77_fill" transform="translate(23773.3 3310.29)" fill="#A88763"/>
</g>
<g id="Vector">
<use xlink:href="#path78_fill" transform="translate(23763.7 3314.33)" fill="#004B1C"/>
</g>
<g id="Vector">
<use xlink:href="#path79_fill" transform="translate(23773.6 3314.33)" fill="#004B1C"/>
</g>
<g id="Vector">
<use xlink:href="#path80_fill" transform="translate(23768.6 3280.3)" fill="#004B1C"/>
</g>
<g id="Vector">
<use xlink:href="#path81_fill" transform="translate(23758.2 3280.3)" fill="#004B1C"/>
</g>
<g id="Vector">
<use xlink:href="#path82_fill" transform="translate(23741.8 3283.92)" fill="#0D520D"/>
</g>
<g id="Vector">
<use xlink:href="#path83_fill" transform="translate(23756.4 3283.17)" fill="#004B1C"/>
</g>
<g id="Vector">
<use xlink:href="#path84_fill" transform="translate(23744.8 3283.28)" fill="#004B1C"/>
</g>
<g id="Vector">
<use xlink:href="#path85_fill" transform="translate(23737.2 3270.52)" fill="#3B930F"/>
</g>
<g id="Vector">
<use xlink:href="#path86_fill" transform="translate(23741.7 3283.9)" fill="#004B1C"/>
</g>
<g id="Vector">
<use xlink:href="#path87_fill" transform="translate(23737.8 3271.79)" fill="#004B1C"/>
</g>
<g id="Vector">
<use xlink:href="#path88_fill" transform="translate(23764.2 3275.62)" fill="#A88763"/>
</g>
<g id="Vector">
<use xlink:href="#path89_fill" transform="translate(23764 3274.56)" fill="#936F51"/>
</g>
<g id="Vector">
<use xlink:href="#path90_fill" transform="translate(23760.6 3269.13)" fill="#A88763"/>
</g>
<g id="Vector">
<use xlink:href="#path91_fill" transform="translate(23766 3268.18)" fill="#936F51"/>
</g>
<g id="Vector">
<use xlink:href="#path92_fill" transform="translate(23762.3 3262.87)" fill="#613D30"/>
</g>
<g id="Vector">
<use xlink:href="#path93_fill" transform="translate(23764 3270.73)"/>
</g>
<g id="Vector">
<use xlink:href="#path94_fill" transform="translate(23765.2 3282.43)" fill="#3B930F"/>
</g>
<g id="Vector">
<use xlink:href="#path95_fill" transform="translate(23769.4 3282)" fill="#BCE2BC"/>
</g>
<g id="Vector">
<use xlink:href="#path96_fill" transform="translate(23769.6 3279.56)" fill="#936F51"/>
</g>
<g id="Vector">
<use xlink:href="#path97_fill" transform="translate(23761.7 3275.51)" fill="#8A0000"/>
</g>
<g id="Vector">
<use xlink:href="#path98_fill" transform="translate(23761.7 3275.51)" fill="#8A0000"/>
</g>
<g id="Vector">
<use xlink:href="#path99_fill" transform="translate(23766.6 3295.93)" fill="#0D520D"/>
</g>
<g id="Vector">
<use xlink:href="#path100_fill" transform="translate(23763.7 3315.08)" fill="#003C16"/>
</g>
<g id="Vector">
<use xlink:href="#path101_fill" transform="translate(23754.3 3279.52)" fill="#0D520D"/>
</g>
<g id="Vector">
<use xlink:href="#path102_fill" transform="translate(23770.6 3283.54)" fill="#004B1C"/>
</g>
<g id="Vector">
<use xlink:href="#path103_fill" transform="translate(23756.7 3279.66)" fill="#004B1C"/>
</g>
<g id="Vector">
<use xlink:href="#path104_fill" transform="translate(23754.4 3279.64)" fill="#004B1C"/>
</g>
<g id="Vector">
<use xlink:href="#path105_fill" transform="translate(23742 3261.68)" fill="#A88763"/>
</g>
<g id="Vector">
<use xlink:href="#path106_fill" transform="translate(23745.1 3268.28)" fill="#3B930F"/>
</g>
<g id="Vector">
<use xlink:href="#path107_fill" transform="translate(23745.8 3269.45)" fill="#004B1C"/>
</g>
<g id="Vector">
<use xlink:href="#path108_fill" transform="translate(23745.6 3272.85)" fill="#3B930F"/>
</g>
<g id="Vector">
<use xlink:href="#path109_fill" transform="translate(23569.1 3238.29)" fill="#69AFE5"/>
</g>
</g>
</g>
</g>
<defs>
<path id="path0_fill" d="M 281.093 177.504L 232.383 127.624L 236.211 123.902L 283.326 172.186L 342.352 172.08L 342.352 177.398L 281.093 177.504ZM 118.372 157.191L 12.018 157.191L 12.018 151.873L 118.372 151.873L 118.372 157.191ZM 222.598 139.111L 170.485 139.111L 170.485 133.793L 222.598 133.793L 222.598 139.111ZM 105.609 138.047L 100.291 138.047L 100.291 114.649L 105.609 114.649L 105.609 138.047ZM 67.2155 105.503L 8.11413e-07 105.503L 8.11413e-07 100.185L 67.2155 100.185L 67.2155 105.503ZM 367.239 105.077L 301.3 105.077L 301.3 99.7597L 367.239 99.7597L 367.239 105.077ZM 160.913 90.1878L 114.117 90.1878L 114.117 84.8702L 160.913 84.8702L 160.913 90.1878ZM 282.156 69.9807L 255.568 69.9807L 255.568 64.663L 282.156 64.663L 282.156 69.9807ZM 114.117 64.663L 81.1478 64.663L 81.1478 59.3453L 114.117 59.3453L 114.117 64.663ZM 303.214 63.4931L 299.492 59.7707L 354.264 4.99862L 357.986 8.72099L 303.214 63.4931ZM 116.138 53.8149L 112.416 50.0925L 153.787 8.72099L 157.51 12.4434L 116.138 53.8149ZM 65.3011 52.645L 16.3785 3.72237L 20.1008 -8.11413e-07L 69.0235 48.9227L 65.3011 52.645ZM 255.568 33.8204L 234.297 33.8204L 234.297 28.5028L 255.568 28.5028L 255.568 33.8204Z"/>
<path id="path1_fill" d="M 1.66425 10.5454C 0.0689424 7.67386 -0.143765 6.82304 0.0689423 4.1642C 0.0689423 2.35618 0.49435 1.93077 1.02612 2.67524C 0.49435 0.867233 1.66425 -0.196299 1.98331 0.867237C 1.98331 0.335469 2.30236 -0.089949 2.94049 0.0164046C 3.47225 0.0164046 3.25954 0.867236 3.15319 1.1863C 3.5786 0.973589 4.42943 1.1863 4.21673 2.46254C 4.21673 3.63243 4.53579 3.73878 4.53579 3.73878C 4.85485 2.7816 5.49297 2.46254 6.02473 2.99431C 5.70567 4.27055 5.91839 6.18492 5.70569 7.78022C 5.49298 8.09928 5.49298 8.20563 5.38662 8.63105L 7.51369 15.8631L 3.36589 15.1186C 3.25954 15.0123 1.66425 10.5454 1.66425 10.5454Z"/>
<path id="path2_fill" d="M 5.31769 3.24565e-06L 1.29826e-05 3.24565e-06L 1.29826e-05 35.8412L 5.31769 35.8412L 5.31769 3.24565e-06Z"/>
<path id="path3_fill" d="M 112.628 8.50829L 4.25414 8.50829C 2.02071 8.50829 -3.24565e-06 6.48758 -3.24565e-06 4.25415C -3.24565e-06 1.80802 2.02071 6.49131e-06 4.25414 6.49131e-06L 112.628 6.49131e-06C 115.075 6.49131e-06 116.883 1.80802 116.883 4.25415C 116.883 6.48758 115.075 8.50829 112.628 8.50829Z"/>
<path id="path4_fill" d="M 85.0829 278.646L 79.7652 278.646L 79.7652 168.464L 140.387 107.843L 140.387 8.50829L 145.704 8.50829L 145.704 110.076L 85.0829 170.698L 85.0829 278.646ZM 65.9392 278.646L 60.6215 278.646L 60.6215 170.698L 0 110.076L 0 4.05707e-07L 5.31768 4.05707e-07L 5.31768 107.843L 65.9392 168.464L 65.9392 278.646Z"/>
<path id="path5_fill" d="M 153.149 271.202L 147.831 271.202L 147.831 187.076L 235.041 99.866L 235.041 6.38121L 240.359 6.38121L 240.359 101.993L 153.149 189.203L 153.149 271.202ZM 92.5276 271.202L 87.2099 271.202L 87.2099 189.203L 0 101.993L 0 4.05707e-07L 5.31768 4.05707e-07L 5.31768 99.866L 92.5276 187.076L 92.5276 271.202Z"/>
<path id="path6_fill" d="M 48.9226 2.23343L 48.9226 31.7997C 48.9226 32.9696 47.9655 34.0331 46.6892 34.0331L 2.23343 34.0331C 1.06354 34.0331 -3.02275e-14 33.076 -3.02275e-14 31.7997L -3.02275e-14 2.23343C -3.02275e-14 1.06354 0.957189 4.05707e-07 2.23343 4.05707e-07L 46.7956 4.05707e-07C 47.9655 4.05707e-07 48.9226 0.957183 48.9226 2.23343Z"/>
<path id="path7_fill" d="M 0 4.05707e-07L 39.3508 4.05707e-07L 39.3508 29.779L 0 29.779L 0 4.05707e-07Z"/>
<path id="path8_fill" d="M 0.531768 1.06354C 0.825455 1.06354 1.06354 0.825454 1.06354 0.531767C 1.06354 0.23808 0.825455 0 0.531768 0C 0.238081 0 0 0.23808 0 0.531767C 0 0.825454 0.238081 1.06354 0.531768 1.06354Z"/>
<path id="path9_fill" d="M 1.1699 2.33978C 1.81601 2.33978 2.33978 1.816 2.33978 1.16989C 2.33978 0.523779 1.81601 0 1.1699 0C 0.523784 0 0 0.523779 0 1.16989C 0 1.816 0.523784 2.33978 1.1699 2.33978Z"/>
<path id="path10_fill" d="M 21.5898 19.7818L 21.5898 4.05707e-07L -3.24565e-06 4.05707e-07L 21.5898 19.7818Z"/>
<path id="path11_fill" d="M 68.0663 45.7321L 68.0663 1.80801C 68.0663 0.850832 67.2155 6.49131e-06 66.2583 6.49131e-06L 1.80801 6.49131e-06C 0.85083 6.49131e-06 0 0.850832 0 1.80801L 0 45.7321L 68.0663 45.7321Z"/>
<path id="path12_fill" d="M 0 6.49131e-06L 61.6851 6.49131e-06L 61.6851 39.3508L 0 39.3508L 0 6.49131e-06Z"/>
<path id="path13_fill" d="M 81.7859 3.21056L 3.08425 3.21056C 0.425415 3.31691 -8.11414e-07 -0.299109 -8.11414e-07 0.0199519L 84.8702 0.0199519C 84.8702 -0.299109 83.8066 3.31691 81.7859 3.21056Z"/>
<path id="path14_fill" d="M 0 6.49131e-06L 1.06354 6.49131e-06L 1.06354 1.06354L 0 1.06354L 0 6.49131e-06Z"/>
<path id="path15_fill" d="M 28.2901 6.49131e-06L 1.62283e-06 6.49131e-06L 28.2901 26.482L 28.2901 6.49131e-06Z"/>
<path id="path16_fill" d="M 5.31768 0L 0 0L 0 59.3453L 5.31768 59.3453L 5.31768 0Z"/>
<path id="path17_fill" d="M 10.9544 21.9088C 17.0044 21.9088 21.9089 17.0044 21.9089 10.9544C 21.9089 4.90446 17.0044 0 10.9544 0C 4.90445 0 6.49131e-06 4.90446 6.49131e-06 10.9544C 6.49131e-06 17.0044 4.90445 21.9088 10.9544 21.9088Z"/>
<path id="path18_fill" d="M 13.9323 27.8646C 6.27486 27.8646 -1.29826e-05 21.5898 -1.29826e-05 13.9323C -1.29826e-05 6.27486 6.27486 4.05707e-07 13.9323 4.05707e-07C 21.5898 4.05707e-07 27.8646 6.27486 27.8646 13.9323C 27.8646 21.6961 21.5898 27.8646 13.9323 27.8646ZM 13.9323 5.84945C 9.46546 5.84945 5.84943 9.46547 5.84943 13.9323C 5.84943 18.3992 9.46546 22.0152 13.9323 22.0152C 18.3992 22.0152 22.0152 18.3992 22.0152 13.9323C 22.0152 9.46547 18.3992 5.84945 13.9323 5.84945Z"/>
<path id="path19_fill" d="M 10.9544 21.9088C 17.0044 21.9088 21.9088 17.0044 21.9088 10.9544C 21.9088 4.90446 17.0044 0 10.9544 0C 4.90447 0 -6.49131e-06 4.90446 -6.49131e-06 10.9544C -6.49131e-06 17.0044 4.90447 21.9088 10.9544 21.9088Z"/>
<path id="path20_fill" d="M 13.9323 27.8646C 6.27487 27.8646 6.49131e-06 21.5898 6.49131e-06 13.9323C 6.49131e-06 6.27486 6.27487 3.24565e-06 13.9323 3.24565e-06C 21.5898 3.24565e-06 27.8646 6.27486 27.8646 13.9323C 27.8646 21.5898 21.5898 27.8646 13.9323 27.8646ZM 13.9323 5.84945C 9.46548 5.84945 5.84945 9.46547 5.84945 13.9323C 5.84945 18.3992 9.46548 22.0152 13.9323 22.0152C 18.3992 22.0152 22.0152 18.3992 22.0152 13.9323C 22.0152 9.46547 18.3992 5.84945 13.9323 5.84945Z"/>
<path id="path21_fill" d="M 10.9544 21.9088C 17.0044 21.9088 21.9088 17.0044 21.9088 10.9544C 21.9088 4.90446 17.0044 0 10.9544 0C 4.90445 0 6.49131e-06 4.90446 6.49131e-06 10.9544C 6.49131e-06 17.0044 4.90445 21.9088 10.9544 21.9088Z"/>
<path id="path22_fill" d="M 13.9323 27.8646C 6.27486 27.8646 3.24565e-06 21.5898 3.24565e-06 13.9323C 3.24565e-06 6.27486 6.27486 -1.62283e-06 13.9323 -1.62283e-06C 21.5898 -1.62283e-06 27.8646 6.27486 27.8646 13.9323C 27.8646 21.6961 21.5898 27.8646 13.9323 27.8646ZM 13.9323 5.84945C 9.46546 5.84945 5.84945 9.46547 5.84945 13.9323C 5.84945 18.3992 9.46546 22.0152 13.9323 22.0152C 18.3992 22.0152 22.0152 18.3992 22.0152 13.9323C 22.0152 9.46547 18.3992 5.84945 13.9323 5.84945Z"/>
<path id="path23_fill" d="M 42.9669 28.7155L 1.70166 28.7155C 0.744475 28.7155 0 27.971 0 27.0138L 0 1.70165C 0 0.744472 0.744475 -1.62283e-06 1.70166 -1.62283e-06L 42.9669 -1.62283e-06C 43.924 -1.62283e-06 44.6685 0.744472 44.6685 1.70165L 44.6685 27.0138C 44.6685 27.971 43.924 28.7155 42.9669 28.7155Z"/>
<path id="path24_fill" d="M 0 -1.62283e-06L 2.12707 -1.62283e-06L 2.12707 18.0801L 0 18.0801L 0 -1.62283e-06ZM 6.38122 -1.62283e-06L 8.50829 -1.62283e-06L 8.50829 18.0801L 6.38122 18.0801L 6.38122 -1.62283e-06ZM 12.7624 -1.62283e-06L 14.8895 -1.62283e-06L 14.8895 18.0801L 12.7624 18.0801L 12.7624 -1.62283e-06ZM 19.1436 -1.62283e-06L 21.2707 -1.62283e-06L 21.2707 18.0801L 19.1436 18.0801L 19.1436 -1.62283e-06ZM 25.5249 -1.62283e-06L 27.6519 -1.62283e-06L 27.6519 18.0801L 25.5249 18.0801L 25.5249 -1.62283e-06Z"/>
<path id="path25_fill" d="M 0 10.6354L 6.38122 10.6354L 6.38122 13.826L 0 13.826L 0 10.6354ZM 25.5249 -1.62283e-06L 31.9061 -1.62283e-06L 31.9061 3.19061L 25.5249 3.19061L 25.5249 -1.62283e-06ZM 19.1436 8.50829L 25.5249 8.50829L 25.5249 11.6989L 19.1436 11.6989L 19.1436 8.50829ZM 12.7624 4.25414L 19.1436 4.25414L 19.1436 7.44475L 12.7624 7.44475L 12.7624 4.25414ZM 6.38122 1.06353L 12.7624 1.06353L 12.7624 4.25414L 6.38122 4.25414L 6.38122 1.06353Z"/>
<path id="path26_fill" d="M 41.2652 28.7155L 1.38261 28.7155C 0.638135 28.7155 -6.49131e-06 28.0773 -6.49131e-06 27.3329L -6.49131e-06 1.3826C -6.49131e-06 0.638121 0.638135 4.05707e-07 1.38261 4.05707e-07L 41.2652 4.05707e-07C 42.0097 4.05707e-07 42.6478 0.638121 42.6478 1.3826L 42.6478 27.4392C 42.6478 28.0773 42.0097 28.7155 41.2652 28.7155Z"/>
<path id="path27_fill" d="M 0 4.05707e-07L 32.9696 4.05707e-07L 32.9696 3.19061L 0 3.19061L 0 4.05707e-07ZM 0 5.31768L 32.9696 5.31768L 32.9696 8.50829L 0 8.50829L 0 5.31768ZM 0 10.6354L 32.9696 10.6354L 32.9696 13.826L 0 13.826L 0 10.6354ZM 0 15.953L 32.9696 15.953L 32.9696 19.1436L 0 19.1436L 0 15.953Z"/>
<path id="path28_fill" d="M 0 4.05707e-07L 9.57182 4.05707e-07L 9.57182 3.19061L 0 3.19061L 0 4.05707e-07ZM 19.1436 5.31768L 28.7155 5.31768L 28.7155 8.50829L 19.1436 8.50829L 19.1436 5.31768ZM 6.38122 10.6354L 15.953 10.6354L 15.953 13.826L 6.38122 13.826L 6.38122 10.6354ZM 12.7624 15.953L 22.3343 15.953L 22.3343 19.1436L 12.7624 19.1436L 12.7624 15.953Z"/>
<path id="path29_fill" d="M 40.9461 0L 1.29826e-05 0L 1.29826e-05 5.31768L 40.9461 5.31768L 40.9461 0Z"/>
<path id="path30_fill" d="M 10.9544 21.9088C 17.0044 21.9088 21.9088 17.0044 21.9088 10.9544C 21.9088 4.90446 17.0044 0 10.9544 0C 4.90447 0 -1.29826e-05 4.90446 -1.29826e-05 10.9544C -1.29826e-05 17.0044 4.90447 21.9088 10.9544 21.9088Z"/>
<path id="path31_fill" d="M 13.9323 27.8646C 6.27487 27.8646 0 21.5898 0 13.9323C 0 6.27486 6.27487 3.24565e-06 13.9323 3.24565e-06C 21.5898 3.24565e-06 27.8647 6.27486 27.8647 13.9323C 27.8647 21.5898 21.5898 27.8646 13.9323 27.8646ZM 13.9323 5.84945C 9.46548 5.84945 5.84945 9.46547 5.84945 13.9323C 5.84945 18.3992 9.46548 22.0152 13.9323 22.0152C 18.3992 22.0152 22.0152 18.3992 22.0152 13.9323C 22.0152 9.46547 18.3992 5.84945 13.9323 5.84945Z"/>
<path id="path32_fill" d="M 10.9544 21.9088C 17.0044 21.9088 21.9088 17.0044 21.9088 10.9544C 21.9088 4.90446 17.0044 0 10.9544 0C 4.90446 0 0 4.90446 0 10.9544C 0 17.0044 4.90446 21.9088 10.9544 21.9088Z"/>
<path id="path33_fill" d="M 13.6133 27.3329C 6.06215 27.3329 -8.11413e-07 21.1644 -8.11413e-07 13.7196C -8.11413e-07 6.27486 6.16851 0 13.6133 0C 21.058 0 27.3329 6.16851 27.3329 13.7196C 27.3329 21.2707 21.1644 27.3329 13.6133 27.3329ZM 13.6133 5.31768C 9.04006 5.31768 5.31768 9.04006 5.31768 13.6133C 5.31768 18.1865 9.04006 21.9088 13.6133 21.9088C 18.1865 21.9088 21.9088 18.1865 21.9088 13.6133C 22.0152 9.04006 18.2928 5.31768 13.6133 5.31768Z"/>
<path id="path34_fill" d="M 10.9544 21.9088C 17.0044 21.9088 21.9088 17.0044 21.9088 10.9544C 21.9088 4.90446 17.0044 0 10.9544 0C 4.90446 0 0 4.90446 0 10.9544C 0 17.0044 4.90446 21.9088 10.9544 21.9088Z"/>
<path id="path35_fill" d="M 13.9323 27.8646C 6.27486 27.8646 3.24565e-06 21.5898 3.24565e-06 13.9323C 3.24565e-06 6.27486 6.27486 4.05707e-07 13.9323 4.05707e-07C 21.5898 4.05707e-07 27.8646 6.27486 27.8646 13.9323C 27.8646 21.6961 21.5898 27.8646 13.9323 27.8646ZM 13.9323 5.84945C 9.46547 5.84945 5.84945 9.46547 5.84945 13.9323C 5.84945 18.3992 9.46547 22.0152 13.9323 22.0152C 18.3992 22.0152 22.0152 18.3992 22.0152 13.9323C 22.0152 9.46547 18.3992 5.84945 13.9323 5.84945Z"/>
<path id="path36_fill" d="M 10.9544 21.9088C 17.0044 21.9088 21.9088 17.0044 21.9088 10.9544C 21.9088 4.90445 17.0044 6.49131e-06 10.9544 6.49131e-06C 4.90447 6.49131e-06 3.24565e-06 4.90445 3.24565e-06 10.9544C 3.24565e-06 17.0044 4.90447 21.9088 10.9544 21.9088Z"/>
<path id="path37_fill" d="M 13.9323 27.8646C 6.27487 27.8646 0 21.5898 0 13.9323C 0 6.27486 6.27487 3.24565e-06 13.9323 3.24565e-06C 21.5898 3.24565e-06 27.8646 6.27486 27.8646 13.9323C 27.8646 21.5898 21.6961 27.8646 13.9323 27.8646ZM 13.9323 5.84945C 9.46548 5.84945 5.84945 9.46546 5.84945 13.9323C 5.84945 18.3992 9.46548 22.0152 13.9323 22.0152C 18.3992 22.0152 22.0152 18.3992 22.0152 13.9323C 22.0152 9.46546 18.3992 5.84945 13.9323 5.84945Z"/>
<path id="path38_fill" d="M 10.9544 21.9088C 17.0044 21.9088 21.9088 17.0044 21.9088 10.9544C 21.9088 4.90446 17.0044 0 10.9544 0C 4.90446 0 -3.24565e-06 4.90446 -3.24565e-06 10.9544C -3.24565e-06 17.0044 4.90446 21.9088 10.9544 21.9088Z"/>
<path id="path39_fill" d="M 13.9323 27.8646C 6.27486 27.8646 -6.49131e-06 21.5898 -6.49131e-06 13.9323C -6.49131e-06 6.27486 6.27486 0 13.9323 0C 21.5898 0 27.8646 6.27486 27.8646 13.9323C 27.8646 21.5898 21.5898 27.8646 13.9323 27.8646ZM 13.9323 5.84945C 9.46547 5.84945 5.84944 9.46547 5.84944 13.9323C 5.84944 18.3992 9.46547 22.0152 13.9323 22.0152C 18.3992 22.0152 22.0152 18.3992 22.0152 13.9323C 22.0152 9.46547 18.3992 5.84945 13.9323 5.84945Z"/>
<path id="path40_fill" d="M 10.9544 21.9088C 17.0044 21.9088 21.9088 17.0044 21.9088 10.9544C 21.9088 4.90446 17.0044 3.24565e-06 10.9544 3.24565e-06C 4.90446 3.24565e-06 0 4.90446 0 10.9544C 0 17.0044 4.90446 21.9088 10.9544 21.9088Z"/>
<path id="path41_fill" d="M 13.9323 27.8646C 6.27486 27.8646 -1.62283e-06 21.5898 -1.62283e-06 13.9323C -1.62283e-06 6.27486 6.27486 0 13.9323 0C 21.5898 0 27.8646 6.27486 27.8646 13.9323C 27.8646 21.5898 21.5898 27.8646 13.9323 27.8646ZM 13.9323 5.84945C 9.46547 5.84945 5.84945 9.46547 5.84945 13.9323C 5.84945 18.3992 9.46547 22.0152 13.9323 22.0152C 18.3992 22.0152 22.0152 18.3992 22.0152 13.9323C 22.0152 9.46547 18.2928 5.84945 13.9323 5.84945Z"/>
<path id="path42_fill" d="M 0 4.05707e-07L 51.0497 4.05707e-07L 51.0497 35.0967L 0 35.0967L 0 4.05707e-07Z"/>
<path id="path43_fill" d="M 0 4.05707e-07L 12.7624 4.05707e-07L 12.7624 7.44475L 0 7.44475L 0 4.05707e-07ZM 14.8895 4.05707e-07L 27.6519 4.05707e-07L 27.6519 7.44475L 14.8895 7.44475L 14.8895 4.05707e-07ZM 29.779 4.05707e-07L 42.5414 4.05707e-07L 42.5414 7.44475L 29.779 7.44475L 29.779 4.05707e-07ZM 0 9.57182L 12.7624 9.57182L 12.7624 17.0166L 0 17.0166L 0 9.57182ZM 14.8895 9.57182L 27.6519 9.57182L 27.6519 17.0166L 14.8895 17.0166L 14.8895 9.57182ZM 29.779 9.57182L 42.5414 9.57182L 42.5414 17.0166L 29.779 17.0166L 29.779 9.57182ZM 0 19.1436L 12.7624 19.1436L 12.7624 26.5884L 0 26.5884L 0 19.1436ZM 14.8895 19.1436L 27.6519 19.1436L 27.6519 26.5884L 14.8895 26.5884L 14.8895 19.1436ZM 29.779 19.1436L 42.5414 19.1436L 42.5414 26.5884L 29.779 26.5884L 29.779 19.1436Z"/>
<path id="path44_fill" d="M 23.8232 47.6464C 36.9804 47.6464 47.6464 36.9804 47.6464 23.8232C 47.6464 10.666 36.9804 3.24565e-06 23.8232 3.24565e-06C 10.666 3.24565e-06 6.49131e-06 10.666 6.49131e-06 23.8232C 6.49131e-06 36.9804 10.666 47.6464 23.8232 47.6464Z"/>
<path id="path45_fill" d="M 27.1999 4.03234L 22.6267 8.60554L 19.7552 7.64837L 18.798 4.77681L 23.3712 0.522671C 21.1378 -0.434511 18.4789 -0.115446 16.5646 1.79892C 14.9693 3.71328 14.3311 6.37212 15.2883 8.60554L 0.717884 23.176C -0.239299 24.1332 -0.239299 25.4094 0.717884 26.3666L 1.03695 26.6857C 1.99413 27.6428 3.58943 27.6428 4.65296 26.6857L 18.9044 12.1152C 21.1378 13.0724 23.7966 12.7533 25.711 10.839C 27.519 8.92461 27.8381 6.37212 27.1999 4.03234ZM 1.67508 25.7285C 1.03695 25.0904 1.03695 24.4522 1.67508 23.8141C 2.3132 23.176 3.27037 23.176 3.58943 23.8141C 4.22755 24.4522 4.22755 25.0904 3.58943 25.7285C 3.27037 26.3666 2.3132 26.3666 1.67508 25.7285Z"/>
<path id="path46_fill" d="M 25.5249 27.0138L 26.9075 25.6312C 27.971 24.5677 27.971 23.2914 26.9075 22.2279L 16.6975 12.4434C 16.0594 11.3798 14.6768 11.3798 14.0387 12.1243L 7.5511 5.7431L 6.91299 3.08426L 1.48895 1.62283e-06L 3.24565e-06 1.48895L 3.29695 7.12569L 6.06215 7.76381L 12.4434 14.145C 11.6989 15.2086 12.2307 17.3356 12.2307 17.3356L 22.3343 27.4392C 22.9724 28.0773 24.355 28.0773 25.4185 27.4392"/>
<path id="path47_fill" d="M 23.2914 46.5829C 36.1549 46.5829 46.5829 36.1549 46.5829 23.2914C 46.5829 10.4279 36.1549 0 23.2914 0C 10.4279 0 0 10.4279 0 23.2914C 0 36.1549 10.4279 46.5829 23.2914 46.5829Z"/>
<path id="path48_fill" d="M 5.63673 0.0916227C 5.63673 0.0916227 1.91437 -1.29097 6.49131e-06 6.68555C 7.65746 4.66483 6.27486 0.729743 6.27486 0.729743L 5.63673 0.0916227Z"/>
<path id="path49_fill" d="M 3.61602 4.25414L 6.49131e-06 0.638121L 3.29697 8.11414e-07L 4.25415 0.957181L 3.61602 4.25414Z"/>
<path id="path50_fill" d="M 1.80802 -1.62283e-06L 5.63673 3.82873L 3.82874 5.63674L 0 1.80801L 1.80802 -1.62283e-06Z"/>
<path id="path51_fill" d="M 22.6533 4.05707e-07C 21.6961 0.106354 10.8481 1.5953 5.95581 6.48757C 0.850835 11.5925 0 17.2293 0 17.2293L 2.55248 19.8881L 5.10496 22.547C 5.10496 22.547 10.8481 21.6961 15.8467 16.5912C 20.9517 11.8052 22.5469 0.957183 22.6533 4.05707e-07Z"/>
<path id="path52_fill" d="M 10.7417 1.53496C 10.7417 1.53496 5.63675 -1.44294 3.50968 0.896838C 2.23344 2.38579 1.06353 3.87474 -6.49131e-06 5.47004L 0.850842 6.10817C 0.850842 6.10817 3.40331 3.34297 5.42403 3.23662C 6.70028 3.23662 8.82736 4.40651 8.82736 4.40651L 10.7417 1.53496Z"/>
<path id="path53_fill" d="M 4.67955 0C 4.67955 0 7.65745 5.10497 5.21132 7.23204C 2.76519 9.35911 0.638128 10.7417 0.638128 10.7417L 6.0455e-14 9.89088C 6.0455e-14 9.89088 2.76521 7.3384 2.87156 5.31768C 2.87156 4.04144 1.70166 1.91436 1.70166 1.91436L 4.67955 0Z"/>
<path id="path54_fill" d="M 19.9945 4.05707e-07L 0 19.8881L 2.55248 22.547C 2.55248 22.547 8.29558 21.6961 13.2942 16.5912C 18.2928 11.8052 19.8881 0.957183 19.9945 4.05707e-07Z"/>
<path id="path55_fill" d="M 7.12685 9.67818C 8.82851 5.10497 9.57298 0.531768 9.67933 4.05707e-07C 9.14756 0.106354 4.468 0.744477 0.00114864 2.44613C -0.105205 2.44613 7.12685 9.67818 7.12685 9.67818Z"/>
<path id="path56_fill" d="M 0 5.95718L 3.72238 9.67956C 5.42403 5.10636 6.1685 0.533152 6.27486 0.00138401L 6.1685 0.00138401C 6.06214 -0.10497 0 5.95718 0 5.95718Z"/>
<path id="path57_fill" d="M 0 4.05707e-07L 2.12707 4.05707e-07L 2.12707 7.44475L 0 7.44475L 0 4.05707e-07ZM 0 9.57182L 2.12707 9.57182L 2.12707 17.0166L 0 17.0166L 0 9.57182ZM 0 19.1436L 2.12707 19.1436L 2.12707 26.5884L 0 26.5884L 0 19.1436Z"/>
<path id="path58_fill" d="M 10.9544 21.9088C 17.0044 21.9088 21.9088 17.0044 21.9088 10.9544C 21.9088 4.90446 17.0044 3.24565e-06 10.9544 3.24565e-06C 4.90446 3.24565e-06 0 4.90446 0 10.9544C 0 17.0044 4.90446 21.9088 10.9544 21.9088Z"/>
<path id="path59_fill" d="M 13.9323 27.8646C 6.27487 27.8646 -3.24565e-06 21.5898 -3.24565e-06 13.9323C -3.24565e-06 6.27486 6.27487 -1.51138e-14 13.9323 -1.51138e-14C 21.5898 -1.51138e-14 27.8646 6.27486 27.8646 13.9323C 27.8646 21.5898 21.5898 27.8646 13.9323 27.8646ZM 13.9323 5.84945C 9.46547 5.84945 5.84944 9.46547 5.84944 13.9323C 5.84944 18.3992 9.46547 22.0152 13.9323 22.0152C 18.3992 22.0152 22.0152 18.3992 22.0152 13.9323C 22.0152 9.46547 18.2928 5.84945 13.9323 5.84945Z"/>
<path id="path60_fill" d="M 10.9544 21.9088C 17.0044 21.9088 21.9088 17.0044 21.9088 10.9544C 21.9088 4.90446 17.0044 3.24565e-06 10.9544 3.24565e-06C 4.90446 3.24565e-06 -3.24565e-06 4.90446 -3.24565e-06 10.9544C -3.24565e-06 17.0044 4.90446 21.9088 10.9544 21.9088Z"/>
<path id="path61_fill" d="M 13.9323 27.8646C 6.27486 27.8646 -6.49131e-06 21.5898 -6.49131e-06 13.9323C -6.49131e-06 6.27486 6.27486 -1.51138e-14 13.9323 -1.51138e-14C 21.5898 -1.51138e-14 27.8646 6.27486 27.8646 13.9323C 27.8646 21.5898 21.5898 27.8646 13.9323 27.8646ZM 13.9323 5.84945C 9.46547 5.84945 5.84944 9.46547 5.84944 13.9323C 5.84944 18.3992 9.46547 22.0152 13.9323 22.0152C 18.3992 22.0152 22.0152 18.3992 22.0152 13.9323C 22.0152 9.46547 18.3992 5.84945 13.9323 5.84945Z"/>
<path id="path62_fill" d="M 21.2707 42.5414L 1.06354 42.5414C 0.531768 42.5414 0 42.116 0 41.4779L 0 1.06353C 0 0.531766 0.425414 -1.62283e-06 1.06354 -1.62283e-06L 21.2707 -1.62283e-06C 21.8025 -1.62283e-06 22.3343 0.425413 22.3343 1.06353L 22.3343 41.4779C 22.3343 42.116 21.9088 42.5414 21.2707 42.5414Z"/>
<path id="path63_fill" d="M 0 6.49131e-06L 0 4.25415C 0 4.78592 0.425414 5.31769 1.06354 5.31769L 21.2707 5.31769C 21.8025 5.31769 22.3343 4.89227 22.3343 4.25415L 22.3343 6.49131e-06L 0 6.49131e-06Z"/>
<path id="path64_fill" d="M 0 -1.62283e-06L 18.0801 -1.62283e-06L 18.0801 30.8425L 0 30.8425L 0 -1.62283e-06Z"/>
<path id="path65_fill" d="M 16.9102 15.634L 16.9102 -1.62283e-06L 6.49131e-06 -1.62283e-06L 16.9102 15.634Z"/>
<path id="path66_fill" d="M 0 -1.62283e-06L 7.44475 -1.62283e-06L 7.44475 1.06353L 0 1.06353L 0 -1.62283e-06Z"/>
<path id="path67_fill" d="M 0 6.49131e-06L 1.06354 6.49131e-06L 1.06354 1.06354L 0 1.06354L 0 6.49131e-06ZM 7.44475 6.49131e-06L 8.50829 6.49131e-06L 8.50829 1.06354L 7.44475 1.06354L 7.44475 6.49131e-06ZM 14.8895 6.49131e-06L 15.953 6.49131e-06L 15.953 1.06354L 14.8895 1.06354L 14.8895 6.49131e-06Z"/>
<path id="path68_fill" d="M 31.6934 40.0953L 1.29826e-05 40.0953L 1.29826e-05 -6.49131e-06L 20.739 -6.49131e-06L 31.7997 11.0608L 31.6934 40.0953Z"/>
<path id="path69_fill" d="M 34.0331 11.6989L 22.3343 6.49131e-06L 2.12707 6.49131e-06C 0.957182 6.49131e-06 0 0.957189 0 2.12708L 0 40.5207C 0 41.6906 0.957182 42.6478 2.12707 42.6478L 31.9061 42.6478C 33.076 42.6478 34.0331 41.5843 34.0331 40.5207L 34.0331 11.6989ZM 22.3343 2.87155L 31.1616 11.6989L 22.3343 11.6989L 22.3343 2.87155ZM 31.9061 40.4144L 2.12707 40.4144L 2.12707 2.12708L 20.2072 2.12708L 20.2072 11.9116C 20.2072 12.9751 21.058 13.826 22.1215 13.826L 31.9061 13.826L 31.9061 40.4144Z"/>
<path id="path70_fill" d="M 0 6.49131e-06L 18.0801 6.49131e-06L 18.0801 3.19061L 0 3.19061L 0 6.49131e-06ZM 0 5.31769L 18.0801 5.31769L 18.0801 8.50829L 0 8.50829L 0 5.31769ZM 0 10.6354L 18.0801 10.6354L 18.0801 13.826L 0 13.826L 0 10.6354Z"/>
<path id="path71_fill" d="M 5.31768 -3.24565e-06C 4.14779 1.27624 4.46686 1.27625 4.04144 2.7652L 1.80801 2.7652C 2.02072 1.80801 1.70166 1.16988 3.24565e-06 1.808L 5.31768 -3.24565e-06Z"/>
<path id="path72_fill" d="M 15.2638 3.24565e-06L 15.6892 2.44614C 15.6892 3.08426 15.2638 3.40332 14.4129 3.72238L 8.45716 5.31768C 7.18091 5.63674 5.90466 5.84945 4.62842 5.84945L 1.22511 5.84945C -0.582902 5.84945 0.0552164 4.89226 0.374277 4.67955C 1.65052 4.36049 4.84113 3.40332 7.28726 2.12707C 9.52069 0.957186 15.2638 3.24565e-06 15.2638 3.24565e-06ZM 24.942 3.08425C 23.7721 4.36049 24.0911 4.3605 23.7721 5.84945L 21.3259 5.84945C 21.645 4.89227 21.3259 4.25414 19.5179 4.89226L 24.942 3.08425Z"/>
<path id="path73_fill" d="M 9.54627 3.24565e-06C 9.54627 0.744478 10.1844 1.59531 10.1844 2.12707C 10.2907 2.7652 1.2507 5.31768 1.2507 5.31768C 1.03799 5.42404 -0.34461 5.42404 0.0808048 5.10498C 2.20788 4.1478 6.14297 1.5953 6.03661 0.425411L 9.54627 3.24565e-06Z"/>
<path id="path74_fill" d="M 15.1574 3.24565e-06L 15.6892 2.44614C 15.6892 3.08426 15.1574 3.40332 14.413 3.72238L 8.45715 5.31768C 7.18091 5.63674 5.90466 5.84945 4.62841 5.84945L 1.2251 5.84945C -0.582908 5.84945 0.0552099 4.89226 0.374271 4.67955C 1.65051 4.36049 4.84113 3.40332 7.39361 2.12707C 9.52069 0.957186 15.1574 3.24565e-06 15.1574 3.24565e-06Z"/>
<path id="path75_fill" d="M 17.9738 58.4985C 17.9738 59.243 18.6119 60.0938 18.6119 60.6256C 18.8246 61.2637 9.67817 63.8162 9.67817 63.8162C 9.46546 63.9225 8.08288 63.9225 8.50829 63.6035C 10.6354 62.6463 14.5704 60.0938 14.4641 58.9239L 17.9738 58.4985ZM 0.957179 30.9529C 0.744472 32.7609 2.23342 34.1435 3.82872 34.3562C 5.63673 34.3562 7.01934 33.08 7.23205 31.272L 10.4227 5.32169C 10.4227 2.45015 8.18922 0.00401338 5.42403 0.00401338C 2.55248 -0.10234 0.106357 1.91837 3.24565e-06 4.68356L 0.957179 30.9529Z"/>
<path id="path76_fill" d="M 17.1446 31.6087C 17.1446 32.5659 13.7413 32.8849 13.6349 31.9277L 9.27442 3.42498C 9.16807 1.61697 10.4443 0.234369 12.146 0.0216616C 13.954 -0.191046 15.3366 1.19156 15.5493 2.89321C 17.0382 11.6142 15.762 19.9098 17.1446 31.6087ZM 7.89184 31.6087C 7.89184 32.5659 4.38216 32.8849 4.38216 31.9277L 0.0216616 3.42498C -0.191046 1.61697 1.19155 0.234369 2.89321 0.0216616C 4.48851 -0.191046 6.08383 1.19156 6.29653 2.89321C 7.67913 11.6142 6.40289 19.9098 7.89184 31.6087Z"/>
<path id="path77_fill" d="M 0.957176 30.9529C 0.957176 32.7609 2.23343 34.1435 3.82874 34.3562C 5.63675 34.3562 7.01934 33.08 7.23205 31.272L 10.4227 5.32169C 10.4227 2.45015 8.29559 0.00401338 5.42404 0.00401338C 2.65885 -0.10234 0.106354 1.91837 0 4.68356L 0.957176 30.9529Z"/>
<path id="path78_fill" d="M 0 -1.62283e-06L 9.89089 -1.62283e-06L 9.89089 24.9931L 0 24.9931L 0 -1.62283e-06Z"/>
<path id="path79_fill" d="M 3.24565e-06 -1.62283e-06L 10.1036 -1.62283e-06L 10.1036 24.9931L 3.24565e-06 24.9931L 3.24565e-06 -1.62283e-06Z"/>
<path id="path80_fill" d="M 3.72238 37.5428L 16.4848 35.7348L 12.1243 23.9296L 10.6354 6.91298L 7.87017 3.50967L 6.49131e-06 -1.62283e-06L 2.76519 34.6713L 3.72238 37.5428Z"/>
<path id="path81_fill" d="M 13.5069 37.5428L 4.99862 39.0318L 4.99862 26.482L 3.24565e-06 11.0608L 1.59531 3.19061L 10.1036 -1.62283e-06L 13.5069 34.7776L 13.5069 37.5428Z"/>
<path id="path82_fill" d="M 6.38121 3.19061C 6.38121 4.99862 4.99861 6.38122 3.1906 6.38122C 1.38259 6.38122 -6.49131e-06 4.89227 -6.49131e-06 3.19061C -6.49131e-06 1.3826 1.27625 0 3.08426 0C 4.89227 0 6.1685 1.3826 6.38121 3.19061Z"/>
<path id="path83_fill" d="M 4.46685 8.72099C 2.02072 8.82735 6.49131e-06 6.80663 6.49131e-06 4.3605C 6.49131e-06 2.02072 1.91437 3.24565e-06 4.25415 3.24565e-06C 6.80664 3.24565e-06 8.721 1.91437 8.721 4.3605C 8.82735 6.80663 6.91299 8.72099 4.46685 8.72099Z"/>
<path id="path84_fill" d="M 16.0594 1.62283e-06L -3.24565e-06 0.638122L 0.212701 7.01934L 16.0594 8.82734L 16.0594 1.62283e-06Z"/>
<path id="path85_fill" d="M 6.49131e-06 1.48895L 4.99862 1.62283e-06L 5.42403 1.48895L 0.425414 3.08425L 6.49131e-06 1.48895Z"/>
<path id="path86_fill" d="M 2.11425 0.118013C 3.70955 -0.307401 5.62392 0.437077 6.15569 2.03238C 6.79381 3.62768 6.04932 5.54205 4.34766 6.18017C 2.53965 6.81829 0.838001 5.86111 0.19988 4.2658C -0.438242 2.6705 0.518944 0.756135 2.11425 0.118013Z"/>
<path id="path87_fill" d="M 6.49131e-06 1.80801L 4.14779 16.3785L 10.1036 14.145L 5.42403 -1.62283e-06L 6.49131e-06 1.80801Z"/>
<path id="path88_fill" d="M -6.49131e-06 0.425413L 6.70027 8.11413e-07L 7.5511 6.27486C 7.5511 6.27486 8.29558 14.4641 5.63674 14.5704C 2.87154 14.6768 1.48895 7.23204 1.48895 7.23204L -6.49131e-06 0.425413Z"/>
<path id="path89_fill" d="M 5.31768 8.11414e-07C 6.06216 3.40332 4.99862 5.31768 0.957179 5.42404L 3.24565e-06 1.3826C 3.24565e-06 1.48895 5.31768 8.11414e-07 5.31768 8.11414e-07Z"/>
<path id="path90_fill" d="M 1.19876 4.3605C -0.609247 3.82873 0.135235 3.40331 0.241588 3.19061C 0.454295 2.87155 2.36866 0.957182 2.36866 0.425414C 2.36866 0.319061 2.58136 0.106352 2.58136 -1.62283e-06C 3.6449 0.425413 4.81479 0.319059 5.45291 -1.62283e-06C 6.09103 0.744474 6.4101 1.5953 6.4101 2.12707C 6.4101 2.55248 6.30374 3.08425 6.30374 3.19061C 6.30374 3.82873 7.04821 3.40331 7.04821 3.40331C 7.04821 3.40331 7.89905 2.76519 8.53717 2.55249C 9.17529 3.08425 8.85623 4.78591 8.74988 5.42403C 8.53717 5.74309 8.53717 5.84945 8.53717 5.84945C 8.53717 5.84945 8.2181 8.40193 9.70705 8.9337C 7.26092 10.2099 4.28302 9.67817 2.79407 9.57182C 1.19876 9.35911 1.30512 8.72099 1.30512 8.72099C 1.30512 7.87016 1.51782 4.78591 1.19876 4.3605Z"/>
<path id="path91_fill" d="M 1.59531 8.11414e-07L 1.27625 1.48895L 1.27625 1.70166C 1.27625 2.02072 1.16989 2.65884 0.957182 3.19061C 0.957182 2.65884 0.638128 1.91437 6.49131e-06 1.06354C 0.957189 0.638122 1.59531 8.11414e-07 1.59531 8.11414e-07ZM 3.08425 3.50967C 3.61602 3.40331 3.93508 3.50967 4.04143 3.82873C 4.14778 4.14779 4.04144 4.78591 3.72238 5.42403C 3.50967 5.74309 3.40332 6.06216 3.19061 6.38122C 3.40332 5.74309 3.72238 4.04144 3.08425 3.50967Z"/>
<path id="path92_fill" d="M 6.71909 12.2234C 6.71909 12.2234 6.40004 14.6695 7.88899 15.3076L 8.10169 15.3076C 10.1224 15.0949 11.9304 14.1377 13.2067 12.5424C 13.313 12.7551 13.6321 12.7551 13.9511 12.7551C 16.3973 13.0742 18.6307 11.2662 18.7371 8.92641C 19.0561 6.48028 17.2481 4.24686 14.9083 3.9278L 14.0575 3.9278C 13.5257 3.28968 12.8876 2.43885 12.1431 1.80073C 11.2923 1.05625 10.2288 0.524483 9.05887 0.205423C 7.25086 -0.219992 5.23015 -0.00728542 3.63484 1.05625C 2.03954 0.73719 0.444233 1.90708 0.125172 3.50238C -0.193888 4.45956 0.125163 5.62945 0.763284 6.37393C 1.82682 6.79934 2.99672 6.69299 3.63484 6.37393C 4.59203 6.05487 5.23015 5.41675 5.23015 5.41675L 4.48566 9.56454C 4.48566 10.2027 5.23015 9.77725 5.23015 9.77725C 5.23015 9.77725 6.08097 9.13912 6.71909 8.92641C 7.25086 8.82006 7.56991 8.92642 7.67627 9.24548C 7.78262 9.56454 7.67628 10.2027 7.35722 10.8408C 7.14451 11.1598 7.03816 11.4789 6.82545 11.798C 6.7191 12.0107 6.71909 12.2234 6.71909 12.2234Z"/>
<path id="path93_fill" d="M 0.425411 0.638122C 0.319058 0.638122 0.319054 0.638123 0.106347 0.85083C 0.106347 0.638123 3.24565e-06 0.63812 3.24565e-06 0.531766C 3.24565e-06 0.212706 0.319058 -1.62283e-06 0.425411 -1.62283e-06C 0.744472 -1.62283e-06 0.957179 0.212706 0.957179 0.531766L 0.957179 0.85083C 0.744472 0.638123 0.638118 0.638122 0.425411 0.638122Z"/>
<path id="path94_fill" d="M 4.14779 4.78591L 6.06216 27.7583L 2.23343 11.6989L -6.49131e-06 5.10497L 1.5953 -1.62283e-06L 1.91436 1.48895L 4.14779 4.78591Z"/>
<path id="path95_fill" d="M 3.24565e-06 5.21132L 1.91437 28.1837L 3.19061 12.6561L 4.46685 4.99862L 0.957179 -3.24565e-06L 1.06354 1.27624L 3.24565e-06 5.21132Z"/>
<path id="path96_fill" d="M 1.80801 1.62283e-06L 2.23343 2.02072L 4.67955 7.97652L 0 3.29696L 1.80801 1.62283e-06Z"/>
<path id="path97_fill" d="M 2.12708 -1.62283e-06C 2.12708 -1.62283e-06 1.70165 0.106354 1.16989 0.106354C 0.850825 0.106354 0.744482 0.106352 0.531774 -1.62283e-06L 0.21271 -1.62283e-06C 3.24882e-06 -1.62283e-06 6.49131e-06 8.08244e-07 6.49131e-06 0.106354C 6.49131e-06 0.106354 3.24882e-06 0.319062 0.21271 0.319062L 0.531774 0.319062C 0.744482 0.319062 0.850825 0.319062 1.16989 0.106354C 1.70165 0.212708 2.12708 -1.62283e-06 2.12708 -1.62283e-06Z"/>
<path id="path98_fill" d="M 2.12708 -1.62283e-06C 2.12708 -1.62283e-06 1.70165 0.106354 1.16989 0.106354C 0.744472 0.319062 0.21271 0.106354 0.21271 0.106354L 6.49131e-06 0.319062C 6.49131e-06 0.425416 3.24882e-06 0.425414 0.21271 0.425414C 0.21271 0.425414 0.744472 0.425416 1.16989 0.319062C 1.70165 0.212709 2.12708 -1.62283e-06 2.12708 -1.62283e-06Z"/>
<path id="path99_fill" d="M -3.24565e-06 0.425411C -3.24565e-06 0.744472 0.212704 0.957179 0.531765 0.957179C 0.638118 0.957179 0.850829 0.638118 0.850829 0.425411C 0.850829 0.10635 0.638122 3.24565e-06 0.319061 3.24565e-06C 0.212707 3.24565e-06 -3.24565e-06 0.319057 -3.24565e-06 0.425411ZM 2.12707 7.44475C 2.12707 7.65746 2.33978 7.76381 2.65884 7.76381C 2.87154 7.76381 3.19061 7.65745 2.9779 7.33839C 2.9779 7.12569 2.87155 7.01934 2.44613 7.01934C 2.23343 7.01934 2.12707 7.12569 2.12707 7.44475ZM 4.1478 14.6768C 4.1478 14.8895 4.3605 14.9959 4.67956 14.9959C 4.89227 14.9959 5.21133 14.8895 5.21133 14.5704C 4.99863 14.3577 4.89227 14.2514 4.67956 14.2514C 4.3605 14.2514 4.1478 14.3577 4.1478 14.6768Z"/>
<path id="path100_fill" d="M 3.02275e-14 4.04143L 7.97652 2.7652L 7.97652 3.24565e-06L 8.61465 2.7652L 19.9945 1.27624L 19.9945 2.44613L 3.02275e-14 5.9558L 3.02275e-14 4.04143Z"/>
<path id="path101_fill" d="M 6.26914 4.17918C 6.90726 2.58388 5.95008 0.669511 4.14207 0.137743C 2.54676 -0.394025 0.738748 0.66951 0.100626 2.37117C -0.324788 3.96647 0.632401 5.77448 2.33406 6.19989C 4.03572 6.94437 5.73737 5.98719 6.26914 4.17918Z"/>
<path id="path102_fill" d="M 5.57265 0.16316C 3.33923 -0.474962 0.78675 0.801275 0.148629 3.24741C -0.489493 5.48083 0.999451 7.92697 3.23288 8.67145C 5.67901 9.30957 8.01879 7.82062 8.65692 5.58719C 9.29504 3.24741 8.01878 0.801281 5.57265 0.16316Z"/>
<path id="path103_fill" d="M 17.1229 12.337L -6.49131e-06 6.06215L 1.80802 1.51138e-14L 19.5691 4.04144L 17.1229 12.337Z"/>
<path id="path104_fill" d="M 1.37073 0.550193C -0.118223 1.72008 -0.437281 3.63444 0.626255 5.01704C 1.68979 6.50599 3.71051 6.82506 5.0931 5.65517C 6.58205 4.69799 6.90112 2.57091 5.73123 1.29467C 4.66769 -0.0879315 2.64697 -0.406989 1.37073 0.550193Z"/>
<path id="path105_fill" d="M 4.38926 9.58213C 1.94313 7.77412 1.51771 6.81694 0.347824 4.58351C -0.290298 3.09456 0.0287664 2.45644 0.666888 2.98821C -0.396648 1.81832 0.24147 0.435722 0.879592 1.1802C 0.666885 0.861136 0.560534 0.223012 1.19866 0.0103048C 1.51772 -0.0960488 1.83677 0.648428 1.94313 0.967489C 2.26219 0.648428 2.90032 0.648426 3.21938 1.60561C 3.6448 2.56279 4.17656 3.09456 4.17656 3.09456C 4.17656 1.92467 4.49562 1.49926 4.92103 1.81832C 5.24009 2.98821 6.19727 4.3708 6.51634 5.85975C 6.51634 6.17881 6.6227 6.39152 6.6227 6.71058L 10.9832 11.8156L 7.26081 12.7727L 4.38926 9.58213Z"/>
<path id="path106_fill" d="M 4.14778 -8.11413e-07L 0 3.29696L 0.957176 4.5732L 5.21132 1.48895L 4.14778 -8.11413e-07Z"/>
<path id="path107_fill" d="M 4.46685 1.62283e-06L 14.2514 11.4862L 9.14641 15.2086L 6.49131e-06 3.50967L 4.46685 1.62283e-06Z"/>
<path id="path108_fill" d="M 28.1837 19.3564C 31.268 20.2072 32.8633 18.7182 33.6077 16.4848C 32.8633 18.6119 30.4171 19.6754 28.2901 19.0373C 27.971 19.0373 11.9116 12.7624 11.9116 12.7624C 11.3798 12.5497 10.1036 12.2307 9.35912 11.2735L 8.72099 10.4227L 0.212704 -1.62283e-06L 0 -1.62283e-06L 9.14641 11.6989C 9.46548 12.2307 9.89089 12.5497 10.9544 12.9751"/>
<path id="path109_fill" d="M 0 4.05707e-07L 7.44475 4.05707e-07L 7.44475 1.06354L 0 1.06354L 0 4.05707e-07ZM 14.8895 4.05707e-07L 22.3343 4.05707e-07L 22.3343 1.06354L 14.8895 1.06354L 14.8895 4.05707e-07ZM 29.779 4.05707e-07L 37.2238 4.05707e-07L 37.2238 1.06354L 29.779 1.06354L 29.779 4.05707e-07ZM 0 9.57182L 7.44475 9.57182L 7.44475 10.6354L 0 10.6354L 0 9.57182ZM 29.779 9.57182L 37.2238 9.57182L 37.2238 10.6354L 29.779 10.6354L 29.779 9.57182ZM 29.779 19.1436L 37.2238 19.1436L 37.2238 20.2072L 29.779 20.2072L 29.779 19.1436ZM 0 2.12707L 7.44475 2.12707L 7.44475 3.19061L 0 3.19061L 0 2.12707ZM 29.779 2.12707L 37.2238 2.12707L 37.2238 3.19061L 29.779 3.19061L 29.779 2.12707ZM 14.8895 9.57182L 22.3343 9.57182L 22.3343 10.6354L 14.8895 10.6354L 14.8895 9.57182ZM 14.8895 19.1436L 22.3343 19.1436L 22.3343 20.2072L 14.8895 20.2072L 14.8895 19.1436ZM 0 19.1436L 7.44475 19.1436L 7.44475 20.2072L 0 20.2072L 0 19.1436ZM 14.8895 11.6989L 22.3343 11.6989L 22.3343 12.7624L 14.8895 12.7624L 14.8895 11.6989ZM 0 21.2707L 7.44475 21.2707L 7.44475 22.3343L 0 22.3343L 0 21.2707Z"/>
</defs>
</svg>
