<svg xmlns="http://www.w3.org/2000/svg" viewBox="0 0 636 300"><title>swimlane-feature-tree-with-people</title><path d="M446.45,136.3h53" fill="none" stroke="#c2c2c2" stroke-miterlimit="10" stroke-width="5"/><path d="M403.45,69.5h-20" fill="none" stroke="#c2c2c2" stroke-miterlimit="10" stroke-width="5"/><path d="M381.25,203.5l31.4,32.5,79.1-.1" fill="none" stroke="#c2c2c2" stroke-linecap="round" stroke-linejoin="round" stroke-width="5"/><path d="M403.45,99.5h25" fill="none" stroke="#c2c2c2" stroke-miterlimit="10" stroke-width="5"/><path d="M372.45,168.5h-49" fill="none" stroke="#c2c2c2" stroke-miterlimit="10" stroke-width="5"/><path d="M274.45,185.5h-100" fill="none" stroke="#c2c2c2" stroke-miterlimit="10" stroke-width="5"/><path d="M270.55,89.1l38.9-38.9" fill="none" stroke="#c2c2c2" stroke-miterlimit="10" stroke-width="5"/><path d="M226.35,136.9h-63.2" fill="none" stroke="#c2c2c2" stroke-miterlimit="10" stroke-width="5"/><path d="M226.35,87.9l-46-46" fill="none" stroke="#c2c2c2" stroke-miterlimit="10" stroke-width="5"/><path d="M270.45,98.5h-31" fill="none" stroke="#c2c2c2" stroke-miterlimit="10" stroke-width="5"/><path d="M270.45,122.5h44" fill="none" stroke="#c2c2c2" stroke-miterlimit="10" stroke-width="5"/><path d="M259.95,170V148" fill="none" stroke="#c2c2c2" stroke-miterlimit="10" stroke-width="5"/><path d="M319.75,66.9c-1.5-2.7-1.7-3.5-1.5-6,0-1.7.4-2.1.9-1.4-.5-1.7.6-2.7.9-1.7v-.3c0-.1.1-.2.2-.3a.367.367,0,0,1,.3-.1h.3c.5,0,.3.8.2,1.1.4-.2,1.2,0,1.1,1.2,0,1.1.3,1.2.3,1.2.3-.9.9-1.2,1.4-.7a34.013,34.013,0,0,0-.3,4.5,1.909,1.909,0,0,0-.3.8l2,6.8-3.9-.7Z" fill="#a88763"/><path d="M403.45,137.4l-23.8-23.8" fill="none" stroke="#c2c2c2" stroke-miterlimit="10" stroke-width="5"/><path d="M386.55,300H284.65a4.1,4.1,0,0,1-4-4,3.631,3.631,0,0,1,1.2-2.8,4.417,4.417,0,0,1,2.8-1.2h101.9a3.653,3.653,0,0,1,1.5.3,4.419,4.419,0,0,1,2.2,2.2,4.013,4.013,0,0,1,.3,1.5,3.631,3.631,0,0,1-1.2,2.8A3.949,3.949,0,0,1,386.55,300Z" fill="#b2b2b2"/><path d="M327.95,297V194.4l-57-57V35" fill="none" stroke="#c2c2c2" stroke-miterlimit="10" stroke-width="5"/><path d="M345.95,297V194.5l57-57V43" fill="none" stroke="#c2c2c2" stroke-miterlimit="10" stroke-width="5"/><path d="M364.95,297V218.9l82-82V97.8l51.1-51.2" fill="none" stroke="#c2c2c2" stroke-miterlimit="10" stroke-width="5"/><path d="M307.95,297V218.9l-82-82V42" fill="none" stroke="#c2c2c2" stroke-miterlimit="10" stroke-width="5"/><path d="M162.85,96.6l39.4,39.4" fill="none" stroke="#c2c2c2" stroke-miterlimit="10" stroke-width="5"/><path d="M403.35,48a10.3,10.3,0,1,0-10.3-10.3A10.285,10.285,0,0,0,403.35,48Z" fill="#e6e6e6" stroke="#c2c2c2" stroke-miterlimit="10" stroke-width="5.527"/><path d="M373.35,79a10.3,10.3,0,1,0-10.3-10.3A10.285,10.285,0,0,0,373.35,79Z" fill="#e6e6e6" stroke="#c2c2c2" stroke-miterlimit="10" stroke-width="5.527"/><path d="M461.75,137l27.2-27.2" fill="none" stroke="#c2c2c2" stroke-miterlimit="10" stroke-width="5"/><path d="M494.55,113.1a10.3,10.3,0,1,0-10.3-10.3A10.285,10.285,0,0,0,494.55,113.1Z" fill="#e6e6e6" stroke="#c2c2c2" stroke-miterlimit="10" stroke-width="5.527"/><path d="M157.55,100.6a10.3,10.3,0,1,0-10.3-10.3A10.285,10.285,0,0,0,157.55,100.6Z" fill="#e6e6e6" stroke="#c2c2c2" stroke-miterlimit="10" stroke-width="5"/><path d="M226.35,44a10.3,10.3,0,1,0-10.3-10.3A10.285,10.285,0,0,0,226.35,44Z" fill="#e6e6e6" stroke="#c2c2c2" stroke-miterlimit="10" stroke-width="5.527"/><path d="M313.05,133.2a10.3,10.3,0,1,0-10.3-10.3A10.285,10.285,0,0,0,313.05,133.2Z" fill="#e6e6e6" stroke="#c2c2c2" stroke-miterlimit="10" stroke-width="5.527"/><path d="M270.45,33.8a10.3,10.3,0,1,0-10.3-10.3A10.285,10.285,0,0,0,270.45,33.8Z" fill="#e6e6e6" stroke="#c2c2c2" stroke-miterlimit="10" stroke-width="5.527"/><path d="M260.05,147.8a10.3,10.3,0,1,0-10.3-10.3A10.285,10.285,0,0,0,260.05,147.8Z" fill="#e6e6e6" stroke="#c2c2c2" stroke-miterlimit="10" stroke-width="5.527"/><path d="M231.15,108.8a10.3,10.3,0,1,0-10.3-10.3A10.285,10.285,0,0,0,231.15,108.8Z" fill="#e6e6e6" stroke="#c2c2c2" stroke-miterlimit="10" stroke-width="5.527"/><path d="M380.95,125.8a10.3,10.3,0,1,0-10.3-10.3A10.285,10.285,0,0,0,380.95,125.8Z" fill="#e6e6e6" stroke="#c2c2c2" stroke-miterlimit="10" stroke-width="5.527"/><path d="M353.75,164.6c-1.1,1.2-.8,1.2-1.2,2.6h-2.1c.2-.9-.1-1.5-1.7-.9Z" fill="#0d520d"/><path d="M353.45,161.7l.4,2.3c0,.6-.4.9-1.2,1.2l-5.6,1.5a22.264,22.264,0,0,1-3.6.5h-3.2c-1.7,0-1.1-.9-.8-1.1a39.12,39.12,0,0,0,6.5-2.4C348.05,162.6,353.45,161.7,353.45,161.7Z" fill="#737373"/><path d="M362.45,164.6c-1.1,1.2-.8,1.2-1.1,2.6h-2.3c.3-.9,0-1.5-1.7-.9Z" fill="#737373"/><path d="M352.85,159.7c0,.7.6,1.5.6,2,.1.6-8.4,3-8.4,3-.2.1-1.5.1-1.1-.2,2-.9,5.7-3.3,5.6-4.4Z" fill="#a88763"/><path d="M362.15,161.7l.5,2.3c0,.6-.5.9-1.2,1.2l-5.6,1.5a22.264,22.264,0,0,1-3.6.5h-3.2c-1.7,0-1.1-.9-.8-1.1a37.087,37.087,0,0,0,6.6-2.4C356.95,162.6,362.15,161.7,362.15,161.7Z" fill="#737373"/><path d="M361.55,159.7c0,.7.6,1.5.6,2,.2.6-8.4,3-8.4,3-.2.1-1.5.1-1.1-.2,2-.9,5.7-3.3,5.6-4.4Z" fill="#a88763"/><path d="M345.65,133.8a3.139,3.139,0,0,0,.7,2.1,2.61,2.61,0,0,0,2,1,3.5,3.5,0,0,0,2.2-.8,2.814,2.814,0,0,0,1-2.1l3-24.4a4.675,4.675,0,0,0-1.3-3.4,4.859,4.859,0,0,0-3.4-1.5,3.591,3.591,0,0,0-1.8.2,5.071,5.071,0,0,0-1.6.9,4.428,4.428,0,0,0-1.2,1.5,4.075,4.075,0,0,0-.5,1.8Z" fill="#a88763"/><path d="M361.75,160.8c0,.9-3.2,1.2-3.3.3l-4.1-26.8a3.139,3.139,0,0,1,.7-2.1,2.975,2.975,0,0,1,2-1,2.7,2.7,0,0,1,2.1.7,2.61,2.61,0,0,1,1,2C361.55,142,360.35,149.8,361.75,160.8Z" fill="#a88763"/><path d="M352.95,160.8c0,.9-3.3,1.2-3.3.3l-4.1-26.8a3.75,3.75,0,0,1,.1-1.1,2.075,2.075,0,0,1,.6-1,5.5,5.5,0,0,1,.9-.7,2.016,2.016,0,0,1,1.1-.3,2.7,2.7,0,0,1,2.1.7,2.61,2.61,0,0,1,1,2C352.85,142,351.65,149.8,352.95,160.8Z" fill="#a88763"/><path d="M354.35,133.8a4.869,4.869,0,0,0,.1,1.2,2.075,2.075,0,0,0,.6,1,5.5,5.5,0,0,0,.9.7,2.279,2.279,0,0,0,1.1.3,2.537,2.537,0,0,0,1.2-.2,2.075,2.075,0,0,0,1-.6,5.5,5.5,0,0,0,.7-.9,4.508,4.508,0,0,0,.3-1.1l3-24.4a6.279,6.279,0,0,0-.3-1.9,5.372,5.372,0,0,0-1-1.6,5.273,5.273,0,0,0-1.5-1.1,3.922,3.922,0,0,0-1.8-.4,4.228,4.228,0,0,0-3.4,1.2,4.638,4.638,0,0,0-1.7,3.2Z" fill="#a88763"/><path d="M353.75,108.5h-9.3V132h9.3Z" fill="#2488d8"/><path d="M363.25,108.5h-9.5V132h9.5Z" fill="#2488d8"/><path d="M352.55,111.8l12-1.7L360.35,99l-1.4-16-2.6-3.2-7.4-3.3,2.6,32.5Z" fill="#2488d8"/><path d="M351.95,111.8l-8,1.4V101.4l-4.7-14.5,1.5-7.4,8-3,3.2,32.7Z" fill="#2488d8"/><path d="M329.75,82.9a5.019,5.019,0,0,1-.2,1.2,3.328,3.328,0,0,1-.6,1,3.592,3.592,0,0,1-1,.7,2.537,2.537,0,0,1-1.2.2,5.019,5.019,0,0,1-1.2-.2,3.592,3.592,0,0,1-1-.7,2.075,2.075,0,0,1-.6-1,5.019,5.019,0,0,1-.2-1.2,1.978,1.978,0,0,1,.2-1.1,2.075,2.075,0,0,1,.6-1,5.5,5.5,0,0,1,.9-.7,2.153,2.153,0,0,1,1.1-.2,3.1,3.1,0,0,1,2.2.9A2.814,2.814,0,0,1,329.75,82.9Z" fill="#0d520d"/><path d="M341.65,79.3l-15.1.6.2,6,14.9,1.7Z" fill="#2488d8"/><path d="M319.55,68.7l4.7-1.3.4,1.4-4.7,1.5Z" fill="#3b930f"/><path d="M325.75,80a2.833,2.833,0,0,1,2.2.2,3.14,3.14,0,0,1,1.5,1.7,2.537,2.537,0,0,1,.2,1.2,5.019,5.019,0,0,1-.2,1.2,3.592,3.592,0,0,1-.7,1,2.075,2.075,0,0,1-1,.6,5.019,5.019,0,0,1-1.2.2,2.663,2.663,0,0,1-1.2-.3,3.592,3.592,0,0,1-1-.7,2.075,2.075,0,0,1-.6-1,3.038,3.038,0,0,1,.1-2.3A3.667,3.667,0,0,1,325.75,80Z" fill="#2488d8"/><path d="M320.05,70.2l3.9,13.7,5.6-2.1-4.4-13.3Z" fill="#2488d8"/><path d="M344.85,72.5l6.3-.4.8,5.9s.7,7.7-1.8,7.8c-2.6.2-3.9-6.9-3.9-6.9Z" fill="#a88763"/><path d="M349.65,71.1c.7,3.2-.3,5-4.1,5.1l-.9-3.8Z" fill="#936f51"/><path d="M342.55,70.1c-1.7-.5-1.1-.9-.9-1.1.2-.3,2-2.1,2-2.6,0-.1.2-.3.2-.4a3.194,3.194,0,0,0,1.4.3,3.529,3.529,0,0,0,1.4-.3,3.373,3.373,0,0,1,.9,2c0,.4-.1.7-.1,1,0,.6.7.2.7.2a6.376,6.376,0,0,1,1.4-.8c.6.5.3,2.1.2,2.7-.1.1-.1.3-.2.4,0,0-.3,2.4,1.1,2.9-2.3,1.2-5.1.7-6.5.6-1.5-.2-1.4-.8-1.4-.8C342.75,73.4,342.85,70.5,342.55,70.1Z" fill="#a88763"/><path d="M348.05,65.1l-.3,1.4v.2a3.529,3.529,0,0,1-.3,1.4,4.025,4.025,0,0,0-.9-2A13.029,13.029,0,0,0,348.05,65.1Z" fill="#936f51"/><path d="M349.35,68.4a.454.454,0,0,1,.5,0,1.38,1.38,0,0,1,.4.3,1.971,1.971,0,0,1-.3,1.5c-.2.3-.3.6-.5.9C349.65,70.5,349.95,68.9,349.35,68.4Z" fill="#936f51"/><path d="M349.35,71.6s-.3,2.3,1.1,2.9h.2a9.239,9.239,0,0,0,2.7-.8,5.2,5.2,0,0,0,2.1-1.8c.1.2.4.2.7.2a4.329,4.329,0,0,0,1.6-.1,3.694,3.694,0,0,0,1.4-.7,3.775,3.775,0,0,0,1-1.2,4.424,4.424,0,0,0,.5-1.5,4.831,4.831,0,0,0-.8-3.1,4.049,4.049,0,0,0-2.8-1.6h-.8a11.233,11.233,0,0,0-1.8-2,7.3,7.3,0,0,0-2.9-1.5,6.89,6.89,0,0,0-5.1.8,2.673,2.673,0,0,0-2.1.5,3.218,3.218,0,0,0-1.2,1.8,3.3,3.3,0,0,0,0,1.4,3.1,3.1,0,0,0,.6,1.3,3.194,3.194,0,0,0,1.4.3,3.529,3.529,0,0,0,1.4-.3,3.766,3.766,0,0,0,1.5-.9l-.7,3.9c0,.6.7.2.7.2a6.376,6.376,0,0,1,1.4-.8.454.454,0,0,1,.5,0,1.38,1.38,0,0,1,.4.3,1.971,1.971,0,0,1-.3,1.5c-.2.3-.3.6-.5.9C349.45,71.3,349.35,71.4,349.35,71.6Z" fill="#72594b"/><path d="M345.15,68.1c-.1,0-.1,0-.3.2,0-.2-.1-.2-.1-.3s.1-.2.1-.3a.367.367,0,0,1,.3-.1h.2c.1,0,.1.1.2.1a.349.349,0,0,1,.1.2v.5c-.1-.1-.1-.1-.2-.1C345.35,68.1,345.25,68.1,345.15,68.1Z"/><path d="M349.65,83l1.8,21.6-3.6-15.1-2.1-6.2,1.5-4.8.3,1.4Z" fill="#106ebe"/><path d="M349.65,83l1.8,21.6,1.2-14.6,1.2-7.2-3.3-4.7.1,1.2Z" fill="#b3d6f2"/><path d="M351.65,75.8l.4,1.9,2.3,5.6-4.4-4.4Z" fill="#936f51"/><path d="M344.55,72a2.769,2.769,0,0,1-.9.1,1.083,1.083,0,0,1-.6-.1h-.3c-.2,0-.2,0-.2.1v.2h.5a.735.735,0,0,0,.6-.2A1.412,1.412,0,0,0,344.55,72Z" fill="#8a0000"/><path d="M344.55,72a2.769,2.769,0,0,1-.9.1,1.387,1.387,0,0,1-.9,0l-.2.2c0,.1,0,.1.2.1.3,0,.6-.1.9-.1A4,4,0,0,0,344.55,72Z" fill="#8a0000"/><path d="M347.15,91.6v.2c0,.1.1.1.1.2a.349.349,0,0,0,.2.1h.2c.1,0,.3-.3.3-.5v-.2c0-.1-.1-.1-.1-.2a.349.349,0,0,0-.2-.1h-.2A.683.683,0,0,0,347.15,91.6Z" fill="#0d520d"/><path d="M349.05,98.2c0,.2.2.3.5.3.2,0,.5-.1.3-.4,0-.2-.1-.3-.5-.3C349.25,97.8,349.05,97.9,349.05,98.2Z" fill="#0d520d"/><path d="M351.05,105c0,.2.2.3.5.3.1,0,.2-.1.3-.1a.367.367,0,0,0,.1-.3c-.2-.2-.3-.3-.5-.3h-.2c-.1,0-.1.1-.2.1a.349.349,0,0,0-.1.2A.1.1,0,0,1,351.05,105Z" fill="#0d520d"/><path d="M344.45,113l7.5-1.2v-2.6l.6,2.6,10.7-1.4v1.1l-18.8,3.3Z" fill="#106ebe"/><path d="M341.35,79.7a5.019,5.019,0,0,0,.2-1.2,2.016,2.016,0,0,0-.3-1.1,1.765,1.765,0,0,0-.8-.9,3.7,3.7,0,0,0-1.1-.5,3.064,3.064,0,0,0-2.3.3,3.353,3.353,0,0,0-1.5,1.8,4.869,4.869,0,0,0-.1,1.2,3.582,3.582,0,0,0,.4,1.1,6.47,6.47,0,0,0,.8.9,4.671,4.671,0,0,0,1,.5,5.16,5.16,0,0,0,1.1.2,2.279,2.279,0,0,0,1.1-.3,3.24,3.24,0,0,0,.9-.8A1.935,1.935,0,0,0,341.35,79.7Z" fill="#0d520d"/><path d="M237.25,78.8h-20.1a.684.684,0,0,0-.7.7V118a.367.367,0,0,0,.1.3.215.215,0,0,0,.2.2l.2.2c.1,0,.2.1.3.1h30.5a.684.684,0,0,0,.7-.7l.1-28.1Z" fill="#e26c41"/><path d="M248.45,89.8l-11-11V89.1a.367.367,0,0,0,.1.3.215.215,0,0,0,.2.2l.2.2c.1,0,.2.1.3.1Z" fill="#ffa940"/><path d="M243.45,94.8h-22v2h22Z" fill="#ffa940"/><path d="M243.45,99.8h-22v2h22Z" fill="#ffa940"/><path d="M243.45,104.8h-22v2h22Z" fill="#ffa940"/><path d="M335.35,46.4a19.868,19.868,0,0,0-8.9-16.5,19.832,19.832,0,0,0-18.7-1.7,20.147,20.147,0,0,0-7.7,5.8,20.739,20.739,0,0,0-4,8.8,20.013,20.013,0,0,0,.6,9.7,20.65,20.65,0,0,0,5.1,8.2,17.547,17.547,0,0,1,4,6,19.514,19.514,0,0,1,1.4,7.1v.4h16.7v-.4a17.872,17.872,0,0,1,1.5-7.2,18.485,18.485,0,0,1,4.2-6.1,20.03,20.03,0,0,0,4.3-6.4A20.686,20.686,0,0,0,335.35,46.4Z" fill="#ffa940"/><path d="M332.85,56.1a20.58,20.58,0,0,0,2.4-12.4,20.261,20.261,0,0,0-5.6-11.3,19.64,19.64,0,0,0-11.3-5.6,19.23,19.23,0,0,0-12.4,2.4Z" fill="#ffb900"/><path d="M312.95,50.6l-.1-1.6-.1-3.6a3.8,3.8,0,1,0-7.6,0v.2a3.7,3.7,0,0,0,.6,2.1,3.907,3.907,0,0,0,1.7,1.4h.1a24.011,24.011,0,0,0,3.8,1.2l1,28.7,1.5-.1Zm-4.7-2.8a2.012,2.012,0,0,1-1.1-.9,2.836,2.836,0,0,1-.4-1.3v-.2a2.92,2.92,0,0,1,.2-.9,1.794,1.794,0,0,1,.5-.7,3.039,3.039,0,0,1,.7-.5,2.125,2.125,0,0,1,1.8,0,1.794,1.794,0,0,1,.7.5,3.039,3.039,0,0,1,.5.7,2.92,2.92,0,0,1,.2.9l.1,3.3A14.963,14.963,0,0,1,308.25,47.8Z" fill="#fff"/><path d="M322.15,41.7a3.693,3.693,0,0,0-2.7,1.1,3.864,3.864,0,0,0-1.1,2.7l-.1,3.6a19.673,19.673,0,0,1-4.2.1l.1,1.5a18.751,18.751,0,0,0,4.1-.1l-1,28.4,1.5.1,1-28.7.1-1.6.1-3.3a1.99,1.99,0,0,1,.7-1.6,2.36,2.36,0,0,1,1.6-.7h.1a1.99,1.99,0,0,1,1.6.7,2.36,2.36,0,0,1,.7,1.6v.2a2.2,2.2,0,0,1-.4,1.3,1.589,1.589,0,0,1-1,.8,15.872,15.872,0,0,1-2,.7l-.1,1.6a14.262,14.262,0,0,0,2.7-.9,3.689,3.689,0,0,0,2.3-3.5v-.2a3.864,3.864,0,0,0-1.1-2.7A4.771,4.771,0,0,0,322.15,41.7Z" fill="#fff"/><path d="M307.25,73.7v9.4a2.92,2.92,0,0,0,.2.9,2.1,2.1,0,0,0,1.3,1.3,2.92,2.92,0,0,0,.9.2h3.4v2.2h5.1V85.5h3.4a2.92,2.92,0,0,0,.9-.2,2.1,2.1,0,0,0,1.3-1.3,2.959,2.959,0,0,0,.2-1V73.6h-16.7Z" fill="#e26c41"/><path d="M320.45,76.4h-13.2v1.9h13.3V76.4Z" fill="#737373"/><path d="M320.45,80.6h-13.2v1.9h13.3V80.6Z" fill="#737373"/><path d="M328.15,68a10.348,10.348,0,0,1-3.8-4.7c-.6-1.4-.3-2,.3-1.5-1-1.1-.4-2.4.2-1.7a.691.691,0,0,1,.3-1.1c.3-.1.6.6.8.9.3-.3.9-.3,1.2.6a4.2,4.2,0,0,0,.9,1.4c0-1.1.3-1.5.7-1.2.3,1.1,1.2,2.4,1.5,3.8,0,.3.1.5.1.8l4.1,4.8-3.5.9Z" fill="#a88763"/><path d="M330.85,65.2l-3.9,3.1.9,1.2,4-2.9Z" fill="#b3d6f2"/><path d="M356.15,79.7l-16.1-3.6-8.3-9.8-4.2,3.3,8.6,11a3.45,3.45,0,0,0,.9.8,5.638,5.638,0,0,0,1.2.4l14.7,5.4a3.128,3.128,0,0,0,1,.5,4.128,4.128,0,0,0,3.1-.4,3.881,3.881,0,0,0,2-2.5,2.917,2.917,0,0,0,.1-1.6,4.939,4.939,0,0,0-.5-1.6,3.179,3.179,0,0,0-1.1-1.2A3.694,3.694,0,0,0,356.15,79.7Z" fill="#2488d8"/><path d="M353.85,87.7c2.9.8,4.4-.6,5.1-2.7a4.73,4.73,0,0,1-2,2.2,4.858,4.858,0,0,1-2.9.3c-.3,0-15.4-5.9-15.4-5.9a4.523,4.523,0,0,1-2.4-1.4l-.6-.8-8-9.8h-.2l8.6,11a3.528,3.528,0,0,0,1.7,1.2" fill="#b3d6f2"/><path d="M175.15,52.7a16,16,0,1,0-16-16A15.983,15.983,0,0,0,175.15,52.7Z" fill="#b3d6f2"/><path d="M141.25,69.3l1.6,1.6a2.6,2.6,0,0,0,1.6.9,2.383,2.383,0,0,0,1.8-.5L164.55,53a2.383,2.383,0,0,0,.5-1.8,2.6,2.6,0,0,0-.9-1.6l-1.6-1.6a2.6,2.6,0,0,0-1.6-.9,2.383,2.383,0,0,0-1.8.5l-18.3,18.3a2.273,2.273,0,0,0-.5,1.8A2.6,2.6,0,0,0,141.25,69.3Z" fill="#505050"/><path d="M164.35,49.7a2.33,2.33,0,0,1,.7,1.5,2.767,2.767,0,0,1-.5,1.6l-18.3,18.3a2.271,2.271,0,0,1-1.6.6,2.452,2.452,0,0,1-1.6-.6" fill="#282828"/><path d="M154.35,52.5l4.8-4.9,5.4,5.3-4.8,4.9Z" fill="#939393"/><path d="M159.15,47.5l3.7,3.7-4.8,4.9-3.8-3.7Z" fill="#d2d2d2"/><path d="M161.95,47.3a17.084,17.084,0,0,0,18,5.4,17.585,17.585,0,0,0,8.2-5.5,16.835,16.835,0,0,0,1.7-18.7,16.085,16.085,0,0,0-7-6.9,17.007,17.007,0,0,0-18.8,1.9,18.776,18.776,0,0,0-4.2,5.1,17.677,17.677,0,0,0-1.9,6.3,16.385,16.385,0,0,0,.7,6.6A23.587,23.587,0,0,0,161.95,47.3Zm1.7-1.3a14.624,14.624,0,0,1-3.3-8,14.921,14.921,0,0,1,7.8-14.6,14.677,14.677,0,0,1,8.5-1.7,14.936,14.936,0,0,1,8,3.3,14.183,14.183,0,0,1,4.8,7.2,14.034,14.034,0,0,1,0,8.6,14.612,14.612,0,0,1-4.8,7.2,14.808,14.808,0,0,1-10.9,3.3A15.021,15.021,0,0,1,163.65,46Z" fill="#505050"/><path d="M174.95,24.1l-.6-.8a13.942,13.942,0,0,0-6.8,2.4,13.625,13.625,0,0,0-4.6,5.5l.7.8C165.65,27.5,169.55,24.9,174.95,24.1Z" fill="#fff"/><path d="M298.05,192.8a1.845,1.845,0,0,1-1.2-.5,1.656,1.656,0,0,1-.5-1.2V146.4a1.952,1.952,0,0,1,.1-.7,2.092,2.092,0,0,1,.4-.6,1.275,1.275,0,0,1,.6-.4,1.483,1.483,0,0,1,.7-.1,1.952,1.952,0,0,1,.7.1,1.838,1.838,0,0,1,1,1,1.483,1.483,0,0,1,.1.7v44.8a1.268,1.268,0,0,1-.1.6,1,1,0,0,1-.4.5,1.756,1.756,0,0,1-.5.4A3.869,3.869,0,0,1,298.05,192.8Z" fill="#c2c2c2"/><path d="M305.65,192.8a1.845,1.845,0,0,1-1.2-.5,1.656,1.656,0,0,1-.5-1.2V146.4a1.845,1.845,0,0,1,.5-1.2,1.7,1.7,0,0,1,2.9,1.2v44.8a1.845,1.845,0,0,1-.5,1.2A1.746,1.746,0,0,1,305.65,192.8Z" fill="#c2c2c2"/><path d="M313.25,192.8a1.845,1.845,0,0,1-1.2-.5,1.656,1.656,0,0,1-.5-1.2V146.4a1.952,1.952,0,0,1,.1-.7,2.092,2.092,0,0,1,.4-.6,1.275,1.275,0,0,1,.6-.4,1.483,1.483,0,0,1,.7-.1,1.952,1.952,0,0,1,.7.1,1.838,1.838,0,0,1,1,1,1.483,1.483,0,0,1,.1.7v44.8a1.268,1.268,0,0,1-.1.6,1,1,0,0,1-.4.5,1.756,1.756,0,0,1-.5.4A3.869,3.869,0,0,1,313.25,192.8Z" fill="#c2c2c2"/><path d="M320.85,192.8a1.845,1.845,0,0,1-1.2-.5,1.656,1.656,0,0,1-.5-1.2V146.4a1.952,1.952,0,0,1,.1-.7,2.092,2.092,0,0,1,.4-.6,1.275,1.275,0,0,1,.6-.4,1.483,1.483,0,0,1,.7-.1,1.952,1.952,0,0,1,.7.1,1.838,1.838,0,0,1,1,1,1.483,1.483,0,0,1,.1.7v44.8a1.845,1.845,0,0,1-.5,1.2A2.735,2.735,0,0,1,320.85,192.8Z" fill="#c2c2c2"/><path d="M284.55,157.4a1.845,1.845,0,0,1,.5-1.2,1.656,1.656,0,0,1,1.2-.5h45.6a1.845,1.845,0,0,1,1.2.5,1.656,1.656,0,0,1,.5,1.2,1.845,1.845,0,0,1-.5,1.2,1.656,1.656,0,0,1-1.2.5h-45.6a1.845,1.845,0,0,1-1.2-.5A1.584,1.584,0,0,1,284.55,157.4Z" fill="#c2c2c2"/><path d="M284.55,165a1.845,1.845,0,0,1,.5-1.2,1.656,1.656,0,0,1,1.2-.5h45.6a1.845,1.845,0,0,1,1.2.5,1.656,1.656,0,0,1,.5,1.2,1.845,1.845,0,0,1-.5,1.2,1.656,1.656,0,0,1-1.2.5h-45.6a1.845,1.845,0,0,1-1.2-.5A1.584,1.584,0,0,1,284.55,165Z" fill="#c2c2c2"/><path d="M284.55,172.6a1.845,1.845,0,0,1,.5-1.2,1.656,1.656,0,0,1,1.2-.5h45.6a1.845,1.845,0,0,1,1.2.5,1.656,1.656,0,0,1,.5,1.2,1.845,1.845,0,0,1-.5,1.2,1.656,1.656,0,0,1-1.2.5h-45.6a1.845,1.845,0,0,1-1.2-.5A1.584,1.584,0,0,1,284.55,172.6Z" fill="#c2c2c2"/><path d="M284.55,180.2a1.845,1.845,0,0,1,.5-1.2,1.656,1.656,0,0,1,1.2-.5h45.6a1.845,1.845,0,0,1,1.2.5,1.7,1.7,0,0,1-1.2,2.9h-45.6a1.845,1.845,0,0,1-1.2-.5A1.457,1.457,0,0,1,284.55,180.2Z" fill="#c2c2c2"/><path d="M327.55,149.8h-38v38h38Z" fill="#737373"/><path d="M317.45,157.4h-19.4v19.4h19.4Z" fill="#ffa940"/><path d="M317.45,160.7h-16.1v16.1h16.1Z" fill="#e26c41"/><path d="M325.95,149.8v35.5h-35.5v2.5h38v-38Z" fill="#505050"/><path d="M525.75,30.5h-43v23h43Z" fill="#505050"/><path d="M526.55,18.3h-43.6a3.159,3.159,0,0,0-3.2,3.2v7.4a3.159,3.159,0,0,0,3.2,3.2h43.6a3.159,3.159,0,0,0,3.2-3.2V21.5A3.222,3.222,0,0,0,526.55,18.3Z" fill="#737373"/><path d="M525.05,21.5h-9.2v1.7h9.2Z" fill="#e26c41"/><path d="M526.55,34.6h-43.6a3.159,3.159,0,0,0-3.2,3.2v7.4a3.159,3.159,0,0,0,3.2,3.2h43.6a3.159,3.159,0,0,0,3.2-3.2V37.8A3.222,3.222,0,0,0,526.55,34.6Z" fill="#737373"/><path d="M525.05,37.9h-9.2v1.7h9.2Z" fill="#e26c41"/><path d="M526.55,51h-43.6a3.159,3.159,0,0,0-3.2,3.2v7.4a3.159,3.159,0,0,0,3.2,3.2h43.6a3.159,3.159,0,0,0,3.2-3.2V54.2A3.159,3.159,0,0,0,526.55,51Z" fill="#737373"/><path d="M525.05,54.2h-9.2v1.7h9.2Z" fill="#e26c41"/><path d="M501.35,50.3a19.159,19.159,0,0,0-5.9-12.7,18.541,18.541,0,0,0-13-5.1,19.139,19.139,0,0,0-18.6,14.9,13.255,13.255,0,0,0-5.7-3.9,13.543,13.543,0,0,0-6.9-.7,13.818,13.818,0,0,0-6.4,2.6,14.013,14.013,0,0,0-5.5,12.2,14.385,14.385,0,0,0,2.2,6.6,13.543,13.543,0,0,0,5.1,4.7,14.487,14.487,0,0,0,6.7,1.7h47.3a10.078,10.078,0,0,0,10.1-9.7,10.455,10.455,0,0,0-9.4-10.6Z" fill="#b3d6f2"/><path d="M167.45,150.8V109.6a1.656,1.656,0,0,0-.5-1.2,1.845,1.845,0,0,0-1.2-.5h-60.6a1.656,1.656,0,0,0-1.2.5,1.845,1.845,0,0,0-.5,1.2v41.3h64Z" fill="#505050"/><path d="M164.45,110.8h-58v37h58Z" fill="#939393"/><path d="M172.15,152.8h-74c-2.5.1-2.9-3.3-2.9-3h79.8C175.05,149.6,174.05,153,172.15,152.8Z" fill="#505050"/><path d="M135.45,108.8h-1v1h1Z" fill="#5d5f5e"/><path d="M164.45,110.8h-26.7l26.6,24.9V110.8Z" fill="#b2b2b2"/><path d="M256.35,298.2v-.3a2.388,2.388,0,0,0-1.5-2.2l-2-.8-1.4-1.1a7.545,7.545,0,0,1-2.1-2.6l-1.7-1a6.4,6.4,0,0,1-3.2,0l-.5,2.2-.4,3.5.5,2.4Z"/><path d="M189.55,212.8l-.5-.6a1.546,1.546,0,0,1,2,.3l.1.2-.7-1.9a1.411,1.411,0,0,1,1.5.8l.3.8,2.2.4.1-.1a1.482,1.482,0,0,0,.8-1.2.265.265,0,0,0-.3-.3h-1.5a.645.645,0,0,1-.6-.6.472.472,0,0,1,.5-.5l3-.2a12.255,12.255,0,0,1,4.6,1.9l1.8.7-1.6,3.5-4.4-1.8-3.7.9-2.5-.7-.3-.4-1.7-.3A1.591,1.591,0,0,1,189.55,212.8Z" fill="#bb9167"/><path d="M201.95,211.7l-1.4-.5-1.7,4.9,1.4.5Z" fill="#fff"/><path d="M230.35,291.2l1,4.4-.2,2.5h-4.4l-.8-1.3-4.4,1.3h-6.8v-.3a2.622,2.622,0,0,1,1.6-2.3l3.5-1a3.976,3.976,0,0,0,2.2-1.6l2-3.1c1.3-2.3,2.1-.4,4.1-1.2Z"/><path d="M247.05,242.9l1.8,27.3,2.2,20.4c-1.9,1.1-7.7,1.2-7.7,1.2l-3.4-19.5c-1-2.8-5.8-19-5.8-19l-1.6,14.3s-1.1,24.4-1.2,24.7c-3.3.5-7.8-2.7-7.8-2.7l-.5-23.1c-.1-2.4.2-26.4.2-26.4l19-9.2Z" fill="#737373"/><path d="M241.55,203.3l-.9,2.3-.6-2.4Z" fill="#ab845f"/><path d="M262.35,236.6l1.7.3,2.3,1.6,3.4.4,2.5,1.4-.1.2a1.056,1.056,0,0,1-1.5.5l-1-.7-1.3.7,1,2.4,1.1,2.7a.74.74,0,0,1-.4.9.67.67,0,0,1-.8-.3l-1.3-2.3,1.1,3a.807.807,0,0,1-.4.9.63.63,0,0,1-.8-.3l-1.5-3.3.6,2.5a.569.569,0,0,1-.4.7.68.68,0,0,1-.8-.4l-.8-2.4.1,1.6a.472.472,0,0,1-.5.5c-.2,0-.5-.1-.5-.4l-.6-2.4-.9-.7a5,5,0,0,1-1.8-2.7l-.7-2.4Z" fill="#bb9167"/><path d="M264.15,236.5l.9.9-4.6,3.4-.8-1.5Z" fill="#fff"/><path d="M227.95,215.3l-8.8,5.6a7.457,7.457,0,0,1-6,.8l-13.2-4.4,1.9-5.6,13.4,4.2s5.8-6,8.5-8.5,7.9-2.6,7.9-2.6Z" fill="#737373"/><path d="M227.65,206l4.2-.3,5.1-1.8,11.2,2.6a5.721,5.721,0,0,1,4.2,3.9l4,14,8.5,11.9-5.2,3.7-8.1-11-3-7-.4,4.3a44.483,44.483,0,0,0,0,7.3l.9,8.4-2,.9c-8,2-16.4,2.7-24.7-2.5l2.3-11.2a31.662,31.662,0,0,0,.6-7.5l-.1-5.2a2.768,2.768,0,0,1,.3-1.3C226.25,213.4,227.65,206,227.65,206Z" fill="#737373"/><path d="M232.75,203.2l-.2-1.7,8.4-.7v2.5l-5,1.8Z" fill="#ab845f"/><path d="M232.75,205.3l-.2-2.5s2.9,1.5,8.5-.6l.2,2.6h.1l-5.6,17.3-3.4-16.7Z" fill="#fff"/><path d="M228.75,208.4l2.2-1.7-1.9-.6,3.5-2.9.2,2,2.8,15.9,5.7-16.9-.1-1.5,4.3,4.1-2.7.3,2.8,1.8-.4.9a43.718,43.718,0,0,1-10.3,13.5l.6-1.7a32,32,0,0,1-6.5-12.7Z" fill="#939393"/><path d="M235.95,203.3l2.4,3.2-2-1.7-1.3.7Z" fill="#e6e6e6"/><path d="M235.05,205.5l-.7-.4-1.3,1.6,1.5-3.4Z" fill="#e6e6e6"/><path d="M234.55,203.3l-1.7,3.8a5.8,5.8,0,0,1-.3-4.1l.1-.2.8.9Z" fill="#fff"/><path d="M236.35,206.4a.5.5,0,1,1-.5-.5A.472.472,0,0,1,236.35,206.4Z" fill="#e6e6e6"/><path d="M235.75,213.1a.453.453,0,1,1-.5.4C235.25,213.2,235.55,213.1,235.75,213.1Z" fill="#e6e6e6"/><path d="M247.25,245.6l-1.8.7a29.326,29.326,0,0,1-8.3,1.8l-2.1.2-1.7-4-2.2,2.5c-4.5-.5-7.8-4.3-7.8-4.3l.1-1.4,1.6.9a16.368,16.368,0,0,0,6.8,2.1l2.7-5.9,1.8,6.8h.8a22.1,22.1,0,0,0,10.1-2.1Z" fill="#505050"/><path d="M235.95,237a.8.8,0,1,0,.8-.8C236.25,236.1,235.95,236.5,235.95,237Z" fill="#505050"/><path d="M235.45,203a6.872,6.872,0,0,0,7.6-6.1l.4-3.7a6.891,6.891,0,0,0-13.7-1.5l-.4,3.7A6.928,6.928,0,0,0,235.45,203Z" fill="#bb9167"/><path d="M233.35,202.4a6.991,6.991,0,0,1-4-7l.3-2.5.5-.1a3.593,3.593,0,0,1,2.5.1,1.267,1.267,0,0,1,.6,1.8l-.9,1.3a.965.965,0,0,0,.4,1.5l.8.3-.6,2.2a2.292,2.292,0,0,0,.2,1.8Z" fill="#ab845f"/><path d="M233.05,201.1l.2-.7.9.2.2.9a.752.752,0,0,0,.7.5h1.1a4.552,4.552,0,0,0,2-.5l1.9-1.1a3.413,3.413,0,0,0,1.5-2.2l.4-3,1.3.3-.2,1.5a6.928,6.928,0,0,1-7.6,6.1,6.732,6.732,0,0,1-4.9-3l1.8,1.3A.55.55,0,0,0,233.05,201.1Z"/><path d="M235.15,198.8l-2.6-.4-.3,1a5.568,5.568,0,0,0,2.8.5h.5Z" fill="#7a5e44"/><path d="M236.75,189.3l-.7.1a8.9,8.9,0,0,0-6.6,4.5l-.1-1.8a8.852,8.852,0,0,1,3.7-7.8l2.5,1Z" fill="#2488d8"/><path d="M243.05,196.6a27.6,27.6,0,0,1-9.5-11.1l-.5-1.1,2.2-.5a6.152,6.152,0,0,1,4.6,1.1l2,2.2a6.67,6.67,0,0,1,2,7.2Z" fill="#69afe5"/><path d="M237.15,194.7a.552.552,0,1,0,.6-.5A.5.5,0,0,0,237.15,194.7Z"/><path d="M231.35,194a.552.552,0,1,0,.6-.5A.56.56,0,0,0,231.35,194Z"/><path d="M239.15,194.1h.1a.187.187,0,0,0,0-.3,2.214,2.214,0,0,0-2.7-.6c-.1.1-.2.2-.1.3s.2.2.3.1a1.742,1.742,0,0,1,2.2.5Z"/><path d="M233.35,193.5h.1a.187.187,0,0,0,0-.3,2.214,2.214,0,0,0-2.7-.6c-.1.1-.2.2-.1.3s.2.2.3.1a1.742,1.742,0,0,1,2.2.5Z"/><path d="M236.45,198.8l.3.9a1.779,1.779,0,0,0,.7.8l.2.1-1,.1a1.425,1.425,0,0,1-1.2-.6l-.6-1.1-1.8-.3-.3.5a1.188,1.188,0,0,1-1.7.4l-.3-.2a1.785,1.785,0,0,0,1.2-.9,1.441,1.441,0,0,1,1.3-.8l2,.2A1.292,1.292,0,0,1,236.45,198.8Z"/><path d="M242.45,194.2l-6.2-6.8S241.15,189.3,242.45,194.2Z" fill="#2488d8"/><path d="M230.45,190.8a7.3,7.3,0,0,1,4.6-3.1,12.625,12.625,0,0,0-.8-1.3A7.239,7.239,0,0,0,230.45,190.8Z" fill="#69afe5"/><path d="M235.35,183.9l1.1-.2a3.732,3.732,0,0,1,3.5,1l2.2,2a7.113,7.113,0,0,1,1.9,7.3l-4.3-6.2,2.9,1.4-3.7-3.7a5.038,5.038,0,0,0-2.5-1.3Z" fill="#69afe5"/><path d="M225.25,217l.2-4.7a10.759,10.759,0,0,0-1.9,5.7c.9-.5,1.9-1.2,1.9-1.2" fill="#505050"/><path d="M208.55,208.3l-37.6,11.9a6.521,6.521,0,0,1-8.2-4.3L152.65,184a6.521,6.521,0,0,1,4.3-8.2l37.6-11.9a6.521,6.521,0,0,1,8.2,4.3l10.1,31.9A6.521,6.521,0,0,1,208.55,208.3Z" fill="#d2d2d2"/><path d="M176.8,198.449l-6.484,2.048,3.372,10.68,6.484-2.047Z" fill="#2488d8"/><path d="M183.42,183.243l-6.484,2.047,7.136,22.6,6.484-2.047Z" fill="#939393"/><path d="M191.605,172.913l-6.484,2.047,9.364,29.657,6.484-2.047Z" fill="#e26c41"/><path d="M192.75,187.6a1.887,1.887,0,0,0-1.2,1.1l-7.5.3v-.1a1.9,1.9,0,1,0-3.6,1.2,1.612,1.612,0,0,0,.4.7l-5.6,9.9a2.437,2.437,0,0,0-1.2,0,1.9,1.9,0,1,0,2.4,1.2l-.3-.6,5.7-10a1.7,1.7,0,0,0,1,0,1.887,1.887,0,0,0,1.2-1.1l7.5-.3v.1a1.9,1.9,0,1,0,3.6-1.2A1.945,1.945,0,0,0,192.75,187.6Z" fill="#fff"/><path d="M456.05,84.4h-42.1v34.9h42.1Z" fill="#52abe8"/><path d="M421.45,81.2h-2.9v6.1h2.9Z" fill="#e26c41"/><path d="M427.45,81.2h-2.9v6.1h2.9Z" fill="#e26c41"/><path d="M433.45,81.2h-2.9v6.1h2.9Z" fill="#e26c41"/><path d="M439.45,81.2h-2.9v6.1h2.9Z" fill="#e26c41"/><path d="M445.45,81.2h-2.9v6.1h2.9Z" fill="#e26c41"/><path d="M451.55,81.2h-2.9v6.1h2.9Z" fill="#e26c41"/><path d="M425.95,94.9h-6v6h6Z" fill="#fff"/><path d="M437.95,94.9h-6v6h6Z" fill="#fff"/><path d="M450.05,94.9h-6v6h6Z" fill="#fff"/><path d="M425.95,106.1h-6v6h6Z" fill="#fff"/><path d="M437.95,106.1h-6v6h6Z" fill="#fff"/><path d="M450.05,106.1h-6v6h6Z" fill="#fff"/><path d="M235.95,227a.8.8,0,1,0,.8-.8C236.25,226.1,235.95,226.5,235.95,227Z" fill="#505050"/><path d="M194.65,212.7l-.1.1-2.3-.4-.4-.8a1.411,1.411,0,0,0-1.5-.8l.7,1.9-.1-.2a1.529,1.529,0,0,0-2-.3l.5.6a1.22,1.22,0,0,0-.8.9l1.7.3.3.4,2.5.7,2-.5Z" fill="#bb9167"/><path d="M454.95,134.5c.6,3.7.5,7-.8,8.1s-3.9,5.2-2.2,8.2c1.3,2.3,13.9-2.4,19.7-5.4a12.7,12.7,0,0,0,3.4-3.3s-5.2-.2-5.9-4.9c-.8-4.7-.9-3.7-.9-3.7Z" fill="#4f3e33"/><path d="M503.15,129.4l-.2-.3a.83.83,0,0,0-1.2-.2l-.4.2.1-1.3h-.1a.921.921,0,0,0-1.1.7l-.4,1.7-.2-3.4h-.3a1.075,1.075,0,0,0-1,1l-.1,1.4-.9,1-1.6.1a4.312,4.312,0,0,1-2.7-.6l-1-.4-.1-1.1c-.1-.8-.6-1.3-1.3-1h-.2v3.3a1.689,1.689,0,0,0,.3,1l.8,1.4-2.3,3.6,3.2,3,2.9-6,3.4-.5a2.252,2.252,0,0,0,1.4-.8l1.1-1.3Z" fill="#f6caa7"/><path d="M454.65,198.7l-6.9,28.3a24.219,24.219,0,0,0-.5,2.4c-.5,3.2-2.9,4.8-3.7,5.7l.4.1,5.5-1,2.7-5.2-.1-.9a1.95,1.95,0,0,1,0-1.5l11.1-26.9Z" fill="#b48f75"/><path d="M477.05,233.5a8.3,8.3,0,0,1-2.4-4l-.3-1.2v-29l-6.8,4.9.2,5.2,2.7,19-.2,1.4,4.9,5.5h3.7Z" fill="#b48f75"/><path d="M469.65,236.4h-.6a28.4,28.4,0,0,0,.1-3.4,9.436,9.436,0,0,0-.4-2.1,3.951,3.951,0,0,1,1.1-3.4.446.446,0,0,1,.5,0l4,4.9a6.675,6.675,0,0,0,4.7,2.3,1.815,1.815,0,0,1,1.6,1.2q.15.3,0,.3h-4.9a2.09,2.09,0,0,1-2.1-1.1l-1.1-1.8a2.929,2.929,0,0,0-1.6-1.3l-.9-.3A17.793,17.793,0,0,1,469.65,236.4Z"/><path d="M451.65,227.7c.1-.1.3-.1.3,0l.8,1.9a2.548,2.548,0,0,1,0,2.4,8.507,8.507,0,0,0-.9,3.1l-.2,1.4h-.8l.3-3.3-1.3,2a2.3,2.3,0,0,1-2,1.3h-6.1a2.27,2.27,0,0,1,1.8-1.6l.3-.1c1.8-.3,5-1.4,5.8-3Z"/><path d="M474.15,201.6a10.5,10.5,0,0,1-6.4,7.6c-.4-3.2-1-7.1-1-7.1Z" fill="#8e7a6f"/><path d="M455.95,171.7l-.2.5c-4.8,3.2-2.7,32.8-2.7,32.8a40.23,40.23,0,0,0,21.9-3.8c.9-4.2.6-25.6.6-25.6l-5.8-6.8Z" fill="#2488d8"/><path d="M489.95,133.9l-5.9,10.2-8.6-.1-2.8-1.5-1.1.5-.3-.7-15.1,1.7a10.451,10.451,0,0,0-5.7,3.1c-3,3.5,2.7,12.4,3.8,19.7.6,3.9-1.8,13.6-1.8,13.6s8.4,2.5,13.2-4.5c3.5,2.2,11.2.8,11.2.8s-2.9-7.9-2.8-11.6a58.061,58.061,0,0,1,1.4-8.7,8.943,8.943,0,0,0-.1-4.3,26.97,26.97,0,0,0,6.9-.7l5.4-1.7a2.539,2.539,0,0,0,1.4-1.3l5.7-12.9Z" fill="#505050"/><path d="M457.75,145.3s5.2,6.7,6.5,11.1a35.092,35.092,0,0,1,1,10s3.6-3.9,3.6-8.4a37.478,37.478,0,0,0-1.5-9.8l1.5-3.2-2.3-1.8-9.1,1.6Z" fill="#f5f5f5"/><path d="M466.95,145.5l.6-1.1-1.2-.7.2,1.7Z" fill="#d2d2d2"/><path d="M470.65,134.4l-.5-3.9a7.224,7.224,0,0,0-8.1-6.2l-.4.1a7.224,7.224,0,0,0-6.2,8.1l.5,3.9a7.335,7.335,0,0,0,3.7,5.4l-.3,3.5,2.9,1.1,2.7,5.5,1.9-6.3-.3-1.1-.1-1.4a1.819,1.819,0,0,1,.8-1.6A7.186,7.186,0,0,0,470.65,134.4Z" fill="#f6caa7"/><path d="M470.65,134.4l-.5-3.9a7.114,7.114,0,0,0-5.8-6.1l-1.1,1.4,1.4,1.2a4.1,4.1,0,0,1,1.4,3.1v.4a1.859,1.859,0,0,0,.9,1.5l1.5.7a.7.7,0,0,1,.1,1.2s-.7.4-.7.6a2.389,2.389,0,0,0,.3.7,1.844,1.844,0,0,1,.4,1.3l-1.4.3v.4a.885.885,0,0,0,1.3.8l.5-.2h.1l1.1-.5A3.518,3.518,0,0,0,470.65,134.4Z" fill="#f8d5b9"/><path d="M470.05,138.4l-1.1.9a4.155,4.155,0,0,1-3.6.7l-3.1-.9c-.2-.1-.4.2-.3.4l1.1,1.3a4.555,4.555,0,0,1,1.1,2.9l.3,7,.6,1.2,1.9-6.3-.3-1.1-.1-1.4a1.819,1.819,0,0,1,.8-1.6A8.117,8.117,0,0,0,470.05,138.4Z" fill="#deb695"/><path d="M464.75,131.9a.7.7,0,1,1-.7-.7A.684.684,0,0,1,464.75,131.9Z" fill="#1070c4"/><path d="M469.35,131.2a.7.7,0,1,1-.7-.7A.684.684,0,0,1,469.35,131.2Z" fill="#1070c4"/><path d="M465.25,136.6l1.7.4a2.294,2.294,0,0,0,1.4-.1l.7-.2a.634.634,0,0,0,.5-.6v-.5l-1.7.4Z" fill="#df6c47"/><path d="M465.25,136.6l1.9-1a.878.878,0,0,1,.7-.1l.4.1.3-.2a.638.638,0,0,1,.6,0l.3.2-.4.3a3.582,3.582,0,0,1-1.1.4Z" fill="#d83b01"/><path d="M462.25,131.5h-.1c-.1-.1-.2-.2-.1-.4a2.362,2.362,0,0,1,3.1-1.1c.1.1.2.2.2.3-.1.1-.2.2-.3.2a1.785,1.785,0,0,0-2.4.9A.756.756,0,0,1,462.25,131.5Z" fill="#4f3e33"/><path d="M469.95,130.1c-.1,0-.1,0-.2-.1a1.537,1.537,0,0,0-2.2-.1.283.283,0,0,1-.4-.4,2.171,2.171,0,0,1,2.9.1.3.3,0,0,1,0,.4A.1.1,0,0,1,469.95,130.1Z" fill="#4f3e33"/><path d="M464.95,135.6l-.3,1.4S463.95,136,464.95,135.6Z" fill="#deb695"/><path d="M462.25,146.3l-1.7,2.8,3.6.9Z" fill="#d2d2d2"/><path d="M467.25,148l-.4.9,1,4.4a7.312,7.312,0,0,1,0,3.6l-.1.3a7.563,7.563,0,0,1-3.1,4.3l-.3,5.7,3.3.1,3.5-14.2Z" fill="#d2d2d2"/><path d="M468.85,144.8l.1,3.5-1.4-.8Z" fill="#d2d2d2"/><path d="M531.85,107l-52.6,12,8.8,39,52.7-11.9Z" fill="#fff"/><path d="M531.85,107l-52.6,12,8.8,39,52.7-11.9Z" fill="#737373"/><path d="M531.85,107l-52.6,12,1.1,4.9,52.7-11.9Z" fill="#e26c41"/><path d="M516.55,120.8l-30.2,6.9.4,2,30.2-6.9Z" fill="#d2d2d2"/><path d="M531.25,126.7l-30.2,6.9.4,2,30.2-6.9Z" fill="#d2d2d2"/><path d="M532.15,130.6l-30.2,6.9.4,2,30.2-6.9Z" fill="#d2d2d2"/><path d="M516.45,138.2l-13.7,3.1.4,2,13.7-3.1Z" fill="#d2d2d2"/><path d="M519.45,142.7l-21.5,4.9.4,2,21.5-4.9Z" fill="#e26c41"/><path d="M534.05,139.4l-11.7,2.7.4,2,11.7-2.7Z" fill="#d2d2d2"/><path d="M532.95,134.5l-13.7,3.1.4,2,13.7-3.1Z" fill="#d2d2d2"/><path d="M501.85,128.2l-14.6,3.3.4,2,14.6-3.3Z" fill="#e26c41"/><path d="M519.35,124.2l-14.6,3.3.4,2,14.6-3.3Z" fill="#d2d2d2"/><path d="M483.05,156.5l1.9-2a8.972,8.972,0,0,0,1.2-3.4c1.7.1.9,2.1.9,2.5l-.2,1.1.6.8c.6,0,2,.2,2,.2l1.4-1.2a1.956,1.956,0,0,1,2.4-.3l-1.3,1,1.4-.7a2.232,2.232,0,0,1,2.1.2l-1.2.8a1.146,1.146,0,0,1,1.3.7l.1.2-4.9,2.3a19.079,19.079,0,0,0-7.2,1.2l-4,1.6-1.6-3.8Z" fill="#deb695"/><path d="M465.05,166.4s-9.3-5.4-13.1-11.5c-1.6-2.5-3.3-5.5-1-7.4s3.9,0,5.6,1.6c6.1,5.9,9.2,9,11.5,10.8l12.6-3.6,1.6,5.1-13.7,5.3A3.957,3.957,0,0,1,465.05,166.4Z" fill="#686868"/><path d="M461.85,124c-4.6.4-6.9,3.8-7,8a34.345,34.345,0,0,0,1.3,8.6c0,.1-.1.1-.1.2-.7,1.2,1.1,6-1.2,8.8,4.2-1.6,5.7-4.2,5.9-7.1v-.6a11.913,11.913,0,0,0-1.8-5.6c2.1-2.9.9-5.3,1.5-8,.7-2.9,4.8-2.7,6.4-1a5.514,5.514,0,0,0,3.4,2.2C469.15,125.2,466.45,123.6,461.85,124Zm-4.3,8.5a8.91,8.91,0,0,1-.2,3.8C455.25,135.5,455.85,132.3,457.55,132.5Z" fill="#4f3e33"/></svg>