<svg xmlns="http://www.w3.org/2000/svg" viewBox="0 0 636 300"><defs><style>.a{fill:#ec6401}.b{fill:#ffa940}.c{fill:#e26c41}.d{fill:#0078d7}.e{fill:#fff}.f{fill:#737373}.g{fill:#c8c8c8}.h{fill:#7b7b7b}.i{fill:#b0b0b0}.j{fill:#959595}.k{fill:#666}.l,.m,.n{fill:none;stroke:#939393;stroke-width:2px}.l,.m,.n,.s{stroke-miterlimit:10}.m{stroke-dasharray:1.969 2.953}.n{stroke-dasharray:1.974 2.961}.o,.s{fill:#d2d2d2}.p{fill:#282828}.q{fill:#528bcf}.r{fill:#0048b3}.s{stroke:#737373;stroke-linecap:round}.t{fill:#f08400}.u{fill:#231f20}.v{fill:#c2c2c2}.w{fill:#a6a6a6}.x{fill:#6597bf}.y{fill:#106ebe}.z{fill:#939393}.aa{fill:#69afe5}.ab{fill:#505050}.ac{fill:#ffcb40}.ad{fill:#db9d00}.ae{fill:#cc8e02}.af{fill:#ba6800}</style></defs><title>swimlane-winform</title><path class="a" d="M290.068 279H568V116h-2zM535 249H400.731L535 170.254z"/><path class="b" d="M287.5 279H566V115.667zM533 249H398.731L533 170.254z"/><path class="c" d="M315 266h2v8h-2zM329 266h2v8h-2zM343 266h2v8h-2zM357 266h2v8h-2zM371 266h2v8h-2zM385 266h2v8h-2zM399 266h2v8h-2zM413 266h2v8h-2zM427 266h2v8h-2zM441 266h2v8h-2zM455 266h2v8h-2zM469 266h2v8h-2zM483 266h2v8h-2zM497 266h2v8h-2zM511 266h2v8h-2zM525 266h2v8h-2z"/><path class="c" d="M525 266h2v8h-2zM539 266h2v8h-2zM553 266h2v8h-2z"/><path class="d" d="M170 21h324v221H170z"/><path class="e" d="M179 60h305v172H179z"/><path class="f" d="M69 134h131v140H69z"/><path class="g" d="M68 133h131v140H68z"/><path class="h" d="M93 184h6v6h-6z"/><path class="i" d="M96.667 184l-1 2H93v4h6v-6h-2.333z"/><path class="h" d="M93 195h6v6h-6z"/><path class="i" d="M96.667 195l-1 2H93v4h6v-6h-2.333z"/><path class="j" d="M79 162h77v5H79z"/><path class="i" d="M92 173h69v5H92zM105 184h38v5h-38zM105 195h64v5h-64z"/><path class="h" d="M93 228h6v6h-6z"/><path class="i" d="M96.667 228l-1 2H93v4h6v-6h-2.333zM105 228h38v5h-38z"/><path class="h" d="M93 239h6v6h-6z"/><path class="i" d="M96.667 239l-1 2H93v4h6v-6h-2.333zM105 239h38v5h-38z"/><path class="k" d="M79 142h110v13H79zM79 207h110v13H79z"/><path class="h" d="M83 173h5v5h-5z"/><path class="e" d="M178 145h7v7h-7zM178 210h7v7h-7z"/><path class="l" d="M322 153v1h-1"/><path class="m" d="M318 154H196"/><path class="l" d="M195 154h-1v-1"/><path class="n" d="M194 150V77"/><path class="l" d="M194 76v-1h1"/><path class="m" d="M198 75h121"/><path class="l" d="M321 75h1v1"/><path class="n" d="M322 79v73"/><path class="o" d="M337 75h128v79H337z"/><path class="p" d="M178 50h307v10H178z"/><path class="e" d="M421 30h62v11h-62z"/><path class="q" d="M337 164h118v9H337z"/><path class="r" d="M179 32h106v7H179z"/><path class="o" d="M334 202h85v13h-85z"/><path class="s" d="M425.5 202.5h41v13h-41z"/><circle class="e" cx="403.655" cy="179" r="4"/><path class="e" d="M191 138h7v7h-7z"/><path class="t" d="M110 89h24v2h-24zM115 96h19v2h-19zM120 103h14v2h-14z"/><path class="e" d="M142 90h131v78H142z"/><path class="t" d="M274 170H140V88h134zm-130-4h126V92H144z"/><path class="h" d="M167 141h6v6h-6z"/><path class="i" d="M170.667 141l-1 2H167v4h6v-6h-2.333z"/><path class="h" d="M167 152h6v6h-6z"/><path class="i" d="M170.667 152l-1 2H167v4h6v-6h-2.333z"/><path class="j" d="M153 119h77v5h-77z"/><path class="i" d="M166 130h69v5h-69zM179 141h38v5h-38zM179 152h64v5h-64z"/><path class="k" d="M153 99h110v13H153z"/><path class="h" d="M157 130h5v5h-5z"/><path class="e" d="M252 102h7v7h-7z"/><path class="u" d="M242 147a4.3 4.3 0 0 0-2.265.591 4.054 4.054 0 0 0-3.739-3.2 3.967 3.967 0 0 0-2.283.669 5.049 5.049 0 0 0-4.989-3.072 4.613 4.613 0 0 0-4.408 2.674 4.414 4.414 0 0 0-2.66-.883 4.611 4.611 0 0 0-4.656 4.658v3.44a5.259 5.259 0 0 0-1.8-.282 4.315 4.315 0 0 0-3.482 2.149c-.759 1.286-1.248 3.57.729 7.145 3.065 5.539 7.9 16.407 7.952 16.517l.265.594H242v-5.222c0-1.456.152-3.056 1.987-6.587a14.21 14.21 0 0 0 2.013-8.04V151a4.217 4.217 0 0 0-4-4zm2 11.151a12.317 12.317 0 0 1-1.788 7.118c-2.043 3.932-2.212 5.795-2.212 7.509V176h-18.04c-1.063-2.366-5.075-11.219-7.765-16.079-1.2-2.175-1.464-3.959-.756-5.16a2.334 2.334 0 0 1 1.76-1.165c1.138 0 1.561.324 1.8.68V158h2v-9.564a2.6 2.6 0 0 1 2.656-2.658A2.261 2.261 0 0 1 224 148v6h2v-7.838c-.345-.876.521-2.172 2.38-2.172a3.449 3.449 0 0 1 3.62 2.586V155h2v-7c-.345-.43.128-1.608 1.651-1.608 1.367 0 2 1.776 2.349 2.977V155h2v-3.92a2.033 2.033 0 0 1 .979-1.788A2.054 2.054 0 0 1 244 151v7.151z"/><path class="e" d="M244 158.151a12.317 12.317 0 0 1-1.788 7.118c-2.043 3.932-2.212 5.795-2.212 7.509V176h-18.04c-1.063-2.366-5.075-11.219-7.765-16.079-1.2-2.175-1.464-3.959-.756-5.16a2.334 2.334 0 0 1 1.76-1.165c1.138 0 1.561.324 1.8.68V158h2v-9.564a2.6 2.6 0 0 1 2.656-2.658A2.261 2.261 0 0 1 224 148v6h2v-7.838c-.345-.876.521-2.172 2.38-2.172a3.449 3.449 0 0 1 3.62 2.586V155h2v-7c-.345-.43.128-1.608 1.651-1.608 1.367 0 2 1.776 2.349 2.977V155h2v-3.92a2.033 2.033 0 0 1 .979-1.788A2.054 2.054 0 0 1 244 151v7.151z"/><path class="v" d="M373.52 75H337v79h115.52l-79-79z"/><path class="w" d="M351 180h42v8h-42z"/><path class="x" d="M340.713 191.078a6.135 6.135 0 1 1 6.136-6.135 6.142 6.142 0 0 1-6.136 6.135zm0-11.274a5.139 5.139 0 1 0 5.14 5.139 5.145 5.145 0 0 0-5.14-5.143z"/><circle class="y" cx="340.655" cy="185" r="3"/><path class="w" d="M223 183h82v8h-82z"/><path class="x" d="M212.713 194.078a6.135 6.135 0 1 1 6.136-6.135 6.142 6.142 0 0 1-6.136 6.135zm0-11.274a5.139 5.139 0 1 0 5.14 5.139 5.145 5.145 0 0 0-5.14-5.143z"/><circle class="y" cx="212.655" cy="188" r="3"/><path class="w" d="M223 203h73v8h-73z"/><path class="x" d="M212.713 214.078a6.135 6.135 0 1 1 6.136-6.135 6.142 6.142 0 0 1-6.136 6.135zm0-11.274a5.139 5.139 0 1 0 5.14 5.139 5.145 5.145 0 0 0-5.14-5.143z"/><path class="w" d="M423 180h42v8h-42z"/><path class="x" d="M412.713 191.078a6.135 6.135 0 1 1 6.136-6.135 6.142 6.142 0 0 1-6.136 6.135zm0-11.274a5.139 5.139 0 1 0 5.14 5.139 5.145 5.145 0 0 0-5.14-5.143z"/><path class="z" d="M419 215h-1v-13h-84v-1h85v14z"/><path class="aa" d="M405 202h13v13h-13z"/><path class="k" d="M414.214 206l-2.559 3.199-2.559-3.199h-1.282l3.841 4.801 3.841-4.801h-1.282z"/><path class="ab" d="M512.767 223.061l.009-4.354 2.865-.017-.06 4.48a1.357 1.357 0 0 1-1.336 1.413 1.453 1.453 0 0 1-1.478-1.522z"/><path class="ac" d="M522.767 73l-10.175 1H507l-.767 132.905 5.339.095 10.428.037L522.767 73z"/><path class="ab" d="M509 68.972L508.975 74l12.77.079-.103-5.079L509 68.972z"/><path class="f" d="M516.661 221.085L522.038 207l-15.758-.13 5.344 14.13 5.037.085z"/><path class="ad" d="M507 73.968L506.162 207l5.838.094L512.708 74 507 73.968z"/><path class="ac" d="M523.087 59.762a2.275 2.275 0 0 0-2.223-2.373l-6.043.029c-.6-.01-1.489-.026-2.383-.038-.716-.072-1.609-.088-2.2-.1l-.779.048a2.35 2.35 0 0 0-2.245 2.29l-.034 9.315 5.313-.093 10.507.047z"/><path class="ae" d="M512.336 68.246l.046-10.21a.884.884 0 0 0-.707-.668 12.831 12.831 0 0 1-1.605-.086 3.243 3.243 0 0 0-3.1 3.054l-.008 7.827c.053.476.343.779.7.666l3.878.062a.739.739 0 0 0 .796-.645z"/><path class="ad" d="M523 182.021l.015-19.11 1.985-.085-.173 19.174-1.827.021z"/><path class="af" d="M522 181.977v-19.11l2-.098V182l-2-.023z"/></svg>