<svg xmlns="http://www.w3.org/2000/svg" viewBox="0 0 636 300"><defs><style>.a{fill:#b2b2b2}.b,.d{fill:#2e2e2e}.b{stroke:#909090;stroke-miterlimit:10;stroke-width:1.221px}.c{fill:#4b4a4b}.e{fill:#8fc3ec}.f{fill:#c7c7c7}.g{fill:#b3d6f2}.h{fill:#767576}.i{fill:#3097d8}.j{fill:#a6a8ab}</style></defs><title>swimlane-xamarin-cross-platform</title><path class="a" d="M578.475 243.75H57.688a4.087 4.087 0 0 1-4.088-3.317 4 4 0 0 1 3.925-4.683h520.95a3.919 3.919 0 0 1 3.98 4 4 4 0 0 1-3.98 4z"/><path class="b" d="M548.045 228.25V64.6a8.345 8.345 0 0 0-8.345-8.35H297.391a8.346 8.346 0 0 0-8.346 8.346V228.25z"/><path class="c" d="M257.545 226.75h320v7h-320z"/><path class="d" d="M545.478 238.75H298.17c-36.231 0-40.709-5-40.709-5h319.974s-3.664 5-31.957 5z"/><path class="e" d="M299.545 66.75h236v149h-236z"/><path class="f" d="M391.251 227.75a4.073 4.073 0 0 0 4.069 4h44.154a4.073 4.073 0 0 0 4.069-4z"/><path class="g" d="M535.545 171.083V66.75h-88.643l88.643 104.333z"/><circle class="h" cx="417.753" cy="60.658" r="2.718"/><path class="i" d="M468.93 134.426c-1.75-2.626-18.379-31.507-20.421-35.008s-4.96-4.668-8.753-4.668h-41.4c-3.793 0-6.71 1.167-8.752 4.668s-18.671 32.382-20.421 35.008-1.75 5.835 1.167 11.086 17.5 30.924 19.254 34.133a9.108 9.108 0 0 0 8.752 5.1h41.4a9.108 9.108 0 0 0 8.752-5.1c1.75-3.209 16.337-28.882 19.254-34.133s2.918-8.461 1.168-11.086zm-27.083 28.324h-9.664l-13.072-22.667-13.071 22.667h-9.664l13.178-23.5-13.178-23.5h9.81l12.926 22.658 12.925-22.658h9.81l-13.178 23.5z"/><path class="d" d="M112.024 237.156c-3.874.873-10.459 1.694-22.212 1.694s-20.437-.852-23.738-1.7-5.53-2.83-5.53-5.957v-99.029c0-3.184 2.106-5.1 5.678-5.639a189.061 189.061 0 0 1 23.441-1.464 138.106 138.106 0 0 1 22.211 1.458c3.827.607 5.671 2.59 5.671 5.772V231.2c-.001 3.122-1.645 5.083-5.521 5.956z"/><path class="e" d="M62.545 137.75h51v89h-51z"/><circle class="h" cx="88.304" cy="130.889" r="1.109"/><circle class="h" cx="70.77" cy="131.766" r=".889"/><path class="g" d="M114.545 181.532V137.75H66.726l47.819 43.782z"/><path class="d" d="M142.545 234.642V82.858a3.108 3.108 0 0 1 3.108-3.108h102.784a3.108 3.108 0 0 1 3.108 3.108v151.784a3.108 3.108 0 0 1-3.108 3.108H145.653a3.108 3.108 0 0 1-3.108-3.108z"/><path class="j" d="M151.545 88.75h93v140h-93z"/><path class="e" d="M151.545 88.75h93v140h-93z"/><path class="j" d="M195.7 231.75l-.5 4h4.084l-.5-4H195.7z"/><path class="g" d="M175.439 88.75h69.106v75.478L175.439 88.75z"/><path class="i" d="M225.879 144.233c-.992-1.488-10.415-17.854-11.572-19.838a5.164 5.164 0 0 0-4.959-2.645h-23.46a5.164 5.164 0 0 0-4.959 2.645c-1.157 1.984-10.58 18.35-11.572 19.838s-.992 3.306.661 6.282 9.919 17.523 10.911 19.342a5.162 5.162 0 0 0 4.959 2.893h23.46a5.16 5.16 0 0 0 4.959-2.893c.992-1.818 9.258-16.366 10.911-19.342s1.652-4.794.661-6.282zm-15.654 15.517h-5.346l-7.231-12.539-7.231 12.539h-5.346l7.29-13-7.29-13h5.429l7.15 12.534 7.15-12.534h5.427l-7.29 13zM105.874 171.416c-.6-.9-6.331-10.853-7.034-12.058a3.139 3.139 0 0 0-3.015-1.608H81.566a3.141 3.141 0 0 0-3.015 1.608c-.7 1.206-6.431 11.154-7.034 12.058s-.6 2.01.4 3.818 6.029 10.652 6.632 11.757a3.138 3.138 0 0 0 3.015 1.759h14.26a3.138 3.138 0 0 0 3.015-1.759c.6-1.106 5.627-9.948 6.632-11.757s1.006-2.914.403-3.818zm-9.42 9.334h-3.29l-4.45-7.717-4.45 7.717h-3.29l4.486-8-4.486-8h3.34l4.4 7.713 4.4-7.713h3.34l-4.486 8z"/></svg>