<svg width="119" height="124" viewBox="0 0 119 124" fill="none" xmlns="http://www.w3.org/2000/svg">
<path d="M59.2 121.8C90.7907 121.8 116.4 96.1907 116.4 64.6C116.4 33.0093 90.7907 7.4 59.2 7.4C27.6093 7.4 2 33.0093 2 64.6C2 96.1907 27.6093 121.8 59.2 121.8Z" stroke="black" stroke-width="3" stroke-miterlimit="10"/>
<path d="M109.3 97.9C106.8 97.9 104.5 96.6 103.2 94.5C102.2 92.9 101.8 90.9 102.3 89C102.7 87.1 103.9 85.5 105.5 84.5C106.7 83.8 108 83.4 109.4 83.4C111.9 83.4 114.2 84.7 115.5 86.8C116.5 88.4 116.9 90.4 116.4 92.3C116 94.2 114.8 95.8 113.2 96.8C112 97.5 110.7 97.9 109.3 97.9Z" fill="white"/>
<path d="M109.3 84.9C111.3 84.9 113.1 85.9 114.2 87.6C115.9 90.3 115.1 93.8 112.4 95.5C111.5 96.1 110.4 96.4 109.3 96.4C107.3 96.4 105.5 95.4 104.4 93.7C102.7 91 103.5 87.5 106.2 85.8C107.2 85.2 108.2 84.9 109.3 84.9ZM109.3 81.9C107.7 81.9 106.1 82.3 104.6 83.3C100.5 85.9 99.3 91.3 101.9 95.4C103.6 98 106.4 99.5 109.3 99.5C110.9 99.5 112.5 99.1 114 98.1C118.1 95.5 119.3 90.1 116.7 86C115 83.4 112.2 81.9 109.3 81.9Z" fill="#0078D7"/>
<path d="M57.6 16C55.1 16 52.8 14.7 51.5 12.6C50.5 11 50.1 9 50.6 7.1C51 5.2 52.2 3.6 53.8 2.6C55 1.9 56.3 1.5 57.7 1.5C60.2 1.5 62.5 2.8 63.8 4.9C64.8 6.5 65.2 8.5 64.7 10.4C64.3 12.3 63.1 13.9 61.5 14.9C60.3 15.6 59 16 57.6 16Z" fill="white"/>
<path d="M57.6 3C59.6 3 61.4 4 62.5 5.7C63.3 7 63.6 8.5 63.2 10C62.8 11.5 62 12.8 60.7 13.6C59.8 14.2 58.7 14.5 57.6 14.5C55.6 14.5 53.8 13.5 52.7 11.8C51 9.1 51.8 5.6 54.5 3.9C55.5 3.3 56.5 3 57.6 3ZM57.6 0C56 0 54.4 0.4 53 1.4C48.9 4 47.7 9.4 50.3 13.5C52 16.1 54.8 17.6 57.7 17.6C59.3 17.6 60.9 17.2 62.4 16.2C66.5 13.6 67.7 8.2 65.1 4.1C63.4 1.4 60.5 0 57.6 0Z" fill="#0078D7"/>
<path d="M11.9 105.4C9.40001 105.4 7.10001 104.1 5.80001 102C4.80001 100.4 4.40001 98.4 4.90001 96.5C5.30001 94.6 6.50001 93 8.10001 92C9.30001 91.3 10.6 90.9 12 90.9C14.5 90.9 16.8 92.2 18.1 94.3C19.1 95.9 19.5 97.9 19 99.8C18.5 101.7 17.4 103.3 15.8 104.3C14.6 105 13.3 105.4 11.9 105.4Z" fill="white"/>
<path d="M11.9 92.4C13.9 92.4 15.7 93.4 16.8 95.1C18.5 97.8 17.7 101.3 15 103C14.1 103.6 13 103.9 11.9 103.9C9.90001 103.9 8.10001 102.9 7.00001 101.2C6.30001 100 6.00001 98.4 6.30001 96.9C6.60001 95.4 7.50001 94.1 8.80001 93.3C9.80001 92.8 10.8 92.4 11.9 92.4ZM11.9 89.4C10.3 89.4 8.70001 89.8 7.20001 90.8C3.10001 93.4 1.90001 98.8 4.50001 102.9C6.20001 105.5 9.00001 107 11.9 107C13.5 107 15.1 106.6 16.6 105.6C20.7 103 21.9 97.6 19.3 93.5C17.7 90.9 14.8 89.4 11.9 89.4Z" fill="#0078D7"/>
<path d="M58.9 98.4C77.8986 98.4 93.3 82.9986 93.3 64C93.3 45.0014 77.8986 29.6 58.9 29.6C39.9014 29.6 24.5 45.0014 24.5 64C24.5 82.9986 39.9014 98.4 58.9 98.4Z" fill="#0078D7"/>
<path d="M42.9 41.3C42.9 41.3 42.7 41.4 42.2 42.3C41.7 43.2 41.2 43.2 41 43.9C40.8 44.6 40.6 45.3 40.3 45.7C39.9 46.1 39.3 46.5 38.6 47C37.9 47.5 37 48.6 36.7 49.8C36.4 51 35.9 51.9 36.2 53.4C36.5 54.8 36.5 56.5 36.7 57.2C36.9 57.9 36.7 58.5 37.2 58.8C37.7 59.1 38.1 59.4 38 58.9C37.9 58.4 38 57.6 37.8 57.1C37.6 56.7 37.5 56.1 37.4 55.5C37.3 54.9 37.3 54.4 37.4 54C37.5 53.6 37.7 53.3 37.9 53.5C38.1 53.7 37.9 54.9 38.1 55.3C38.3 55.7 38.7 56.9 39.1 57.3C39.5 57.7 39.8 58.8 40.1 59.1C40.4 59.4 40.4 59.6 40.4 60.2C40.4 60.8 40.4 60.9 40.8 61.3C41.2 61.7 43.4 63 44.2 63.3C45 63.6 45.6 63.7 46.3 63.8C47 63.9 47.2 64 47.6 64.2C48 64.4 48.5 65.1 48.8 65.3C49.1 65.5 49.2 65.5 49.8 65.5C50.4 65.5 50.9 65.5 51.3 65.7C51.7 65.9 52.6 67.3 53 67.6C53.5 68 53.9 68.5 54.7 68.5C55.5 68.5 56 68 56.6 68.5C57.2 69 57.2 69.6 57.4 70.2C57.6 70.8 57.6 71.1 56.8 71.7C56 72.4 55.4 72.7 55.3 73.2C55.2 73.7 55 74.5 55 75.2C55 75.8 54.9 76.5 55.4 76.9C55.8 77.2 56.7 78.2 57 78.9C57.3 79.6 57.5 80.4 58.1 80.9C58.7 81.4 59.8 82 60.5 82.5C61.2 82.9 62 83.8 62 84.4C62 85.1 62.1 87.5 61.9 88C61.7 88.5 61.3 89.4 61.2 90C61.1 90.6 61.3 91.5 61.2 92C61.1 92.6 60.7 93.1 60.6 93.7C60.5 94.2 60.3 94.8 60.8 95.8C61.3 96.8 61.7 97.5 62.3 97.7C62.9 97.9 63.2 98 63.4 96.8C63.6 95.6 63.6 95.1 64.1 94.8C64.6 94.4 65.3 93.5 66.1 92.8C66.8 92.1 67.8 91.6 68.7 91.4C69.6 91.2 71 90.5 71.5 89.5C72 88.5 72.8 87.3 73.9 86.7C75 86.2 77 85.6 77.5 85.1C78 84.7 78.9 83.4 79.1 82.4C79.3 81.3 80 80.4 80.8 79.9C81.5 79.4 82.5 79 82.6 78.6C82.7 78.2 82.2 76.1 81.3 75.9C80.4 75.7 80 75.9 79.7 75.5C79.4 75.2 78.6 74.3 77.8 74C76.9 73.8 76.1 73.9 75.7 73.3C75.2 72.7 75.2 72 75.2 71.6C75.2 71.2 74.4 70.5 73.9 70.3C73.4 70.1 72.2 70 72.2 70C72.2 70 71.6 69.2 70.7 69.1C69.8 69 69.4 68.7 69.2 68.6C69 68.5 67.8 67.6 67.2 67.6C66.6 67.6 65.8 67.9 64.9 67.7C64 67.5 62.9 66.5 62.1 66.4C61.3 66.3 60.1 66.8 59.5 67.2C58.9 67.6 58.5 68 58.2 68.3C58 68.6 57.4 68.2 57.2 67.9C57 67.6 56.3 67.4 55.9 67.5C55.5 67.6 54.7 67.8 54.2 67.6C53.7 67.4 53.1 66.9 53.4 66.1C53.7 65.3 54 64.9 54 64.4C54 63.9 53.7 63 52.6 63.4C51.5 63.8 50.6 63.8 50.9 62.8C51.2 61.7 52 61.4 52.1 61C52.2 60.6 52 59.9 51.2 60.2C50.4 60.5 49.8 60.9 49.4 61.5C49 62.1 48.8 62.6 48.3 62.6C47.8 62.6 46.4 62.3 45.9 60.9C45.3 59.5 46.4 58.3 46.8 57.6C47.2 56.9 47.7 55.7 48.9 55.6C50.1 55.5 50.7 55.9 52.2 55.9C53.8 55.9 54.8 55.5 55.5 55.7C56.2 55.9 56.2 56.2 56.3 57C56.4 57.7 56.7 58.3 57.1 58.5C57.5 58.7 57.4 58.3 57.4 57.3C57.4 56.3 57.2 55.4 57.5 54.9C57.8 54.4 59.1 54 59.9 53.9C60.7 53.8 61.4 53.4 61.6 52.2C61.8 51.1 61.9 50.6 62.1 51C62.3 51.4 62.5 51.5 62.5 51.5C62.5 51.5 63.2 51 63.8 50.3C64.4 49.6 64.3 49.7 64.8 49.6C65.3 49.5 65.7 49.7 66 49.2C66.3 48.7 66.3 48.3 67 48.1C67.7 47.9 68.2 48.1 69 47.5C69.8 46.9 69.8 46.7 69.8 46.3C69.8 45.9 69.3 45.2 70 45.1C70.7 44.9 72 45.2 72.6 45.3C73.2 45.3 73.5 45.1 73.2 44.5C72.8 43.9 72.4 43.1 72 42.5C71.6 41.9 71.3 41.5 70.9 41.8C70.5 41.9 70 42 70 42C70 42 69.2 42 68.9 41.8C68.6 41.6 69 40.8 67.9 40.5C66.8 40.2 66.2 41.2 66.2 41.6C66.2 42 66.1 42.4 65.7 42.9C65.3 43.3 64.9 43.5 64.6 43.5C64.4 43.5 64.2 44.1 63.7 44.4C63.2 44.8 63 44.8 62.7 44.4C62.3 43.9 62.1 43.4 61.8 43.3C61.4 43.2 61.1 42.6 60.7 42.5C60.3 42.4 59.7 42.4 59.4 42.2C59.1 42 58.7 41.2 59.8 40.7C60.9 40.2 61 40 62.1 39.9C63.2 39.8 64.3 39.3 64.1 38.8C63.9 38.2 64.1 37 62.3 37.5C60.5 37.9 61.3 37.9 60.5 38.2C59.8 38.5 58.9 38.3 58 38.3C57.1 38.3 56 38.5 56 38.5C56 38.5 53.3 37.7 52.6 37.6C51.9 37.5 50.3 37.6 49.6 37.7C48.9 37.8 48.5 37.7 47.6 37.5C46.7 37 45.8 36.9 45 37C44.3 37 44.6 37.4 43.9 37.3C43.2 37.2 42.1 37.3 41.6 37.4C41.2 37.6 40.9 37.9 40 38.3C39.2 38.7 38.5 38.8 37.7 39.2C36.9 39.6 36 40.5 36 40.5C36 40.5 35.1 41.2 34.6 41.4C34.1 41.6 32.6 42.2 33.6 42C34.5 41.8 34.8 41.7 35.8 41.6C36.8 41.5 37.8 41 38.4 40.3C39 39.6 40.7 40.1 41.7 40.2C42.7 40.3 43.4 40.7 42.9 41.3Z" fill="white" stroke="#0078D7" stroke-miterlimit="10"/>
<path d="M69.2 35.1C68.7 35.3 68.1 35.8 69.1 36.2C70 36.6 70 36.6 70.8 36.6C71.6 36.6 71.8 36.7 72.3 37.5C72.7 38.4 73 39.4 73.8 40C74.5 40.6 75.1 41 75.5 41.1C75.9 41.2 75.9 41.1 75.9 39.9C76 38.6 76.1 37.9 75.5 37.5C74.9 37.1 74.1 36.2 73.7 36C73.3 35.8 73 35.6 72.5 35.1C72 34.6 71.6 34.4 70.8 34.7C70 35 69.8 34.8 69.2 35.1Z" fill="white" stroke="#0078D7" stroke-miterlimit="10"/>
<path d="M63.4 34.9C63.6 35.2 64 35.7 65 35.7C66.1 35.7 66.6 35.8 67.2 35.5C67.8 35.2 68.2 34.8 68.7 34.5C69.2 34.3 69.3 33.7 67.6 33.6C65.9 33.5 64.9 33.7 64.2 33.9C63.5 34.2 63 34.4 63.4 34.9Z" fill="white" stroke="#0078D7" stroke-miterlimit="10"/>
<path d="M64.1 37.2C64.2 37.6 64.9 38 65.9 37.8C66.9 37.6 67.7 38 67.7 38.4C67.7 38.8 67.3 38.8 67.3 39.1C67.3 39.5 67.7 39.8 68.6 40.2C69.5 40.6 70 40.5 70.3 39.9C70.7 39.3 70.2 38.8 70.1 38.6C69.9 38.4 70.3 38.2 70 37.9C69.6 37.5 68.5 36.7 67.4 36.5C66.3 36.3 65.3 36.1 64.6 36.5C64 36.8 64.1 36.8 64.1 37.2Z" fill="white" stroke="#0078D7" stroke-miterlimit="10"/>
<path d="M57.6 35.4C57.3 35.6 57.5 36.2 58.7 36C59.9 35.8 60.2 36 60.5 36.2C60.8 36.4 61.4 36.6 61.8 36.3C62.2 36 62 35.3 60.7 35C59.4 34.7 58.4 34.8 57.6 35.4Z" fill="white" stroke="#0078D7" stroke-miterlimit="10"/>
<path d="M62.5 35.3C62.4 35.7 62.5 36.5 63.1 36.5C63.7 36.5 64.4 36.3 64 36.1C63.6 35.9 62.7 34.8 62.5 35.3Z" fill="white" stroke="#0078D7" stroke-miterlimit="10"/>
<path d="M60.4 37C60.5 36.7 60.3 36.2 59 36.3C57.7 36.5 56.6 36 56.6 36C56.6 36 55 35.3 54.6 35.9C54.2 36.5 54.4 37.5 55.6 37.7C56.8 37.9 57.9 37.7 58.9 37.6C59.9 37.5 60.4 37.4 60.4 37Z" fill="white" stroke="#0078D7" stroke-miterlimit="10"/>
<path d="M55.4 60C55.5 60 56.6 60.5 56.6 60.5C56.6 60.5 57 60.1 57.4 60.4C57.8 60.7 57.6 61.5 58.2 61.7C58.8 61.9 59.9 61.9 60.3 61.7C60.7 61.6 60.6 60.7 58.9 60.2C57.2 59.8 57.1 59.5 56.5 59.4C55.9 59.3 55.1 59.2 54.4 59.6C53.7 59.9 53.1 60.4 53.8 60.4C54.6 60.3 54.8 60 55.4 60Z" fill="white" stroke="#0078D7" stroke-miterlimit="10"/>
<path d="M61.2 62.3C61.2 61.7 61.3 61.4 62.4 61.3C63.5 61.3 64.6 61.9 64.8 62.2C65 62.5 64.6 62.8 63.9 62.8C63.2 62.8 63 62.5 62.6 62.8C62.2 63.1 61.2 63.3 61.2 62.3Z" fill="white" stroke="#0078D7" stroke-miterlimit="10"/>
</svg>
