<svg width="159" height="96" viewBox="0 0 159 96" fill="none" xmlns="http://www.w3.org/2000/svg">
<path d="M143.822 5.8H15.0217V87.8H143.822V5.8Z" fill="#0078D4"/>
<path d="M130.522 23.1H104.022V26H130.522V23.1Z" fill="black"/>
<path d="M130.522 42.7H104.022V45.6H130.522V42.7Z" fill="black"/>
<path d="M130.522 63.5H104.022V66.4H130.522V63.5Z" fill="black"/>
<path d="M84.3217 32.6L78.5217 26.9L80.3217 25.2L84.3217 29.1L94.1217 19.3L95.9217 21L84.3217 32.6Z" fill="white"/>
<path d="M84.3217 51.5L78.5217 45.8L80.3217 44L84.3217 47.9L94.1217 38.1L95.9217 39.9L84.3217 51.5Z" fill="white"/>
<path d="M84.3217 70.3L78.5217 64.6L80.3217 62.9L84.3217 66.8L94.1217 57L95.9217 58.7L84.3217 70.3Z" fill="white"/>
<path d="M11.0217 93.1V4.8C11.0217 2.2 13.2217 0 15.8217 0H142.722C145.422 0 147.522 2.2 147.522 4.8V93.1H11.0217ZM141.222 84.7V7.8H17.2217V84.6H141.222V84.7Z" fill="black"/>
<path d="M0.721703 92.6H157.822C158.522 92.6 158.822 93.6 158.222 94L156.522 95C155.822 95.5 154.922 95.7 154.022 95.7H4.5217C3.6217 95.7 2.8217 95.5 2.0217 95L0.321703 94C-0.278297 93.6 0.0217028 92.6 0.721703 92.6Z" fill="black"/>
<path d="M47.2217 67.5C57.3837 67.5 65.6217 59.262 65.6217 49.1C65.6217 38.938 57.3837 30.7 47.2217 30.7C37.0597 30.7 28.8217 38.938 28.8217 49.1C28.8217 59.262 37.0597 67.5 47.2217 67.5Z" fill="#50E6FF"/>
<path d="M47.4217 29.5C36.6217 29.5 27.9217 38.2 27.9217 49C27.9217 59.8 36.6217 68.5 47.4217 68.5C58.2217 68.5 67.0217 59.8 67.0217 49C67.0217 38.2 58.2217 29.5 47.4217 29.5ZM30.0217 48.2C30.4217 38.9 38.1217 31.4 47.5217 31.4C57.1217 31.5 65.0217 39.3 65.0217 49C65.0217 58.7 57.2217 66.5 47.5217 66.5C38.1217 66.5 30.5217 59.2 30.0217 49.9" fill="black"/>
<path d="M53.0217 21.6H42.3217V27.6H53.0217V21.6Z" fill="black"/>
<path d="M67.1618 31.6578L63.5579 28.6408L60.5409 32.2448L64.1449 35.2617L67.1618 31.6578Z" fill="black"/>
<path d="M47.4217 33.4V49L60.8217 57C60.8217 57 61.1217 56.5 61.2217 56.3C62.4217 54.1 63.0217 51.6 63.0217 49C63.0217 40.5 56.2217 33.6 47.7217 33.4C47.7217 33.4 47.3217 33.3 47.4217 33.4Z" fill="black"/>
</svg>
