<svg width="160" height="86" viewBox="0 0 160 86" fill="none" xmlns="http://www.w3.org/2000/svg">
<path d="M0 48.9236L34 48.9236L34 43.3236L-7.13889e-10 43.3236L0 48.9236Z" fill="#0078D4"/>
<path d="M31.3403 40.4154L40.3403 46.1154L31.3403 51.9154V40.4154Z" fill="#0078D4"/>
<path d="M0.570408 80.1875L30.8704 80.1875L30.8704 74.5875L0.570408 74.5875L0.570408 80.1875Z" fill="#0078D4"/>
<path d="M30.8403 71.9154L39.7403 77.7154L30.8403 83.4154V71.9154Z" fill="#0078D4"/>
<path d="M0.570408 16.1875L30.8704 16.1875L30.8704 10.5875L0.570408 10.5875L0.570408 16.1875Z" fill="#0078D4"/>
<path d="M30.8403 7.91541L39.7403 13.7154L30.8403 19.4154V7.91541Z" fill="#0078D4"/>
<path d="M143.64 38.4154C147.64 55.0154 137.44 71.6154 120.94 75.7154C104.34 79.7154 87.7403 69.5154 83.6403 53.0154C79.6403 36.4154 89.8403 19.8154 106.34 15.7154C106.34 15.7154 106.34 15.7154 106.44 15.7154C122.94 11.7154 139.54 21.8154 143.64 38.3154V38.4154Z" fill="#0078D4"/>
<path d="M109.34 58.0154C109.34 53.5154 105.64 49.8154 101.14 49.8154H99.9403C101.04 45.4154 98.3403 41.0154 93.9403 40.0154C93.3403 39.8154 92.6403 39.8154 91.9403 39.8154H83.4403C81.6403 49.3154 84.3403 59.1154 90.8403 66.2154H101.04C105.64 66.2154 109.24 62.6154 109.34 58.0154Z" fill="#50E6FF"/>
<path d="M119.44 24.1154C119.44 24.6154 119.54 25.1154 119.64 25.5154H116.14C111.44 25.5154 107.64 29.3154 107.64 34.0154C107.64 38.7154 111.44 42.5154 116.14 42.5154H144.34C143.44 32.3154 137.44 23.3154 128.34 18.5154H125.04C121.94 18.6154 119.44 21.1154 119.44 24.1154Z" fill="#50E6FF"/>
<path d="M144.34 48.9154H127.54C123.74 48.9154 120.54 52.0154 120.54 55.8154C120.54 57.0154 120.84 58.1154 121.34 59.1154C117.64 60.2154 115.64 64.1154 116.84 67.8154C117.74 70.7154 120.44 72.7154 123.44 72.7154H128.14C137.14 67.9154 143.14 59.0154 144.34 48.9154Z" fill="#50E6FF"/>
<path d="M79.1403 25.1154C78.6403 25.1154 78.2403 24.7154 78.2403 24.2154C78.2403 18.2154 73.4403 13.4154 67.4403 13.4154C66.9403 13.4154 66.5403 13.0154 66.5403 12.5154C66.5403 12.0154 66.9403 11.6154 67.4403 11.6154C73.3403 11.6154 78.2403 6.81543 78.2403 0.915426C78.2403 0.415426 78.7403 0.0154261 79.2403 0.0154261C79.6403 -0.0845739 80.0403 0.315426 80.0403 0.815426C80.0403 6.71543 84.8403 11.6154 90.8403 11.6154C91.3403 11.6154 91.7403 12.0154 91.7403 12.5154C91.7403 13.0154 91.3403 13.4154 90.8403 13.4154C84.9403 13.4154 80.0403 18.2154 80.0403 24.2154C80.0403 24.7154 79.6403 25.1154 79.1403 25.1154Z" fill="#50E6FF"/>
<path d="M145.64 85.8154C145.34 85.8154 145.04 85.5154 145.04 85.2154C145.04 81.6154 142.14 78.8154 138.54 78.8154C138.24 78.8154 137.94 78.6154 137.94 78.2154C137.94 77.8154 138.14 77.6154 138.54 77.6154C142.14 77.6154 144.94 74.7154 145.04 71.2154C145.04 70.9154 145.34 70.6154 145.64 70.6154C145.94 70.6154 146.24 70.9154 146.24 71.2154C146.24 74.8154 149.14 77.6154 152.74 77.6154C153.04 77.6154 153.34 77.8154 153.34 78.2154C153.34 78.5154 153.14 78.8154 152.74 78.8154C149.14 78.8154 146.34 81.7154 146.24 85.2154C146.24 85.5154 145.94 85.8154 145.64 85.8154Z" fill="#0078D4"/>
<path d="M158.64 17.9154C155.74 13.1154 148.34 12.0154 137.24 14.7154C133.84 15.6154 130.44 16.7154 127.14 17.9154C129.24 18.9154 131.24 20.2154 133.14 21.7154C135.04 21.1154 136.84 20.5154 138.64 20.1154C141.54 19.3154 144.64 18.9154 147.64 18.8154C151.24 18.8154 153.24 19.7154 153.94 20.8154C155.04 22.6154 154.04 27.3154 147.64 34.7154C146.54 36.0154 145.24 37.4154 143.84 38.7154C136.84 45.5154 129.04 51.5154 120.64 56.5154C112.34 61.7154 103.44 65.9154 94.1403 69.1154C82.9403 72.7154 75.3403 72.7154 73.6403 69.9154C71.9403 67.1154 75.3403 60.3154 83.7403 52.0154C83.2403 49.6154 83.0403 47.2154 83.0403 44.8154C69.5403 56.9154 65.2403 67.3154 68.6403 72.9154C70.4403 75.8154 74.3403 77.5154 80.1403 77.5154C86.9403 77.2154 93.6403 75.7154 99.9403 73.1154C108.14 69.9154 115.94 66.0154 123.34 61.3154C130.84 56.8154 137.94 51.5154 144.44 45.7154C147.04 43.4154 149.44 41.0154 151.74 38.4154C159.14 29.8154 161.54 22.7154 158.64 17.9154Z" fill="black"/>
</svg>
