<svg width="158" height="95" viewBox="0 0 158 95" fill="none" xmlns="http://www.w3.org/2000/svg">
<path d="M85.8801 87.1956L114 29.6602V30.6602C121.718 30.6602 128.063 36.685 128.565 44.3513C128.568 44.5759 128.595 44.7891 128.614 44.9437L128.616 44.9629C128.639 45.1481 128.652 45.2608 128.652 45.3627C128.652 45.9794 128.651 46.4355 128.575 46.9664L128.38 48.3402L129.745 48.0912C130.649 47.9263 131.458 47.8457 132.348 47.8457C139.085 47.8457 144.68 52.5661 145.977 58.9101L146.101 59.5182L146.701 59.6767C148.254 60.0866 149.7 60.7364 150.886 61.609L150.898 61.6177L150.91 61.6261C154.567 64.1538 157 68.3899 157 73.191C157 80.9291 150.749 87.1956 143.044 87.1956H143.043H143.042H143.042H143.041H143.041H143.04H143.04H143.039H143.039H143.038H143.038H143.037H143.037H143.036H143.036H143.035H143.035H143.034H143.034H143.033H143.033H143.032H143.032H143.031H143.031H143.03H143.03H143.029H143.029H143.028H143.028H143.027H143.027H143.026H143.026H143.025H143.025H143.024H143.024H143.023H143.023H143.022H143.022H143.021H143.021H143.02H143.02H143.019H143.019H143.018H143.018H143.017H143.017H143.016H143.015H143.015H143.014H143.014H143.013H143.013H143.012H143.012H143.011H143.011H143.01H143.01H143.009H143.009H143.008H143.008H143.007H143.007H143.006H143.006H143.005H143.005H143.004H143.004H143.003H143.003H143.002H143.002H143.001H143.001H143H143H142.999H142.999H142.998H142.998H142.997H142.997H142.996H142.996H142.995H142.995H142.994H142.994H142.993H142.993H142.992H142.992H142.991H142.991H142.99H142.989H142.989H142.988H142.988H142.987H142.987H142.986H142.986H142.985H142.985H142.984H142.984H142.983H142.983H142.982H142.982H142.981H142.981H142.98H142.98H142.979H142.979H142.978H142.978H142.977H142.977H142.976H142.976H142.975H142.975H142.974H142.974H142.973H142.973H142.972H142.972H142.971H142.971H142.97H142.97H142.969H142.969H142.968H142.968H142.967H142.967H142.966H142.966H142.965H142.965H142.964H142.964H142.963H142.962H142.962H142.961H142.961H142.96H142.96H142.959H142.959H142.958H142.958H142.957H142.957H142.956H142.956H142.955H142.955H142.954H142.954H142.953H142.953H142.952H142.952H142.951H142.951H142.95H142.95H142.949H142.949H142.948H142.948H142.947H142.947H142.946H142.946H142.945H142.945H142.944H142.944H142.943H142.943H142.942H142.942H142.941H142.941H142.94H142.94H142.939H142.939H142.938H142.938H142.937H142.937H142.936H142.935H142.935H142.934H142.934H142.933H142.933H142.932H142.932H142.931H142.931H142.93H142.93H142.929H142.929H142.928H142.928H142.927H142.927H142.926H142.926H142.925H142.925H142.924H142.924H142.923H142.923H142.922H142.922H142.921H142.921H142.92H142.92H142.919H142.919H142.918H142.918H142.917H142.917H142.916H142.916H142.915H142.915H142.914H142.914H142.913H142.913H142.912H142.912H142.911H142.911H142.91H142.91H142.909H142.908H142.908H142.907H142.907H142.906H142.906H142.905H142.905H142.904H142.904H142.903H142.903H142.902H142.902H142.901H142.901H142.9H142.9H142.899H142.899H142.898H142.898H142.897H142.897H142.896H142.896H142.895H142.895H142.894H142.894H142.893H142.893H142.892H142.892H142.891H142.891H142.89H142.89H142.889H142.889H142.888H142.888H142.887H142.887H142.886H142.886H142.885H142.885H142.884H142.884H142.883H142.882H142.882H142.881H142.881H142.88H142.88H142.879H142.879H142.878H142.878H142.877H142.877H142.876H142.876H142.875H142.875H142.874H142.874H142.873H142.873H142.872H142.872H142.871H142.871H142.87H142.87H142.869H142.869H142.868H142.868H142.867H142.867H142.866H142.866H142.865H142.865H142.864H142.864H142.863H142.863H142.862H142.862H142.861H142.861H142.86H142.86H142.859H142.859H142.858H142.858H142.857H142.857H142.856H142.855H142.855H142.854H142.854H142.853H142.853H142.852H142.852H142.851H142.851H142.85H142.85H142.849H142.849H142.848H142.848H142.847H142.847H142.846H142.846H142.845H142.845H142.844H142.844H142.843H142.843H142.842H142.842H142.841H142.841H142.84H142.84H142.839H142.839H142.838H142.838H142.837H142.837H142.836H142.836H142.835H142.835H142.834H142.834H142.833H142.833H142.832H142.832H142.831H142.831H142.83H142.83H142.829H142.828H142.828H142.827H142.827H142.826H142.826H142.825H142.825H142.824H142.824H142.823H142.823H142.822H142.822H142.821H142.821H142.82H142.82H142.819H142.819H142.818H142.818H142.817H142.817H142.816H142.816H142.815H142.815H142.814H142.814H142.813H142.813H142.812H142.812H142.811H142.811H142.81H142.81H142.809H142.809H142.808H142.808H142.807H142.807H142.806H142.806H142.805H142.805H142.804H142.804H142.803H142.803H142.802H142.801H142.801H142.8H142.8H142.799H142.799H142.798H142.798H142.797H142.797H142.796H142.796H142.795H142.795H142.794H142.794H142.793H142.793H142.792H142.792H142.791H142.791H142.79H142.79H142.789H142.789H142.788H142.788H142.787H142.787H142.786H142.786H142.785H142.785H142.784H142.784H142.783H142.783H85.8801Z" stroke="#0078D4" stroke-width="2"/>
<path d="M25.1869 14.0347L26.4915 15.4123L26.8907 13.5575C28.4449 6.33599 34.8245 1 42.5217 1C51.448 1 58.6522 8.22934 58.6522 17.0983C58.6522 19.0517 58.2467 20.9417 57.5816 22.7768L58.5217 23.1175L48.1739 44.6648V43.6648H48.1705H48.1662H48.1612H48.1555H48.1489H48.1416H48.1335H48.1247H48.1151H48.1047H48.0936H48.0818H48.0692H48.0559H48.0418H48.027H48.0114H47.9951H47.9781H47.9604H47.942H47.9228H47.9029H47.8823H47.861H47.839H47.8163H47.7929H47.7688H47.7439H47.7185H47.6923H47.6654H47.6379H47.6096H47.5807H47.5512H47.5209H47.49H47.4584H47.4262H47.3933H47.3598H47.3256H47.2907H47.2552H47.2191H47.1823H47.1449H47.1069H47.0682H47.0289H46.989H46.9485H46.9073H46.8656H46.8232H46.7802H46.7366H46.6924H46.6476H46.6022H46.5563H46.5097H46.4625H46.4148H46.3665H46.3176H46.2681H46.218H46.1674H46.1162H46.0645H46.0122H45.9593H45.9059H45.8519H45.7974H45.7424H45.6868H45.6306H45.574H45.5168H45.459H45.4008H45.342H45.2827H45.2229H45.1625H45.1017H45.0404H44.9785H44.9162H44.8533H44.79H44.7261H44.6618H44.597H44.5317H44.4659H44.3996H44.3329H44.2657H44.198H44.1299H44.0613H43.9923H43.9227H43.8528H43.7824H43.7115H43.6402H43.5685H43.4963H43.4237H43.3506H43.2772H43.2033H43.1289H43.0542H42.9791H42.9035H42.8275H42.7511H42.6743H42.5971H42.5196H42.4416H42.3632H42.2844H42.2053H42.1258H42.0459H41.9656H41.8849H41.8039H41.7225H41.6407H41.5586H41.4761H41.3933H41.3101H41.2266H41.1427H41.0585H40.9739H40.889H40.8038H40.7182H40.6323H40.5461H40.4596H40.3727H40.2855H40.198H40.1103H40.0222H39.9338H39.845H39.7561H39.6668H39.5772H39.4873H39.3971H39.3067H39.216H39.125H39.0337H38.9422H38.8504H38.7583H38.666H38.5734H38.4806H38.3875H38.2942H38.2006H38.1068H38.0127H37.9184H37.8239H37.7291H37.6341H37.5389H37.4435H37.3478H37.252H37.1559H37.0596H36.9631H36.8664H36.7695H36.6724H36.5752H36.4777H36.38H36.2822H36.1842H36.086H35.9876H35.889H35.7903H35.6914H35.5924H35.4932H35.3938H35.2943H35.1946H35.0948H34.9949H34.8948H34.7945H34.6942H34.5937H34.493H34.3923H34.2914H34.1904H34.0893H33.988H33.8867H33.7852H33.6837H33.582H33.4803H33.3784H33.2765H33.1744H33.0723H32.9701H32.8678H32.7654H32.663H32.5605H32.4579H32.3553H32.2526H32.1498H32.047H31.9441H31.8412H31.7382H31.6352H31.5322H31.4291H31.326H31.2228H31.1196H31.0164H30.9132H30.8099H30.7066H30.6034H30.5001H30.3968H30.2935H30.1902H30.0869H29.9836H29.8803H29.777H29.6737H29.5705H29.4673H29.3641H29.2609H29.1578H29.0546H28.9516H28.8485H28.7455H28.6426H28.5397H28.4368H28.334H28.2313H28.1286H28.026H27.9234H27.8209H27.7185H27.6162H27.5139H27.4118H27.3097H27.2077H27.1057H27.0039H26.9022H26.8006H26.6991H26.5976H26.4963H26.3951H26.2941H26.1931H26.0923H25.9915H25.8909H25.7905H25.6902H25.59H25.4899H25.39H25.2903H25.1906H25.0912H24.9919H24.8927H24.7937H24.6949H24.5962H24.4978H24.3994H24.3013H24.2033H24.1056H24.008H23.9106H23.8133H23.7163H23.6195H23.5229H23.4265H23.3303H23.2343H23.1385H23.0429H22.9475H22.8524H22.7575H22.6628H22.5684H22.4741H22.3802H22.2864H22.1929H22.0997H22.0067H21.9139H21.8214H21.7292H21.6372H21.5455H21.4541H21.3629H21.272H21.1814H21.091H21.001H20.9112H20.8217H20.7325H20.6436H20.555H20.4668H20.3788H20.2911H20.2037H20.1166H20.0299H19.9435H19.8574H19.7716H19.6861H19.601H19.5162H19.4318H19.3477H19.2639H19.1805H19.0974H19.0147H18.9324H18.8504H18.7687H18.6875H18.6066H18.526H18.4459H18.3661H18.2867H18.2077H18.1291H18.0508H17.973H17.8955H17.8185H17.7418H17.6656H17.5898H17.5143H17.4393H17.3647H17.2906H17.2168H17.1435H17.0706H16.9981H16.9261H16.8545H16.7834H16.7127H16.6424H16.5726H16.5033H16.4344H16.3659H16.298H16.2304H16.1634H16.0968H16.0308H15.9651H15.9H15.8354H15.7712H15.7075H15.6444H15.5817H15.5195H15.4578H15.3967H15.336H15.2758H15.2162H15.1571H15.0985H15.0404H14.9829H14.9258H14.8694H14.8134H14.758H14.7031H14.6488H14.595H14.5418H14.4892H14.437H14.3855H14.3345H14.2841H14.2342H14.185H14.1363H14.0881H14.0406H13.9936H13.9473H13.9015H13.8563H13.8117H13.7677H13.7243H13.6816H13.6394H13.5979H13.5569H13.5166H13.4769H13.4378H13.3994H13.3616H13.3244H13.2878H13.2519H13.2167H13.182H13.1481H13.1148H13.0821H13.0501H13.0187H12.9881H12.9581H12.9287H12.9H12.8721H12.8447H12.8181H12.7922H12.7669H12.7424H12.7185H12.6953H12.6729H12.6511H12.63H12.6097H12.59H12.5711H12.5529H12.5354H12.5187H12.5027H12.4874H12.4728H12.459H12.4459H12.4336H12.422H12.4112H12.4011H12.3917H12.3832H12.3753H12.3683H12.362H12.3565H12.3518H12.3478C6.11594 43.6648 1 38.6151 1 32.2773C1 26.6529 4.9192 22.0862 10.1098 21.0447L10.913 20.8836V20.0643V20.0638V20.0633V20.0627V20.0622V20.0617V20.0612V20.0607V20.0602V20.0597V20.0592V20.0587V20.0581V20.0576V20.0571V20.0566V20.0561V20.0556V20.0551V20.0546V20.0541V20.0535V20.053V20.0525V20.052V20.0515V20.051V20.0505V20.05V20.0495V20.0489V20.0484V20.0479V20.0474V20.0469V20.0464V20.0459V20.0454V20.0449V20.0443V20.0438V20.0433V20.0428V20.0423V20.0418V20.0413V20.0408V20.0403V20.0397V20.0392V20.0387V20.0382V20.0377V20.0372V20.0367V20.0362V20.0357V20.0351V20.0346V20.0341V20.0336V20.0331V20.0326V20.0321V20.0316V20.0311V20.0305V20.03V20.0295V20.029V20.0285V20.028V20.0275V20.027V20.0265V20.0259V20.0254V20.0249V20.0244V20.0239V20.0234V20.0229V20.0224V20.0219V20.0213V20.0208V20.0203V20.0198V20.0193V20.0188V20.0183V20.0178V20.0173V20.0167V20.0162V20.0157V20.0152V20.0147V20.0142V20.0137V20.0132V20.0127V20.0121V20.0116V20.0111V20.0106V20.0101V20.0096V20.0091V20.0086V20.0081V20.0075V20.007V20.0065V20.006V20.0055V20.005V20.0045V20.004V20.0035V20.0029V20.0024V20.0019V20.0014V20.0009V20.0004V19.9999V19.9994V19.9989V19.9983V19.9978V19.9973V19.9968V19.9963V19.9958V19.9953V19.9948V19.9943V19.9937V19.9932V19.9927V19.9922V19.9917V19.9912V19.9907V19.9902V19.9897V19.9891V19.9886V19.9881V19.9876V19.9871V19.9866V19.9861V19.9856V19.9851V19.9845V19.984V19.9835V19.983V19.9825V19.982V19.9815V19.981V19.9804V19.9799V19.9794V19.9789V19.9784V19.9779V19.9774V19.9769V19.9764V19.9758V19.9753V19.9748V19.9743V19.9738V19.9733V19.9728V19.9723V19.9718V19.9713V19.9707V19.9702V19.9697V19.9692V19.9687V19.9682V19.9677V19.9672V19.9667V19.9661V19.9656V19.9651V19.9646V19.9641V19.9636V19.9631V19.9626V19.962V19.9615V19.961V19.9605V19.96V19.9595V19.959V19.9585V19.958V19.9574V19.9569V19.9564V19.9559V19.9554V19.9549V19.9544V19.9539V19.9534V19.9528V19.9523V19.9518V19.9513V19.9508V19.9503V19.9498V19.9493V19.9488V19.9482V19.9477V19.9472V19.9467V19.9462V19.9457V19.9452V19.9447V19.9442V19.9436V19.9431V19.9426V19.9421V19.9416V19.9411V19.9406V19.9401V19.9396V19.939V19.9385V19.938V19.9375V19.937V19.9365V19.936V19.9355V19.935V19.9344V19.9339V19.9334V19.9329V19.9324V19.9319V19.9314V19.9309V19.9304V19.9298V19.9293V19.9288V19.9283V19.9278V19.9273V19.9268V19.9263V19.9258V19.9252V19.9247V19.9242V19.9237V19.9232V19.9227V19.9222V19.9217V19.9212V19.9206V19.9201V19.9196V19.9191V19.9186V19.9181V19.9176V19.9171V19.9166V19.916V19.9155V19.915V19.9145V19.914V19.9135V19.913V19.9125V19.912V19.9114V19.9109V19.9104V19.9099V19.9094V19.9089V19.9084V19.9079V19.9074V19.9068V19.9063V19.9058V19.9053V19.9048V19.9043V19.9038V19.9033V19.9028V19.9022V19.9017V19.9012V19.9007V19.9002V19.8997V19.8992V19.8987V19.8982V19.8976V19.8971V19.8966V19.8961V19.8956V19.8951V19.8946V19.8941V19.8936V19.893V19.8925V19.892V19.8915V19.891V19.8905V19.89V19.8895V19.889V19.8884V19.8879V19.8874V19.8869V19.8864V19.8859V19.8854V19.8849V19.8844V19.8838V19.8833V19.8828V19.8823V19.8818V19.8813V19.8808V19.8803V19.8798V19.8792V19.8787V19.8782V19.8777V19.8772V19.8767V19.8762V19.8757V19.8752V19.8746V19.8741V19.8736V19.8731V19.8726V19.8721V19.8716V19.8711V19.8706V19.87V19.8695V19.869V19.8685V19.868V19.8675V19.867V19.8665V19.866V19.8654V19.8649V19.8644V19.8639V19.8634V19.8629V19.8624V19.8619V19.8614V19.8608V19.8603V19.8598V19.8593V19.8588V19.8583V19.8578V19.8573V19.8568V19.8562V19.8557V19.8552V19.8547V19.8542V19.8537V19.8532V19.8527V19.8522V19.8516V19.8511V19.8506V19.8501V19.8496V19.8491V19.8486V19.8481V19.8476V19.847V19.8465V19.846V19.8455V19.845V19.8445V19.844V19.8435V19.843V19.8424V19.8419V19.8414V19.8409V19.8404V19.8399V19.8394V19.8389V19.8384V19.8378V19.8373V19.8368V19.8363V19.8358V19.8353V19.8348V19.8343V19.8337V19.8332V19.8327V19.8322V19.8317V19.8312V19.8307V19.8302V19.8297V19.8291V19.8286V19.8281V19.8276V19.8271V19.8266V19.8261V19.8256V19.8251V19.8246V19.824V19.8235V19.823V19.8225V19.822V19.8215V19.821V19.8205V19.82V19.8194V19.8189V19.8184V19.8179V19.8174V19.8169V19.8164V19.8159V19.8153V19.8148V19.8143V19.8138V19.8133V19.8128V19.8123V19.8118V19.8113V19.8107V19.8102V19.8097V19.8092V19.8087V19.8082V19.8077V19.8072V19.8067V19.8061V19.8056V19.8051V19.8046V19.8041V19.8036V19.8031V19.8026C10.913 15.2049 14.6423 11.4683 19.2174 11.4683C21.5402 11.4683 23.7158 12.4811 25.1869 14.0347Z" stroke="#0078D4" stroke-width="2"/>
<path d="M116.522 44.1414C116.522 77.1166 89.4783 94.8255 80 95C80.087 95 80.087 95 80.1739 95H79.8261C79.9131 95 79.9131 95 80 95C70.4348 94.8255 43.4783 77.1166 43.4783 44.1414C43.4783 37.2497 43.4783 19.1919 43.4783 19.1919C43.4783 19.1919 44.2609 19.2791 45.6522 19.2791C51.0435 19.2791 65.4783 17.8833 80.1739 4.01282C98.6957 18.7557 114.522 19.1919 116.348 19.1919C116.435 19.1919 116.522 19.1919 116.522 19.1919C116.522 19.1919 116.522 37.2497 116.522 44.1414Z" fill="white"/>
<path d="M116.348 19.1919C114.522 19.1919 98.6957 18.7557 80.1739 4.01282C65.4783 17.8833 51.0435 19.3664 45.6522 19.3664C44.2609 19.3664 43.4783 19.1919 43.4783 19.1919C43.4783 19.1919 43.4783 37.2497 43.4783 44.1414C43.4783 77.1166 70.5218 94.8255 80 95C89.4783 94.7383 116.522 77.1166 116.522 44.1414C116.522 37.2497 116.522 19.1919 116.522 19.1919C116.522 19.1919 116.435 19.1919 116.348 19.1919Z" fill="#0078D4"/>
<path d="M91.4782 46.9329V38.2093C91.4782 31.9284 86.3478 26.7814 80.0869 26.7814C73.8261 26.7814 68.6956 31.9284 68.6956 38.2093V46.9329H65.4782V67.1717H94.4348V46.9329H91.4782ZM72.6087 45.6244V38.2093C72.6087 34.1093 76 30.7071 80.0869 30.7071C84.1739 30.7071 87.5652 34.1093 87.5652 38.2093V46.9329H72.6087V45.6244ZM80.9565 57.1396V61.6758H79.1304V57.1396C78.3478 56.7906 77.7391 56.0055 77.7391 55.0459C77.7391 53.8246 78.7826 52.7778 80 52.7778C81.2174 52.7778 82.2608 53.8246 82.2608 55.0459C82.3478 56.0055 81.7391 56.7906 80.9565 57.1396Z" fill="white"/>
</svg>
