<svg xmlns="http://www.w3.org/2000/svg" xmlns:xlink="http://www.w3.org/1999/xlink" width="40%" height="40%" viewBox="0 0 122.583 59.23">
  <defs>
    <linearGradient id="linear-gradient" x1="1.117" y1="0.141" x2="0.157" y2="1.239" gradientUnits="objectBoundingBox">
      <stop offset="0" stop-color="#fdce12"/>
      <stop offset="0.082" stop-color="#fcc715"/>
      <stop offset="0.196" stop-color="#fab51f"/>
      <stop offset="0.331" stop-color="#f8972f"/>
      <stop offset="0.48" stop-color="#f46d46"/>
      <stop offset="0.64" stop-color="#ef3763"/>
      <stop offset="0.695" stop-color="#ee246e"/>
      <stop offset="1" stop-color="#952589"/>
    </linearGradient>
    <linearGradient id="linear-gradient-2" x1="0.546" y1="0.373" x2="-0.27" y2="1.259" gradientUnits="objectBoundingBox">
      <stop offset="0" stop-color="#fdce12"/>
      <stop offset="0.32" stop-color="#f68539"/>
      <stop offset="0.765" stop-color="#ee246e"/>
      <stop offset="1" stop-color="#952589"/>
    </linearGradient>
    <linearGradient id="linear-gradient-3" x1="1.226" y1="0.157" x2="0.271" y2="1.024" gradientUnits="objectBoundingBox">
      <stop offset="0" stop-color="#fdce12"/>
      <stop offset="0.066" stop-color="#fcc615"/>
      <stop offset="0.165" stop-color="#fab220"/>
      <stop offset="0.283" stop-color="#f79132"/>
      <stop offset="0.418" stop-color="#f3634b"/>
      <stop offset="0.564" stop-color="#ee296b"/>
      <stop offset="0.576" stop-color="#ee246e"/>
      <stop offset="0.645" stop-color="#dd2473"/>
      <stop offset="0.883" stop-color="#a92482"/>
      <stop offset="1" stop-color="#952589"/>
    </linearGradient>
    <linearGradient id="linear-gradient-4" x1="1.247" y1="0.057" x2="0.03" y2="0.497" xlink:href="#linear-gradient-3"/>
    <linearGradient id="linear-gradient-5" x1="0.338" y1="0.471" x2="-0.19" y2="0.799" gradientUnits="objectBoundingBox">
      <stop offset="0" stop-color="#fdce12"/>
      <stop offset="0.293" stop-color="#f68539"/>
      <stop offset="0.7" stop-color="#ee246e"/>
      <stop offset="1" stop-color="#952589"/>
    </linearGradient>
    <linearGradient id="linear-gradient-6" y1="0.5" x2="1" y2="0.5" gradientUnits="objectBoundingBox">
      <stop offset="0.206" stop-color="#fdce12"/>
      <stop offset="0.24" stop-color="#fbc214"/>
      <stop offset="0.387" stop-color="#f5961c"/>
      <stop offset="0.518" stop-color="#f07622"/>
      <stop offset="0.628" stop-color="#ed6326"/>
      <stop offset="0.703" stop-color="#ed5c28"/>
      <stop offset="0.922" stop-color="#eb462f"/>
    </linearGradient>
    <linearGradient id="linear-gradient-8" x1="2.458" y1="0.158" x2="-2.449" y2="1.009" xlink:href="#linear-gradient"/>
    <linearGradient id="linear-gradient-9" x1="2.062" y1="0.169" x2="-1.799" y2="1.012" xlink:href="#linear-gradient"/>
    <linearGradient id="linear-gradient-10" x1="1.115" y1="0.334" x2="-0.524" y2="0.672" xlink:href="#linear-gradient-6"/>
    <linearGradient id="linear-gradient-12" x1="1.403" y1="-0.018" x2="-0.784" y2="1.039" gradientUnits="objectBoundingBox">
      <stop offset="0.061" stop-color="#390966"/>
      <stop offset="0.173" stop-color="#4e0e7d"/>
      <stop offset="0.26" stop-color="#481c83"/>
      <stop offset="0.429" stop-color="#3a4395"/>
      <stop offset="0.659" stop-color="#2382b2"/>
      <stop offset="0.756" stop-color="#199fc0"/>
      <stop offset="0.862" stop-color="#1ea3c3"/>
      <stop offset="0.999" stop-color="#2eb0ce"/>
      <stop offset="1" stop-color="#2fb1cf"/>
    </linearGradient>
    <linearGradient id="linear-gradient-13" x1="2" y1="0.061" x2="-0.021" y2="0.688" gradientUnits="objectBoundingBox">
      <stop offset="0" stop-color="#390966"/>
      <stop offset="0.237" stop-color="#4e0e7d"/>
      <stop offset="0.373" stop-color="#442788"/>
      <stop offset="0.661" stop-color="#2c68a6"/>
      <stop offset="0.884" stop-color="#199fc0"/>
      <stop offset="0.934" stop-color="#1ea3c3"/>
      <stop offset="0.999" stop-color="#2eb0ce"/>
      <stop offset="1" stop-color="#2fb1cf"/>
    </linearGradient>
    <linearGradient id="linear-gradient-14" x1="1.212" y1="-0.227" x2="0.049" y2="0.867" gradientUnits="objectBoundingBox">
      <stop offset="0" stop-color="#390966"/>
      <stop offset="0.128" stop-color="#450c74"/>
      <stop offset="0.255" stop-color="#4e0e7d"/>
      <stop offset="0.386" stop-color="#422d8b"/>
      <stop offset="0.67" stop-color="#257cb0"/>
      <stop offset="0.785" stop-color="#199fc0"/>
      <stop offset="0.878" stop-color="#1ea3c3"/>
      <stop offset="0.999" stop-color="#2eb0ce"/>
      <stop offset="1" stop-color="#2fb1cf"/>
    </linearGradient>
    <linearGradient id="linear-gradient-15" x1="1.875" y1="-0.083" x2="-0.05" y2="0.893" gradientUnits="objectBoundingBox">
      <stop offset="0.089" stop-color="#4e0e7d"/>
      <stop offset="0.234" stop-color="#3c3f93"/>
      <stop offset="0.378" stop-color="#2c68a6"/>
      <stop offset="0.507" stop-color="#2186b4"/>
      <stop offset="0.619" stop-color="#1b98bd"/>
      <stop offset="0.698" stop-color="#199fc0"/>
      <stop offset="0.82" stop-color="#1ea3c3"/>
      <stop offset="0.978" stop-color="#2eb0ce"/>
      <stop offset="0.979" stop-color="#2fb1cf"/>
    </linearGradient>
    <linearGradient id="linear-gradient-16" x1="0.306" y1="1.129" x2="0.775" y2="0.16" gradientUnits="objectBoundingBox">
      <stop offset="0" stop-color="#161616" stop-opacity="0"/>
      <stop offset="1" stop-color="#161616" stop-opacity="0.6"/>
    </linearGradient>
    <linearGradient id="linear-gradient-17" x1="0.271" y1="1.029" x2="0.882" y2="0.108" xlink:href="#linear-gradient-16"/>
    <linearGradient id="linear-gradient-18" x1="1.043" y1="0.028" x2="-0.014" y2="1.236" gradientUnits="objectBoundingBox">
      <stop offset="0" stop-color="#4e0e7d"/>
      <stop offset="0.029" stop-color="#4c127f"/>
      <stop offset="0.498" stop-color="#305da1"/>
      <stop offset="0.833" stop-color="#1f8cb7"/>
      <stop offset="1" stop-color="#199fc0"/>
    </linearGradient>
    <linearGradient id="linear-gradient-19" x1="1.528" y1="0.552" x2="-0.479" y2="0.442" xlink:href="#linear-gradient-18"/>
    <linearGradient id="linear-gradient-20" x1="-1.042" y1="0.884" x2="1.756" y2="0.193" xlink:href="#linear-gradient-16"/>
    <linearGradient id="linear-gradient-21" x1="0.669" y1="0.347" x2="0.105" y2="1.2" gradientUnits="objectBoundingBox">
      <stop offset="0" stop-color="#fdce12"/>
      <stop offset="0.318" stop-color="#f68539"/>
      <stop offset="0.761" stop-color="#ee246e"/>
      <stop offset="1" stop-color="#952589"/>
    </linearGradient>
    <linearGradient id="linear-gradient-22" x1="0.094" y1="0.23" x2="0.591" y2="0.487" gradientUnits="objectBoundingBox">
      <stop offset="0" stop-color="#fff"/>
      <stop offset="0.998" stop-color="#fff" stop-opacity="0"/>
    </linearGradient>
    <linearGradient id="linear-gradient-23" x1="1.418" y1="0.342" x2="-0.27" y2="0.625" xlink:href="#linear-gradient-22"/>
    <linearGradient id="linear-gradient-24" x1="0.529" y1="0.524" x2="0.483" y2="0.824" xlink:href="#linear-gradient-22"/>
  </defs>
  <g id="Logo" transform="translate(-575.161 -400.512)">
    <g id="Group_40" data-name="Group 40">
      <path id="Path_181" data-name="Path 181" d="M625.625,432.907l-.408-1.113H622.4l-.417,1.113h-2.128l2.973-6.969h2.127l2.873,6.969Zm-2.644-2.624h1.69l-.835-2.276Z" fill="#0b0620"/>
      <path id="Path_182" data-name="Path 182" d="M633.309,425.938h2.068v5.239H638.3v1.73h-4.99Z" fill="#0b0620"/>
      <path id="Path_183" data-name="Path 183" d="M649.239,426.585a2.3,2.3,0,0,1,.74,1.829,2.5,2.5,0,0,1-.74,1.928,2.967,2.967,0,0,1-2.093.686l-1.093.01v1.869h-2.068v-6.969h3.161A3.083,3.083,0,0,1,649.239,426.585Zm-1.471,2.6a.958.958,0,0,0,.253-.716.929.929,0,0,0-.253-.7,1,1,0,0,0-.72-.243h-.995v1.908h.995A.987.987,0,0,0,647.768,429.189Z" fill="#0b0620"/>
      <path id="Path_184" data-name="Path 184" d="M660.278,432.907l-.407-1.113h-2.814l-.417,1.113h-2.128l2.973-6.969h2.127l2.873,6.969Zm-2.644-2.624h1.69l-.835-2.276Z" fill="#0b0620"/>
      <path id="Path_185" data-name="Path 185" d="M675.279,433.841a3.267,3.267,0,0,1-.975.562,3.1,3.1,0,0,1-1.1.214,2.227,2.227,0,0,1-1.327-.423,2.7,2.7,0,0,1-.909-1.147,3.988,3.988,0,0,1-1.854-.533,3.473,3.473,0,0,1-1.283-1.292,3.6,3.6,0,0,1-.462-1.814,3.512,3.512,0,0,1,.492-1.844,3.477,3.477,0,0,1,1.357-1.288,4.288,4.288,0,0,1,3.892,0,3.472,3.472,0,0,1,1.854,3.132,3.54,3.54,0,0,1-.6,2.022,3.5,3.5,0,0,1-1.6,1.308.842.842,0,0,0,.666.357,1.368,1.368,0,0,0,.527-.133,3.378,3.378,0,0,0,.626-.364Zm-5.562-3.459a1.836,1.836,0,0,0,.626.691,1.537,1.537,0,0,0,.85.253,1.471,1.471,0,0,0,.83-.253,1.761,1.761,0,0,0,.6-.686,2.127,2.127,0,0,0,.218-.969,2.1,2.1,0,0,0-.218-.959,1.739,1.739,0,0,0-.6-.682,1.492,1.492,0,0,0-.835-.248,1.565,1.565,0,0,0-.85.248,1.816,1.816,0,0,0-.626.682,1.979,1.979,0,0,0-.234.959A2.012,2.012,0,0,0,669.717,430.382Z" fill="#0b0620"/>
      <path id="Path_186" data-name="Path 186" d="M685.637,432.907l-.408-1.113h-2.812L682,432.907h-2.127l2.971-6.969h2.128l2.873,6.969Zm-2.644-2.624h1.69l-.835-2.276Z" fill="#0b0620"/>
    </g>
    <g id="Group_41" data-name="Group 41">
      <path id="Path_187" data-name="Path 187" d="M622.468,439.747a3.024,3.024,0,0,0-.85-.137,1.565,1.565,0,0,0-.861.208.643.643,0,0,0-.321.568.751.751,0,0,0,.194.534,1.384,1.384,0,0,0,.476.327c.188.079.449.172.785.277a8.97,8.97,0,0,1,1.014.37,1.75,1.75,0,0,1,.661.526,1.442,1.442,0,0,1,.274.92,1.539,1.539,0,0,1-.287.926,1.845,1.845,0,0,1-.8.614,3.054,3.054,0,0,1-1.187.215,3.454,3.454,0,0,1-1.322-.264,3.562,3.562,0,0,1-1.111-.7l.378-.733a3.17,3.17,0,0,0,.993.666,2.728,2.728,0,0,0,1.071.234,1.7,1.7,0,0,0,.975-.243.754.754,0,0,0,.357-.657.765.765,0,0,0-.194-.537,1.37,1.37,0,0,0-.49-.336q-.3-.123-.8-.273a7.732,7.732,0,0,1-1.005-.362,1.731,1.731,0,0,1-.658-.52,1.432,1.432,0,0,1-.269-.908,1.463,1.463,0,0,1,.273-.873,1.737,1.737,0,0,1,.768-.582,3,3,0,0,1,1.146-.2,3.662,3.662,0,0,1,1.089.164,3.59,3.59,0,0,1,.948.436l-.352.758A3.589,3.589,0,0,0,622.468,439.747Z" fill="#0b0620"/>
      <path id="Path_188" data-name="Path 188" d="M631.45,438.87h4.824v.776h-1.993v5.4h-.847v-5.4H631.45Z" fill="#0b0620"/>
      <path id="Path_189" data-name="Path 189" d="M645.485,443.856a1.737,1.737,0,0,0,1.3.482,1.71,1.71,0,0,0,1.287-.482,1.838,1.838,0,0,0,.468-1.336v-3.65h.846v3.65a2.557,2.557,0,0,1-.692,1.9,2.592,2.592,0,0,1-1.909.687,2.62,2.62,0,0,1-1.923-.687,2.547,2.547,0,0,1-.7-1.9v-3.65h.846v3.65A1.828,1.828,0,0,0,645.485,443.856Z" fill="#0b0620"/>
      <path id="Path_190" data-name="Path 190" d="M662.214,439.271a2.948,2.948,0,0,1,1.141,1.107,3.2,3.2,0,0,1,0,3.157,2.964,2.964,0,0,1-1.151,1.106,3.345,3.345,0,0,1-1.64.4h-2.487V438.87h2.514A3.322,3.322,0,0,1,662.214,439.271Zm-.442,4.7a2.176,2.176,0,0,0,.829-.828,2.446,2.446,0,0,0,0-2.373,2.251,2.251,0,0,0-.842-.833,2.351,2.351,0,0,0-1.186-.305H658.92v4.639H660.6A2.309,2.309,0,0,0,661.772,443.975Z" fill="#0b0620"/>
      <path id="Path_191" data-name="Path 191" d="M672.033,438.87h.847v6.173h-.847Z" fill="#0b0620"/>
      <path id="Path_192" data-name="Path 192" d="M686.032,439.231a3.113,3.113,0,0,1,1.178,1.133,3.014,3.014,0,0,1,.431,1.583,3.062,3.062,0,0,1-.431,1.592,3.124,3.124,0,0,1-1.178,1.146,3.4,3.4,0,0,1-3.272,0,3.121,3.121,0,0,1-1.177-1.146,3.062,3.062,0,0,1-.432-1.592,3.015,3.015,0,0,1,.432-1.583,3.12,3.12,0,0,1,1.173-1.133,3.447,3.447,0,0,1,3.276,0Zm-2.822.661a2.4,2.4,0,0,0-.877.861,2.265,2.265,0,0,0-.326,1.194,2.3,2.3,0,0,0,.326,1.2,2.432,2.432,0,0,0,.877.868,2.328,2.328,0,0,0,1.2.323,2.28,2.28,0,0,0,1.186-.323,2.431,2.431,0,0,0,.865-.868,2.33,2.33,0,0,0,.321-1.2,2.3,2.3,0,0,0-.321-1.194,2.4,2.4,0,0,0-.865-.861,2.313,2.313,0,0,0-1.186-.317A2.361,2.361,0,0,0,683.21,439.892Z" fill="#0b0620"/>
    </g>
    <g id="Group_47" data-name="Group 47">
      <ellipse id="Ellipse_3" data-name="Ellipse 3" cx="17.535" cy="0.599" rx="17.535" ry="0.599" transform="translate(578.054 458.662)" fill="#e5e5e5"/>
      <g id="Group_46" data-name="Group 46">
        <g id="Group_42" data-name="Group 42">
          <path id="Path_193" data-name="Path 193" d="M604.107,423.314h0s.809,2.593-.594,6.8c-1.25,3.752-2.911,9.328-9.854,13.656,3.435.762,7.406,1.141,10.492-1.447C605.266,437.273,607.824,430.147,604.107,423.314Z" fill="url(#linear-gradient)"/>
        </g>
        <path id="Path_194" data-name="Path 194" d="M612.4,406.105a5.559,5.559,0,0,1-1.482,2.05c-3.13,1.274-7.064.478-7.963-1.789a6.007,6.007,0,0,1,.471-5.166,4.5,4.5,0,0,0-.44,2.08,1.566,1.566,0,0,0,1.574,1.44l6.849.019A1.043,1.043,0,0,1,612.4,406.105Z" fill="url(#linear-gradient-2)"/>
        <path id="Path_195" data-name="Path 195" d="M604.107,423.314c-.016-.077-.038-.163-.056-.242a6.029,6.029,0,0,1,.176,2.659,1.584,1.584,0,0,1-.351.638c-1.034,1.733-4.505,6.6-12.163,9.391a20.679,20.679,0,0,1-5.285,7.1c2-1.944,11.6,4.59,17.723-.542C605.266,437.273,607.824,430.147,604.107,423.314Z" fill="url(#linear-gradient-3)"/>
        <g id="Group_43" data-name="Group 43">
          <path id="Path_196" data-name="Path 196" d="M591.715,435.759c7.656-2.79,11.127-7.657,12.161-9.39.024-.027.04-.06.063-.088-1.394,1.793-6.717.638-12.253.138A11.244,11.244,0,0,1,591.715,435.759Z" fill="url(#linear-gradient-4)"/>
        </g>
        <path id="Path_197" data-name="Path 197" d="M602.956,406.366a6.007,6.007,0,0,1,.471-5.166c-4.613,5.769,2.056,12.437,2.056,12.437a1.763,1.763,0,0,1,.836-2.649,13.962,13.962,0,0,0,4.6-2.833C607.789,409.429,603.855,408.633,602.956,406.366Z" fill="url(#linear-gradient-5)"/>
        <path id="Path_198" data-name="Path 198" d="M608.95,458.605c-1.806-15.847,10.248-20.522,1.812-36.8a36.937,36.937,0,0,0-4.953-5.715,21.287,21.287,0,0,1-5.787-9.264c.088,5.408,3.239,12.43,4.085,16.49,3.717,6.833,1.159,13.959.044,19.008a58.008,58.008,0,0,0,3.553,16.543A.649.649,0,0,0,608.95,458.605Z" fill="url(#linear-gradient-6)"/>
        <g id="Group_44" data-name="Group 44">
          <path id="Path_199" data-name="Path 199" d="M604.107,423.314h0s.809,2.593-.594,6.8c-1.25,3.752-2.911,9.328-9.854,13.656,3.435.762,7.406,1.141,10.492-1.447C605.266,437.273,607.824,430.147,604.107,423.314Z" fill="url(#linear-gradient)"/>
          <path id="Path_200" data-name="Path 200" d="M604.282,444.173q-.018-.186-.033-.369C604.259,443.927,604.27,444.049,604.282,444.173Z" fill="url(#linear-gradient-8)"/>
          <path id="Path_201" data-name="Path 201" d="M604.436,445.586c0,.03.006.059.01.089h0C604.443,445.645,604.44,445.616,604.436,445.586Z" fill="url(#linear-gradient-9)"/>
        </g>
        <path id="Path_202" data-name="Path 202" d="M604.916,419.276a23.977,23.977,0,0,1,3.188,22.568c-2.016,5.955-.542,13.557.447,17.364a.626.626,0,0,0,.4-.6c-1.806-15.847,10.248-20.522,1.812-36.8a36.937,36.937,0,0,0-4.953-5.715,21.287,21.287,0,0,1-5.787-9.264c0,.027,0,.055,0,.082A25.291,25.291,0,0,0,604.916,419.276Z" fill="url(#linear-gradient-10)"/>
        <path id="Path_203" data-name="Path 203" d="M610.762,421.8a36.937,36.937,0,0,0-4.953-5.715,21.287,21.287,0,0,1-5.787-9.264c0,.027,0,.055,0,.082a15.162,15.162,0,0,0,.265,1.934,20.6,20.6,0,0,0,5.039,7.248,36.889,36.889,0,0,1,4.954,5.715c8.342,16.1-3.753,20.052-1.618,37.339a.615.615,0,0,0,.284-.537C607.144,442.758,619.2,438.083,610.762,421.8Z" fill="url(#linear-gradient-6)" style="mix-blend-mode: overlay;isolation: isolate"/>
        <path id="Path_204" data-name="Path 204" d="M591.686,426.418a40.109,40.109,0,0,0-4.49-.188,11.515,11.515,0,0,1-.521,9.091c-2.945,5.89-7.885,10.331-3.821,24.238a.889.889,0,0,0,.354-.311c.384-.537-1.652-12.855,3.22-16.384C586.59,442.706,595.736,435.214,591.686,426.418Z" fill="url(#linear-gradient-12)"/>
        <path id="Path_205" data-name="Path 205" d="M583.027,459.447a.69.69,0,0,1-.163.105A.759.759,0,0,0,583.027,459.447Zm-.163.105-.011,0v0ZM587.2,426.23a13.391,13.391,0,0,0-6.24,1.393,11.421,11.421,0,0,0-5.788,10.64.637.637,0,0,0,1.1.412c.078-.085.154-.163.228-.236a.664.664,0,0,1,1.128.474,46.315,46.315,0,0,0,4.431,20.105c.2.5.5.669.8.538-4.063-13.9.877-18.345,3.822-24.235A11.515,11.515,0,0,0,587.2,426.23Z" fill="url(#linear-gradient-13)"/>
        <path id="Path_206" data-name="Path 206" d="M591.686,426.418c-.13-.012-.261-.021-.391-.032,3.846,8.724-5.135,16.186-5.3,16.345-4.653,3.416-3.234,14.009-3.007,16.739a1,1,0,0,0,.216-.222c.384-.537-1.652-12.855,3.22-16.384C586.59,442.706,595.736,435.214,591.686,426.418Z" fill="url(#linear-gradient-14)"/>
        <path id="Path_207" data-name="Path 207" d="M575.168,438.263a.637.637,0,0,0,1.1.412c.077-.085.154-.163.228-.236a.664.664,0,0,1,1.128.474,46.315,46.315,0,0,0,4.431,20.105c.2.5.5.67.8.541h0c-3.988-10.114-3.088-15.994-.984-22.592s-.687-9.473-.914-9.344A11.421,11.421,0,0,0,575.168,438.263Z" fill="url(#linear-gradient-15)"/>
        <path id="Path_208" data-name="Path 208" d="M591.686,426.418c4.05,8.8-5.1,16.288-5.258,16.446.6-.587,1.9-.4,3.584,0C597.008,432.164,591.686,426.418,591.686,426.418Z" opacity="0.72" fill="url(#linear-gradient-16)"/>
        <path id="Path_209" data-name="Path 209" d="M604.151,442.322a8.218,8.218,0,0,1-2.855,1.554c6.234-14.209,2.887-20.413,2.816-20.554C607.822,430.153,605.266,437.275,604.151,442.322Z" opacity="0.61" fill="url(#linear-gradient-17)"/>
        <path id="Path_210" data-name="Path 210" d="M577.468,430.634a12.052,12.052,0,0,0-2.3,7.629.637.637,0,0,0,1.1.412c.077-.085.154-.163.228-.236a.664.664,0,0,1,1.128.474S579.786,434.1,577.468,430.634Z" fill="url(#linear-gradient-18)"/>
        <path id="Path_211" data-name="Path 211" d="M575.73,438.871a.608.608,0,0,0,.541-.2c.077-.085.154-.163.228-.236a.664.664,0,0,1,1.128.474,11.854,11.854,0,0,0,.893-5C577.711,434.364,576.339,435.6,575.73,438.871Z" fill="url(#linear-gradient-19)"/>
        <path id="Path_212" data-name="Path 212" d="M576.5,438.439a.664.664,0,0,1,1.128.474s2.159-4.809-.159-8.279A11.848,11.848,0,0,1,576.5,438.439Z" opacity="0.56" fill="url(#linear-gradient-20)"/>
        <path id="Path_213" data-name="Path 213" d="M605.483,413.637s-6.669-6.668-2.056-12.437a.491.491,0,0,0-.721-.605c-2.042,1.338-2.726,3.6-2.682,6.236a21.288,21.288,0,0,0,5.784,9.256,36.737,36.737,0,0,1,4.932,5.687A57.433,57.433,0,0,0,605.483,413.637Z" fill="url(#linear-gradient-21)"/>
        <path id="Path_214" data-name="Path 214" d="M581.907,442.29a46.815,46.815,0,0,1-3.939,2.933,49.68,49.68,0,0,0,4.089,13.794c.286.708.767.768,1.151.231s-1.652-12.855,3.22-16.385c.162-.157,9.307-7.65,5.257-16.446C591.685,426.417,593.735,432.479,581.907,442.29Z" fill="url(#linear-gradient-22)" style="mix-blend-mode: soft-light;isolation: isolate"/>
        <g id="Group_45" data-name="Group 45">
          <path id="Path_215" data-name="Path 215" d="M604.161,442.486c0-.054-.008-.11-.01-.164,0,.054.007.11.009.164Z" fill="url(#linear-gradient-23)" style="mix-blend-mode: soft-light;isolation: isolate"/>
          <path id="Path_216" data-name="Path 216" d="M591.228,436.891a21.321,21.321,0,0,1-4.53,5.788c2.473-1.265,11.57,4.576,17.453-.357q.1-.467.221-.958A14.9,14.9,0,0,1,591.228,436.891Z" fill="url(#linear-gradient-24)" style="mix-blend-mode: soft-light;isolation: isolate"/>
        </g>
      </g>
    </g>
  </g>
</svg>
