<svg xmlns="http://www.w3.org/2000/svg" viewBox="0 0 512.76923 512.76923"><title>05_DataMigration</title><path d="M502.89911,253.02683h-7.17663c4.1107-13.31063,5.132-27.666,5.132-41.97871,1.0234-88.09162-70.77284-159.74043-157.94574-159.74043A156.99526,156.99526,0,0,0,193.20573,159.846a100.33448,100.33448,0,0,0-34.88561-6.134c-60.50741,0-108.70473,49.15748-108.70473,109.53819,0,60.13288,47.73839,107.99561,106.82692,108.455V321.505c0-49.45018,83.06221-71.98425,160.24038-71.98425S476.92308,272.05485,476.92308,321.505v50.28343h30.08673c31.7981-3.0467,55.3748-28.66807,55.3748-59.38081A59.47755,59.47755,0,0,0,502.89911,253.02683Z" transform="translate(-49.61538 -51.30769)" style="fill:#2272b9"/><path d="M177.80769,321.505V513.50078c0,27.70877,61.17508,50.15951,136.97562,50.53341v.04273h1.89938c76.69746,0,138.875-22.658,138.875-50.57614V321.505Z" transform="translate(-49.61538 -51.30769)" style="fill:#5bb4da"/><path d="M316.68269,321.505V564.07692c76.69746,0,138.875-22.658,138.875-50.57614V321.505Z" transform="translate(-49.61538 -51.30769)" style="fill:#3999c7"/><path d="M455.55769,321.505c0,27.916-62.17754,50.57614-138.875,50.57614-76.69831,0-138.875-22.66013-138.875-50.57614,0-27.95874,62.17669-50.61887,138.875-50.61887,76.69746,0,138.875,22.66013,138.875,50.61887" transform="translate(-49.61538 -51.30769)" style="fill:#b8d433"/><g style="opacity:0.2"><path d="M92.34615,298.80431A115.66713,115.66713,0,0,1,262.7477,196.81664a159.70813,159.70813,0,0,1,220.85206-58.96205c-26.226-51.3282-79.63947-86.5469-140.69106-86.5469A156.99526,156.99526,0,0,0,193.20573,159.846a100.33448,100.33448,0,0,0-34.88561-6.134c-60.50741,0-108.70473,49.15748-108.70473,109.53819a107.932,107.932,0,0,0,60.73687,97.35565A115.00911,115.00911,0,0,1,92.34615,298.80431Z" transform="translate(-49.61538 -51.30769)" style="fill:#edf0f1"/></g><polygon points="267.067 64.096 181.606 149.558 235.019 149.558 235.019 277.75 299.115 277.75 299.115 149.558 352.529 149.558 267.067 64.096" style="fill:#fff"/></svg>