<svg id="ffb17476-a43b-498e-ac80-df39a9b695a0" data-name="Layer 1" xmlns="http://www.w3.org/2000/svg" width="197.54" height="197.54" viewBox="0 0 197.54 197.54"><defs><style>.\38 32c4292-3174-4835-a364-1753379fb592{fill:#2272b9;}.\32 c96820e-94c0-4fe4-be39-b7c6911aed2d{fill:#5bb4da;}.\30 7784095-52d4-448a-bff7-97af701795ea{fill:#3999c7;}.ba9b422f-9333-4e0b-b671-7745941657e4{fill:#b8d433;}.dfdd98a3-bded-4703-ac54-ae481f7ef6a5{opacity:0.2;}.\32 b789f21-7497-4b24-a41c-ab1b97f61f79{fill:#edf0f1;}.\35 b559b62-a806-48e4-877c-14f4d766114c{fill:#fff;}</style></defs><title>migration-01</title><path class="832c4292-3174-4835-a364-1753379fb592" d="M175.85,78.94h-2.76a55,55,0,0,0,2-16.17A60.78,60.78,0,0,0,56.55,43a38.65,38.65,0,0,0-13.44-2.36A42,42,0,0,0,1.23,82.88a41.5,41.5,0,0,0,41.15,41.78V105.32c0-19.05,32-27.73,61.73-27.73s61.73,8.68,61.73,27.73v19.37h11.59c12.25-1.17,21.33-11,21.33-22.88A22.91,22.91,0,0,0,175.85,78.94Z" transform="translate(-1.23 -1.23)"/><path class="2c96820e-94c0-4fe4-be39-b7c6911aed2d" d="M50.62,105.32v74c0,10.67,23.57,19.32,52.77,19.47v0h0.73c29.55,0,53.5-8.73,53.5-19.48v-74h-107Z" transform="translate(-1.23 -1.23)"/><path class="07784095-52d4-448a-bff7-97af701795ea" d="M104.12,105.32v93.45c29.55,0,53.5-8.73,53.5-19.48v-74h-53.5Z" transform="translate(-1.23 -1.23)"/><path class="ba9b422f-9333-4e0b-b671-7745941657e4" d="M157.62,105.32c0,10.75-24,19.48-53.5,19.48s-53.5-8.73-53.5-19.48,24-19.5,53.5-19.5,53.5,8.73,53.5,19.5" transform="translate(-1.23 -1.23)"/><g class="dfdd98a3-bded-4703-ac54-ae481f7ef6a5"><path class="2b789f21-7497-4b24-a41c-ab1b97f61f79" d="M17.69,96.58A44.56,44.56,0,0,1,83.34,57.29a61.53,61.53,0,0,1,83.79-23.46l1.29,0.75A60.7,60.7,0,0,0,56.55,43a38.65,38.65,0,0,0-13.44-2.36,42,42,0,0,0-18.48,79.7A44.31,44.31,0,0,1,17.69,96.58Z" transform="translate(-1.23 -1.23)"/></g><polygon class="5b559b62-a806-48e4-877c-14f4d766114c" points="102.89 24.69 69.96 57.62 90.54 57.62 90.54 107 115.23 107 115.23 57.62 135.81 57.62 102.89 24.69"/></svg>