<?xml version="1.0" standalone="no"?>
<!DOCTYPE svg PUBLIC "-//W3C//DTD SVG 20010904//EN"
 "http://www.w3.org/TR/2001/REC-SVG-20010904/DTD/svg10.dtd">
<svg version="1.0" xmlns="http://www.w3.org/2000/svg"
 width="400" height="200" viewBox="0 0 690 400">

  <g transform="translate(0.000000,434.000000) scale(0.100000,-0.100000)"
  fill="#000000" stroke="none">
    <path d="M1867 2440 c-84 -21 -147 -70 -184 -143 -67 -133 -25 -289 100 -369
43 -28 62 -33 122 -36 96 -5 143 10 203 63 69 62 95 119 96 209 0 83 -25 146
-82 203 -63 63 -170 93 -255 73z m130 -81 c35 -13 80 -55 101 -94 10 -19 17
-66 20 -131 4 -94 3 -103 -17 -123 -20 -20 -25 -21 -44 -8 -20 13 -23 25 -27
122 -5 105 -5 107 -38 136 -36 32 -69 36 -110 15 -41 -21 -51 -51 -54 -159 -3
-84 -6 -101 -22 -113 -17 -12 -23 -12 -40 0 -18 12 -21 25 -24 102 -2 50 2
109 9 133 14 50 74 117 111 124 45 8 107 7 135 -4z"/>
    <path d="M2507 2356 c-91 -34 -117 -85 -117 -235 0 -94 3 -113 16 -118 38 -14
49 9 54 120 5 104 6 108 37 139 25 24 41 32 66 31 85 -2 110 -43 117 -183 l5
-105 30 0 30 0 3 108 c2 89 -1 115 -17 152 -35 79 -140 122 -224 91z"/>
    <path d="M2920 2358 c-145 -41 -178 -244 -53 -328 34 -23 45 -25 157 -25 l121
0 0 30 0 30 -105 5 c-58 3 -115 11 -127 18 -20 11 -43 41 -43 56 0 3 40 6 88
6 95 0 127 12 120 46 -3 17 -14 20 -97 24 -106 6 -122 17 -69 50 26 16 50 20
120 20 47 0 93 3 102 6 22 9 20 51 -3 64 -24 13 -164 12 -211 -2z"/>
    <path d="M3240 2354 c-16 -18 -15 -202 1 -251 14 -42 70 -90 114 -99 56 -10
122 1 160 27 55 37 69 78 73 203 3 95 2 112 -13 123 -13 8 -23 9 -36 2 -16 -8
-19 -22 -19 -88 0 -106 -8 -137 -42 -172 -41 -40 -95 -40 -140 0 -33 29 -33
30 -38 140 -4 84 -9 114 -20 121 -20 13 -26 12 -40 -6z"/>
    <path d="M3660 2363 c-31 -13 -37 -35 -14 -57 12 -12 38 -16 114 -16 l99 0 36
-35 c39 -40 45 -76 19 -126 -22 -44 -68 -59 -173 -59 -76 0 -92 -3 -100 -18
-6 -11 -6 -24 0 -35 9 -14 26 -17 122 -17 106 0 116 2 155 27 113 73 108 248
-9 313 -37 20 -60 25 -139 27 -52 1 -102 0 -110 -4z"/>
    <path d="M4160 2353 c-55 -18 -76 -37 -101 -85 -46 -89 -10 -206 75 -247 38
-19 58 -21 152 -19 l109 3 0 30 0 30 -107 5 c-88 4 -112 9 -135 26 -15 12 -29
29 -31 38 -3 14 8 16 85 16 100 0 130 12 119 48 -7 21 -14 22 -102 22 -104 0
-117 10 -68 49 23 18 41 21 120 21 51 0 99 3 108 6 22 9 20 51 -3 64 -29 15
-170 11 -221 -7z"/>
    <path d="M4533 2363 c-31 -6 -73 -59 -73 -92 0 -55 36 -83 153 -121 72 -23 95
-46 74 -74 -9 -12 -33 -17 -110 -19 -99 -3 -125 -13 -114 -41 5 -13 26 -16
122 -16 115 0 117 0 146 29 21 22 29 39 29 66 0 53 -40 88 -130 116 -40 12
-82 31 -93 42 l-20 20 23 19 c18 14 40 18 111 18 87 0 89 0 89 24 0 13 -7 27
-16 30 -17 7 -156 6 -191 -1z"/>
    <path d="M4842 2362 c-9 -7 -12 -50 -10 -183 l3 -174 25 0 25 0 3 169 c3 184
-4 214 -46 188z"/>
    <path d="M5066 2355 c-141 -50 -166 -238 -43 -329 24 -18 46 -22 146 -24 100
-3 119 -2 131 13 10 12 11 21 3 33 -8 14 -32 18 -116 22 -100 6 -109 8 -136
34 -38 36 -46 74 -27 119 21 52 58 67 161 67 94 0 125 10 125 40 0 11 -9 24
-19 30 -28 15 -179 12 -225 -5z"/>
  </g>
</svg>
