<?xml version="1.0" encoding="UTF-8"?>
<!DOCTYPE svg PUBLIC "-//W3C//DTD SVG 1.1//EN" "http://www.w3.org/Graphics/SVG/1.1/DTD/svg11.dtd">
<svg xmlns="http://www.w3.org/2000/svg" version="1.1" width="180px" height="180px" style="shape-rendering:geometricPrecision; text-rendering:geometricPrecision; image-rendering:optimizeQuality; fill-rule:evenodd; clip-rule:evenodd" xmlns:xlink="http://www.w3.org/1999/xlink">
<g><path style="opacity:0.848" fill="#070300" d="M 179.5,160.5 C 179.5,165.5 179.5,170.5 179.5,175.5C 176.584,176.811 174.084,176.145 172,173.5C 158.331,154.178 144.164,135.178 129.5,116.5C 115.879,115.352 102.212,115.185 88.5,116C 77.0799,135.399 65.7466,154.899 54.5,174.5C 50.908,176.3 48.2413,175.466 46.5,172C 51.2985,148.678 54.7985,125.178 57,101.5C 47.0128,93.5119 37.6794,84.8452 29,75.5C 28.2382,62.465 27.4049,49.465 26.5,36.5C 19.6575,34.7672 12.6575,33.6006 5.5,33C 3.18867,32.7641 1.18867,31.9307 -0.5,30.5C -0.5,23.1667 -0.5,15.8333 -0.5,8.5C 0.682751,7.49551 2.01608,6.66218 3.5,6C 13.4405,4.23075 23.4405,3.56408 33.5,4C 40.8022,7.65111 48.1356,11.3178 55.5,15C 56.6667,16.1667 57.8333,17.3333 59,18.5C 62.4728,26.7788 66.4728,34.7788 71,42.5C 80.0745,35.0288 88.9079,27.1954 97.5,19C 99.1096,17.5053 100.776,17.3387 102.5,18.5C 108.971,28.6155 115.305,38.7822 121.5,49C 132.265,50.4738 141.932,54.4738 150.5,61C 156.224,68.2802 161.057,76.1135 165,84.5C 169.025,110.119 173.858,135.452 179.5,160.5 Z"/></g>
<g><path style="opacity:1" fill="#fdda00" d="M 14.5,11.5 C 17.5,11.5 20.5,11.5 23.5,11.5C 24.5,11.5 25.5,11.5 26.5,11.5C 26.5,16.5 26.5,21.5 26.5,26.5C 22.5,26.5 18.5,26.5 14.5,26.5C 14.1667,26.5 13.8333,26.5 13.5,26.5C 11.3926,25.5318 9.0593,25.1984 6.5,25.5C 6.5,21.5 6.5,17.5 6.5,13.5C 9.37251,13.1977 12.0392,12.531 14.5,11.5 Z"/></g>
<g><path style="opacity:1" fill="#a38c01" d="M 14.5,11.5 C 12.0392,12.531 9.37251,13.1977 6.5,13.5C 6.5,17.5 6.5,21.5 6.5,25.5C 9.0593,25.1984 11.3926,25.5318 13.5,26.5C 10.8333,26.5 8.16667,26.5 5.5,26.5C 5.33418,21.8215 5.50085,17.1548 6,12.5C 8.71914,11.5562 11.5525,11.2229 14.5,11.5 Z"/></g>
<g><path style="opacity:1" fill="#f95521" d="M 33.5,13.5 C 40.1946,15.6801 46.528,18.6801 52.5,22.5C 57.2551,31.0095 61.7551,39.6762 66,48.5C 64.709,63.5846 62.5424,78.5846 59.5,93.5C 51.8333,86.8333 44.1667,80.1667 36.5,73.5C 35.0869,53.5196 34.0869,33.5196 33.5,13.5 Z"/></g>
<g><path style="opacity:1" fill="#ceb200" d="M 23.5,11.5 C 24.5676,10.5655 25.901,10.2322 27.5,10.5C 27.5,12.8333 27.5,15.1667 27.5,17.5C 27.5,20.8333 27.5,24.1667 27.5,27.5C 26.5,27.5 25.5,27.5 24.5,27.5C 20.9581,27.8128 17.6248,27.4794 14.5,26.5C 18.5,26.5 22.5,26.5 26.5,26.5C 26.5,21.5 26.5,16.5 26.5,11.5C 25.5,11.5 24.5,11.5 23.5,11.5 Z"/></g>
<g><path style="opacity:1" fill="#423a02" d="M 27.5,17.5 C 28.4816,20.9619 28.815,24.6286 28.5,28.5C 26.901,28.7678 25.5676,28.4345 24.5,27.5C 25.5,27.5 26.5,27.5 27.5,27.5C 27.5,24.1667 27.5,20.8333 27.5,17.5 Z"/></g>
<g><path style="opacity:1" fill="#e9b406" d="M 111.5,47.5 C 106.833,48.8333 102.167,48.8333 97.5,47.5C 100.247,47.8134 102.914,47.48 105.5,46.5C 102.833,41.162 99.6664,36.162 96,31.5C 95.1841,32.8228 94.0174,33.4894 92.5,33.5C 94.4278,30.3854 97.0944,28.5521 100.5,28C 104.317,34.4735 107.984,40.9735 111.5,47.5 Z"/></g>
<g><path style="opacity:1" fill="#f9d600" d="M 97.5,47.5 C 92.1667,47.5 86.8333,47.5 81.5,47.5C 80.0222,47.762 78.6888,47.4287 77.5,46.5C 82.2243,41.7706 87.2243,37.4373 92.5,33.5C 94.0174,33.4894 95.1841,32.8228 96,31.5C 99.6664,36.162 102.833,41.162 105.5,46.5C 102.914,47.48 100.247,47.8134 97.5,47.5 Z"/></g>
<g><path style="opacity:1" fill="#776103" d="M 81.5,47.5 C 86.8333,47.5 92.1667,47.5 97.5,47.5C 102.167,48.8333 106.833,48.8333 111.5,47.5C 112.043,47.56 112.376,47.8933 112.5,48.5C 101.987,49.6037 91.6539,49.2703 81.5,47.5 Z"/></g>
<g><path style="opacity:1" fill="#f99401" d="M 59.5,151.5 C 58.8529,150.726 58.5195,149.726 58.5,148.5C 59.7128,142.891 60.3795,137.225 60.5,131.5C 62.117,118.087 64.117,104.754 66.5,91.5C 68.6778,83.0905 70.0111,74.4239 70.5,65.5C 71.0209,61.5191 71.3542,57.5191 71.5,53.5C 85.1595,54.073 98.8261,54.4064 112.5,54.5C 112.657,55.8734 112.49,57.2068 112,58.5C 93.9816,89.2031 76.4816,120.203 59.5,151.5 Z"/></g>
<g><path style="opacity:1" fill="#f49101" d="M 138.5,62.5 C 136.482,70.554 133.482,78.2207 129.5,85.5C 128.833,84.5 128.167,83.5 127.5,82.5C 125.833,73.8333 124.167,65.1667 122.5,56.5C 128.489,56.9878 133.822,58.9878 138.5,62.5 Z"/></g>
<g><path style="opacity:1" fill="#e87600" d="M 138.5,62.5 C 142.248,63.557 144.082,65.8903 144,69.5C 140.517,79.7822 136.35,89.7822 131.5,99.5C 130.67,96.1792 130.003,92.8458 129.5,89.5C 129.5,88.1667 129.5,86.8333 129.5,85.5C 133.482,78.2207 136.482,70.554 138.5,62.5 Z"/></g>
<g><path style="opacity:1" fill="#f55320" d="M 126.5,106.5 C 115.012,107.495 103.345,107.828 91.5,107.5C 99.722,92.06 108.222,76.7267 117,61.5C 120.408,76.3883 123.574,91.3883 126.5,106.5 Z"/></g>
<g><path style="opacity:1" fill="#9c5d02" d="M 70.5,65.5 C 70.0111,74.4239 68.6778,83.0905 66.5,91.5C 66.9889,82.5761 68.3222,73.9095 70.5,65.5 Z"/></g>
<g><path style="opacity:1" fill="#f75420" d="M 150.5,74.5 C 155.314,97.883 159.648,121.383 163.5,145C 163.164,146.03 162.497,146.53 161.5,146.5C 152.136,134.464 143.136,122.131 134.5,109.5C 139.263,96.9882 144.263,84.6548 149.5,72.5C 150.298,72.9569 150.631,73.6236 150.5,74.5 Z"/></g>
<g><path style="opacity:1" fill="#c83e13" d="M 150.5,74.5 C 153.902,79.0957 156.736,84.0957 159,89.5C 162.88,111.157 166.713,132.824 170.5,154.5C 170.333,155.5 170.167,156.5 170,157.5C 166.951,153.957 164.118,150.291 161.5,146.5C 162.497,146.53 163.164,146.03 163.5,145C 159.648,121.383 155.314,97.883 150.5,74.5 Z"/></g>
<g><path style="opacity:1" fill="#673a03" d="M 127.5,82.5 C 128.167,83.5 128.833,84.5 129.5,85.5C 129.5,86.8333 129.5,88.1667 129.5,89.5C 128.076,87.4855 127.41,85.1522 127.5,82.5 Z"/></g>
<g><path style="opacity:1" fill="#4b1a09" d="M 126.5,106.5 C 127.043,106.56 127.376,106.893 127.5,107.5C 115.34,108.825 103.34,108.825 91.5,107.5C 103.345,107.828 115.012,107.495 126.5,106.5 Z"/></g>
<g><path style="opacity:1" fill="#8d5402" d="M 60.5,131.5 C 60.3795,137.225 59.7128,142.891 58.5,148.5C 58.5195,149.726 58.8529,150.726 59.5,151.5C 58.9254,154.015 57.9254,154.515 56.5,153C 57.4747,145.637 58.808,138.471 60.5,131.5 Z"/></g>
</svg>
