<?xml version="1.0" encoding="utf-8"?>
<!-- Generator: Adobe Illustrator 21.1.0, SVG Export Plug-In . SVG Version: 6.00 Build 0)  -->
<svg version="1.1" id="Layer_1" xmlns="http://www.w3.org/2000/svg" xmlns:xlink="http://www.w3.org/1999/xlink" x="0px" y="0px"
	 viewBox="0 0 600 600" style="enable-background:new 0 0 600 600;" xml:space="preserve">
<style type="text/css">
	.st0{fill:#A0A1A2;}
	.st1{fill:#7A7A7A;}
	.st2{fill:#FFFFFF;}
	.st3{fill:#1980CC;}
</style>
<g>
	<path class="st0" d="M409.9,203.4v83H305v86.9H198.7v83.9h-104v88.2c0,9.7,7.9,17.6,17.6,17.6h408.3c9.7,0,17.6-7.9,17.6-17.6v-342
		H409.9z"/>
	<path class="st1" d="M520.6,142.2H409.9v62h128.3v-44.3C538.3,150.2,530.3,142.2,520.6,142.2z"/>
	<rect x="430.2" y="225.3" class="st2" width="91.2" height="61.5"/>
	<rect x="430.2" y="310.1" class="st2" width="91.2" height="61.5"/>
	<rect x="430.2" y="394.8" class="st3" width="91.2" height="61.5"/>
	<rect x="430.2" y="479.6" class="st3" width="91.2" height="61.5"/>
	<rect x="324.8" y="310.1" class="st2" width="91.2" height="61.5"/>
	<rect x="324.8" y="394.8" class="st3" width="91.2" height="61.5"/>
	<rect x="324.8" y="479.6" class="st3" width="91.2" height="61.5"/>
	<rect x="219.3" y="394.8" class="st2" width="91.2" height="61.5"/>
	<rect x="219.3" y="479.6" class="st3" width="91.2" height="61.5"/>
	<rect x="158.3" y="219.7" class="st3" width="99.7" height="67.3"/>
	<rect x="259.2" y="143" class="st3" width="121.5" height="78.1"/>
	<rect x="62.1" y="31.2" class="st3" width="197" height="111.9"/>
	<rect x="113.9" y="479.6" class="st3" width="91.2" height="61.5"/>
	<rect x="63" y="287.7" class="st3" width="96.3" height="64.9"/>
</g>
</svg>
