<svg id="e589162f-b0da-4a3c-9bcf-3ed63410c5a9" data-name="svg4" xmlns="http://www.w3.org/2000/svg" width="200" height="200" viewBox="0 0 200 200"><defs><style>.abf67f73-04c4-44b6-b873-124f60bdaacc{fill:#007acc;}.c6867fce-a219-4af6-8c06-85e0c21d1c57{fill:#b8d432;}.\37 9171bbc-99f4-49fd-8bcc-5ad1d844a4a6{fill:#0072c6;}</style></defs><title>vscode</title><path id="c458b6fc-ea20-4c33-840f-8c9a19755861" data-name="path951" class="abf67f73-04c4-44b6-b873-124f60bdaacc" d="M145.25,46.78V175.61L32.75,158.88l112.5,37.9,37.5-15.58V64.73h0V62.42Z"/><path id="46100637-d99f-477f-a3b0-c7d8020e9c41" data-name="path887" class="abf67f73-04c4-44b6-b873-124f60bdaacc" d="M105.85,68.71l-34.44,34L50.63,87.11,42.1,89.94l21.12,20.88L42.1,131.71l8.54,2.88L71.4,119h0l34.44,34,20.65-8.77V77.48Zm0,24.35v35.71L82.13,110.94Z"/><path class="c6867fce-a219-4af6-8c06-85e0c21d1c57" d="M30.33,47.94a1.49,1.49,0,0,1-1.5-1.5h0a17.06,17.06,0,0,0-17.08-17,1.5,1.5,0,0,1,0-3,17.05,17.05,0,0,0,17.08-17A1.57,1.57,0,0,1,30.38,8a1.55,1.55,0,0,1,1.44,1.44,17.06,17.06,0,0,0,17.08,17,1.5,1.5,0,0,1,0,3,17.1,17.1,0,0,0-17.08,17A1.48,1.48,0,0,1,30.33,47.94Z"/><path class="79171bbc-99f4-49fd-8bcc-5ad1d844a4a6" d="M71.52,67a0.89,0.89,0,0,1-.87-0.87A10.22,10.22,0,0,0,60.44,56a0.87,0.87,0,0,1,0-1.73h0A10.22,10.22,0,0,0,70.65,44.13a0.92,0.92,0,0,1,1.85,0A10.18,10.18,0,0,0,82.71,54.28a0.87,0.87,0,0,1,0,1.73h0A10.22,10.22,0,0,0,72.5,66.17a1,1,0,0,1-1,.87h0Z"/></svg>