<?xml version="1.0" encoding="utf-8"?>
<!-- Generator: Adobe Illustrator 21.1.0, SVG Export Plug-In . SVG Version: 6.00 Build 0)  -->
<svg version="1.1"
	 id="svg4" inkscape:version="0.92.2 (unknown)" sodipodi:docname="vscode.svg" xmlns:cc="http://creativecommons.org/ns#" xmlns:dc="http://purl.org/dc/elements/1.1/" xmlns:inkscape="http://www.inkscape.org/namespaces/inkscape" xmlns:rdf="http://www.w3.org/1999/02/22-rdf-syntax-ns#" xmlns:sodipodi="http://sodipodi.sourceforge.net/DTD/sodipodi-0.dtd" xmlns:svg="http://www.w3.org/2000/svg"
	 xmlns="http://www.w3.org/2000/svg" xmlns:xlink="http://www.w3.org/1999/xlink" x="0px" y="0px" viewBox="0 0 400 400"
	 style="enable-background:new 0 0 400 400;" xml:space="preserve">
<style type="text/css">
	.st0{fill:#007ACC;}
	.st1{fill:#B8D432;}
	.st2{fill:#0072C6;}
</style>
<sodipodi:namedview  bordercolor="#666666" borderopacity="1" gridtolerance="10" guidetolerance="10" id="namedview6" inkscape:current-layer="svg4" inkscape:cx="112.48701" inkscape:cy="128.72041" inkscape:pageopacity="0" inkscape:pageshadow="2" inkscape:window-height="722" inkscape:window-maximized="1" inkscape:window-width="1360" inkscape:window-x="0" inkscape:window-y="24" inkscape:zoom="0.64183539" objecttolerance="10" pagecolor="#ffffff" showgrid="false">
	</sodipodi:namedview>
<path id="path951" class="st0" d="M276.5,109.5v223.3l-195-29l195,65.7l65-27V140.6l0,0l0,0v-4L276.5,109.5z"/>
<path id="path887" class="st0" d="M208.2,147.5l-59.7,59l-36-27.1l-14.8,4.9l36.6,36.2l-36.6,36.2l14.8,5l36-27.1h0l59.7,59
	l35.8-15.2V162.7L208.2,147.5z M208.2,189.7v61.9l-41.1-30.9L208.2,189.7z"/>
<path class="st1" d="M77.3,111.5c-1.4,0-2.6-1.1-2.6-2.6c0,0,0,0,0,0c0-16.3-13.3-29.5-29.6-29.5c-1.4,0-2.6-1.2-2.6-2.6
	s1.2-2.6,2.6-2.6c16.3,0,29.5-13.1,29.6-29.4c0.1-1.4,1.3-2.5,2.7-2.5c1.3,0.1,2.4,1.1,2.5,2.5c0,16.3,13.3,29.5,29.6,29.5
	c1.4,0,2.6,1.2,2.6,2.6c0,1.4-1.2,2.6-2.6,2.6c-16.3,0-29.5,13.2-29.6,29.5C79.9,110.4,78.7,111.5,77.3,111.5z"/>
<path class="st2" d="M148.7,144.6c-0.8,0-1.5-0.7-1.5-1.5c0-9.7-8-17.6-17.7-17.6c-0.8,0-1.5-0.7-1.5-1.5c0-0.8,0.7-1.5,1.5-1.5
	c0,0,0,0,0,0c9.7,0,17.7-7.9,17.7-17.6c0-0.9,0.7-1.6,1.6-1.6c0.9,0,1.6,0.7,1.6,1.6c0,9.7,7.9,17.6,17.7,17.6
	c0.8,0,1.5,0.7,1.5,1.5s-0.7,1.5-1.5,1.5c0,0,0,0,0,0c-9.7,0-17.7,7.9-17.7,17.6C150.2,144,149.5,144.7,148.7,144.6
	C148.7,144.6,148.7,144.6,148.7,144.6z"/>
</svg>
