<svg width="298" height="148" viewBox="0 0 298 148" fill="none" xmlns="http://www.w3.org/2000/svg">
<path d="M80.6 146L79.3 145.4L78.5 144.6L78 144.1L79 146.4L78 144.1L77.3 143.9L76.8 144.4V145.1L76.6 145.6L75.3 145.2L73.9 144.5L73.1 144.3L74.8 145.5L75.8 146L77.2 146.6L78.1 146.8L78.8 147.1L79.3 147.2H79.7L80.3 146.9L80.4 146.5L81 146.8H81.7L81.9 146.2L80.6 146Z" fill="#505055"/>
<path d="M266.5 131.6L265.9 131.7L265.3 131.4L264.8 131.3L264.5 131.8L264.4 132.7L264 133.4L263.9 134.3L264.4 134.4H264.6L265.7 133.7L265.8 134L266.5 133.1L267.1 132.7L267.9 131.5L267.4 131.4L266.5 131.6Z" fill="#505055"/>
<path d="M279.7 116.3L280 115.7L280.2 115V114.1L279.7 113.3L279.3 112.8L278.8 112.1L279 111L278.7 111.1L278.4 110.7L278 110.9L277.9 109.7L277.5 109L277.7 108.8L277.1 108.3L276.6 107.7L275.7 107.2L275.5 106.4L275.7 105.9V104.9L275.4 104.8V104.2V103.3L275.5 102.8L275.1 102.3L274.9 101.9L274.2 102.3L274 101.4L274.1 101V100.4L273.8 99.8L273.9 99.4L273.6 99.2L273.7 98.6L273.4 98L273 98.4V98.7L272.7 99.3L272.4 99.9L272.5 100.3L272.3 100.5L272 101.4L272.1 102L271.9 102.3L272 102.8L271.5 103.7L271.3 104.3L271 104.8L270.7 105.4L270 105.8L269.2 105.4L269.1 105.1L268.6 104.8H268.4L267.8 104.1L267.3 103.7L266.7 103.4L266 102.8V102.5L266.4 101.9L266.8 101.4L266.7 100.9H267.1L267.5 100.5L267.8 99.9L267.5 99.3L267.2 99.5L266.8 99.4L266.2 99.8L265.7 99.4L265.4 99.5L264.6 99.2L264.1 98.8L263.5 98.5L263 98.7L263.7 99L263.6 99.6L262.8 99.8L262.3 99.7L261.7 100.1L261.2 100.7L261.3 101L260.8 101.3L260.2 102.2L260.3 102.8L259.7 102.7H259.1L258.7 102L258 101.5L257.5 101.6L257.1 101.8L257 102.1L256.6 101.9V102.3L256.1 102.4L255.8 102.9L255.2 103.4L254.9 104.3L254.5 104L254.1 104.6L254.4 105.1L253.9 105.3L253.7 104.3L252.9 105.3L252.7 105.9L252.6 106.3L251.9 106.9L251.6 107.5L251 108L249.9 108.3H249.4L249.1 108.4L248.9 108.6L248.3 108.7L247.5 109.2L247.3 109L246.8 109.1L246 109.5L245.5 110L244.6 110.3L244.1 111.1L244.2 110.3L243.6 111.1V111.7L243.4 112.3L243.1 112.5L242.9 113.2L243 113.5L243.1 113.8L243.3 114.7L243.2 115.3L243 114.9L242.6 114.5L242.7 115.6L242.4 115.1V115.6L242.7 116.4L242.6 117.3L242.9 117.7V118.1L243 118.8L242.8 119.4L242.7 120L242.9 121.2L242.7 121.8L242.4 122.6L242.3 123L242 123.2L241.5 123.4L241.2 124L241.7 124.2L242.3 124.9H243L243.6 125L244.2 124.6L244.8 124.3L245 124.4L245.8 123.8L246.5 123.7L247.2 123.6L247.9 123.8L248.5 123.7H249.3L249.9 123.2L250.3 122.6L251.2 122.4L252.4 121.8L253.2 121.9L254.4 121.5L255.8 121.1L257.5 121L258.2 121.6H258.8L259.8 122.3L259.5 122.5L259.8 122.9L260 123.7L259.7 124.3L260.2 124.8L261 123.9L261.7 123.5L262.9 122.6L262.6 123.4L262 123.9L261.6 124.6L260.8 125.2L261.7 125L262.6 124.2L262.4 125L261.8 125.6L262.7 125.7L262.9 126.2L262.8 126.8L262.6 127.6L262.8 128.3L263.5 128.6L264 128.7L264.4 128.9L265 129.2L266.3 128.4L266.9 128.2L266.4 128.7L266.8 128.9L267.3 129.4L268.1 129L268.8 128.5L269.9 128.1L270.9 128L271.7 127.6L271.8 127.3L272.3 126.5L273 125.7L273.6 125.1L274.4 124.1L275 123.6L275.7 122.7L276.7 122.2L277.5 121.2L278.1 120.4L278.3 119.8L279 118.8L279.4 118.3L279.8 117.3L279.7 116.3Z" fill="#505055"/>
<path d="M100.7 92.2L100.3 91.9H99.5L98.8 91.6L97.5 90.4L96 89.4L94.5 89.5L92.6 88.9L91.5 89.2L91.6 88.6L91.1 87.9L89.5 87.2L88.3 86.8L87.6 87.5L87.5 86.4L85.8 86.2L85.5 86L86.2 85.1V84.3L85.7 84.1L85.2 82.2L85 81.6L84.7 81.7L84.5 81.2L83.5 80.3L82.8 80L82.5 79.9L81.5 79.6L80.7 79.7L80.6 79.9L79.4 79.7L79 79.2L78.5 78.7H78.1V78.1L77.5 77.4L76.9 77L76.1 77.7L76 78L76.1 77.6L76.9 76.9L76.5 76.6H76L75.9 75.7L75.2 75.1L74.4 75L74.1 74.5L74.9 74.2H73.7L72.5 74.3V74.6L72 75.1L71.3 75L70.8 74.5L69.8 74.6H68.9V74.2L68.3 73.6H67.6L67.3 72.8L66.9 73.1L67 73.6L65.8 74.1V74.9L66.1 75.3L65.8 76.1L65.4 76.2L65 75.3L65.5 74.7L65.6 74.1L65.3 73.6L65.9 73.5L66 73.2L66.2 72.8L66 72.5L65.7 72.4L64.9 73L64.5 73.2L63.7 73.8L63 73.7L62.9 73.9H62.3L61.7 74.4L61.5 75.3V75.7L61 75.9L60.2 76.7H59.7L59.4 76.4L59.1 76L58.7 75.8H58.2L58.3 75.7L57.8 75.6L57.5 75.9L56.9 76.1L56.5 76.4L56 76.5L55.7 76.2L55.6 76.3L55.2 76.2V76L54.9 75.6L54.5 75.1L54 74.7L53.8 74.1L53.7 73.9V73.6L53.9 73.3V73L54 72.5L54.2 72.4V71.9V71.6L54.3 71.1L54.5 70.7L54.7 70.3L54.5 70L54.6 69.8L54.7 69.7L54.5 69.4L54.2 69.2L53.9 69L53.6 68.8H53.5L53 68.5L52.8 68.6H52.5L52.3 68.5H52L51.9 68.6L51.6 68.7H51.1L50.7 68.6L50.5 68.7L50.4 68.6H50.1L49.9 68.8H49.8L49.5 68.7L49.4 68.9L49.1 68.7L49.3 68.3H49.5L49.7 68L49.9 67.4L49.8 67.3L50 66.9V66.7L50.2 66.2L50.3 65.9H50.1V65.7H50.3L50.5 66L50.8 65.1L51 64.6L50.8 64.4L51.1 63.7L51.7 63L51.8 62.5L51.6 62.3L51 62.4H50.2L49.2 62.7L48.6 63L48.4 63.3L48.2 64.2L47.9 64.8L47.2 65.3L46.6 65.5L45.9 65.7L45.2 65.8L44.3 66.1L44 65.6L43 65.3L42.7 64.7L42.6 64.1L42.1 63.3L42 62.4L41.6 62L41.5 61.4L41.7 60.9L42 59.4L42.3 58.6L42.8 57.6L42.7 57.2L42.8 56.7L43 55.9L43.3 55.4L43.9 54.9L44.9 54.4L46 53.6L46.9 53.3L47.5 53.2L48.1 53.4L49 53.3L49.6 53.9H50.3L50.7 53.7L51 54L51.2 53.9L51 53.7L51.1 53.3L51 53L51.4 52.8L52.1 52.7L52.9 52.8L54 52.7L54.5 53L54.8 53.5L55 53.6L56.1 53.1L56.4 53.3L56.9 54.2L57 54.8L56.7 55.5L56.8 55.9L57.1 56.8L57.4 57.8L57.7 58L57.8 58.5L58.3 58.6L58.6 58.5L58.9 57.8L59 57.4L59.2 56.7L59 55.4L59.1 54.9L58.9 54L58.8 53V52.2L59.1 51.4L59.7 50.7L60.3 50.2L61.5 49.5L61.7 49.1L62.3 48.7L62.8 48.6L63.6 47.9L64.6 47.6L65.4 46.8L65.6 45.7V45.3L65.4 45.2L65.7 44.1L65.2 43.7L65.8 43.9V43.2L66.1 42.7L65.9 43.6L66.2 44L65.7 45H65.8L66.6 44.1L67 43.7L67.1 43.3L66.9 43.1V42.5L67.1 42.8L67.3 42.9V43.2L68.2 42.3L68.6 41.5L68.4 41.4L68.8 41.1L68.7 41.2H69.3L70.7 40.9L70.5 40.7L69 40.9L69.8 40.6L70.3 40.5L70.7 40.4L71.4 40.2H71.8L72.5 40L72.7 39.7L72.5 39.5V39.9H72.1L72 39.3L72.2 38.7L72.4 38.5L73.1 37.9L74.1 37.6L75.1 37.2L76.2 36.7V36.4L76 35.8L76.4 36.4L77.4 36.3H78.8L77 37.2L76.7 38L77.3 38.1L78.5 37.3L79.5 36.9L81.6 36.3L82.9 35.6L82.4 35.2L82.6 34.4L81.4 35.6L80 35.8L79 35.3V34.5L79.1 33.3L80.2 32.6L79.6 32L78.3 32.1L76.2 33L74.3 34.4L73.5 34.6L74.9 33.6L76.7 32.2L78 31.7L79 30.9L79.9 30.8H81.2L82.9 31L84.4 30.8L85.8 29.9L87.3 29.5L88 29.1L88.7 28.7L89 27.5L88.8 27.1L88.2 27V26.1L87.8 25.8L86.6 25.5L86 25.1L85.2 24.5L85.8 23.9L85.5 22.7L85 21.3L84.8 20.4L84.1 20.9L82.8 22L81.4 22.6L81.1 22L80.5 21.8L80.9 20.5L81.4 19.6H80V19.2L79.4 18.6L78.9 18.3L78 18.5L77.3 18.4L76.2 18.1L75.5 18.3L74.8 20L74.6 20.9L73.1 22L73.6 22.8L73.7 23.7L73.4 24.4L72.6 25L71.3 25.7L69.7 26.2L70 26.8L69.6 28.5L68.6 29.6L67.8 29.9L67 28.9V27.7L67.3 26.7L67.9 25.8L67.1 25.7L65.8 25.6L65.2 25.2L64.4 24.9L64.1 24.4L63.6 24L62.4 23.5L61.2 23.7L61.3 22.9L61.6 21.9L60.6 21.7L61.5 20.5L62.4 19.7L64 18.6L65.5 17.8L66.5 17.7L67 17.1L67.9 16.7L69 16.6L70.3 15.9L70.8 15.5L72.1 14.7L72.7 14.2L73.3 14.5L74.4 14.3L76.3 13.6L76.7 13.1L76.6 12.6L77.5 12.1L77.8 11.6L77.2 11.1L76.3 11L75.3 10.9L74.5 11.9L73 13L71.7 13.7L71.5 13L72.2 12.3L71.8 11.7L70.3 12.4L71 11.4L70 11.3L71 10.8L70.9 9.8L70.6 9.4L69.8 9.3L68.4 10L67.4 11L67.9 11.4L68.2 12L67.1 13H66.5L65.4 13.8L66.1 12.9L65.3 12.6L64.5 12.8L64.1 13.4H63.1L61.8 13.5L61 12.8L60.1 12.9L59.8 12.4L59.4 12.2L58.7 12.3L57.8 12.4L57 12.7L57.3 13.1L56.1 13.6L55.9 13L55.1 13.2L53.1 13.3L52.1 13L53.6 12.5L53.1 12L52.3 12.1L51.5 11.9L50.2 11.6L49.5 11.2L48.7 11.1L48.1 11.4L47.1 11.6L47.8 10.9L46.2 11.5L46 10.7L45.6 10.6L45 11L44.2 11.2V10.8L42.8 11L41.3 11.4L40.4 11.3L39.2 11.6L38 12.1L37.4 12L36.8 11.5L35.8 11.3L35.2 11.2L34.5 10.9L33.3 11L32.9 10.9L31.7 10.8L30.6 10.5L29.8 10.6L28.9 10.4L29.2 10.2L28.1 10.1L27.5 10.3L27.6 9.9L26.8 9.7L25 10.2L24.4 10.1L22.5 10.5L21.7 10.6L20.3 11L19.5 11.5L18.2 12H16.9L15.8 12.5L16.4 12.8L16.5 13.2L16.4 13.7L16.8 14.1L16.6 14.7H15L15.7 14.2H15.1L12.8 14.7L11.2 15.1L11.4 15.7L11.2 16.1L12 16.3L13.2 16.2L13.5 16.4L14 16.2L15 16H15.5L14.5 16.4L14.7 16.6L14.2 17L13.2 17.3L12.8 17.2L11.6 17.7L11.3 17.5L10.6 17.6L9.7 18.1L8.4 18.6L7.4 19.2L7.5 19.6L6.8 20.2L7 20.4V20.9L8.3 20.7L8.4 21.1L7.8 21.5L7.2 22.1H7.7L9 21.7L8.7 22.2L9.3 21.8L9.2 22.3L10 22L10.1 22.2L11.4 21.9L10.3 22.5L9.3 23.3L8.3 23.7L7.9 23.9L6.1 24.5L5.2 24.9L4.1 25L2.6 25.6L1.5 25.9L0.1 26.4L0 26.5L1.7 26.2L2.7 25.9L4 25.5L5 25.2L5.5 25.3L6.9 24.8L7.7 24.3L9.5 23.8L10.2 23.3L11.3 23L12.6 22.6L14.1 21.9V21.4L16 20.7L17.3 20L18.9 19.4L18.8 19.6L17.8 20L16.4 21L15.8 21.6L16.9 21.4L18 21.1L19.1 20.9L19.6 20.8L20.2 20.1L21.3 19.9L21.8 20.3L22.8 20.8L24 20.7L25 21L25.6 21.2L26.2 22.3L26.8 22.6H28L28.7 22.7L28.2 23.7L28.5 24.6L27.9 25.5L28.3 25.8L28.4 26.2L29.3 25.7L29.8 25.1L29 24.3L29.8 25L29.3 25.6L28.4 26.1L28 26.6L28.4 27.4L27.9 28.3L28.6 28.8L28 29.4L27.8 30.4L29 30.8L29.3 31.3L30.2 32.4H30.3L30 33.3L29.5 34L29.1 34.3L29.3 33.3L28.3 32.9L28.1 33.1L28 33.6L27.7 34.5L26.9 36L26.2 37L25.5 38L24.6 39L24.4 39.8L23.9 40.7L23.2 41.6L23.4 42.2L23.1 43.1L23.4 44L23.6 44.4L23.5 44.7L23.6 46.3L24 47.4L23.8 48L24 48.2L24.8 48.3L25 48.6L25.5 48.7V49L25.9 49.1L26.3 49.7L26.2 50.3V51.3L26.3 52.2L26.4 52.9L26.5 53.6L27 53.9L27.5 54.7L27.3 55.2L26.8 55.6L26.4 55.5L26.3 55.6L26.7 56.2L27.2 56.5L27.4 56.8L27.6 56.6L28.1 57.1L28.5 57.4V58L28.3 58.8L28.7 59.1L29.3 59.6L29.8 60.2L30 61H30.2L30.7 60.6L30.8 60.4L30.5 59.9L30.2 59.4H29.7L29.8 58.8L29.6 58.3L29.4 57.8L29.3 56.8L28.8 56.2L28.7 55.8L28.5 55.5V54.8H28.3V54.4L28.2 54.3L28.1 54.1L27.6 53.3L27.4 52.8L27.6 52V51.5L27.9 51L28.3 51.3H28.6L29.1 51.7L28.9 52.1L29 53L29.3 53.8L29.2 54.1L29.5 54.6L29.9 55.2L30.4 55.3L30.5 56.1L30.9 56.6L31.3 56.9L31 57.6L31.1 57.9L31.8 58.4L32.1 59.1L32.9 60L33.6 61.1L33.8 61.7V62L34 62.5L33.9 62.9L34 63.2L34.1 63.5L33.8 63.6L33.9 64.1L34.3 64.8L35.2 65.4L35.5 65.9L36.4 66.2L36.9 66.3L37.1 66.6L37.8 67.1L38.8 67.6L39.5 67.8L40.3 68.3L41 68.5L41.6 68.8L42.1 68.7L42.9 68.3L43.4 68.2L44.2 68.5L44.7 68.9L45.7 70.1L46.2 70.6L46.6 70.8H47.2L47.7 71L47.9 71.2L48.4 71.3L48.8 71.5L49.1 71.6H49.7L49.8 71.3L49.9 70.9H50L50.1 71L50 71.4L50.3 71.5L50.4 71.8L50.3 71.9L50.1 71.7L50 71.9L50.5 72.4L50.9 72.7L51.1 73.1L51.5 73.6L51.8 73.9L51.6 74.1L51.9 74.3L51.7 74.6V74.9L51.8 75.1L52.1 75.2L52.3 75.5L52.5 75.2L52.4 74.9L52.6 75.1L52.7 75.4L53 75.5L53.4 75.7L53.7 76V76.2L53.6 76.4L53.8 76.6L54.3 76.8L54.4 77L54.5 76.8H54.9L55.1 76.9L55.5 77L55.7 77.4L56 77.5L56.1 77.3L56.2 78L56.7 77.9L56.9 77.7L57.2 77.5L56.8 76.9L56.9 76.7L57 77L57.4 76.7L57.6 76.3L58 76.2L58.5 76.5L58.7 76.9L58.9 77L58.6 77.3L58.8 77.9L59.1 78.2L59.5 78.8L59.6 79.7L59.4 80L59.6 81L59.4 81.6L59.7 81.9L59.3 82.5L59 83.2L58.5 83.3L58.3 83.7V84.3L57.9 84.4L58 84.7L57.3 85.1L56.8 85.3L56.9 85.8L56.5 86.5L56.3 87.2L56 87.4L56.2 88.4L56 88.7L56.6 89.2L57 88.7L57.2 89.2L56.7 90L55.9 90.7L55.6 91.5L56.1 92.6L55.9 93L56.6 93.5L57.4 94.2L57.7 95L58.1 95.5L59.1 97.7L60.2 99.7L61.1 101.2L61 101.5L61.5 102.4L62.3 103.1L64.2 104.3L66.2 105.4L66.3 105.9L67.3 106.5L67.7 108.1L68 109.9V112.4V114.7L68.2 116.8L67.9 118.2L68.3 119.6L68.2 120.5L68.8 122.2V123.9L68.6 125.7L68.5 127.5H68.1L68.5 128.8L69.1 129.9L68.9 130.6L69.2 132.6L69.5 134.1L70.1 134.3L69.9 133L70.6 133.3L70.9 135.5L69.8 135.1L70.1 136.9L69.6 137.9L71 138.2L70.4 139V140L71.3 141.8L72 142.5V143.1L72.6 143.8L73.9 144.4L75.2 145.1L76.3 145.4H76.6L76.3 144.4L76.9 144L77.2 143.7H77.9L78.3 143.8L77.5 143.2L76.8 142.1L77 141.6L77.6 141.2L77.7 139.9L78.5 139.3V138.3L77.6 138.1L76.5 137.3V136.5L77 136H77.8V135.4L77.6 134.3L78.1 133.6L78.8 133.3L78.4 132.7L78 133L77.3 132.7L76.9 131.6L77.2 131.3L78.2 131.7L79.1 131.5L79.5 131.1L79.2 130.6V129.8L78.9 129.1L79.9 129.2L81.7 129L82.9 128.4L83.5 127L83.4 126.4L82.7 125.9V125.1L81.3 124.1L81.2 123.5L81.9 124.1H82.5L83.4 124.6L83.9 124.5L84.6 124.7L85.5 124.1L85.8 123.4L86.3 122.8L86.6 121.8L87.2 121.3L87.9 120.4L88.7 118.5L89.3 117.9L89.4 117.4L89.5 116.3L89.3 115.7L89.4 114.9L90.1 113.8L91.1 112.9L92.1 112.6L92.7 112.1L94.2 111.7H95.2L95.4 111L96.1 110.5L96.2 109.4L97.1 108L97.2 106.5L97.5 106L97.6 105.3L97.8 103.6L97.6 101.5L97.8 100.7H98L98.7 99.7L99.3 98.4L100.6 96.9L101.1 96.2L101.4 94.4L101.2 93.7L100.7 92.2ZM47.7 68.4L47.8 68H47.6L47.7 68.1V68.4Z" fill="#505055"/>
<path d="M88.7 34.8H89.1L89.7 33.8L89.6 33.1V32.6L89 32.8L89.5 32L88.7 31.6L88.3 31.9L87.6 31.6L88 31.2L87.5 31L86.8 31.4L87.7 30.4L88.4 29.8L88.6 29.5L88.2 29.4L87.4 29.8L86.7 30.4L85.2 32.1L84.3 32.7L84.6 33L83.9 33.4L84 33.8H85.6L86.6 33.7L87.3 34L86.6 34.5H87.1L88.4 33.6L88.6 33.7L88.1 34.6L88.7 34.8Z" fill="#505055"/>
<path d="M28.8 32.9L29.3 32.8V32.2L28.8 31.7L28.7 31.2V30.9L28 30.7L27.6 30.6L26.8 30.3L26.6 30.6L26.5 31.2L27.2 31.4V31.7L27.7 32.1V32.4L28.8 32.9Z" fill="#75757A"/>
<path d="M73.1 10.6L74.1 10.8L75.4 11L77.8 11.3L79.2 11.2L79.7 10.9L80.1 11.2H80.6L81 11.8L80.4 12.1L81.6 12.4L82.4 12.8L82.5 13.2L82.4 13.6L80.9 14.5L80.4 15V15.3L78.8 15.4L77.4 15.5L76.5 16.2L76.9 16.5L79.2 16.4L79.3 16.1L80.1 16.6L81 17.1L80.5 17.3L81.2 17.8L82.5 18.4L84.4 18.8V18.4L83.9 17.8L83.3 17L84.8 17.8L85.6 18.1L86.3 17.3V16.4L86.1 16.1L85.3 15.7L84.8 15.1L85.2 14.5L86.3 14.4L86.9 15.4L87.6 15.8L89.5 14.6L90 14L88.9 13.9L88.4 13L87.3 12.8L86 12.2L87.6 11.8L87.4 10.9L87.1 10.5L85.6 10.2L85.3 9.6L83.9 9.8L84 9.4L83.4 9L82.2 8.5L81.3 8.9L79.8 9.2L80.3 8.6L79.9 7.6L77.9 8L76.7 8.7L76.6 8.2L77.6 7.6L75.7 7.8L74.7 8.2L73.5 9L72.9 9.9H73.9L72.8 10.3L73.1 10.6Z" fill="#505055"/>
<path d="M65.8 11.9L66.5 12.2L67.2 11.8L67.1 11.5L67 11.3L66.7 11.2L66.2 10.9L65.4 11.3L64.5 11.6L65.1 12L65.8 11.9Z" fill="#75757A"/>
<path d="M62.5 64.2H63.1L63.8 64.1L63.9 63.8L63.2 63.3H62.5L62.6 63L62.1 62.8H61.8L61.3 62.3L60.5 61.6L60.2 61.3L59.3 61.5L59 61L58.1 60.7H57.4L56.6 60.6L56.3 60.7L55.6 60.8L55.1 61L54.6 61.3L54.3 61.7L53.8 62L54.2 62.1L54.7 62L54.8 61.7H55.2L56 61.1L56.9 61.2L56.5 61.5L56.9 61.7L58.1 61.9L58.3 62.1L59.2 62.4H59.7L59.9 63L60.2 63.3L60.8 63.4L61.2 63.7L60.4 64.3L61.8 64.2H62.5Z" fill="#505055"/>
<path d="M66.3 66.8L66.7 66L67.1 65.8L67.2 66.1H67.6L67.8 65.8L68.1 65.9H68.5L69 66.1L69.4 65.6L68.9 65.2H68.5L68.6 64.9H68L67.9 64.5H67.6L67.1 64.2H66.3L66.2 64.4L65.4 64.2H64.8L64.6 64.5L65.2 64.7L65.1 65.1L65.5 65.6L65.1 65.8L64.4 65.7L63.5 65.6L63.4 65.9L63.9 66.3L64.4 66.1L64.9 66.2L65.4 66.1L66 66.3V66.6L66.3 66.8Z" fill="#505055"/>
<path d="M130.5 25.6L130.9 25.1L131.2 25.3L130.9 25.8L131.1 26.1L132 26.3H132.1L132.6 26.9L132.5 27.6L131.2 27.4L131.1 28.1L131.5 28.7L130.6 29L130.9 29.5L132.2 29.6L131.4 29.9L130.1 31L130.6 31.2L131.2 30.8L132 30.9L132.5 30.4L132.9 30.6L134.4 30.3H135.5L136.2 29.8L135.9 29.2L136.3 28.9L136.4 28.2L135.4 28L135.2 27.6L134.7 26.4L134.1 26.3L133.4 25L133.3 24.9H132.5L133.2 23.9L133.5 23.1H132.6L131.8 23.2L132.6 22.1L131.7 22.2L131.1 22.1L130.4 23L130.1 24L130.5 24.5V25.6Z" fill="#505055"/>
<path d="M119.4 10.9H118.4L116.6 10.8L117.5 10.3L117.4 9.7L118.1 10.2L118.6 10.6L119.9 10.4L119.8 9.7L119 9.1L118.1 8.9L118.5 8.7L119.8 9L119.9 8.6L119.2 8H120.1L121.1 7.9L121.4 7.6L120.7 7.2H122.2L121.5 6.4L122.2 6.3V5.6L121.1 5.2L122.2 4.9H123.2L122.6 4.3L122.8 3.4L123.4 2.9L124.3 2.4L122.9 2.3L124.9 2.2L125.2 2L127.8 1.5L127.5 1.3L125.8 1.1L122.8 1.4L121.2 1.6L122 1.2L121.6 1L120.4 1.2L118.7 1H116.6L116.4 0.9H119.5L121.8 0.8L122.9 0.6L119.5 0.1L115 0L112.9 0.1L112.1 0.3H110.1L107.9 0.6L107.6 0.9L108.8 1.3L107.7 1.1L106.9 1L105.7 0.8L103.8 1.1L103.4 0.9H101.6L99.7 1L98.1 1.2V1.5L97.2 1.6L94.6 2.1L93.8 2.4L95.2 2.7L94.8 2.9L92.2 3.3L89.5 3.7L89.1 4L90.2 4.3L92.7 4.6H91.4L89.5 4.8L90.2 5.4L90.7 5.6H92.3H94.1H95.4L96.8 6.1L96.6 6.5L97.2 6.8L97.4 7.7L97.6 8.4L97.8 8.7L96.6 9.5L97.1 9.7L97.8 9.6L98.3 9.9L99.2 10.5L97.9 10.3H97.3L96.7 10.8L96.5 11.4L97.2 11.7L97.9 11.6L98.3 11.4L99.3 11.1L98.8 11.8L98.4 12.2L97.1 12.6L95.9 13.7L96.3 14L95.7 14.7L96.3 15.6L96.1 16.5L96.2 17.1L97 18.3L97.1 19.3L97.7 19.9H99.2L100.1 20.7L101.2 20.6L101.9 19.6L102.6 18.8L102.5 18.1L104 17.3L104.6 16.6L104.8 15.9L105.6 15.3L106.8 15.1L107.8 14.9L108.3 14.8L110.1 14.1L111.4 13.2L112.2 12.8H113L115.2 12.5L117.3 11.7L119.4 10.9Z" fill="#505055"/>
<path d="M238.1 92.7L238.3 91L238.6 89.6L238.1 88.9L237.4 88.8L237.1 88.2L236.9 87.4H236.6L236 87L236.4 86.1L235.7 85.6L235.1 84.7L234.3 83.9H233.3L232.3 82.7L231.8 82.2L231 81.5L230.1 80.4L228.5 80.2H227.9L228 80.7L229.1 81.9L229.8 82.6L230.4 83.5L231.3 84.2L231.6 85.1L231.9 86L232.8 86.9L233.5 88.5L234 89.3L234.7 90.2L235.1 90.9L236.3 91.8L237.1 92.7H238.1Z" fill="#505055"/>
<path d="M251.2 85.2L250.1 84.2L250.3 83.7L249.6 82.7L250.1 81.7L250.8 81.3L250.6 80.8L251.3 80.7L251.4 80.3L250.6 80L249.9 79.7L249.8 79.2L249.3 78.6H248.9L248.5 79.5L247.8 80.3V80.8V81.5V80.8V80.3L247 80.9L246.6 81.3L246.1 82L245.4 82.9L244.2 83.1L243.8 83.3L243.6 84.2L242.8 84.4L242.1 84L241.5 84.7L241.4 85.7L241.5 86.7L242 87.6L242.5 87.9L242.6 89.4L243.4 89.5L244 89.4L244.3 89.9L245.5 89.5L246 90L246.7 90.1L247 90.8L248.1 90.3L248.2 90.7L248.6 89L248.7 87.9L249.7 87.2V86.2L250 85.5L251.2 85.2ZM246.9 81.8L247.1 81.4L246.9 81.8Z" fill="#505055"/>
<path d="M272.6 89.1L271.6 88.9L270.9 88.5L270.1 88.1H269.2L268 88.8L267.2 89.9L266.2 89.3L266 87.5L265.8 87.1L264.3 86.6L263.8 87L262.4 87.2L262.8 87.8L263.7 88L264.1 88.7H265.5L265.6 88.9H264.9L263.8 89.3L264.5 89.9V90.4L264.7 90.8L265.1 90.7L265.4 90.1L266.8 91.2H267.6L269.5 92.2L269.9 93.1L270.1 94.3L269.4 94.6L268.9 95.5H270.2L270.4 95.2L271.4 95.4L272.2 96.3L272.3 95.3L272.2 96.3H273.2L273.7 96.5L274.5 96.1V95.3L275.1 95L275.9 94.6L277.2 95.1L277.6 96.1L278.1 96.7L278.8 97.4L279.7 97.6L280.6 97.7L280.7 98L281.4 97.9L281.5 97.6L280.6 97.1L280.9 96.9L280.2 96.7V96.2L279.7 96.3L279.2 95.1L278.3 94.4L278.2 93.6L279.1 93.5L278.9 92.9L277.3 92.2L277.2 91.6L276.7 91L276.1 90.5L274.3 89.9L272.6 89.1V90V89.1Z" fill="#505055"/>
<path d="M242.6 95.2L243.5 95.4L244.6 95.5L245.4 95.4L246.5 95.9L247.6 95.5L246.5 94.8L245 94.6L244.7 93.9L242.9 93.4L242.7 93.8L240.8 93.7L240.7 93.3L240.3 93.2L239.6 92.8L238.4 92.7L237.7 93.8L238.5 93.9L238.7 94.4L240.4 94.8L240.8 94.7L241.5 94.8L242.6 95.2Z" fill="#505055"/>
<path d="M254.9 87.2L255.4 87.4V86.9L253.6 87.3L253.1 87.8L252.2 86.8L252.4 86L252.2 85.6L252 86L251.5 87.7L251.3 88.6L250.9 89.3L251.2 90.1H251.6L251.7 91.1L251.4 92.2L251.8 92.5L252.4 92.3L252.5 90.7L252.4 89.5L253.1 89.1L253 90.2L253.6 90.8L253.5 91.3L253.7 91.6L254.7 91.2L254.2 92.1L254.5 92.4L255.1 92.1V91.4L254.3 90.1L254.5 89.7L253.6 88.3L254.5 87.9L254.9 87.2Z" fill="#505055"/>
<path d="M127.4 28.1L126.7 29.2L127.8 29.4L129.4 28.8L130 27.8L129.9 27.1L130.4 26.3L129.5 25.7H128.9L128.2 26.2L127 27L127.4 28.1Z" fill="#505055"/>
<path d="M120 17.1L121 17.2L121.6 17.1L123.9 16.4L124.9 15.7L124.2 15L124.4 14.4L123.2 14.3L122 14.8L121.1 14.5L119.9 15.1L118.8 14.4L117.7 14.5L117.1 15.2L118.6 15.4V15.7L117.2 15.9L118.8 16.3L118 16.8L120 17.1Z" fill="#505055"/>
<path d="M148.4 44L147.5 44.1L146.4 44L146.3 44.6L147.6 45.2L148.1 45.3L148.8 45.7L149 45.1L148.8 44.8L149.1 43.9L148.4 44Z" fill="#75757A"/>
<path d="M61.7 66.5L61.6 66.1L61.1 65.9L60.4 65.8L60.2 65.7L59.8 65.8L59.7 66.1L60.2 66.5L60.7 66.6L61 66.5H61.7Z" fill="#505055"/>
<path d="M260 48.8L260.8 49.2L261.5 48L263.1 47.9L264 47.4L264.2 46.6L263.7 46L263.6 45.1L263 44L263.2 42.8L262.7 41.9L261.3 40.4L260.5 40.6V41.3L261.4 42.5L261.6 43.9L261.3 44.4L260.5 45.5L259.6 44.9V46.9L258.5 46.7L256.9 47L256.5 47.8L255.9 48.4L255.7 49.1L254.9 49.4L255.6 50.2L256.3 50.5L256.5 51.5L257.1 51.9L257.5 51.5L257.4 49.6L256.1 48.8L257.2 48.7L258.1 48.2L259.5 48L260 48.8Z" fill="#505055"/>
<path d="M262.6 38.7L263.7 38.4L262.6 37.2L262.3 37.7L261.6 37.4L260.6 37.1L258.8 36L259.2 36.8L259.9 38.3H259L259.1 39.2L259.9 40.2H260.9L260.6 39L262.5 39.8L262.6 38.7Z" fill="#505055"/>
<path d="M213.6 76L212.9 75.4L212.6 77.2L212.8 78.7L213.3 79.6L214.2 79.4L214.6 79L214.7 77.9L214.1 76.8L213.6 76Z" fill="#75757A"/>
<path d="M183.5 101.2L183.3 100.5L183.1 100L182.7 99.5L182.4 100L182.3 100.7L181.8 101.5L181.4 101.3L181.5 101.8L181.2 102.3L180.3 103L179.7 103.7H179.3L178.9 103.9L178.4 104.1H177.9L177.7 104.8L177.4 105.5V106.5L177.5 107.2L177.7 107.7L177.6 108.4L177.1 109.2L177 109.6L176.6 109.8L176.3 110.6L176.4 111.4L176.7 112.3L176.6 113.3L176.9 113.8L177.6 114.2L178.1 114.5L179 114.1L179.8 113.8L180.3 112.5L180.8 111L181.5 108.9L182.1 107.3L182.6 106.1L182.7 105.1L183 104.9L183.1 104.4L183 103.6L183.2 103.2L183.5 103.9L183.7 103.6L183.8 103L183.6 102.5L183.5 101.2Z" fill="#505055"/>
<path d="M228.7 67.5L229.2 68.4L229.5 69.8L230 71.1L230.5 71.7V72.9L230.9 73.6L230.7 74.4L230.9 75.2L230.7 76.3L230.6 77L230.8 77.6L230.9 76.9L231.4 77.4L232 78L232.2 78.6L232.6 79L232.8 78.8L232.6 79L232.8 79.5L232.7 80.3L233.1 80.9L233.3 81.8L233.9 82.5L234 83.1L235.2 84L236.1 84.8L236.8 84.7V84.3L236.4 83.3L236 83L235.9 82.3L235.8 81.9L235.9 81.4L235.8 80.7L235.3 80L234.7 79.3L234.5 79.2L234.2 79.7L233.6 79.8L234.2 79.7L234.5 79.2L234 78.6L233.4 78.5L232.8 77.9L232.6 76.9L232.1 75.9H231.5L231.4 75.1L231.6 74.1L232 72.5V71.3H232.9L232.8 72.2H233.6L234.5 72.7L234.1 71.4L234.6 70.5L234.1 71.4L234.5 72.7L235.1 73.8L235.6 74.4L236.4 74.6L237.2 74.2L238.2 74.1L237.7 73.4L239.2 72.5V71.2L238.9 70.5L238 70.1L238.9 70.5L239.2 71.2V72.5L237.7 73.4L238.2 74.1L237.2 74.2L236.4 74.6L237.2 75.2L237 75.9L237.4 76.6L238.5 75.6L239.2 74.7L240.3 74L241 73.3L240.9 71.4L240.2 69.4L239.5 68.5L238.5 67.8L237.4 66.4L236.5 65.2L236.6 64.4L237.2 63.4L238.3 62.4L238.7 62.2L240 62.5V63L240.4 63.8L240.9 63.7L241 62.5L242 62.3L243.3 61.7L243.7 61.1L243.8 61.2H243.9H244H243.9V61.3H244V61.2L244.1 61.3L244.5 60.9L245.6 60.8L246.7 59.9L247.8 58.9L248.4 57.6L248.8 56.1L249.2 54.9L249.7 54.8V53.9L249.6 53L248.9 52.7L248.5 52.1L249 51.8L248.7 51L247.8 50.1L246.9 49.1L246.1 48L244.9 47.4L245.1 46.6L245.8 46L246 45.4L247.2 45.1L246.8 44.5H246.2L245.2 44.1L244.5 44.9L243.6 44.6L243.3 44.1L242.5 43.9L241.7 43.1L241.9 42.6L242.8 42.5L243 41.8L243.6 41L244.2 40.6L245 41.2L244.7 41.9L245.1 42.3L244.9 42.8L245.7 42.5L246.1 42L247.2 41.7L247.6 41L248.1 40.6L247.6 41L247.2 41.7L247.8 42L248.4 42.1L248.5 42.3L248.6 42.9L248.8 43.1L248.6 43.2V43.7L248.9 43.9L249.2 44L249.3 44.2L249.5 44.1V43.9L250 44.1L251.1 45.1L250.5 45.3L251.4 46.5L251.6 47.3L252 47.9L252.8 47.8L253.4 47.3L254.1 47.1L254.2 46.5L253.6 45.2L253 44.5L251.6 43.2L250.9 42.7L250.4 42.5V42.4L250.2 41.9L250.4 41.6L250.9 41.4L251.1 41.1L251.2 40.9L251.5 40.7L251 39.9L251.1 39.5L251.3 39.2L251.7 39.3L251.5 39.1L251.2 38.6L251.5 39.1L251.7 39.3L251.6 39L252.3 38.2L253.2 38.7H253.8L254.6 38.1L254.8 37.5L255.2 36.3L255.5 35L255.3 34.3L255.5 32.7L254.6 31L253.6 29.7L253.4 28.6L252.6 27.7L250.4 26.5L249.4 26.4L249.3 26.9L248.3 26.7L247.3 26L245.9 25.9L246.8 23.5L247.4 21.5L249.7 21.2L252.3 21.4L252.7 20.9L254.1 21L254.8 21.7L255.9 21.6L257.4 21.3L256.1 20.7V19L257.7 18.7L259.8 19.9L260.4 18.8L259.8 18L260.6 17.9L261.7 19.3L261.3 20.1L261.2 21.1L261.3 22.4L260.3 22.6L260.8 23.1V23.7L261.9 25.1L264.7 27.4L266.5 28.9L267.5 29.6L267.8 28.6L267 27.5L268 27.2L267.1 26L268 25.5L267.2 25L266.6 24.1H267.3L265.7 22.6L264.5 22.4L264 22L263.8 21L263.3 20.3L264.5 20.4L264.7 20L265.5 20.4L266.6 19.6L268.6 20.3L268.3 19.8L268.6 19.2L268.9 18.5L269.4 18.4L270.5 17.7L272.2 17.9L272 17.6L271.3 17.2L270.6 16.9L269 16.1L267.6 15.6L268.7 15.7L269 15.3L263.3 11.5L261.7 11.1L259 10.6L257.6 10.7L255 10.5L255.3 10.9L256.8 11.5L256.4 11.8L253.9 11L252.7 11.1L251.1 10.9H249.9L249.2 11.1L247.9 10.8L247 10.1L245.9 9.7L244.3 9.5L241.7 9.7L238.9 9H237.1L230.1 8.4L229.7 8.8L231.3 9.6L230 9.5L229.8 9.8L228.1 9.5L227.2 9.7L225.6 9.3L226.1 10.3L224.6 9.9L223 9.2L222.9 8.8L221.9 8.2L220.2 7.7H219.1L217.5 7.5L218.3 8.2L215.3 8.1L214.6 7.7L212.3 7.5L211.4 7.6V7.8L210.4 7.2L210 7.6L208.7 7.4L207.7 7.3L208 7L209.1 6.5L209.5 6.2L209.1 5.8L208.1 5.5L206.1 5.1H204.2L203.9 5.3L203.2 4.9L201.6 4.8L202.2 4.6L200.8 4.3L199.7 4.6L199.6 5L199.9 5.4H198.7L197.8 5.9L197 5.6L195.4 5.7L195.5 5.9L193.8 6L192.9 6.4H192.2L192 7L193 7.5L191.7 7.6H190L189 7.8L189.8 8.7L191 9.4L189.3 8.9L188 9L187.1 9.3L187.9 10L187 9.8L186.6 8.9L185.9 8.4H185.6L186.2 9L185.4 9.6L186.8 10.3L186.9 11.2L187.4 11.7L188.2 11.8L188.3 12.4L189.1 12.9L188.8 13.4L188.9 13.9L188.3 14.1L188.2 14.4L187.3 14.3L187.9 12.9L187.8 12.3L186.6 11.7L185.9 10.4L185.3 9.8L184.7 9.5L184.8 8.8L184.3 8.3L182.3 8.1L181.9 8.3L182 9.1L181.3 9.9L181.5 10.2L182.3 10.9V11.4L183.2 11.5L183.3 11.7L184.3 12.2L184.1 12.7L180.9 11.6L179.8 11.3L177.6 11L177.4 11.3L178.4 11.8L177.9 12.4L176.8 11.8L175.9 12.2H174.6L174.2 12.5L173.3 12.4L173.7 11.8H173.1L171 12.6L169.7 13.1L169.8 13.7L168.8 13.9L168.1 13.6L167.9 13.1L168.8 13L168.2 12.5L166.1 12.2L166.8 12.8L166.7 13.4L167.5 14L167.3 14.7L166.5 14.4L165.8 14.3L164.4 15.2L165.1 15.9L164.5 16.1L162.5 15.5L162.1 15.9L162.7 16.3V16.8L162 16.6L161 16.3L160.7 15.3L160.5 14.8L159.1 14.1L159.6 14L163.1 14.7L164.2 14.4L165 14L164.7 13.4L164 13L160.9 11.9L158.9 11.7L157.6 11.1L157 11.4L155.9 11.8L155.3 11.9V12.1V11.9L155.9 11.8L157 11.4L156.1 10.8L156.9 10.6L154.5 9.9L153.3 10.1L152 10L151.1 10.8L149.9 10.7L148.4 11.1L146.6 12.3L145.5 13L144 14.9L142.8 16.3L141.4 17.3L139.5 18.1L138.8 18.7L139.1 21L139.4 22.1L140.5 22.6L141.5 22.4L143 21.2L143.6 21.8L144.3 23.3L145.1 24.5L145.4 25.5L146.3 25.4L146.7 24.6L147.7 24.7L148 23.7L148.1 22L148.9 21.8L149.5 20.7L148.7 20.1L148.1 19.4L148.5 18L149.8 17.1L150.9 16.3L150.7 15.7L151.3 15L152.5 14.7L152.2 14.3L151.9 13L152.2 14.3L152.5 14.7L153.6 15.2L153.8 15.6L153.3 15.8L151.8 16.9L151.2 17.5L150.9 18.1L151.4 19V20L152.2 20.3L152.7 20.8L153.9 20.6L155.2 20.2L156.6 20.1L156.9 19.8L156.6 20.1L157.5 20.6L156.7 21.2L156.9 21.4L156.5 21.9L156.9 21.4L156.7 21.2H155.9L155 21L154 21.2L153.1 21.5L153.3 22.1L153.9 22.5L154.2 22.4V23V23.8H153.6L152.8 23L152.1 23.4L152 24L152.1 24.8L152.4 25.7L151.3 26L151.2 26.5H150.4L150.3 26.3L149.5 26.1L148.5 26.5L147.3 27L146.8 27.3L147 27.8V27.9V27.8L146.8 27.3L146.4 27L145.4 26.6L145 26.9L144.2 27.1V26.7L143.3 26.5V26.1L143 25.6L143.5 24.9L143.7 25L143.9 24.6L143.4 24.4L143.3 24.1L143.5 23.8V23.3L142.9 23.6L142.6 23.9L141.9 24L141.7 24.3L141.6 24.6L141.7 25.7L142.1 26.3L142.7 26.4H142.8H142.7L142.1 26.3L142.2 26.9L142.4 27.3L141.9 27.8L141.7 27.6L141 27.7L140.8 27.9H140.1L139 28.4L138.3 29.9L137.9 30.2L137.2 30.4L137.3 30.8H137.7L137.8 30.9L137.7 30.8H137.3L137.2 30.4L136.5 30.6L136.3 31.5L134.3 32.3L133.5 31.8L133.7 33L132.3 32.7L131.2 32.9L131.3 33.7L132.6 34.1L133.2 34.6L134.1 35.7L133.9 37.8L133.4 38.4L133.6 38.7L133.4 38.4H132L131.3 38.5L130.4 38.3H129.2L128.1 38.1L126.8 38.9L127.1 39.4L127 40.2L127.3 40L127 40.2V40.6L127.2 41V41.5L127 42.2L126.9 42.6L126.5 43L126.4 43.7L126.6 44.1L127 44.2L127.1 44.9L126.9 45.8L127.4 45.7L127.9 45.9L128.3 45.6L129.1 45.8L129.3 46.4L129.6 46.8L130 46.9L130.4 46.5L131 46.1H131.9H133.1L133.8 45.2L134.5 45L134.7 44.3L135.2 43.8L134.9 43.2L135.2 42.3L135.7 41.7L135.8 41.3L136.9 41.1L137.7 40.4L137.6 39.8L136.6 39.9L136.4 39.8L136.6 39.9L137.6 39.8L137.7 39.2L139 38.9L140.7 39.2L141.5 38.6L141.9 38.5L142.4 38L142.8 37.8L143.5 38.2L144 38.3L144.3 39.3L144.9 39.9L145.8 40.6L146.5 41.1L147.2 41.2L147.6 41.6L148.2 41.8L148.5 42.3L148.9 42.4L149.2 43L149.6 43.6L149.4 43.8L149.3 44.4V44.7L149.7 44.6L150.1 43.6L150.5 43.5L150.6 42.9L149.9 42.5L150.2 41.8L151 42L151.5 42.5L151.6 42.1L151.5 41.9L150.7 41.3L150 41L149.2 40.6L149.4 40.4L149.2 40.2H148.5L147.5 39.3L147 38.4L146.1 37.9L145.8 37.4L145.9 37.1L145.8 36.6L146.5 36.2L147.2 36.4L147 35.9V35.8V35.9L147.2 36.4L147 36H147.6H147V36.4L147.3 36.7L147.5 36.2L148.1 36.4L148.2 36.7L148.6 37.2L148.4 37.3L149.2 38.1L150 38.4L150.5 38.8L151.4 39.2L151.8 39.4L152.1 39.8L152.3 39.9L152.2 39.6L152.3 39.4L152.2 39.6L152.3 39.9L152.5 40.1L152.4 40.4V41.1L152.5 41.6L153 42V42.2L153.2 42.3L153.4 42L153.2 42.3L153.3 42.6L153.8 43.2L154.2 43.7L154.4 44.4L154.8 45.3L155.6 45.8H156.2L155.8 44.8L156.4 44.7L156.1 44.1L157 44.4L156.9 43.8L156.4 43.5L155.8 43L156.1 42.8L155.6 42.3L155.3 41.6L155.5 41.4L156 42H156.5L156.9 41.8L156.2 41.2L157.3 40.9L157.8 41H158.4V41.2L158.7 41.7L159.4 41.1L159.7 40.8L160.8 40.7L160.9 40.4L160.1 40.1L159.9 39.7L159.1 39.6L158.2 39.9L159.1 39.6L159.9 39.7L159.5 39.1L159.7 38.3L160.1 37.9L159.6 37.8L158.9 37.4L159.6 37.8L160.1 37.9L160.2 36.6L160.5 36.7L160.9 36.5L160.8 36.2L161.4 35.4L161.6 34.8L162.4 34.7L162.5 35.1L163.9 35.4L164.2 35.6L163.4 36L163.3 36.2L164.3 36.5L164.2 37L164.7 37.2L165.8 36.6L166.7 36.4L166.8 36L165.9 36.1L165.4 35.8L165.2 35.1L165.9 34.7L166.7 34.6L167.2 34.3L167.9 34.2L167.8 33.7L168.2 33.4L167.8 33.7L167.9 34.2L168.6 34L168.7 34.2L167.5 34.7L168.1 35.1L167.5 36L166.9 36.2L167.8 36.8L168.9 37.2L170.2 38.1L170.6 38.4L171.1 38.5L171.7 38.9L172.1 39.6L172 40.1L171 40.7L170.2 40.6L169.2 40.8L167.8 40.4L166.1 39.6H164.6L163.6 39.9L162.6 40.6L160.9 40.5L160.6 41.3H159.2L158.3 42.4L158.9 42.9L158.6 43.8L159.3 44.4L159.9 45.5H160.9L161.8 46.1L162.4 46L162.6 45.5H163.6L164.4 46.1L165.8 46L166.3 45.4L167.1 45.7L167.7 45.6L167.4 46L167.8 46.5L167.6 47L167.8 47.9L168.2 48L167.8 47.9L167.4 48.7L167.2 49.6L167.1 49.9L167 50.7L166.8 51.2L166.9 51.3L166.7 51.7L167.4 53.3L167.5 53.6V53.5V53.6L167.6 53.8L167.5 54.2V54.6L167.4 55.2H167.9L168.5 56L169.1 56.9L169.5 57.7L169.8 58L170.1 58.6V58.8L170.5 59.4L171 59.6L171.5 60L172.1 61.2V61.9L172.3 62.7L173 63.8L173.4 64L174.1 64.8L174.4 65.7L175 66.6L175.5 67L175.6 67.4L175.9 67.7L176.1 68.2L176.5 67.8L176.1 68.2L176.2 68.7L176.1 68.9L176.2 69.4L176 69.5L176.3 70L176.5 70.8L176.7 71.1V71.7L177 72.4L177.7 72.5L178 72.3H178.5L178.6 72L178.9 71.9L179.1 71.6L179.3 71.5L180.1 71.4L180.7 71.2L181.2 70.7L181.5 70.8L181.9 70.7L183 70L184.5 69.5L185.4 69V68.6L185.6 68.1L186.3 67.8L186.7 67.7L187.3 67.3L187.8 67.4L188.2 67.1V66.7L188.6 66.4H189.2L189.4 66.2V65.7L190 65.3H190.5L190.6 65.2L190.4 64.5L190.5 63.9L190.7 63.6L191.1 63.7L191.4 62.9L191.8 62.6L191.9 62.3L192.2 61.6V61.4L191.8 61.3L191.5 60.9L191 60.3L190.4 60.1L189.7 59.9L189.1 59.5L188.6 58.8H188.1H188.6L188.4 57.9L188.5 57.7V57.2L188.4 57.1L188.2 57.5L187.7 58.2L187.1 58.9L186.5 59.6H185.9H185.1L184.4 59.8L184.3 59.5L184.1 59.6L183.9 59.2L184 58.5L183.9 57.9L183.6 57.6L183.4 57.7L183.2 58.3L183.3 59.1L183.1 58.8L182.9 58.4L182.6 58.1L182.4 57.7L182.5 57.3L182.4 56.8L181.7 56.3L181.5 55.9L181 55.7L180.5 54.7L180.1 53.9L180.2 53.6L180 53.1L180.6 53.2L180 52.6L179.9 52H179.6V51.2L179.5 51.1L179.6 51.2V52H179.9L180 52.6L180.6 53.2L180.9 52.8L181.5 53.2L182 53L182.9 54.5L183.6 55.6L184.6 55.9L185.7 56.8L186.9 57.2L187.8 56.7L188.5 56.5L189 56.7L189.6 58.1L190.7 58.2L191.8 58.5L193.6 58.8L194.9 58.6H196.4L198.1 58.4L199 59.2L199.4 60H200L200.6 59.3L200 60L201.2 60.9L201.5 61.3L201.1 61.7L202.5 63L203.2 63.1L204.5 62.4L204.8 63.4L204.9 64.8L205.3 66.2L205.9 68.3L206.9 69.8L207.1 70.5L207.4 71.9L208 73L208.4 73.5L208.8 74.6L209.3 76.1L210.3 77.1L210.7 76.8L211 76H212L211.7 75.6L212.1 74.8L212.6 74.7L212.5 72.8L212.8 71.7L212.7 70.8L212.4 69.4L212.6 68.5L213 68.4L213.8 68L214.3 67.7L214.2 67.2L215.1 66.5L215.7 65.8L216.6 64.5L217.9 63.8L218.3 63.1L218.1 62.3L219.2 62.1H219.8L219.9 61.7L220.3 61.8L220.6 61.9L220.7 61.7L221.1 61.9L221.3 61.3L221.1 60.8H222L222.5 61.4L222.8 61.9L222.9 62.5L223.2 63.1L223 62.2L223.2 63.1L224 64L224.6 64.2L224.5 64.6L225.4 65.9L225.7 66.9L225.5 68.3L226.1 68.6L226.7 68.7L227.7 67.9L228.7 67.5ZM250.8 38.1L251.1 38.8L250.8 38.1ZM250.1 38.7V39.3V38.7ZM249.1 39.9L249.5 40.4L249.1 39.9ZM234.3 66L235 66.1L235.9 67L236.1 68.1L237 69.1L237.1 70L236.8 70.5L237.7 70.9L236.8 70.5L237.1 70L237 69L236.1 68L235.9 66.9L235 66H234.3ZM233.4 66.3L233.5 66.4H234.1H233.5L233.4 66.3ZM232.3 66.7V66.8V66.7ZM150.2 12.1L149.6 11.8L150.2 12.1ZM139.2 29.6L138.4 29.8L139.2 29.6ZM155.3 22.9L155 22.8L155.3 22.9ZM155.1 24.4L155.2 24.5L155.1 24.4ZM154.3 24.5H154.2H154.3ZM153.2 25.9L152.7 25.8L153.2 25.9ZM152.1 26.6H153.6H152.1H151.8H152.1ZM151.5 39.1V38.7V39.1ZM155.4 39.8L155.1 39.6L155.4 39.8ZM158.4 40.5L157.6 40.6L157.1 40.3L157.6 40.6L158.4 40.5ZM160.1 36.2L160.5 36L160.1 36.2ZM160.9 35.1H160.4L160.3 35L160.4 35.1H160.9L161.1 35L160.9 35.1ZM169.2 33.4L169.3 33L169 32.4L169.2 31.8L169.1 31.5H168.9H169.1L169.2 31.8L169 32.4L169.3 33L169.2 33.4ZM171.9 38.4L171.2 38.3L170.4 38.1L171.2 38.3L171.9 38.4ZM167.6 51.3V51.6V51.3L167.8 51.2L167.6 51.1L167.7 50.4L167.6 51.1L167.8 51.2L167.6 51.3ZM168.1 51.6V51.4V51.6ZM168.4 50.2L168.2 50.1L168.1 50.4L168.2 50.1L168.3 49.9L168.2 49.4L168.3 49.9L168.2 50.1L168.4 50.2ZM187.9 59.8L188.3 59.6L187.9 59.8ZM179.1 43.8L178.4 43.2L178.6 42.7L178.3 42.4L178.6 42.7L178.4 43.2L179.1 43.8ZM184.1 45.3L182.7 45.6L181.4 45.4L180.7 44.8L179.8 44.6L179.4 43.8L179.3 43.2L179.6 42.9L179.7 42.5V41.6L180.4 41.5L180.1 41.2H179.7L179.1 40.4L178.5 39.8L177.2 38.5L177 38L176 37L176.6 35.9L177.4 35.7L177.6 35.1L178.4 34.9L179.3 34.4L180.1 34.7L181 34.6L181.3 35.3L181.4 36.3L180.6 36.1L179.9 36.3L180.1 37.1L179.2 37L179.3 37.3L179.9 37.6L180.5 38.6L181.6 39L181.9 39.4L181.8 39.9L181.9 40.2L182.3 40.9L182.2 40.1L182.8 39.8L183.2 40.4L184 41L183.3 41.3L182.4 41V41.9L183 42L182.9 42.8L183.7 43.2L183.8 44.4L184.1 45.2V45.3ZM183.7 39.7L183 39.4L183.7 39.7L184.4 40.4L183.7 39.7ZM185.2 44.6L185 44.9L185.2 44.6ZM222.6 59.3L222.5 59.5L222.1 59.6L221.9 60.2L222.1 59.6L222.5 59.5L222.6 59.3ZM223.9 61.7L223.6 61.9L223.7 62.7L223.6 61.9L222.8 60.1L223.6 61.9L223.9 61.7Z" fill="#505055"/>
<path d="M290 131.5L290.1 131L289.1 131.5L288.5 132.1L288 132.4L286.9 133.2L286 133.8L284.8 134.3L283.8 134.7L283.1 134.9L281.1 136L280 136.8L279.8 137.2L280.7 137.3L280.9 137.6H281.7L282.4 137.3L283.5 136.8L284.9 135.8L285.7 135.1L286.8 134.7L287.5 134.6L287.6 134.1L288.4 133.7L289.6 132.9L290.3 132.4L290.7 132L290.8 131.5L289.8 131.9L290 131.5Z" fill="#505055"/>
<path d="M297.1 127.8L296.3 128.2L295.7 128.1L295.2 127.8L295.6 126.9L295.4 126.6L294.9 127.4L295 126.2L295.3 125.2L294.8 124.9L294.6 124.3L294.2 124.4V125.2L294.3 126.2L294.4 126.6L294.3 126.8L294.2 127.6L293.8 128.3L293 129.2L292.1 129.5L291.8 130L292.5 130.4L292.3 131L291.1 131.9L291.4 132L291.3 132.3L292.3 131.9L293.4 131.2L294.1 130.6L294.4 130.4L294.7 129.9L295.2 129.5L295.8 129.6L296.6 128.9L297.4 127.9L297.1 127.8Z" fill="#505055"/>
<path d="M250.9 69.2L251.1 69.7L251.7 70.3V69.9L252 70.2L251.8 70.4V70.9L252.3 71.1L253.2 71L253.9 71.6L254.1 71.2L254.5 71.8L255.3 72.4L255.4 71.9L255 71.6V71L253.7 70.4L253.3 70.5L252.8 70.4L252.4 69.5L252.5 68.6L253 68.2L253.1 67.3L252.6 66.5L252.7 66.1L252.6 65.8L252.3 66.1L251.7 65.8H251.1L250.9 66.8L251.1 68.5L250.7 68.1L250.9 69.2Z" fill="#505055"/>
<path d="M258 79.3L258.2 78.3L258.1 77.7L258 76.9L257.9 76.5L257.8 76L256.9 75.4L257.1 76.3H256.4L256.3 76.8L255.5 77.1L255.2 76.6L254.7 77L254.1 77.3L253.7 78.3L253.9 78.6L254.6 78H255.1L255.3 77.6L256 78.1L255.7 78.6L256.1 79.4L257.3 80.1L257.5 79.5L257.1 78.7L257.5 78.2L258 79.3Z" fill="#505055"/>
<path d="M254.9 74.9V74.1L254.4 74.2V74.9L254.2 75.2L254 75.5L254.6 76.2L254.9 75.9L255.2 75.2L255.5 74.9V73.8L254.9 74.9Z" fill="#505055"/>
<path d="M256.4 72.4L255.5 72.3L256.2 73.2V73.6L255.7 73.5L255.9 74.2H256.2L256.3 75L256.7 74.8L256.4 74.1V73.7L257.1 74L256.7 72.8L256.4 72.4Z" fill="#505055"/>
<path d="M253.3 29.1L254.7 30.1L255.8 31.6L256.2 32.4L257.2 33.6L257.8 34.6L258.6 35.5V34.7L259.7 35.3L259.2 34.6L257.6 33.5L256.9 31.9L258.5 32.3L256.1 30.4L254.9 29.3L254 28.2L252.8 27.2L251.9 26.5L251.7 26.7L252.5 27.2L252.1 27.7L253.3 29.1Z" fill="#505055"/>
<path d="M170.6 9.7L172 9.9L172.3 10.3L174.7 10.4H175L173.3 9.6L172.8 8.9L173.4 8L173.8 7.2L175.3 6.3L177 5.9L179 5.5L179.2 5.2L178.5 4.9L177.4 5L176.5 5.3L174.5 5.5L172.7 6L171.5 6.5L172 6.9L170.8 7.6L171.5 7.8L170.6 8.5L170.8 9L170.3 9.2L170.6 9.7Z" fill="#505055"/>
<path d="M166.6 52L165.9 51.9L165.1 51.6L164.9 52L164.6 51.4L163.9 51.3L163.1 51.4L162.7 51.7L162 52L161.5 51.8L160.5 51.5L159.6 51.2H158.4L158.1 50.8L157.2 50.7L156.9 50.5H156.6L156.3 50L155 49.8L154.4 49.9L153.8 50.4L153.5 50.9L153.8 51.7L153.4 52.2L153 52.5L152 52L150.7 51.5L149.8 51.3L149.3 50.3L148 49.8L147.2 49.6L146.8 49.7L145.7 49.3V50.2V49.3L145.4 49.1L145.1 48.6H144.6L144.4 48L145 47.4L145.1 46.4L144.8 46.1V45.6L145.2 45L145.1 44.8L144.3 45.2V44.6L143.7 44.5L142.7 45L142.6 45.4L142.7 45L142.1 45.1L141.7 44.8H140.7L139.8 45.3L139.3 45.1L137.8 45.2L136.3 45.4L135.4 45.7L134.8 46.2L133.8 46.4L132.9 47H132.5L131.5 46.8L130.6 46.9L130.1 46.4H129.4L129.1 47.1L128.5 48.3L127.8 48.8L126.9 49.3L126.3 50L126.1 50.6L125.7 51.5L125.9 52.9L125.1 53.8L124.6 54.1L123.8 54.9L122.9 55L122.4 55.4L121.8 56.5L121.2 56.9L120.8 57.6V58.2L120.5 58.9L120.2 59.1L119.7 59.8L119.4 60.6L119.5 61L119.2 61.6L118.8 61.9L118.7 62.4H119.8H118.7L118.6 62.9L119.1 63.4L119.3 63.9L119.2 64.5L119.3 65.1L119.4 66.2L119.3 67.2L119 67.8L119.1 68.4L119.4 68.1L119.1 68.4L118.9 69L118.4 69.8L118 70L118.5 70.4L118.9 71.3H119.8H118.9L118.8 71.8L118.9 72.7L119.4 72.5H119.7L120 72.4H120.2H120L119.7 72.5H119.4L118.9 72.7L119 72.9L119.3 73.1V73.3L119.5 73.6L119.9 73.7L120.4 74.2L120.9 73.7H121.2L121.3 73.6L121.2 73.7H120.9L120.4 74.2L120.7 74.4L120.8 74.6L120.9 75.1L121.1 75.3L121.4 75.5L121.8 75.9L122.2 76.5L122.3 77.3L122.5 77.7L123 78.3L123.7 78.7L124 78.8L124.2 78.5L124.3 78.2L124.5 77.9L124.3 78.2L124.2 78.5L124 78.8L124.6 79.5L125.4 80.1L126.3 80.9L127.3 81.4H127.6H127.8L128.8 81L129.5 80.7L130.6 80.5H131.2L131.9 80.7H132.4V80.3L132.2 79.9L132.4 80.3V80.7L133.3 81L134.2 80.7L134.8 80.3L136.3 79.6L137.1 79.4L137.9 79.3H138.8H139.5L140.2 80L140.5 80.8L141 81.5H141.8L142.2 81.3L142.6 81.4L143.6 81L143.8 80.3L143.6 81V81.3L143.8 81.5L144 82L144.5 82.2L144.9 82.9L144.8 83.8H145.4H144.8L144.5 85.1L144.7 85.3L144.5 86.1L144.3 86.9L144.1 87.2V87.6L144.7 88.7L145.3 89.6L146.3 90.7L147.1 91.9L147.5 91.4L147.1 91.9L147.3 92.7L147.6 92.6V92.1L147.7 91.8L147.6 92.1V92.6L147.3 92.7L147 93L146.9 93.2L147.4 93.9L147.6 94.6L147.9 95.7L147.6 96.2L147.5 96.4L147.7 97.1L148 97.8L148.3 98.2L148.4 98.8L148.3 99.6L148 100.1L147.4 100.8L147.2 101.3L146.9 102.3L146.8 102.8L146.5 103.8L146.3 104.8L146.4 105.5L146.9 105.3L147.5 105.1L146.9 105.3L146.4 105.5V106.4L147.2 107.5L147.4 108.2L147.9 109.5L148.4 110.4L148.8 110.9L148.9 111.5V112.8L149.2 114.5L149.4 115.3L149.6 116.4L149.9 117.2L150.6 118L151.1 117.4L151.5 117.7L151.1 117.4L150.6 118L151.2 119.4L151.6 120.3L152.2 121.3V122.1L151.9 122.3L152.1 123V123.7L152.2 124L152.3 123.8L152.7 124.3H153L153.4 124.7H153.8L154.4 124.3L155.2 124.1L156.2 123.7L156.6 123.8L157.2 123.7L158.2 123.9L158.7 123.7L159.3 123.9L159.4 123.6L159.9 123.5L160.9 123.1L161.6 122.6L162.3 121.9L163.5 120.8L164.1 120L164.4 119.4L164.8 118.8L165 118.6L165.7 118L166 117.5L166.2 116.6L166.5 115.8L166.6 115.2L166.4 115.1L166.3 114.6L166.8 114.2L168 113.6L168.8 113.2L169.2 112.8L169.4 112.3L169.2 112.1L169.4 111.6L169.5 110.5L169.3 110.6V110.3L169.2 109.7L168.8 108.9L168.9 108.1L169.3 107.9L170 107.1L170.4 106.9L171.6 105.7L172.7 105.2L173.6 104.8L174.2 104.1L174.6 103.3L174.9 102.5L174.7 102V100.3L174.6 99.3L174.7 98.2L174.6 97.7L174.3 97.5L173.9 96.4L173.6 95.7L173.7 95.2L173.6 94.9L173.9 94.2V93.9L173.3 93.5L173.2 92.9L173.7 91.5L174.1 91.1L174.3 90.4L174.6 89.9L174.8 89.1L175.2 89L175.4 88.5L176.1 88.1L175.5 87.2V86.8V87.2L176.1 88.1L176.3 87.8L176.5 87.2L177.6 85.9L178.5 85.1L179.9 84L180.9 83.1L182 81.6L182.8 80.4L183.6 78.8L184.2 77.4L184.6 76.2L184.8 75L185 74.6V74L185.1 73.4V73.1H184.7L184.2 73.5L183.7 73.6L183.3 73.8H183H182.4L182.1 74L181.6 74.1L180.8 74.4L179.7 74.5L178.8 74.8H178.3L177.8 74.3L177.6 73.8L177.3 73.6L177 74.2L177.3 73.6L176.9 73.3L177 73V72.5L176.8 72.2L176.3 71.9L176 71.5L175.4 70.9L174.8 70.3L173.4 69.3L172.8 68.8L172.5 67.8L171.9 66.5L171.4 67.1L171.9 66.5L171.4 66.1L171 65.8L170.6 64.5L170.4 63.4L170.6 63.2L170.2 62.1L170 61.9L168.8 60.9L168.7 60.2L168.9 60L168 58.8L167.7 58.2L167.3 57.6L166.5 55.9L165.8 54.8L165.3 53.6L165.4 53.5L166.2 55.1L166.7 55.6L167 55.9L167.2 55.7L167.4 55.1L167.5 54.3L167.7 53.9L167.6 53.6L166.9 52H166.6ZM119.9 68.1L120.1 68L119.9 68.1ZM151.8 118.1L151.4 118L151.8 118.1ZM162.4 118.4L162.6 118.6L162.4 118.4ZM164.6 116.4L164.1 115.9L164.6 116.4ZM165.2 114.8V114.6V114.8ZM176.3 73.9L176.1 74L176.3 73.9ZM172.5 70.1L172.8 70L172.5 70.1Z" fill="#505055"/>
<path d="M70.4 66.3V66.4L70.5 66.3L70.6 66.4H70.7L70.8 66.3H70.9H71L71.1 66.4H71.2H71.3H71.4L71.5 66.3H71.7V66.2L71.8 66.1H71.9V65.9H71.8L71.7 65.8H71.5H71.4H70.8L70.6 65.7L70.5 65.8H70.4V65.9H70.3L70.4 66V66.1V66.2V66.3Z" fill="#505055"/>
<path d="M126.7 31.8C128.412 31.8 129.8 30.4121 129.8 28.7C129.8 26.9879 128.412 25.6 126.7 25.6C124.988 25.6 123.6 26.9879 123.6 28.7C123.6 30.4121 124.988 31.8 126.7 31.8Z" fill="white"/>
<path d="M126.7 30.5C127.694 30.5 128.5 29.6941 128.5 28.7C128.5 27.7059 127.694 26.9 126.7 26.9C125.706 26.9 124.9 27.7059 124.9 28.7C124.9 29.6941 125.706 30.5 126.7 30.5Z" fill="#0078D7"/>
<path d="M120.4 41.9C122.112 41.9 123.5 40.5121 123.5 38.8C123.5 37.0879 122.112 35.7 120.4 35.7C118.688 35.7 117.3 37.0879 117.3 38.8C117.3 40.5121 118.688 41.9 120.4 41.9Z" fill="white"/>
<path d="M120.4 40.6C121.394 40.6 122.2 39.7941 122.2 38.8C122.2 37.8059 121.394 37 120.4 37C119.406 37 118.6 37.8059 118.6 38.8C118.6 39.7941 119.406 40.6 120.4 40.6Z" fill="#0078D7"/>
<path d="M126.4 38.3C128.112 38.3 129.5 36.9121 129.5 35.2C129.5 33.4879 128.112 32.1 126.4 32.1C124.688 32.1 123.3 33.4879 123.3 35.2C123.3 36.9121 124.688 38.3 126.4 38.3Z" fill="white"/>
<path d="M126.4 37C127.394 37 128.2 36.1941 128.2 35.2C128.2 34.2059 127.394 33.4 126.4 33.4C125.406 33.4 124.6 34.2059 124.6 35.2C124.6 36.1941 125.406 37 126.4 37Z" fill="#0078D7"/>
<path d="M119.5 29.6C121.212 29.6 122.6 28.2121 122.6 26.5C122.6 24.7879 121.212 23.4 119.5 23.4C117.788 23.4 116.4 24.7879 116.4 26.5C116.4 28.2121 117.788 29.6 119.5 29.6Z" fill="white"/>
<path d="M119.5 28.3C120.494 28.3 121.3 27.4941 121.3 26.5C121.3 25.5059 120.494 24.7 119.5 24.7C118.506 24.7 117.7 25.5059 117.7 26.5C117.7 27.4941 118.506 28.3 119.5 28.3Z" fill="#0078D7"/>
<path d="M120.6 35.8C122.312 35.8 123.7 34.4121 123.7 32.7C123.7 30.9879 122.312 29.6 120.6 29.6C118.888 29.6 117.5 30.9879 117.5 32.7C117.5 34.4121 118.888 35.8 120.6 35.8Z" fill="white"/>
<path d="M120.6 34.5C121.594 34.5 122.4 33.6941 122.4 32.7C122.4 31.7059 121.594 30.9 120.6 30.9C119.606 30.9 118.8 31.7059 118.8 32.7C118.8 33.6941 119.606 34.5 120.6 34.5Z" fill="#0078D7"/>
<path d="M134.2 29.3C135.912 29.3 137.3 27.9121 137.3 26.2C137.3 24.4879 135.912 23.1 134.2 23.1C132.488 23.1 131.1 24.4879 131.1 26.2C131.1 27.9121 132.488 29.3 134.2 29.3Z" fill="white"/>
<path d="M134.2 28C135.194 28 136 27.1941 136 26.2C136 25.2059 135.194 24.4 134.2 24.4C133.206 24.4 132.4 25.2059 132.4 26.2C132.4 27.1941 133.206 28 134.2 28Z" fill="#0078D7"/>
<path d="M60.1 29.6C61.8121 29.6 63.2 28.2121 63.2 26.5C63.2 24.7879 61.8121 23.4 60.1 23.4C58.3879 23.4 57 24.7879 57 26.5C57 28.2121 58.3879 29.6 60.1 29.6Z" fill="white"/>
<path d="M60.1 28.3C61.0941 28.3 61.9 27.4941 61.9 26.5C61.9 25.5059 61.0941 24.7 60.1 24.7C59.1059 24.7 58.3 25.5059 58.3 26.5C58.3 27.4941 59.1059 28.3 60.1 28.3Z" fill="#0078D7"/>
<path d="M70.1 32C71.8121 32 73.2 30.6121 73.2 28.9C73.2 27.1879 71.8121 25.8 70.1 25.8C68.3879 25.8 67 27.1879 67 28.9C67 30.6121 68.3879 32 70.1 32Z" fill="white"/>
<path d="M70.1 30.7C71.0941 30.7 71.9 29.8941 71.9 28.9C71.9 27.9059 71.0941 27.1 70.1 27.1C69.1059 27.1 68.3 27.9059 68.3 28.9C68.3 29.8941 69.1059 30.7 70.1 30.7Z" fill="#0078D7"/>
<path d="M62 40.6C63.7121 40.6 65.1 39.2121 65.1 37.5C65.1 35.7879 63.7121 34.4 62 34.4C60.2879 34.4 58.9 35.7879 58.9 37.5C58.9 39.2121 60.2879 40.6 62 40.6Z" fill="white"/>
<path d="M62 39.3C62.9941 39.3 63.8 38.4941 63.8 37.5C63.8 36.5059 62.9941 35.7 62 35.7C61.0059 35.7 60.2 36.5059 60.2 37.5C60.2 38.4941 61.0059 39.3 62 39.3Z" fill="#0078D7"/>
<path d="M58.6 45.7C60.3121 45.7 61.7 44.3121 61.7 42.6C61.7 40.8879 60.3121 39.5 58.6 39.5C56.8879 39.5 55.5 40.8879 55.5 42.6C55.5 44.3121 56.8879 45.7 58.6 45.7Z" fill="white"/>
<path d="M58.6 44.4C59.5941 44.4 60.4 43.5941 60.4 42.6C60.4 41.6059 59.5941 40.8 58.6 40.8C57.6059 40.8 56.8 41.6059 56.8 42.6C56.8 43.5941 57.6059 44.4 58.6 44.4Z" fill="#0078D7"/>
<path d="M48.6 43.4C50.3121 43.4 51.7 42.0121 51.7 40.3C51.7 38.5879 50.3121 37.2 48.6 37.2C46.8879 37.2 45.5 38.5879 45.5 40.3C45.5 42.0121 46.8879 43.4 48.6 43.4Z" fill="white"/>
<path d="M48.6 42.1C49.5941 42.1 50.4 41.2941 50.4 40.3C50.4 39.3059 49.5941 38.5 48.6 38.5C47.6059 38.5 46.8 39.3059 46.8 40.3C46.8 41.2941 47.6059 42.1 48.6 42.1Z" fill="#0078D7"/>
<path d="M44.2 49C45.9121 49 47.3 47.6121 47.3 45.9C47.3 44.1879 45.9121 42.8 44.2 42.8C42.488 42.8 41.1 44.1879 41.1 45.9C41.1 47.6121 42.488 49 44.2 49Z" fill="white"/>
<path d="M44.2 47.7C45.1941 47.7 46 46.8941 46 45.9C46 44.9059 45.1941 44.1 44.2 44.1C43.2059 44.1 42.4 44.9059 42.4 45.9C42.4 46.8941 43.2059 47.7 44.2 47.7Z" fill="#0078D7"/>
<path d="M28.7 37.9C30.4121 37.9 31.8 36.5121 31.8 34.8C31.8 33.0879 30.4121 31.7 28.7 31.7C26.988 31.7 25.6 33.0879 25.6 34.8C25.6 36.5121 26.988 37.9 28.7 37.9Z" fill="white"/>
<path d="M28.7 36.6C29.6941 36.6 30.5 35.7941 30.5 34.8C30.5 33.8059 29.6941 33 28.7 33C27.7059 33 26.9 33.8059 26.9 34.8C26.9 35.7941 27.7059 36.6 28.7 36.6Z" fill="#0078D7"/>
<path d="M24.3 43.5C26.0121 43.5 27.4 42.1121 27.4 40.4C27.4 38.6879 26.0121 37.3 24.3 37.3C22.5879 37.3 21.2 38.6879 21.2 40.4C21.2 42.1121 22.5879 43.5 24.3 43.5Z" fill="white"/>
<path d="M24.3 42.2C25.2941 42.2 26.1 41.3941 26.1 40.4C26.1 39.4059 25.2941 38.6 24.3 38.6C23.3059 38.6 22.5 39.4059 22.5 40.4C22.5 41.3941 23.3059 42.2 24.3 42.2Z" fill="#0078D7"/>
<path d="M251.8 45.6C253.512 45.6 254.9 44.2121 254.9 42.5C254.9 40.7879 253.512 39.4 251.8 39.4C250.088 39.4 248.7 40.7879 248.7 42.5C248.7 44.2121 250.088 45.6 251.8 45.6Z" fill="white"/>
<path d="M251.8 44.3C252.794 44.3 253.6 43.4941 253.6 42.5C253.6 41.5059 252.794 40.7 251.8 40.7C250.806 40.7 250 41.5059 250 42.5C250 43.4941 250.806 44.3 251.8 44.3Z" fill="#0078D7"/>
<path d="M236.6 57.8C238.312 57.8 239.7 56.4121 239.7 54.7C239.7 52.9879 238.312 51.6 236.6 51.6C234.888 51.6 233.5 52.9879 233.5 54.7C233.5 56.4121 234.888 57.8 236.6 57.8Z" fill="white"/>
<path d="M236.6 56.5C237.594 56.5 238.4 55.6941 238.4 54.7C238.4 53.7059 237.594 52.9 236.6 52.9C235.606 52.9 234.8 53.7059 234.8 54.7C234.8 55.6941 235.606 56.5 236.6 56.5Z" fill="#0078D7"/>
<path d="M232.6 48.3C234.312 48.3 235.7 46.9121 235.7 45.2C235.7 43.4879 234.312 42.1 232.6 42.1C230.888 42.1 229.5 43.4879 229.5 45.2C229.5 46.9121 230.888 48.3 232.6 48.3Z" fill="white"/>
<path d="M232.6 47C233.594 47 234.4 46.1941 234.4 45.2C234.4 44.2059 233.594 43.4 232.6 43.4C231.606 43.4 230.8 44.2059 230.8 45.2C230.8 46.1941 231.606 47 232.6 47Z" fill="#0078D7"/>
<path d="M227.2 63.2C228.912 63.2 230.3 61.8121 230.3 60.1C230.3 58.3879 228.912 57 227.2 57C225.488 57 224.1 58.3879 224.1 60.1C224.1 61.8121 225.488 63.2 227.2 63.2Z" fill="white"/>
<path d="M227.2 61.9C228.194 61.9 229 61.0941 229 60.1C229 59.1059 228.194 58.3 227.2 58.3C226.206 58.3 225.4 59.1059 225.4 60.1C225.4 61.0941 226.206 61.9 227.2 61.9Z" fill="#0078D7"/>
<path d="M224.3 83.3C226.012 83.3 227.4 81.9121 227.4 80.2C227.4 78.4879 226.012 77.1 224.3 77.1C222.588 77.1 221.2 78.4879 221.2 80.2C221.2 81.9121 222.588 83.3 224.3 83.3Z" fill="white"/>
<path d="M224.3 82C225.294 82 226.1 81.1941 226.1 80.2C226.1 79.2059 225.294 78.4 224.3 78.4C223.306 78.4 222.5 79.2059 222.5 80.2C222.5 81.1941 223.306 82 224.3 82Z" fill="#0078D7"/>
<path d="M195.8 74.1C197.512 74.1 198.9 72.7121 198.9 71C198.9 69.2879 197.512 67.9 195.8 67.9C194.088 67.9 192.7 69.2879 192.7 71C192.7 72.7121 194.088 74.1 195.8 74.1Z" fill="white"/>
<path d="M195.8 72.8C196.794 72.8 197.6 71.9941 197.6 71C197.6 70.0059 196.794 69.2 195.8 69.2C194.806 69.2 194 70.0059 194 71C194 71.9941 194.806 72.8 195.8 72.8Z" fill="#0078D7"/>
<path d="M197 67.1C198.712 67.1 200.1 65.7121 200.1 64C200.1 62.2879 198.712 60.9 197 60.9C195.288 60.9 193.9 62.2879 193.9 64C193.9 65.7121 195.288 67.1 197 67.1Z" fill="white"/>
<path d="M197 65.8C197.994 65.8 198.8 64.9941 198.8 64C198.8 63.0059 197.994 62.2 197 62.2C196.006 62.2 195.2 63.0059 195.2 64C195.2 64.9941 196.006 65.8 197 65.8Z" fill="#0078D7"/>
<path d="M274.6 124.1C276.312 124.1 277.7 122.712 277.7 121C277.7 119.288 276.312 117.9 274.6 117.9C272.888 117.9 271.5 119.288 271.5 121C271.5 122.712 272.888 124.1 274.6 124.1Z" fill="white"/>
<path d="M274.6 122.8C275.594 122.8 276.4 121.994 276.4 121C276.4 120.006 275.594 119.2 274.6 119.2C273.606 119.2 272.8 120.006 272.8 121C272.8 121.994 273.606 122.8 274.6 122.8Z" fill="#0078D7"/>
<path d="M277.9 117.2C279.612 117.2 281 115.812 281 114.1C281 112.388 279.612 111 277.9 111C276.188 111 274.8 112.388 274.8 114.1C274.8 115.812 276.188 117.2 277.9 117.2Z" fill="white"/>
<path d="M277.9 115.9C278.894 115.9 279.7 115.094 279.7 114.1C279.7 113.106 278.894 112.3 277.9 112.3C276.906 112.3 276.1 113.106 276.1 114.1C276.1 115.094 276.906 115.9 277.9 115.9Z" fill="#0078D7"/>
<path d="M68.7 125.2C70.4121 125.2 71.8 123.812 71.8 122.1C71.8 120.388 70.4121 119 68.7 119C66.988 119 65.6 120.388 65.6 122.1C65.6 123.812 66.988 125.2 68.7 125.2Z" fill="white"/>
<path d="M68.7 123.9C69.6941 123.9 70.5 123.094 70.5 122.1C70.5 121.106 69.6941 120.3 68.7 120.3C67.7059 120.3 66.9 121.106 66.9 122.1C66.9 123.094 67.7059 123.9 68.7 123.9Z" fill="#0078D7"/>
<path d="M191.3 62.4C193.012 62.4 194.4 61.0121 194.4 59.3C194.4 57.5879 193.012 56.2 191.3 56.2C189.588 56.2 188.2 57.5879 188.2 59.3C188.2 61.0121 189.588 62.4 191.3 62.4Z" fill="#505055"/>
<path d="M191.3 61.1C192.294 61.1 193.1 60.2941 193.1 59.3C193.1 58.3059 192.294 57.5 191.3 57.5C190.306 57.5 189.5 58.3059 189.5 59.3C189.5 60.2941 190.306 61.1 191.3 61.1Z" fill="#505055"/>
</svg>
