<svg width="330" height="53" viewBox="0 0 330 53" fill="none" xmlns="http://www.w3.org/2000/svg">
<path d="M22.8 0L0 13.2V39.5L22.8 52.7L45.6 39.5V13.2L22.8 0Z" fill="#0078D4"/>
<path d="M22.8002 28.4C23.96 28.4 24.9002 27.4597 24.9002 26.2999C24.9002 25.1402 23.96 24.2 22.8002 24.2C21.6404 24.2 20.7002 25.1402 20.7002 26.2999C20.7002 27.4597 21.6404 28.4 22.8002 28.4Z" fill="white"/>
<path d="M22.8002 28.4C23.96 28.4 24.9002 27.4597 24.9002 26.2999C24.9002 25.1402 23.96 24.2 22.8002 24.2C21.6404 24.2 20.7002 25.1402 20.7002 26.2999C20.7002 27.4597 21.6404 28.4 22.8002 28.4Z" fill="white"/>
<path d="M233.2 52.3C247.56 52.3 259.2 40.6595 259.2 26.3C259.2 11.9406 247.56 0.300049 233.2 0.300049C218.841 0.300049 207.2 11.9406 207.2 26.3C207.2 40.6595 218.841 52.3 233.2 52.3Z" fill="#0078D4"/>
<path d="M180.5 26.2L183.5 20.7L176.6 8.89998H170.3L167 3.59998L153.3 3.69998L150.2 9.09998L143.9 9.19998L137.1 21.1L140.3 26.5L137.2 32L144.2 43.8H150.5L153.7 49.1L167.4 49L170.6 43.6L176.9 43.5L183.6 31.6L180.5 26.2Z" fill="#0078D4"/>
<path d="M329 35C328.9 34.7 328.8 34.4 328.5 34.2L327.6 33.4C326.8 32.7 325.8 31.8 325 31C325.3 29.6 325.5 28 325.5 26.5C325.5 25 325.3 23.5 325 22.1L328.2 19.1C328.4 19 328.5 18.8 328.6 18.8C328.7 18.7 328.8 18.5 328.9 18.4C329.2 17.9 329.1 17.3 328.9 16.9C328.6 16.3 326 11.9 325.4 10.7C324.8 9.50004 324.1 9.60004 323.7 9.60004C323.6 9.60004 323.5 9.60003 323.2 9.70004C322.1 10 319.9 10.7 319.1 11C319 11.1 318.8 11.1 318.7 11.1C316.5 9.10004 313.8 7.50004 310.9 6.50004L309.8 1.70004C309.7 1.40004 309.6 1.20004 309.5 1.00004C309.2 0.500035 308.8 0.400035 308.3 0.400035C307.6 0.400035 301.6 0.300035 300.8 0.400035C300.5 0.400035 300.2 0.500035 299.9 0.700035C299.9 0.700035 299.8 0.700035 299.8 0.800035C299.5 1.00004 299.3 1.40004 299.2 1.80004L298.9 3.20004C298.7 4.20004 298.4 5.50004 298.2 6.40004C295.2 7.30004 292.6 8.90003 290.3 10.9L289.2 10.6C288.1 10.2 286.8 9.80004 286.1 9.50004C284.6 9.00004 284.3 9.90003 284.3 9.90003C284.3 9.90003 284.3 10 284.2 10.1C284.1 10.2 284.1 10.2 284 10.3L283.7 10.9C282.6 12.6 280.6 15.8 280.3 16.8C280.1 17.1 280 17.5 280.1 17.9C280.1 18.4 280.3 18.6 280.3 18.6C280.3 18.7 281.8 19.9 283 20.9L283.9 21.7C283.5 23.3 283.3 24.9 283.3 26.6C283.3 28.1 283.5 29.6 283.8 31.1C282.7 32.1 281.1 33.5 280.5 34C280.3 34.2 280.2 34.5 280.1 34.7C279.8 35.2 279.8 35.8 280.1 36.3C280.1 36.3 282.3 40.3 283.3 42C283.5 42.3 283.6 42.5 283.8 42.7L283.9 42.8C284.3 43.5 285.1 43.8 285.8 43.5C286.4 43.4 288.2 42.7 289.6 42.2L290 42.1C292.3 44.2 295 45.8 298 46.8L299.1 51.3C299.3 52 299.9 52.5 300.7 52.5C301.2 52.6 303.9 52.5 306 52.5H308.3C309.1 52.5 309.7 52 309.9 51.2L310.8 46.8C313.8 45.9 316.5 44.3 318.8 42.2L323.4 43.6C323.8 43.7 324.1 43.7 324.5 43.5C324.8 43.4 325 43.2 325.3 42.8C325.8 42.1 328 38.2 328.8 36.8C328.8 36.7 328.9 36.7 328.9 36.6L329.1 36.3C329.2 36.1 329.3 35.9 329.3 35.7C329.3 35.5 329.3 35.4 329.3 35.3V35.2C329 35 329 35 329 35Z" fill="#0078D4"/>
<path d="M114.1 2.69995H66.8999V49.9H114.1V2.69995Z" fill="#0078D4"/>
<path d="M233.2 28.4C234.36 28.4 235.3 27.4597 235.3 26.2999C235.3 25.1402 234.36 24.2 233.2 24.2C232.04 24.2 231.1 25.1402 231.1 26.2999C231.1 27.4597 232.04 28.4 233.2 28.4Z" fill="white"/>
<path d="M160.5 28.4C161.66 28.4 162.6 27.4597 162.6 26.2999C162.6 25.1402 161.66 24.2 160.5 24.2C159.34 24.2 158.4 25.1402 158.4 26.2999C158.4 27.4597 159.34 28.4 160.5 28.4Z" fill="white"/>
<path d="M90.4999 28.4C91.6597 28.4 92.5999 27.4597 92.5999 26.2999C92.5999 25.1402 91.6597 24.2 90.4999 24.2C89.3401 24.2 88.3999 25.1402 88.3999 26.2999C88.3999 27.4597 89.3401 28.4 90.4999 28.4Z" fill="white"/>
<path d="M304.5 28.4C305.66 28.4 306.6 27.4597 306.6 26.2999C306.6 25.1402 305.66 24.2 304.5 24.2C303.34 24.2 302.4 25.1402 302.4 26.2999C302.4 27.4597 303.34 28.4 304.5 28.4Z" fill="white"/>
</svg>
