<?xml version="1.0" encoding="utf-8"?>
<!-- Generator: Adobe Illustrator 22.1.0, SVG Export Plug-In . SVG Version: 6.00 Build 0)  -->
<svg version="1.1" id="Layer_1" xmlns="http://www.w3.org/2000/svg" xmlns:xlink="http://www.w3.org/1999/xlink" x="0px" y="0px"
	 viewBox="0 0 196.5 204.7" style="enable-background:new 0 0 196.5 204.7;" xml:space="preserve">
<style type="text/css">
	.st0{fill:none;stroke:#000000;stroke-width:3;stroke-miterlimit:10;}
	.st1{fill:#FFFFFF;}
	.st2{fill:#0078D7;}
	.st3{fill:#FFFFFF;stroke:#0078D7;stroke-miterlimit:10;}
</style>
<path class="st0" d="M97.4,201.8c52.1,0,94.4-42.3,94.4-94.4S149.5,13,97.4,13S3,55.2,3,107.4S45.3,201.8,97.4,201.8z"/>
<path class="st1" d="M180.1,162.3c-4.1,0-7.9-2.1-10.1-5.6c-1.7-2.6-2.3-5.9-1.5-9.1c0.7-3.1,2.6-5.8,5.3-7.4c2-1.2,4.1-1.8,6.4-1.8
	c4.1,0,7.9,2.1,10.1,5.6c1.7,2.6,2.3,5.9,1.5,9.1c-0.7,3.1-2.6,5.8-5.3,7.4C184.5,161.7,182.4,162.3,180.1,162.3z"/>
<path class="st2" d="M180.1,140.9c3.3,0,6.3,1.7,8.1,4.5c2.8,4.5,1.5,10.2-3,13c-1.5,1-3.3,1.5-5.1,1.5c-3.3,0-6.3-1.7-8.1-4.5
	c-2.8-4.5-1.5-10.2,3-13C176.6,141.4,178.2,140.9,180.1,140.9z M180.1,135.9c-2.6,0-5.3,0.7-7.8,2.3c-6.8,4.3-8.7,13.2-4.5,20
	c2.8,4.3,7.4,6.8,12.2,6.8c2.6,0,5.3-0.7,7.8-2.3c6.8-4.3,8.7-13.2,4.5-20C189.5,138.4,184.8,135.9,180.1,135.9z"/>
<path class="st1" d="M94.8,27.2c-4.1,0-7.9-2.1-10.1-5.6c-1.7-2.6-2.3-5.9-1.5-9.1c0.7-3.1,2.6-5.8,5.3-7.4c2-1.2,4.1-1.8,6.4-1.8
	c4.1,0,7.9,2.1,10.1,5.6c1.7,2.6,2.3,5.9,1.5,9.1c-0.7,3.1-2.6,5.8-5.3,7.4C99.2,26.5,97.1,27.2,94.8,27.2z"/>
<path class="st2" d="M94.8,5.7c3.3,0,6.3,1.7,8.1,4.5c1.3,2.1,1.8,4.6,1.2,7.1c-0.7,2.5-2,4.6-4.1,5.9c-1.5,1-3.3,1.5-5.1,1.5
	c-3.3,0-6.3-1.7-8.1-4.5c-2.8-4.5-1.5-10.2,3-13C91.3,6.2,92.9,5.7,94.8,5.7z M94.8,0.8c-2.6,0-5.3,0.7-7.6,2.3
	c-6.8,4.3-8.7,13.2-4.5,20c2.8,4.3,7.4,6.8,12.2,6.8c2.6,0,5.3-0.7,7.8-2.3c6.8-4.3,8.7-13.2,4.5-20C104.3,3.1,99.5,0.8,94.8,0.8z"
	/>
<path class="st1" d="M19.4,174.7c-4.1,0-7.9-2.1-10.1-5.6c-1.7-2.6-2.3-5.9-1.5-9.1c0.7-3.1,2.6-5.8,5.3-7.4c2-1.2,4.1-1.8,6.4-1.8
	c4.1,0,7.9,2.1,10.1,5.6c1.7,2.6,2.3,5.9,1.5,9.1c-0.8,3.1-2.6,5.8-5.3,7.4C23.8,174,21.7,174.7,19.4,174.7z"/>
<path class="st2" d="M19.4,153.2c3.3,0,6.3,1.7,8.1,4.5c2.8,4.5,1.5,10.2-3,13c-1.5,1-3.3,1.5-5.1,1.5c-3.3,0-6.3-1.7-8.1-4.5
	c-1.2-2-1.7-4.6-1.2-7.1c0.5-2.5,2-4.6,4.1-5.9C15.9,153.9,17.5,153.2,19.4,153.2z M19.4,148.3c-2.6,0-5.3,0.7-7.8,2.3
	c-6.8,4.3-8.7,13.2-4.5,20c2.8,4.3,7.4,6.8,12.2,6.8c2.6,0,5.3-0.7,7.8-2.3c6.8-4.3,8.7-13.2,4.5-20
	C28.9,150.8,24.1,148.3,19.4,148.3z"/>
<path class="st2" d="M96.9,163.1c31.3,0,56.8-25.4,56.8-56.8s-25.4-56.8-56.8-56.8S40.1,75,40.1,106.4S65.6,163.1,96.9,163.1z"/>
<path class="st3" d="M70.5,68.9c0,0-0.3,0.2-1.2,1.7c-0.8,1.5-1.7,1.5-2,2.6c-0.3,1.2-0.7,2.3-1.2,3c-0.7,0.7-1.7,1.3-2.8,2.1
	c-1.2,0.8-2.6,2.6-3.1,4.6c-0.5,2-1.3,3.5-0.8,5.9c0.5,2.3,0.5,5.1,0.8,6.3c0.3,1.2,0,2.1,0.8,2.6c0.8,0.5,1.5,1,1.3,0.2
	c-0.2-0.8,0-2.1-0.3-3c-0.3-0.7-0.5-1.7-0.7-2.6c-0.2-1-0.2-1.8,0-2.5c0.2-0.7,0.5-1.2,0.8-0.8c0.3,0.3,0,2.3,0.3,3
	c0.3,0.7,1,2.6,1.7,3.3c0.7,0.7,1.2,2.5,1.7,3c0.5,0.5,0.5,0.8,0.5,1.8c0,1,0,1.2,0.7,1.8c0.7,0.7,4.3,2.8,5.6,3.3s2.3,0.7,3.5,0.8
	c1.2,0.2,1.5,0.3,2.1,0.7c0.7,0.3,1.5,1.5,2,1.8c0.5,0.3,0.7,0.3,1.7,0.3c1,0,1.8,0,2.5,0.3c0.7,0.3,2.1,2.6,2.8,3.1
	c0.8,0.7,1.5,1.5,2.8,1.5s2.1-0.8,3.1,0s1,1.8,1.3,2.8c0.3,1,0.3,1.5-1,2.5c-1.3,1.2-2.3,1.7-2.5,2.5c-0.2,0.8-0.5,2.1-0.5,3.3
	c0,1-0.2,2.1,0.7,2.8c0.7,0.5,2.1,2.1,2.6,3.3c0.5,1.2,0.8,2.5,1.8,3.3c1,0.8,2.8,1.8,4,2.6c1.2,0.7,2.5,2.1,2.5,3.1
	c0,1.2,0.2,5.1-0.2,5.9s-1,2.3-1.2,3.3c-0.2,1,0.2,2.5,0,3.3c-0.2,1-0.8,1.8-1,2.8c-0.2,0.8-0.5,1.8,0.3,3.5
	c0.8,1.7,1.5,2.8,2.5,3.1c1,0.3,1.5,0.5,1.8-1.5c0.3-2,0.3-2.8,1.2-3.3c0.8-0.7,2-2.1,3.3-3.3c1.2-1.2,2.8-2,4.3-2.3
	c1.5-0.3,3.8-1.5,4.6-3.1s2.1-3.6,4-4.6c1.8-0.8,5.1-1.8,5.9-2.6c0.8-0.7,2.3-2.8,2.6-4.5c0.3-1.8,1.5-3.3,2.8-4.1
	c1.2-0.8,2.8-1.5,3-2.1s-0.7-4.1-2.1-4.5c-1.5-0.3-2.1,0-2.6-0.7c-0.5-0.5-1.8-2-3.1-2.5c-1.5-0.3-2.8-0.2-3.5-1.2
	c-0.8-1-0.8-2.1-0.8-2.8c0-0.7-1.3-1.8-2.1-2.1c-0.8-0.3-2.8-0.5-2.8-0.5s-1-1.3-2.5-1.5c-1.5-0.2-2.1-0.7-2.5-0.8
	c-0.3-0.2-2.3-1.7-3.3-1.7c-1,0-2.3,0.5-3.8,0.2c-1.5-0.3-3.3-2-4.6-2.1c-1.3-0.2-3.3,0.7-4.3,1.3c-1,0.7-1.7,1.3-2.1,1.8
	c-0.3,0.5-1.3-0.2-1.7-0.7c-0.3-0.5-1.5-0.8-2.1-0.7c-0.7,0.2-2,0.5-2.8,0.2c-0.8-0.3-1.8-1.2-1.3-2.5c0.5-1.3,1-2,1-2.8
	c0-0.8-0.5-2.3-2.3-1.7c-1.8,0.7-3.3,0.7-2.8-1c0.5-1.8,1.8-2.3,2-3c0.2-0.7-0.2-1.8-1.5-1.3s-2.3,1.2-3,2.1s-1,1.8-1.8,1.8
	c-0.8,0-3.1-0.5-4-2.8c-1-2.3,0.8-4.3,1.5-5.4c0.7-1.2,1.5-3.1,3.5-3.3c2-0.2,3,0.5,5.4,0.5c2.6,0,4.3-0.7,5.4-0.3
	c1.2,0.3,1.2,0.8,1.3,2.1c0.2,1.2,0.7,2.1,1.3,2.5s0.5-0.3,0.5-2c0-1.7-0.3-3.1,0.2-4s2.6-1.5,4-1.7c1.3-0.2,2.5-0.8,2.8-2.8
	c0.3-1.8,0.5-2.6,0.8-2c0.3,0.7,0.7,0.8,0.7,0.8s1.2-0.8,2.1-2c1-1.2,0.8-1,1.7-1.2c0.8-0.2,1.5,0.2,2-0.7c0.5-0.8,0.5-1.5,1.7-1.8
	c1.2-0.3,2,0,3.3-1c1.3-1,1.3-1.3,1.3-2s-0.8-1.8,0.3-2c1.2-0.3,3.3,0.2,4.3,0.3c1,0,1.5-0.3,1-1.3c-0.7-1-1.3-2.3-2-3.3
	c-0.7-1-1.2-1.7-1.8-1.2c-0.7,0.2-1.5,0.3-1.5,0.3s-1.3,0-1.8-0.3c-0.5-0.3,0.2-1.7-1.7-2.1s-2.8,1.2-2.8,1.8s-0.2,1.3-0.8,2.1
	c-0.7,0.7-1.3,1-1.8,1c-0.3,0-0.7,1-1.5,1.5c-0.8,0.7-1.2,0.7-1.7,0c-0.7-0.8-1-1.7-1.5-1.8c-0.7-0.2-1.2-1.2-1.8-1.3
	c-0.7-0.2-1.7-0.2-2.1-0.5c-0.5-0.3-1.2-1.7,0.7-2.5c1.8-0.8,2-1.2,3.8-1.3c1.8-0.2,3.6-1,3.3-1.8c-0.3-1,0-3-3-2.1
	c-3,0.7-1.7,0.7-3,1.2c-1.2,0.5-2.6,0.2-4.1,0.2c-1.5,0-3.3,0.3-3.3,0.3s-4.5-1.3-5.6-1.5c-1.2-0.2-3.8,0-5,0.2
	c-1.2,0.2-1.8,0-3.3-0.3c-1.5-0.8-3-1-4.3-0.8c-1.2,0-0.7,0.7-1.8,0.5c-1.2-0.2-3,0-3.8,0.2c-0.7,0.3-1.2,0.8-2.6,1.5
	c-1.3,0.7-2.5,0.8-3.8,1.5c-1.3,0.7-2.8,2.1-2.8,2.1s-1.5,1.2-2.3,1.5c-0.8,0.3-3.3,1.3-1.7,1c1.5-0.3,2-0.5,3.6-0.7
	c1.7-0.2,3.3-1,4.3-2.1c1-1.2,3.8-0.3,5.4-0.2C70.2,67.3,71.3,67.9,70.5,68.9z"/>
<path class="st3" d="M113.9,58.7c-0.8,0.3-1.8,1.2-0.2,1.8c1.5,0.7,1.5,0.7,2.8,0.7c1.3,0,1.7,0.2,2.5,1.5c0.7,1.5,1.2,3.1,2.5,4.1
	c1.2,1,2.1,1.7,2.8,1.8c0.7,0.2,0.7,0,0.7-2c0.2-2.1,0.3-3.3-0.7-4c-1-0.7-2.3-2.1-3-2.5c-0.7-0.3-1.2-0.7-2-1.5
	c-0.8-0.8-1.5-1.2-2.8-0.7C115.2,58.5,114.9,58.2,113.9,58.7z"/>
<path class="st3" d="M104.3,58.4c0.3,0.5,1,1.3,2.6,1.3c1.8,0,2.6,0.2,3.6-0.3c1-0.5,1.7-1.2,2.5-1.7c0.8-0.3,1-1.3-1.8-1.5
	c-2.8-0.2-4.5,0.2-5.6,0.5C104.5,57.2,103.7,57.5,104.3,58.4z"/>
<path class="st3" d="M105.5,62.2c0.2,0.7,1.3,1.3,3,1c1.7-0.3,3,0.3,3,1c0,0.7-0.7,0.7-0.7,1.2c0,0.7,0.7,1.2,2.1,1.8
	c1.5,0.7,2.3,0.5,2.8-0.5c0.7-1-0.2-1.8-0.3-2.1c-0.3-0.3,0.3-0.7-0.2-1.2c-0.7-0.7-2.5-2-4.3-2.3c-1.8-0.3-3.5-0.7-4.6,0
	C105.3,61.5,105.5,61.5,105.5,62.2z"/>
<path class="st3" d="M94.8,59.2c-0.5,0.3-0.2,1.3,1.8,1c2-0.3,2.5,0,3,0.3c0.5,0.3,1.5,0.7,2.1,0.2s0.3-1.7-1.8-2.1
	C97.7,58,96.1,58.2,94.8,59.2z"/>
<path class="st3" d="M102.8,59c-0.2,0.7,0,2,1,2c1,0,2.1-0.3,1.5-0.7C104.7,60,103.2,58.2,102.8,59z"/>
<path class="st3" d="M99.4,61.8c0.2-0.5-0.2-1.3-2.3-1.2c-2.1,0.3-4-0.5-4-0.5S90.5,59,89.8,60c-0.7,1-0.3,2.6,1.7,3
	c2,0.3,3.8,0,5.4-0.2C98.6,62.7,99.4,62.5,99.4,61.8z"/>
<path class="st3" d="M91.1,99.8c0.2,0,2,0.8,2,0.8s0.7-0.7,1.3-0.2c0.7,0.5,0.3,1.8,1.3,2.1c1,0.3,2.8,0.3,3.5,0
	c0.7-0.2,0.5-1.7-2.3-2.5c-2.8-0.7-3-1.2-4-1.3c-1-0.2-2.3-0.3-3.5,0.3c-1.2,0.5-2.1,1.3-1,1.3C89.8,100.3,90.1,99.8,91.1,99.8z"/>
<path class="st3" d="M100.7,103.6c0-1,0.2-1.5,2-1.7c1.8,0,3.6,1,4,1.5c0.3,0.5-0.3,1-1.5,1s-1.5-0.5-2.1,0
	C102.3,104.9,100.7,105.2,100.7,103.6z"/>
</svg>
