<svg xmlns="http://www.w3.org/2000/svg" viewBox="0 0 636 300"><defs><style>.a{fill:#b2b2b2}.b{fill:#69afe5}.c{fill:#0030a1}.d{fill:#002050}.e{fill:#fff}.f{fill:#613d30}.g{fill:#8e562e}.h{fill:#f3f3f3}.i{fill:#e4e4e4}.j{fill:#e6ae80}.k{fill:#724aad}.l{fill:#323232}.m{fill:#505050}.n{fill:#3c3c3c}.o{fill:#8867c8}.p{fill:#ffc18f}.q{fill:#a60000}.r{fill:#bd895e}.s{fill:#282828}.t{fill:none}.u{fill:#006fc8}.v{fill:#bb9167}.w{fill:#b2d7f0}.x{fill:#ffb900}.y{fill:#a6a6a6}.z{fill:#0063b0}.aa{fill:#a07657}.ab{fill:#593a29}.ac{fill:#f0e300}</style></defs><title>swimlane-developer-meetup</title><path class="a" d="M283.9 287.5H134.383a4.112 4.112 0 0 1-4.022-4 4.022 4.022 0 0 1 4.022-4H283.9a3.94 3.94 0 0 1 4.022 4 4.022 4.022 0 0 1-4.022 4zM501.617 287.5H406.67a4.112 4.112 0 0 1-4.022-4 4.022 4.022 0 0 1 4.022-4h94.947a3.94 3.94 0 0 1 4.022 4 4.022 4.022 0 0 1-4.022 4z"/><path class="b" d="M406.706 120.5h-130a5 5 0 0 1-5-5v-98a5 5 0 0 1 5-5h130a5 5 0 0 1 5 5v98a5 5 0 0 1-5 5z"/><path class="c" d="M438.534 176.174s-12.034 41.266-12.208 48.143 10.488 53.13 10.488 53.13l15.991 1.547s-5.5-45.736-6.362-50.551 0-6.362 1.891-11.52a36.034 36.034 0 0 1 3.439-7.393s-.86 11.864 3.439 22.008 21.665 48.41 21.665 48.41 12.724-3.706 12.724-7.66-12.9-35.764-14.615-41.61-2.751-11.176-2.407-20.633.172-17.882.172-17.882 2.923-6.19.688-17.882c-1.622-8.481-34.905 1.893-34.905 1.893z"/><path class="d" d="M438.534 174.153s33.283-10.372 34.9-1.891c2.235 11.692-.688 17.882-.688 17.882s.172 8.425-.172 17.882.688 14.787 2.407 20.633 14.615 37.655 14.615 41.61c0 1.366-1.53 3.059-3.519 4.693-6.694-22.472-16.649-42.4-18.662-50.085-2.569-9.8 0-34.044 0-34.044s-7.566 12.552-15.647 16.678a36.1 36.1 0 0 0-3.439 7.393c-1.892 5.158-2.751 6.706-1.892 11.52s6.362 50.551 6.362 50.551l-15.991-1.547s-10.66-46.252-10.488-53.13 12.214-48.145 12.214-48.145z"/><path d="M452.74 272.7a.586.586 0 0 0-.962-.451 10.465 10.465 0 0 1-6.389 2.589c-4.179 0-5.291-2.416-5.919-4.342-.435-1.333-1.784-2.536-4.57-.774-4.48 2.834-14.42 6.7-17.239 7.924a1.582 1.582 0 0 0-.955 1.456v5.235a1.161 1.161 0 0 0 1.161 1.161h33.375a1.464 1.464 0 0 0 1.464-1.46zM490.74 269.7a.586.586 0 0 0-.962-.451 10.465 10.465 0 0 1-6.389 2.589c-4.179 0-5.291-2.416-5.919-4.341-.435-1.333-1.784-2.536-4.57-.774-4.48 2.834-14.42 6.7-17.239 7.924a1.582 1.582 0 0 0-.955 1.456v5.235a1.161 1.161 0 0 0 1.161 1.161h33.375a1.464 1.464 0 0 0 1.464-1.46z"/><path class="e" d="M451.558 104.26l-6.061 2.579-3.997 14.249 10.445-12.637-.387-4.191zM393.343 126.9l-6.945-22.328 1.807-.597 8.751 22.29-3.613.635z"/><path class="f" d="M450.706 86.5h15v22h-15z"/><path class="g" d="M443.767 66.588c-2.94 10.451-8.467 12.8-8.467 12.8s-.626 1.71.658 2.22 3.747 1.45 3.747 1.45l-.878 7.827c-.585 5.218.672 6.332 4.307 6.537s6.488 1.218 13.327.217 10.842-7.34 15-19.067-13-16.557-19.287-17.567-8.407 5.583-8.407 5.583z"/><path class="h" d="M439.345 86.261a55.623 55.623 0 0 0 5.907-.517c1.268-.217 1.456.022-.542 1.414a22.781 22.781 0 0 1-5.8 2.988l.435-3.885z"/><circle cx="444.285" cy="76.827" r="1.266"/><path d="M454.265 66.978A85.689 85.689 0 0 1 452.5 78.6c-.389 1.565 1.273 1.748 3.73-.191 4.961-3.915 7.862-.673 4.853 4.157-4.95 7.945 2.373 12.587 2.373 12.587s12.788-3.037 17.313-14.433-2.435-23.509-12.069-27.333-16.8.824-21.438 2.2a6.118 6.118 0 0 1-6.911-1.938 14.34 14.34 0 0 0-1.768 10.694c1.715 7.309 5.556 7.223 9.071 6.326a18.24 18.24 0 0 0 6.611-3.691z"/><path class="c" d="M449.044 109.735c-8.833 8.189-12.251 18.441-14.379 45.521-1.276 16.234 2.493 24.244 2.493 24.244l37.419-.064s2.128-6.706 2.128-25.34c0-14.25-1.612-41.2-7.995-45.973s-19.666 1.612-19.666 1.612z"/><path class="g" d="M413.188 132.113l-13.776-8.033s-3.326-9.81-4.224-11.618-4-.527-2.975 3.216 2.684 8.9 2.684 8.9l-2.065.639-3.792-12.261s-7.016 4.9-6.641 7.848c.421 3.311 1.269 9.512 4.871 10.588a36.847 36.847 0 0 0 6.7 1.179l16.606 10.749z"/><path class="d" d="M423.279 140.5s24.481-17.6 32.056-22.456c10.238-6.559 19.39 6.214 8.877 13.592S440.1 148.9 433.1 153.427c-10.667 6.901-19.266-6.363-9.821-12.927z"/><path class="d" d="M411.387 130.561c8.757 4.409 16.038 7.188 19.318 9.586 9.817 7.174 1.216 20.325-9.464 13.19-5.176-3.458-11.161-7.377-16.726-11.057z"/><path class="i" d="M466.259 101.1l-18.956 6.383-1.032 12.638 22.825-11.541-2.837-7.48z"/><path class="b" d="M273.87 42.347l-21.519 1.478 21.355-15.623.164 14.145zM273.87 90.85l-21.519 1.477 21.355-15.623.164 14.146zM409.542 87.818l21.519 1.478-21.355-15.623-.164 14.145z"/><path d="M246.706 268.5v2.439l10 8.509v2.634c0 .81-.968 1.418-1.936 1.418h-21.214a3.716 3.716 0 0 1-3.849-3.983V268.5z"/><path class="j" d="M289.713 108.916s2.48-6.568 2.988-7.475c1.256-2.244 4.675-7.43 4.675-7.43a1.671 1.671 0 0 1 1.347 1.768 34.432 34.432 0 0 1-1.255 4.762s7.939-8.561 9.075-9.557 3.152.569 1.7 2.353-2.843 3.873-2.843 3.873 2.7 6.16 1.5 7.916c-1.83 2.67-6.851 5.319-9.917 6.243s-7.27-2.453-7.27-2.453z"/><path class="k" d="M252.831 99.906l24.42 15.157 13.81-11.957 6.9 8.421s-14.72 16.125-19.014 16.757c-1.8.264-6.053.547-23.062-9.01-15.406-8.66-8.443-23.747-3.054-19.368z"/><path d="M254.763 264.372l-10.017-1.916c-1.737 10.952-2.082 12.27-2.082 12.27a1.737 1.737 0 0 0 1.224 2.025c16.874 3.3 25.262 4.8 25.262 4.8a7.6 7.6 0 0 0 .67-2.127c.231-1.21.176-2.954-.926-3.581-11.743-6.671-14.493-9.571-14.493-9.571z"/><path class="l" d="M253.716 157.643s8.336 13.894 12.294 51.449c.771 7.316-12.968 60.291-12.968 60.291l-16.336-3.368 1.01-112.162z"/><path class="m" d="M223.383 156.632c-5.726 16.5-5.389 25.851-2.7 38.313s10.1 78.143 10.1 78.143l17.178-.337s.337-92.289-.337-97.678-2.7-21.22-2.7-21.22z"/><path class="n" d="M223.383 156.632c-5.726 16.5-5.389 25.851-2.7 38.313s10.1 78.143 10.1 78.143l17.178-.337s.337-92.289-.337-97.678-2.7-21.22-2.7-21.22z"/><path class="o" d="M259.231 123.751c-3.009-18.942-2.752-24.751-9.515-25.371-4.795-.44-24.94 0-32.819 0s-10.943 6.045-10.943 10.86 11.4 33.605 11.4 33.605l5.024 15.655h32.335s2.244-16.561 4.518-34.749z"/><path class="p" d="M244.707 84.5h-19v14.018c0 3.736 4.254 6.766 9.5 6.766s9.5-3.029 9.5-6.766V84.5z"/><path class="j" d="M244.706 96.254V84.5h-19v2.565c3.886 3.78 9.705 7.498 19 9.189z"/><path class="q" d="M232.572 82.659c-1.82 12.185 1.345 18.419 1.345 18.419s-17.453-.817-21.493-24.662c-3.363-19.853 12.812-25.923 18.207-26.837 7.553-1.28 15.1 1.993 15.977 7.172s.486 6.8-3.3 10.66c-2.434 2.48-10.736 15.248-10.736 15.248z"/><path class="p" d="M244.868 58.932s3.335 9.2 6.983 14.356c1.126 1.59.113 1.979-.858 2.143s-1.222.651-1 1.946.841 4.963 1.188 7.013.206 3.184-4 3.9c-5.5.932-11.117.551-14.994-2.677s-4.37-6.141-4.37-6.141a5.075 5.075 0 0 1-4.978-4.484c-.625-5 5.364-5.682 8.264-4.286 3.719-.967 12.145-5.613 13.765-11.77z"/><path class="r" d="M248.963 82.1a13.469 13.469 0 0 1-5.872-.386.438.438 0 0 1-.291-.546.443.443 0 0 1 .546-.292 12.582 12.582 0 0 0 5.612.334h.017a.438.438 0 0 1 .163.861c-.015.003-.075.015-.175.029z"/><circle cx="242.181" cy="69.931" r="1.204"/><path class="j" d="M245.865 61.538l.008-.021c-.628-1.552-1-2.585-1-2.585-1.621 6.157-10.046 10.8-13.768 11.767 2.481.91 11.345-1.146 14.76-9.161z"/><path class="s" d="M230.709 170.373l25.83-7.894c-.316-.947-1.137-2.589-1.768-3.979h-32.145c-4.919 15.1-4.505 24.165-1.937 36.04 2.694 12.462 10.1 78.143 10.1 78.143l4.556-.089c-1.672-18.457-4.26-46.882-6.156-67.107-3.027-32.336 1.52-35.114 1.52-35.114z"/><path class="n" d="M232.244 143.5h35.924a.538.538 0 0 1 .538.538v.924a.538.538 0 0 1-.538.538h-35.924a.538.538 0 0 1-.538-.538v-.924a.538.538 0 0 1 .538-.538zM252.864 143.5h14.965a2.254 2.254 0 0 0 2.212-1.823l6.1-31.313a1.564 1.564 0 0 0-1.541-1.864h-13.813a1.347 1.347 0 0 0-1.321 1.089z"/><path class="t" d="M262.656 139.5h3.928l5.811-30h-3.926l-5.813 30z"/><path class="t" d="M267.194 115.5l1.162-6h4.166l-1.162 6h-4.166z"/><path class="j" d="M226.133 143.383l8.991-3.383 9.256 1.123s.274 1.841-1 2.081a33.915 33.915 0 0 1-4.98.019s1.382 1.577 1.666 1.609 5.448.705 5.448.705-6.2 4.934-7.434 5.75-12.975-1.25-12.975-1.25z"/><path class="k" d="M230.755 141.646l-18.532-2.765s5.8-22.488 7.1-28.45c1.768-8.168-9.449-14.038-13.213-4.426s-9.1 34.705-9.577 37.02.252 6.546 6.477 7.429 26.417 1.491 26.417 1.491z"/><path class="u" d="M144.356 161.828l-2.78 115.672h16.251s9.753-91.509 10.45-94.655 2.554-4.046 2.787.674c.373 7.573 9.753 94.981 9.753 94.981h17.663l-6.762-116z"/><path class="v" d="M195.8 165.249s1.161 6.743 2.206 10.563c.564 2.061 2.38-.506 2.38-.506s.579 2.1 1.1 3.765c.987 3.147 6.618.169 5.573-3.933-1.4-5.479-3.6-13.036-3.6-13.036z"/><path class="w" d="M186.706 117.5v22.23l14.146-22.23h-14.146z"/><path class="x" d="M143.706 130.957V163.5h48V94.121c0-5.65-4.489-10.621-12.087-10.621h-17.035z"/><path class="x" d="M191.616 94.18c.8 8.084 5.109 37.019 5.109 37.019l9.289 32.814-11.263 3.371-13.7-53.267z"/><path class="n" d="M166.759 153.073l-18.681-18.08a3.107 3.107 0 0 1 0-4.5l28.222-27.312a3.363 3.363 0 0 1 4.645 0l18.681 18.08a3.107 3.107 0 0 1 0 4.5L171.4 153.073a3.361 3.361 0 0 1-4.641 0z"/><path class="y" d="M168.028 150.143l-17.417-16.857a1.254 1.254 0 0 1 0-1.815l26.929-25.726a1.357 1.357 0 0 1 1.875 0l17.417 16.855a1.254 1.254 0 0 1 0 1.815L169.9 150.143a1.357 1.357 0 0 1-1.872 0z"/><path class="v" d="M190.6 138.61a1.342 1.342 0 1 0 .552-2.627c-1.509-.225-.9-.128-3.251-.534 2.184.342 3.365-2.276.813-2.725-1.082-.191-9.432-1.788-11.789-2.239l.875.216-1.761 10.43c3.851 1.415 10.832 2.577 12.228 2.26 1.672-.381 1.442-1.682 1.442-1.682s2.633.113 2.672-1.333c.033-1.282-.755-1.554-1.781-1.766z"/><path class="z" d="M154.621 172.7l36.861-7.733-.086-1.467-47.232.124-2.499 113.876h4.194l8.762-104.8z"/><path class="z" d="M180.586 208.276l-9.549-25.548c.009.126.022.24.028.375.373 7.573 9.753 94.4 9.753 94.4h5.138z"/><path class="x" d="M166.885 83.5h-13.933c-3.831 0-11.727 1.91-13 11.8s-3.019 25.4-3.483 30 .813 8.765 9.173 10.451 30.189 6.518 30.189 6.518l1.974-11.687-24.615-6.068z"/><path class="v" d="M158.706 72.5v10.114a8.51 8.51 0 0 0 17 0V72.5z"/><path class="aa" d="M158.706 76.437V72.5h17v6.869c-10.187.506-14.6-.928-17-2.932z"/><path class="v" d="M174.282 41.666c3.769 9.485 8.23 14.958 9.486 16.052s1.571 2.25-.251 2.979c-1.89.757-1.654.617-.628 2.919 1.382 3.1 2.136 4.682 3.267 6.749s-.251 3.952-4.649 4.8-18.093 2.432-23.37.243S143.688 59 154.493 48.172s19.789-6.506 19.789-6.506z"/><path class="ab" d="M170.7 29.931s6.22 4.195 6.785 7.9c.756 4.956-1.961 6.266-6.408 7.3-8.921 2.067-8.041 4.743-5.529 8.634s1.948 4.8 1.508 5.229a3.149 3.149 0 0 1-1.759.973 10.613 10.613 0 0 0-4.021-3.648c-3.441-1.44-5.9 2.615-3.9 5.655s3.455 3.709 5.152 4.317c.858.307 1.256 3.162.126 6.2s-4.523 2.919-4.523 2.919-6.031-.608-12.188-12.039-.628-12.769-.628-12.769-1.615-7.423 10.554-13.012c7.419-3.403 16.34-3.281 14.831-7.659z"/><path class="h" d="M183.314 64.566a20.115 20.115 0 0 1-8.655 2.7c-.552-.059 1.251 1.9 10.1.409-.436-.898-.891-1.875-1.445-3.109z"/><ellipse class="ab" cx="173.779" cy="54.557" rx="1.508" ry="1.459"/><path class="ac" d="M177.799 130.702l-24.615-6.069-2.871-27.254-2.863 30.314 30.145 6.063.204-3.054z"/><path d="M179.678 272.8a.492.492 0 0 1 .8-.342c1.035.782 5.116 1.963 7.435 1.963 3.467 0 4.389-1.832 4.911-3.292.361-1.01 1.481-1.923 3.791-.587 3.716 2.149 11.963 5.076 14.3 6.009a1.2 1.2 0 0 1 .792 1.1v3.969a.931.931 0 0 1-.975.88h-29.796a1.175 1.175 0 0 1-1.23-1.107zM141.678 272.8a.492.492 0 0 1 .8-.342c1.035.782 5.116 1.963 7.435 1.963 3.467 0 4.389-1.832 4.911-3.292.361-1.01 1.481-1.923 3.791-.587 3.716 2.149 11.963 5.076 14.3 6.009a1.2 1.2 0 0 1 .792 1.1v3.969a.931.931 0 0 1-.975.88h-29.796a1.175 1.175 0 0 1-1.23-1.107z"/><path class="e" d="M340.887 29.178A23.636 23.636 0 0 1 363.5 59.544a22.945 22.945 0 0 1-9.455 12.721l-.169.113-.149.154c-1.409 1.463-4.717 5.855-5.02 15.035v.933h-15.642c-.087-10.9-4.319-15.257-5.174-16.026l-.107-.1-.12-.08a23.6 23.6 0 0 1 13.223-43.119m-.181-2a25.835 25.835 0 0 0-26.036 25.571 25.253 25.253 0 0 0 11.442 21.216c.436.385 4.595 4.34 4.595 14.88V90.5h20v-2.868c.288-8.608 3.391-12.539 4.543-13.713a25.311 25.311 0 0 0 11.495-21.173 25.835 25.835 0 0 0-26.037-25.569z"/><path class="t" d="M331.706 93.5h19v13h-19z"/><path d="M336.224 106.5l1.473 3h6.834l1.608-3h-9.915z"/><path class="e" d="M336.224 106.5l1.473 3h6.834l1.608-3h-9.915zM348.706 95.5v9h-15v-9h15m2-2h-19v11.252a1.748 1.748 0 0 0 1.748 1.748h15.5a1.748 1.748 0 0 0 1.748-1.748V93.5z"/></svg>