<svg width="50" height="41" viewBox="0 0 50 41" version="1.1" xmlns="http://www.w3.org/2000/svg" xmlns:xlink="http://www.w3.org/1999/xlink">
<title>Twitter-logo</title>
<desc>Created using Figma</desc>
<g id="Canvas" transform="translate(-16061 -762)">
<g id="Twitter-logo">
<use xlink:href="#path0_fill" transform="translate(16061 762)" fill="#1DA1F2"/>
</g>
</g>
<defs>
<path id="path0_fill" d="M 15.7244 40.6354C 34.5933 40.6354 44.9119 25.0034 44.9119 11.4479C 44.9119 11.0039 44.9029 10.5619 44.883 10.1219C 46.8859 8.67393 48.6269 6.86694 50 4.80992C 48.1619 5.62692 46.1839 6.17692 44.109 6.42491C 46.2269 5.15492 47.8529 3.14593 48.62 0.750996C 46.638 1.926 44.443 2.78 42.106 3.24106C 40.234 1.24713 37.569 -2.13006e-06 34.618 -2.13006e-06C 28.953 -2.13006e-06 24.3591 4.59407 24.3591 10.2569C 24.3591 11.0619 24.4491 11.8449 24.6251 12.596C 16.0992 12.167 8.53906 8.08495 3.4794 1.87799C 2.59841 3.39398 2.09041 5.15497 2.09041 7.03397C 2.09041 10.593 3.90146 13.7349 6.65545 15.5729C 4.97242 15.5209 3.3914 15.0589 2.00954 14.2899C 2.00803 14.333 2.00802 14.3749 2.00802 14.4209C 2.00802 19.389 5.54405 23.5369 10.2379 24.4768C 9.37595 24.7118 8.46901 24.8378 7.53295 24.8378C 6.87296 24.8378 6.22994 24.7729 5.60495 24.6528C 6.91094 28.7288 10.698 31.6949 15.1879 31.7778C 11.6768 34.5297 7.25393 36.1688 2.44695 36.1688C 1.61995 36.1688 0.802954 36.1218 -4.29288e-06 36.0268C 4.54003 38.9368 9.93091 40.6348 15.725 40.6348"/>
</defs>
</svg>
