<svg width="38" height="50" viewBox="0 0 38 50" version="1.1" xmlns="http://www.w3.org/2000/svg" xmlns:xlink="http://www.w3.org/1999/xlink">
<title>&#238;&#171;&#136;</title>
<desc>Created using Figma</desc>
<g id="Canvas" transform="translate(-16066 -1000)">
<g id="&#238;&#171;&#136;">
<use xlink:href="#path0_fill" transform="translate(16060 1000)" fill="#4B12B9"/>
</g>
</g>
<defs>
<path id="path0_fill" d="M 40.7227 3.14941L 43.75 3.14941L 43.75 50L 6.25 50L 6.25 3.14941L 9.32617 3.14941L 9.32617 0L 12.4512 0L 12.4512 3.14941L 18.75 3.14941L 18.75 0L 21.875 0L 21.875 3.14941L 28.1738 3.14941L 28.1738 0L 31.2988 0L 31.2988 3.14941L 37.5977 3.14941L 37.5977 0L 40.7227 0L 40.7227 3.14941ZM 40.625 46.875L 40.625 6.27441L 9.375 6.27441L 9.375 46.875L 40.625 46.875ZM 34.375 12.5244L 34.375 15.6494L 15.625 15.6494L 15.625 12.5244L 34.375 12.5244ZM 15.625 40.6738L 15.625 37.5488L 34.375 37.5488L 34.375 40.6738L 15.625 40.6738ZM 15.625 28.1494L 15.625 25.0244L 34.375 25.0244L 34.375 28.1494L 15.625 28.1494Z"/>
</defs>
</svg>
