<svg id="dea117ee-5067-435f-aaad-f7bc96247d43" data-name="Layer 1" xmlns="http://www.w3.org/2000/svg" width="200" height="200" viewBox="0 0 200 200"><defs><style>.aa36b18c-a330-412e-9dfe-271ec33ec6a7{fill:#0078d7;}.be042f47-8ae5-49b8-93fc-59955e655bff{fill:#50e6ff;}.c7b7b452-b675-454c-997d-7362068e981c{fill:#0078d4;}</style></defs><title>05_consistency</title><path class="aa36b18c-a330-412e-9dfe-271ec33ec6a7" d="M197.19,101h-51v16.22c0,7.09,11.42,12.8,25.6,12.8s25.6-5.71,25.6-12.8C197.35,117.17,197.3,101.06,197.19,101Z"/><path class="be042f47-8ae5-49b8-93fc-59955e655bff" d="M197.3,98.1l0.05,14.18c0,7.09-11.42,12.8-25.6,12.8s-25.6-5.71-25.6-12.8V98.1H197.3Z"/><path class="aa36b18c-a330-412e-9dfe-271ec33ec6a7" d="M197.19,83.47h-51V99.68c0,7.09,11.42,12.8,25.6,12.8s25.6-5.71,25.6-12.8C197.35,99.63,197.3,83.57,197.19,83.47Z"/><path class="be042f47-8ae5-49b8-93fc-59955e655bff" d="M197.35,73.42H146.15V86.83c0,7.09,11.42,12.8,25.6,12.8s25.6-5.71,25.6-12.8V73.42Z"/><path class="aa36b18c-a330-412e-9dfe-271ec33ec6a7" d="M171.75,87c14.12,0,25.6-5.71,25.6-12.8s-11.47-12.8-25.6-12.8-25.6,5.71-25.6,12.8S157.63,87,171.75,87Z"/><path class="aa36b18c-a330-412e-9dfe-271ec33ec6a7" d="M128.71,106.41H87.62v13.05c0,5.71,9.23,10.3,20.6,10.3s20.6-4.59,20.6-10.3C128.82,119.47,128.76,106.51,128.71,106.41Z"/><path class="be042f47-8ae5-49b8-93fc-59955e655bff" d="M128.76,104.12l0.05,11.42c0,5.71-9.23,10.3-20.6,10.3s-20.6-4.59-20.6-10.3V104.12h41.15"/><path class="aa36b18c-a330-412e-9dfe-271ec33ec6a7" d="M128.71,92.34H87.62v13.05c0,5.71,9.23,10.3,20.6,10.3s20.6-4.59,20.6-10.3C128.82,105.39,128.76,92.44,128.71,92.34Z"/><path class="be042f47-8ae5-49b8-93fc-59955e655bff" d="M128.82,84.23H87.62V95c0,5.71,9.23,10.3,20.6,10.3s20.6-4.59,20.6-10.3V84.23Z"/><path class="aa36b18c-a330-412e-9dfe-271ec33ec6a7" d="M108.22,95.19c11.37,0,20.6-4.59,20.6-10.3s-9.23-10.3-20.6-10.3-20.6,4.59-20.6,10.3S96.84,95.19,108.22,95.19Z"/><path class="aa36b18c-a330-412e-9dfe-271ec33ec6a7" d="M69,112.28H38.15v9.79c0,4.28,6.88,7.75,15.45,7.75s15.45-3.47,15.45-7.75C69.05,122.07,69.05,112.33,69,112.28Z"/><path class="be042f47-8ae5-49b8-93fc-59955e655bff" d="M69.05,110.54l0.05,8.57c0,4.28-6.88,7.75-15.45,7.75s-15.45-3.47-15.45-7.75v-8.57H69.05Z"/><path class="aa36b18c-a330-412e-9dfe-271ec33ec6a7" d="M69,101.72H38.15v9.74c0,4.28,6.88,7.75,15.45,7.75s15.45-3.47,15.45-7.75C69.05,111.46,69.05,101.77,69,101.72Z"/><path class="be042f47-8ae5-49b8-93fc-59955e655bff" d="M69.05,95.6H38.15v8.11c0,4.28,6.88,7.75,15.45,7.75s15.45-3.47,15.45-7.75V95.6Z"/><path class="aa36b18c-a330-412e-9dfe-271ec33ec6a7" d="M53.6,103.86c8.52,0,15.45-3.47,15.45-7.75s-6.93-7.75-15.45-7.75-15.45,3.47-15.45,7.75S45.09,103.86,53.6,103.86Z"/><path class="aa36b18c-a330-412e-9dfe-271ec33ec6a7" d="M22.3,118.34H2.1v6.37c0,2.8,4.54,5,10.15,5s10.15-2.24,10.15-5.1C22.35,124.72,22.35,118.34,22.3,118.34Z"/><path class="be042f47-8ae5-49b8-93fc-59955e655bff" d="M22.35,117.17v5.61c0,2.8-4.54,5-10.15,5s-10.15-2.24-10.15-5v-5.61l20.29-.05"/><path class="aa36b18c-a330-412e-9dfe-271ec33ec6a7" d="M22.3,111.36H2.1v6.42c0,2.8,4.54,5,10.15,5s10.15-2.24,10.15-5C22.35,117.78,22.35,111.41,22.3,111.36Z"/><path class="be042f47-8ae5-49b8-93fc-59955e655bff" d="M22.35,107.38H2.1v5.3c0,2.8,4.54,5,10.15,5s10.15-2.24,10.15-5C22.35,112.73,22.35,107.43,22.35,107.38Z"/><path class="aa36b18c-a330-412e-9dfe-271ec33ec6a7" d="M12.2,112.79c5.61,0,10.15-2.24,10.15-5s-4.54-5-10.15-5-10.15,2.24-10.15,5S6.64,112.79,12.2,112.79Z"/><path class="aa36b18c-a330-412e-9dfe-271ec33ec6a7" d="M53.4,155.16a5.15,5.15,0,1,0,5.15,5.15A5.14,5.14,0,0,0,53.4,155.16Z"/><path class="be042f47-8ae5-49b8-93fc-59955e655bff" d="M43.56,163.42a10.8,10.8,0,0,1-.51-3.16,8.78,8.78,0,0,1,.2-2H12v-8L1.9,160.51,12,170.71v-7.24l31.51-.05h0Z"/><path class="c7b7b452-b675-454c-997d-7362068e981c" d="M63.55,158.32a8.78,8.78,0,0,1,.2,2,10.77,10.77,0,0,1-.46,3.16H97.15v-5.15H63.55Z"/><path class="c7b7b452-b675-454c-997d-7362068e981c" d="M148.5,158.32H102.2v5.15h46.3v-5.15Z"/><path class="c7b7b452-b675-454c-997d-7362068e981c" d="M197.5,160.51l-10.15-10.15v8h-33.7v5.15h33.7v7.29Z"/></svg>