<?xml version="1.0" encoding="utf-8"?>
<!-- Generator: Adobe Illustrator 22.1.0, SVG Export Plug-In . SVG Version: 6.00 Build 0)  -->
<svg version="1.1" id="Layer_1" xmlns="http://www.w3.org/2000/svg" xmlns:xlink="http://www.w3.org/1999/xlink" x="0px" y="0px"
	 viewBox="0 0 579.1 93" style="enable-background:new 0 0 579.1 93;" xml:space="preserve">
<style type="text/css">
	.st0{fill:#0078D4;}
	.st1{fill:#FFFFFF;}
</style>
<path class="st0" d="M39.7,0L-0.4,23.2v46.3l40.1,23.2l40.1-23.2V23.2L39.7,0z"/>
<path class="st1" d="M39.7,50c2,0,3.7-1.7,3.7-3.7c0-2-1.7-3.7-3.7-3.7S36,44.2,36,46.3C36,48.3,37.6,50,39.7,50z"/>
<path class="st1" d="M39.7,50c2,0,3.7-1.7,3.7-3.7c0-2-1.7-3.7-3.7-3.7S36,44.2,36,46.3C36,48.3,37.6,50,39.7,50z"/>
<path class="st0" d="M409.8,92c25.3,0,45.7-20.5,45.7-45.7c0-25.3-20.5-45.7-45.7-45.7C384.5,0.5,364,21,364,46.3
	C364,71.5,384.5,92,409.8,92z"/>
<path class="st0" d="M317.1,46.1l5.3-9.7l-12.1-20.8h-11.1l-5.8-9.3l-24.1,0.2l-5.5,9.5l-11.1,0.2l-12,20.9l5.6,9.5l-5.5,9.7
	L253.2,77h11.1l5.6,9.3l24.1-0.2l5.6-9.5l11.1-0.2l11.8-20.9L317.1,46.1z"/>
<path class="st0" d="M578.3,61.6c-0.2-0.5-0.4-1.1-0.9-1.4l-1.6-1.4c-1.4-1.2-3.2-2.8-4.6-4.2c0.5-2.5,0.9-5.3,0.9-7.9
	c0-2.6-0.4-5.3-0.9-7.7l5.6-5.3c0.4-0.2,0.5-0.5,0.7-0.5c0.2-0.2,0.4-0.5,0.5-0.7c0.5-0.9,0.4-1.9,0-2.6c-0.5-1.1-5.1-8.8-6.2-10.9
	c-1.1-2.1-2.3-1.9-3-1.9c-0.2,0-0.4,0-0.9,0.2c-1.9,0.5-5.8,1.8-7.2,2.3c-0.2,0.2-0.5,0.2-0.7,0.2c-3.9-3.5-8.6-6.3-13.7-8.1
	L544.5,3c-0.2-0.5-0.4-0.9-0.5-1.2c-0.5-0.9-1.2-1.1-2.1-1.1c-1.2,0-11.8-0.2-13.2,0c-0.5,0-1.1,0.2-1.6,0.5c0,0-0.2,0-0.2,0.2
	c-0.5,0.4-0.9,1.1-1.1,1.8l-0.5,2.5c-0.4,1.8-0.9,4-1.2,5.6c-5.3,1.6-9.9,4.4-13.9,7.9l-1.9-0.5c-1.9-0.7-4.2-1.4-5.5-1.9
	c-2.6-0.9-3.2,0.7-3.2,0.7s0,0.2-0.2,0.4c-0.2,0.2-0.2,0.2-0.4,0.4l-0.5,1.1c-1.9,3-5.5,8.6-6,10.4c-0.4,0.5-0.5,1.2-0.4,1.9
	c0,0.9,0.4,1.2,0.4,1.2c0,0.2,2.6,2.3,4.7,4l1.6,1.4c-0.7,2.8-1.1,5.6-1.1,8.6c0,2.6,0.4,5.3,0.9,7.9c-1.9,1.8-4.7,4.2-5.8,5.1
	c-0.4,0.4-0.5,0.9-0.7,1.2c-0.5,0.9-0.5,1.9,0,2.8c0,0,3.9,7,5.6,10c0.4,0.5,0.5,0.9,0.9,1.2l0.2,0.2c0.7,1.2,2.1,1.8,3.3,1.2
	c1.1-0.2,4.2-1.4,6.7-2.3l0.7-0.2c4,3.7,8.8,6.5,14.1,8.3l1.9,7.9c0.4,1.2,1.4,2.1,2.8,2.1c0.9,0.2,5.6,0,9.3,0h4
	c1.4,0,2.5-0.9,2.8-2.3l1.6-7.7c5.3-1.6,10-4.4,14.1-8.1l8.1,2.5c0.7,0.2,1.2,0.2,1.9-0.2c0.5-0.2,0.9-0.5,1.4-1.2
	c0.9-1.2,4.7-8.1,6.2-10.6c0-0.2,0.2-0.2,0.2-0.4l0.4-0.5c0.2-0.4,0.4-0.7,0.4-1.1s0-0.5,0-0.7v-0.2
	C578.3,61.6,578.3,61.6,578.3,61.6z"/>
<path class="st0" d="M200.3,4.7h-83v83h83V4.7z"/>
<path class="st1" d="M409.8,50c2,0,3.7-1.7,3.7-3.7c0-2-1.7-3.7-3.7-3.7s-3.7,1.7-3.7,3.7C406.1,48.3,407.7,50,409.8,50z"/>
<path class="st1" d="M281.9,50c2,0,3.7-1.7,3.7-3.7c0-2-1.7-3.7-3.7-3.7c-2,0-3.7,1.7-3.7,3.7C278.2,48.3,279.8,50,281.9,50z"/>
<path class="st1" d="M158.7,50c2,0,3.7-1.7,3.7-3.7c0-2-1.7-3.7-3.7-3.7s-3.7,1.7-3.7,3.7C155.1,48.3,156.7,50,158.7,50z"/>
<path class="st1" d="M535.2,50c2,0,3.7-1.7,3.7-3.7c0-2-1.7-3.7-3.7-3.7s-3.7,1.7-3.7,3.7C531.5,48.3,533.1,50,535.2,50z"/>
</svg>
