<svg xmlns="http://www.w3.org/2000/svg" width="400" height="300" viewBox="0 0 400 300"><title>05_consistency-400w</title><path d="M387.40314,137.0271H289.20989v31.22931c0,13.65078,21.98758,24.64459,49.28917,24.64459s49.28917-10.99379,49.28917-24.64459C387.71121,168.16014,387.61493,137.14262,387.40314,137.0271Z" style="fill:#0078d7"/><path d="M387.61493,131.44356l.09627,27.30158c0,13.65078-21.98758,24.64459-49.28917,24.64459s-49.28917-10.99379-49.28917-24.64459V131.44356Z" style="fill:#50e6ff"/><path d="M387.40314,103.27558H289.20989v31.21c0,13.65079,21.98758,24.64459,49.28917,24.64459s49.28917-10.99379,49.28917-24.64459C387.71121,134.38936,387.61493,103.46811,387.40314,103.27558Z" style="fill:#0078d7"/><path d="M387.71121,83.92573H289.13286v25.81906c0,13.65078,21.98758,24.64459,49.28917,24.64459s49.28917-10.99379,49.28917-24.64459Z" style="fill:#50e6ff"/><path d="M338.422,110.07209c27.186,0,49.28917-10.99379,49.28917-24.64459S365.62735,60.78293,338.422,60.78293s-49.28917,10.9938-49.28917,24.64458S311.236,110.07209,338.422,110.07209Z" style="fill:#0078d7"/><path d="M255.55464,147.4433h-79.113v25.12593c0,10.99379,17.77106,19.83119,39.66237,19.83119s39.66238-8.83739,39.66238-19.83119C255.76644,172.58847,255.65089,147.63583,255.55464,147.4433Z" style="fill:#0078d7"/><path d="M255.65089,143.03422l.09627,21.98758c0,10.99379-17.771,19.83119-39.66237,19.83119s-39.66237-8.8374-39.66237-19.83119V143.03422h79.22849" style="fill:#50e6ff"/><path d="M255.55464,120.3535h-79.113v25.12593c0,10.99379,17.77106,19.83119,39.66237,19.83119s39.66238-8.83739,39.66238-19.83119C255.76644,145.47942,255.65089,120.546,255.55464,120.3535Z" style="fill:#0078d7"/><path d="M255.76644,104.73886H176.44168V125.475c0,10.99379,17.77106,19.83119,39.66237,19.83119s39.66238-8.83739,39.66238-19.83119Z" style="fill:#50e6ff"/><path d="M216.10405,125.84078c21.89132,0,39.66238-8.83739,39.66238-19.83119s-17.771-19.83119-39.66237-19.83119-39.66237,8.83739-39.66237,19.83119S194.19347,125.84078,216.10405,125.84078Z" style="fill:#0078d7"/><path d="M140.59151,158.74514H81.19423v18.84926c0,8.24053,13.24646,14.92154,29.74678,14.92154s29.74678-6.681,29.74678-14.92152C140.68779,177.59439,140.68779,158.84141,140.59151,158.74514Z" style="fill:#0078d7"/><path d="M140.68779,155.395l.09627,16.50032c0,8.24053-13.24646,14.92152-29.74678,14.92152s-29.74678-6.681-29.74678-14.92152V155.395Z" style="fill:#50e6ff"/><path d="M140.59151,138.41336H81.19423v18.753c0,8.24053,13.24646,14.92152,29.74678,14.92152s29.74678-6.681,29.74678-14.92152C140.68779,157.16634,140.68779,138.50962,140.59151,138.41336Z" style="fill:#0078d7"/><path d="M140.68779,126.63017H81.19423v15.61465c0,8.24053,13.24646,14.92152,29.74678,14.92152s29.74678-6.681,29.74678-14.92152Z" style="fill:#50e6ff"/><path d="M110.941,142.53363c16.404,0,29.74677-6.681,29.74677-14.92152S127.345,112.69058,110.941,112.69058s-29.74678,6.681-29.74678,14.92152S94.55621,142.53363,110.941,142.53363Z" style="fill:#0078d7"/><path d="M50.6773,170.4128H11.78507v12.26453c0,5.391,8.74112,9.62677,19.54238,9.62677s19.54238-4.3128,19.54238-9.81932C50.77357,182.69659,50.77357,170.4128,50.6773,170.4128Z" style="fill:#0078d7"/><path d="M50.77357,168.16014v10.80126c0,5.391-8.74112,9.62679-19.54238,9.62679s-19.54238-4.3128-19.54238-9.62679V168.16014l39.06551-.09627" style="fill:#50e6ff"/><path d="M50.6773,156.97381H11.78507v12.36079c0,5.391,8.74112,9.62679,19.54238,9.62679s19.54238-4.3128,19.54238-9.62679C50.77357,169.33461,50.77357,157.07009,50.6773,156.97381Z" style="fill:#0078d7"/><path d="M50.77357,149.31088H11.78507v10.2044c0,5.391,8.74112,9.62679,19.54238,9.62679s19.54238-4.3128,19.54238-9.62679C50.77357,159.61156,50.77357,149.40715,50.77357,149.31088Z" style="fill:#50e6ff"/><path d="M31.23119,159.72707c10.80126,0,19.54238-4.3128,19.54238-9.62679s-8.74113-9.62679-19.54238-9.62679-19.54238,4.3128-19.54238,9.62679S20.5262,159.72707,31.23119,159.72707Z" style="fill:#0078d7"/><path d="M110.55593,241.30449a9.9156,9.9156,0,1,0,9.9156,9.91558h0a9.89633,9.89633,0,0,0-9.87706-9.91558Q110.5752,241.30445,110.55593,241.30449Z" style="fill:#0078d7"/><path d="M91.61041,257.20794a20.79393,20.79393,0,0,1-.98193-6.08414,16.90461,16.90461,0,0,1,.38507-3.85072H30.84611V231.87022L11.4,251.60514l19.44611,19.63867v-13.9396l60.668-.09627h.09627Z" style="fill:#50e6ff"/><path d="M130.09831,247.38863a16.90461,16.90461,0,0,1,.38507,3.85072,20.73614,20.73614,0,0,1-.88566,6.08414h65.19262V247.4079h-64.692Z" style="fill:#0078d4"/><path d="M293.65746,247.38863H204.51339v9.91558h89.14408Z" style="fill:#0078d4"/><path d="M388,251.60514l-19.54237-19.54237v15.40286H303.57307v9.91558h64.88455v14.03585Z" style="fill:#0078d4"/></svg>