<svg id="0167e484-4d92-4353-ae89-9cf9bf2df58f" data-name="Layer 1" xmlns="http://www.w3.org/2000/svg" width="300" height="150" viewBox="0 0 300 150"><defs><style>.\37 e31feb3-b696-49f8-a035-e7d4e9deb967{fill:#505055;}.d9f190d2-1f86-4a0e-98d3-23be0b8f7510{fill:#75757a;}.\37 25b3197-46f4-418a-8573-3dc7b13c6a0b{fill:#fff;}.\34 5348fa1-f04e-44f7-83f4-f0f3b3a178e4{fill:#0078d7;}</style></defs><title>02_global-distribution</title><path class="7e31feb3-b696-49f8-a035-e7d4e9deb967" d="M82.26,147l-1.27-.6-0.82-.82L79.63,145l1,2.25-1-2.25L79,144.81l-0.52.52V146l-0.22.52-1.27-.37-1.42-.67-0.82-.22,1.72,1.2,1,0.52,1.42,0.6,0.9,0.22,0.67,0.3,0.52,0.07h0.37l0.6-.3,0.07-.37,0.6,0.3h0.67l0.22-.6Z"/><path class="7e31feb3-b696-49f8-a035-e7d4e9deb967" d="M267.11,132.66l-0.6.07-0.6-.3-0.52-.07-0.3.52-0.07.9-0.37.67-0.07.9,0.52,0.07h0.22l1.12-.67,0.07,0.3,0.67-.9,0.6-.37,0.82-1.2-0.52-.07Z"/><path class="7e31feb3-b696-49f8-a035-e7d4e9deb967" d="M280.24,117.43l0.3-.6,0.22-.67v-0.9l-0.52-.82-0.37-.52-0.52-.67,0.22-1.12-0.3.07-0.3-.37-0.37.22-0.07-1.2-0.37-.67,0.22-.22-0.6-.52-0.52-.6-0.9-.52-0.22-.82,0.22-.52v-1l-0.3-.07v-1.35l0.07-.52-0.37-.52-0.22-.37-0.67.37-0.22-.9,0.07-.37v-0.6l-0.3-.6,0.07-.37-0.3-.22,0.07-.6-0.3-.6-0.37.37v0.3l-0.3.6-0.3.6,0.07,0.37-0.22.22-0.3.9,0.07,0.6-0.22.3,0.07,0.52-0.52.9-0.22.6-0.3.52-0.3.6-0.67.37-0.82-.37-0.07-.3L269,106h-0.22l-0.6-.67-0.52-.37-0.6-.3-0.67-.6v-0.3l0.37-.6,0.37-.52-0.07-.52h0.37l0.37-.37,0.3-.6-0.3-.6-0.3.22-0.37-.07-0.6.37-0.52-.37-0.3.07-0.82-.3-0.52-.37-0.6-.3-0.52.22,0.67,0.3-0.07.6-0.82.22-0.52-.07-0.6.37-0.52.6,0.07,0.3-0.52.3-0.6.9,0.07,0.6-0.6-.07h-0.6l-0.37-.67-0.67-.52-0.52.07-0.37.22-0.07.3-0.37-.22v0.37l-0.52.07-0.3.52-0.6.52-0.3.9-0.37-.3-0.37.6,0.3,0.52-0.52.22-0.22-1-0.82,1-0.22.6,0.52,0.22-0.67.6-0.3.6-0.6.52-1.12.3h-0.52l-0.3.07-0.22.22-0.6.07-0.82.52-0.22-.22-0.52.07-0.82.37-0.52.52-0.9.3-0.52.82,0.07-.82-0.6.82v0.6l-0.22.6-0.3.22-0.22.67,0.07,0.3,0.07,0.3,0.22,0.9-0.07.6-0.22-.37-0.37-.37,0.07,1.12-0.3-.52v0.52l0.3,0.82-0.07.9,0.3,0.37v0.37l0.07,0.67-0.22.6-0.07.6,0.22,1.2-0.22.6-0.3.82-0.07.37-0.3.22-0.52.22-0.3.6,0.52,0.22,0.6,0.67h0.67l0.6,0.07,0.6-.37,0.6-.3,0.22,0.07,0.82-.6,0.67-.07,0.67-.07,0.67,0.22,0.6-.07h0.82l0.6-.52,0.37-.6,0.9-.22,1.2-.6,0.82,0.07,1.2-.37,1.42-.37,1.72-.07,0.67,0.6h0.6l1,0.67-0.3.22,0.3,0.37,0.22,0.82-0.3.6,0.52,0.52,0.82-.9,0.67-.37,1.2-.9-0.3.82-0.6.52-0.37.67-0.82.6,0.9-.22,0.9-.82-0.22.82-0.6.6,0.9,0.07,0.22,0.52-0.07.6-0.22.82,0.22,0.67L264,130l0.52,0.07,0.37,0.22,0.6,0.3,1.27-.82,0.6-.22-0.52.52,0.37,0.22,0.52,0.52,0.82-.37,0.67-.52,1.12-.37,1-.07,0.82-.37,0.07-.3,0.52-.82,0.67-.82,0.6-.6,0.82-1,0.6-.52,0.67-.9,1-.52,0.82-1,0.6-.82,0.22-.6,0.67-1,0.37-.52,0.37-1Z"/><path class="7e31feb3-b696-49f8-a035-e7d4e9deb967" d="M102.2,93.51l-0.37-.3H101l-0.67-.3-1.27-1.2-1.5-1-1.5.07-1.87-.6-1.12.3,0.07-.6-0.52-.67L91,88.56l-1.2-.37-0.67.67-0.07-1.12-1.72-.22-0.3-.22,0.67-.9V85.56l-0.52-.22-0.37-1.8-0.22-.6-0.3.07-0.22-.52-1-.9-0.67-.3-0.3-.07-1-.3L82.33,81l-0.07.22L81.06,81l-0.37-.52-0.52-.52H79.78v-0.6l-0.6-.67-0.6-.37L77.76,79l-0.07.3,0.07-.37,0.82-.67-0.37-.3H77.68L77.61,77l-0.67-.6-0.82-.07-0.3-.52,0.82-.3h-1.2l-1.2.07v0.3l-0.52.52L73,76.34l-0.52-.52-1,.07h-0.9V75.51l-0.6-.6H69.36l-0.3-.82-0.37.3,0.07,0.52-1.2.52v0.82l0.3,0.37-0.3.82-0.37.07-0.37-.9,0.52-.6,0.07-.6-0.3-.52,0.6-.07,0.07-.3L68,74.16l-0.22-.3-0.37-.07-0.82.6-0.37.22-0.82.6-0.67-.07-0.07.15H64l-0.6.52-0.22.9v0.37l-0.52.22-0.82.82H61.33l-0.3-.3-0.3-.37-0.37-.22H59.83l0.07-.07-0.52-.07-0.3.3-0.6.22-0.37.3L57.58,78l-0.3-.3-0.07.07-0.37-.07V77.46l-0.3-.37-0.37-.52-0.52-.37-0.22-.6,0.07-.3V75l0.22-.3v-0.3l0.07-.52L56,73.79V73l0.07-.52,0.22-.37,0.22-.37-0.22-.3,0.07-.22,0.07-.07-0.15-.3L56,70.56l-0.3-.22-0.3-.22H55.33l-0.52-.3L54.58,70h-0.3L54.06,70H53.83L53.68,70l-0.3.07H52.86L52.48,70l-0.15.07L52.18,70h-0.3l-0.22.22H51.58l-0.3-.07-0.07.22-0.3-.22,0.22-.37h0.22l0.22-.3,0.22-.6-0.22-.22,0.22-.37V68.09L52,67.56l0.07-.3H51.88V67h0.22l0.22,0.3,0.3-.9,0.22-.52-0.22-.22,0.3-.67,0.6-.67,0.07-.52-0.22-.22-0.6.07H52L51,64l-0.6.3-0.22.3-0.22.9-0.3.6L49,66.59l-0.6.22L47.69,67,47,67.11l-0.9.3L45.81,67l-1-.3-0.3-.6-0.07-.6-0.52-.82-0.07-.9-0.37-.37-0.15-.6,0.22-.52,0.3-1.5,0.3-.82,0.52-1-0.07-.37,0.07-.52,0.22-.82,0.3-.52,0.6-.52,1-.52,1.12-.82,0.9-.3,0.6-.07L50,54.74l0.9-.07,0.6,0.6h0.67L52.56,55l0.3,0.3,0.22-.07L52.86,55l0.07-.37-0.07-.3,0.37-.22,0.67-.07,0.82,0.07,1.12-.07,0.52,0.3,0.3,0.52L56.91,55,58,54.44l0.3,0.22,0.52,0.9,0.07,0.6-0.3.67,0.07,0.37,0.3,0.9,0.3,1,0.3,0.22,0.07,0.52,0.52,0.07,0.3-.07,0.3-.67,0.07-.37,0.22-.67-0.22-1.27L61,56.31l-0.22-.9-0.15-.9V53.69l0.3-.82,0.6-.67,0.6-.52,1.2-.67,0.22-.37,0.6-.37,0.52-.07,0.82-.67,1-.3,0.82-.82,0.22-1.12V46.87l-0.22-.07,0.3-1.12L67,45.29l0.6,0.22V44.84l0.3-.52-0.22.9,0.3,0.37-0.52,1h0.07l0.82-.9,0.37-.37,0.07-.37-0.22-.22v-0.6l0.22,0.3L69,44.47v0.3l0.9-.9L70.33,43,70.11,43l0.37-.3-0.07.07H71l1.42-.3-0.22-.15-1.5.22,0.82-.3,0.52-.07,0.37-.07,0.67-.22h0.37l0.67-.22,0.22-.3-0.22-.22v0.37H73.78l-0.07-.6,0.22-.6L74.16,40l0.67-.6,1-.3,1-.37,1.12-.52v-0.3l-0.22-.6,0.37,0.6,1-.07h1.42l-1.8.9-0.3.82L79,39.67l1.2-.82,1-.37,2.1-.6,1.27-.67L84,36.82,84.21,36,83,37.19l-1.42.22-1-.52V36.07l0.07-1.2,1.12-.67-0.6-.6-1.27.07-2.1.9L76,36l-0.82.22,1.42-1,1.8-1.42,1.27-.52,1-.82,0.9-.07h1.27l1.72,0.22,1.5-.22,1.42-.9,1.5-.37,0.67-.37,0.67-.37,0.3-1.2-0.22-.37-0.6-.07v-0.9l-0.37-.3-1.2-.3-0.6-.37-0.82-.6,0.6-.6-0.3-1.2L86.53,23l-0.22-.9-0.67.52-1.27,1.12-1.42.6-0.3-.6L82,23.54l0.37-1.27,0.52-.9H81.51V21l-0.6-.6-0.52-.3-0.9.22-0.67-.07-1-.45L77.16,20l-0.67,1.72-0.22.9-1.5,1.12,0.52,0.82,0.07,0.9-0.3.67-0.82.6L73,27.44,71.38,28l0.3,0.6-0.37,1.72-1,1-0.82.3-0.82-1v-1.2l0.3-1,0.6-.9-0.75-.15-1.27-.07L67,26.92l-0.82-.37-0.3-.45-0.52-.37-1.2-.52-1.2.22L63,24.59l0.3-1-1-.22,0.9-1.2,0.9-.82,1.57-1.12,1.5-.82,1-.07,0.52-.6,0.9-.37,1.12-.07L72,17.62l0.52-.37,1.27-.82,0.6-.52,0.6,0.3L76.11,16,78,15.29l0.37-.52-0.07-.52,0.9-.52,0.3-.52-0.6-.52L78,12.59l-1-.07-0.82,1-1.5,1.12-1.27.67-0.22-.67,0.67-.67-0.37-.6L72,14l0.67-1h-1l1-.52-0.07-1-0.3-.37-0.82-.07L70,11.77l-1,1,0.52,0.37,0.3,0.6-1,1h-0.6l-1.12.82,0.67-.9L67,14.32l-0.75.22-0.37.6h-1l-1.27.07-0.82-.67-0.9.07-0.3-.52-0.37-.22-0.67.07-0.9.07-0.82.3,0.3,0.37-1.2.6-0.22-.6-0.82.22-2,.07-1-.3,1.5-.52-0.52-.52-0.67.15-0.82-.22L52,13.27l-0.67-.37-0.82-.07-0.6.3-1,.22,0.67-.67-1.57.6-0.22-.82-0.37-.07-0.6.37L46,13V12.59l-1.42.22-1.5.37L42.29,13l-1.2.3-1.2.45-0.6-.07-0.6-.52-1-.15L37.11,13l-0.67-.3-1.2.07-0.37-.07-1.27-.15-1.12-.3-0.82.07-0.9-.22,0.3-.22-1.12-.07-0.6.22,0.07-.37-0.82-.22-1.8.52-0.6-.07-1.87.37-0.82.07L22,12.67l-0.82.52-1.27.52H18.66l-0.82.52,0.6,0.3,0.07,0.37-0.07.52,0.37,0.37-0.22.6H17l0.67-.52h-0.6l-2.25.52-1.57.37,0.22,0.6-0.22.37L14.09,18l1.2-.07,0.3,0.22,0.52-.22,1-.22h0.52l-1,.37,0.22,0.22-0.52.37-1,.3-0.52-.07-1.2.52-0.3-.22-0.67.07-0.9.52-1.27.52-1,.6v0.37l-0.67.6,0.22,0.22v0.52l1.27-.22,0.07,0.37-0.6.37-0.6.6H9.74L11,23.39l-0.3.52,0.6-.37-0.07.52,0.82-.3L12.14,24l1.27-.3-1.12.6-1,.82-1,.22L10,25.57l-1.8.6-0.9.37-1.12.07-1.5.6-1,.3L2.17,28l-0.07.07,1.72-.3,1-.3,1.27-.37,1-.3,0.52,0.07L9,26.39l0.82-.52,1.8-.52,0.67-.52,1.12-.3,1.27-.37,1.5-.67V22.94l1.87-.67,1.27-.67,1.57-.6-0.15.3-1,.37-1.42,1-0.52.6L19,23l1.12-.3,1.12-.22,0.52-.07,0.6-.67,1.12-.22L24,21.89l1,0.52,1.2-.07,1,0.3,0.6,0.22L28.34,24l0.6,0.3h1.2l0.67,0.07-0.52,1,0.3,0.9-0.75.9,0.37,0.3,0.07,0.37,0.9-.52,0.52-.6-0.82-.82,0.82,0.67-0.52.6-0.9.52-0.37.52L30.29,29l-0.45.9,0.67,0.52-0.6.6-0.22,1,1.2,0.37,0.3,0.52L32.09,34h0.07l-0.3.9-0.52.67-0.37.3,0.22-1-1-.37L30,34.79l-0.07.52-0.3.9-0.82,1.5-0.67,1-0.67,1-0.9,1-0.22.82-0.45.82-0.67.9,0.15,0.6-0.3.9,0.3,0.9L25.56,46l-0.07.3,0.07,1.57L25.94,49l-0.22.6,0.22,0.22,0.82,0.07L27,50.17l0.52,0.07v0.3l0.37,0.07,0.37,0.6-0.07.6v1l0.07,0.9,0.07,0.67L28.41,55l0.52,0.3,0.52,0.82-0.22.52-0.52.37L28.34,57l-0.07.07,0.37,0.6L29.16,58l0.22,0.3L29.61,58l0.52,0.52,0.37,0.3v0.6l-0.3.82,0.37,0.3,0.6,0.52,0.52,0.6,0.22,0.82h0.15l0.52-.37,0.07-.22-0.3-.52-0.3-.52H31.56l0.07-.6-0.22-.52-0.07-.52-0.07-1-0.52-.6-0.07-.37L30.44,57V56.31H30.21V55.94l-0.07-.15-0.07-.22-0.52-.82-0.22-.45,0.22-.82V52.94l0.3-.52,0.37,0.3h0.3L31,53.09l-0.22.37,0.07,0.9,0.3,0.82-0.07.3L31.41,56l0.37,0.6,0.52,0.07,0.07,0.82L32.76,58l0.37,0.3-0.3.67,0.07,0.3,0.67,0.52,0.3,0.67,0.82,0.9,0.67,1.12,0.22,0.6v0.3L35.84,64v0.37l0.07,0.3L36,64.94l-0.3.07,0.15,0.52,0.37,0.67,0.9,0.6,0.3,0.52,0.9,0.3,0.52,0.07L39.06,68l0.67,0.52,1,0.52,0.67,0.22,0.82,0.52L42.89,70l0.6,0.3L44,70.26l0.82-.37,0.52-.07,0.82,0.3,0.52,0.37,1,1.2,0.52,0.52,0.37,0.22h0.6l0.52,0.22,0.22,0.22L50.46,73l0.37,0.22,0.3,0.07h0.6l0.07-.3,0.07-.37H52L52,72.66,52,73l0.3,0.07,0.07,0.3-0.07.07L52,73.26,52,73.49l0.37,0.3,0.37,0.3,0.22,0.37L53.31,75l0.3,0.3-0.22.22,0.3,0.22-0.22.3v0.3l0.07,0.22,0.3,0.07,0.22,0.3,0.22-.3-0.07-.3,0.22,0.22,0.07,0.3,0.3,0.07,0.37,0.22,0.3,0.3v0.22l-0.07.22,0.22,0.22,0.52,0.22,0.07,0.22,0.07-.22h0.37l0.22,0.07,0.37,0.07,0.22,0.37L57.81,79l0.07-.22L58,79.41l0.52-.07,0.22-.22,0.3-.22-0.37-.6,0.07-.22,0.07,0.3,0.37-.3,0.22-.37,0.37-.07,0.52,0.3,0.22,0.37,0.22,0.07-0.3.3,0.22,0.6,0.3,0.3,0.37,0.6,0.07,0.9-0.22.3,0.22,1-0.22.6,0.3,0.3-0.37.6-0.3.67-0.52.07L60.06,85v0.6l-0.37.07,0.07,0.3-0.67.37-0.52.22,0.07,0.52-0.37.67L58,88.41l-0.3.22,0.22,1-0.22.3,0.6,0.52,0.37-.52,0.22,0.52-0.52.82-0.82.67-0.3.82,0.52,1.12-0.22.37,0.67,0.52,0.82,0.67,0.3,0.82,0.37,0.52,1,2.17,1.12,2,0.9,1.5-0.07.3,0.52,0.9L64,104.38l1.87,1.2,2,1.12L68,107.23l1,0.6,0.37,1.57,0.3,1.8V116l0.22,2.1-0.3,1.42L70,121l-0.07.9,0.6,1.72v1.72l-0.22,1.8-0.07,1.8H69.81l0.37,1.27,0.6,1.12-0.22.67,0.3,2,0.3,1.5,0.6,0.22-0.22-1.27,0.67,0.3,0.3,2.17-1.12-.37,0.3,1.8-0.52,1,1.42,0.3-0.6.82v1l0.9,1.8,0.67,0.67v0.6l0.6,0.67,1.27,0.6,1.27,0.67,1.12,0.3h0.3l-0.3-1,0.6-.37,0.3-.3h0.67l0.37,0.07-0.82-.6-0.67-1.12,0.22-.52,0.6-.37,0.07-1.27,0.82-.6v-1l-0.9-.22L78,138.66v-1.12l0.52-.52h0.82v-0.6l-0.22-1.12,0.52-.67,0.67-.3-0.22-.52-0.37.3-0.67-.3-0.37-1.12,0.3-.3,1,0.37,0.9-.22,0.37-.37-0.3-.52v-0.82l-0.3-.67,1,0.07,1.8-.22,1.2-.6,0.6-1.42-0.07-.6-0.67-.52V126L83,125l-0.07-.6,0.67,0.6h0.6l0.9,0.52,0.52-.07,0.67,0.22,0.9-.6,0.3-.67,0.52-.6,0.3-1,0.6-.52,0.67-.9,0.82-1.87,0.6-.6,0.07-.52,0.07-1.12-0.22-.6,0.07-.82,0.67-1.12,1-.9,1-.3,0.6-.52,1.5-.37h1L97,112l0.67-.52,0.07-1.12,0.9-1.42,0.07-1.5,0.3-.52,0.07-.67,0.22-1.72-0.22-2.1,0.22-.82h0.22l0.67-1,0.6-1.27,1.27-1.5,0.52-.67,0.3-1.8-0.22-.67ZM49.56,69.81l0.07-.37H49.41l0.07,0.07v0.3h0.07Z"/><path class="7e31feb3-b696-49f8-a035-e7d4e9deb967" d="M90.28,36.37h0.37l0.6-1-0.07-.67V34.19l-0.6.22,0.52-.82-0.82-.37-0.37.3-0.67-.3,0.37-.37-0.52-.22L88.41,33l0.9-1,0.67-.6,0.22-.3L89.83,31,89,31.42l-0.67.6-1.5,1.72-0.9.6,0.3,0.3L85.56,35l0.07,0.37h1.57l1-.07,0.67,0.3-0.67.52h0.52l1.27-.9,0.22,0.07-0.52.9Z"/><path class="d9f190d2-1f86-4a0e-98d3-23be0b8f7510" d="M30.74,34.49l0.52-.07v-0.6l-0.52-.52-0.07-.52V32.54L30,32.32l-0.37-.07-0.82-.3-0.22.3-0.07.6,0.67,0.22v0.22l0.52,0.37V34Z"/><path class="7e31feb3-b696-49f8-a035-e7d4e9deb967" d="M74.76,12.37l1,0.22L77,12.82l2.4,0.3L80.83,13l0.52-.3L81.73,13h0.52l0.37,0.6-0.6.3,1.2,0.3,0.82,0.37L84.13,15l-0.07.37-1.5.9L82,16.79v0.3l-1.57.07L79,17.24l-0.9.67,0.37,0.3,2.25-.07,0.07-.3,0.82,0.52,0.9,0.52L82,19.12l0.67,0.52L84,20.24l1.87,0.37V20.24l-0.52-.6-0.6-.82,1.5,0.82,0.82,0.3,0.67-.82v-0.9l-0.22-.3-0.82-.37-0.52-.6,0.37-.6,1.12-.07,0.6,1,0.67,0.37,1.87-1.2,0.52-.6-1.12-.07-0.52-.9-1.12-.22L87.28,14l1.57-.37-0.22-.9-0.3-.37-1.5-.3-0.3-.6-1.42.22,0.07-.37-0.6-.37-1.2-.52-0.9.37-1.5.3,0.52-.6-0.37-1-2,.37-1.2.67L77.83,10l1-.6-1.87.22L76,10l-1.2.82-0.6.9h1.42l-1.12.37Z"/><path class="d9f190d2-1f86-4a0e-98d3-23be0b8f7510" d="M67.56,13.64l0.67,0.3,0.67-.37-0.07-.37L68.68,13,68.38,13l-0.52-.3L67.11,13l-0.9.3,0.6,0.37Z"/><path class="7e31feb3-b696-49f8-a035-e7d4e9deb967" d="M64.26,65.61h0.6l0.67-.07,0.07-.3-0.67-.52H64.26l0.07-.3-0.52-.22H63.58l-0.52-.52L62.23,63l-0.3-.3-0.9.22-0.3-.52-0.9-.22H59.16l-0.82-.07-0.3.07-0.67.07-0.52.22-0.52.3-0.22.37-0.52.3,0.37,0.07,0.52-.07,0.07-.3h0.37l0.82-.6,0.9,0.07-0.37.3,0.37,0.22,1.2,0.22,0.22,0.22,0.9,0.3h0.52l0.22,0.6,0.3,0.3,0.6,0.07L63,65.16l-0.82.6,1.42-.07h0.67V65.61Z"/><path class="7e31feb3-b696-49f8-a035-e7d4e9deb967" d="M68,68.24l0.37-.82,0.37-.22,0.07,0.3h0.37l0.22-.3,0.3,0.07h0.37l0.52,0.22L71.08,67l-0.52-.37H70.18l0.07-.3h-0.6l-0.07-.45h-0.3l-0.45-.3H68l-0.07.22-0.82-.22h-0.6l-0.22.3,0.6,0.22-0.07.37L67.18,67l-0.37.22-0.67-.07L65.23,67l-0.07.3,0.52,0.37,0.52-.22,0.52,0.07,0.52-.07,0.6,0.22V68Z"/><path class="7e31feb3-b696-49f8-a035-e7d4e9deb967" d="M131.9,27.22l0.37-.52,0.3,0.22-0.3.52,0.22,0.3L133.4,28h0.07l0.52,0.6-0.07.67L132.65,29l-0.07.67,0.37,0.6-0.9.3,0.3,0.52,1.27,0.07-0.82.3-1.27,1.12,0.52,0.22,0.6-.37,0.67,0.07,0.52-.52,0.37,0.22,1.5-.3h1.12l0.67-.52-0.3-.6,0.37-.3,0.07-.67-1-.22-0.22-.37L136,28l-0.6-.07-0.67-1.27-0.07-.07h-0.82l0.67-1,0.3-.82h-0.9l-0.82.07,0.82-1.12-0.9.07-0.6-.07-0.67.9-0.3,1,0.37,0.52v1h0.15Z"/><path class="7e31feb3-b696-49f8-a035-e7d4e9deb967" d="M120.8,12.67h-1l-1.8-.07,0.9-.52-0.07-.6L119.53,12l0.52,0.37,1.27-.22-0.07-.67-0.82-.6-0.9-.22,0.37-.22,1.27,0.3,0.07-.37-0.67-.6h0.9l1-.07,0.3-.3L122.08,9h1.5l-0.67-.82,0.67-.07V7.34L122.45,7l1.12-.3h1l-0.6-.6,0.22-.9,0.6-.52,0.9-.52L124.33,4l2-.07,0.3-.22,2.55-.52L128.9,3l-1.72-.22-3,.3-1.57.22,0.82-.37-0.37-.22-1.2.22-1.72-.22H118l-0.22-.07h3.07l2.32-.07,1.12-.22L121,1.79l-4.5-.07-2.1.07L113.53,2h-1.95l-2.17.3-0.3.3L110.3,3l-1.12-.22-0.82-.07-1.2-.22-1.87.3-0.37-.22h-1.8l-1.87.07-1.57.22V3.29l-0.9.07-2.55.52-0.82.3,1.42,0.3-0.37.22-2.55.37-2.7.37-0.37.3,1.12,0.3,2.47,0.3H93.13l-1.87.22,0.67,0.6,0.52,0.22h4.65l1.42,0.52-0.22.37,0.6,0.3,0.22,0.9,0.22,0.67,0.22,0.3-1.2.82,0.52,0.22,0.67-.07,0.52,0.3,0.9,0.6-1.27-.22h-0.9l-0.6.52-0.22.6,0.67,0.3,0.67-.07,0.37-.22,1-.3-0.52.67L99.81,14l-1.27.37-1.2,1.12,0.37,0.3-0.6.67,0.6,0.9-0.22.9,0.07,0.6,0.82,1.2,0.07,1,0.6,0.6h1.5l0.9,0.82,1.12-.07,0.67-1,0.67-.82-0.07-.67,1.5-.82,0.6-.67,0.22-.67,0.82-.6,1.2-.22,1-.22,0.52-.07,1.8-.67,1.27-.9,0.82-.37h0.82l2.17-.3,2.1-.82Z"/><path class="7e31feb3-b696-49f8-a035-e7d4e9deb967" d="M238.84,94l0.22-1.72,0.3-1.42-0.52-.67-0.67-.07-0.3-.6-0.22-.82h-0.3l-0.6-.37,0.37-.9-0.67-.52-0.6-.9L235,85.11h-1l-1-1.2-0.52-.52-0.82-.67-0.9-1.12-1.57-.22h-0.6l0.07,0.52,1.12,1.2,0.67,0.67,0.6,0.9,0.9,0.67,0.3,0.9,0.3,0.9,0.9,0.9,0.67,1.57,0.52,0.82,0.67,0.9L235.77,92l1.2,0.9,0.82,0.9h1V94Z"/><path class="7e31feb3-b696-49f8-a035-e7d4e9deb967" d="M251.89,86.54l-1.12-1L251,85l-0.67-1,0.52-1,0.67-.37-0.22-.52,0.67-.07,0.07-.37-0.82-.3-0.67-.3-0.07-.52-0.52-.6h-0.37l-0.37.9-0.67.82v0l-0.82.6-0.37.37-0.52.67-0.67.9-1.2.22-0.37.22-0.22.9-0.82.22-0.67-.37-0.6.67-0.07,1,0.07,1,0.52,0.9,0.52,0.3,0.07,1.5,0.82,0.07,0.6-.07,0.3,0.52,1.2-.37,0.52,0.52,0.67,0.07,0.3,0.67,1.12-.52L249,92.09l0.37-1.72,0.07-1.12,1-.67v-1l0.3-.67Zm-4.27-3.37,0.22-.37Z"/><path class="7e31feb3-b696-49f8-a035-e7d4e9deb967" d="M273.19,90.44l-1-.22-0.67-.37-0.82-.37h-0.9l-1.2.67-0.82,1.12-1-.6-0.22-1.8-0.22-.37-1.5-.52-0.52.37-1.42.22,0.37,0.6,0.9,0.22,0.37,0.67H266l0.07,0.22h-0.67l-1.12.37,0.67,0.6v0.52l0.22,0.37,0.37-.07,0.3-.6,1.42,1.12h0.82l1.87,1,0.37,0.9,0.22,1.2-0.67.3-0.52.9h1.27l0.22-.3,1,0.22,0.82,0.9,0.07-1-0.07,1h1l0.52,0.22,0.82-.37V96.74l0.6-.3,0.82-.37,1.27,0.52,0.37,1,0.52,0.6,0.67,0.67,0.9,0.22,0.9,0.07,0.07,0.3,0.67-.07,0.07-.3-0.9-.52,0.3-.22-0.67-.22V97.56l-0.52.07-0.52-1.2-0.9-.67-0.07-.82,0.9-.07-0.22-.6-1.57-.67-0.07-.6-0.52-.6-0.6-.52-1.8-.6-1.5-.82v0Z"/><path class="7e31feb3-b696-49f8-a035-e7d4e9deb967" d="M243.34,96.44l0.9,0.22,1.12,0.07,0.82-.07,1.12,0.52,1.12-.37-1.12-.67-1.5-.22-0.3-.67-1.8-.52-0.22.37L241.62,95l-0.07-.37-0.37-.07-0.67-.37-1.2-.07-0.67,1.12,0.82,0.07,0.22,0.52,1.72,0.37,0.37-.07,0.67,0.07Z"/><path class="7e31feb3-b696-49f8-a035-e7d4e9deb967" d="M255.56,88.49l0.52,0.22V88.19l-1.8.37-0.52.52-0.9-1,0.22-.82-0.22-.37-0.22.37L252.11,89l-0.22.9-0.37.67,0.3,0.82h0.37l0.07,1L252,93.51l0.37,0.3,0.6-.22L253,92l-0.07-1.2,0.67-.37-0.07,1.12,0.6,0.6-0.07.52,0.22,0.3,1-.37-0.52.9,0.3,0.3,0.6-.3V92.84l-0.82-1.27,0.22-.37-0.9-1.42,0.9-.37Z"/><path class="7e31feb3-b696-49f8-a035-e7d4e9deb967" d="M128.75,29.77l-0.67,1.12,1.12,0.22,1.57-.6,0.6-1-0.07-.67,0.52-.82-0.9-.6h-0.6l-0.67.52-1.2.82Z"/><path class="7e31feb3-b696-49f8-a035-e7d4e9deb967" d="M121.4,18.82l1,0.07,0.6-.07,2.32-.67,1-.67-0.67-.67,0.22-.6-1.2-.07-1.2.52-0.9-.3-1.2.45-1.12-.67-1.12.07-0.6.67,1.5,0.22v0.3l-1.42.22L120.13,18l-0.82.52Z"/><path class="d9f190d2-1f86-4a0e-98d3-23be0b8f7510" d="M149.68,45.52l-0.9.07-1.12-.07-0.07.6,1.27,0.6,0.52,0.07L150,47.17l0.22-.6-0.22-.3,0.3-.9Z"/><path class="7e31feb3-b696-49f8-a035-e7d4e9deb967" d="M63.43,67.94l-0.07-.37-0.52-.22-0.67-.07-0.22-.07-0.37.07-0.07.3L62,67.94,62.53,68l0.3-.07h0.6Z"/><path class="7e31feb3-b696-49f8-a035-e7d4e9deb967" d="M260.66,50.32l0.82,0.37,0.67-1.2,1.57-.07,0.9-.52,0.22-.82-0.52-.6-0.07-.9-0.6-1.12,0.22-1.2-0.52-.9-1.42-1.5-0.82.22v0.67l0.9,1.2,0.22,1.42-0.3.52L261.11,47l-0.9-.6v2l-1.12-.22-1.57.3-0.37.82-0.6.6-0.22.67-0.82.3,0.67,0.82,0.67,0.3,0.22,1,0.6,0.37L258,53,258,51.14l-1.27-.82,1.12-.07,0.9-.52,1.42-.22Z"/><path class="7e31feb3-b696-49f8-a035-e7d4e9deb967" d="M263.21,40.27l1.12-.3-1.12-1.2-0.3.52-0.67-.3-1-.3-1.8-1.12,0.37,0.82,0.67,1.5h-0.9l0.07,0.9,0.82,1h1l-0.3-1.2,1.87,0.82Z"/><path class="d9f190d2-1f86-4a0e-98d3-23be0b8f7510" d="M214.54,77.39l-0.67-.6-0.3,1.8,0.22,1.5,0.52,0.9,0.9-.22,0.37-.37,0.07-1.12-0.6-1.12Z"/><path class="7e31feb3-b696-49f8-a035-e7d4e9deb967" d="M184.55,102.43l-0.22-.67-0.22-.52-0.37-.52-0.3.52-0.07.67-0.52.82-0.37-.22,0.07,0.52-0.3.52-0.9.67-0.6.67h-0.37l-0.37.22-0.52.22h-0.52l-0.22.67-0.3.67v1l0.07,0.67,0.22,0.52-0.07.67-0.52.82-0.07.37-0.37.22-0.3.82,0.07,0.82,0.3,0.9-0.07,1,0.3,0.52,0.67,0.37,0.52,0.3,0.9-.37,0.82-.3,0.52-1.27,0.52-1.5,0.67-2.1,0.6-1.57,0.52-1.2,0.07-1,0.3-.22,0.07-.52-0.07-.82,0.22-.37,0.3,0.67,0.22-.3,0.07-.6-0.22-.52Z"/><path class="7e31feb3-b696-49f8-a035-e7d4e9deb967" d="M229.54,68.91l0.52,0.9,0.3,1.42,0.52,1.27,0.52,0.6v1.2L231.79,75l-0.22.82,0.22,0.82-0.22,1.12-0.07.67,0.22,0.6,0.07-.67,0.52,0.52,0.6,0.6,0.22,0.6,0.37,0.37,0.22-.22-0.22.22L233.74,81l-0.07.82,0.37,0.6,0.22,0.9,0.6,0.67,0.07,0.6,1.2,0.9,0.9,0.82,0.67-.07V85.86l-0.37-1-0.37-.3-0.07-.67-0.07-.37,0.07-.52-0.07-.67-0.52-.67-0.6-.67-0.37-.45-0.3.52-0.6.07,0.6-.07,0.3-.52-0.52-.6-0.6-.07-0.6-.6-0.22-1-0.52-1h-0.52l-0.07-.82,0.22-1,0.37-1.57v-1.2h0.9l-0.07.9h0.82l0.9,0.52L235,72.89l0.52-.9-0.52.9,0.37,1.27,0.6,1.12,0.52,0.6,0.82,0.22,0.82-.37,1-.07L238.62,75l1.5-.9V72.81l-0.3-.67-0.9-.37,0.9,0.37,0.3,0.67v1.27l-1.5.9,0.52,0.67-1,.07-0.82.37,0.82,0.6-0.22.67,0.37,0.67,1.12-1,0.67-.9,1.12-.67,0.67-.67L241.84,73l-0.67-2-0.67-.9-1-.67-1.12-1.42-0.9-1.2,0.07-.82,0.6-1,1.12-1,0.37-.22,1.27,0.3v0.52l0.37,0.82,0.52-.07,0.07-1.2,1-.22,1.27-.6,0.37-.6,0.07,0.07h0.07v0.07h0.07V62.76l0.07,0.07,0.37-.37,1.12-.07,1.12-.9,1.12-1,0.6-1.27,0.37-1.5,0.37-1.2,0.52-.07v-0.9l-0.07-.9-0.67-.3-0.37-.6,0.52-.3-0.3-.82-0.9-.9-0.9-1-0.82-1.12-1.2-.6,0.22-.82,0.6-.67,0.22-.6,1.2-.3-0.37-.6H247l-1-.37-0.67.82-0.9-.3-0.3-.52-0.82-.22-0.82-.82,0.22-.52,0.9-.07,0.22-.67,0.6-.82,0.6-.37,0.82,0.6-0.3.67L246,43.79l-0.22.52,0.82-.3,0.37-.52,1.12-.3,0.37-.67,0.52-.37-0.52.37-0.37.67,0.6,0.3,0.6,0.07,0.07,0.22,0.07,0.6,0.22,0.22-0.22.07v0.6l0.3,0.22,0.3,0.07,0.07,0.22,0.22-.07V45.52l0.52,0.22,1.12,1-0.6.22,0.9,1.2L252.49,49l0.37,0.6,0.82-.07,0.6-.52,0.67-.22,0.07-.6-0.6-1.27-0.6-.67-1.42-1.27-0.67-.52-0.52-.22V44.09L251,43.57l0.22-.3,0.52-.22,0.22-.3,0.07-.22,0.3-.22-0.52-.82,0.07-.37,0.22-.3,0.37,0.07-0.22-.22-0.3-.52,0.3,0.52,0.22,0.22-0.07-.3,0.67-.82,0.9,0.52h0.6l0.82-.6,0.22-.6,0.37-1.2,0.3-1.27-0.22-.67,0.22-1.57-0.9-1.72-1-1.27-0.22-1.12-0.82-.9-2.17-1.2-1-.07-0.07.52-1-.22-1-.67-1.42-.07,0.9-2.4,0.6-2,2.25-.3,2.55,0.22,0.37-.52,1.42,0.07,0.67,0.67,1.12-.07,1.5-.3-1.27-.6V20.62l1.57-.3,2.1,1.2,0.6-1.12-0.6-.82,0.82-.07,1.12,1.42-0.37.82-0.07,1L262.16,24l-1,.22,0.52,0.52v0.6l1.12,1.42L265.61,29l1.8,1.5,1,0.67,0.3-1-0.82-1.12,1-.3-0.9-1.2,0.9-.52L268,26.54l-0.6-.9h0.67l-1.57-1.5-1.2-.22-0.52-.37-0.22-1L264,21.89l1.2,0.07,0.22-.37L266.29,22l1.12-.82,2,0.67-0.3-.52,0.3-.6,0.3-.67,0.52-.07,1.12-.67,1.72,0.22-0.22-.3-0.67-.37-0.67-.3L270,17.69l-1.42-.52,1.12,0.07,0.3-.37-5.7-3.75-1.57-.37-2.7-.52-1.42.07L256,12.07l0.3,0.37,1.5,0.6-0.37.3L255,12.52l-1.2.07-1.57-.22H251l-0.67.22-1.27-.3-0.9-.67L247,11.24,245.44,11l-2.55.22-2.77-.67h-1.8l-7-.6-0.37.37,1.57,0.82-1.27-.07-0.22.3-1.72-.3-0.9.22-1.57-.37,0.52,1-1.5-.37-1.57-.67-0.07-.37-1-.6-1.72-.52h-1.12l-1.57-.22,0.82,0.67-3-.07L216,9.37l-2.32-.22-0.9.07V9.44l-1.42-.52-0.37.37-1.27-.22-1-.07,0.3-.3,1.12-.52,0.37-.3-0.37-.37-1-.22-2-.37h-1.87l-0.3.15-0.67-.37-1.57-.07,0.6-.22-1.42-.3-1.12.3-0.07.37,0.3,0.37h-1.2l-0.9.52L198,7.34l-1.57.07,0.07,0.22-1.65.15-0.9.37h-0.67l-0.22.6,1,0.52-1.27.07h-1.65l-1,.22,0.82,0.9,1.2,0.67-1.72-.52-1.27.07-0.9.3L189,11.69l-1-.15-0.37-.9L187,10.12h-0.3l0.6,0.6-0.82.6L187.92,12l0.07,0.9,0.52,0.52,0.82,0.07,0.07,0.6,0.82,0.52-0.3.52L190,15.67l-0.6.22-0.07.3-0.9-.07,0.6-1.42-0.07-.6-1.2-.6-0.67-1.27-0.6-.6-0.6-.3,0.07-.67-0.52-.52-2-.22-0.37.22,0.07,0.82-0.67.82,0.22,0.3,0.82,0.67v0.52l0.9,0.07,0.07,0.22,1,0.52-0.22.52-3.15-1.12-1.12-.3-2.17-.3-0.22.3,1,0.52-0.52.6-1.12-.6-0.9.37H175.7l-0.37.3-0.9-.07,0.37-.6h-0.6l-2.1.82-1.27.52,0.07,0.6-1,.22-0.67-.3L169,15.07l0.9-.07-0.6-.52-2.1-.3,0.67,0.6-0.07.6,0.82,0.6-0.22.67-0.82-.3-0.67-.07-1.42.9,0.67,0.67-0.6.22-2-.6-0.37.37,0.6,0.37v0.52l-0.67-.22-1-.3-0.3-1-0.22-.52L160.17,16,160.7,16l3.45,0.67,1.12-.3L166.1,16l-0.3-.6L165.12,15,162,13.87l-2-.22-1.27-.6-0.6.3-1.12.37-0.6.07h0V13.57l0.6-.07,1.12-.37-0.9-.6,0.82-.22-2.4-.67-1.2.22-1.27-.07-0.9.82-1.2-.07-1.5.37-1.8,1.2-1.12.67-1.5,1.87L144,18.07l-1.42,1-1.72.75-0.67.6,0.3,2.25,0.3,1.12,1.12,0.52,1-.22,1.5-1.2,0.6,0.6,0.67,1.5,0.82,1.2,0.3,1,0.9-.07,0.37-.82,1,0.07,0.3-1,0.07-1.72,0.82-.22,0.6-1.12-0.82-.6-0.6-.67,0.37-1.42,1.27-.9,1.12-.82-0.22-.6,0.6-.67,1.2-.3-0.3-.37-0.3-1.27,0.3,1.27,0.3,0.37,1.12,0.52,0.22,0.37-0.52.22L153,18.52l-0.6.6-0.3.6,0.52,0.9v1l0.82,0.3L154,22.42l1.2-.22,1.27-.37,1.42-.07,0.3-.3-0.3.3,0.9,0.52-0.82.6,0.22,0.22-0.37.52,0.37-.52L158,22.87h-0.82l-0.9-.22-1,.22-0.9.3,0.22,0.6,0.6,0.37,0.3-.07v1.42h-0.6l-0.82-.82-0.67.37-0.07.6,0.07,0.82,0.3,0.9-1.12.3-0.07.52H151.7L151.62,28l-0.82-.22-1,.37-1.2.52-0.52.3,0.22,0.52v0l-0.22-.52-0.37-.3-1-.37-0.37.3-0.82.22V28.42l-0.9-.22V27.82l-0.3-.52,0.52-.67,0.22,0.07,0.22-.37-0.52-.22-0.22-.3,0.22-.3V25l-0.6.3-0.3.3-0.67.07-0.22.3-0.07.3L143,27.37l0.37,0.6L144,28h0l-0.6-.07,0.07,0.6,0.22,0.37-0.52.52-0.22-.22-0.67.07-0.22.22h-0.67l-1.12.52-0.67,1.5-0.37.3-0.67.22,0.07,0.37H139L139,32.54,139,32.47h-0.37l-0.07-.37-0.67.22-0.22.9-2,.82-0.82-.52,0.22,1.2-1.42-.3-1.12.22,0.07,0.82,1.27,0.37,0.6,0.52,0.9,1.12-0.22,2.1-0.52.6,0.22,0.3-0.22-.3h-1.2l-0.67.07-0.9-.22h-1.2l-1.12-.22-1.27.82,0.3,0.52-0.07.82,0.3-.22-0.3.22v0.37l0.22,0.37V43l-0.22.67-0.07.37-0.37.37-0.07.67,0.22,0.37,0.37,0.07,0.07,0.67-0.22.9,0.52-.07,0.52,0.22,0.37-.3,0.82,0.22,0.22,0.6,0.3,0.37,0.37,0.07,0.37-.37,0.6-.37h2.1l0.67-.9,0.67-.22,0.22-.67,0.52-.52-0.3-.6,0.3-.9,0.52-.6,0.07-.37,1.12-.22,0.82-.67-0.07-.6-1,.07-0.22-.07,0.22,0.07,1-.07,0.07-.6,1.27-.3,1.72,0.3L143,40l0.37-.07,0.52-.52,0.37-.22L145,39.59l0.52,0.07,0.3,1,0.6,0.6,0.9,0.67L148,42.44l0.67,0.07L149,42.89l0.6,0.22,0.3,0.52,0.37,0.07,0.3,0.6,0.37,0.6-0.22.22-0.07.6V46L151,46l0.37-1,0.37-.07,0.07-.6-0.67-.37,0.3-.67,0.82,0.22L152.82,44l0.07-.37-0.07-.22-0.82-.6-0.67-.3-0.82-.37,0.22-.22-0.22-.22h-0.67l-1-.9-0.52-.9-0.9-.52-0.3-.52,0.07-.3L147.13,38l0.67-.37,0.67,0.22-0.22-.52v0l0.22,0.52-0.22-.37h0v0.37l0.3,0.3,0.22-.52,0.6,0.22,0.07,0.3,0.37,0.52-0.22.07,0.82,0.82,0.82,0.3,0.52,0.37,0.9,0.37L153,40.87l0.3,0.37,0.22,0.07L153.5,41l0.07-.22L153.5,41l0.07,0.3,0.22,0.22-0.07.3v0.67L153.8,43l0.52,0.37v0.37l0.22,0.07,0.22-.3-0.22.3,0.07,0.3,0.52,0.6,0.37,0.52L155.75,46l0.37,0.9,0.82,0.52h0.6l-0.37-1,0.6-.07-0.3-.6,0.9,0.3-0.07-.6-0.52-.3-0.6-.52,0.3-.22-0.52-.52-0.3-.67,0.22-.22,0.52,0.6h0.52l0.37-.22-0.67-.6,1.12-.3,0.52,0.07h0.6v0.22l0.3,0.52,0.67-.6,0.3-.3,1.12-.07,0.07-.3-0.82-.3-0.22-.37-0.82-.07-0.9.3,0.9-.3,0.82,0.07-0.37-.6,0.22-.82,0.37-.37L161,39.44l-0.67-.37L161,39.44l0.52,0.07,0.07-1.27,0.3,0.07,0.37-.22-0.07-.3,0.6-.82,0.22-.6,0.82-.07,0.07,0.37,1.42,0.3,0.3,0.22-0.82.37-0.07.22,1,0.3-0.07.52,0.52,0.22,1.12-.6,0.9-.22,0.07-.37-0.9.07-0.52-.3-0.22-.67,0.45-.45,0.82-.07,0.52-.3,0.67-.07L169,35.32l0.37-.3-0.37.3,0.07,0.52,0.67-.22,0.07,0.22-1.2.52,0.6,0.37-0.6.9-0.6.22,0.9,0.6,1.12,0.37,1.27,0.9,0.37,0.3,0.52,0.07,0.6,0.37,0.37,0.67-0.07.52-1,.6-0.82-.07-1,.22-1.42-.37-1.72-.82h-1.5l-1,.3-1,.67L162,42.14l-0.3.82h-1.42l-0.9,1.12,0.6,0.52-0.3.9,0.67,0.6,0.6,1.12h1l0.9,0.6,0.6-.07,0.22-.52h1l0.82,0.6,1.42-.07,0.52-.6,0.82,0.3,0.6-.07-0.3.15,0.37,0.52-0.22.52,0.22,0.9,0.37,0.07-0.37-.07-0.37.82-0.22.9-0.07.3-0.07.82-0.22.52L168,52.94l-0.22.37,0.67,1.57,0.07,0.3v0l0.07,0.22-0.07.37v0.37l-0.07.6H169l0.6,0.82,0.6,0.9,0.37,0.82,0.3,0.3,0.3,0.6v0.07l0.37,0.6,0.52,0.22,0.52,0.37,0.6,1.2v0.67l0.22,0.82,0.67,1.12,0.37,0.22,0.67,0.82,0.3,0.9,0.6,0.9,0.52,0.37,0.07,0.37,0.3,0.3,0.22,0.52,0.37-.37-0.37.37,0.07,0.52-0.07.22L177.27,71l-0.22.07,0.3,0.52,0.22,0.82,0.22,0.3v0.6L178.1,74l0.67,0.07,0.3-.22h0.52l0.07-.3,0.3-.07,0.22-.3,0.22-.07,0.82-.07,0.6-.22,0.52-.52,0.3,0.07,0.37-.07,1.12-.67,1.5-.52,0.9-.52V70l0.22-.52,0.67-.3,0.37-.07,0.6-.37L189,68.84l0.37-.3V68.16l0.37-.3h0.6l0.22-.22V67.11l0.6-.37h0.52l0.07-.07L191.52,66l0.07-.6,0.22-.3,0.37,0.07,0.3-.82,0.37-.3,0.07-.3,0.3-.67V62.84l-0.37-.07-0.3-.37-0.52-.6-0.6-.22-0.67-.22-0.6-.37-0.52-.67h0l-0.22-.9,0.07-.22V58.64l-0.07-.07-0.22.37-0.52.67-0.6.67-0.6.67H186l-0.67.22-0.07-.3-0.22.07-0.22-.37,0.07-.67-0.07-.6-0.3-.3-0.22.07-0.22.6,0.07,0.82-0.22-.3-0.22-.37-0.3-.3-0.22-.37,0.38-.37-0.07-.52-0.67-.52-0.22-.37-0.52-.22-0.52-1-0.37-.82,0.07-.3L181,54.51l0.6,0.07L181,54l-0.07-.6h-0.3V52.56l-0.07-.07,0.07,0.07v1h0.3l0.07,0.6,0.6,0.6,0.3-.37,0.6,0.37,0.52-.22,0.9,1.5,0.67,1.12,1,0.3,1.12,0.9,1.2,0.37,0.9-.52L189.5,58,190,58.19l0.6,1.42,1.12,0.07,1.12,0.3,1.8,0.3,1.27-.22h1.5l1.72-.22,0.9,0.82,0.37,0.82H201l0.6-.67-0.6.67,1.2,0.9,0.3,0.37-0.37.37,1.42,1.27,0.67,0.07,1.27-.67,0.3,1,0.07,1.42,0.37,1.42,0.6,2.1,1,1.5,0.22,0.67,0.3,1.42,0.6,1.12L209.37,75l0.37,1.12,0.52,1.5,1,1,0.37-.3,0.3-.82h1l-0.3-.37,0.37-.82,0.52-.07-0.07-1.87,0.3-1.12-0.07-.9-0.3-1.42,0.22-.9,0.37-.07,0.82-.37,0.52-.3-0.07-.52,0.9-.67,0.6-.67,0.9-1.27,1.27-.67,0.37-.67L219,63.89l1.12-.22h0.6l0.07-.37,0.37,0.07,0.3,0.07,0.07-.22L222,63.44l0.22-.6L222,62.31h0.9l0.52,0.6,0.3,0.52,0.07,0.6,0.3,0.6-0.22-.9,0.22,0.9,0.82,0.9,0.6,0.22-0.07.37,0.9,1.27,0.3,1-0.22,1.42,0.6,0.3,0.6,0.07,1-.9Zm22-29.25,0.3,0.67Zm-0.67.6v0Zm-1,1.2L250.16,42Zm-14.7,25.95,0.67,0.07,0.9,0.9,0.22,1.12,0.9,1,0.07,0.9-0.3.52,0.9,0.37-0.9-.37,0.3-.52-0.07-1-0.9-1-0.22-1.12-0.9-.9h-0.67Zm-0.9.3,0.07,0.07h0Zm-1,.37v0ZM151.47,13.79l-0.6-.3ZM140.53,31.27l-0.82.22Zm16-6.67-0.3-.07Zm-0.15,1.5,0.07,0.07Zm-0.82.07h0Zm-1,1.35-0.52-.07Zm-1.12.75h0Zm-0.6,12.37v0Zm3.9,0.75-0.3-.22Zm3,0.67-0.82.07-0.52-.3,0.52,0.3Zm1.65-4.27,0.37-.22Zm0.82-1.12H161.6l-0.07-.07,0.07,0.07h0.52l0.22-.07ZM170.37,35l0.07-.37-0.3-.6,0.22-.6-0.07-.3h0l0.07,0.3-0.22.6,0.3,0.6Zm2.7,4.95-0.67-.07-0.82-.22,0.82,0.22ZM168.8,52.79v0l0.22-.07-0.22-.07,0.07-.67-0.07.67L169,52.71Zm0.45,0.3v0Zm0.3-1.35-0.22-.07-0.07.3,0.07-.3,0.07-.22-0.07-.52,0.07,0.52-0.07.22ZM189,61.26l0.37-.22Zm-8.77-15.9-0.67-.6,0.22-.52-0.3-.3,0.3,0.3-0.22.52Zm4.95,1.5-1.42.3-1.27-.22-0.67-.6-0.9-.22-0.37-.82-0.07-.6,0.3-.3L180.8,44v-0.9l0.67-.07-0.3-.3H180.8l-0.6-.82-0.6-.6L178.32,40l-0.22-.52-1-1,0.6-1.12,0.82-.22,0.22-.6,0.82-.22,0.9-.52,0.82,0.3,0.9-.07,0.3,0.67,0.07,1-0.82-.22-0.67.22,0.22,0.82-0.9-.07,0.07,0.3,0.6,0.3,0.6,1,1.12,0.37,0.3,0.37-0.07.52,0.07,0.3,0.37,0.67-0.07-.82,0.6-.3,0.37,0.6,0.82,0.6-0.67.3-0.9-.3v0.9l0.6,0.07-0.07.82L185,44.54l0.07,1.2,0.3,0.82v0.3h-0.23Zm-0.37-5.62-0.67-.3,0.67,0.3,0.67,0.67Zm1.5,4.87-0.22.3Zm37.2,14.62-0.07.22L223,61l-0.22.6L223,61l0.37-.07Zm1.27,2.4-0.3.22,0.07,0.82-0.07-.82-0.82-1.8,0.82,1.8Z"/><path class="7e31feb3-b696-49f8-a035-e7d4e9deb967" d="M290.51,132.58l0.07-.52-1,.52-0.6.6-0.52.3-1.12.82-0.9.6-1.2.52-1,.37-0.67.22-2,1.12-1.12.82-0.22.37,0.9,0.07,0.22,0.3h0.82l0.67-.3,1.12-.52,1.42-1,0.82-.67,1.12-.37,0.67-.07,0.07-.52,0.82-.37,1.2-.82,0.67-.52,0.37-.37,0.07-.52-1,.37Z"/><path class="7e31feb3-b696-49f8-a035-e7d4e9deb967" d="M297.56,128.91l-0.82.37-0.6-.07-0.52-.3L296,128l-0.22-.3-0.52.82,0.07-1.2,0.3-1-0.52-.3-0.22-.6-0.37.07v0.82l0.07,1,0.07,0.37-0.07.22-0.07.82-0.37.67-0.82.9-0.9.3-0.3.52,0.67,0.37-0.22.6-1.2.9,0.3,0.07-0.07.3,1-.37,1.12-.67,0.67-.6,0.3-.22,0.3-.52,0.52-.37,0.6,0.07,0.82-.67,0.82-1Z"/><path class="7e31feb3-b696-49f8-a035-e7d4e9deb967" d="M251.59,70.64l0.22,0.52,0.6,0.6V71.39l0.3,0.3-0.22.22v0.37L253,72.51l0.9-.07,0.67,0.6,0.22-.37,0.37,0.6,0.82,0.6,0.07-.52-0.37-.3v-0.6l-1.27-.6-0.37.07-0.52-.07-0.37-.9,0.07-.9,0.52-.37,0.07-.9-0.52-.82,0.07-.37-0.07-.3-0.3.3-0.6-.3h-0.6l-0.22,1L251.81,70l-0.37-.37Z"/><path class="7e31feb3-b696-49f8-a035-e7d4e9deb967" d="M258.64,80.69l0.22-1-0.07-.6-0.07-.82-0.07-.37-0.07-.52-0.9-.6,0.22,0.9h-0.82l-0.07.52-0.82.3-0.3-.52-0.52.37-0.6.3-0.37,1,0.22,0.3,0.67-.6h0.52L256,79l0.67,0.52-0.3.52,0.37,0.82,1.2,0.67,0.22-.6-0.37-.82,0.37-.52Z"/><path class="7e31feb3-b696-49f8-a035-e7d4e9deb967" d="M255.56,76.26V75.44l-0.52.07v0.67l-0.22.3-0.22.3,0.6,0.67,0.3-.3,0.3-.67,0.3-.3V75.06Z"/><path class="7e31feb3-b696-49f8-a035-e7d4e9deb967" d="M257.06,73.79l-0.9-.07,0.67,0.9V75l-0.52-.07,0.22,0.67h0.3l0.07,0.82,0.37-.22-0.3-.67V75.14l0.67,0.3-0.37-1.2Z"/><path class="7e31feb3-b696-49f8-a035-e7d4e9deb967" d="M254,30.74l1.42,1,1.12,1.5L256.91,34l1,1.2,0.6,1,0.82,0.9V36.29l1.12,0.6-0.52-.67-1.57-1.12-0.67-1.57,1.57,0.37L256.84,32l-1.2-1.12-0.9-1.12-1.2-1-0.9-.67-0.22.22,0.82,0.52-0.37.52Z"/><path class="7e31feb3-b696-49f8-a035-e7d4e9deb967" d="M171.72,11.47l1.42,0.22,0.3,0.37,2.4,0.07h0.3l-1.72-.82-0.52-.67,0.6-.9,0.37-.82,1.5-.9,1.72-.37,2-.37,0.22-.3-0.67-.3-1.12.07-0.9.3-2,.22-1.8.52-1.2.52,0.52,0.37-1.2.67,0.67,0.22-0.9.67,0.22,0.52-0.52.22Z"/><path class="7e31feb3-b696-49f8-a035-e7d4e9deb967" d="M167.75,53.54l-0.67-.07-0.82-.3-0.22.37-0.3-.6L165,52.86l-0.82.07-0.37.3-0.67.3-0.52-.22-1-.3-0.9-.3h-1.2l-0.3-.37-0.9-.07-0.3-.22h-0.3l-0.3-.52-1.27-.22-0.6.07-0.6.52-0.3.52,0.3,0.82-0.37.52-0.37.3-1-.52L152,53l-0.9-.22-0.52-1-1.27-.52-0.82-.22-0.37.07L147,50.76v0l-0.3-.22-0.3-.52h-0.52l-0.22-.6,0.6-.6,0.07-1-0.3-.3V47l0.37-.6-0.07-.22-0.82.37V46l-0.6-.07-1,.52-0.07.37,0.07-.37-0.6.07-0.37-.3h-1l-0.9.52-0.52-.22-1.5.07-1.5.22-0.9.3-0.6.52-1,.22-0.9.6h-0.37l-1-.22-0.9.07-0.52-.52H130.7l-0.3.67-0.6,1.2-0.67.52-0.9.52-0.6.67-0.22.6-0.37.9,0.22,1.42-0.82.9-0.52.3-0.82.82-0.9.07-0.52.37-0.6,1.12-0.6.37-0.37.67v0.6l-0.3.67-0.3.22-0.52.67-0.3.82,0.07,0.37-0.3.6-0.37.3-0.07.52h0l-0.07.52,0.52,0.52,0.22,0.52-0.07.6,0.07,0.6,0.07,1.12-0.07,1-0.3.6,0.07,0.6,0.3-.3-0.3.3-0.22.6-0.52.82-0.37.22,0.52,0.37,0.37,0.9h0l-0.07.52,0.07,0.9,0.52-.22H121l0.3-.07h0l-0.3.07h-0.3l-0.52.22,0.07,0.22,0.3,0.22v0.22l0.22,0.3,0.37,0.07,0.52,0.52,0.52-.52h0.3l0.07-.07-0.07.07h-0.3l-0.52.52L122,76l0.07,0.22,0.07,0.52,0.22,0.22,0.3,0.22,0.37,0.37,0.37,0.6L123.5,79l0.22,0.37,0.52,0.6,0.67,0.37,0.3,0.07,0.22-.3,0.07-.3,0.22-.3-0.22.3-0.07.3-0.22.3,0.6,0.67,0.82,0.6,0.9,0.82,1,0.52h0.52l1-.37,0.67-.3,1.12-.22h0.6l0.67,0.22h0.52V82l-0.22-.37L133.63,82v0.37l0.9,0.3,0.9-.3L136,82l1.5-.67,0.82-.22,0.82-.07h1.57l0.67,0.67,0.3,0.82,0.52,0.67h0.82l0.37-.22L143.83,83l1-.37L145,82l-0.22.67v0.3L145,83.16l0.22,0.52,0.52,0.22,0.37,0.67-0.07.9h0l-0.3,1.27L146,87l-0.22.82-0.22.82-0.22.3v0.37l0.6,1.12,0.6,0.9,1,1.12,0.82,1.2,0.37-.52-0.37.52,0.22,0.82,0.3-.07V93.89l0.07-.3-0.07.3v0.52l-0.3.07-0.3.3-0.07.22,0.52,0.67,0.22,0.67,0.3,1.12-0.3.52-0.07.22,0.22,0.67,0.3,0.67,0.3,0.37,0.07,0.6-0.07.82-0.3.52-0.6.67-0.22.52-0.3,1-0.07.52-0.3,1-0.3.45,0.07,0.67,0.52-.22,0.6-.22-0.6.22-0.52.22v0.9l0.82,1.12,0.22,0.67,0.52,1.27,0.52,0.9,0.37,0.52,0.07,0.6V114l0.3,1.72,0.22,0.82,0.22,1.12,0.3,0.82,0.67,0.82,0.52-.6,0.37,0.3-0.37-.3-0.52.6,0.6,1.42,0.37,0.9,0.6,1v0.82l-0.3.22,0.22,0.67V125l0.07,0.3,0.07-.22,0.37,0.52h0.3l0.37,0.37H155l0.6-.37,0.82-.22,1-.37,0.37,0.07,0.6-.07,1,0.22,0.52-.22,0.6,0.22,0.07-.3,0.52-.07,1-.37,0.67-.52,0.67-.67,1.2-1.12,0.6-.82,0.3-.6,0.37-.6,0.22-.22,0.67-.6,0.3-.52,0.22-.9,0.3-.82,0.07-.6-0.22-.07-0.07-.52,0.52-.37,1.2-.6,0.82-.37,0.37-.37,0.22-.52-0.22-.22,0.22-.52,0.07-1.12-0.22.07v-0.3l-0.07-.6-0.37-.82,0.07-.82,0.37-.22,0.67-.82,0.37-.22,1.2-1.2,1.12-.52,0.9-.37,0.6-.67,0.37-.82,0.3-.82L175.7,103v-1.5l-0.07-1,0.07-1.12-0.07-.52-0.3-.22-0.37-1.12-0.3-.67,0.07-.52-0.07-.3,0.3-.67v-0.3l-0.6-.37-0.07-.6,0.52-1.42,0.37-.37,0.22-.67,0.3-.52,0.22-.82,0.37-.07,0.22-.52,0.67-.37-0.6-.9v0l0.6,0.9,0.22-.3,0.22-.6,1.12-1.27,0.9-.82,1.42-1.12,1-.9,1.12-1.5,0.82-1.2L184.85,80l0.6-1.42,0.37-1.2,0.22-1.2,0.22-.37v-0.6l0.07-.6v-0.3H186l-0.52.37-0.52.07-0.37.22h-0.9l-0.3.22-0.52.07-0.82.3-1.12.07L180,76h-0.52l-0.52-.52-0.22-.52-0.3-.22-0.3.6,0.3-.6-0.37-.3,0.07-.3V73.56l-0.22-.3-0.52-.3-0.3-.37-0.6-.6-0.6-.6-1.42-1-0.6-.52-0.3-1-0.6-1.27-0.52.6,0.52-.6-0.52-.37L172,67l-0.37-1.27-0.22-1.12,0.22-.22-0.37-1.12L171,63l-1.2-1-0.07-.67,0.22-.22-0.9-1.2-0.3-.6-0.37-.6L167.6,57l-0.67-1.12-0.52-1.2,0.07-.07,0.82,1.57,0.52,0.52,0.3,0.3,0.22-.22,0.22-.6,0.07-.82,0.22-.37-0.07-.3-0.67-1.57h-0.38v0.45Zm-46.42,16,0.22-.07ZM153,119.23l-0.37-.07Zm10.57,0.3,0.22,0.22Zm2.17-1.95-0.52-.52Zm0.6-1.65v0Zm11-40.65-0.22.07Zm-3.75-3.75,0.3-.07Z"/><path class="7e31feb3-b696-49f8-a035-e7d4e9deb967" d="M72.13,67.71v0.07l0.07-.07,0.07,0.07h0.07l0.07-.07h0.22l0.07,0.07H73L73,67.71h0.22V67.64l0.07-.07h0.07V67.34H73.33l-0.07-.07h-0.9l-0.22-.07-0.07.07H72v0.07H71.91L72,67.41v0.3h0.15Z"/><path class="725b3197-46f4-418a-8573-3dc7b13c6a0b" d="M143.08,33.44A3.07,3.07,0,1,0,140,30.37,3,3,0,0,0,143.08,33.44Z"/><path class="45348fa1-f04e-44f7-83f4-f0f3b3a178e4" d="M143.08,32.09a1.8,1.8,0,1,0-1.8-1.8A1.78,1.78,0,0,0,143.08,32.09Z"/><path class="725b3197-46f4-418a-8573-3dc7b13c6a0b" d="M136.85,43.49a3.07,3.07,0,1,0-3.07-3.07A3.09,3.09,0,0,0,136.85,43.49Z"/><path class="45348fa1-f04e-44f7-83f4-f0f3b3a178e4" d="M136.85,42.14a1.8,1.8,0,1,0-1.8-1.8A1.73,1.73,0,0,0,136.85,42.14Z"/><path class="725b3197-46f4-418a-8573-3dc7b13c6a0b" d="M142.78,39.89a3.07,3.07,0,1,0-3.07-3.07A3.09,3.09,0,0,0,142.78,39.89Z"/><path class="45348fa1-f04e-44f7-83f4-f0f3b3a178e4" d="M142.78,38.62a1.8,1.8,0,1,0-1.8-1.8A1.82,1.82,0,0,0,142.78,38.62Z"/><path class="725b3197-46f4-418a-8573-3dc7b13c6a0b" d="M136,31.27a3.07,3.07,0,1,0-3.07-3.07A3,3,0,0,0,136,31.27Z"/><path class="45348fa1-f04e-44f7-83f4-f0f3b3a178e4" d="M136,29.92a1.8,1.8,0,1,0-1.8-1.8A1.78,1.78,0,0,0,136,29.92Z"/><path class="725b3197-46f4-418a-8573-3dc7b13c6a0b" d="M137,37.42a3.07,3.07,0,1,0-3.07-3.07A3.09,3.09,0,0,0,137,37.42Z"/><path class="45348fa1-f04e-44f7-83f4-f0f3b3a178e4" d="M137,36.14a1.8,1.8,0,1,0-1.8-1.8A1.82,1.82,0,0,0,137,36.14Z"/><path class="725b3197-46f4-418a-8573-3dc7b13c6a0b" d="M150.57,31a3.07,3.07,0,1,0-3.07-3.07A3.09,3.09,0,0,0,150.57,31Z"/><path class="45348fa1-f04e-44f7-83f4-f0f3b3a178e4" d="M150.57,29.62a1.8,1.8,0,1,0-1.8-1.8A1.73,1.73,0,0,0,150.57,29.62Z"/><path class="725b3197-46f4-418a-8573-3dc7b13c6a0b" d="M70.11,31.27a3,3,0,0,0,3.07-3.07A3.11,3.11,0,0,0,70.11,25,3,3,0,0,0,67,28.12,3.11,3.11,0,0,0,70.11,31.27Z"/><path class="45348fa1-f04e-44f7-83f4-f0f3b3a178e4" d="M70.11,29.92a1.8,1.8,0,1,0-1.8-1.8A1.82,1.82,0,0,0,70.11,29.92Z"/><path class="725b3197-46f4-418a-8573-3dc7b13c6a0b" d="M80.08,33.59A3.07,3.07,0,1,0,77,30.52,3,3,0,0,0,80.08,33.59Z"/><path class="45348fa1-f04e-44f7-83f4-f0f3b3a178e4" d="M80.08,32.32a1.8,1.8,0,1,0-1.8-1.8A1.78,1.78,0,0,0,80.08,32.32Z"/><path class="725b3197-46f4-418a-8573-3dc7b13c6a0b" d="M72,42.14a3.07,3.07,0,1,0-3.07-3.07A3,3,0,0,0,72,42.14Z"/><path class="45348fa1-f04e-44f7-83f4-f0f3b3a178e4" d="M72,40.87a1.8,1.8,0,1,0-1.8-1.8A1.82,1.82,0,0,0,72,40.87Z"/><path class="725b3197-46f4-418a-8573-3dc7b13c6a0b" d="M68.61,47.24a3.07,3.07,0,1,0-3.07-3.07A3,3,0,0,0,68.61,47.24Z"/><path class="45348fa1-f04e-44f7-83f4-f0f3b3a178e4" d="M68.61,46a1.8,1.8,0,1,0-1.8-1.8A1.82,1.82,0,0,0,68.61,46Z"/><path class="725b3197-46f4-418a-8573-3dc7b13c6a0b" d="M58.63,45a3.07,3.07,0,1,0-3.07-3.07A3.09,3.09,0,0,0,58.63,45Z"/><path class="45348fa1-f04e-44f7-83f4-f0f3b3a178e4" d="M58.63,43.64a1.8,1.8,0,1,0-1.8-1.8A1.82,1.82,0,0,0,58.63,43.64Z"/><path class="725b3197-46f4-418a-8573-3dc7b13c6a0b" d="M54.28,50.54a3.07,3.07,0,1,0-3.07-3.07A3.09,3.09,0,0,0,54.28,50.54Z"/><path class="45348fa1-f04e-44f7-83f4-f0f3b3a178e4" d="M54.28,49.27a1.8,1.8,0,1,0-1.8-1.8A1.82,1.82,0,0,0,54.28,49.27Z"/><path class="725b3197-46f4-418a-8573-3dc7b13c6a0b" d="M30.66,39.52a3.07,3.07,0,1,0-3.07-3.07A3,3,0,0,0,30.66,39.52Z"/><path class="45348fa1-f04e-44f7-83f4-f0f3b3a178e4" d="M30.66,38.17a1.8,1.8,0,1,0-1.8-1.8A1.78,1.78,0,0,0,30.66,38.17Z"/><path class="725b3197-46f4-418a-8573-3dc7b13c6a0b" d="M26.24,45.07A3.07,3.07,0,1,0,23.16,42,3.09,3.09,0,0,0,26.24,45.07Z"/><path class="45348fa1-f04e-44f7-83f4-f0f3b3a178e4" d="M26.24,43.79a1.8,1.8,0,1,0-1.8-1.8A1.82,1.82,0,0,0,26.24,43.79Z"/><path class="725b3197-46f4-418a-8573-3dc7b13c6a0b" d="M260,47.17a3.07,3.07,0,1,0-3.07-3.07A3,3,0,0,0,260,47.17Z"/><path class="45348fa1-f04e-44f7-83f4-f0f3b3a178e4" d="M260,45.82a1.8,1.8,0,1,0-1.8-1.8A1.82,1.82,0,0,0,260,45.82Z"/><path class="725b3197-46f4-418a-8573-3dc7b13c6a0b" d="M244.92,59.24a3.07,3.07,0,1,0-3.07-3.07A3,3,0,0,0,244.92,59.24Z"/><path class="45348fa1-f04e-44f7-83f4-f0f3b3a178e4" d="M244.92,58a1.8,1.8,0,1,0-1.8-1.8A1.73,1.73,0,0,0,244.92,58Z"/><path class="725b3197-46f4-418a-8573-3dc7b13c6a0b" d="M240.87,49.87a3.07,3.07,0,1,0-3.07-3.07A3.14,3.14,0,0,0,240.87,49.87Z"/><path class="45348fa1-f04e-44f7-83f4-f0f3b3a178e4" d="M240.87,48.52a1.8,1.8,0,1,0-1.8-1.8A1.82,1.82,0,0,0,240.87,48.52Z"/><path class="725b3197-46f4-418a-8573-3dc7b13c6a0b" d="M235.54,64.64a3.07,3.07,0,1,0-3.07-3.07A3,3,0,0,0,235.54,64.64Z"/><path class="45348fa1-f04e-44f7-83f4-f0f3b3a178e4" d="M235.54,63.36a1.8,1.8,0,1,0-1.8-1.8A1.82,1.82,0,0,0,235.54,63.36Z"/><path class="725b3197-46f4-418a-8573-3dc7b13c6a0b" d="M225.12,84.66A3.07,3.07,0,1,0,222,81.59,3.14,3.14,0,0,0,225.12,84.66Z"/><path class="45348fa1-f04e-44f7-83f4-f0f3b3a178e4" d="M235.62,83.31a1.8,1.8,0,1,0-1.8-1.8A1.82,1.82,0,0,0,235.62,83.31Z"/><path class="725b3197-46f4-418a-8573-3dc7b13c6a0b" d="M211.77,75.51a3.07,3.07,0,1,0-3.07-3.07A3.14,3.14,0,0,0,211.77,75.51Z"/><path class="45348fa1-f04e-44f7-83f4-f0f3b3a178e4" d="M211.77,74.16a1.8,1.8,0,1,0-1.8-1.8A1.82,1.82,0,0,0,211.77,74.16Z"/><path class="725b3197-46f4-418a-8573-3dc7b13c6a0b" d="M213,68.54a3.07,3.07,0,1,0-3.07-3.07A3.14,3.14,0,0,0,213,68.54Z"/><path class="45348fa1-f04e-44f7-83f4-f0f3b3a178e4" d="M213,67.26a1.8,1.8,0,1,0-1.8-1.8A1.88,1.88,0,0,0,213,67.26Z"/><path class="725b3197-46f4-418a-8573-3dc7b13c6a0b" d="M275.14,125.23a3.07,3.07,0,1,0-3.07-3.07A3.14,3.14,0,0,0,275.14,125.23Z"/><path class="45348fa1-f04e-44f7-83f4-f0f3b3a178e4" d="M275.14,123.88a1.8,1.8,0,1,0-1.8-1.8A1.82,1.82,0,0,0,275.14,123.88Z"/><path class="725b3197-46f4-418a-8573-3dc7b13c6a0b" d="M278.44,118.33a3.07,3.07,0,1,0-3.07-3.07A3,3,0,0,0,278.44,118.33Z"/><path class="45348fa1-f04e-44f7-83f4-f0f3b3a178e4" d="M278.44,117.06a1.8,1.8,0,1,0-1.8-1.8A1.82,1.82,0,0,0,278.44,117.06Z"/><path class="725b3197-46f4-418a-8573-3dc7b13c6a0b" d="M81.66,126.28a3.07,3.07,0,1,0-3.07-3.07A3,3,0,0,0,81.66,126.28Z"/><path class="45348fa1-f04e-44f7-83f4-f0f3b3a178e4" d="M81.66,125a1.8,1.8,0,1,0-1.8-1.8A1.82,1.82,0,0,0,81.66,125Z"/><path class="7e31feb3-b696-49f8-a035-e7d4e9deb967" d="M192.35,63.81a3.07,3.07,0,1,0-3.07-3.07A3,3,0,0,0,192.35,63.81Z"/><path class="7e31feb3-b696-49f8-a035-e7d4e9deb967" d="M192.35,62.54a1.8,1.8,0,1,0-1.8-1.8A1.78,1.78,0,0,0,192.35,62.54Z"/></svg>