<svg xmlns="http://www.w3.org/2000/svg" width="400" height="200" viewBox="0 0 400 200"><title>02_global-distribution-400w</title><path d="M109.7,196l-1.7-.8-1.1-1.1-.7-.7,1.3,3-1.3-3-.9-.3-.7.7v.9l-.3.7-1.7-.5-1.9-.9-1.1-.3,2.3,1.6,1.3.7,1.9.8,1.2.3.9.4.7.1h.5l.8-.4.1-.5.8.4h.9l.3-.8Z" style="fill:#505055"/><path d="M120.4,48.5h.5l.8-1.3-.1-.9v-.7l-.8.3.7-1.1-1.1-.5-.5.4-.9-.4.5-.5-.7-.3-.9.5,1.2-1.3.9-.8.3-.4-.5-.1-1.1.5-.9.8-2,2.3-1.2.8.4.4-.9.5.1.5h2.1l1.3-.1.9.4-.9.7h.7L120,47l.3.1-.7,1.2Z" style="fill:#505055"/><path d="M41,46l.7-.1v-.8l-.7-.7-.1-.7v-.3l-.9-.3-.5-.1-1.1-.4-.3.4-.1.8.9.3v.3l.7.5v.5Z" style="fill:#75757a"/><path d="M85.7,87.5h.8l.9-.1.1-.4-.9-.7h-.9l.1-.4-.7-.3h-.3l-.7-.7L83,84l-.4-.4-1.2.3-.4-.7-1.2-.3h-.9l-1.1-.1-.4.1-.9.1-.7.3-.7.4-.3.5-.7.4.5.1.7-.1.1-.4h.5l1.1-.8,1.2.1-.5.4.5.3,1.6.3.3.3,1.2.4H82l.3.8.4.4.8.1.5.4-1.1.8,1.9-.1h.9Z" style="fill:#505055"/><path d="M90.7,91l.5-1.1.5-.3.1.4h.5l.3-.4.4.1h.5l.7.3.6-.6-.7-.5h-.5l.1-.4h-.8l-.1-.6h-.4l-.6-.4H90.7l-.1.3-1.1-.3h-.8l-.3.4.8.3-.1.5.5.7-.5.3-.9-.1L87,89.4l-.1.4.7.5.7-.3.7.1.7-.1.8.3v.4Z" style="fill:#505055"/><path d="M175.9,36.3l.5-.7.4.3-.4.7.3.4,1.2.3h.1l.7.8-.1.9-1.7-.3-.1.9.5.8-1.2.4.4.7,1.7.1-1.1.4-1.7,1.5.7.3.8-.5.9.1.7-.7.5.3,2-.4h1.5l.9-.7-.4-.8.5-.4.1-.9-1.3-.3L182,39l-.7-1.6-.8-.1-.9-1.7-.1-.1h-1.1l.9-1.3.4-1.1h-1.2l-1.1.1,1.1-1.5-1.2.1-.8-.1-.9,1.2-.4,1.3.5.7v1.4Z" style="fill:#505055"/><path d="M196.72,39.7l-.9,1.5,1.5.3,2.1-.8.8-1.3-.1-.9.7-1.1-1.2-.8h-.8l-.9.7-1.6,1.1Z" style="fill:#505055"/><path d="M199.6,60.7l-1.2.1-1.5-.1-.1.8,1.7.8.7.1.9.5.3-.8-.3-.4.4-1.2Z" style="fill:#75757a"/><path d="M84.6,90.6l-.1-.5-.7-.3-.9-.1-.3-.1-.5.1-.1.4.7.5.7.1.4-.1Z" style="fill:#505055"/><path d="M356.2,176.9l-.8.1-.8-.4-.7-.1-.4.7-.1,1.2-.5.9-.1,1.2.7.1h.3l1.5-.9.1.4.9-1.2.8-.5,1.1-1.6-.7-.1Z" style="fill:#505055"/><path d="M373.7,156.6l.4-.8.3-.9v-1.2l-.7-1.1-.5-.7-.7-.9.3-1.5-.4.1-.4-.5-.5.3-.1-1.6-.5-.9.3-.3-.8-.7-.7-.8-1.2-.7-.3-1.1.3-.7v-1.3l-.4-.1v-1.8l.1-.7-.5-.7-.3-.5-.9.5-.3-1.2.1-.5v-.8l-.4-.8.1-.5-.4-.3.1-.8-.4-.8-.5.5v.4l-.4.8-.4.8.1.5-.3.3-.4,1.2.1.8-.3.4.1.7-.7,1.2-.3.8-.4.7-.4.8-.9.5-1.1-.5-.1-.4-.7-.4h-.3l-.8-.9-.7-.5-.8-.4-.9-.8v-.4l.5-.8.5-.7-.1-.7h.5l.5-.5.4-.8-.4-.8-.4.3-.5-.1-.8.5-.7-.5-.4.1-1.1-.4-.7-.5-.8-.4-.7.3.9.4-.1.8-1.1.3-.7-.1-.8.5-.7.8.1.4-.7.4-.8,1.2.1.8-.8-.1h-.8l-.5-.9-.9-.7-.7.1-.5.3-.1.4-.5-.3v.5l-.7.1-.4.7-.8.7-.4,1.2-.5-.4-.5.8.4.7-.7.3-.3-1.3-1.1,1.3-.3.8.69992.3-.9.8-.4.8-.8.7-1.5.4h-.7l-.4.1-.3.3-.8.1-1.1.7-.3-.3-.7.1-1.1.5-.7.7-1.2.4-.7,1.1.1-1.1-.8,1.1v.8l-.3.8-.4.3-.3.9.1.4.1.4.3,1.2-.1.8-.3-.5-.5-.5.1,1.5-.4-.7v.7l.4,1.1-.1,1.2.4.5v.5l.1.9-.3.8-.1.8.3,1.6-.3.8-.4,1.1-.1.5-.4.3-.7.3-.4.8.7.3.8.9h.9l.8.1.8-.5.8-.4.3.1,1.1-.8.9-.1.9-.1.9.3.8-.1H333l.8-.7.5-.8,1.2-.3,1.6-.8,1.1.1,1.6-.5,1.9-.5,2.3-.1.9.8h.8l1.3.9-.4.3.4.5.3,1.1-.4.8.7.7,1.1-1.2.9-.5,1.6-1.2-.4,1.1-.8.7-.5.9-1.1.8,1.2-.3,1.2-1.1-.3,1.1-.8.8,1.2.1.3.7-.1.8-.3,1.1.3.9.9.4.7.1.5.3.8.4,1.7-1.1.8-.3-.7.7.5.3.7.7,1.1-.5.9-.7,1.5-.5,1.3-.1,1.1-.5.1-.4.7-1.1.9-1.1.8-.8,1.1-1.3.8-.7.9-1.2,1.3-.7,1.1-1.3.8-1.1.3-.8.9-1.3.5-.7.5-1.3Z" style="fill:#505055"/><path d="M136.3,124.7l-.5-.4h-1.1l-.9-.4-1.7-1.6-2-1.3-2,.1-2.5-.8-1.5.4.1-.8-.7-.9-2.1-.9-1.6-.5-.9.9-.1-1.5-2.3-.3-.4-.3.9-1.2v-1.1l-.7-.3-.5-2.4-.3-.8-.4.1-.3-.7-1.3-1.2-.9-.4-.4-.1-1.3-.4-1.1.1-.1.3-1.6-.3-.5-.7-.7-.7h-.5v-.8l-.8-.9-.8-.5-1.1.9-.1.4.1-.5,1.1-.9-.5-.4h-.7l-.1-1.2-.9-.8-1.1-.1-.4-.7,1.1-.4h-1.6l-1.6.1v.4l-.7.7-.9-.1-.7-.7-1.3.1H94.2v-.5l-.8-.8h-.9l-.4-1.1-.5.4.1.7-1.6.7v1.1l.4.5-.4,1.1-.5.1-.5-1.2.7-.8.1-.8-.4-.7.8-.1.1-.4.3-.5-.3-.4-.5-.1-1.1.8-.5.3-1.1.8-.9-.1-.1.2h-.8l-.8.7-.3,1.2v.5l-.7.3-1.1,1.1h-.7l-.4-.4-.4-.5-.5-.3h-.7l.1-.1-.7-.1-.4.4-.8.3-.5.4-.7.1-.4-.4-.1.1-.5-.1v-.3l-.4-.5-.5-.7-.7-.5-.3-.8.1-.4V100l.3-.4v-.4l.1-.7.3-.1V97.3l.1-.7.3-.5.3-.5-.3-.4.1-.3.1-.1-.2-.4-.4-.3-.4-.3-.4-.3h-.1l-.7-.4-.3.3h-.4l-.3-.1h-.3l-.2.1-.4.1h-.7l-.5-.1-.2.1-.2-.1h-.4l-.3.3h-.1l-.4-.1-.1.3-.4-.3.3-.5h.3l.3-.4.3-.8-.3-.3.3-.5v-.3l.3-.7.1-.4h-.3v-.3h.3l.3.4.4-1.2.3-.7-.3-.3.4-.9.8-.9.1-.7-.3-.3-.8.1H69.3l-1.3.4-.8.4-.3.4-.3,1.2-.4.8-.9.7-.8.3-.9.3-.9.1-1.2.4-.4-.5L59.8,89l-.4-.8-.1-.8-.7-1.1-.1-1.2-.5-.5-.2-.8.3-.7.4-2,.4-1.1.7-1.3-.1-.5.1-.7.3-1.1.4-.7.8-.7,1.3-.7,1.5-1.1,1.2-.4.8-.1.8.3,1.2-.1.8.8h.9l.5-.3.4.4.3-.1-.3-.3.1-.5-.1-.4.5-.3.9-.1,1.1.1,1.5-.1.7.4.4.7.3.1,1.5-.7.4.3.7,1.2.1.8-.4.9.1.5.4,1.2.4,1.3.4.3.1.7.7.1.4-.1.4-.9.1-.5.3-.9-.3-1.7.1-.7L81,73.9l-.2-1.2V71.6l.4-1.1.8-.9.8-.7,1.6-.9.3-.5.8-.5.7-.1,1.1-.9,1.3-.4,1.1-1.1L90,63v-.5l-.3-.1.4-1.5-.8-.5.8.3v-.9l.4-.7-.3,1.2.4.5-.7,1.3H90l1.1-1.2.5-.5.1-.5-.3-.3v-.8l.3.4.3.1v.4l1.2-1.2.6-1.1-.3-.1.5-.4-.1.1h.8l1.9-.4-.3-.2-2,.3,1.1-.4.7-.1.5-.1.9-.3H98l.9-.3.3-.4-.3-.3v.5h-.5l-.1-.8.3-.8.3-.3.9-.8,1.3-.4,1.3-.5,1.5-.7v-.4l-.3-.8.5.8,1.3-.1h1.9l-2.4,1.2-.4,1.1.8.1,1.6-1.1,1.3-.5,2.8-.8,1.7-.9-.7-.5.3-1.1-1.6,1.6-1.9.3-1.3-.7V48.1l.1-1.6,1.5-.9-.8-.8-1.7.1-2.8,1.2L101.3,48l-1.1.3,1.9-1.3,2.4-1.9,1.7-.7,1.3-1.1,1.2-.1h1.7l2.3.3,2-.3,1.9-1.2,2-.5.9-.5.9-.5.4-1.6-.3-.5-.8-.1V37.1l-.5-.4-1.6-.4-.8-.5-1.1-.8.8-.8-.4-1.6-.7-1.9-.3-1.2-.9.7-1.7,1.5-1.9.8-.4-.8-.8-.3.5-1.7.7-1.2h-1.9V28l-.8-.8-.7-.4-1.2.3-.9-.1-1.3-.6-.9.3L102,29l-.3,1.2-2,1.5.7,1.1.1,1.2-.4.9-1.1.8-1.7.9-2.1.7.4.8-.5,2.3-1.3,1.3-1.1.4-1.1-1.3V39.2l.4-1.3.8-1.2-1-.2-1.7-.1-.8-.5-1.1-.5-.4-.6-.7-.5-1.6-.7-1.6.3.1-1.1.4-1.3-1.3-.3,1.2-1.6,1.2-1.1L87.6,27l2-1.1,1.3-.1.7-.8,1.2-.5,1.5-.1,1.7-.9.7-.5,1.7-1.1.8-.7.8.4,1.5-.3,2.5-.9.5-.7-.1-.7,1.2-.7.4-.7-.8-.7-1.2-.1-1.3-.1L101.6,18l-2,1.5-1.7.9-.3-.9.9-.9-.5-.8-2,.9.9-1.3H95.6l1.3-.7-.1-1.3-.4-.5-1.1-.1-1.9.9L92.1,17l.7.5.4.8-1.4,1.3H91l-1.5,1.1.9-1.2-1.1-.4-1,.3-.5.8H86.5l-1.7.1-1.1-.9-1.2.1-.4-.7-.5-.3-.9.1-1.2.1-1.1.4.4.5-1.6.8-.3-.8-1.1.3-2.7.1-1.3-.4,2-.7-.7-.7-.9.2-1.1-.3-1.7-.4-.9-.5-1.1-.1-.8.4-1.3.3.9-.9-2.1.8-.3-1.1-.5-.1-.8.5-1.1.3v-.5l-1.9.3-2,.5-1.1-.2-1.6.4-1.6.6-.8-.1-.8-.7-1.3-.2-.8-.1-.9-.4L47,17l-.5-.1-1.7-.2-1.5-.4-1.1.1L41,16.1l.4-.3-1.5-.1-.8.3.1-.5-1.1-.3-2.4.7-.8-.1-2.5.5-1.1.1-1.9.5-1.1.7-1.7.7H24.9l-1.1.7.8.4.1.5-.1.7.5.5-.3.8H22.7l.9-.7h-.8l-3,.7-2.1.5.3.8-.3.5,1.1.3,1.6-.1.4.3.7-.3,1.3-.3h.7l-1.3.5.3.3-.7.5-1.3.4-.7-.1-1.6.7-.4-.3-.9.1-1.2.7-1.7.7-1.3.8v.5l-.9.8.3.3v.7l1.7-.3.1.5-.8.5-.8.8H13l1.7-.5-.4.7.8-.5-.1.7,1.1-.4.1.3,1.7-.4-1.5.8-1.3,1.1-1.3.3-.5.3-2.4.8-1.2.5-1.5.1-2,.8-1.4.4-1.9.7-.1.1,2.3-.4,1.3-.4,1.7-.5,1.3-.4.7.1,1.9-.7,1.1-.7,2.4-.7.9-.7,1.5-.4,1.7-.5,2-.9v-.7l2.5-.9,1.7-.9,2.1-.8-.2.4-1.3.5-1.9,1.3-.7.8,1.5-.3,1.5-.4,1.5-.3.7-.1.8-.9,1.5-.3.7.5,1.3.7,1.6-.1,1.3.4.8.3.8,1.5.8.4h1.6l.9.1-.7,1.3.4,1.2-1,1.2.5.4.1.5,1.2-.7.7-.8-1.1-1.1,1.1.9-.7.8-1.2.7-.5.7.5,1.1-.6,1.2.9.7-.8.8-.3,1.3,1.6.5.4.7,1.2,1.5h.1l-.4,1.2-.7.9-.5.4.3-1.3-1.3-.5-.3.3-.1.7-.4,1.2-1.1,2-.9,1.3-.9,1.3-1.2,1.3-.3,1.1-.6,1.1-.9,1.2.2.8-.4,1.2.4,1.2.3.5-.1.4.1,2.1.5,1.5-.3.8.3.3,1.1.1.3.4.7.1v.4l.5.1.5.8-.1.8v1.3l.1,1.2.1.9.1.9.7.4.7,1.1-.3.7-.7.5-.5-.1-.1.1.5.8.7.4.3.4.3-.3.7.7.5.4v.8l-.4,1.1.5.4.8.7.7.8.3,1.1h.2l.7-.5.1-.3-.4-.7-.4-.7h-.7l.1-.8-.3-.7-.1-.7-.1-1.3-.7-.8-.1-.5-.3-.4v-.9h-.3v-.5l-.1-.2-.1-.3L39.4,73l-.3-.6.3-1.1v-.7l.4-.7.5.4h.4l.7.5-.3.5.1,1.2.4,1.1-.1.4.4.7.5.8.7.1.1,1.1.5.7.5.4-.4.9.1.4.9.7.4.9,1.1,1.2.9,1.5.3.8v.4l.3.7v.5l.1.4.1.4-.4.1.2.7.5.9,1.2.8.4.7,1.2.4.7.1.3.4.9.7,1.3.7.9.3,1.1.7.9.3.8.4.7-.1,1.1-.5.7-.1,1.1.4.7.5,1.3,1.6.7.7.5.3h.8l.7.3.3.3.7.1.5.3.4.1H69l.1-.4.1-.5h.1l.1.1-.1.5.4.1.1.4-.1.1-.3-.3-.1.3.5.4.5.4.3.5.5.7.4.4-.3.3.4.3-.3.4v.4l.1.3.4.1.3.4.3-.4-.1-.4.3.3.1.4.4.1.5.3.4.4v.3l-.1.3.3.3.7.3.1.3.1-.3h.5l.3.1.5.1.3.5.4.1.1-.3.1.9.7-.1.3-.3.4-.3-.5-.8.1-.3.1.4.5-.4.3-.5.5-.1.7.4.3.5.3.1-.4.4.3.8.4.4.5.8.1,1.2-.3.4.3,1.3-.3.8.4.4-.5.8-.4.9-.7.1-.3.5v.8l-.5.1.1.4-.9.5-.7.3.1.7-.5.9-.3.9-.4.3.3,1.3-.3.4.8.7.5-.7.3.7-.7,1.1-1.1.9-.4,1.1.7,1.5-.3.5.9.7,1.1.9.4,1.1.5.7L81,132l1.5,2.7,1.2,2-.1.4.7,1.2,1.1.9,2.5,1.6,2.7,1.5.1.7,1.3.8.5,2.1.4,2.4v6.4l.3,2.8-.4,1.9.5,1.9-.1,1.2.8,2.3v2.3l-.3,2.4-.1,2.4h-.5l.5,1.7.8,1.5-.3.9.4,2.7.4,2,.8.3-.3-1.7.9.4.4,2.9-1.5-.5.4,2.4-.7,1.3,1.9.4-.8,1.1v1.3l1.2,2.4.9.9v.8l.8.9,1.7.8,1.7.9,1.5.4h.4l-.4-1.3.8-.5.4-.4h.9l.5.1-1.1-.8-.9-1.5.3-.7.8-.5.1-1.7,1.1-.8v-1.3l-1.2-.3-1.5-1.1v-1.5l.7-.7h1.1v-.8l-.3-1.5.7-.9.9-.4-.3-.7-.5.4-.9-.4-.5-1.5.4-.4,1.3.5,1.2-.3.5-.5-.4-.7v-1.1l-.4-.9,1.3.1,2.4-.3,1.6-.8.8-1.9-.1-.8-.9-.7V168l-1.9-1.3-.1-.8.9.8h.8l1.2.7.7-.1.9.3,1.2-.8.4-.9.7-.8.4-1.3.8-.7.9-1.2,1.1-2.5.8-.8.1-.7.1-1.5-.3-.8.1-1.1.9-1.5,1.3-1.2,1.3-.4.8-.7,2-.5H129l.3-.9.9-.7.1-1.5,1.2-1.9.1-2,.4-.7.1-.9.3-2.3-.3-2.8.3-1.1h.3l.9-1.3.8-1.7,1.7-2,.7-.9.4-2.4-.3-.9ZM66.1,93.1l.1-.5h-.3l.1.1v.4Z" style="fill:#505055"/><path d="M99.7,16.5l1.3.3,1.7.3,3.2.4,1.9-.1.7-.4.5.4h.7l.5.8-.8.4,1.6.4,1.1.5.1.5-.1.5-2,1.2-.7.7v.4l-2.1.1-1.9.1-1.2.9.5.4,3-.1.1-.4,1.1.7,1.2.7-.7.3.9.7,1.7.8,2.5.5V27l-.7-.8-.8-1.1,2,1.1,1.1.4.9-1.1V24.3l-.3-.4-1.1-.5-.7-.8.5-.8,1.5-.1.8,1.3.9.5,2.5-1.6.7-.8-1.5-.1-.7-1.2-1.5-.3-1.7-.8,2.1-.5-.3-1.2-.4-.5-2-.4-.4-.8-1.9.3.1-.5-.8-.5-1.6-.7-1.2.5-2,.4.7-.8-.5-1.3-2.7.5-1.6.9-.1-.7,1.3-.8-2.5.3-1.3.5-1.6,1.1-.8,1.2h1.9l-1.5.5Z" style="fill:#505055"/><path d="M90.1,18.2l.9.4.9-.5-.1-.5-.2-.2-.4-.1-.7-.4-1,.5-1.2.4.8.5Z" style="fill:#75757a"/><path d="M161.1,16.9h-1.3l-2.4-.1,1.2-.7-.1-.8.9.7.7.5,1.7-.3-.1-.9-1.1-.8-1.2-.3.5-.3,1.7.4.1-.5-.9-.8H162l1.3-.1.4-.4-.9-.5h2l-.9-1.1.9-.1v-1l-1.5-.5,1.5-.4h1.3l-.8-.8.3-1.2.8-.7,1.2-.7-1.8-.1,2.7-.1.4-.3,3.4-.7-.4-.3-2.3-.3-4,.4-2.1.3,1.1-.5-.5-.3-1.6.3-2.3-.3h-2.8l-.3-.1h4.1l3.1-.1,1.5-.3-4.5-.7-6-.1-2.8.1-1.1.3h-2.6l-2.9.4-.4.4,1.6.5-1.5-.3-1.1-.1-1.6-.3-2.5.4-.5-.3h-2.4l-2.5.1-2.1.3v.6l-1.2.1-3.4.7-1.1.4,1.9.4-.5.3-3.4.5-3.6.5-.5.4,1.5.4,3.3.4h-1.7l-2.5.3.9.8.7.3h6.2l1.9.7-.3.5.8.4.3,1.2.3.9.3.4-1.6,1.1.7.3.9-.1.7.4,1.2.8-1.7-.3h-1.2l-.8.7-.3.8.9.4.9-.1.5-.3,1.3-.4-.7.9-.5.5-1.7.5-1.6,1.5.5.4-.8.9.8,1.2-.3,1.2.1.8,1.1,1.6.1,1.3.8.8h2l1.2,1.1,1.5-.1.9-1.3.9-1.1-.1-.9,2-1.1.8-.9.3-.9,1.1-.8,1.6-.3,1.3-.3.7-.1,2.4-.9,1.7-1.2,1.1-.5h1.1l2.9-.4,2.8-1.1Z" style="fill:#505055"/><path d="M318.5,125.3l.3-2.3.4-1.9-.7-.9-.9-.1-.4-.8-.3-1.1h-.4l-.8-.5.5-1.2-.9-.7-.8-1.2-1.1-1.1h-1.3l-1.3-1.6-.7-.7-1.1-.9-1.2-1.5-2.1-.3h-.8l.1.7,1.5,1.6.9.9.8,1.2,1.2.9.4,1.2.4,1.2,1.2,1.2.9,2.1.7,1.1.9,1.2.5.9,1.6,1.2,1.1,1.2h1.4Z" style="fill:#505055"/><path d="M335.9,115.4l-1.5-1.3.3-.7-.9-1.3.7-1.3.9-.5-.3-.7.9-.1.1-.5-1.1-.4-.9-.4-.1-.7-.7-.8h-.5l-.5,1.2-.9,1.1v0l-1.1.8-.5.5-.7.9-.9,1.2-1.6.3-.5.3-.3,1.2-1.1.3-.9-.5-.8.9-.1,1.3.1,1.3.7,1.2.7.4.1,2,1.1.1.8-.1.4.7,1.6-.5.7.7.9.1.4.9,1.5-.7.1.5.5-2.3.1-1.5,1.3-.9v-1.3l.4-.9Zm-5.7-4.5.3-.5Z" style="fill:#505055"/><path d="M364.3,120.6l-1.3-.3-.9-.5-1.1-.5h-1.2l-1.6.9-1.1,1.5-1.3-.8-.3-2.4-.3-.5-2-.7-.7.5-1.9.3.5.8,1.2.3.5.9h1.9l.1.3h-.9l-1.5.5.9.8v.7l.3.5.5-.1.4-.8,1.9,1.5h1.1l2.5,1.3.5,1.2.3,1.6-.9.4-.7,1.2h1.7l.3-.4,1.3.3,1.1,1.2.1-1.3-.1,1.3h1.3l.7.3,1.1-.5V129l.8-.4,1.1-.5,1.7.7.5,1.3.7.8.9.9,1.2.3,1.2.1.1.4.9-.1.1-.4-1.2-.7.4-.3-.9-.3v-.7l-.7.1-.7-1.6-1.2-.9-.1-1.1,1.2-.1-.3-.8-2.1-.9-.1-.8-.7-.8-.8-.7-2.4-.8-2-1.1v0Z" style="fill:#505055"/><path d="M324.5,128.6l1.2.3,1.5.1,1.1-.1,1.5.7,1.5-.5-1.5-.9-2-.3-.4-.9-2.4-.7-.3.5-2.5-.1-.1-.5-.5-.1-.9-.5-1.6-.1-.9,1.5,1.1.1.3.7,2.3.5.5-.1.9.1Z" style="fill:#505055"/><path d="M340.8,118l.7.3v-.7l-2.4.5-.7.7-1.2-1.3.3-1.1-.3-.5-.3.5-.7,2.3-.3,1.2-.5.9.4,1.1h.5l.1,1.3-.4,1.5.5.4.8-.3.1-2.1-.1-1.6.9-.5-.1,1.5.8.8-.1.7.3.4,1.3-.5-.7,1.2.4.4.8-.4v-.9l-1.1-1.7.3-.5-1.2-1.9,1.2-.5Z" style="fill:#505055"/><path d="M161.9,25.1l1.3.1.8-.1,3.1-.9,1.3-.9-.9-.9.3-.8-1.6-.1-1.6.7-1.2-.4-1.6.6-1.5-.9-1.5.1-.8.9,2,.3v.4l-1.9.3,2.1.5-1.1.7Z" style="fill:#505055"/><path d="M347.6,67.1l1.1.5.9-1.6,2.1-.1,1.2-.7.3-1.1-.7-.8-.1-1.2-.8-1.5.3-1.6-.7-1.2-1.9-2-1.1.3V57l1.2,1.6.3,1.9-.4.7-1.1,1.5-1.2-.8v2.7l-1.5-.3-2.1.4-.5,1.1-.8.8-.3.9-1.1.4.9,1.1.9.4.3,1.3.8.5.5-.5-.1-2.5-1.7-1.1,1.5-.1,1.2-.7,1.9-.3Z" style="fill:#505055"/><path d="M351,53.7l1.5-.4L351,51.7l-.4.7-.9-.4-1.3-.4L346,50.1l.5,1.1.9,2h-1.2l.1,1.2,1.1,1.3h1.3l-.4-1.6,2.5,1.1Z" style="fill:#505055"/><path d="M286.1,103.2l-.9-.8-.4,2.4.3,2,.7,1.2,1.2-.3.5-.5.1-1.5-.8-1.5Z" style="fill:#75757a"/><path d="M246.1,136.6l-.3-.9-.3-.7-.5-.7-.4.7-.1.9-.7,1.1-.5-.3.1.7-.4.7-1.2.9-.8.9h-.5l-.5.3-.7.3h-.7l-.3.9-.4.9v1.3l.1.9.3.7-.1.9-.7,1.1-.1.5-.5.3-.4,1.1.1,1.1.4,1.2-.1,1.3.4.7.9.5.7.4,1.2-.5,1.1-.4.7-1.7.7-2,.9-2.8.8-2.1.7-1.6.1-1.3.4-.3.1-.7-.1-1.1.3-.5.4.9.3-.4.1-.8-.3-.7Z" style="fill:#505055"/><path d="M306.1,91.9l.7,1.2.4,1.9.7,1.7.7.8v1.6l.5.9-.3,1.1.3,1.1-.3,1.5-.1.9.3.8.1-.9.7.7.8.8.3.8.5.5.3-.3-.3.3.3.7-.1,1.1.5.8.3,1.2.8.9.1.8,1.6,1.2,1.2,1.1.9-.1v-.5l-.5-1.3-.5-.4-.1-.9-.1-.5.1-.7-.1-.9-.7-.9-.8-.9-.5-.6-.4.7-.8.1.8-.1.4-.7-.7-.8-.8-.1-.8-.8-.3-1.3-.7-1.3h-.7l-.1-1.1.3-1.3.5-2.1V97h1.2l-.1,1.2h1.1l1.2.7-.5-1.7.7-1.2-.7,1.2.5,1.7.8,1.5.7.8,1.1.3,1.1-.5,1.3-.1-.7-.9,2-1.2V97.1l-.4-.9-1.2-.5,1.2.5.4.9v1.7l-2,1.2.7.9-1.3.1-1.1.5,1.1.8-.3.9.5.9,1.5-1.3.9-1.2,1.5-.9.9-.9-.1-2.5-.9-2.7-.9-1.2-1.3-.9-1.5-1.9L316.7,89l.1-1.1.8-1.3,1.5-1.3.5-.3,1.7.4v.7l.5,1.1.7-.1.1-1.6,1.3-.3,1.7-.8.5-.8.1.1h.1v.1h.1v-.1l.1.1.5-.5,1.5-.1,1.5-1.2,1.5-1.3.8-1.7.5-2,.5-1.6.7-.1V74.1l-.1-1.2-.9-.4-.5-.8.7-.4-.4-1.1-1.2-1.2-1.2-1.3-1.1-1.5-1.6-.8.3-1.1.8-.9.3-.8,1.6-.4-.5-.8h-.8l-1.3-.5-.9,1.1-1.2-.4-.4-.7-1.1-.3-1.1-1.1.3-.7,1.2-.1.3-.9.8-1.1.8-.5,1.1.8-.4.9.5.5-.3.7,1.1-.4.5-.7,1.5-.4.5-.9.7-.5-.7.5-.5.9.8.4.8.1.1.3.1.8.3.3-.3.1v.8l.4.3.4.1.1.3.3-.1v-.3l.7.3,1.5,1.3-.8.3,1.2,1.6.3,1.1.5.8,1.1-.1.8-.7.9-.3.1-.8-.8-1.7-.8-.9-1.9-1.7-.9-.7-.7-.3v-.1l-.3-.7.3-.4.7-.3.3-.4.1-.3.4-.3-.7-1.1.1-.5.3-.4.5.1-.3-.3-.4-.7.4.7.3.3-.1-.4.9-1.1,1.2.7h.8l1.1-.8.3-.8.5-1.6.4-1.7-.3-.9.3-2.1-1.2-2.3-1.3-1.7-.3-1.5-1.1-1.2L335,37.5l-1.3-.1-.1.7-1.3-.3-1.3-.9-1.9-.1,1.2-3.2.8-2.7,3-.4,3.4.3.5-.7,1.9.1.9.9,1.5-.1,2-.4-1.7-.8V27.5l2.1-.4,2.8,1.6.8-1.5-.8-1.1,1.1-.1,1.5,1.9-.5,1.1-.1,1.3.1,1.7-1.3.3.7.7v.8l1.5,1.9,3.7,3,2.4,2,1.3.9.4-1.3-1.1-1.5,1.3-.4-1.2-1.6,1.2-.7-1.1-.7-.8-1.2h.9l-2.1-2-1.6-.3-.7-.5-.3-1.3-.7-.9,1.6.1.3-.5,1.1.5,1.5-1.1,2.7.9-.4-.7.4-.8.4-.9.7-.1,1.5-.9,2.3.3-.3-.4-.9-.5-.9-.4L360,23.6l-1.9-.7,1.5.1.4-.5-7.6-5-2.1-.5-3.6-.7-1.9.1-3.4-.3.4.5,2,.8-.5.4L340,16.7l-1.6.1-2.1-.3h-1.6l-.9.3-1.7-.4-1.2-.9-1.5-.5-2.1-.3-3.4.3-3.7-.9h-2.4l-9.3-.8-.5.5,2.1,1.1-1.7-.1-.3.4-2.3-.4-1.2.3-2.1-.5.7,1.3-2-.5-2.1-.9L299,14l-1.3-.8-2.3-.7h-1.5l-2.1-.3,1.1.9-4-.1-.9-.5-3.1-.3-1.2.1v.3l-1.9-.7-.5.5-1.7-.3-1.3-.1.4-.4,1.5-.7.5-.4-.5-.5-1.4-.3-2.7-.5h-2.5l-.4.2-.9-.5-2.1-.1.8-.3-1.9-.4-1.5.4-.1.5.4.5h-1.6l-1.2.7L264,9.8l-2.1.1.1.3-2.2.2-1.2.5h-.9l-.3.8,1.3.7-1.7.1h-2.2l-1.3.3,1.1,1.2,1.6.9-2.3-.7-1.7.1-1.2.4,1.1.9-1.3-.2-.5-1.2-.9-.7H249l.8.8-1.1.8,1.9.9.1,1.2.7.7,1.1.1.1.8,1.1.7-.4.7.1.7-.8.3-.1.4-1.2-.1.8-1.9-.1-.8-1.6-.8-.9-1.7-.8-.8-.8-.4.1-.9-.7-.7-2.7-.3-.5.3.1,1.1-.9,1.1.3.4,1.1.9v.7l1.2.1.1.3,1.3.7-.3.7-4.2-1.5-1.5-.4-2.9-.4-.3.4,1.3.7-.7.8-1.5-.8-1.2.5h-1.7l-.5.4-1.2-.1.5-.8h-.8l-2.8,1.1-1.7.7.1.8-1.3.3-.9-.4-.3-.7,1.2-.1-.8-.7-2.8-.4.9.8-.1.8,1.1.8-.3.9-1.1-.4-.9-.1-1.9,1.2.9.9-.8.3-2.7-.8-.5.5.8.5V25l-.9-.3-1.3-.4-.4-1.3-.3-.7-1.9-.9.7-.1,4.6.9,1.5-.4,1.1-.5-.4-.8-.9-.5-4.1-1.5-2.7-.3-1.7-.8-.8.4-1.5.5-.8.1h0v-.3l.8-.1,1.5-.5-1.2-.8,1.1-.3-3.2-.9-1.6.3-1.7-.1-1.2,1.1-1.6-.1-2,.5-2.4,1.6-1.5.9-2,2.5-1.6,1.9-1.9,1.3L187.8,26.4l-.9.8.4,3,.4,1.5,1.5.7,1.3-.3,2-1.6.8.8.9,2,1.1,1.6.4,1.3,1.2-.1.5-1.1,1.3.1.4-1.3.1-2.3,1.1-.3.8-1.5-1.1-.8-.8-.9.5-1.9,1.7-1.2,1.5-1.1-.3-.8.8-.9,1.6-.4-.4-.5-.4-1.7.4,1.7.4.5,1.5.7.3.5-.7.3-2,1.5-.8.8-.4.8.7,1.2v1.3l1.1.4.7.7,1.6-.3,1.7-.5,1.9-.1.4-.4-.4.4,1.2.7-1.1.8.3.3-.5.7.5-.7-.3-.3h-1.1l-1.2-.3-1.3.3-1.2.4.3.8.8.5.4-.1V34h-.8l-1.1-1.1-.9.5-.1.8.1,1.1.4,1.2-1.5.4-.1.7h-1.1l-.1-.3-1.1-.3-1.3.5-1.6.7-.7.4.3.7v0l-.3-.7-.5-.4-1.3-.5-.5.4-1.1.3v-.5l-1.2-.3v-.5l-.4-.7.7-.9.3.1.3-.5-.7-.3-.3-.4.3-.4v-.7l-.8.4-.4.4-.9.1-.3.4-.1.4.1,1.5.5.8.8.1h0l-.8-.1.1.8.3.5-.7.7-.3-.3-.9.1-.3.3h-.9l-1.5.7-.9,2-.5.4-.9.3.1.5h.5l.1.1-.1-.1h-.5l-.1-.5-.9.3-.3,1.2-2.7,1.1-1.1-.7.3,1.6-1.9-.4-1.5.3.1,1.1,1.7.5.8.7,1.2,1.5-.3,2.8-.7.8.3.4-.3-.4H177.8l-.9.1-1.2-.3h-1.6l-1.5-.3-1.7,1.1.4.7-.1,1.1.4-.3-.4.3v.5l.3.5v.4l-.3.9-.1.5-.5.5-.1.9.3.5.5.1.1.9-.3,1.2.7-.1.7.3.5-.4,1.1.3.3.8.4.5.5.1.5-.5.8-.5h2.8l.9-1.2.9-.3.3-.9.7-.7-.4-.8.4-1.2.7-.8.1-.5,1.5-.3,1.1-.9-.1-.8-1.3.1-.3-.1.3.1,1.3-.1.1-.8,1.7-.4,2.3.4,1.1-.8.5-.1.7-.7.5-.3.9.5.7.1.4,1.3.8.8,1.2.9.9.7.9.1.5.5.8.3.4.7.5.1.4.8.5.8-.3.3-.1.8v.4l.5-.1.5-1.3.5-.1.1-.8-.9-.5.4-.9,1.1.3.7.7.1-.5-.1-.3-1.1-.8-.9-.4-1.1-.5.3-.3-.3-.3h-.9l-1.3-1.2-.7-1.2-1.2-.7-.4-.7.1-.4-.1-.7.9-.5.9.3-.3-.7v0l.3.7-.3-.5h0v.5l.4.4.3-.7.8.3.1.4.5.7-.3.1,1.1,1.1,1.1.4.7.5,1.2.5.5.3.4.5.3.1-.1-.4.1-.3-.1.3.1.4.3.3-.1.4v.9l.1.7.7.5v.5l.3.1.3-.4-.3.4.1.4.7.8.5.7.3.9.5,1.2,1.1.7h.8l-.5-1.3.8-.1L210,61l1.2.4-.1-.8-.7-.4-.8-.7.4-.3-.7-.7-.4-.9.3-.3.7.8h.7l.5-.3-.9-.8,1.5-.4.7.1h.8V57l.4.7.9-.8.4-.4,1.5-.1.1-.4-1.1-.4-.3-.5L214,55l-1.2.4L214,55l1.1.1-.5-.8.3-1.1.5-.5-.7-.1-.9-.5.9.5.7.1.1-1.7.4.1.5-.3-.1-.4.8-1.1.3-.8,1.1-.1.1.5,1.9.4.4.3-1.1.5-.1.3,1.3.4-.1.7.7.3,1.5-.8,1.2-.3.1-.5-1.2.1-.7-.4-.3-.9.60005-.6,1.1-.1.7-.4.9-.1-.1-.7.5-.4-.5.4.1.7.9-.3.1.3-1.6.7.8.5-.8,1.2-.8.3,1.2.8,1.5.5,1.7,1.2.5.4.7.1.8.5.5.9-.1.7-1.3.8-1.1-.1-1.3.3-1.9-.5L223,55h-2l-1.3.4-1.3.9-2.3-.1-.4,1.1h-1.9l-1.2,1.5.8.7-.4,1.2.9.8.8,1.5H216l1.2.8.8-.1.3-.7h1.3l1.1.8,1.9-.1.7-.8,1.1.4.8-.1-.4.2.5.7-.3.7.3,1.2.5.1-.5-.1-.5,1.1-.3,1.2-.1.4-.1,1.1-.3.7.1.1-.3.5.9,2.1.1.4v0l.1.3-.1.5v.5l-.1.8h.7l.8,1.1L227,78l.5,1.1.4.4.4.8v.1l.5.8.7.3.7.5.8,1.6v.9l.3,1.1.9,1.5.5.3.9,1.1.4,1.2.8,1.2.7.5.1.5.4.4.3.7.5-.5-.5.5.1.7-.1.3.1.7-.3.1.4.7.3,1.1.3.4v.8l.4.9.9.1.4-.3h.7l.1-.4.4-.1.3-.4.3-.1,1.1-.1.8-.3.7-.7.4.1.5-.1,1.5-.9,2-.7,1.2-.7v-.7l.3-.7.9-.4.5-.1.8-.5.7.1.5-.4v-.5l.5-.4h.8l.3-.3v-.7l.8-.5h.7l.1-.1-.3-.9.1-.8.3-.4.5.1.4-1.1.5-.4.1-.4.4-.9v-.3l-.5-.1-.4-.5-.7-.8-.8-.3-.9-.3-.8-.5-.7-.9h0l-.3-1.2.1-.3v-.7l-.1-.1-.3.5-.7.9-.8.9-.8.9h-1.9l-.9.3-.1-.4-.3.1-.3-.5.1-.9-.1-.8-.4-.4-.3.1-.3.8.1,1.1-.3-.4-.3-.5-.4-.4-.3-.5.50006-.5-.1-.7-.9-.7-.3-.5-.7-.3-.7-1.3-.5-1.1.1-.4-.3-.7.8.1-.8-.8-.1-.8h-.4V70.1l-.1-.1.1.1v1.3h.4l.1.8.8.8.4-.5.8.5.7-.3,1.2,2,.9,1.5,1.3.4,1.5,1.2,1.6.5,1.2-.7.9-.3.7.3.8,1.9,1.5.1,1.5.4,2.4.4,1.7-.3h2l2.3-.3,1.2,1.1.5,1.1h.8l.8-.9-.8.9,1.6,1.2.4.5-.5.5,1.9,1.7.9.1,1.7-.9.4,1.3.1,1.9.5,1.9.8,2.8,1.3,2,.3.9.4,1.9.8,1.5.5.7.5,1.5.7,2,1.3,1.3.5-.4.4-1.1h1.3l-.4-.5.5-1.1.7-.1-.1-2.5.4-1.5-.1-1.2-.4-1.9.3-1.2.5-.1,1.1-.5.7-.4-.1-.7,1.2-.9.8-.9,1.2-1.7,1.7-.9.5-.9-.3-1.1,1.5-.3h.8l.1-.5.5.1.4.1.1-.3.5.3.3-.8-.3-.7h1.2l.7.8.4.7.1.8.4.8-.3-1.2.3,1.2,1.1,1.2.8.3-.1.5,1.2,1.7.4,1.3-.3,1.9.8.4.8.1,1.3-1.2Zm29.3-39,.4.9Zm-.9.8v0Zm-1.4,1.6.5.7ZM313.5,89.9l.9.1,1.2,1.2.3,1.5,1.2,1.3.1,1.2-.4.7,1.2.5-1.2-.5.4-.7-.1-1.3-1.2-1.3-.3-1.5-1.2-1.2Zm-1.2.4.1.1h0Zm-1.4.5v0ZM202,18.4l-.8-.4ZM187.4,41.7l-1.1.3Zm21.3-8.9-.4-.1Zm-.2,2,.1.1Zm-1.1.1h0ZM206,36.7l-.7-.1Zm-1.5,1h0Zm-.8,16.5v0Zm5.2,1-.4-.3Zm4,.9-1.1.1-.7-.4.7.4Zm2.2-5.7.5-.3Zm1.1-1.5h-.7l-.1-.1.1.1h.7l.3-.1Zm11-2.2.1-.5-.4-.8.3-.8-.1-.4h0l.1.4-.3.8.4.8Zm3.6,6.6-.9-.1-1.1-.3,1.1.3Zm-5.7,17.1v0l.3-.1-.3-.1.1-.9-.1.9.3.1Zm.6.4v0Zm.4-1.8-.3-.1-.1.4.1-.4.1-.3-.1-.7.1.7-.1.3ZM252,81.7l.5-.3ZM240.3,60.5l-.9-.8.3-.7-.4-.4.4.4-.3.7Zm6.6,2-1.9.4-1.7-.3-.9-.8-1.2-.3-.5-1.1-.1-.8.4-.4.1-.5V57.5l.9-.1-.4-.4h-.5l-.8-1.1-.8-.8-1.7-1.7-.3-.7-1.3-1.3.8-1.5,1.1-.3.3-.8,1.1-.3,1.2-.7,1.1.4,1.2-.1.4.9.1,1.3-1.1-.3-.9.3.3,1.1-1.2-.1.1.4.8.4.8,1.3,1.5.5.4.5-.1.7.1.4.5.9-.1-1.1.8-.4.5.8,1.1.8-.9.4-1.2-.4v1.2l.8.1-.1,1.1,1.1.5.1,1.6.4,1.1v.4Zm-.5-7.5-.9-.4.9.4.9.9Zm2,6.5-.3.4ZM298,81l-.1.3-.5.1-.3.8.3-.8.5-.1Zm1.7,3.2-.4.3.1,1.1-.1-1.1-1.1-2.4,1.1,2.4Z" style="fill:#505055"/><path d="M387.4,176.8l.1-.7-1.3.7-.8.8-.7.4-1.5,1.1-1.2.8-1.6.7-1.3.5-.9.3-2.7,1.5L374,184l-.3.5,1.2.1.3.4h1.1l.9-.4,1.5-.7,1.9-1.3,1.1-.9,1.5-.5.9-.1.1-.7,1.1-.5,1.6-1.1.9-.7.5-.5.1-.7-1.3.5Z" style="fill:#505055"/><path d="M396.8,171.9l-1.1.5-.8-.1-.7-.4.5-1.2-.3-.4-.7,1.1.1-1.6.4-1.3-.7-.4-.3-.8-.5.1v1.1l.1,1.3.1.5-.1.3-.1,1.1-.5.9-1.1,1.2-1.2.4-.4.7.9.5-.3.8-1.6,1.2.4.1-.1.4,1.3-.5,1.5-.9.9-.8.4-.3.4-.7.7-.5.8.1,1.1-.9,1.1-1.3Z" style="fill:#505055"/><path d="M335.5,94.2l.3.7.8.8v-.5l.4.4-.3.3v.5l.7.3,1.2-.1.9.8.3-.5.5.8,1.1.8.1-.7-.5-.4v-.8l-1.7-.8-.5.1-.7-.1-.5-1.2.1-1.2.7-.5.1-1.2-.7-1.1.1-.5-.1-.4-.4.4-.8-.4h-.8l-.3,1.3.3,2.3-.5-.5Z" style="fill:#505055"/><path d="M344.9,107.6l.3-1.3-.1-.8-.1-1.1-.1-.5-.1-.7-1.2-.8.3,1.2H342.8l-.1.7-1.1.4-.4-.7-.7.5-.8.4-.5,1.3.3.4.9-.8h.7l.3-.5.9.7-.4.7.5,1.1,1.6.9.3-.8-.5-1.1.5-.7Z" style="fill:#505055"/><path d="M340.8,101.7v-1.1l-.7.1v.9l-.3.4-.3.4.8.9.4-.4.4-.9.4-.4v-1.5Z" style="fill:#505055"/><path d="M342.8,98.4l-1.2-.1.9,1.2v.5l-.7-.1.3.9h.4l.1,1.1.5-.3-.4-.9v-.5l.9.4-.5-1.6Z" style="fill:#505055"/><path d="M338.7,41l1.9,1.3,1.5,2,.5,1.1,1.3,1.6.8,1.3,1.1,1.2V48.4l1.5.8-.7-.9-2.1-1.5-.9-2.1,2.1.5-3.2-2.5-1.6-1.5-1.2-1.5-1.6-1.3-1.2-.9-.3.3,1.1.7-.5.7Z" style="fill:#505055"/><path d="M229,15.3l1.9.3.4.5,3.2.1h.4l-2.3-1.1-.7-.9.8-1.2.5-1.1,2-1.2,2.3-.5,2.7-.5.3-.4-.9-.4-1.5.1-1.2.4-2.7.3-2.4.7-1.6.7.7.5-1.6.9.9.3-1.2.9.3.7-.7.3Z" style="fill:#505055"/><path d="M223.7,71.4l-.9-.1-1.1-.4-.3.5-.4-.8-.9-.1-1.1.1-.5.4-.9.4-.7-.3-1.3-.4-1.2-.4h-1.6l-.4-.5-1.2-.1-.4-.3h-.4l-.4-.7-1.7-.3-.8.1-.8.7-.4.7.4,1.1-.5.7-.5.4-1.3-.7-1.7-.7-1.2-.3-.7-1.3-1.7-.7-1.1-.3-.5.1-1.5-.5v0l-.4-.3-.4-.7h-.7l-.3-.8.8-.8.1-1.3-.4-.4v-.7l.5-.8-.1-.3-1.1.5v-.8l-.8-.1-1.3.7-.1.5.1-.5-.8.1-.5-.4h-1.3l-1.2.7-.7-.3-2,.1-2,.3-1.2.4-.8.7-1.3.3-1.2.8h-.5l-1.3-.3-1.2.1-.7-.7h-.9l-.4.9-.8,1.6-.9.7-1.2.7-.8.9-.3.8-.5,1.2.3,1.9-1.1,1.2-.7.4-1.1,1.1-1.2.1-.7.5-.8,1.5-.8.5-.5.9v.8l-.4.9-.4.3-.7.9-.4,1.1.1.5-.4.8-.5.4-.1.7h0l-.1.7.7.7.3.7-.1.8.1.8.1,1.5-.1,1.3-.4.8.1.8.4-.4-.4.4-.3.8-.7,1.1-.5.3.7.5.5,1.2h0l-.1.7.1,1.2.7-.3h.4l.4-.1h0l-.4.1h-.4l-.7.3.1.3.4.3v.3l.3.4.5.1.7.7.7-.7h.4l.1-.1-.1.1h-.4l-.7.7.4.3.1.3.1.7.3.3.4.3.5.5.5.8.1,1.1.3.5.7.8.9.5.4.1.3-.4.1-.4.3-.4-.3.4-.1.4-.3.4.8.9,1.1.8,1.2,1.1,1.3.7h.7l1.3-.5.9-.4,1.5-.3h.8l.9.3h.7v-.5l-.3-.5.3.5v.5l1.2.4,1.2-.4.8-.5,2-.9,1.1-.3,1.1-.1h2.1l.9.9.4,1.1.7.9h1.1l.5-.3.5.1,1.3-.5.3-.9-.3.9v.4l.3.3.3.7.7.3.5.9-.1,1.2H194.8l-.4,1.7.3.3-.3,1.1-.3,1.1-.3.4v.5l.8,1.5.8,1.2,1.3,1.5,1.1,1.6.5-.7-.5.7.3,1.1.4-.1v-.7l.1-.4-.1.4v.7l-.4.1-.4.4-.1.3.7.9.3.9.4,1.5-.4.7-.1.3.3.9.4.9.4.5.1.8-.1,1.1-.4.7-.8.9-.3.7-.4,1.3-.1.7-.4,1.3-.4.6.1.9.7-.3.8-.3-.8.3-.7.3v1.2L198,145l.3.9.7,1.7.7,1.2.5.7.1.8V152l.4,2.3.3,1.1.3,1.5.4,1.1.9,1.1.7-.8.5.4-.5-.4-.7.8.8,1.9.5,1.2.8,1.3v1.1l-.4.3.3.9v.9l.1.4.1-.3.5.7h.4l.5.5h.5l.8-.5,1.1-.3,1.3-.5.5.1.8-.1,1.3.3.7-.3.8.3.1-.4.7-.1,1.3-.5.9-.7.9-.9,1.6-1.5.8-1.1.4-.8.5-.8.3-.3.9-.8.4-.7.3-1.2.4-1.1.1-.8-.3-.1-.1-.7.7-.5,1.6-.8,1.1-.5.5-.5.3-.7-.3-.3.3-.7.1-1.5-.3.1v-.4l-.1-.8-.5-1.1.1-1.1.5-.3.9-1.1.5-.3,1.6-1.6,1.5-.7,1.2-.5.8-.9.5-1.1.4-1.1-.3-.7V135.4l-.1-1.3.1-1.5-.1-.7-.4-.3-.5-1.5-.4-.9.1-.7-.1-.4.4-.9v-.4l-.8-.5-.1-.8.7-1.9.5-.5.3-.9.4-.7.3-1.1.5-.1.3-.7.9-.5-.8-1.2v0l.8,1.2.3-.4.3-.8,1.5-1.7,1.2-1.1,1.9-1.5,1.3-1.2,1.5-2,1.1-1.6,1.1-2.1.8-1.9.5-1.6.3-1.6.3-.5v-.8l.1-.8v-.4H248l-.7.5-.7.1-.5.3h-1.2l-.4.3-.7.1-1.1.4-1.5.1-1.2.4h-.7l-.7-.7-.3-.7-.4-.3-.4.8.4-.8-.5-.4.1-.4v-.7l-.3-.4-.7-.4-.4-.5-.8-.8-.8-.8-1.9-1.3-.8-.7-.4-1.3-.8-1.7-.7.8.7-.8-.7-.5-.5-.4-.5-1.7-.3-1.5.3-.3-.5-1.5-.3-.3-1.6-1.3-.1-.9.3-.3-1.2-1.6-.4-.8-.5-.8-1.1-2.3-.9-1.5-.7-1.6.1-.1,1.1,2.1.7.7.4.4.3-.3.3-.8.1-1.1.3-.5-.1-.4-.9-2.1H223.7ZM161.8,92.7l.3-.1ZM204.1,159l-.5-.1Zm14.1.4.3.3Zm2.9-2.6-.7-.7Zm.8-2.2v0Zm14.7-54.2-.3.1Zm-5-5,.4-.1Z" style="fill:#505055"/><path d="M96.2,90.3v.1l.1-.1.1.1h.1l.1-.1h.3l.1.1h.3l.1-.1h.3v-.1l.1-.1h.1v-.3h-.1l-.1-.1H96.5l-.3-.1-.1.1H96v.1h-.1l.1.1v.4Z" style="fill:#505055"/><path d="M195.82,44.6a4.1,4.1,0,1,0-4.1-4.1A4.05523,4.05523,0,0,0,195.82,44.6Z" style="fill:#fff"/><path d="M195.82,42.8a2.4,2.4,0,1,0-2.4-2.4A2.369,2.369,0,0,0,195.82,42.8Z" style="fill:#0078d7"/><path d="M187.52,58a4.1,4.1,0,1,0-4.1-4.1A4.11834,4.11834,0,0,0,187.52,58Z" style="fill:#fff"/><path d="M187.52,56.2a2.4,2.4,0,1,0-2.4-2.4A2.31072,2.31072,0,0,0,187.52,56.2Z" style="fill:#0078d7"/><path d="M195.42,53.2a4.1,4.1,0,1,0-4.1-4.1A4.11833,4.11833,0,0,0,195.42,53.2Z" style="fill:#fff"/><path d="M195.42,51.5a2.4,2.4,0,1,0-2.4-2.4A2.43339,2.43339,0,0,0,195.42,51.5Z" style="fill:#0078d7"/><path d="M186.32,41.7a4.1,4.1,0,1,0-4.1-4.1A4.05523,4.05523,0,0,0,186.32,41.7Z" style="fill:#fff"/><path d="M186.32,39.9a2.4,2.4,0,1,0-2.4-2.4A2.369,2.369,0,0,0,186.32,39.9Z" style="fill:#0078d7"/><path d="M187.72,49.9a4.1,4.1,0,1,0-4.1-4.1A4.11833,4.11833,0,0,0,187.72,49.9Z" style="fill:#fff"/><path d="M187.72,48.2a2.4,2.4,0,1,0-2.4-2.4A2.43339,2.43339,0,0,0,187.72,48.2Z" style="fill:#0078d7"/><path d="M205.82,41.3a4.1,4.1,0,1,0-4.1-4.1A4.11833,4.11833,0,0,0,205.82,41.3Z" style="fill:#fff"/><path d="M205.82,39.5a2.4,2.4,0,1,0-2.4-2.4A2.31072,2.31072,0,0,0,205.82,39.5Z" style="fill:#0078d7"/><path d="M94.5096,41.7a4.05523,4.05523,0,0,0,4.1-4.1,4.14044,4.14044,0,0,0-4.1-4.2,4.05523,4.05523,0,0,0-4.1,4.1A4.14044,4.14044,0,0,0,94.5096,41.7Z" style="fill:#fff"/><path d="M94.5096,39.9a2.4,2.4,0,1,0-2.4-2.4A2.4334,2.4334,0,0,0,94.5096,39.9Z" style="fill:#0078d7"/><path d="M107.8096,44.8a4.1,4.1,0,1,0-4.1-4.1A4.05523,4.05523,0,0,0,107.8096,44.8Z" style="fill:#fff"/><path d="M107.8096,43.1a2.4,2.4,0,1,0-2.4-2.4A2.369,2.369,0,0,0,107.8096,43.1Z" style="fill:#0078d7"/><path d="M97.0096,56.2a4.1,4.1,0,1,0-4.1-4.1A4.05523,4.05523,0,0,0,97.0096,56.2Z" style="fill:#fff"/><path d="M97.0096,54.5a2.4,2.4,0,1,0-2.4-2.4A2.4334,2.4334,0,0,0,97.0096,54.5Z" style="fill:#0078d7"/><path d="M92.5096,63a4.1,4.1,0,1,0-4.1-4.1A4.05523,4.05523,0,0,0,92.5096,63Z" style="fill:#fff"/><path d="M92.5096,61.3a2.4,2.4,0,1,0-2.4-2.4A2.4334,2.4334,0,0,0,92.5096,61.3Z" style="fill:#0078d7"/><path d="M79.2096,60a4.1,4.1,0,1,0-4.1-4.1A4.11833,4.11833,0,0,0,79.2096,60Z" style="fill:#fff"/><path d="M79.2096,58.2a2.4,2.4,0,1,0-2.4-2.4A2.4334,2.4334,0,0,0,79.2096,58.2Z" style="fill:#0078d7"/><path d="M73.4096,67.4a4.1,4.1,0,1,0-4.1-4.1A4.11833,4.11833,0,0,0,73.4096,67.4Z" style="fill:#fff"/><path d="M73.4096,65.7a2.4,2.4,0,1,0-2.4-2.4A2.4334,2.4334,0,0,0,73.4096,65.7Z" style="fill:#0078d7"/><path d="M40.9,52.7a4.1,4.1,0,1,0-4.1-4.1A4.05523,4.05523,0,0,0,40.9,52.7Z" style="fill:#fff"/><path d="M40.9,50.9a2.4,2.4,0,1,0-2.4-2.4A2.369,2.369,0,0,0,40.9,50.9Z" style="fill:#0078d7"/><path d="M35,60.1A4.1,4.1,0,1,0,30.9,56,4.11833,4.11833,0,0,0,35,60.1Z" style="fill:#fff"/><path d="M35,58.4A2.4,2.4,0,1,0,32.6,56,2.4334,2.4334,0,0,0,35,58.4Z" style="fill:#0078d7"/><path d="M351.712,62.9a4.1,4.1,0,1,0-4.1-4.1A4.05524,4.05524,0,0,0,351.712,62.9Z" style="fill:#fff"/><path d="M351.712,61.1a2.4,2.4,0,1,0-2.4-2.4A2.4334,2.4334,0,0,0,351.712,61.1Z" style="fill:#0078d7"/><path d="M331.612,79a4.1,4.1,0,1,0-4.1-4.1A4.05525,4.05525,0,0,0,331.612,79Z" style="fill:#fff"/><path d="M331.612,77.3a2.4,2.4,0,1,0-2.4-2.4A2.31072,2.31072,0,0,0,331.612,77.3Z" style="fill:#0078d7"/><path d="M326.212,66.5a4.1,4.1,0,1,0-4.1-4.1A4.18534,4.18534,0,0,0,326.212,66.5Z" style="fill:#fff"/><path d="M326.212,64.7a2.4,2.4,0,1,0-2.4-2.4A2.4334,2.4334,0,0,0,326.212,64.7Z" style="fill:#0078d7"/><path d="M319.112,86.2a4.1,4.1,0,1,0-4.1-4.1A4.05525,4.05525,0,0,0,319.112,86.2Z" style="fill:#fff"/><path d="M319.112,84.5a2.4,2.4,0,1,0-2.4-2.4A2.4334,2.4334,0,0,0,319.112,84.5Z" style="fill:#0078d7"/><path d="M315.212,112.9a4.1,4.1,0,1,0-4.1-4.1A4.18534,4.18534,0,0,0,315.212,112.9Z" style="fill:#fff"/><path d="M315.212,111.1a2.4,2.4,0,1,0-2.4-2.4A2.4334,2.4334,0,0,0,315.212,111.1Z" style="fill:#0078d7"/><path d="M284.41761,100.7a4.1,4.1,0,1,0-4.1-4.1A4.18532,4.18532,0,0,0,284.41761,100.7Z" style="fill:#fff"/><path d="M284.41761,98.9a2.4,2.4,0,1,0-2.4-2.4A2.4334,2.4334,0,0,0,284.41761,98.9Z" style="fill:#0078d7"/><path d="M286.01762,91.4a4.1,4.1,0,1,0-4.1-4.1A4.18532,4.18532,0,0,0,286.01762,91.4Z" style="fill:#fff"/><path d="M286.01762,89.7a2.4,2.4,0,1,0-2.4-2.4A2.50327,2.50327,0,0,0,286.01762,89.7Z" style="fill:#0078d7"/><path d="M366.9,167a4.1,4.1,0,1,0-4.1-4.1A4.18533,4.18533,0,0,0,366.9,167Z" style="fill:#fff"/><path d="M366.9,165.2a2.4,2.4,0,1,0-2.4-2.4A2.43341,2.43341,0,0,0,366.9,165.2Z" style="fill:#0078d7"/><path d="M371.3,157.8a4.1,4.1,0,1,0-4.1-4.1A4.05525,4.05525,0,0,0,371.3,157.8Z" style="fill:#fff"/><path d="M371.3,156.1a2.4,2.4,0,1,0-2.4-2.4A2.4334,2.4334,0,0,0,371.3,156.1Z" style="fill:#0078d7"/><path d="M110.9136,168.4a4.1,4.1,0,1,0-4.1-4.1A4.05523,4.05523,0,0,0,110.9136,168.4Z" style="fill:#fff"/><path d="M110.9136,166.7a2.4,2.4,0,1,0-2.4-2.4A2.4334,2.4334,0,0,0,110.9136,166.7Z" style="fill:#0078d7"/><path d="M278.5176,85.1a4.1,4.1,0,1,0-4.1-4.1A4.05522,4.05522,0,0,0,278.5176,85.1Z" style="fill:#fff"/><path d="M278.5176,83.4a2.4,2.4,0,1,0-2.4-2.4A2.36893,2.36893,0,0,0,278.5176,83.4Z" style="fill:#0078d7"/></svg>