<?xml version="1.0" encoding="utf-8"?>
<!-- Generator: Adobe Illustrator 22.1.0, SVG Export Plug-In . SVG Version: 6.00 Build 0)  -->
<svg version="1.1" id="Layer_1" xmlns="http://www.w3.org/2000/svg" xmlns:xlink="http://www.w3.org/1999/xlink" x="0px" y="0px"
	 viewBox="0 0 394.4 195.2" style="enable-background:new 0 0 394.4 195.2;" xml:space="preserve">
<style type="text/css">
	.st0{fill:#505055;}
	.st1{fill:#75757A;}
	.st2{fill:#FFFFFF;}
	.st3{fill:#0078D7;}
</style>
<path class="st0" d="M106.9,193.6l-1.7-0.8l-1.1-1.1l-0.7-0.7l1.3,3l-1.3-3l-0.9-0.3l-0.7,0.7v0.9l-0.3,0.7l-1.7-0.5l-1.9-0.9
	l-1.1-0.3l2.3,1.6l1.3,0.7l1.9,0.8l1.2,0.3l0.9,0.4l0.7,0.1h0.5l0.8-0.4l0.1-0.5l0.8,0.4h0.9l0.3-0.8L106.9,193.6z"/>
<path class="st0" d="M353.4,174.5l-0.8,0.1l-0.8-0.4l-0.7-0.1l-0.4,0.7l-0.1,1.2l-0.5,0.9l-0.1,1.2l0.7,0.1h0.3l1.5-0.9l0.1,0.4
	l0.9-1.2l0.8-0.5l1.1-1.6l-0.7-0.1L353.4,174.5z"/>
<path class="st0" d="M370.9,154.2l0.4-0.8l0.3-0.9v-1.2l-0.7-1.1l-0.5-0.7l-0.7-0.9l0.3-1.5l-0.4,0.1l-0.4-0.5l-0.5,0.3l-0.1-1.6
	l-0.5-0.9l0.3-0.3l-0.8-0.7l-0.7-0.8l-1.2-0.7l-0.3-1.1l0.3-0.7v-1.3l-0.4-0.1v-0.8V137l0.1-0.7l-0.5-0.7l-0.3-0.5l-0.9,0.5
	l-0.3-1.2l0.1-0.5v-0.8l-0.4-0.8l0.1-0.5l-0.4-0.3l0.1-0.8l-0.4-0.8l-0.5,0.5v0.4l-0.4,0.8l-0.4,0.8l0.1,0.5l-0.3,0.3l-0.4,1.2
	l0.1,0.8l-0.3,0.4l0.1,0.7l-0.7,1.2l-0.3,0.8l-0.4,0.7l-0.4,0.8l-0.9,0.5l-1.1-0.5l-0.1-0.4l-0.7-0.4h-0.3l-0.8-0.9l-0.7-0.5
	l-0.8-0.4l-0.9-0.8v-0.4l0.5-0.8l0.5-0.7l-0.1-0.7h0.5l0.5-0.5l0.4-0.8l-0.4-0.8l-0.4,0.3l-0.5-0.1l-0.8,0.5l-0.7-0.5l-0.4,0.1
	l-1.1-0.4l-0.7-0.5l-0.8-0.4l-0.7,0.3l0.9,0.4l-0.1,0.8l-1.1,0.3l-0.7-0.1l-0.8,0.5l-0.7,0.8l0.1,0.4l-0.7,0.4l-0.8,1.2l0.1,0.8
	l-0.8-0.1h-0.8l-0.5-0.9l-0.9-0.7l-0.7,0.1l-0.5,0.3l-0.1,0.4l-0.5-0.3v0.5l-0.7,0.1l-0.4,0.7l-0.8,0.7l-0.4,1.2l-0.5-0.4l-0.5,0.8
	l0.4,0.7l-0.7,0.3l-0.3-1.3l-1.1,1.3l-0.3,0.8L335,141l-0.9,0.8l-0.4,0.8l-0.8,0.7l-1.5,0.4h-0.7l-0.4,0.1l-0.3,0.3l-0.8,0.1
	l-1.1,0.7l-0.3-0.3l-0.7,0.1l-1.1,0.5l-0.7,0.7l-1.2,0.4l-0.7,1.1l0.1-1.1l-0.8,1.1v0.8l-0.3,0.8l-0.4,0.3l-0.3,0.9l0.1,0.4l0.1,0.4
	l0.3,1.2l-0.1,0.8l-0.3-0.5l-0.5-0.5l0.1,1.5l-0.4-0.7v0.7l0.4,1.1l-0.1,1.2l0.4,0.5v0.5l0.1,0.9l-0.3,0.8l-0.1,0.8l0.3,1.6
	l-0.3,0.8l-0.4,1.1l-0.1,0.5l-0.4,0.3l-0.7,0.3l-0.4,0.8l0.7,0.3l0.8,0.9h0.9l0.8,0.1l0.8-0.5l0.8-0.4l0.3,0.1l1.1-0.8l0.9-0.1
	l0.9-0.1l0.9,0.3l0.8-0.1h1.1l0.8-0.7l0.5-0.8l1.2-0.3l1.6-0.8l1.1,0.1l1.6-0.5l1.9-0.5l2.3-0.1l0.9,0.8h0.8l1.3,0.9l-0.4,0.3
	l0.4,0.5l0.3,1.1l-0.4,0.8l0.7,0.7l1.1-1.2l0.9-0.5l1.6-1.2l-0.4,1.1l-0.8,0.7l-0.5,0.9l-1.1,0.8l1.2-0.3l1.2-1.1l-0.3,1.1l-0.8,0.8
	l1.2,0.1l0.3,0.7l-0.1,0.8l-0.3,1.1l0.3,0.9l0.9,0.4l0.7,0.1l0.5,0.3l0.8,0.4l1.7-1.1l0.8-0.3l-0.7,0.7l0.5,0.3l0.7,0.7l1.1-0.5
	l0.9-0.7l1.5-0.5l1.3-0.1l1.1-0.5l0.1-0.4l0.7-1.1l0.9-1.1l0.8-0.8l1.1-1.3l0.8-0.7l0.9-1.2l1.3-0.7l1.1-1.3l0.8-1.1l0.3-0.8
	l0.9-1.3l0.5-0.7l0.5-1.3L370.9,154.2z"/>
<path class="st0" d="M133.5,122.3l-0.5-0.4h-1.1l-0.9-0.4l-1.7-1.6l-2-1.3l-2,0.1l-2.5-0.8l-1.5,0.4l0.1-0.8l-0.7-0.9l-2.1-0.9
	l-1.6-0.5l-0.9,0.9l-0.1-1.5l-2.3-0.3l-0.4-0.3l0.9-1.2v-1.1l-0.7-0.3L113,109l-0.3-0.8l-0.4,0.1l-0.3-0.7l-1.3-1.2l-0.9-0.4
	l-0.4-0.1l-1.3-0.4l-1.1,0.1l-0.1,0.3l-1.6-0.3l-0.5-0.7l-0.7-0.7h-0.5v-0.8l-0.8-0.9l-0.8-0.5l-1.1,0.9l-0.1,0.4l0.1-0.5l1.1-0.9
	l-0.5-0.4h-0.7l-0.1-1.2l-0.9-0.8l-1.1-0.1l-0.4-0.7l1.1-0.4h-1.6l-1.6,0.1v0.4l-0.7,0.7l-0.9-0.1l-0.7-0.7l-1.3,0.1h-1.2v-0.5
	l-0.8-0.8h-0.9l-0.4-1.1l-0.5,0.4l0.1,0.7l-1.6,0.7v1.1l0.4,0.5l-0.4,1.1l-0.5,0.1l-0.5-1.2l0.7-0.8l0.1-0.8l-0.4-0.7l0.8-0.1
	l0.1-0.4l0.3-0.5l-0.3-0.4L87.1,96l-1.1,0.8l-0.5,0.3l-1.1,0.8l-0.9-0.1L83.4,98h-0.8l-0.8,0.7l-0.3,1.2v0.5l-0.7,0.3l-1.1,1.1h-0.7
	l-0.4-0.4l-0.4-0.5l-0.5-0.3h-0.7l0.1-0.1l-0.7-0.1l-0.4,0.4l-0.8,0.3l-0.5,0.4l-0.7,0.1l-0.4-0.4l-0.1,0.1l-0.5-0.1v-0.3l-0.4-0.5
	l-0.5-0.7l-0.7-0.5l-0.3-0.8L71.2,98v-0.4l0.3-0.4v-0.4l0.1-0.7l0.3-0.1v-0.7v-0.4l0.1-0.7l0.3-0.5l0.3-0.5l-0.3-0.4l0.1-0.3
	l0.1-0.1L72.3,92l-0.4-0.3l-0.4-0.3l-0.4-0.3h-0.1l-0.7-0.4L70,91h-0.4l-0.3-0.1H69L68.8,91l-0.4,0.1h-0.7L67.2,91L67,91.1L66.8,91
	h-0.4l-0.3,0.3H66l-0.4-0.1l-0.1,0.3l-0.4-0.3l0.3-0.5h0.3l0.3-0.4l0.3-0.8L66,89.2l0.3-0.5v-0.3l0.3-0.7l0.1-0.4h-0.3v-0.3h0.3
	l0.3,0.4l0.4-1.2l0.3-0.7l-0.3-0.3l0.4-0.9l0.8-0.9l0.1-0.7l-0.3-0.3l-0.8,0.1h-1.1l-1.3,0.4l-0.8,0.4l-0.3,0.4l-0.3,1.2l-0.4,0.8
	l-0.9,0.7l-0.8,0.3l-0.9,0.3l-0.9,0.1l-1.2,0.4L58.3,87L57,86.6l-0.4-0.8L56.5,85l-0.7-1.1l-0.1-1.2l-0.5-0.5L55,81.4l0.3-0.7l0.4-2
	l0.4-1.1l0.7-1.3l-0.1-0.5l0.1-0.7l0.3-1.1l0.4-0.7l0.8-0.7l1.3-0.7l1.5-1.1l1.2-0.4l0.8-0.1l0.8,0.3l1.2-0.1l0.8,0.8h0.9l0.5-0.3
	l0.4,0.4l0.3-0.1l-0.3-0.3l0.1-0.5l-0.1-0.4l0.5-0.3l0.9-0.1l1.1,0.1l1.5-0.1l0.7,0.4l0.4,0.7l0.3,0.1l1.5-0.7l0.4,0.3l0.7,1.2
	l0.1,0.8l-0.4,0.9l0.1,0.5l0.4,1.2l0.4,1.3l0.4,0.3l0.1,0.7l0.7,0.1l0.4-0.1l0.4-0.9l0.1-0.5l0.3-0.9l-0.3-1.7l0.1-0.7l-0.3-1.2
	L78,70.3v-1.1l0.4-1.1l0.8-0.9l0.8-0.7l1.6-0.9l0.3-0.5l0.8-0.5l0.7-0.1l1.1-0.9l1.3-0.4l1.1-1.1l0.3-1.5v-0.5l-0.3-0.1l0.4-1.5
	L86.5,58l0.8,0.3v-0.9l0.4-0.7l-0.3,1.2l0.4,0.5l-0.7,1.3h0.1l1.1-1.2l0.5-0.5l0.1-0.5l-0.3-0.3v-0.8l0.3,0.4l0.3,0.1v0.4l1.2-1.2
	L91,55l-0.3-0.1l0.5-0.4l-0.1,0.1h0.8l1.9-0.4L93.5,54l-2,0.3l1.1-0.4l0.7-0.1l0.5-0.1l0.9-0.3h0.5l0.9-0.3l0.3-0.4l-0.3-0.3v0.5
	h-0.5l-0.1-0.8l0.3-0.8l0.3-0.3l0.9-0.8l1.3-0.4l1.3-0.5l1.5-0.7v-0.4l-0.3-0.8l0.5,0.8l1.3-0.1h1.9l-2.4,1.2l-0.4,1.1l0.8,0.1
	l1.6-1.1l1.3-0.5l2.8-0.8l1.7-0.9l-0.7-0.5l0.3-1.1l-1.6,1.6l-1.9,0.3l-1.3-0.7v-1.1l0.1-1.6l1.5-0.9l-0.8-0.8l-1.7,0.1l-2.8,1.2
	l-2.5,1.9l-1.1,0.3l1.9-1.3l2.4-1.9l1.7-0.7l1.3-1.1l1.2-0.1h1.7l2.3,0.3l2-0.3l1.9-1.2l2-0.5l0.9-0.5l0.9-0.5l0.4-1.6l-0.3-0.5
	l-0.8-0.1v-1.2l-0.5-0.4l-1.6-0.4l-0.8-0.5l-1.1-0.8l0.8-0.8l-0.4-1.6l-0.7-1.9l-0.3-1.2l-0.9,0.7l-1.7,1.5l-1.9,0.8l-0.4-0.8
	l-0.8-0.3l0.5-1.7l0.7-1.2h-1.9v-0.5l-0.8-0.8l-0.7-0.4l-1.2,0.3l-0.9-0.1L101,24l-0.9,0.3l-0.9,2.3l-0.3,1.2l-2,1.5l0.7,1.1
	l0.1,1.2l-0.4,0.9l-1.1,0.8l-1.7,0.9l-2.1,0.7l0.4,0.8l-0.5,2.3L91,39.3l-1.1,0.4l-1.1-1.3v-1.6l0.4-1.3l0.8-1.2L89,34.1l-1.7-0.1
	l-0.8-0.5L85.4,33L85,32.4l-0.7-0.5l-1.6-0.7l-1.6,0.3l0.1-1.1l0.4-1.3l-1.3-0.3l1.2-1.6l1.2-1.1l2.1-1.5l2-1.1l1.3-0.1l0.7-0.8
	l1.2-0.5l1.5-0.1l1.7-0.9l0.7-0.5l1.7-1.1l0.8-0.7l0.8,0.4l1.5-0.3l2.5-0.9l0.5-0.7l-0.1-0.7l1.2-0.7l0.4-0.7l-0.8-0.7l-1.2-0.1
	l-1.3-0.1l-1.1,1.3l-2,1.5l-1.7,0.9l-0.3-0.9l0.9-0.9l-0.5-0.8l-2,0.9l0.9-1.3L92.8,15l1.3-0.7L94,13l-0.4-0.5l-1.1-0.1l-1.9,0.9
	l-1.3,1.3l0.7,0.5l0.4,0.8L89,17.2h-0.8l-1.5,1.1l0.9-1.2l-1.1-0.4L85.5,17L85,17.8h-1.3L82,17.9L80.9,17l-1.2,0.1l-0.4-0.7
	l-0.5-0.3l-0.9,0.1l-1.2,0.1l-1.1,0.4l0.4,0.5L74.4,18l-0.3-0.8l-1.1,0.3l-2.7,0.1l-1.3-0.4l2-0.7l-0.7-0.7L69.4,16l-1.1-0.3
	l-1.7-0.4l-0.9-0.5l-1.1-0.1l-0.8,0.4l-1.3,0.3l0.9-0.9l-2.1,0.8L61,14.2l-0.5-0.1l-0.8,0.5l-1.1,0.3v-0.5l-1.9,0.3l-2,0.5L53.6,15
	L52,15.4L50.4,16l-0.8-0.1l-0.8-0.7L47.5,15l-0.8-0.1l-0.9-0.4l-1.6,0.1l-0.5-0.1L42,14.3l-1.5-0.4l-1.1,0.1l-1.2-0.3l0.4-0.3
	l-1.5-0.1l-0.8,0.3l0.1-0.5l-1.1-0.3l-2.4,0.7l-0.8-0.1l-2.5,0.5l-1.1,0.1l-1.9,0.5l-1.1,0.7l-1.7,0.7h-1.7L21,16.6l0.8,0.4l0.1,0.5
	l-0.1,0.7l0.5,0.5L22,19.5h-2.1l0.9-0.7H20L17,19.5L14.9,20l0.3,0.8l-0.3,0.5l1.1,0.3l1.6-0.1l0.4,0.3l0.7-0.3l1.3-0.3h0.7l-1.3,0.5
	l0.3,0.3l-0.7,0.5l-1.3,0.4L17,22.8l-1.6,0.7L15,23.2l-0.9,0.1L12.9,24l-1.7,0.7l-1.3,0.8L9.9,26L9,26.8l0.3,0.3v0.7l1.7-0.3
	l0.1,0.5l-0.8,0.5l-0.8,0.8h0.7l1.7-0.5l-0.4,0.7l0.8-0.5l-0.1,0.7l1.1-0.4l0.1,0.3l1.7-0.4l-1.5,0.8l-1.3,1.1L11,31.4l-0.5,0.3
	l-2.4,0.8L6.9,33l-1.5,0.1l-2,0.8L2,34.3L0.1,35L0,35.1l2.3-0.4l1.3-0.4l1.7-0.5l1.3-0.4l0.7,0.1l1.9-0.7l1.1-0.7l2.4-0.7l0.9-0.7
	l1.5-0.4l1.7-0.5l2-0.9v-0.7l2.5-0.9l1.7-0.9l2.1-0.8L24.9,26l-1.3,0.5l-1.9,1.3L21,28.6l1.5-0.3l1.5-0.4l1.5-0.3l0.7-0.1l0.8-0.9
	l1.5-0.3l0.7,0.5l1.3,0.7l1.6-0.1l1.3,0.4l0.8,0.3l0.8,1.5l0.8,0.4h1.6l0.9,0.1l-0.7,1.3l0.4,1.2L37,33.8l0.5,0.4l0.1,0.5l1.2-0.7
	l0.7-0.8l-1.1-1.1l1.1,0.9l-0.7,0.8l-1.2,0.7l-0.5,0.7l0.5,1.1L37,37.5l0.9,0.7L37.1,39l-0.3,1.3l1.6,0.5l0.4,0.7L40,43h0.1
	l-0.4,1.2l-0.7,0.9l-0.5,0.4l0.3-1.3l-1.3-0.5l-0.3,0.3l-0.1,0.7l-0.4,1.2l-1.1,2l-0.9,1.3l-0.9,1.3l-1.2,1.3l-0.3,1.1L31.7,54
	l-0.9,1.2L31,56l-0.4,1.2l0.4,1.2l0.3,0.5l-0.1,0.4l0.1,2.1l0.5,1.5l-0.3,0.8l0.3,0.3l1.1,0.1l0.3,0.4l0.7,0.1V65l0.5,0.1l0.5,0.8
	l-0.1,0.8V68l0.1,1.2l0.1,0.9l0.1,0.9l0.7,0.4l0.7,1.1l-0.3,0.7l-0.7,0.5L35,73.6l-0.1,0.1l0.5,0.8l0.7,0.4l0.3,0.4l0.3-0.3l0.7,0.7
	l0.5,0.4v0.8L37.5,78l0.5,0.4l0.8,0.7l0.7,0.8l0.3,1.1H40l0.7-0.5l0.1-0.3l-0.4-0.7L40,78.8h-0.7l0.1-0.8l-0.3-0.7L39,76.6l-0.1-1.3
	l-0.7-0.8L38.1,74l-0.3-0.4v-0.9h-0.3v-0.5L37.4,72l-0.1-0.3l-0.7-1.1L36.3,70l0.3-1.1v-0.7l0.4-0.7l0.5,0.4h0.4l0.7,0.5l-0.3,0.5
	l0.1,1.2l0.4,1.1l-0.1,0.4l0.4,0.7l0.5,0.8l0.7,0.1l0.1,1.1l0.5,0.7l0.5,0.4l-0.4,0.9l0.1,0.4l0.9,0.7l0.4,0.9l1.1,1.2l0.9,1.5
	l0.3,0.8v0.4l0.3,0.7L45,83.4l0.1,0.4l0.1,0.4l-0.4,0.1L45,85l0.5,0.9l1.2,0.8l0.4,0.7l1.2,0.4l0.7,0.1l0.3,0.4l0.9,0.7l1.3,0.7
	l0.9,0.3l1.1,0.7l0.9,0.3l0.8,0.4l0.7-0.1l1.1-0.5l0.7-0.1l1.1,0.4l0.7,0.5l1.3,1.6l0.7,0.7l0.5,0.3h0.8l0.7,0.3l0.3,0.3l0.7,0.1
	l0.5,0.3l0.4,0.1h0.8l0.1-0.4l0.1-0.5h0.1l0.1,0.1l-0.1,0.5l0.4,0.1l0.1,0.4l-0.1,0.1l-0.3-0.3l-0.1,0.3L67,96l0.5,0.4l0.3,0.5
	l0.5,0.7l0.4,0.4l-0.3,0.3l0.4,0.3l-0.3,0.4v0.4l0.1,0.3l0.4,0.1l0.3,0.4l0.3-0.4l-0.1-0.4l0.3,0.3l0.1,0.4l0.4,0.1l0.5,0.3l0.4,0.4
	v0.3l-0.1,0.3l0.3,0.3l0.7,0.3l0.1,0.3l0.1-0.3h0.5l0.3,0.1l0.5,0.1l0.3,0.5l0.4,0.1l0.1-0.3l0.1,0.9l0.7-0.1l0.3-0.3l0.4-0.3
	l-0.5-0.8l0.1-0.3l0.1,0.4l0.5-0.4l0.3-0.5l0.5-0.1l0.7,0.4l0.3,0.5l0.3,0.1l-0.4,0.4l0.3,0.8l0.4,0.4l0.5,0.8l0.1,1.2l-0.3,0.4
	l0.3,1.3l-0.3,0.8l0.4,0.4l-0.5,0.8l-0.4,0.9l-0.7,0.1l-0.3,0.5v0.8l-0.5,0.1l0.1,0.4l-0.9,0.5l-0.7,0.3l0.1,0.7l-0.5,0.9l-0.3,0.9
	l-0.4,0.3l0.3,1.3l-0.3,0.4l0.8,0.7l0.5-0.7l0.3,0.7l-0.7,1.1l-1.1,0.9l-0.4,1.1l0.7,1.5l-0.3,0.5l0.9,0.7l1.1,0.9l0.4,1.1l0.5,0.7
	l1.3,2.9l1.5,2.7l1.2,2l-0.1,0.4l0.7,1.2l1.1,0.9l2.5,1.6l2.7,1.5l0.1,0.7l1.3,0.8l0.5,2.1l0.4,2.4v3.3v3.1l0.3,2.8l-0.4,1.9
	l0.5,1.9l-0.1,1.2l0.8,2.3v2.3l-0.3,2.4l-0.1,2.4h-0.5l0.5,1.7l0.8,1.5l-0.3,0.9l0.4,2.7l0.4,2l0.8,0.3l-0.3-1.7l0.9,0.4l0.4,2.9
	l-1.5-0.5l0.4,2.4l-0.7,1.3l1.9,0.4l-0.8,1.1v1.3l1.2,2.4l0.9,0.9v0.8l0.8,0.9l1.7,0.8l1.7,0.9l1.5,0.4h0.4l-0.4-1.3l0.8-0.5
	l0.4-0.4h0.9l0.5,0.1l-1.1-0.8l-0.9-1.5l0.3-0.7l0.8-0.5l0.1-1.7l1.1-0.8v-1.3l-1.2-0.3l-1.5-1.1V181l0.7-0.7h1.1v-0.8l-0.3-1.5
	l0.7-0.9l0.9-0.4L104,176l-0.5,0.4l-0.9-0.4l-0.5-1.5l0.4-0.4l1.3,0.5l1.2-0.3l0.5-0.5l-0.4-0.7v-1.1l-0.4-0.9l1.3,0.1l2.4-0.3
	l1.6-0.8l0.8-1.9l-0.1-0.8l-0.9-0.7v-1.1l-1.9-1.3l-0.1-0.8l0.9,0.8h0.8l1.2,0.7l0.7-0.1l0.9,0.3l1.2-0.8l0.4-0.9l0.7-0.8l0.4-1.3
	l0.8-0.7l0.9-1.2l1.1-2.5l0.8-0.8l0.1-0.7l0.1-1.5l-0.3-0.8l0.1-1.1l0.9-1.5l1.3-1.2l1.3-0.4l0.8-0.7l2-0.5h1.3l0.3-0.9l0.9-0.7
	l0.1-1.5l1.2-1.9l0.1-2l0.4-0.7l0.1-0.9l0.3-2.3l-0.3-2.8l0.3-1.1h0.3l0.9-1.3l0.8-1.7l1.7-2l0.7-0.9l0.4-2.4l-0.3-0.9L133.5,122.3z
	 M63.3,90.7l0.1-0.5h-0.3l0.1,0.1V90.7z"/>
<path class="st0" d="M117.6,46.1h0.5l0.8-1.3l-0.1-0.9v-0.7l-0.8,0.3l0.7-1.1l-1.1-0.5l-0.5,0.4l-0.9-0.4l0.5-0.5l-0.7-0.3l-0.9,0.5
	l1.2-1.3l0.9-0.8l0.3-0.4L117,39l-1.1,0.5l-0.9,0.8l-2,2.3l-1.2,0.8l0.4,0.4l-0.9,0.5l0.1,0.5h2.1l1.3-0.1l0.9,0.4l-0.9,0.7h0.7
	l1.7-1.2l0.3,0.1l-0.7,1.2L117.6,46.1z"/>
<path class="st1" d="M38.2,43.6l0.7-0.1v-0.8L38.2,42l-0.1-0.7V41l-0.9-0.3l-0.5-0.1l-1.1-0.4l-0.3,0.4l-0.1,0.8l0.9,0.3V42l0.7,0.5
	V43L38.2,43.6z"/>
<path class="st0" d="M96.9,14.1l1.3,0.3l1.7,0.3l3.2,0.4l1.9-0.1l0.7-0.4l0.5,0.4h0.7l0.5,0.8l-0.8,0.4l1.6,0.4l1.1,0.5l0.1,0.5
	l-0.1,0.5l-2,1.2l-0.7,0.7v0.4l-2.1,0.1l-1.9,0.1l-1.2,0.9l0.5,0.4l3-0.1l0.1-0.4l1.1,0.7l1.2,0.7l-0.7,0.3l0.9,0.7l1.7,0.8l2.5,0.5
	v-0.5l-0.7-0.8l-0.8-1.1l2,1.1l1.1,0.4l0.9-1.1v-1.2l-0.3-0.4l-1.1-0.5l-0.7-0.8l0.5-0.8l1.5-0.1l0.8,1.3l0.9,0.5l2.5-1.6l0.7-0.8
	l-1.5-0.1l-0.7-1.2l-1.5-0.3l-1.7-0.8l2.1-0.5l-0.3-1.2l-0.4-0.5l-2-0.4l-0.4-0.8l-1.9,0.3l0.1-0.5l-0.8-0.5l-1.6-0.7l-1.2,0.5
	l-2,0.4l0.7-0.8l-0.5-1.3l-2.7,0.5l-1.6,0.9l-0.1-0.7l1.3-0.8l-2.5,0.3l-1.3,0.5l-1.6,1.1l-0.8,1.2H98l-1.5,0.5L96.9,14.1z"/>
<path class="st1" d="M87.3,15.8l0.9,0.4l0.9-0.5L89,15.2L88.8,15l-0.4-0.1l-0.7-0.4L86.7,15l-1.2,0.4l0.8,0.5L87.3,15.8z"/>
<path class="st0" d="M82.9,85.1h0.8l0.9-0.1l0.1-0.4l-0.9-0.7h-0.9l0.1-0.4l-0.7-0.3H82l-0.7-0.7l-1.1-0.9l-0.4-0.4l-1.2,0.3
	l-0.4-0.7L77,80.5h-0.9l-1.1-0.1l-0.4,0.1l-0.9,0.1l-0.7,0.3l-0.7,0.4L72,81.8l-0.7,0.4l0.5,0.1l0.7-0.1l0.1-0.4h0.5l1.1-0.8
	l1.2,0.1l-0.5,0.4l0.5,0.3l1.6,0.3l0.3,0.3l1.2,0.4h0.7l0.3,0.8l0.4,0.4l0.8,0.1l0.5,0.4l-1.1,0.8l1.9-0.1H82.9z"/>
<path class="st0" d="M87.9,88.6l0.5-1.1l0.5-0.3l0.1,0.4h0.5l0.3-0.4l0.4,0.1h0.5l0.7,0.3L92,87l-0.7-0.5h-0.5l0.1-0.4h-0.8L90,85.5
	h-0.4L89,85.1h-1.1l-0.1,0.3l-1.1-0.3h-0.8l-0.3,0.4l0.8,0.3l-0.1,0.5l0.5,0.7l-0.5,0.3l-0.9-0.1L84.2,87l-0.1,0.4l0.7,0.5l0.7-0.3
	l0.7,0.1l0.7-0.1l0.8,0.3v0.4L87.9,88.6z"/>
<path class="st0" d="M173.1,33.9l0.5-0.7l0.4,0.3l-0.4,0.7l0.3,0.4l1.2,0.3h0.1l0.7,0.8l-0.1,0.9l-1.7-0.3l-0.1,0.9l0.5,0.8
	l-1.2,0.4l0.4,0.7l1.7,0.1l-1.1,0.4l-1.7,1.5l0.7,0.3l0.8-0.5L175,41l0.7-0.7l0.5,0.3l2-0.4h1.5l0.9-0.7l-0.4-0.8l0.5-0.4l0.1-0.9
	l-1.3-0.3l-0.3-0.5l-0.7-1.6l-0.8-0.1l-0.9-1.7l-0.1-0.1h-1.1l0.9-1.3l0.4-1.1h-1.2l-1.1,0.1l1.1-1.5l-1.2,0.1l-0.8-0.1l-0.9,1.2
	l-0.4,1.3l0.5,0.7V33.9z"/>
<path class="st0" d="M158.3,14.5H157l-2.4-0.1l1.2-0.7l-0.1-0.8l0.9,0.7l0.7,0.5l1.7-0.3l-0.1-0.9l-1.1-0.8l-1.2-0.3l0.5-0.3
	l1.7,0.4l0.1-0.5l-0.9-0.8h1.2l1.3-0.1l0.4-0.4l-0.9-0.5h2l-0.9-1.1l0.9-0.1V7.4l-1.5-0.5l1.5-0.4h1.3l-0.8-0.8l0.3-1.2l0.8-0.7
	l1.2-0.7L163,3l2.7-0.1l0.4-0.3l3.4-0.7l-0.4-0.3l-2.3-0.3l-4,0.4l-2.1,0.3l1.1-0.5l-0.5-0.3l-1.6,0.3l-2.3-0.3h-2.8l-0.3-0.1h4.1
	l3.1-0.1l1.5-0.3l-4.5-0.7l-6-0.1l-2.8,0.1l-1.1,0.3H146l-2.9,0.4l-0.4,0.4l1.6,0.5l-1.5-0.3l-1.1-0.1l-1.6-0.3l-2.5,0.4l-0.5-0.3
	h-2.4l-2.5,0.1l-2.1,0.3V2l-1.2,0.1l-3.4,0.7l-1.1,0.4l1.9,0.4l-0.5,0.3l-3.4,0.5l-3.6,0.5l-0.5,0.4l1.5,0.4l3.3,0.4h-1.7l-2.5,0.3
	l0.9,0.8l0.7,0.3h2.1h2.4h1.7l1.9,0.7l-0.3,0.5l0.8,0.4l0.3,1.2l0.3,0.9l0.3,0.4l-1.6,1.1l0.7,0.3l0.9-0.1l0.7,0.4l1.2,0.8l-1.7-0.3
	H129l-0.8,0.7l-0.3,0.8l0.9,0.4l0.9-0.1l0.5-0.3l1.3-0.4l-0.7,0.9l-0.5,0.5l-1.7,0.5l-1.6,1.5l0.5,0.4l-0.8,0.9l0.8,1.2l-0.3,1.2
	l0.1,0.8l1.1,1.6l0.1,1.3l0.8,0.8h2l1.2,1.1l1.5-0.1l0.9-1.3l0.9-1.1l-0.1-0.9l2-1.1l0.8-0.9l0.3-0.9l1.1-0.8l1.6-0.3l1.3-0.3
	l0.7-0.1l2.4-0.9l1.7-1.2l1.1-0.5h1.1l2.9-0.4l2.8-1.1L158.3,14.5z"/>
<path class="st0" d="M315.7,122.9l0.3-2.3l0.4-1.9l-0.7-0.9l-0.9-0.1l-0.4-0.8l-0.3-1.1h-0.4l-0.8-0.5l0.5-1.2l-0.9-0.7l-0.8-1.2
	l-1.1-1.1h-1.3l-1.3-1.6l-0.7-0.7l-1.1-0.9l-1.2-1.5l-2.1-0.3h-0.8l0.1,0.7l1.5,1.6l0.9,0.9l0.8,1.2l1.2,0.9l0.4,1.2l0.4,1.2
	l1.2,1.2l0.9,2.1l0.7,1.1l0.9,1.2l0.5,0.9l1.6,1.2l1.1,1.2H315.7z"/>
<path class="st0" d="M333.1,113l-1.5-1.3l0.3-0.7l-0.9-1.3l0.7-1.3l0.9-0.5l-0.3-0.7l0.9-0.1l0.1-0.5l-1.1-0.4l-0.9-0.4l-0.1-0.7
	l-0.7-0.8h-0.5l-0.5,1.2l-0.9,1.1v0.7v0.9v-0.9v-0.7l-1.1,0.8l-0.5,0.5l-0.7,0.9l-0.9,1.2l-1.6,0.3l-0.5,0.3l-0.3,1.2l-1.1,0.3
	l-0.9-0.5l-0.8,0.9l-0.1,1.3l0.1,1.3l0.7,1.2l0.7,0.4l0.1,2l1.1,0.1l0.8-0.1l0.4,0.7l1.6-0.5l0.7,0.7l0.9,0.1l0.4,0.9l1.5-0.7
	l0.1,0.5l0.5-2.3l0.1-1.5l1.3-0.9v-1.3l0.4-0.9L333.1,113z M327.4,108.5l0.3-0.5L327.4,108.5z"/>
<path class="st0" d="M361.5,118.2l-1.3-0.3l-0.9-0.5l-1.1-0.5H357l-1.6,0.9l-1.1,1.5l-1.3-0.8l-0.3-2.4l-0.3-0.5l-2-0.7l-0.7,0.5
	l-1.9,0.3l0.5,0.8l1.2,0.3l0.5,0.9h1.9l0.1,0.3h-0.9l-1.5,0.5l0.9,0.8v0.7l0.3,0.5l0.5-0.1l0.4-0.8l1.9,1.5h1.1l2.5,1.3l0.5,1.2
	l0.3,1.6l-0.9,0.4l-0.7,1.2h1.7l0.3-0.4l1.3,0.3l1.1,1.2l0.1-1.3l-0.1,1.3h1.3l0.7,0.3l1.1-0.5v-1.1l0.8-0.4l1.1-0.5l1.7,0.7
	l0.5,1.3l0.7,0.8l0.9,0.9l1.2,0.3l1.2,0.1l0.1,0.4l0.9-0.1l0.1-0.4l-1.2-0.7l0.4-0.3l-0.9-0.3v-0.7l-0.7,0.1l-0.7-1.6l-1.2-0.9
	l-0.1-1.1l1.2-0.1l-0.3-0.8l-2.1-0.9l-0.1-0.8l-0.7-0.8l-0.8-0.7l-2.4-0.8L361.5,118.2v1.2V118.2z"/>
<path class="st0" d="M321.7,126.2l1.2,0.3l1.5,0.1l1.1-0.1l1.5,0.7l1.5-0.5l-1.5-0.9l-2-0.3l-0.4-0.9l-2.4-0.7l-0.3,0.5l-2.5-0.1
	l-0.1-0.5l-0.5-0.1l-0.9-0.5l-1.6-0.1l-0.9,1.5l1.1,0.1l0.3,0.7l2.3,0.5l0.5-0.1l0.9,0.1L321.7,126.2z"/>
<path class="st0" d="M338,115.6l0.7,0.3v-0.7l-2.4,0.5l-0.7,0.7l-1.2-1.3l0.3-1.1l-0.3-0.5l-0.3,0.5l-0.7,2.3l-0.3,1.2l-0.5,0.9
	l0.4,1.1h0.5l0.1,1.3l-0.4,1.5l0.5,0.4l0.8-0.3l0.1-2.1l-0.1-1.6l0.9-0.5l-0.1,1.5l0.8,0.8l-0.1,0.7l0.3,0.4l1.3-0.5l-0.7,1.2
	l0.4,0.4l0.8-0.4v-0.9l-1.1-1.7l0.3-0.5l-1.2-1.9l1.2-0.5L338,115.6z"/>
<path class="st0" d="M168.9,37.3l-0.9,1.5l1.5,0.3l2.1-0.8l0.8-1.3l-0.1-0.9l0.7-1.1l-1.2-0.8h-0.8l-0.9,0.7l-1.6,1.1L168.9,37.3z"
	/>
<path class="st0" d="M159.1,22.7l1.3,0.1l0.8-0.1l3.1-0.9l1.3-0.9l-0.9-0.9l0.3-0.8l-1.6-0.1l-1.6,0.7l-1.2-0.4L159,20l-1.5-0.9
	l-1.5,0.1l-0.8,0.9l2,0.3v0.4l-1.9,0.3l2.1,0.5l-1.1,0.7L159.1,22.7z"/>
<path class="st1" d="M196.8,58.3l-1.2,0.1l-1.5-0.1l-0.1,0.8l1.7,0.8l0.7,0.1l0.9,0.5l0.3-0.8l-0.3-0.4l0.4-1.2L196.8,58.3z"/>
<path class="st0" d="M81.8,88.2l-0.1-0.5L81,87.4l-0.9-0.1l-0.3-0.1l-0.5,0.1l-0.1,0.4l0.7,0.5l0.7,0.1l0.4-0.1H81.8z"/>
<path class="st0" d="M344.8,64.7l1.1,0.5l0.9-1.6l2.1-0.1l1.2-0.7l0.3-1.1l-0.7-0.8l-0.1-1.2l-0.8-1.5l0.3-1.6l-0.7-1.2l-1.9-2
	l-1.1,0.3v0.9l1.2,1.6l0.3,1.9l-0.4,0.7l-1.1,1.5l-1.2-0.8v2.7l-1.5-0.3l-2.1,0.4l-0.5,1.1l-0.8,0.8l-0.3,0.9l-1.1,0.4l0.9,1.1
	l0.9,0.4l0.3,1.3l0.8,0.5l0.5-0.5l-0.1-2.5l-1.7-1.1l1.5-0.1l1.2-0.7l1.9-0.3L344.8,64.7z"/>
<path class="st0" d="M348.2,51.3l1.5-0.4l-1.5-1.6l-0.4,0.7l-0.9-0.4l-1.3-0.4l-2.4-1.5l0.5,1.1l0.9,2h-1.2l0.1,1.2l1.1,1.3h1.3
	l-0.4-1.6l2.5,1.1L348.2,51.3z"/>
<path class="st1" d="M283.3,100.8l-0.9-0.8l-0.4,2.4l0.3,2l0.7,1.2l1.2-0.3l0.5-0.5l0.1-1.5l-0.8-1.5L283.3,100.8z"/>
<path class="st0" d="M243.3,134.2l-0.3-0.9l-0.3-0.7l-0.5-0.7l-0.4,0.7l-0.1,0.9l-0.7,1.1l-0.5-0.3l0.1,0.7l-0.4,0.7l-1.2,0.9
	l-0.8,0.9h-0.5l-0.5,0.3l-0.7,0.3h-0.7l-0.3,0.9l-0.4,0.9v1.3l0.1,0.9l0.3,0.7l-0.1,0.9l-0.7,1.1l-0.1,0.5l-0.5,0.3l-0.4,1.1
	l0.1,1.1l0.4,1.2l-0.1,1.3l0.4,0.7l0.9,0.5l0.7,0.4l1.2-0.5l1.1-0.4l0.7-1.7l0.7-2l0.9-2.8l0.8-2.1l0.7-1.6l0.1-1.3l0.4-0.3l0.1-0.7
	l-0.1-1.1l0.3-0.5l0.4,0.9l0.3-0.4l0.1-0.8l-0.3-0.7L243.3,134.2z"/>
<path class="st0" d="M303.3,89.5l0.7,1.2l0.4,1.9l0.7,1.7l0.7,0.8v1.6l0.5,0.9l-0.3,1.1l0.3,1.1l-0.3,1.5l-0.1,0.9l0.3,0.8l0.1-0.9
	l0.7,0.7l0.8,0.8l0.3,0.8l0.5,0.5l0.3-0.3l-0.3,0.3l0.3,0.7l-0.1,1.1l0.5,0.8l0.3,1.2l0.8,0.9l0.1,0.8l1.6,1.2l1.2,1.1l0.9-0.1v-0.5
	l-0.5-1.3l-0.5-0.4l-0.1-0.9l-0.1-0.5l0.1-0.7l-0.1-0.9l-0.7-0.9l-0.8-0.9L311,105l-0.4,0.7l-0.8,0.1l0.8-0.1l0.4-0.7l-0.7-0.8
	l-0.8-0.1l-0.8-0.8l-0.3-1.3l-0.7-1.3H307l-0.1-1.1l0.3-1.3l0.5-2.1v-1.6h1.2l-0.1,1.2h1.1l1.2,0.7l-0.5-1.7l0.7-1.2l-0.7,1.2
	l0.5,1.7l0.8,1.5l0.7,0.8l1.1,0.3l1.1-0.5l1.3-0.1l-0.7-0.9l2-1.2v-1.7l-0.4-0.9l-1.2-0.5l1.2,0.5l0.4,0.9v1.7l-2,1.2l0.7,0.9
	l-1.3,0.1l-1.1,0.5l1.1,0.8l-0.3,0.9l0.5,0.9l1.5-1.3l0.9-1.2l1.5-0.9l0.9-0.9l-0.1-2.5l-0.9-2.7l-0.9-1.2l-1.3-0.9l-1.5-1.9
	l-1.2-1.6l0.1-1.1l0.8-1.3l1.5-1.3l0.5-0.3l1.7,0.4v0.7l0.5,1.1l0.7-0.1l0.1-1.6l1.3-0.3l1.7-0.8l0.5-0.8l0.1,0.1h0.1h0.1h-0.1v0.1
	h0.1v-0.1l0.1,0.1l0.5-0.5l1.5-0.1l1.5-1.2l1.5-1.3l0.8-1.7l0.5-2l0.5-1.6l0.7-0.1v-1.2l-0.1-1.2l-0.9-0.4l-0.5-0.8l0.7-0.4
	l-0.4-1.1l-1.2-1.2l-1.2-1.3l-1.1-1.5l-1.6-0.8l0.3-1.1L326,61l0.3-0.8l1.6-0.4l-0.5-0.8h-0.8l-1.3-0.5l-0.9,1.1l-1.2-0.4l-0.4-0.7
	l-1.1-0.3l-1.1-1.1l0.3-0.7l1.2-0.1l0.3-0.9l0.8-1.1l0.8-0.5l1.1,0.8l-0.4,0.9l0.5,0.5l-0.3,0.7l1.1-0.4l0.5-0.7l1.5-0.4l0.5-0.9
	l0.7-0.5l-0.7,0.5l-0.5,0.9l0.8,0.4l0.8,0.1l0.1,0.3l0.1,0.8l0.3,0.3l-0.3,0.1V58l0.4,0.3l0.4,0.1l0.1,0.3l0.3-0.1v-0.3l0.7,0.3
	l1.5,1.3l-0.8,0.3l1.2,1.6l0.3,1.1l0.5,0.8l1.1-0.1l0.8-0.7l0.9-0.3l0.1-0.8l-0.8-1.7l-0.8-0.9l-1.9-1.7l-0.9-0.7l-0.7-0.3v-0.1
	l-0.3-0.7l0.3-0.4l0.7-0.3l0.3-0.4l0.1-0.3l0.4-0.3l-0.7-1.1l0.1-0.5l0.3-0.4l0.5,0.1l-0.3-0.3l-0.4-0.7l0.4,0.7l0.3,0.3l-0.1-0.4
	l0.9-1.1l1.2,0.7h0.8l1.1-0.8l0.3-0.8l0.5-1.6l0.4-1.7l-0.3-0.9l0.3-2.1l-1.2-2.3l-1.3-1.7l-0.3-1.5l-1.1-1.2l-2.9-1.6l-1.3-0.1
	l-0.1,0.7l-1.3-0.3l-1.3-0.9l-1.9-0.1l1.2-3.2l0.8-2.7l3-0.4l3.4,0.3l0.5-0.7l1.9,0.1l0.9,0.9l1.5-0.1l2-0.4l-1.7-0.8v-2.3l2.1-0.4
	l2.8,1.6l0.8-1.5l-0.8-1.1l1.1-0.1l1.5,1.9l-0.5,1.1l-0.1,1.3l0.1,1.7l-1.3,0.3l0.7,0.7v0.8l1.5,1.9l3.7,3l2.4,2l1.3,0.9l0.4-1.3
	l-1.1-1.5l1.3-0.4l-1.2-1.6l1.2-0.7l-1.1-0.7l-0.8-1.2h0.9l-2.1-2l-1.6-0.3l-0.7-0.5l-0.3-1.3l-0.7-0.9l1.6,0.1l0.3-0.5l1.1,0.5
	l1.5-1.1l2.7,0.9l-0.4-0.7l0.4-0.8l0.4-0.9l0.7-0.1l1.5-0.9l2.3,0.3l-0.3-0.4l-0.9-0.5l-0.9-0.4l-2.1-1.1l-1.9-0.7l1.5,0.1l0.4-0.5
	l-7.6-5l-2.1-0.5l-3.6-0.7l-1.9,0.1l-3.4-0.3l0.4,0.5l2,0.8l-0.5,0.4l-3.3-1.1l-1.6,0.1l-2.1-0.3h-1.6l-0.9,0.3l-1.7-0.4l-1.2-0.9
	l-1.5-0.5l-2.1-0.3l-3.4,0.3l-3.7-0.9h-2.4l-9.3-0.8l-0.5,0.5l2.1,1.1l-1.7-0.1l-0.3,0.4l-2.3-0.4l-1.2,0.3l-2.1-0.5l0.7,1.3l-2-0.5
	l-2.1-0.9l-0.1-0.5l-1.3-0.8l-2.3-0.7h-1.5l-2.1-0.3l1.1,0.9l-4-0.1l-0.9-0.5l-3.1-0.3l-1.2,0.1v0.3L279,9.5l-0.5,0.5l-1.7-0.3
	l-1.3-0.1l0.4-0.4l1.5-0.7l0.5-0.4l-0.5-0.5L276,7.3l-2.7-0.5h-2.5L270.4,7l-0.9-0.5l-2.1-0.1l0.8-0.3l-1.9-0.4l-1.5,0.4l-0.1,0.5
	l0.4,0.5h-1.6l-1.2,0.7l-1.1-0.4l-2.1,0.1l0.1,0.3L257,8l-1.2,0.5h-0.9l-0.3,0.8l1.3,0.7l-1.7,0.1H252l-1.3,0.3l1.1,1.2l1.6,0.9
	l-2.3-0.7l-1.7,0.1l-1.2,0.4l1.1,0.9L248,13l-0.5-1.2l-0.9-0.7h-0.4l0.8,0.8l-1.1,0.8l1.9,0.9l0.1,1.2l0.7,0.7l1.1,0.1l0.1,0.8
	l1.1,0.7l-0.4,0.7l0.1,0.7l-0.8,0.3l-0.1,0.4l-1.2-0.1l0.8-1.9l-0.1-0.8l-1.6-0.8l-0.9-1.7l-0.8-0.8l-0.8-0.4l0.1-0.9l-0.7-0.7
	l-2.7-0.3l-0.5,0.3l0.1,1.1l-0.9,1.1l0.3,0.4l1.1,0.9v0.7l1.2,0.1l0.1,0.3l1.3,0.7l-0.3,0.7l-4.2-1.5l-1.5-0.4l-2.9-0.4l-0.3,0.4
	l1.3,0.7l-0.7,0.8l-1.5-0.8l-1.2,0.5h-1.7l-0.5,0.4l-1.2-0.1l0.5-0.8h-0.8l-2.8,1.1l-1.7,0.7l0.1,0.8l-1.3,0.3l-0.9-0.4l-0.3-0.7
	l1.2-0.1l-0.8-0.7l-2.8-0.4l0.9,0.8l-0.1,0.8l1.1,0.8l-0.3,0.9l-1.1-0.4l-0.9-0.1l-1.9,1.2l0.9,0.9l-0.8,0.3l-2.7-0.8l-0.5,0.5
	l0.8,0.5v0.7l-0.9-0.3l-1.3-0.4l-0.4-1.3l-0.3-0.7l-1.9-0.9l0.7-0.1l4.6,0.9l1.5-0.4l1.1-0.5l-0.4-0.8l-0.9-0.5l-4.1-1.5l-2.7-0.3
	l-1.7-0.8l-0.8,0.4l-1.5,0.5l-0.8,0.1V16v-0.3l0.8-0.1l1.5-0.5l-1.2-0.8l1.1-0.3l-3.2-0.9l-1.6,0.3l-1.7-0.1l-1.2,1.1l-1.6-0.1
	l-2,0.5l-2.4,1.6l-1.5,0.9l-2,2.5l-1.6,1.9l-1.9,1.3L185,24l-0.9,0.8l0.4,3l0.4,1.5l1.5,0.7l1.3-0.3l2-1.6l0.8,0.8l0.9,2l1.1,1.6
	l0.4,1.3l1.2-0.1l0.5-1.1l1.3,0.1l0.4-1.3l0.1-2.3l1.1-0.3l0.8-1.5l-1.1-0.8l-0.8-0.9l0.5-1.9l1.7-1.2l1.5-1.1l-0.3-0.8l0.8-0.9
	l1.6-0.4l-0.4-0.5l-0.4-1.7l0.4,1.7l0.4,0.5l1.5,0.7l0.3,0.5l-0.7,0.3l-2,1.5l-0.8,0.8l-0.4,0.8l0.7,1.2v1.3l1.1,0.4l0.7,0.7
	l1.6-0.3l1.7-0.5l1.9-0.1l0.4-0.4l-0.4,0.4l1.2,0.7l-1.1,0.8l0.3,0.3l-0.5,0.7l0.5-0.7l-0.3-0.3h-1.1l-1.2-0.3l-1.3,0.3l-1.2,0.4
	l0.3,0.8l0.8,0.5l0.4-0.1v0.8v1.1h-0.8l-1.1-1.1l-0.9,0.5l-0.1,0.8l0.1,1.1l0.4,1.2l-1.5,0.4l-0.1,0.7h-1.1l-0.1-0.3l-1.1-0.3
	l-1.3,0.5l-1.6,0.7l-0.7,0.4l0.3,0.7V37v-0.1l-0.3-0.7l-0.5-0.4l-1.3-0.5l-0.5,0.4l-1.1,0.3v-0.5l-1.2-0.3v-0.5l-0.4-0.7l0.7-0.9
	l0.3,0.1l0.3-0.5l-0.7-0.3L190,32l0.3-0.4v-0.7l-0.8,0.4l-0.4,0.4l-0.9,0.1l-0.3,0.4l-0.1,0.4l0.1,1.5l0.5,0.8l0.8,0.1h0.1h-0.1
	l-0.8-0.1l0.1,0.8l0.3,0.5l-0.7,0.7l-0.3-0.3l-0.9,0.1l-0.3,0.3h-0.9l-1.5,0.7l-0.9,2l-0.5,0.4l-0.9,0.3l0.1,0.5h0.5l0.1,0.1
	l-0.1-0.1h-0.5l-0.1-0.5l-0.9,0.3l-0.3,1.2l-2.7,1.1l-1.1-0.7l0.3,1.6l-1.9-0.4l-1.5,0.3l0.1,1.1l1.7,0.5l0.8,0.7l1.2,1.5l-0.3,2.8
	l-0.7,0.8l0.3,0.4l-0.3-0.4H175l-0.9,0.1l-1.2-0.3h-1.6l-1.5-0.3l-1.7,1.1l0.4,0.7l-0.1,1.1l0.4-0.3l-0.4,0.3v0.5l0.3,0.5V55
	l-0.3,0.9l-0.1,0.5l-0.5,0.5l-0.1,0.9l0.3,0.5l0.5,0.1l0.1,0.9l-0.3,1.2l0.7-0.1l0.7,0.3l0.5-0.4l1.1,0.3l0.3,0.8l0.4,0.5l0.5,0.1
	l0.5-0.5l0.8-0.5h1.2h1.6l0.9-1.2l0.9-0.3l0.3-0.9l0.7-0.7l-0.4-0.8l0.4-1.2l0.7-0.8l0.1-0.5l1.5-0.3l1.1-0.9l-0.1-0.8l-1.3,0.1
	l-0.3-0.1l0.3,0.1l1.3-0.1l0.1-0.8l1.7-0.4l2.3,0.4l1.1-0.8l0.5-0.1l0.7-0.7l0.5-0.3l0.9,0.5l0.7,0.1l0.4,1.3l0.8,0.8l1.2,0.9
	l0.9,0.7l0.9,0.1l0.5,0.5l0.8,0.3l0.4,0.7l0.5,0.1l0.4,0.8l0.5,0.8l-0.3,0.3l-0.1,0.8v0.4l0.5-0.1l0.5-1.3l0.5-0.1l0.1-0.8l-0.9-0.5
	l0.4-0.9l1.1,0.3l0.7,0.7l0.1-0.5l-0.1-0.3l-1.1-0.8l-0.9-0.4l-1.1-0.5l0.3-0.3l-0.3-0.3h-0.9l-1.3-1.2l-0.7-1.2l-1.2-0.7l-0.4-0.7
	l0.1-0.4l-0.1-0.7l0.9-0.5l0.9,0.3l-0.3-0.7v-0.1v0.1l0.3,0.7l-0.3-0.5h0.8h-0.8v0.5l0.4,0.4l0.3-0.7l0.8,0.3l0.1,0.4l0.5,0.7
	l-0.3,0.1l1.1,1.1l1.1,0.4l0.7,0.5l1.2,0.5l0.5,0.3l0.4,0.5l0.3,0.1l-0.1-0.4l0.1-0.3l-0.1,0.3l0.1,0.4l0.3,0.3l-0.1,0.4v0.9
	l0.1,0.7l0.7,0.5V56l0.3,0.1l0.3-0.4l-0.3,0.4l0.1,0.4l0.7,0.8l0.5,0.7l0.3,0.9l0.5,1.2l1.1,0.7h0.8l-0.5-1.3l0.8-0.1l-0.4-0.8
	l1.2,0.4l-0.1-0.8l-0.7-0.4l-0.8-0.7l0.4-0.3l-0.7-0.7l-0.4-0.9l0.3-0.3l0.7,0.8h0.7l0.5-0.3l-0.9-0.8l1.5-0.4l0.7,0.1h0.8v0.3
	l0.4,0.7l0.9-0.8l0.4-0.4l1.5-0.1l0.1-0.4l-1.1-0.4l-0.3-0.5l-1.1-0.1l-1.2,0.4l1.2-0.4l1.1,0.1l-0.5-0.8l0.3-1.1l0.5-0.5l-0.7-0.1
	l-0.9-0.5l0.9,0.5l0.7,0.1l0.1-1.7l0.4,0.1l0.5-0.3l-0.1-0.4l0.8-1.1l0.3-0.8l1.1-0.1l0.1,0.5l1.9,0.4l0.4,0.3l-1.1,0.5l-0.1,0.3
	l1.3,0.4l-0.1,0.7l0.7,0.3l1.5-0.8l1.2-0.3l0.1-0.5l-1.2,0.1l-0.7-0.4l-0.3-0.9L220,46l1.1-0.1l0.7-0.4l0.9-0.1l-0.1-0.7l0.5-0.4
	l-0.5,0.4l0.1,0.7l0.9-0.3l0.1,0.3l-1.6,0.7l0.8,0.5l-0.8,1.2l-0.8,0.3l1.2,0.8l1.5,0.5l1.7,1.2l0.5,0.4l0.7,0.1l0.8,0.5l0.5,0.9
	l-0.1,0.7l-1.3,0.8l-1.1-0.1l-1.3,0.3l-1.9-0.5l-2.3-1.1h-2l-1.3,0.4l-1.3,0.9l-2.3-0.1l-0.4,1.1h-1.9l-1.2,1.5l0.8,0.7l-0.4,1.2
	l0.9,0.8l0.8,1.5h1.3l1.2,0.8l0.8-0.1l0.3-0.7h1.3l1.1,0.8l1.9-0.1l0.7-0.8l1.1,0.4l0.8-0.1L222,61l0.5,0.7l-0.3,0.7l0.3,1.2
	l0.5,0.1l-0.5-0.1l-0.5,1.1l-0.3,1.2l-0.1,0.4l-0.1,1.1l-0.3,0.7l0.1,0.1l-0.3,0.5l0.9,2.1l0.1,0.4v-0.1v0.1l0.1,0.3l-0.1,0.5v0.5
	l-0.1,0.8h0.7l0.8,1.1l0.8,1.2l0.5,1.1l0.4,0.4l0.4,0.8V78l0.5,0.8l0.7,0.3l0.7,0.5l0.8,1.6v0.9l0.3,1.1l0.9,1.5l0.5,0.3l0.9,1.1
	l0.4,1.2l0.8,1.2l0.7,0.5l0.1,0.5l0.4,0.4l0.3,0.7l0.5-0.5l-0.5,0.5l0.1,0.7l-0.1,0.3l0.1,0.7l-0.3,0.1l0.4,0.7l0.3,1.1l0.3,0.4v0.8
	l0.4,0.9l0.9,0.1l0.4-0.3h0.7l0.1-0.4l0.4-0.1l0.3-0.4l0.3-0.1l1.1-0.1l0.8-0.3l0.7-0.7l0.4,0.1l0.5-0.1l1.5-0.9l2-0.7l1.2-0.7V91
	l0.3-0.7l0.9-0.4l0.5-0.1l0.8-0.5l0.7,0.1l0.5-0.4v-0.5l0.5-0.4h0.8l0.3-0.3v-0.7l0.8-0.5h0.7l0.1-0.1l-0.3-0.9l0.1-0.8l0.3-0.4
	l0.5,0.1l0.4-1.1l0.5-0.4l0.1-0.4l0.4-0.9v-0.3l-0.5-0.1l-0.4-0.5l-0.7-0.8l-0.8-0.3l-0.9-0.3l-0.8-0.5l-0.7-0.9h-0.7h0.7l-0.3-1.2
	l0.1-0.3v-0.7l-0.1-0.1l-0.3,0.5l-0.7,0.9l-0.8,0.9l-0.8,0.9h-0.8h-1.1l-0.9,0.3l-0.1-0.4l-0.3,0.1l-0.3-0.5l0.1-0.9l-0.1-0.8
	l-0.4-0.4l-0.3,0.1l-0.3,0.8l0.1,1.1l-0.3-0.4l-0.3-0.5l-0.4-0.4l-0.3-0.5L242,76l-0.1-0.7l-0.9-0.7l-0.3-0.5l-0.7-0.3l-0.7-1.3
	l-0.5-1.1l0.1-0.4l-0.3-0.7l0.8,0.1l-0.8-0.8l-0.1-0.8h-0.4v-1.1l-0.1-0.1l0.1,0.1V69h0.4l0.1,0.8l0.8,0.8l0.4-0.5l0.8,0.5l0.7-0.3
	l1.2,2l0.9,1.5l1.3,0.4l1.5,1.2l1.6,0.5l1.2-0.7l0.9-0.3l0.7,0.3l0.8,1.9l1.5,0.1l1.5,0.4l2.4,0.4l1.7-0.3h2l2.3-0.3l1.2,1.1
	l0.5,1.1h0.8l0.8-0.9l-0.8,0.9l1.6,1.2l0.4,0.5l-0.5,0.5l1.9,1.7l0.9,0.1l1.7-0.9l0.4,1.3l0.1,1.9l0.5,1.9l0.8,2.8l1.3,2l0.3,0.9
	l0.4,1.9l0.8,1.5l0.5,0.7l0.5,1.5l0.7,2l1.3,1.3l0.5-0.4l0.4-1.1h1.3l-0.4-0.5l0.5-1.1l0.7-0.1l-0.1-2.5l0.4-1.5l-0.1-1.2l-0.4-1.9
	l0.3-1.2l0.5-0.1l1.1-0.5l0.7-0.4l-0.1-0.7l1.2-0.9l0.8-0.9l1.2-1.7l1.7-0.9l0.5-0.9l-0.3-1.1l1.5-0.3h0.8l0.1-0.5l0.5,0.1l0.4,0.1
	l0.1-0.3l0.5,0.3l0.3-0.8l-0.3-0.7h1.2l0.7,0.8l0.4,0.7l0.1,0.8l0.4,0.8l-0.3-1.2l0.3,1.2l1.1,1.2l0.8,0.3l-0.1,0.5l1.2,1.7l0.4,1.3
	l-0.3,1.9l0.8,0.4l0.8,0.1L302,90L303.3,89.5z M332.6,50.5l0.4,0.9L332.6,50.5z M331.7,51.3v0.8V51.3z M330.3,52.9l0.5,0.7
	L330.3,52.9z M310.7,87.5l0.9,0.1l1.2,1.2l0.3,1.5l1.2,1.3l0.1,1.2l-0.4,0.7l1.2,0.5l-1.2-0.5l0.4-0.7l-0.1-1.3l-1.2-1.3l-0.3-1.5
	l-1.2-1.2H310.7z M309.5,87.9l0.1,0.1h0.8h-0.8L309.5,87.9z M308.1,88.4v0.1V88.4z M199.2,16l-0.8-0.4L199.2,16z M184.6,39.3
	l-1.1,0.3L184.6,39.3z M205.9,30.4l-0.4-0.1L205.9,30.4z M205.7,32.4l0.1,0.1L205.7,32.4z M204.6,32.5h-0.1H204.6z M203.2,34.3
	l-0.7-0.1L203.2,34.3z M201.7,35.3h2H201.7h-0.4H201.7z M200.9,51.8v-0.5V51.8z M206.1,52.8l-0.4-0.3L206.1,52.8z M210.1,53.7
	l-1.1,0.1l-0.7-0.4l0.7,0.4L210.1,53.7z M212.3,48l0.5-0.3L212.3,48z M213.4,46.5h-0.7l-0.1-0.1l0.1,0.1H213.4l0.3-0.1L213.4,46.5z
	 M224.4,44.3l0.1-0.5l-0.4-0.8l0.3-0.8l-0.1-0.4H224h0.3l0.1,0.4l-0.3,0.8l0.4,0.8L224.4,44.3z M228,50.9l-0.9-0.1l-1.1-0.3l1.1,0.3
	L228,50.9z M222.3,68v0.4V68l0.3-0.1l-0.3-0.1l0.1-0.9l-0.1,0.9l0.3,0.1L222.3,68z M222.9,68.4v-0.3V68.4z M223.3,66.6l-0.3-0.1
	l-0.1,0.4l0.1-0.4l0.1-0.3l-0.1-0.7l0.1,0.7l-0.1,0.3L223.3,66.6z M249.2,79.3l0.5-0.3L249.2,79.3z M237.5,58.1l-0.9-0.8l0.3-0.7
	l-0.4-0.4l0.4,0.4l-0.3,0.7L237.5,58.1z M244.1,60.1l-1.9,0.4l-1.7-0.3l-0.9-0.8l-1.2-0.3l-0.5-1.1l-0.1-0.8l0.4-0.4l0.1-0.5v-1.2
	l0.9-0.1l-0.4-0.4h-0.5l-0.8-1.1l-0.8-0.8l-1.7-1.7l-0.3-0.7l-1.3-1.3l0.8-1.5l1.1-0.3l0.3-0.8l1.1-0.3l1.2-0.7l1.1,0.4l1.2-0.1
	l0.4,0.9l0.1,1.3l-1.1-0.3l-0.9,0.3l0.3,1.1l-1.2-0.1l0.1,0.4l0.8,0.4l0.8,1.3l1.5,0.5l0.4,0.5l-0.1,0.7l0.1,0.4l0.5,0.9l-0.1-1.1
	l0.8-0.4l0.5,0.8l1.1,0.8l-0.9,0.4l-1.2-0.4v1.2l0.8,0.1l-0.1,1.1l1.1,0.5l0.1,1.6l0.4,1.1V60.1z M243.6,52.6l-0.9-0.4L243.6,52.6
	l0.9,0.9L243.6,52.6z M245.6,59.1l-0.3,0.4L245.6,59.1z M295.2,78.6l-0.1,0.3l-0.5,0.1l-0.3,0.8l0.3-0.8l0.5-0.1L295.2,78.6z
	 M296.9,81.8l-0.4,0.3l0.1,1.1l-0.1-1.1l-1.1-2.4l1.1,2.4L296.9,81.8z"/>
<path class="st0" d="M384.6,174.4l0.1-0.7l-1.3,0.7l-0.8,0.8l-0.7,0.4l-1.5,1.1l-1.2,0.8l-1.6,0.7l-1.3,0.5l-0.9,0.3l-2.7,1.5
	l-1.5,1.1l-0.3,0.5l1.2,0.1l0.3,0.4h1.1l0.9-0.4l1.5-0.7l1.9-1.3l1.1-0.9l1.5-0.5l0.9-0.1l0.1-0.7l1.1-0.5l1.6-1.1l0.9-0.7l0.5-0.5
	l0.1-0.7l-1.3,0.5L384.6,174.4z"/>
<path class="st0" d="M394,169.5l-1.1,0.5l-0.8-0.1l-0.7-0.4l0.5-1.2l-0.3-0.4l-0.7,1.1l0.1-1.6l0.4-1.3l-0.7-0.4l-0.3-0.8l-0.5,0.1
	v1.1l0.1,1.3l0.1,0.5l-0.1,0.3l-0.1,1.1l-0.5,0.9l-1.1,1.2l-1.2,0.4l-0.4,0.7l0.9,0.5l-0.3,0.8l-1.6,1.2l0.4,0.1l-0.1,0.4l1.3-0.5
	l1.5-0.9l0.9-0.8l0.4-0.3l0.4-0.7l0.7-0.5l0.8,0.1l1.1-0.9l1.1-1.3L394,169.5z"/>
<path class="st0" d="M332.7,91.8l0.3,0.7l0.8,0.8v-0.5l0.4,0.4l-0.3,0.3V94l0.7,0.3l1.2-0.1l0.9,0.8l0.3-0.5l0.5,0.8l1.1,0.8
	l0.1-0.7l-0.5-0.4v-0.8l-1.7-0.8l-0.5,0.1l-0.7-0.1l-0.5-1.2l0.1-1.2l0.7-0.5l0.1-1.2l-0.7-1.1l0.1-0.5l-0.1-0.4l-0.4,0.4l-0.8-0.4
	H333l-0.3,1.3l0.3,2.3l-0.5-0.5L332.7,91.8z"/>
<path class="st0" d="M342.1,105.2l0.3-1.3l-0.1-0.8l-0.1-1.1l-0.1-0.5l-0.1-0.7l-1.2-0.8l0.3,1.2H340l-0.1,0.7l-1.1,0.4l-0.4-0.7
	l-0.7,0.5l-0.8,0.4l-0.5,1.3l0.3,0.4l0.9-0.8h0.7l0.3-0.5l0.9,0.7l-0.4,0.7l0.5,1.1l1.6,0.9l0.3-0.8l-0.5-1.1l0.5-0.7L342.1,105.2z"
	/>
<path class="st0" d="M338,99.3v-1.1l-0.7,0.1v0.9l-0.3,0.4l-0.3,0.4l0.8,0.9l0.4-0.4l0.4-0.9l0.4-0.4v-1.5L338,99.3z"/>
<path class="st0" d="M340,96l-1.2-0.1l0.9,1.2v0.5l-0.7-0.1l0.3,0.9h0.4l0.1,1.1l0.5-0.3l-0.4-0.9v-0.5l0.9,0.4l-0.5-1.6L340,96z"/>
<path class="st0" d="M335.9,38.6l1.9,1.3l1.5,2l0.5,1.1l1.3,1.6l0.8,1.3l1.1,1.2V46l1.5,0.8l-0.7-0.9l-2.1-1.5l-0.9-2.1l2.1,0.5
	l-3.2-2.5l-1.6-1.5l-1.2-1.5l-1.6-1.3l-1.2-0.9l-0.3,0.3l1.1,0.7l-0.5,0.7L335.9,38.6z"/>
<path class="st0" d="M226.2,12.9l1.9,0.3l0.4,0.5l3.2,0.1h0.4l-2.3-1.1l-0.7-0.9l0.8-1.2l0.5-1.1l2-1.2l2.3-0.5l2.7-0.5l0.3-0.4
	l-0.9-0.4l-1.5,0.1L234.1,7l-2.7,0.3L229,8l-1.6,0.7l0.7,0.5l-1.6,0.9l0.9,0.3l-1.2,0.9l0.3,0.7l-0.7,0.3L226.2,12.9z"/>
<path class="st0" d="M220.9,69l-0.9-0.1l-1.1-0.4l-0.3,0.5l-0.4-0.8l-0.9-0.1l-1.1,0.1l-0.5,0.4l-0.9,0.4l-0.7-0.3l-1.3-0.4
	l-1.2-0.4h-1.6l-0.4-0.5l-1.2-0.1l-0.4-0.3h-0.4l-0.4-0.7l-1.7-0.3l-0.8,0.1l-0.8,0.7l-0.4,0.7l0.4,1.1l-0.5,0.7l-0.5,0.4l-1.3-0.7
	l-1.7-0.7l-1.2-0.3l-0.7-1.3l-1.7-0.7l-1.1-0.3l-0.5,0.1l-1.5-0.5v1.2v-1.2l-0.4-0.3l-0.4-0.7h-0.7l-0.3-0.8l0.8-0.8l0.1-1.3
	l-0.4-0.4v-0.7l0.5-0.8l-0.1-0.3l-1.1,0.5v-0.8l-0.8-0.1l-1.3,0.7l-0.1,0.5l0.1-0.5l-0.8,0.1l-0.5-0.4h-1.3l-1.2,0.7l-0.7-0.3
	l-2,0.1l-2,0.3l-1.2,0.4l-0.8,0.7l-1.3,0.3l-1.2,0.8h-0.5l-1.3-0.3l-1.2,0.1l-0.7-0.7h-0.9l-0.4,0.9l-0.8,1.6l-0.9,0.7l-1.2,0.7
	l-0.8,0.9l-0.3,0.8l-0.5,1.2l0.3,1.9l-1.1,1.2l-0.7,0.4l-1.1,1.1l-1.2,0.1l-0.7,0.5l-0.8,1.5l-0.8,0.5l-0.5,0.9v0.8l-0.4,0.9
	l-0.4,0.3l-0.7,0.9l-0.4,1.1l0.1,0.5l-0.4,0.8l-0.5,0.4l-0.1,0.7h1.5h-1.5l-0.1,0.7l0.7,0.7l0.3,0.7l-0.1,0.8l0.1,0.8l0.1,1.5
	l-0.1,1.3l-0.4,0.8l0.1,0.8l0.4-0.4l-0.4,0.4l-0.3,0.8l-0.7,1.1l-0.5,0.3l0.7,0.5l0.5,1.2h1.2h-1.2l-0.1,0.7l0.1,1.2l0.7-0.3h0.4
	l0.4-0.1h0.3h-0.3l-0.4,0.1h-0.4l-0.7,0.3l0.1,0.3l0.4,0.3v0.3l0.3,0.4l0.5,0.1l0.7,0.7l0.7-0.7h0.4l0.1-0.1l-0.1,0.1h-0.4l-0.7,0.7
	l0.4,0.3l0.1,0.3l0.1,0.7l0.3,0.3l0.4,0.3l0.5,0.5l0.5,0.8l0.1,1.1l0.3,0.5l0.7,0.8l0.9,0.5l0.4,0.1l0.3-0.4l0.1-0.4l0.3-0.4
	l-0.3,0.4l-0.1,0.4l-0.3,0.4l0.8,0.9l1.1,0.8l1.2,1.1l1.3,0.7h0.4h0.3l1.3-0.5l0.9-0.4l1.5-0.3h0.8l0.9,0.3h0.7v-0.5l-0.3-0.5
	l0.3,0.5v0.5l1.2,0.4l1.2-0.4l0.8-0.5l2-0.9l1.1-0.3l1.1-0.1h1.2h0.9l0.9,0.9l0.4,1.1l0.7,0.9h1.1l0.5-0.3l0.5,0.1l1.3-0.5l0.3-0.9
	l-0.3,0.9v0.4l0.3,0.3l0.3,0.7l0.7,0.3l0.5,0.9l-0.1,1.2h0.8H192l-0.4,1.7l0.3,0.3l-0.3,1.1l-0.3,1.1l-0.3,0.4v0.5l0.8,1.5l0.8,1.2
	l1.3,1.5l1.1,1.6l0.5-0.7l-0.5,0.7l0.3,1.1l0.4-0.1v-0.7l0.1-0.4l-0.1,0.4v0.7l-0.4,0.1l-0.4,0.4l-0.1,0.3l0.7,0.9l0.3,0.9l0.4,1.5
	l-0.4,0.7l-0.1,0.3l0.3,0.9l0.4,0.9l0.4,0.5l0.1,0.8l-0.1,1.1l-0.4,0.7l-0.8,0.9l-0.3,0.7l-0.4,1.3l-0.1,0.7l-0.4,1.3L194,139
	l0.1,0.9l0.7-0.3l0.8-0.3l-0.8,0.3l-0.7,0.3v1.2l1.1,1.5l0.3,0.9l0.7,1.7l0.7,1.2l0.5,0.7l0.1,0.8v1.7l0.4,2.3l0.3,1.1l0.3,1.5
	l0.4,1.1l0.9,1.1l0.7-0.8l0.5,0.4l-0.5-0.4l-0.7,0.8l0.8,1.9l0.5,1.2l0.8,1.3v1.1l-0.4,0.3l0.3,0.9v0.9l0.1,0.4l0.1-0.3l0.5,0.7h0.4
	l0.5,0.5h0.5l0.8-0.5l1.1-0.3l1.3-0.5l0.5,0.1l0.8-0.1l1.3,0.3l0.7-0.3l0.8,0.3l0.1-0.4l0.7-0.1l1.3-0.5l0.9-0.7l0.9-0.9l1.6-1.5
	l0.8-1.1l0.4-0.8l0.5-0.8l0.3-0.3l0.9-0.8l0.4-0.7l0.3-1.2l0.4-1.1l0.1-0.8l-0.3-0.1l-0.1-0.7l0.7-0.5l1.6-0.8l1.1-0.5l0.5-0.5
	l0.3-0.7l-0.3-0.3l0.3-0.7l0.1-1.5l-0.3,0.1v-0.4l-0.1-0.8l-0.5-1.1l0.1-1.1l0.5-0.3l0.9-1.1l0.5-0.3l1.6-1.6l1.5-0.7l1.2-0.5
	l0.8-0.9l0.5-1.1l0.4-1.1l-0.3-0.7V133l-0.1-1.3l0.1-1.5l-0.1-0.7l-0.4-0.3l-0.5-1.5l-0.4-0.9l0.1-0.7l-0.1-0.4l0.4-0.9v-0.4
	l-0.8-0.5l-0.1-0.8l0.7-1.9l0.5-0.5l0.3-0.9l0.4-0.7l0.3-1.1l0.5-0.1l0.3-0.7l0.9-0.5l-0.8-1.2v-0.5v0.5l0.8,1.2l0.3-0.4l0.3-0.8
	l1.5-1.7l1.2-1.1l1.9-1.5l1.3-1.2l1.5-2l1.1-1.6l1.1-2.1l0.8-1.9l0.5-1.6l0.3-1.6l0.3-0.5v-0.8l0.1-0.8v-0.4h-0.5l-0.7,0.5l-0.7,0.1
	l-0.5,0.3h-0.4h-0.8l-0.4,0.3l-0.7,0.1l-1.1,0.4l-1.5,0.1l-1.2,0.4h-0.7l-0.7-0.7l-0.3-0.7l-0.4-0.3l-0.4,0.8l0.4-0.8l-0.5-0.4
	l0.1-0.4v-0.7l-0.3-0.4l-0.7-0.4l-0.4-0.5l-0.8-0.8l-0.8-0.8l-1.9-1.3l-0.8-0.7l-0.4-1.3l-0.8-1.7l-0.7,0.8l0.7-0.8l-0.7-0.5
	l-0.5-0.4l-0.5-1.7l-0.3-1.5l0.3-0.3l-0.5-1.5l-0.3-0.3l-1.6-1.3l-0.1-0.9l0.3-0.3l-1.2-1.6l-0.4-0.8l-0.5-0.8l-1.1-2.3l-0.9-1.5
	l-0.7-1.6l0.1-0.1l1.1,2.1l0.7,0.7l0.4,0.4l0.3-0.3l0.3-0.8l0.1-1.1l0.3-0.5l-0.1-0.4l-0.9-2.1H220.9z M159,90.3l0.3-0.1L159,90.3z
	 M201.3,156.6l-0.5-0.1L201.3,156.6z M215.4,157l0.3,0.3L215.4,157z M218.3,154.4l-0.7-0.7L218.3,154.4z M219.1,152.2V152V152.2z
	 M233.8,98l-0.3,0.1L233.8,98z M228.8,93l0.4-0.1L228.8,93z"/>
<path class="st0" d="M93.4,87.9v0.1l0.1-0.1l0.1,0.1h0.1l0.1-0.1H94h0.1l0.1,0.1h0.1h0.1h0.1l0.1-0.1h0.3v-0.1l0.1-0.1h0.1v-0.3
	h-0.1l-0.1-0.1h-0.3h-0.1h-0.8l-0.3-0.1l-0.1,0.1h-0.1v0.1h-0.1l0.1,0.1v0.1v0.1V87.9z"/>
<path class="st2" d="M168,42.2c2.3,0,4.1-1.8,4.1-4.1s-1.8-4.1-4.1-4.1s-4.1,1.8-4.1,4.1S165.7,42.2,168,42.2z"/>
<path class="st3" d="M168,40.4c1.3,0,2.4-1.1,2.4-2.4c0-1.3-1.1-2.4-2.4-2.4s-2.4,1.1-2.4,2.4C165.6,39.4,166.7,40.4,168,40.4z"/>
<path class="st2" d="M159.7,55.6c2.3,0,4.1-1.8,4.1-4.1c0-2.3-1.8-4.1-4.1-4.1s-4.1,1.8-4.1,4.1C155.6,53.7,157.4,55.6,159.7,55.6z"
	/>
<path class="st3" d="M159.7,53.8c1.3,0,2.4-1.1,2.4-2.4c0-1.3-1.1-2.4-2.4-2.4s-2.4,1.1-2.4,2.4C157.3,52.8,158.3,53.8,159.7,53.8z"
	/>
<path class="st2" d="M167.6,50.8c2.3,0,4.1-1.8,4.1-4.1c0-2.3-1.8-4.1-4.1-4.1c-2.3,0-4.1,1.8-4.1,4.1
	C163.5,48.9,165.3,50.8,167.6,50.8z"/>
<path class="st3" d="M167.6,49.1c1.3,0,2.4-1.1,2.4-2.4s-1.1-2.4-2.4-2.4c-1.3,0-2.4,1.1-2.4,2.4S166.3,49.1,167.6,49.1z"/>
<path class="st2" d="M158.5,39.3c2.3,0,4.1-1.8,4.1-4.1s-1.8-4.1-4.1-4.1s-4.1,1.8-4.1,4.1S156.2,39.3,158.5,39.3z"/>
<path class="st3" d="M158.5,37.5c1.3,0,2.4-1.1,2.4-2.4s-1.1-2.4-2.4-2.4s-2.4,1.1-2.4,2.4S157.1,37.5,158.5,37.5z"/>
<path class="st2" d="M159.9,47.5c2.3,0,4.1-1.8,4.1-4.1s-1.8-4.1-4.1-4.1s-4.1,1.8-4.1,4.1S157.7,47.5,159.9,47.5z"/>
<path class="st3" d="M159.9,45.8c1.3,0,2.4-1.1,2.4-2.4c0-1.3-1.1-2.4-2.4-2.4s-2.4,1.1-2.4,2.4C157.5,44.7,158.6,45.8,159.9,45.8z"
	/>
<path class="st2" d="M178,38.9c2.3,0,4.1-1.8,4.1-4.1c0-2.3-1.8-4.1-4.1-4.1c-2.3,0-4.1,1.8-4.1,4.1C173.9,37,175.7,38.9,178,38.9z"
	/>
<path class="st3" d="M178,37.1c1.3,0,2.4-1.1,2.4-2.4c0-1.3-1.1-2.4-2.4-2.4c-1.3,0-2.4,1.1-2.4,2.4C175.6,36.1,176.6,37.1,178,37.1
	z"/>
<path class="st2" d="M79.7,39.3c2.3,0,4.1-1.8,4.1-4.1S82,31,79.7,31c-2.3,0-4.1,1.8-4.1,4.1S77.4,39.3,79.7,39.3z"/>
<path class="st3" d="M79.7,37.5c1.3,0,2.4-1.1,2.4-2.4s-1.1-2.4-2.4-2.4c-1.3,0-2.4,1.1-2.4,2.4S78.4,37.5,79.7,37.5z"/>
<path class="st2" d="M93,42.4c2.3,0,4.1-1.8,4.1-4.1s-1.8-4.1-4.1-4.1c-2.3,0-4.1,1.8-4.1,4.1S90.7,42.4,93,42.4z"/>
<path class="st3" d="M93,40.7c1.3,0,2.4-1.1,2.4-2.4s-1.1-2.4-2.4-2.4c-1.3,0-2.4,1.1-2.4,2.4S91.6,40.7,93,40.7z"/>
<path class="st2" d="M82.2,53.8c2.3,0,4.1-1.8,4.1-4.1c0-2.3-1.8-4.1-4.1-4.1s-4.1,1.8-4.1,4.1C78.1,52,79.9,53.8,82.2,53.8z"/>
<path class="st3" d="M82.2,52.1c1.3,0,2.4-1.1,2.4-2.4c0-1.3-1.1-2.4-2.4-2.4s-2.4,1.1-2.4,2.4C79.8,51,80.9,52.1,82.2,52.1z"/>
<path class="st2" d="M77.7,60.6c2.3,0,4.1-1.8,4.1-4.1c0-2.3-1.8-4.1-4.1-4.1s-4.1,1.8-4.1,4.1C73.6,58.8,75.4,60.6,77.7,60.6z"/>
<path class="st3" d="M77.7,58.9c1.3,0,2.4-1.1,2.4-2.4c0-1.3-1.1-2.4-2.4-2.4c-1.3,0-2.4,1.1-2.4,2.4C75.3,57.8,76.4,58.9,77.7,58.9
	z"/>
<path class="st2" d="M64.4,57.6c2.3,0,4.1-1.8,4.1-4.1s-1.8-4.1-4.1-4.1c-2.3,0-4.1,1.8-4.1,4.1S62.2,57.6,64.4,57.6z"/>
<path class="st3" d="M64.4,55.8c1.3,0,2.4-1.1,2.4-2.4c0-1.3-1.1-2.4-2.4-2.4c-1.3,0-2.4,1.1-2.4,2.4C62.1,54.8,63.1,55.8,64.4,55.8
	z"/>
<path class="st2" d="M58.6,65c2.3,0,4.1-1.8,4.1-4.1c0-2.3-1.8-4.1-4.1-4.1c-2.3,0-4.1,1.8-4.1,4.1C54.5,63.1,56.3,65,58.6,65z"/>
<path class="st3" d="M58.6,63.3c1.3,0,2.4-1.1,2.4-2.4c0-1.3-1.1-2.4-2.4-2.4c-1.3,0-2.4,1.1-2.4,2.4C56.2,62.2,57.3,63.3,58.6,63.3
	z"/>
<path class="st2" d="M38.1,50.3c2.3,0,4.1-1.8,4.1-4.1c0-2.3-1.8-4.1-4.1-4.1c-2.3,0-4.1,1.8-4.1,4.1C33.9,48.4,35.8,50.3,38.1,50.3
	z"/>
<path class="st3" d="M38.1,48.5c1.3,0,2.4-1.1,2.4-2.4s-1.1-2.4-2.4-2.4c-1.3,0-2.4,1.1-2.4,2.4S36.7,48.5,38.1,48.5z"/>
<path class="st2" d="M32.2,57.7c2.3,0,4.1-1.8,4.1-4.1s-1.8-4.1-4.1-4.1c-2.3,0-4.1,1.8-4.1,4.1S30,57.7,32.2,57.7z"/>
<path class="st3" d="M32.2,56c1.3,0,2.4-1.1,2.4-2.4s-1.1-2.4-2.4-2.4c-1.3,0-2.4,1.1-2.4,2.4S30.9,56,32.2,56z"/>
<path class="st2" d="M333.9,60.5c2.3,0,4.1-1.8,4.1-4.1s-1.8-4.1-4.1-4.1s-4.1,1.8-4.1,4.1S331.6,60.5,333.9,60.5z"/>
<path class="st3" d="M333.9,58.7c1.3,0,2.4-1.1,2.4-2.4s-1.1-2.4-2.4-2.4c-1.3,0-2.4,1.1-2.4,2.4S332.6,58.7,333.9,58.7z"/>
<path class="st2" d="M313.8,76.6c2.3,0,4.1-1.8,4.1-4.1s-1.8-4.1-4.1-4.1c-2.3,0-4.1,1.8-4.1,4.1S311.5,76.6,313.8,76.6z"/>
<path class="st3" d="M313.8,74.9c1.3,0,2.4-1.1,2.4-2.4c0-1.3-1.1-2.4-2.4-2.4c-1.3,0-2.4,1.1-2.4,2.4
	C311.4,73.9,312.4,74.9,313.8,74.9z"/>
<path class="st2" d="M308.4,64.1c2.3,0,4.1-1.8,4.1-4.1c0-2.3-1.8-4.1-4.1-4.1c-2.3,0-4.1,1.8-4.1,4.1
	C304.3,62.2,306.2,64.1,308.4,64.1z"/>
<path class="st3" d="M308.4,62.3c1.3,0,2.4-1.1,2.4-2.4c0-1.3-1.1-2.4-2.4-2.4c-1.3,0-2.4,1.1-2.4,2.4
	C306.1,61.3,307.1,62.3,308.4,62.3z"/>
<path class="st2" d="M301.3,83.8c2.3,0,4.1-1.8,4.1-4.1c0-2.3-1.8-4.1-4.1-4.1s-4.1,1.8-4.1,4.1C297.2,82,299,83.8,301.3,83.8z"/>
<path class="st3" d="M301.3,82.1c1.3,0,2.4-1.1,2.4-2.4c0-1.3-1.1-2.4-2.4-2.4s-2.4,1.1-2.4,2.4C298.9,81,300,82.1,301.3,82.1z"/>
<path class="st2" d="M297.4,110.5c2.3,0,4.1-1.8,4.1-4.1c0-2.3-1.8-4.1-4.1-4.1c-2.3,0-4.1,1.8-4.1,4.1
	C293.3,108.6,295.2,110.5,297.4,110.5z"/>
<path class="st3" d="M297.4,108.7c1.3,0,2.4-1.1,2.4-2.4s-1.1-2.4-2.4-2.4c-1.3,0-2.4,1.1-2.4,2.4S296.1,108.7,297.4,108.7z"/>
<path class="st2" d="M259.6,98.3c2.3,0,4.1-1.8,4.1-4.1c0-2.3-1.8-4.1-4.1-4.1s-4.1,1.8-4.1,4.1C255.5,96.4,257.4,98.3,259.6,98.3z"
	/>
<path class="st3" d="M259.6,96.5c1.3,0,2.4-1.1,2.4-2.4s-1.1-2.4-2.4-2.4s-2.4,1.1-2.4,2.4S258.3,96.5,259.6,96.5z"/>
<path class="st2" d="M261.2,89c2.3,0,4.1-1.8,4.1-4.1c0-2.3-1.8-4.1-4.1-4.1s-4.1,1.8-4.1,4.1C257.1,87.1,259,89,261.2,89z"/>
<path class="st3" d="M261.2,87.3c1.3,0,2.4-1.1,2.4-2.4c0-1.3-1.1-2.4-2.4-2.4s-2.4,1.1-2.4,2.4C258.9,86.2,259.9,87.3,261.2,87.3z"
	/>
<path class="st2" d="M364.1,164.6c2.3,0,4.1-1.8,4.1-4.1c0-2.3-1.8-4.1-4.1-4.1s-4.1,1.8-4.1,4.1C360,162.7,361.9,164.6,364.1,164.6
	z"/>
<path class="st3" d="M364.1,162.8c1.3,0,2.4-1.1,2.4-2.4c0-1.3-1.1-2.4-2.4-2.4c-1.3,0-2.4,1.1-2.4,2.4
	C361.8,161.8,362.8,162.8,364.1,162.8z"/>
<path class="st2" d="M368.5,155.4c2.3,0,4.1-1.8,4.1-4.1s-1.8-4.1-4.1-4.1s-4.1,1.8-4.1,4.1S366.2,155.4,368.5,155.4z"/>
<path class="st3" d="M368.5,153.7c1.3,0,2.4-1.1,2.4-2.4c0-1.3-1.1-2.4-2.4-2.4c-1.3,0-2.4,1.1-2.4,2.4
	C366.1,152.6,367.2,153.7,368.5,153.7z"/>
<path class="st2" d="M91.1,166c2.3,0,4.1-1.8,4.1-4.1c0-2.3-1.8-4.1-4.1-4.1c-2.3,0-4.1,1.8-4.1,4.1C87,164.2,88.8,166,91.1,166z"/>
<path class="st3" d="M91.1,164.3c1.3,0,2.4-1.1,2.4-2.4s-1.1-2.4-2.4-2.4s-2.4,1.1-2.4,2.4S89.8,164.3,91.1,164.3z"/>
<path class="st0" d="M253.7,82.7c2.3,0,4.1-1.8,4.1-4.1s-1.8-4.1-4.1-4.1c-2.3,0-4.1,1.8-4.1,4.1S251.4,82.7,253.7,82.7z"/>
<path class="st0" d="M253.7,81c1.3,0,2.4-1.1,2.4-2.4c0-1.3-1.1-2.4-2.4-2.4c-1.3,0-2.4,1.1-2.4,2.4C251.3,80,252.4,81,253.7,81z"/>
</svg>
