<svg id="e72df6cf-54e5-439e-8320-7ae923f58305" data-name="Layer 1" xmlns="http://www.w3.org/2000/svg" width="200" height="200" viewBox="0 0 200 200"><defs><style>.\30 da4dc44-dcce-46c4-9e31-50876b1c88a1{fill:#0078d4;}.d13a1dad-bf39-4c00-b764-a679a8fabf43{fill:#50e6ff;}</style></defs><title>04_latency</title><path class="0da4dc44-dcce-46c4-9e31-50876b1c88a1" d="M181.08,46.87H19.63V149.62H181.08V46.87Z"/><path d="M14.66,156.32V45.63a6.1,6.1,0,0,1,6-6h159a6,6,0,0,1,6,6V156.32h-171Zm163.17-10.57V49.42H22.39v96.26H177.83v0.07h0Z"/><path d="M1.74,155.7H198.62a0.94,0.94,0,0,1,.48,1.73L197,158.67a5.45,5.45,0,0,1-3.11.9H6.51a5.61,5.61,0,0,1-3.11-.9l-2.14-1.24A0.94,0.94,0,0,1,1.74,155.7Z"/><path class="d13a1dad-bf39-4c00-b764-a679a8fabf43" d="M98.58,132.26A29.66,29.66,0,1,0,68.91,102.6,29.72,29.72,0,0,0,98.58,132.26Z"/><path d="M98.93,71a31.44,31.44,0,1,0,31.62,31.44A31.38,31.38,0,0,0,98.93,71Zm-28.06,30.2a27.25,27.25,0,1,1-.09,2.75"/><path d="M107.9,58.28H90.67V68H107.9V58.28Z"/><path d="M130.73,74.53L125,69.65l-4.88,5.77,5.77,4.88Z"/><path d="M98.93,77.29v25.13l21.58,12.88s0.44-.8.62-1.15a24.17,24.17,0,0,0,2.93-11.72A25.13,25.13,0,0,0,99.38,77.29S98.75,77.11,98.93,77.29Z"/></svg>