<?xml version="1.0" encoding="utf-8"?>
<!-- Generator: Adobe Illustrator 22.1.0, SVG Export Plug-In . SVG Version: 6.00 Build 0)  -->
<svg version="1.1" id="Layer_1" xmlns="http://www.w3.org/2000/svg" xmlns:xlink="http://www.w3.org/1999/xlink" x="0px" y="0px"
	 viewBox="0 0 288.2 174" style="enable-background:new 0 0 288.2 174;" xml:space="preserve">
<style type="text/css">
	.st0{fill:#0078D4;}
	.st1{fill:#FFFFFF;}
	.st2{fill:#50E6FF;}
</style>
<path class="st0" d="M261,10.5H27.2v148.8H261V10.5z"/>
<path d="M236.9,41.9h-48.1v5.3h48.1V41.9z"/>
<path d="M236.9,77.5h-48.1v5.3h48.1V77.5z"/>
<path d="M236.9,115.3h-48.1v5.3h48.1V115.3z"/>
<path class="st1" d="M153,59.2l-10.5-10.3l3.3-3.1l7.3,7.1L170.8,35l3.3,3.1L153,59.2z"/>
<path class="st1" d="M153,93.5l-10.5-10.3l3.3-3.3l7.3,7.1l17.8-17.8l3.3,3.3L153,93.5z"/>
<path class="st1" d="M153,127.6l-10.5-10.3l3.3-3.1l7.3,7.1l17.8-17.8l3.3,3.1L153,127.6z"/>
<path d="M20,169V8.7C20,4,24,0,28.7,0H259c4.9,0,8.7,4,8.7,8.7V169H20z M256.3,153.7V14.2H31.2v139.4h225.1V153.7z"/>
<path d="M1.3,168.1h285.1c1.3,0,1.8,1.8,0.7,2.5l-3.1,1.8c-1.3,0.9-2.9,1.3-4.5,1.3H8.2c-1.6,0-3.1-0.4-4.5-1.3l-3.1-1.8
	C-0.5,169.9,0,168.1,1.3,168.1z"/>
<path class="st2" d="M85.7,122.5c18.4,0,33.4-15,33.4-33.4s-15-33.4-33.4-33.4s-33.4,15-33.4,33.4S67.2,122.5,85.7,122.5z"/>
<path d="M86.1,53.5c-19.6,0-35.4,15.8-35.4,35.4s15.8,35.4,35.4,35.4s35.6-15.8,35.6-35.4S105.7,53.5,86.1,53.5z M54.5,87.5
	C55.2,70.6,69.2,57,86.2,57c17.4,0.2,31.8,14.3,31.8,31.9s-14.2,31.8-31.8,31.8c-17.1,0-30.9-13.2-31.8-30.1"/>
<path d="M96.2,39.2H76.8v10.9h19.4V39.2z"/>
<path d="M121.9,57.5l-6.5-5.5l-5.5,6.5l6.5,5.5L121.9,57.5z"/>
<path d="M86.1,60.6v28.3l24.3,14.5c0,0,0.5-0.9,0.7-1.3c2.2-4,3.3-8.5,3.3-13.2c0-15.4-12.3-28-27.8-28.3
	C86.6,60.6,85.9,60.4,86.1,60.6z"/>
</svg>
