<?xml version="1.0" encoding="utf-8"?>
<!-- Generator: Adobe Illustrator 22.1.0, SVG Export Plug-In . SVG Version: 6.00 Build 0)  -->
<svg version="1.1" id="Layer_1" xmlns="http://www.w3.org/2000/svg" xmlns:xlink="http://www.w3.org/1999/xlink" x="0px" y="0px"
	 viewBox="0 0 323.7 174" style="enable-background:new 0 0 323.7 174;" xml:space="preserve">
<style type="text/css">
	.st0{fill:#0078D4;}
	.st1{fill:#50E6FF;}
</style>
<path class="st0" d="M-0.1,99.1h68.9V87.8H-0.1V99.1z"/>
<path class="st0" d="M63.4,81.9l18.2,11.5l-18.2,11.7V81.9z"/>
<path class="st0" d="M1.1,162.4h61.4v-11.3H1.1V162.4z"/>
<path class="st0" d="M62.4,145.7l18,11.7l-18,11.5V145.7z"/>
<path class="st0" d="M1.1,32.8h61.4V21.4H1.1V32.8z"/>
<path class="st0" d="M62.4,16l18,11.7l-18,11.5V16z"/>
<path class="st0" d="M290.8,77.8c8.1,33.6-12.6,67.2-46,75.5c-33.6,8.1-67.2-12.6-75.5-46c-8.1-33.6,12.6-67.2,46-75.5
	c0,0,0,0,0.2,0c33.4-8.1,67,12.4,75.3,45.8V77.8z"/>
<path class="st1" d="M221.4,117.5c0-9.1-7.5-16.6-16.6-16.6h-2.4c2.2-8.9-3.2-17.8-12.2-19.8c-1.2-0.4-2.6-0.4-4.1-0.4h-17.2
	c-3.6,19.2,1.8,39.1,15,53.5h20.7C213.9,134.1,221.2,126.8,221.4,117.5z"/>
<path class="st1" d="M241.8,48.8c0,1,0.2,2,0.4,2.8h-7.1c-9.5,0-17.2,7.7-17.2,17.2s7.7,17.2,17.2,17.2h57.1
	c-1.8-20.7-14-38.9-32.4-48.6h-6.7C246.9,37.7,241.8,42.8,241.8,48.8z"/>
<path class="st1" d="M292.3,99.1h-34c-7.7,0-14.2,6.3-14.2,14c0,2.4,0.6,4.7,1.6,6.7c-7.5,2.2-11.5,10.1-9.1,17.6
	c1.8,5.9,7.3,9.9,13.4,9.9h9.5C277.7,137.6,289.8,119.5,292.3,99.1z"/>
<path class="st1" d="M160.2,50.9c-1,0-1.8-0.8-1.8-1.8c0-12.2-9.7-21.9-21.9-21.9c-1,0-1.8-0.8-1.8-1.8c0-1,0.8-1.8,1.8-1.8
	c12,0,21.9-9.7,21.9-21.7c0-1,1-1.8,2-1.8c0.8-0.2,1.6,0.6,1.6,1.6c0,12,9.7,21.9,21.9,21.9c1,0,1.8,0.8,1.8,1.8
	c0,1-0.8,1.8-1.8,1.8c-12,0-21.9,9.7-21.9,21.9C162,50.1,161.2,50.9,160.2,50.9z"/>
<path class="st0" d="M294.9,173.8c-0.6,0-1.2-0.6-1.2-1.2c0-7.3-5.9-13-13.2-13c-0.6,0-1.2-0.4-1.2-1.2c0-0.8,0.4-1.2,1.2-1.2
	c7.3,0,13-5.9,13.2-13c0-0.6,0.6-1.2,1.2-1.2s1.2,0.6,1.2,1.2c0,7.3,5.9,13,13.2,13c0.6,0,1.2,0.4,1.2,1.2c0,0.6-0.4,1.2-1.2,1.2
	c-7.3,0-13,5.9-13.2,13C296.1,173.2,295.5,173.8,294.9,173.8z"/>
<path d="M321.2,36.3c-5.9-9.7-20.9-12-43.3-6.5c-6.9,1.8-13.8,4.1-20.5,6.5c4.3,2,8.3,4.7,12.2,7.7c3.8-1.2,7.5-2.4,11.1-3.2
	c5.9-1.6,12.2-2.4,18.2-2.6c7.3,0,11.3,1.8,12.8,4.1c2.2,3.6,0.2,13.2-12.8,28.2c-2.2,2.6-4.9,5.5-7.7,8.1
	c-14.2,13.8-30,25.9-47,36.1c-16.8,10.5-34.8,19-53.7,25.5c-22.7,7.3-38.1,7.3-41.5,1.6c-3.4-5.7,3.4-19.4,20.5-36.3
	c-1-4.9-1.4-9.7-1.4-14.6c-27.3,24.5-36.1,45.6-29.2,56.9c3.6,5.9,11.5,9.3,23.3,9.3c13.8-0.6,27.3-3.6,40.1-8.9
	c16.6-6.5,32.4-14.4,47.4-23.9c15.2-9.1,29.6-19.8,42.7-31.6c5.3-4.7,10.1-9.5,14.8-14.8C322.2,60.4,327.1,46,321.2,36.3z"/>
</svg>
