<?xml version="1.0" encoding="utf-8"?>
<!-- Generator: Adobe Illustrator 21.1.0, SVG Export Plug-In . SVG Version: 6.00 Build 0)  -->
<svg version="1.1" id="Layer_1" xmlns="http://www.w3.org/2000/svg" xmlns:xlink="http://www.w3.org/1999/xlink" x="0px" y="0px"
	 viewBox="0 0 512 512" style="enable-background:new 0 0 512 512;" xml:space="preserve">
<style type="text/css">
	.st0{fill:#0078D3;}
	.st1{fill:#51E5FF;}
	.st2{fill:#51E5FF;enable-background:new    ;}
</style>
<title>CosmosDB_rgb_UI_lighttheme</title>
<path class="st0" d="M409.1,233.9c20.1,83.1-31,166.7-114,186.8s-166.7-31-186.8-114s31-166.7,114-186.8c0.1,0,0.2,0,0.3-0.1
	c82.7-20.2,166.1,30.4,186.3,113.1C408.9,233.2,409,233.6,409.1,233.9z"/>
<path class="st1" d="M85.3,167.2c-2.6,0-4.7-2.1-4.8-4.7c0,0,0,0,0,0c-0.1-29.8-24.3-54-54.1-54c-2.6,0-4.7-2.1-4.7-4.7
	c0-2.6,2.1-4.7,4.7-4.7c29.8,0,54-24.1,54.1-53.9c0.1-2.6,2.3-4.7,5-4.5c2.5,0.1,4.4,2.1,4.5,4.5c0.1,29.8,24.3,54,54.1,54
	c2.6,0,4.7,2.1,4.7,4.7s-2.1,4.7-4.7,4.7c-29.8,0-54.1,24.1-54.1,53.9C90.1,165.1,87.9,167.2,85.3,167.2z"/>
<path class="st0" d="M419.2,471.4c-1.6,0-2.8-1.3-2.8-2.8c-0.1-17.8-14.6-32.3-32.4-32.2c-1.6,0-2.8-1.3-2.8-2.8
	c0-1.6,1.3-2.8,2.8-2.8c0,0,0,0,0,0c17.8,0,32.3-14.4,32.4-32.2c0-1.6,1.3-2.8,2.8-2.8c1.6,0,2.8,1.3,2.8,2.8
	c0.1,17.8,14.5,32.3,32.4,32.2c1.6,0,2.8,1.3,2.8,2.8s-1.3,2.8-2.8,2.8c0,0,0,0,0,0c-17.8,0-32.3,14.4-32.4,32.2
	C422.1,470.1,420.8,471.4,419.2,471.4C419.3,471.4,419.3,471.4,419.2,471.4z"/>
<path class="st2" d="M194.8,291.2C194.8,291.2,194.8,291.2,194.8,291.2h-6.2c5.3-22-8.2-44-30.2-49.3c-3.2-0.8-6.6-1.2-9.9-1.1
	h-41.7c-4.1,21.2-3.9,43.6,1.5,66c6.2,25.6,18.4,48.2,34.8,66.5h51.7c22.7,0.1,41.2-18.3,41.2-41c0,0,0,0,0,0
	C235.9,309.5,217.5,291.1,194.8,291.2z"/>
<path class="st2" d="M330.3,286.4c-19.2,0-34.9,15.5-35,34.7c0,5.8,1.4,11.5,4.2,16.5c-18.3,5.7-28.5,25.2-22.8,43.5
	c4.6,14.6,18.1,24.5,33.3,24.4h23.5c2.3-1.2,4.6-2.5,6.9-3.9c40.5-25.2,67.2-68,72.2-115.3H330.3z"/>
<path class="st2" d="M412.7,254.6c-0.7-6.9-1.9-13.8-3.6-20.8c-0.1-0.3-0.2-0.7-0.2-1c-10.6-43.5-38.7-78.1-75-98.2
	c-0.2-0.1-0.3-0.2-0.5-0.3h-16.9c-15.3,0-27.7,12.4-27.7,27.6c0,2.4,0.3,4.8,0.9,7.1H272c-23.6,0-42.7,19.1-42.7,42.7
	c0,23.6,19.1,42.7,42.7,42.7H412.7z"/>
<path d="M484.1,131c-14.8-24.2-51.9-29.8-107.3-16.2c-17.3,4.4-34.3,9.8-50.9,16.2c10.7,5.2,20.7,11.6,30,19.2
	c9.4-3.1,18.7-5.9,27.5-8c14.7-3.9,29.9-6.1,45.1-6.4c18.1,0,28.2,4.5,31.5,9.9c5.5,9,0.4,32.6-31.8,69.8
	c-5.7,6.6-12.2,13.3-19,20.1c-35.3,34.1-74.4,64.1-116.6,89.4c-41.8,26.1-86.4,47.4-133,63.3c-56.1,18.3-94.4,17.9-102.9,3.9
	s8.6-48.3,50.4-89.9c-2.6-11.8-3.7-23.9-3.4-36c-66.6,60.2-88.2,112.4-71,140.6c9,14.7,28.7,23,57.5,23c34.2-1.4,67.9-8.9,99.5-22
	c40.9-16,80.3-35.7,117.5-58.9c37.6-22.8,73-49,105.7-78.3c12.9-11.5,25-23.8,36.4-36.8C487,190.7,498.9,155.2,484.1,131z"/>
</svg>
