<svg id="62101320-2c91-4572-833a-e17794fd8ed7" data-name="Layer 1" xmlns="http://www.w3.org/2000/svg" width="200" height="200" viewBox="0 0 200 200"><defs><style>.d5778944-6961-48ea-befb-5c810008d116{fill:none;stroke:#000;stroke-width:2.91px;}.\32 0d0f116-b65c-458d-9ba7-4cd91be44f19,.d5778944-6961-48ea-befb-5c810008d116{stroke-miterlimit:10;}.\32 0d0f116-b65c-458d-9ba7-4cd91be44f19,.\37 a717398-7c8f-4a8e-af2b-21a9d26482ed{fill:#fff;}.\35 f588101-f1f0-4c55-8fec-24c18c0a7e5d{fill:#0078d7;}.\32 0d0f116-b65c-458d-9ba7-4cd91be44f19{stroke:#0078d7;stroke-width:0.97px;}</style></defs><title>03_scalability</title><path class="d5778944-6961-48ea-befb-5c810008d116" d="M99.19,196.35A91.49,91.49,0,1,0,7.7,104.86,91.53,91.53,0,0,0,99.19,196.35Z"/><path class="7a717398-7c8f-4a8e-af2b-21a9d26482ed" d="M179.34,158.07a11.54,11.54,0,0,1-9.79-5.43,11.61,11.61,0,0,1,3.68-16,11.77,11.77,0,0,1,6.2-1.74,11.54,11.54,0,0,1,9.79,5.43,11.61,11.61,0,0,1-3.68,16A11.77,11.77,0,0,1,179.34,158.07Z"/><path class="5f588101-f1f0-4c55-8fec-24c18c0a7e5d" d="M179.34,137.33a9.31,9.31,0,0,1,7.85,4.36,9,9,0,0,1-2.91,12.6,8.93,8.93,0,0,1-4.94,1.45,9.31,9.31,0,0,1-7.85-4.36,9,9,0,0,1,2.91-12.6A8.93,8.93,0,0,1,179.34,137.33Zm0-4.85a13.94,13.94,0,0,0-7.56,2.23,14.09,14.09,0,0,0,7.46,26,13.94,13.94,0,0,0,7.56-2.23,14.08,14.08,0,0,0,4.36-19.38A14.31,14.31,0,0,0,179.34,132.48Z"/><path class="7a717398-7c8f-4a8e-af2b-21a9d26482ed" d="M96.67,27.14a11.54,11.54,0,0,1-9.79-5.43,11.18,11.18,0,0,1-1.45-8.82,11.16,11.16,0,0,1,5.14-7.17A11.77,11.77,0,0,1,96.77,4a11.54,11.54,0,0,1,9.79,5.43A11.18,11.18,0,0,1,108,18.22a11.16,11.16,0,0,1-5.14,7.17A12.73,12.73,0,0,1,96.67,27.14Z"/><path class="5f588101-f1f0-4c55-8fec-24c18c0a7e5d" d="M96.67,6.3a9.31,9.31,0,0,1,7.85,4.36,9,9,0,0,1,1.16,6.88,9.42,9.42,0,0,1-4,5.72,8.93,8.93,0,0,1-4.94,1.45,9.31,9.31,0,0,1-7.85-4.36,9,9,0,0,1,2.91-12.6A8.4,8.4,0,0,1,96.67,6.3Zm0-4.75a12.88,12.88,0,0,0-7.37,2.23,14.09,14.09,0,0,0,7.46,26,13.94,13.94,0,0,0,7.56-2.23,14.08,14.08,0,0,0,4.36-19.38A14.29,14.29,0,0,0,96.67,1.55Z"/><path class="7a717398-7c8f-4a8e-af2b-21a9d26482ed" d="M23.6,170.09a11.54,11.54,0,0,1-9.79-5.43,11.61,11.61,0,0,1,3.68-16,11.77,11.77,0,0,1,6.2-1.74,11.54,11.54,0,0,1,9.79,5.43,11.18,11.18,0,0,1,1.45,8.82,11.51,11.51,0,0,1-5.14,7.17A12.73,12.73,0,0,1,23.6,170.09Z"/><path class="5f588101-f1f0-4c55-8fec-24c18c0a7e5d" d="M23.6,149.25a9.31,9.31,0,0,1,7.85,4.36,9,9,0,0,1-2.91,12.6,8.93,8.93,0,0,1-4.94,1.45,9.31,9.31,0,0,1-7.85-4.36,9.84,9.84,0,0,1-1.16-6.88,8.71,8.71,0,0,1,4-5.72A11.63,11.63,0,0,1,23.6,149.25Zm0-4.75A13.94,13.94,0,0,0,16,146.73a14.09,14.09,0,0,0,7.46,26,13.94,13.94,0,0,0,7.56-2.23A14.09,14.09,0,0,0,23.6,144.5Z"/><path class="5f588101-f1f0-4c55-8fec-24c18c0a7e5d" d="M98.71,158.84a55,55,0,1,0-55-55A55.07,55.07,0,0,0,98.71,158.84Z"/><path class="20d0f116-b65c-458d-9ba7-4cd91be44f19" d="M73.12,67.55A6.57,6.57,0,0,0,72,69.2c-0.78,1.45-1.65,1.45-1.94,2.52a9.08,9.08,0,0,1-1.16,2.91,24.6,24.6,0,0,1-2.71,2,8.12,8.12,0,0,0-3,4.46c-0.48,1.94-1.26,3.39-.78,5.72s0.48,4.94.78,6.11,0,2,.78,2.52,1.45,1,1.26.19,0-2-.29-2.91a15.76,15.76,0,0,1-.68-2.52,5.08,5.08,0,0,1,0-2.42c0.19-.68.48-1.16,0.78-0.78s0,2.23.29,2.91a12.57,12.57,0,0,0,1.65,3.2c0.68,0.68,1.16,2.42,1.65,2.91a1.91,1.91,0,0,1,.48,1.74,1.65,1.65,0,0,0,.68,1.74,28.64,28.64,0,0,0,5.43,3.2,11.38,11.38,0,0,0,3.39.78,4.12,4.12,0,0,1,2,.68c0.68,0.29,1.45,1.45,1.94,1.74a2.5,2.5,0,0,0,1.65.29,6.16,6.16,0,0,1,2.42.29c0.68,0.29,2,2.52,2.71,3A4,4,0,0,0,92,111c1.26,0,2-.78,3,0s1,1.74,1.26,2.71,0.29,1.45-1,2.42c-1.26,1.16-2.23,1.65-2.42,2.42a13.92,13.92,0,0,0-.48,3.2c0,1-.19,2,0.68,2.71a9.71,9.71,0,0,1,2.52,3.2c0.48,1.16.78,2.42,1.74,3.2s2.71,1.74,3.88,2.52,2.42,2,2.42,3c0,1.16.19,4.94-.19,5.72a15.58,15.58,0,0,0-1.16,3.2c-0.19,1,.19,2.42,0,3.2-0.19,1-.78,1.74-1,2.71a4.33,4.33,0,0,0,.29,3.39c0.78,1.65,1.45,2.71,2.42,3s1.45,0.48,1.74-1.45,0.29-2.71,1.16-3.2c0.78-.68,1.94-2,3.2-3.2a8.38,8.38,0,0,1,4.17-2.23c1.45-.29,3.68-1.45,4.46-3a10,10,0,0,1,3.88-4.46c1.74-.78,4.94-1.74,5.72-2.52a9.45,9.45,0,0,0,2.52-4.36,6,6,0,0,1,2.71-4c1.16-.78,2.71-1.45,2.91-2s-0.68-4-2-4.36-2,0-2.52-.68a10.16,10.16,0,0,0-3-2.42c-1.45-.29-2.71-0.19-3.39-1.16a4,4,0,0,1-.78-2.71c0-.68-1.26-1.74-2-2a16.1,16.1,0,0,0-2.71-.48,4.13,4.13,0,0,0-2.42-1.45,8.45,8.45,0,0,1-2.42-.78c-0.29-.19-2.23-1.65-3.2-1.65s-2.23.48-3.68,0.19-3.2-1.94-4.46-2-3.2.68-4.17,1.26a10.14,10.14,0,0,0-2,1.74c-0.29.48-1.26-.19-1.65-0.68a2.5,2.5,0,0,0-2-.68,5.12,5.12,0,0,1-2.71.19A1.88,1.88,0,0,1,90,107a9.25,9.25,0,0,0,1-2.71,1.59,1.59,0,0,0-2.23-1.65c-1.74.68-3.2,0.68-2.71-1s1.74-2.23,1.94-2.91A1,1,0,0,0,86.5,97.5a6.55,6.55,0,0,0-2.91,2c-0.68.87-1,1.74-1.74,1.74A4.38,4.38,0,0,1,78,98.56c-1-2.23.78-4.17,1.45-5.23s1.45-3,3.39-3.2,2.91,0.48,5.23.48c2.52,0,4.17-.68,5.23-0.29s1.16,0.78,1.26,2a3.61,3.61,0,0,0,1.26,2.42c0.58,0.39.48-.29,0.48-1.94s-0.29-3,.19-3.88,2.52-1.45,3.88-1.65a2.9,2.9,0,0,0,2.71-2.71c0.29-1.74.48-2.52,0.78-1.94a1.22,1.22,0,0,0,.68.78,9.4,9.4,0,0,0,2-1.94c1-1.16.78-1,1.65-1.16s1.45,0.19,1.94-.68,0.48-1.45,1.65-1.74,1.94,0,3.2-1,1.26-1.26,1.26-1.94-0.78-1.74.29-1.94,3.2,0.19,4.17.29,1.45-.29,1-1.26c-0.68-1-1.26-2.23-1.94-3.2s-1.16-1.65-1.74-1.16a11.24,11.24,0,0,1-1.45.29,4.83,4.83,0,0,1-1.74-.29c-0.48-.29.19-1.65-1.65-2a2.18,2.18,0,0,0-2.71,1.74,3.37,3.37,0,0,1-.78,2,2.67,2.67,0,0,1-1.74,1c-0.29,0-.68,1-1.45,1.45-0.78.68-1.16,0.68-1.65,0-0.68-.78-1-1.65-1.45-1.74-0.68-.19-1.16-1.16-1.74-1.26a9,9,0,0,1-2-.48c-0.48-.29-1.16-1.65.68-2.42s1.94-1.16,3.68-1.26,3.49-1,3.2-1.74c-0.29-1,0-2.91-2.91-2-2.91.68-1.65,0.68-2.91,1.16s-2.52.19-4,.19a23.16,23.16,0,0,0-3.2.29s-4.36-1.26-5.43-1.45a20.31,20.31,0,0,0-4.85.19,7.58,7.58,0,0,1-3.2-.29,6.67,6.67,0,0,0-4.17-.78c-1.16,0-.68.68-1.74,0.48a11.14,11.14,0,0,0-3.68.19c-0.68.29-1.16,0.78-2.52,1.45s-2.42.78-3.68,1.45a16.28,16.28,0,0,0-2.71,2,12.47,12.47,0,0,1-2.23,1.45c-0.78.29-3.2,1.26-1.65,1s1.94-.48,3.49-0.68a6.82,6.82,0,0,0,4.17-2c1-1.16,3.68-.29,5.23-0.19C72.83,66,73.9,66.58,73.12,67.55Z"/><path class="20d0f116-b65c-458d-9ba7-4cd91be44f19" d="M115.18,57.66c-0.78.29-1.74,1.16-.19,1.74a4.35,4.35,0,0,0,2.71.68c1.26,0,1.65.19,2.42,1.45,0.68,1.45,1.16,3,2.42,4a7.14,7.14,0,0,0,2.71,1.74c0.68,0.19.68,0,.68-1.94,0.19-2,.29-3.2-0.68-3.88s-2.23-2-2.91-2.42a5.92,5.92,0,0,1-1.94-1.45,2.19,2.19,0,0,0-2.71-.68C116.44,57.47,116.15,57.18,115.18,57.66Z"/><path class="20d0f116-b65c-458d-9ba7-4cd91be44f19" d="M105.88,57.37a2.71,2.71,0,0,0,2.52,1.26c1.74,0,2.52.19,3.49-.29a26.23,26.23,0,0,0,2.42-1.65c0.78-.29,1-1.26-1.74-1.45a15.1,15.1,0,0,0-5.43.48C106.07,56.21,105.3,56.5,105.88,57.37Z"/><path class="20d0f116-b65c-458d-9ba7-4cd91be44f19" d="M107,61.06c0.19,0.68,1.26,1.26,2.91,1s2.91,0.29,2.91,1-0.68.68-.68,1.16c0,0.68.68,1.16,2,1.74s2.23,0.48,2.71-.48c0.68-1-.19-1.74-0.29-2-0.29-.29.29-0.68-0.19-1.16A8.85,8.85,0,0,0,112.28,60c-1.74-.29-3.39-0.68-4.46,0C106.85,60.38,107,60.38,107,61.06Z"/><path class="20d0f116-b65c-458d-9ba7-4cd91be44f19" d="M96.67,58.15c-0.48.29-.19,1.26,1.74,1s2.42,0,2.91.29a1.93,1.93,0,0,0,2,.19c0.58-.48.29-1.65-1.74-2C99.48,57,97.93,57.18,96.67,58.15Z"/><path class="20d0f116-b65c-458d-9ba7-4cd91be44f19" d="M104.43,58c-0.19.68,0,1.94,1,1.94s2-.29,1.45-0.68S104.81,57.18,104.43,58Z"/><path class="20d0f116-b65c-458d-9ba7-4cd91be44f19" d="M101.13,60.67c0.19-.48-0.19-1.26-2.23-1.16A8.18,8.18,0,0,1,95,59s-2.52-1.07-3.2-.1-0.29,2.52,1.65,2.91a18.38,18.38,0,0,0,5.23-.19C100.35,61.54,101.13,61.35,101.13,60.67Z"/><path class="20d0f116-b65c-458d-9ba7-4cd91be44f19" d="M93.09,97.5a20.11,20.11,0,0,1,1.94.78,1,1,0,0,1,1.26-.19c0.68,0.48.29,1.74,1.26,2a6.68,6.68,0,0,0,3.39,0c0.68-.19.48-1.65-2.23-2.42s-2.91-1.16-3.88-1.26a5.24,5.24,0,0,0-3.39.29c-1.16.48-2,1.26-1,1.26C91.83,98,92.12,97.5,93.09,97.5Z"/><path class="20d0f116-b65c-458d-9ba7-4cd91be44f19" d="M102.39,101.18c0-1,.19-1.45,1.94-1.65a6.09,6.09,0,0,1,3.88,1.45c0.29,0.48-.29,1-1.45,1s-1.45-.48-2,0C103.94,102.44,102.39,102.73,102.39,101.18Z"/></svg>