<?xml version="1.0" encoding="utf-8"?>
<!-- Generator: Adobe Illustrator 22.1.0, SVG Export Plug-In . SVG Version: 6.00 Build 0)  -->
<svg version="1.1" id="Layer_1" xmlns="http://www.w3.org/2000/svg" xmlns:xlink="http://www.w3.org/1999/xlink" x="0px" y="0px"
	 viewBox="0 0 344.3 207" style="enable-background:new 0 0 344.3 207;" xml:space="preserve">
<style type="text/css">
	.st0{fill:none;stroke:#0078D4;stroke-width:2;}
	.st1{fill:#FFFFFF;}
	.st2{fill:#0078D4;}
</style>
<path class="st0" d="M187.3,190.5l62.1-127v2.2c17,0,31,13.3,32.1,30.2c0,0.5,0.1,1,0.1,1.3l0,0c0.1,0.4,0.1,0.7,0.1,0.9
	c0,1.4,0,2.4-0.2,3.5l-0.4,3l3-0.5c2-0.4,3.8-0.5,5.7-0.5c14.9,0,27.2,10.4,30.1,24.4l0.3,1.3l1.3,0.3c3.4,0.9,6.6,2.3,9.2,4.3l0,0
	l0,0c8.1,5.6,13.4,14.9,13.4,25.5c0,17.1-13.8,30.9-30.8,30.9h0h0l0,0h0l0,0h0l0,0h0l0,0h0l0,0h0l0,0h0l0,0h0l0,0h0l0,0h0l0,0h0l0,0
	h0l0,0h0l0,0h0l0,0h0l0,0h0l0,0h0l0,0h0l0,0h0l0,0h0l0,0h0l0,0h0l0,0h0l0,0h0l0,0h0l0,0h0l0,0h0h0l0,0h0l0,0h0l0,0h0l0,0h0l0,0h0
	l0,0h0l0,0h0l0,0h0l0,0h0l0,0h0l0,0h0l0,0h0l0,0h0l0,0h0l0,0h0l0,0h0l0,0h0l0,0h0l0,0h0l0,0h0l0,0h0l0,0h0l0,0h0l0,0h0l0,0h0h0l0,0
	h0l0,0h0l0,0h0l0,0h0l0,0h0l0,0h0l0,0h0l0,0h0l0,0h0l0,0h0l0,0h0l0,0h0l0,0h0l0,0h0l0,0h0l0,0h0l0,0h0l0,0h0l0,0h0l0,0h0l0,0h0l0,0
	h0l0,0h0l0,0h0l0,0h0l0,0h0h0l0,0h0l0,0h0l0,0h0l0,0h0l0,0h0l0,0h0l0,0h0l0,0h0l0,0h0l0,0h0l0,0h0l0,0h0l0,0h0l0,0h0l0,0h0l0,0h0
	l0,0h0l0,0h0l0,0h0l0,0h0l0,0h0l0,0h0l0,0h0l0,0h0l0,0h0l0,0h0h0l0,0h0l0,0h0l0,0h0l0,0h0l0,0h0l0,0h0l0,0h0l0,0h0l0,0h0l0,0h0l0,0
	h0l0,0h0l0,0h0l0,0h0l0,0h0l0,0h0l0,0h0l0,0h0l0,0h0l0,0h0l0,0h0l0,0h0l0,0h0l0,0h0l0,0h0l0,0h0h0l0,0h0l0,0h0l0,0h0l0,0h0l0,0h0
	l0,0h0l0,0h0l0,0h0l0,0h0l0,0h0l0,0h0l0,0h0l0,0h0l0,0h0l0,0h0l0,0h0l0,0h0l0,0h0l0,0h0l0,0h0l0,0h0l0,0h0l0,0h0l0,0h0l0,0h0h0l0,0
	h0l0,0h0l0,0h0l0,0h0l0,0h0l0,0h0l0,0h0l0,0h0l0,0h0l0,0h0l0,0h0l0,0h0l0,0h0l0,0h0l0,0h0l0,0h0l0,0h0l0,0h0l0,0h0l0,0h0l0,0h0l0,0
	h0l0,0h0l0,0h0l0,0h0l0,0h0h0l0,0h0l0,0h0l0,0h0l0,0h0l0,0h0l0,0h0l0,0h0l0,0h0l0,0h0l0,0h0l0,0h0l0,0h0l0,0h0l0,0h0l0,0h0l0,0h0
	l0,0h0l0,0h0l0,0h0l0,0h0l0,0h0l0,0h0l0,0h0l0,0h0l0,0h0l0,0h0h0l0,0h0l0,0h0l0,0h0l0,0h0l0,0h0l0,0h0l0,0h0l0,0h0l0,0h0l0,0h0l0,0
	h0l0,0h0l0,0h0l0,0h0l0,0h0l0,0h0l0,0h0l0,0h0l0,0h0l0,0h0l0,0h0l0,0h0l0,0h0l0,0h0l0,0h0l0,0h0h0l0,0h0l0,0h0l0,0h0l0,0h0l0,0h0
	l0,0h0l0,0h0l0,0h0l0,0h0l0,0h0l0,0h0l0,0h0l0,0h0l0,0h0l0,0h0l0,0h0l0,0h0l0,0h0l0,0H187.3z"/>
<path class="st0" d="M53.4,29l2.9,3l0.9-4.1C60.6,12.1,74.6,0.3,91.6,0.3c19.7,0,35.6,16,35.6,35.5c0,4.3-0.9,8.5-2.4,12.5l2.1,0.8
	l-22.8,47.6v-2.2h0h0h0h0h0h0h0h0h0h0h0h0h0h0h0h0h0h0h0h0h0h0h0h0h0h0h-0.1h-0.1h-0.1h-0.1h-0.1H103H103h-0.1h-0.1h-0.1h-0.1h-0.1
	h-0.1h-0.1h-0.1h-0.1h-0.1h-0.1h-0.1h-0.1H102h-0.1h-0.1h-0.1h-0.1h-0.1h-0.1h-0.1h-0.1h-0.1h-0.1H101h-0.1h-0.1h-0.1h-0.1h-0.1
	h-0.1h-0.1h-0.1h-0.1H100h-0.1h-0.1h-0.1h-0.1h-0.1h-0.1h-0.1h-0.1H99h-0.1h-0.1h-0.1h-0.1h-0.1h-0.1h-0.1H98h-0.1h-0.1h-0.1h-0.1
	h-0.1h-0.1h-0.1h-0.1h-0.1h-0.1h-0.1h-0.1h-0.1h-0.1h-0.1h-0.1h-0.1h-0.1h-0.1h-0.2H95h-0.2h-0.2h-0.2h-0.2h-0.2h-0.2h-0.2h-0.2
	h-0.2h-0.2h-0.2h-0.2H93h-0.2h-0.2h-0.2h-0.2h-0.2H92h-0.2h-0.2h-0.2h-0.2h-0.2h-0.2h-0.2h-0.2h-0.2h-0.2H90h-0.2h-0.2h-0.2h-0.2
	h-0.2H89h-0.2h-0.2h-0.2h-0.2H88h-0.2h-0.2h-0.2h-0.2h-0.2h-0.2h-0.2h-0.2h-0.2h-0.2h-0.2h-0.2h-0.2h-0.2h-0.2h-0.2h-0.2h-0.2h-0.2
	h-0.2h-0.2h-0.2h-0.2h-0.2h-0.2h-0.2h-0.2h-0.2h-0.2h-0.2h-0.2h-0.2h-0.2h-0.2h-0.2h-0.2h-0.2h-0.2h-0.2H80h-0.2h-0.2h-0.2h-0.2
	h-0.2h-0.2h-0.2h-0.2h-0.2h-0.2h-0.2h-0.2h-0.2H77h-0.2h-0.2h-0.2h-0.2h-0.2h-0.2h-0.2h-0.2H75h-0.2h-0.2h-0.2h-0.2h-0.2h-0.2h-0.2
	h-0.2H73h-0.2h-0.2h-0.2h-0.2h-0.2h-0.2h-0.2h-0.2H71h-0.2h-0.2h-0.2h-0.2h-0.2h-0.2h-0.2h-0.2H69h-0.2h-0.2h-0.2h-0.2h-0.2h-0.2
	h-0.2h-0.2h-0.2h-0.2h-0.2h-0.2H66h-0.2h-0.2h-0.2h-0.2h-0.2h-0.2h-0.2h-0.2H64h-0.2h-0.2h-0.2h-0.2h-0.2h-0.2h-0.2h-0.2h-0.2h-0.2
	h-0.2h-0.2H61h-0.2h-0.2h-0.2h-0.2h-0.2h-0.2h-0.2h-0.2H59h-0.2h-0.2h-0.2h-0.2h-0.2h-0.2h-0.2h-0.2h-0.2h-0.2h-0.2h-0.2H56h-0.2
	h-0.2h-0.2h-0.2h-0.2h-0.2h-0.2h-0.2H54h-0.2h-0.2h-0.2h-0.2h-0.2h-0.2h-0.2h-0.2h-0.2h-0.2h-0.2h-0.2h-0.2H51h-0.2h-0.2h-0.2h-0.2
	h-0.2h-0.2h-0.2h-0.2h-0.2h-0.2h-0.2h-0.2h-0.2H48h-0.2h-0.2h-0.2h-0.2H47h-0.2h-0.2h-0.2h-0.2H46h-0.2h-0.2h-0.2h-0.2h-0.2h-0.2
	h-0.2h-0.2h-0.2h-0.2h-0.2h-0.2h-0.2h-0.2H43h-0.2h-0.2h-0.2h-0.2H42h-0.2h-0.2h-0.2h-0.2h-0.2h-0.2h-0.2h-0.2h-0.2h-0.2h-0.2h-0.2
	h-0.2h-0.2h-0.2H39h-0.2h-0.2h-0.2h-0.2h-0.2H38h-0.2h-0.2h-0.2h-0.2h-0.2h-0.2h-0.2h-0.2h-0.2h-0.2h-0.2H36h-0.2h-0.2h-0.2h-0.2
	h-0.2H35h-0.2h-0.2h-0.2h-0.2h-0.2h-0.2h-0.2h-0.1h-0.1h-0.1h-0.1h-0.1H33h-0.1h-0.1h-0.1h-0.1h-0.1h-0.1H32h-0.1h-0.1h-0.1h-0.1
	h-0.1h-0.1h-0.1H31h-0.1h-0.1h-0.1h-0.1h-0.1h-0.1h-0.1H30h-0.1h-0.1h-0.1h-0.1h-0.1h-0.1h-0.1h-0.1H29h-0.1h-0.1h-0.1h-0.1h-0.1
	h-0.1h-0.1h-0.1h-0.1H28h-0.1h-0.1h-0.1h-0.1h-0.1h-0.1h-0.1h-0.1h-0.1h-0.1H27H27h-0.1h-0.1h-0.1h-0.1h-0.1h-0.1h-0.1h-0.1h-0.1
	h-0.1h-0.1h-0.1h-0.1H26H26h-0.1h-0.1h-0.1h0h0h0h0h0h0h0h0h0h0h0h0h0h0h0h0h0h0h0h0h0h0h0h0h0h0c-13.8,0-25-11.1-25-25.1
	c0-12.4,8.6-22.5,20.1-24.8l1.8-0.4v-1.8v0v0v0v0v0v0v0v0v0v0v0v0v0v0v0v0v0v0v0v0v0v0v0v0v0v0v0v0v0v0v0v0v0v0v0v0v0v0v0v0v0v0v0v0
	v0v0v0v0v0v0v0v0v0v0v0v0v0v0v0v0v0v0v0v0v0v0v0v0v0v0v0v0v0v0v0v0v0v0v0v0v0v0v0v0v0v0v0v0v0v0v0v0v0v0v0v0v0v0v0v0v0v0v0v0v0v0v0
	v0v0v0v0v0v0v0v0v0v0v0v0v0v0v0v0v0v0v0v0v0v0v0v0v0v0v0v0v0v0v0v0v0v0v0v0v0v0v0v0v0v0v0v0v0v0v0v0v0v0v0v0v0v0v0v0v0v0v0v0v0v0v0
	v0v0v0v0v0v0v0v0v0v0v0v0v0v0v0v0v0v0v0v0v0v0v0v0v0v0v0v0v0v0v0v0v0v0v0v0v0v0v0v0v0v0v0v0v0v0v0v0v0v0v0v0v0v0v0v0v0v0v0v0v0v0v0
	v0v0v0v0v0v0v0v0v0v0v0v0v0v0v0v0v0v0v0v0v0v0v0v0v0v0v0v0v0v0v0v0v0v0v0v0v0v0v0v0v0v0v0v0v0v0v0v0v0v0v0v0v0v0v0v0v0v0v0v0v0v0v0
	v0v0v0v0v0v0v0v0v0v0v0v0v0v0v0v0v0v0v0v0v0v0v0v0v0v0v0v0v0v0v0v0v0v0v0v0v0v0v0v0v0v0v0v0v0v0v0v0v0v0v0v0v0v0v0v0v0v0v0v0v0v0v0
	v0v0v0v0v0v0v0v0v0v0v0v0v0v0v0v0v0v0v0v0v0v0v0v0v0v0v0v0v0v0v0v0v0v0v0v0v0v0v0v0v0v0v0v0v0v0v0v0v0v0v0v0v0v0v0v0v0v0v0v0v0v0v0
	v0v0v0v0v0v0v0v0v0v0v0v0v0v0v0v0v0v0v0v0v0v0v0v0v0v0v0v0v0v0v0v0v0v0v0v0v0v0v0v0v0v0v0v0v0v0v0v0v0v0v0v0v0v0v0v0v0v0v0v0v0v0v0
	v0v0v0v0v0v0v0v0v0v0v0v0v0v0v0v0v0v0v0v0v0v0v0v0v0v0v0c0-10.1,8.2-18.4,18.3-18.4C45.3,23.4,50.1,25.6,53.4,29z"/>
<path class="st1" d="M254.9,95.5c0,72.8-59.7,111.9-80.6,112.2c0.2,0,0.2,0,0.4,0H174c0.2,0,0.2,0,0.4,0
	c-21.1-0.4-80.6-39.5-80.6-112.2c0-15.2,0-55.1,0-55.1s1.7,0.2,4.8,0.2c11.9,0,43.8-3.1,76.2-33.7c40.9,32.5,75.8,33.5,79.8,33.5
	c0.2,0,0.4,0,0.4,0S254.9,80.3,254.9,95.5z"/>
<path class="st2" d="M254.6,40.4c-4,0-39-1-79.8-33.5c-32.4,30.6-64.3,33.9-76.2,33.9c-3.1,0-4.8-0.4-4.8-0.4s0,39.9,0,55.1
	c0,72.8,59.7,111.9,80.6,112.2c20.9-0.6,80.6-39.5,80.6-112.2c0-15.2,0-55.1,0-55.1S254.8,40.4,254.6,40.4z"/>
<path class="st1" d="M199.7,101.6V82.4c0-13.9-11.3-25.2-25.1-25.2c-13.8,0-25.1,11.4-25.1,25.2v19.3h-7.1v44.7h63.9v-44.7H199.7z
	 M158,98.8V82.4c0-9,7.5-16.6,16.5-16.6c9,0,16.5,7.5,16.5,16.6v19.3h-33V98.8z M176.5,124.2v10h-4v-10c-1.7-0.8-3.1-2.5-3.1-4.6
	c0-2.7,2.3-5,5-5c2.7,0,5,2.3,5,5C179.5,121.7,178.2,123.4,176.5,124.2z"/>
</svg>
