<svg id="2fdfbf43-158d-40f4-ab9b-7368bcdadf01" data-name="Layer 1" xmlns="http://www.w3.org/2000/svg" width="200" height="200" viewBox="0 0 200 200"><defs><style>.d3d59d9e-358c-4ecb-ac1d-b6dfdf9e0a3d{fill:#51e5ff;}.d98d8042-f76c-4b7e-bd95-d625987c95df{fill:#fff;}.\38 4b88bc2-471c-4419-b6a4-fdfb7868fa7c{fill:#0078d4;}</style></defs><title>07_security</title><path class="d3d59d9e-358c-4ecb-ac1d-b6dfdf9e0a3d" d="M108.71,149.63L144,77.5v1.25A18.32,18.32,0,0,1,162.21,95.9c0,0.28.06,0.57,0.06,0.74h0a2,2,0,0,1,.06.51,10.71,10.71,0,0,1-.11,2l-0.23,1.7,1.7-.28a15.94,15.94,0,0,1,3.24-.28A17.38,17.38,0,0,1,184,114.13l0.17,0.74,0.74,0.17a14.76,14.76,0,0,1,5.23,2.44h0a17.56,17.56,0,0,1-9.88,32H108.71v0.11h0Z"/><path class="d3d59d9e-358c-4ecb-ac1d-b6dfdf9e0a3d" d="M32.66,57.9l1.65,1.7,0.51-2.33A19.89,19.89,0,0,1,54.36,41.6,20,20,0,0,1,73.22,68.87l1.19,0.45-12.95,27V95.1H16.93a14.32,14.32,0,0,1-2.78-28.34l1-.23v-1h0A10.45,10.45,0,0,1,25.56,55.06,8.76,8.76,0,0,1,32.66,57.9Z"/><path class="d98d8042-f76c-4b7e-bd95-d625987c95df" d="M147.11,95.67c0,41.35-33.91,63.55-45.78,63.72h0.06c-12-.23-45.78-22.43-45.78-63.72V64.38a26,26,0,0,0,2.73.11c6.76,0,24.88-1.76,43.28-19.14,23.23,18.46,43.05,19,45.32,19h0.23S147.11,87,147.11,95.67Z"/><path class="84b88bc2-471c-4419-b6a4-fdfb7868fa7c" d="M146.94,64.38c-2.27,0-22.15-.57-45.32-19C83.21,62.73,65.09,64.61,58.34,64.61a13.16,13.16,0,0,1-2.73-.23V95.67c0,41.35,33.91,63.55,45.78,63.72,11.87-.34,45.78-22.43,45.78-63.72V64.38h-0.23Z"/><path class="d98d8042-f76c-4b7e-bd95-d625987c95df" d="M115.75,99.14V88.23a14.26,14.26,0,1,0-28.51,0v11h-4v25.39H119.5V99.19l-3.75-.06h0ZM92.07,97.55V88.23a9.37,9.37,0,1,1,18.74,0v11H92.07V97.55ZM102.58,112v5.68h-2.27V112a3,3,0,0,1-1.76-2.61,2.84,2.84,0,0,1,5.68,0A2.76,2.76,0,0,1,102.58,112Z"/></svg>