<?xml version="1.0" encoding="utf-8"?>
<!-- Generator: Adobe Illustrator 21.1.0, SVG Export Plug-In . SVG Version: 6.00 Build 0)  -->
<svg version="1.1" id="Layer_1" xmlns="http://www.w3.org/2000/svg" xmlns:xlink="http://www.w3.org/1999/xlink" x="0px" y="0px"
	 viewBox="0 0 400 400" style="enable-background:new 0 0 400 400;" xml:space="preserve">
<style type="text/css">
	.st0{fill:#0078D4;}
	.st1{fill:#0078D7;}
	.st2{fill:#50E6FF;}
</style>
<path class="st0" d="M113.1,128.9H49.9v141.6h63.1V128.9z"/>
<path class="st0" d="M191.9,82.4h-63V271h63V82.4z"/>
<path class="st0" d="M270.6,50.2h-62.8v220.9h62.9L270.6,50.2L270.6,50.2z"/>
<path class="st0" d="M349.5,208.1h-62.8v63h62.8L349.5,208.1L349.5,208.1z"/>
<path class="st1" d="M349.5,286.5H99v15.7h250.4L349.5,286.5L349.5,286.5z"/>
<path class="st2" d="M121,349.8c39.1,0,70.7-31.6,70.7-70.7s-31.6-70.7-70.7-70.7S50.3,240,50.3,279.1S82,349.8,121,349.8z"/>
<path class="st0" d="M139.5,280.2c-2.9-3.1-7.8-5.9-14.7-8.4v-17.7c5.5,0.7,10.4,2.3,14.7,4.9v-12.6c-3.3-1.8-8.1-2.9-14.7-3.3v-8.5
	h-6.9v8.7c-5.5,0.4-10.1,2.4-13.6,5.9c-3.5,3.5-5.4,7.7-5.4,12.6c0,4.9,1.4,8.8,4.4,11.9c2.8,3,7.7,5.9,14.6,8.4v17
	c-2.8-0.2-6-1-9.6-2.3c-3.8-1.4-6.5-2.6-8.1-4v12.9c5.4,2.8,11.2,4.4,17.7,4.4v9.8h6.9v-10c6.3-0.7,11-2.7,14.3-5.8
	c3.2-3,4.9-7.3,4.9-12.5C143.9,287,142.5,283.2,139.5,280.2z M117.9,269c-4.3-2.2-6.5-4.8-6.5-8.1c0-3.6,2.2-5.9,6.5-6.7V269z
	 M124.7,299v-14.1c4.5,2,6.7,4.3,6.7,7.4C131.5,295.9,129.2,298.2,124.7,299z"/>
</svg>
