<?xml version="1.0" encoding="utf-8"?>
<!-- Generator: Adobe Illustrator 21.1.0, SVG Export Plug-In . SVG Version: 6.00 Build 0)  -->
<svg version="1.1" xmlns="http://www.w3.org/2000/svg" xmlns:xlink="http://www.w3.org/1999/xlink" x="0px" y="0px"
	 viewBox="0 0 400 400" style="enable-background:new 0 0 400 400;" xml:space="preserve">
<style type="text/css">
	.st0{fill:#FFFFFF;}
	.st1{fill:#0078D4;}
	.st2{fill:#50E6FF;}
</style>
<g id="Layer_2">
	<rect x="-10.5" y="-9" class="st0" width="417" height="417"/>
</g>
<g id="Layer_1">
	<path class="st1" d="M59.1,283.7c10.8-10.8,28.4-10.8,39.2,0c10.8,10.8,10.8,28.4,0,39.2c-10.8,10.8-28.4,10.8-39.2,0
		C48.3,312.1,48.3,294.6,59.1,283.7z"/>
	<path class="st2" d="M184.3,289.8c-7.3-7.3-19.1-7.3-26.4,0c-2.4,2.4-4,5.4-4.8,8.5h-18.4c-1.1-12.6-6.5-25-16.2-34.6
		c-5.5-5.5-11.9-9.7-18.8-12.4l12.1-19.5c3.1,0.9,6.5,1.1,9.8,0.3c10-2.4,16.2-12.4,13.9-22.4c-2.4-10-12.4-16.2-22.4-13.9
		c-10,2.4-16.2,12.4-13.9,22.4c0.8,3.4,2.5,6.3,4.7,8.6l-13.4,21.6c-18-3.8-37.4,1.2-51.3,15.2c-21.9,21.9-21.9,57.5,0,79.4
		c21.9,21.9,57.5,21.9,79.4,0c9.9-9.9,15.3-22.5,16.2-35.4h18.3c0.8,3.1,2.4,6.1,4.8,8.5c7.3,7.3,19.1,7.3,26.4,0
		C191.6,308.9,191.6,297,184.3,289.8z M109.7,334.3c-17,17-44.8,17-61.7,0c-17-17-17-44.8,0-61.7c17-17,44.8-17,61.7,0
		C126.7,289.5,126.7,317.2,109.7,334.3z"/>
	<path class="st1" d="M180,76.5c10.8-10.8,28.4-10.8,39.2,0c10.8,10.8,10.8,28.4,0,39.2c-10.8,10.8-28.4,10.8-39.2,0
		C169.1,104.9,169.1,87.3,180,76.5z"/>
	<path class="st2" d="M256.1,147.9c-3.4-0.8-6.7-0.6-9.8,0.3l-7.4-12c0.1-0.1,0.3-0.2,0.4-0.4c21.9-21.9,21.9-57.5,0-79.4
		c-21.9-21.9-57.5-21.9-79.4,0c-21.9,21.9-21.9,57.5,0,79.4c0,0,0,0,0.1,0.1l-7.6,12.4c-3.1-0.9-6.5-1.1-9.8-0.3
		c-10,2.4-16.2,12.4-13.9,22.4c2.4,10,12.4,16.2,22.4,13.9c10-2.4,16.2-12.4,13.9-22.4c-0.8-3.4-2.5-6.3-4.7-8.6l6.9-11.2
		c19.2,13.6,45.1,13.7,64.5,0.3l6.7,10.9c-2.2,2.3-3.9,5.3-4.7,8.6c-2.4,10,3.9,20.1,13.9,22.4c10,2.4,20.1-3.9,22.4-13.9
		C272.3,160.3,266.1,150.3,256.1,147.9z M168.7,127c-17-17-17-44.8,0-61.7c17-17,44.8-17,61.7,0c17,17,17,44.8,0,61.7
		C213.5,144,185.7,144,168.7,127z"/>
	<path class="st1" d="M301,283.4c10.9-10.8,28.5-10.7,39.2,0.2c10.8,10.9,10.7,28.5-0.2,39.2c-10.9,10.8-28.5,10.7-39.2-0.2
		C290,311.8,290.1,294.2,301,283.4z"/>
	<path class="st2" d="M360.4,263.7c-14.1-14.2-34-19.3-52.3-15.2l-13.3-21.6c2.2-2.3,3.9-5.3,4.7-8.6c2.4-10-3.9-20.1-13.9-22.4
		c-10-2.4-20.1,3.9-22.4,13.9c-2.4,10,3.9,20.1,13.9,22.4c3.4,0.8,6.7,0.6,9.8-0.3l12.1,19.6c-6.5,2.7-12.6,6.7-18,11.9
		c-9.8,9.8-15.3,22.3-16.4,35.1h-19.2c-0.8-3.1-2.4-6.1-4.8-8.5c-7.3-7.3-19.1-7.3-26.4,0c-7.3,7.3-7.3,19.1,0,26.4
		c7.3,7.3,19.1,7.3,26.4,0c2.4-2.4,4-5.4,4.8-8.5h19.1c1,12.7,6.3,25.2,16,35.1c21.8,22,57.4,22.2,79.4,0.4
		C382,321.2,382.2,285.6,360.4,263.7z M351.2,334.2c-17.1,17-44.8,16.8-61.7-0.3c-17-17.1-16.8-44.8,0.3-61.7
		c17.1-17,44.8-16.8,61.7,0.3C368.5,289.5,368.4,317.2,351.2,334.2z"/>
</g>
</svg>
