<svg xmlns="http://www.w3.org/2000/svg" width="300" height="200" viewBox="0 0 300 200"><title>08_WhyChooseCosmos-01-01</title><path d="M185.08,198.62a30.6,30.6,0,0,0-61.2,0Z" style="fill:#0078d7"/><circle cx="154.48" cy="147.78999" r="14.79" style="fill:#0078d7"/><path d="M246.28,161.9a30.6,30.6,0,0,0-61.2,0Z" style="fill:#50e6ff"/><circle cx="215.67999" cy="111.07" r="14.79" style="fill:#50e6ff"/><polygon points="169.32 1.25 51 1.25 51 95.09 99.6 95.09 110.96 106.45 122.33 95.09 169.32 95.09 169.32 1.25" style="fill:#0078d7"/><polygon points="148.41 27.77 138.85 18.21 97.67 59.4 84.2 45.93 74.64 55.49 97.36 78.21 97.67 77.9 97.97 78.21 148.41 27.77" style="fill:#50e6ff"/></svg>