<svg id="b8f0edde-9078-46f8-9048-74ef03fc3dd2" data-name="Layer 1" xmlns="http://www.w3.org/2000/svg" width="200" height="200" viewBox="0 0 200 200"><defs><style>.\36 a0dd9fb-6451-419b-b08f-caf7285a247e{fill:#2376bc;}.e9dd0dbd-fd58-423a-9f40-61463c82e221{fill:#74cfeb;}</style></defs><title>08_WhyChooseCosmos</title><path class="6a0dd9fb-6451-419b-b08f-caf7285a247e" d="M135.08,198.62a30.6,30.6,0,0,0-61.2,0h61.2Z"/><circle class="6a0dd9fb-6451-419b-b08f-caf7285a247e" cx="104.48" cy="147.79" r="14.79"/><path class="e9dd0dbd-fd58-423a-9f40-61463c82e221" d="M196.28,161.9a30.6,30.6,0,0,0-61.2,0h61.2Z"/><circle class="e9dd0dbd-fd58-423a-9f40-61463c82e221" cx="165.68" cy="111.07" r="14.79"/><polygon class="6a0dd9fb-6451-419b-b08f-caf7285a247e" points="119.32 1.25 1 1.25 1 95.09 49.6 95.09 60.96 106.45 72.33 95.09 119.32 95.09 119.32 1.25"/><polygon class="e9dd0dbd-fd58-423a-9f40-61463c82e221" points="98.41 27.77 88.85 18.21 47.67 59.4 34.2 45.93 24.64 55.49 47.36 78.21 47.67 77.9 47.97 78.21 98.41 27.77"/></svg>