<svg width="50" height="49" viewBox="0 0 50 49" version="1.1" xmlns="http://www.w3.org/2000/svg" xmlns:xlink="http://www.w3.org/1999/xlink">
<title>Github-logo</title>
<desc>Created using Figma</desc>
<g id="Canvas" transform="translate(-15172 -1000)">
<g id="Github-logo">
<g id="Vector">
<use xlink:href="#path0_fill" transform="translate(15172 1000)" fill="#191717"/>
</g>
</g>
</g>
<defs>
<path id="path0_fill" fill-rule="evenodd" d="M 24.9235 0C 11.1621 0 0 11.1621 0 24.9235C 0 35.9327 7.18654 45.2599 16.9725 48.6238C 18.1957 48.7768 18.6544 48.0122 18.6544 47.4006C 18.6544 46.789 18.6544 45.2599 18.6544 43.1193C 11.7737 44.6483 10.2446 39.7553 10.2446 39.7553C 9.17431 36.8502 7.49235 36.0856 7.49235 36.0856C 5.19878 34.5566 7.64526 34.5566 7.64526 34.5566C 10.0917 34.7095 11.4679 37.156 11.4679 37.156C 13.7615 40.9786 17.2783 39.9083 18.6544 39.2966C 18.8073 37.6147 19.5719 36.5443 20.1835 35.9327C 14.6789 35.3211 8.8685 33.1804 8.8685 23.5474C 8.8685 20.7951 9.78593 18.6544 11.4679 16.8196C 11.315 16.3609 10.3976 13.7615 11.7737 10.3976C 11.7737 10.3976 13.9144 9.78593 18.6544 12.9969C 20.6422 12.3853 22.7829 12.2324 24.9235 12.2324C 27.0642 12.2324 29.2049 12.5382 31.1927 12.9969C 35.9327 9.78593 38.0734 10.3976 38.0734 10.3976C 39.4495 13.7615 38.5321 16.3609 38.3792 16.9725C 39.9083 18.6544 40.9786 20.948 40.9786 23.7003C 40.9786 33.3333 35.1682 35.3211 29.6636 35.9327C 30.581 36.6972 31.3456 38.2263 31.3456 40.5199C 31.3456 43.8838 31.3456 46.4832 31.3456 47.4006C 31.3456 48.0122 31.8043 48.7768 33.0275 48.6238C 42.9664 45.2599 50 35.9327 50 24.9235C 49.8471 11.1621 38.685 0 24.9235 0Z"/>
</defs>
</svg>
