<svg width="96" height="96" viewBox="0 0 96 96" fill="none" xmlns="http://www.w3.org/2000/svg">
<path d="M81.9367 14.0625L78.3662 17.633C82.3073 21.5741 85.4062 26.172 87.5788 31.2919C89.8188 36.5804 90.9472 42.2056 90.9472 47.9993C90.9472 53.793 89.8188 59.4182 87.5788 64.7066C85.423 69.8266 82.3241 74.4076 78.3662 78.3655L81.9367 81.9361C90.6272 73.2624 95.9999 61.254 95.9999 47.9993C95.9999 34.7446 90.6272 22.7362 81.9367 14.0625Z" fill="#50E6FF"/>
<path d="M51.0318 21.4404C50.4591 20.6488 49.836 20.2109 49.2128 20.2109C48.977 20.2109 48.7412 20.2783 48.5054 20.3962C48.4718 20.413 48.4381 20.4467 48.4044 20.4636C48.3202 20.5309 48.2191 20.5815 48.1349 20.6488C48.1012 20.6657 48.0844 20.6994 48.0507 20.7162C45.6423 22.7709 43.7391 31.0572 43.1833 41.7014C44.8002 41.7351 46.2654 42.4088 47.3433 43.4867C48.4549 44.5983 49.1286 46.114 49.1286 47.8151C49.1286 49.6172 48.3539 51.2172 47.1244 52.3456C46.0802 53.3056 44.6823 53.8951 43.1665 53.9288C43.6886 64.7751 45.6086 73.2466 48.0507 75.335C48.1518 75.4193 48.2528 75.5035 48.3707 75.5708C48.6402 75.7393 48.9265 75.8235 49.2128 75.8235C49.8528 75.8235 50.4591 75.3856 51.0318 74.594C52.6823 72.3035 54.0465 66.9477 54.7875 60.0088C55.1749 56.3877 55.3939 52.3288 55.3939 48.034C55.3939 43.7393 55.1749 39.6972 54.7875 36.0593C54.0465 29.0867 52.6991 23.7309 51.0318 21.4404Z" fill="#50E6FF"/>
<path d="M53.3053 20.6333C53.3896 20.5659 53.4569 20.5154 53.5411 20.4648L52.9517 20.6501C53.0359 20.6669 53.1201 20.6838 53.2043 20.7006C53.238 20.6838 53.2717 20.6501 53.3053 20.6333Z" fill="white"/>
<path d="M53.6758 20.3945C53.6252 20.4114 53.5915 20.4451 53.541 20.4619L53.5747 20.4451C53.6084 20.4282 53.6421 20.4114 53.6758 20.3945Z" fill="white"/>
<path d="M53.5746 20.4648L53.541 20.4817C53.4568 20.5322 53.3725 20.5827 53.3052 20.6501C53.4062 20.5827 53.4904 20.5154 53.5746 20.4648Z" fill="white"/>
<path d="M52.9517 75.3501L53.3896 75.4848C53.3053 75.4343 53.2211 75.3669 53.1369 75.3164C53.0696 75.3332 53.019 75.3332 52.9517 75.3501Z" fill="white"/>
<path d="M4.93506 60.6328C4.9519 60.6497 4.98559 60.6328 5.00243 60.6328C4.96874 60.6497 4.9519 60.6497 4.93506 60.6328Z" fill="white"/>
<path d="M4.54736 60.6133C4.66526 60.6301 4.79999 60.647 4.93473 60.647V60.6301C4.79999 60.6301 4.6821 60.6133 4.54736 60.6133Z" fill="white"/>
<path d="M43.1831 53.8932C44.7157 53.8595 46.0968 53.2701 47.141 52.3101C48.3704 51.1985 49.1452 49.5817 49.1452 47.7796C49.1452 46.0953 48.4547 44.5627 47.3599 43.4511C46.282 42.3732 44.8168 41.6996 43.1999 41.6659C43.7557 31.0217 45.6589 22.7354 48.0673 20.6807C48.101 20.6638 48.1178 20.6301 48.1515 20.6133C48.1178 20.6301 48.0841 20.647 48.0504 20.6807C39.3768 26.2891 29.7094 30.5333 19.3852 33.0596C17.2631 33.5817 15.1073 34.0196 12.9347 34.3901C10.4084 34.828 7.84841 35.148 5.27157 35.3838C5.17052 35.3669 5.05262 35.3501 4.95157 35.3501C4.73262 35.3501 4.53052 35.3838 4.31157 35.4511C1.86947 36.2764 0 41.5817 0 48.0153C0 54.668 2.00421 60.1248 4.54736 60.6132C4.6821 60.6301 4.79999 60.6301 4.93473 60.6469C4.95157 60.6469 4.98525 60.6469 5.0021 60.6469C7.67999 60.8827 10.341 61.2195 12.9516 61.6574C15.141 62.0279 17.2968 62.4827 19.4189 63.0048C19.6379 63.0553 19.8568 63.1227 20.0758 63.1732V85.8932H30.181V66.3395C36.4463 68.7142 42.4083 71.729 47.9494 75.3163C48.0336 75.3669 48.1178 75.4342 48.202 75.4848L48.3536 75.5353C48.2525 75.4679 48.1347 75.4006 48.0336 75.2995C45.6252 73.2279 43.6883 64.7395 43.1831 53.8932Z" fill="#0078D4"/>
<path d="M75.7894 48.0017C75.7894 40.2206 73.0778 33.0628 68.5473 27.4375L64.96 31.0249C68.6989 35.8754 70.7368 41.7869 70.7368 48.0017C70.7368 54.2164 68.7157 60.1111 64.9768 64.9616L68.5642 68.549C73.0778 62.9238 75.7894 55.7827 75.7894 48.0017Z" fill="#50E6FF"/>
</svg>
